<svg width="30" height="35" viewBox="0 0 30 35" fill="none" xmlns="http://www.w3.org/2000/svg">
<path d="M28.8524 22.8706C27.9322 22.3369 26.7654 22.3927 25.7288 23.0186L19.5742 26.3095C19.55 26.3224 19.5269 26.3372 19.5052 26.3539C19.4184 26.419 19.3237 26.4732 19.2233 26.5153C19.4103 26.2621 19.5187 25.9612 19.5355 25.6489C19.569 24.8742 19.0188 24.1358 17.9002 23.4543C15.5519 22.0231 10.9501 21.082 9.12628 22.0643C9.12036 22.0676 9.11452 22.0709 9.10867 22.0742C9.10867 22.0742 7.70183 22.9062 5.05945 24.4729C4.79997 24.1997 4.45389 24.0208 4.07758 23.9652C3.70127 23.9097 3.3169 23.9809 2.98705 24.1672L0.252638 25.7167C0.136584 25.7825 0.0519004 25.8908 0.0172174 26.0179C-0.0174656 26.1449 0.000692445 26.2803 0.0676969 26.3942L4.98358 34.752C5.01676 34.8084 5.06093 34.8578 5.11358 34.8975C5.16622 34.9371 5.22631 34.9662 5.29042 34.9831C5.35452 35 5.42138 35.0043 5.48718 34.9958C5.55298 34.9873 5.61643 34.9661 5.6739 34.9335L8.40832 33.3839C8.77005 33.1779 9.04092 32.8473 9.16839 32.4563C9.29586 32.0654 9.27085 31.6419 9.0982 31.268L9.47927 31.0288C9.51479 31.0401 9.55651 31.0527 9.6048 31.0657L15.5239 32.6621C16.0129 32.8338 16.5278 32.9238 17.0471 32.9284C17.7967 32.9275 18.5303 32.7153 19.1606 32.317L28.2908 26.9131C29.7134 26.2624 29.971 25.3275 29.9974 24.8261C30.0379 24.0531 29.5992 23.304 28.8524 22.8706ZM8.21558 32.1237C8.19318 32.2075 8.15407 32.286 8.10052 32.3549C8.04697 32.4237 7.98003 32.4815 7.90359 32.5248L5.60677 33.8264L1.19554 26.3281L3.49236 25.0265C3.64686 24.9392 3.83036 24.9155 4.00258 24.9608C4.17481 25.0061 4.32169 25.1166 4.411 25.2681L8.1496 31.6234C8.19376 31.6984 8.2223 31.7813 8.23359 31.8673C8.24488 31.9532 8.23868 32.0405 8.21536 32.1241L8.21558 32.1237ZM28.9878 24.7747C28.9623 25.2588 28.5556 25.7023 27.8426 26.0234C27.8254 26.0312 27.8086 26.0399 27.7924 26.0495L18.6344 31.4697L18.6261 31.4747C17.7855 31.9942 16.8743 32.0744 15.8405 31.7198C15.8298 31.7161 15.8189 31.7127 15.8078 31.7098L9.87283 30.1095C9.80938 30.0924 9.76455 30.077 9.72492 30.0634C9.39842 29.9512 9.22814 30.0078 8.94834 30.1853L8.59932 30.4044L5.60251 25.3099C8.10622 23.8254 9.4945 23.0043 9.62047 22.9297C10.9704 22.2148 15.1613 22.9533 17.3669 24.2972C18.1195 24.7557 18.5418 25.2331 18.5257 25.607C18.5112 25.9459 18.1214 26.3269 17.429 26.684C16.4751 26.6033 15.1484 26.3292 13.301 25.7318C13.2379 25.7114 13.1714 25.7034 13.1052 25.7083C13.039 25.7131 12.9745 25.7307 12.9152 25.7601C12.7955 25.8193 12.7047 25.9228 12.6628 26.0478C12.642 26.1096 12.6339 26.1749 12.6388 26.2399C12.6438 26.3049 12.6617 26.3682 12.6916 26.4264C12.7215 26.4846 12.7627 26.5364 12.813 26.5789C12.8633 26.6214 12.9217 26.6538 12.9847 26.6741C16.6114 27.8467 18.9372 28.0066 20.0912 27.1626L26.2241 23.8838C26.2325 23.8793 26.2407 23.8746 26.2488 23.8696C27.2783 23.2426 28.0529 23.5597 28.3382 23.7251C28.7602 23.9695 29.0091 24.3718 28.9878 24.7747ZM4.3264 27.3299C4.35958 27.3863 4.38111 27.4486 4.38977 27.5132C4.39843 27.5778 4.39405 27.6434 4.37687 27.7063C4.3597 27.7692 4.33006 27.8282 4.28966 27.8798C4.24926 27.9315 4.19889 27.9749 4.14142 28.0074C4.08395 28.04 4.02051 28.0611 3.95472 28.0696C3.88892 28.0781 3.82207 28.0738 3.75797 28.057C3.69387 28.0401 3.63378 28.011 3.58114 27.9714C3.52849 27.9317 3.48432 27.8823 3.45114 27.8259L2.86318 26.8264C2.83 26.77 2.80847 26.7077 2.79981 26.6431C2.79115 26.5786 2.79553 26.5129 2.81271 26.45C2.82989 26.3871 2.85952 26.3281 2.89992 26.2765C2.94032 26.2248 2.99069 26.1814 3.04816 26.1489C3.10563 26.1163 3.16907 26.0952 3.23487 26.0867C3.30066 26.0782 3.36751 26.0825 3.43161 26.0993C3.49571 26.1162 3.5558 26.1453 3.60844 26.1849C3.66109 26.2246 3.70526 26.274 3.73844 26.3304L4.3264 27.3299ZM6.95997 12.8443L7.99418 13.1641C8.23072 14.1578 8.63117 15.1068 9.1797 15.9737L8.67865 16.9251C8.56955 17.131 8.53031 17.3657 8.56667 17.5951C8.60303 17.8244 8.71308 18.0363 8.88078 18.2L10.043 19.3407C10.2101 19.5057 10.4267 19.6139 10.661 19.6492C10.8954 19.6846 11.1351 19.6453 11.345 19.5372L12.3075 19.045C13.1904 19.5838 14.1571 19.9774 15.1694 20.2102L15.5003 21.23C15.5714 21.4513 15.7128 21.6445 15.9036 21.7815C16.0945 21.9184 16.325 21.992 16.5614 21.9914H18.2049C18.442 21.9921 18.6731 21.9182 18.8642 21.7806C19.0554 21.6431 19.1966 21.449 19.2672 21.2269L19.5929 20.2117C20.6053 19.9795 21.5723 19.5865 22.4555 19.0482L23.4249 19.54C23.6347 19.647 23.8738 19.6855 24.1075 19.6499C24.3411 19.6142 24.5571 19.5062 24.7238 19.3416L25.886 18.2009C26.0541 18.0369 26.1643 17.8242 26.2003 17.5943C26.2363 17.3643 26.1963 17.129 26.0862 16.923L25.5847 15.9782C26.1337 15.1117 26.5347 14.1629 26.7718 13.1694L27.8113 12.8446C28.0367 12.7747 28.2335 12.636 28.3731 12.4486C28.5126 12.2613 28.5875 12.0351 28.5869 11.8031V10.1897C28.5877 9.95699 28.5124 9.73012 28.3722 9.54242C28.232 9.35472 28.0341 9.21607 27.8077 9.14682L26.7734 8.8275C26.5369 7.83381 26.1365 6.88474 25.588 6.01784L26.0891 5.06632C26.1982 4.86042 26.2374 4.62572 26.201 4.39642C26.1647 4.16712 26.0546 3.95521 25.887 3.79158L24.7248 2.65088C24.5577 2.48584 24.341 2.3777 24.1067 2.34233C23.8724 2.30696 23.6326 2.34622 23.4227 2.45434L22.4603 2.9464C21.5774 2.40758 20.6107 2.01402 19.5985 1.78126L19.2677 0.761436C19.1965 0.540123 19.0552 0.346901 18.8643 0.209935C18.6734 0.0729693 18.443 -0.000581125 18.2065 4.35365e-06H16.5626C16.3255 -0.000653462 16.0945 0.0732492 15.9033 0.210878C15.7122 0.348507 15.571 0.542622 15.5004 0.764766L15.1747 1.78006C14.1624 2.01218 13.1955 2.40518 12.3124 2.94349L11.3428 2.45144C11.133 2.34436 10.8938 2.30586 10.6602 2.34155C10.4265 2.37724 10.2106 2.48524 10.0439 2.64982L8.88171 3.79051C8.71361 3.95458 8.60347 4.16718 8.56745 4.39716C8.53142 4.62714 8.57141 4.8624 8.68154 5.06845L9.18302 6.01317C8.63395 6.87972 8.23292 7.82855 7.99577 8.82211L6.95651 9.14682C6.73103 9.21667 6.53417 9.35537 6.39464 9.54272C6.2551 9.73007 6.18018 9.95626 6.18079 10.1883V11.8018C6.18014 12.0345 6.25544 12.2612 6.39566 12.4489C6.53588 12.6365 6.73365 12.7751 6.95997 12.8443ZM7.1914 10.1883C7.19012 10.1665 7.19658 10.145 7.20967 10.1274C7.22276 10.1099 7.24166 10.0973 7.26315 10.0919L8.58005 9.68033C8.66586 9.65352 8.74282 9.60469 8.80295 9.53889C8.86308 9.4731 8.90421 9.39272 8.92207 9.30609C9.14162 8.23738 9.57132 7.22092 10.1871 6.31357C10.2372 6.23967 10.2661 6.15394 10.2709 6.06532C10.2757 5.97671 10.2562 5.88845 10.2144 5.80976L9.57752 4.60997C9.5661 4.59122 9.5617 4.56914 9.56507 4.54755C9.56845 4.52595 9.57938 4.50619 9.596 4.49165L10.7582 3.35096C10.773 3.33472 10.793 3.32401 10.8149 3.32068C10.8368 3.31735 10.8592 3.32159 10.8783 3.33268L12.1071 3.95616C12.1871 3.99674 12.2767 4.01561 12.3666 4.01082C12.4565 4.00602 12.5435 3.97773 12.6185 3.92888C13.5435 3.32521 14.5794 2.90424 15.6685 2.68949C15.7571 2.67197 15.8392 2.63145 15.9065 2.57214C15.9737 2.51284 16.0235 2.43693 16.0506 2.35232L16.4643 1.06276C16.4697 1.04158 16.4825 1.02291 16.5005 1.00998C16.5184 0.997046 16.5404 0.990658 16.5626 0.991913H18.2065C18.2287 0.990671 18.2506 0.997014 18.2685 1.00986C18.2864 1.0227 18.2992 1.04125 18.3047 1.06234L18.7241 2.35508C18.7514 2.43929 18.8012 2.51481 18.8682 2.57381C18.9352 2.63282 19.0171 2.67317 19.1054 2.6907C20.1942 2.90621 21.2298 3.3279 22.1543 3.93221C22.2296 3.98129 22.3169 4.00966 22.4071 4.01436C22.4974 4.01906 22.5873 3.99991 22.6674 3.95892L23.8897 3.33388C23.9088 3.32266 23.9313 3.31835 23.9533 3.32167C23.9753 3.32499 23.9955 3.33575 24.0103 3.35209L25.1725 4.49278C25.1891 4.50726 25.2 4.52695 25.2034 4.54846C25.2069 4.56998 25.2026 4.592 25.1913 4.61075L24.556 5.81663C24.5147 5.89512 24.4955 5.98303 24.5004 6.07126C24.5052 6.15948 24.5341 6.24483 24.5838 6.31846C25.1989 7.22633 25.6278 8.24314 25.8465 9.31204C25.8644 9.399 25.9056 9.47968 25.9661 9.54565C26.0265 9.61162 26.1038 9.66047 26.19 9.68713L27.5038 10.0931C27.5254 10.0984 27.5444 10.111 27.5576 10.1286C27.5708 10.1462 27.5773 10.1678 27.576 10.1896V11.8031C27.5773 11.8248 27.5708 11.8463 27.5577 11.8639C27.5446 11.8815 27.5257 11.894 27.5043 11.8994L26.1871 12.3111C26.1014 12.3379 26.0244 12.3867 25.9643 12.4525C25.9042 12.5183 25.8631 12.5987 25.8453 12.6853C25.6256 13.754 25.196 14.7704 24.5803 15.6778C24.5303 15.7517 24.5014 15.8374 24.4966 15.926C24.4918 16.0145 24.5113 16.1027 24.5531 16.1814L25.19 17.3812C25.2014 17.4 25.2057 17.422 25.2023 17.4436C25.199 17.4652 25.188 17.4849 25.1714 17.4995L24.0092 18.6402C23.9944 18.6564 23.9744 18.6671 23.9525 18.6704C23.9305 18.6737 23.9081 18.6695 23.889 18.6584L22.6603 18.035C22.5804 17.9944 22.4908 17.9755 22.4009 17.9803C22.311 17.9851 22.2241 18.0133 22.149 18.0622C21.2241 18.6659 20.1881 19.0869 19.0991 19.3016C19.0105 19.3191 18.9283 19.3596 18.8611 19.4189C18.7939 19.4782 18.7441 19.5541 18.717 19.6387L18.3033 20.9282C18.2978 20.9494 18.285 20.9681 18.2671 20.981C18.2491 20.994 18.2272 21.0003 18.2049 20.9991H16.5612C16.539 21.0003 16.517 20.9939 16.4991 20.981C16.4812 20.968 16.4684 20.9494 16.463 20.9282L16.0435 19.6355C16.0162 19.5513 15.9665 19.4758 15.8994 19.4168C15.8324 19.3578 15.7505 19.3175 15.6622 19.2999C14.5734 19.0844 13.5378 18.6627 12.6133 18.0584C12.538 18.0093 12.4507 17.981 12.3605 17.9763C12.2703 17.9716 12.1804 17.9907 12.1003 18.0317L10.878 18.6576C10.8589 18.6688 10.8365 18.6731 10.8145 18.6698C10.7925 18.6665 10.7723 18.6558 10.7575 18.6395L9.59535 17.4988C9.57881 17.4843 9.56791 17.4646 9.56451 17.4431C9.56112 17.4215 9.56543 17.3995 9.57672 17.3808L10.212 16.1749C10.2533 16.0964 10.2726 16.0085 10.2677 15.9203C10.2628 15.8321 10.234 15.7467 10.1842 15.6731C9.5691 14.7652 9.14019 13.7485 8.92142 12.6796C8.90356 12.5926 8.86226 12.5119 8.80182 12.446C8.74139 12.38 8.66403 12.3311 8.57781 12.3045L7.26402 11.8984C7.24243 11.8931 7.22341 11.8806 7.21024 11.8629C7.19706 11.8453 7.19056 11.8238 7.19183 11.8019L7.1914 10.1883ZM17.1478 12.4295H17.155L17.589 12.4265C17.8298 12.4247 18.0609 12.3325 18.2347 12.1688C18.4086 12.0052 18.512 11.7824 18.5239 11.5463L18.7116 7.79527C18.7179 7.66924 18.6978 7.54327 18.6527 7.42512C18.6075 7.30697 18.5382 7.19913 18.4491 7.10822C18.3599 7.01731 18.2527 6.94526 18.1342 6.89649C18.0156 6.84772 17.8881 6.82326 17.7595 6.82462L16.9882 6.83291C16.8622 6.83427 16.7377 6.86043 16.6221 6.90985C16.5065 6.95926 16.4022 7.03092 16.3153 7.12059C16.2284 7.21026 16.1607 7.31612 16.1163 7.43191C16.0718 7.5477 16.0514 7.67106 16.0564 7.79471L16.2063 11.5406C16.2148 11.7798 16.3178 12.0063 16.4936 12.1723C16.6693 12.3382 16.9039 12.4305 17.1478 12.4295ZM17.6984 7.81717L17.5179 11.4352L17.2135 11.4373L17.0691 7.8239L17.6984 7.81717ZM17.3863 12.4508C17.1314 12.4549 16.8835 12.5328 16.6736 12.6748C16.4637 12.8167 16.3013 13.0164 16.2066 13.2487C16.112 13.481 16.0894 13.7355 16.1417 13.9804C16.194 14.2252 16.3188 14.4494 16.5005 14.6249C16.6822 14.8003 16.9127 14.9192 17.163 14.9665C17.4133 15.0138 17.6722 14.9874 17.9073 14.8907C18.1424 14.794 18.3431 14.6313 18.4843 14.4231C18.6255 14.2148 18.7008 13.9702 18.7008 13.72C18.6977 13.3807 18.5575 13.0564 18.3111 12.8184C18.0646 12.5803 17.732 12.448 17.3863 12.4504V12.4508ZM17.3863 13.9973C17.3313 13.9933 17.2786 13.9737 17.2348 13.9408C17.191 13.9079 17.158 13.8632 17.1397 13.8122C17.1214 13.7611 17.1187 13.7059 17.1319 13.6534C17.1451 13.6008 17.1737 13.5532 17.2141 13.5163C17.2545 13.4795 17.3049 13.455 17.3593 13.4459C17.4137 13.4368 17.4695 13.4435 17.5201 13.4651C17.5706 13.4867 17.6137 13.5224 17.6439 13.5677C17.6741 13.6129 17.6902 13.6659 17.6902 13.72C17.687 13.7962 17.6533 13.8681 17.5964 13.9199C17.5394 13.9718 17.4639 13.9994 17.3863 13.9968V13.9973ZM11.7273 16.4781H12.9883C14.2408 17.4469 15.7891 17.9738 17.3839 17.9738C18.9786 17.9738 20.5269 17.4469 21.7794 16.4781H23.0404C23.7327 16.4781 24.3377 16.0888 24.6588 15.4366C24.8106 15.1303 24.8831 14.7919 24.8697 14.4515C24.8563 14.1111 24.7575 13.7792 24.582 13.4853L24.2264 12.8901C24.4861 11.9855 24.5571 11.0387 24.435 10.1066C24.3128 9.17439 24.0001 8.27604 23.5156 7.46539C23.031 6.65474 22.3846 5.9485 21.6152 5.38905C20.8457 4.82959 19.9691 4.42844 19.0378 4.20967L18.9255 4.02177C18.5836 3.44972 18.0217 3.12197 17.3838 3.12197C16.746 3.12197 16.1841 3.45 15.8422 4.02177L15.73 4.20952C14.7987 4.42834 13.9221 4.82951 13.1526 5.38899C12.3832 5.94846 11.7368 6.65471 11.2522 7.46537C10.7677 8.27602 10.4549 9.17439 10.3327 10.1066C10.2106 11.0388 10.2815 11.9856 10.5412 12.8902L10.1857 13.4854C10.0103 13.7793 9.91144 14.1112 9.89803 14.4515C9.88462 14.7919 9.95702 15.1303 10.1088 15.4367C10.4299 16.0884 11.0349 16.4777 11.7273 16.4777V16.4781ZM17.3838 16.9819C16.5424 16.981 15.7102 16.8095 14.9395 16.4781H19.8283C19.0575 16.8094 18.2253 16.9808 17.3838 16.9815V16.9819ZM23.4824 10.996C23.4824 11.1963 23.4713 11.3956 23.4513 11.5936L19.8121 5.5051C20.9003 5.97265 21.8266 6.74059 22.4782 7.71546C23.1299 8.69033 23.4787 9.83008 23.4824 10.996ZM17.3838 4.11359C17.735 4.11359 17.942 4.33663 18.0539 4.52375L23.7104 13.9871C23.8029 14.1401 23.8549 14.3134 23.8616 14.4911C23.8683 14.6689 23.8295 14.8455 23.7488 15.0048C23.5962 15.315 23.3446 15.4858 23.0404 15.4858H11.7273C11.4231 15.4858 11.1715 15.315 11.0188 15.0048C10.9381 14.8455 10.8993 14.6689 10.9061 14.4911C10.9128 14.3133 10.9648 14.14 11.0573 13.9871L16.7138 4.52382C16.8257 4.33663 17.0327 4.11359 17.3838 4.11359ZM11.2852 10.996C11.2885 9.82995 11.6372 8.68999 12.289 7.71504C12.9408 6.74009 13.8674 5.97226 14.9559 5.5051L11.3163 11.594C11.2963 11.3954 11.2852 11.1961 11.2852 10.996Z" fill="#111111"/>
</svg>
