<svg width="36" height="33" viewBox="0 0 36 33" fill="none" xmlns="http://www.w3.org/2000/svg">
<path d="M10.4289 0.918945C4.67981 0.918945 0 5.59876 0 11.3478C0 17.0969 4.67981 21.7767 10.4289 21.7767C16.1779 21.7767 20.8582 17.0969 20.8582 11.3478C20.8582 5.59876 16.1779 0.918945 10.4289 0.918945ZM10.4289 2.73658C15.1955 2.73658 19.0401 6.58119 19.0401 11.3478C19.0401 16.1144 15.1955 19.959 10.4289 19.959C5.66225 19.959 1.81763 16.1144 1.81763 11.3478C1.81763 6.58119 5.66225 2.73658 10.4289 2.73658Z" fill="#111111"/>
<path d="M24.4783 9.42797C23.7858 9.4727 23.0884 9.58245 22.3946 9.76182C22.1613 9.82219 21.9614 9.97279 21.8391 10.1805C21.7168 10.3882 21.6819 10.636 21.7423 10.8694C21.8027 11.1027 21.9533 11.3026 22.161 11.4249C22.3687 11.5472 22.6165 11.582 22.8498 11.5217C27.5098 10.3169 32.3041 12.8424 33.7588 17.2115C35.2135 21.5805 32.8584 26.2569 28.3377 27.8708C23.817 29.4848 18.7922 27.3965 16.92 23.1725C16.8716 23.0634 16.8022 22.9648 16.7157 22.8824C16.6293 22.8001 16.5274 22.7356 16.416 22.6926C16.3046 22.6497 16.1858 22.6291 16.0664 22.6321C15.947 22.635 15.8294 22.6615 15.7203 22.7099C15.4999 22.8076 15.3274 22.9888 15.2406 23.2137C15.1538 23.4386 15.16 23.6888 15.2576 23.9091C17.5266 29.0283 23.5588 31.5075 28.9492 29.583C34.3396 27.6585 37.2493 21.9404 35.4837 16.6376C33.9388 11.9975 29.3257 9.11483 24.4783 9.42797Z" fill="#111111"/>
<path d="M27.1579 13.6716C26.9326 13.673 26.7127 13.6835 26.4983 13.7025C24.7833 13.8551 23.4231 14.557 22.5066 15.587C21.9388 16.225 21.5414 16.9461 21.2997 17.7112L20.1315 17.7066C19.6586 17.7045 19.2735 18.0863 19.2718 18.5592C19.27 19.0319 19.6517 19.4167 20.1244 19.4184L21.0148 19.4219C21.0062 19.709 21.0157 19.9982 21.0432 20.2876L20.1174 20.2835C19.6449 20.2814 19.2601 20.6625 19.2578 21.135C19.2557 21.6077 19.6373 21.9926 20.11 21.9946L21.4166 22.0005C21.8368 23.211 22.5833 24.3247 23.6566 25.0489C25.1732 26.0722 27.3126 26.3243 29.7411 25.3567C30.1804 25.1818 30.3946 24.6839 30.2195 24.2447C30.0444 23.8058 29.5469 23.5918 29.108 23.7667C27.0743 24.577 25.6445 24.3254 24.6139 23.63C24.0113 23.2234 23.5366 22.6663 23.213 22.0085L26.5851 22.0236C27.0578 22.0258 27.4428 21.6442 27.4447 21.1715C27.4466 20.6989 27.0651 20.3144 26.5925 20.3124L22.7449 20.2953C22.7201 20.0093 22.7177 19.7185 22.7388 19.4287L27.2088 19.4463C27.6815 19.4485 28.0663 19.0668 28.0682 18.5941C28.0701 18.1214 27.6883 17.7368 27.2156 17.7351L23.1558 17.7188C23.3195 17.3509 23.5291 17.0128 23.7853 16.7249C24.6239 15.7825 25.9553 15.1744 28.1197 15.4403C28.589 15.498 29.0161 15.1643 29.0735 14.6949C29.131 14.2259 28.7973 13.799 28.3282 13.7415C27.9236 13.6918 27.5333 13.6691 27.1579 13.6716Z" fill="#111111"/>
<path d="M12.7029 32.8373C14.5815 32.8299 16.4755 32.1058 17.8218 30.787C18.2255 30.3003 17.8769 29.4731 17.2464 29.4226C16.635 29.3359 16.2961 29.9793 15.8066 30.2111C14.0007 31.3885 11.5429 31.428 9.70861 30.2898C8.29801 29.4635 7.30741 27.9927 7.00957 26.3919C7.59379 26.375 8.186 26.4359 8.76382 26.3539C9.23364 26.17 8.87316 25.72 8.61795 25.5222C7.84444 24.7548 7.09431 23.9613 6.30521 23.2111C5.97794 23.0313 5.78329 23.4532 5.56024 23.6225C4.82603 24.3566 4.07801 25.0815 3.35307 25.8214C3.11674 26.2649 3.68059 26.4591 4.02824 26.3853C4.44365 26.3861 4.85905 26.3872 5.27446 26.388C5.62563 29.0375 7.50702 31.4132 10.0177 32.3399C10.8724 32.6675 11.7876 32.8397 12.7029 32.8373ZM23.9595 2.40548e-05C22.0809 0.00743109 20.1869 0.731606 18.8407 2.05039C18.437 2.53707 18.7855 3.36429 19.416 3.41478C20.0274 3.50147 20.3663 2.85811 20.8559 2.62623C22.6618 1.44887 25.1195 1.40935 26.9538 2.54755C28.3644 3.37388 29.355 4.84465 29.6529 6.44549C29.0686 6.46234 28.4764 6.40146 27.8986 6.48346C27.4288 6.66741 27.7893 7.11742 28.0445 7.31514C28.818 8.08261 29.5681 8.87607 30.3572 9.62622C30.6845 9.80605 30.8791 9.38421 31.1022 9.21483C31.8364 8.48081 32.5844 7.75582 33.3094 7.01594C33.5457 6.57245 32.9818 6.37823 32.6342 6.45204C32.2188 6.45123 31.8034 6.45014 31.388 6.44933C31.0368 3.7999 29.1554 1.42417 26.6447 0.497484C25.79 0.16986 24.8748 -0.00234185 23.9595 2.40548e-05Z" fill="#111111"/>
<path d="M10.4303 4.35693C10.1893 4.35696 9.9581 4.45272 9.78767 4.62315C9.61724 4.79358 9.52148 5.02473 9.52145 5.26576V5.68765C8.55537 5.9884 7.73588 6.7624 7.44651 7.74549C7.13331 8.73713 7.34026 9.91205 8.05347 10.682C9.12528 11.5049 10.2031 12.3203 11.2749 13.1432C11.9415 13.6684 11.8644 14.8138 11.1322 15.2434C10.4489 15.7112 9.4116 15.3332 9.18173 14.5396C8.97242 13.9621 8.14662 13.784 7.71725 14.2223C7.36089 14.5383 7.36857 15.0853 7.60116 15.4718C7.9622 16.2754 8.69065 16.8712 9.52145 17.1292V17.4295C9.52148 17.6706 9.61723 17.9017 9.78767 18.0722C9.9581 18.2426 10.1893 18.3384 10.4303 18.3384C10.6713 18.3384 10.9025 18.2426 11.0729 18.0722C11.2433 17.9017 11.3391 17.6706 11.3391 17.4295V17.1344C12.6109 16.7595 13.5658 15.507 13.5557 14.1721C13.5793 13.1052 12.9989 12.0763 12.1129 11.4945C11.1928 10.7923 10.2727 10.0902 9.3525 9.38803C8.84036 8.71541 9.23911 7.6426 10.0464 7.43016C10.722 7.20173 11.4785 7.63656 11.6964 8.29903C11.9827 8.8425 12.8249 8.90638 13.1907 8.41358C13.4886 8.06732 13.4187 7.5591 13.1834 7.19994C12.8003 6.47461 12.1181 5.92899 11.3391 5.68961V5.26576C11.3391 5.02473 11.2433 4.79358 11.0729 4.62315C10.9025 4.45272 10.6713 4.35696 10.4303 4.35693Z" fill="#111111"/>
</svg>
