<svg width="42" height="25" viewBox="0 0 42 25" fill="none" xmlns="http://www.w3.org/2000/svg">
<path d="M21.0322 11.382C22.1912 11.382 23.3242 11.0482 24.2879 10.4229C25.2515 9.79754 26.0026 8.90873 26.4462 7.86884C26.8897 6.82895 27.0058 5.68468 26.7796 4.58074C26.5535 3.47679 25.9954 2.46275 25.1759 1.66685C24.3563 0.870956 23.3122 0.328941 22.1754 0.109353C21.0387 -0.110235 19.8604 0.00246557 18.7896 0.433203C17.7188 0.863941 16.8036 1.59337 16.1597 2.52925C15.5158 3.46513 15.1721 4.56542 15.1721 5.69099C15.1738 7.19981 15.7918 8.64634 16.8904 9.71324C17.989 10.7801 19.4785 11.3803 21.0322 11.382ZM21.0322 1.4741C21.891 1.4741 22.7305 1.72141 23.4446 2.18477C24.1586 2.64813 24.7152 3.30672 25.0438 4.07726C25.3725 4.84779 25.4585 5.69567 25.2909 6.51367C25.1234 7.33166 24.7098 8.08304 24.1026 8.67279C23.4953 9.26253 22.7216 9.66415 21.8793 9.82686C21.037 9.98957 20.1639 9.90606 19.3705 9.58689C18.5771 9.26773 17.8989 8.72724 17.4218 8.03377C16.9446 7.34031 16.69 6.52501 16.69 5.69099C16.6913 4.57299 17.1492 3.50113 17.9632 2.71059C18.7772 1.92004 19.8809 1.47535 21.0322 1.4741ZM33.7267 14.4601C34.6577 14.4601 35.5678 14.192 36.3419 13.6897C37.116 13.1874 37.7193 12.4735 38.0756 11.6382C38.4319 10.8029 38.5251 9.88373 38.3434 8.99698C38.1618 8.11023 37.7135 7.2957 37.0552 6.65638C36.3969 6.01707 35.5582 5.5817 34.6451 5.40531C33.732 5.22892 32.7855 5.31945 31.9254 5.66544C31.0653 6.01144 30.3301 6.59736 29.8129 7.34911C29.2956 8.10086 29.0196 8.98468 29.0196 9.8888C29.021 11.1008 29.5173 12.2627 30.3998 13.1197C31.2823 13.9767 32.4787 14.4588 33.7267 14.4601ZM33.7267 6.79165C34.3575 6.79165 34.9741 6.9733 35.4986 7.31363C36.0231 7.65397 36.4319 8.13769 36.6732 8.70365C36.9146 9.2696 36.9778 9.89235 36.8547 10.4932C36.7316 11.094 36.4279 11.6458 35.9819 12.079C35.5358 12.5121 34.9675 12.8071 34.3489 12.9266C33.7302 13.0461 33.089 12.9848 32.5062 12.7503C31.9234 12.5159 31.4253 12.1189 31.0749 11.6096C30.7245 11.1002 30.5375 10.5014 30.5375 9.8888C30.5385 9.06772 30.8749 8.28057 31.4728 7.70003C32.0707 7.11948 32.8813 6.79254 33.7267 6.79165ZM8.31744 14.4601C9.24843 14.4601 10.1585 14.192 10.9326 13.6897C11.7067 13.1874 12.31 12.4735 12.6663 11.6382C13.0226 10.8029 13.1158 9.88373 12.9342 8.99698C12.7525 8.11023 12.3042 7.2957 11.6459 6.65638C10.9876 6.01707 10.1489 5.5817 9.23576 5.40531C8.32266 5.22892 7.37621 5.31945 6.51609 5.66544C5.65597 6.01144 4.92081 6.59736 4.40358 7.34911C3.88635 8.10086 3.61028 8.98468 3.61028 9.8888C3.61169 11.1008 4.10807 12.2627 4.99053 13.1197C5.87299 13.9767 7.06946 14.4588 8.31744 14.4601ZM8.31744 6.79165C8.94822 6.79165 9.56484 6.9733 10.0893 7.31363C10.6138 7.65397 11.0226 8.13769 11.2639 8.70365C11.5053 9.2696 11.5685 9.89235 11.4454 10.4932C11.3224 11.094 11.0186 11.6458 10.5726 12.079C10.1265 12.5121 9.55825 12.8071 8.93959 12.9266C8.32092 13.0461 7.67967 12.9848 7.09691 12.7503C6.51415 12.5159 6.01606 12.1189 5.66563 11.6096C5.31519 11.1002 5.12816 10.5014 5.12818 9.8888C5.12925 9.06773 5.46562 8.28059 6.06351 7.70005C6.66139 7.11951 7.47197 6.79256 8.31744 6.79165ZM41.9534 19.8734C41.7981 18.5461 41.2469 17.2535 40.441 16.3269C39.4822 15.2245 38.2201 14.6876 36.8861 14.8179C36.7301 14.833 36.5828 14.8945 36.4644 14.9942C35.5246 15.7846 34.6326 16.1508 33.7356 16.1169C33.7153 16.1161 33.695 16.1161 33.6748 16.1169C32.7767 16.1516 31.8856 15.7844 30.946 14.9942C30.8275 14.8945 30.6802 14.8329 30.5243 14.8179C30.3629 14.8023 30.2007 14.7964 30.0385 14.8004C29.8848 14.5737 29.7176 14.3559 29.5378 14.1481C28.3475 12.7796 26.7846 12.1139 25.1359 12.2737C24.98 12.2887 24.8327 12.3503 24.7142 12.45C23.4728 13.4941 22.235 13.9989 21.0344 13.953C21.0142 13.9522 20.994 13.9522 20.9737 13.953C19.7742 13.9983 18.5353 13.494 17.2938 12.45C17.1754 12.3503 17.0281 12.2888 16.8722 12.2737C15.2243 12.1138 13.6608 12.7796 12.4703 14.1481C12.2903 14.3562 12.1229 14.5743 11.969 14.8013C11.8044 14.7966 11.6396 14.8021 11.4758 14.8177C11.3198 14.8327 11.1725 14.8943 11.0541 14.9939C10.1144 15.7843 9.2232 16.1501 8.3252 16.1167C8.30496 16.1159 8.28469 16.1159 8.2644 16.1167C7.36614 16.1494 6.47531 15.7842 5.53548 14.9938C5.41706 14.8942 5.26976 14.8327 5.11384 14.8177C3.7797 14.6876 2.51774 15.2243 1.55902 16.3267C0.753102 17.2532 0.201854 18.546 0.0466069 19.8732C-0.27721 22.6412 1.10913 24.6988 3.4956 24.994C3.5274 24.998 3.55942 25 3.59148 25H12.9994C13.0314 25 13.0635 24.998 13.0953 24.994C13.3797 24.959 13.6598 24.8959 13.931 24.8057C14.2252 24.8936 14.5267 24.9566 14.8321 24.994C14.8638 24.998 14.8958 25 14.9279 25H27.0815C27.1135 25 27.1456 24.998 27.1774 24.994C27.4809 24.9569 27.7805 24.8945 28.073 24.8075C28.3436 24.8968 28.6227 24.9593 28.9062 24.994C28.9381 24.998 28.9701 25 29.0022 25H38.4088C38.4408 25 38.4728 24.998 38.5046 24.994C40.8912 24.699 42.2772 22.6411 41.9534 19.8734ZM5.05448 23.5261V20.7182C5.05448 20.5228 4.97452 20.3353 4.83219 20.1971C4.68986 20.0588 4.49681 19.9812 4.29553 19.9812C4.09424 19.9812 3.9012 20.0588 3.75887 20.1971C3.61654 20.3353 3.53658 20.5228 3.53658 20.7182V23.5081C1.81748 23.2051 1.38185 21.5345 1.55674 20.0398C1.77903 18.1389 3.01468 16.2733 4.73167 16.2733H4.74567C5.90096 17.1866 7.09579 17.6283 8.29653 17.5908C9.19133 17.6184 10.0817 17.3802 10.9551 16.8799C10.768 17.445 10.6385 18.0265 10.5686 18.6161C10.3911 20.1348 10.6381 21.5789 11.2645 22.6825C11.4354 22.9845 11.6399 23.2674 11.8745 23.526L5.05448 23.5261ZM27.0317 23.5261H26.9334V19.6829C26.9334 19.4875 26.8534 19.3 26.7111 19.1618C26.5688 19.0235 26.3757 18.9459 26.1745 18.9459C25.9732 18.9459 25.7801 19.0235 25.6378 19.1618C25.4955 19.3 25.4155 19.4875 25.4155 19.6829V23.5261H16.5949V19.6829C16.5949 19.4875 16.5149 19.3 16.3726 19.1618C16.2302 19.0235 16.0372 18.9459 15.8359 18.9459C15.6346 18.9459 15.4416 19.0235 15.2993 19.1618C15.1569 19.3 15.077 19.4875 15.077 19.6829V23.5261H14.9786C12.471 23.1888 11.8342 20.8593 12.0771 18.7822C12.3757 16.2287 14.0565 13.7247 16.3992 13.7247C16.4323 13.7247 16.4653 13.7252 16.4986 13.7263C17.97 14.906 19.4856 15.4777 21.0054 15.427C22.5277 15.4784 24.0411 14.906 25.512 13.7263C27.9069 13.6518 29.6308 16.1929 29.9336 18.7822C30.1756 20.8593 29.5395 23.1888 27.0317 23.5261ZM38.4657 23.5081V20.7182C38.4657 20.5228 38.3857 20.3353 38.2434 20.1971C38.1011 20.0588 37.908 19.9812 37.7067 19.9812C37.5055 19.9812 37.3124 20.0588 37.1701 20.1971C37.0278 20.3353 36.9478 20.5228 36.9478 20.7182V23.5261H30.1354C30.3699 23.2675 30.5744 22.9846 30.7453 22.6826C31.3716 21.579 31.6188 20.135 31.4412 18.6163C31.3715 18.0286 31.2427 17.449 31.0564 16.8858C31.9269 17.3826 32.8141 17.6195 33.7054 17.5913C34.9063 17.6289 36.1003 17.187 37.2562 16.2738H37.2702C38.987 16.2738 40.2229 18.1396 40.4452 20.0402C40.6201 21.5348 40.1851 23.2052 38.4657 23.5081Z" fill="#111111"/>
</svg>
