<svg width="80" height="80" viewBox="0 0 80 80" fill="none" xmlns="http://www.w3.org/2000/svg">
<path d="M62.4992 33.1764V29.0692C62.4956 28.0208 62.1526 27.0019 61.5216 26.1648C60.8905 25.3276 60.0054 24.7173 58.9986 24.4252V20.318C58.9971 19.0291 58.4844 17.7935 57.573 16.8821C56.6617 15.9707 55.426 15.4581 54.1371 15.4565H26.1338C24.8449 15.4581 23.6093 15.9707 22.6979 16.8821C21.7865 17.7935 21.2739 19.0291 21.2723 20.318V24.4252C20.2655 24.7173 19.3804 25.3276 18.7493 26.1648C18.1183 27.0019 17.7753 28.0208 17.7717 29.0692V33.1764C16.765 33.4686 15.88 34.0788 15.2491 34.9159C14.6182 35.7529 14.2752 36.7717 14.2715 37.8199V58.8224C14.273 60.1113 14.7857 61.3469 15.6971 62.2583C16.6084 63.1697 17.8441 63.6823 19.1329 63.6839H61.138C62.4269 63.6823 63.6625 63.1697 64.5739 62.2583C65.4852 61.3469 65.9979 60.1113 65.9994 58.8224V37.8199C65.9957 36.7717 65.6528 35.7529 65.0218 34.9159C64.3909 34.0788 63.5059 33.4686 62.4992 33.1764ZM26.1338 18.1791H54.1371C54.7042 18.1797 55.248 18.4052 55.649 18.8062C56.05 19.2072 56.2755 19.7509 56.2761 20.318V24.2073H23.9949V20.318C23.9954 19.7509 24.221 19.2072 24.622 18.8062C25.023 18.4052 25.5667 18.1797 26.1338 18.1791ZM22.6336 26.9298H57.6373C58.2045 26.9305 58.7483 27.1561 59.1494 27.5571C59.5504 27.9582 59.7761 28.502 59.7767 29.0692V32.9584H52.51C51.7095 32.9575 50.9212 33.1547 50.2154 33.5324C49.5096 33.9101 48.9082 34.4566 48.4648 35.1231L47.0428 37.2562C46.8477 37.5496 46.5831 37.7901 46.2725 37.9563C45.962 38.1225 45.6151 38.2093 45.2628 38.2089H35.0081C34.6559 38.2093 34.309 38.1225 33.9984 37.9563C33.6878 37.7901 33.4232 37.5496 33.2281 37.2562L31.8062 35.1231C31.3628 34.4566 30.7614 33.9101 30.0555 33.5324C29.3497 33.1547 28.5614 32.9575 27.7609 32.9584H20.4942V29.0692C20.4949 28.502 20.7205 27.9582 21.1216 27.5571C21.5226 27.1561 22.0664 26.9305 22.6336 26.9298ZM63.2769 58.8224C63.2763 59.3895 63.0508 59.9332 62.6498 60.3342C62.2488 60.7352 61.7051 60.9608 61.138 60.9613H19.1329C18.5658 60.9608 18.0221 60.7352 17.6211 60.3342C17.2201 59.9332 16.9946 59.3895 16.994 58.8224V37.8199C16.9946 37.2528 17.2201 36.7091 17.6211 36.3081C18.0221 35.9071 18.5658 35.6815 19.1329 35.6809H27.7609C28.1132 35.6805 28.46 35.7672 28.7706 35.9334C29.0812 36.0995 29.3458 36.3399 29.5409 36.6332L30.9629 38.7664C31.4062 39.433 32.0076 39.9795 32.7134 40.3573C33.4193 40.7351 34.2076 40.9323 35.0081 40.9315H45.2628C46.0633 40.9323 46.8517 40.7351 47.5575 40.3573C48.2633 39.9795 48.8647 39.433 49.308 38.7664L50.73 36.6332C50.9251 36.3399 51.1897 36.0995 51.5003 35.9334C51.8109 35.7672 52.1578 35.6805 52.51 35.6809H61.138C61.7051 35.6815 62.2488 35.9071 62.6498 36.3081C63.0508 36.7091 63.2763 37.2528 63.2769 37.8199V58.8224Z" fill="white"/>
<path d="M46.2628 49.5854H34.0114C33.6538 49.5907 33.3127 49.7364 33.0616 49.9911C32.8106 50.2459 32.6699 50.5891 32.6699 50.9467C32.6699 51.3044 32.8107 51.6476 33.0617 51.9023C33.3127 52.157 33.6539 52.3028 34.0115 52.308H46.2628C46.6204 52.3028 46.9615 52.157 47.2126 51.9023C47.4636 51.6476 47.6043 51.3043 47.6043 50.9467C47.6043 50.5891 47.4636 50.2458 47.2126 49.9911C46.9615 49.7364 46.6204 49.5907 46.2628 49.5854Z" fill="white"/>
</svg>
