<svg width="80" height="80" viewBox="0 0 80 80" fill="none" xmlns="http://www.w3.org/2000/svg">
<path d="M1.06795 23.2946C1.82816 22.2373 2.88376 21.8568 4.00127 21.8546C8.93323 21.8448 13.8653 21.9052 18.7974 21.9453C19.891 21.9542 20.7488 22.4638 21.4994 23.2241C23.7666 25.5206 26.0255 27.8261 28.3309 30.0839C29.1795 30.9149 29.5684 31.8585 29.5678 33.0233C29.5643 40.0888 29.5871 47.1544 29.5709 54.2198C29.5645 57.0268 28.2247 58.3375 25.4347 58.3412C18.4451 58.3502 11.4556 58.3523 4.46601 58.346C1.96677 58.3437 0.522393 56.991 0.515269 54.4978C0.487361 44.7353 0.506178 34.9726 0.506518 25.21C0.506539 24.5473 0.706311 23.9423 1.06795 23.2946ZM14.5927 23.7172C11.3663 23.7174 8.13993 23.7136 4.91356 23.7193C2.88255 23.7228 2.44095 24.1672 2.44026 26.1907C2.43774 33.6303 2.43672 41.0698 2.43728 48.5094C2.43742 50.4451 2.42236 52.3811 2.45686 54.3163C2.48538 55.9152 2.97054 56.3943 4.59028 56.45C5.76557 56.4905 6.94312 56.4675 8.11967 56.4684C13.8132 56.4727 19.5067 56.48 25.2002 56.476C26.7636 56.4749 27.6005 55.8482 27.606 54.5311C27.6351 47.5471 27.6179 40.563 27.6278 33.5789C27.6288 32.8863 27.3378 32.6166 26.6537 32.6872C25.1005 32.8475 23.5501 32.763 21.9956 32.6457C19.6285 32.4671 18.5465 31.3491 18.5268 28.95C18.5165 27.6974 18.4542 26.4402 18.5394 25.1936C18.6159 24.0734 18.2949 23.5628 17.0958 23.7038C16.3472 23.7919 15.5795 23.7183 14.5927 23.7172ZM20.6101 29.8536C20.823 30.3862 21.2006 30.7945 21.772 30.8143C23.1186 30.861 24.4679 30.8293 25.9072 30.8293C25.1698 29.6313 21.3078 25.756 20.4791 25.3576C20.4661 26.8198 20.3674 28.2504 20.6101 29.8536Z" fill="white"/>
<path d="M75.1757 52.128C72.9669 53.9701 70.5077 54.9282 67.7021 54.9309C60.034 54.9382 52.3657 54.9705 44.6978 54.9235C41.0267 54.9011 38.0898 53.399 36.1812 50.1633C32.9727 44.7241 35.6886 37.9957 41.7876 36.371C42.8235 36.095 43.192 35.6983 43.2903 34.5758C43.8589 28.0865 49.3571 23.2076 55.836 23.0881C61.283 22.9876 65.2222 25.3163 67.8874 29.9672C68.1925 30.4996 68.5115 30.8233 69.1854 30.8776C74.1875 31.281 78.662 35.5849 79.348 40.6285C79.9631 45.151 78.7403 49.0246 75.1757 52.128ZM59.6298 25.4068C59.4084 25.3544 59.1854 25.308 58.9658 25.2488C52.1831 23.4196 44.9143 28.6569 45.1741 36.0055C45.2315 37.6257 44.965 37.8465 43.1715 38.0419C40.6578 38.3157 38.8206 39.6896 37.6864 41.8305C34.9867 46.926 38.6149 52.9312 44.4523 52.9963C52.2769 53.0836 60.103 53.03 67.9284 53.0376C68.8873 53.0385 69.8086 52.8732 70.7076 52.5217C75.6352 50.5951 78.2089 46.1512 77.403 40.9313C76.7026 36.3946 72.7012 32.7616 68.1637 32.6371C67.2102 32.611 66.7262 32.2386 66.356 31.4194C65.0354 28.497 62.8127 26.5427 59.6298 25.4068Z" fill="white"/>
<path d="M49.5038 12.5519C50.5986 12.5091 51.6084 12.6705 52.6786 12.3663C52.0067 11.4477 51.2006 10.7794 50.4802 10.0322C50.2225 9.76502 49.9526 9.50234 49.7394 9.20134C49.4457 8.78664 49.5169 8.32887 49.8485 7.99136C50.2343 7.59871 50.669 7.75672 51.0158 8.09773C52.5846 9.64064 54.1464 11.1908 55.7036 12.7455C56.1511 13.1923 55.949 13.6466 55.5922 13.9967C54.0948 15.4659 52.5748 16.9119 51.0568 18.3599C50.6897 18.7101 50.2803 18.7972 49.9012 18.3838C49.5072 17.9541 49.5847 17.5061 49.9713 17.1234C50.9056 16.1989 51.8573 15.292 52.7098 14.1367C50.9745 14.1367 49.2391 14.1373 47.5038 14.1366C43.8849 14.1352 40.2634 14.0476 36.648 14.1593C33.9453 14.2428 31.2392 13.8814 28.5416 14.2806C26.3003 14.6123 24.8371 16.219 24.7747 18.4784C24.7709 18.6137 24.7668 18.7497 24.7755 18.8846C24.8105 19.422 24.6564 19.8328 24.054 19.9089C23.3662 19.9958 23.1427 19.4953 23.0781 18.9831C22.8885 17.4773 23.2635 16.0963 24.1804 14.8801C25.6451 12.9373 27.6992 12.387 30.008 12.4132C36.0667 12.482 42.1271 12.3285 48.1847 12.5478C48.5905 12.5625 48.9972 12.5512 49.5038 12.5519Z" fill="white"/>
<path d="M26.452 69.9137C25.8774 69.3363 25.3612 68.8067 24.839 68.283C24.2825 67.7249 24.3007 67.172 24.8495 66.6276C26.2998 65.1891 27.7468 63.747 29.2101 62.3218C29.6365 61.9065 30.1351 61.5901 30.6724 62.161C31.2323 62.756 30.7727 63.2089 30.3797 63.6055C29.4409 64.5529 28.4705 65.4689 27.4476 66.4609C27.9152 66.7714 28.3045 66.6802 28.6627 66.6805C35.9566 66.6879 43.2505 66.6909 50.5443 66.6852C53.793 66.6826 55.623 65.1438 56.2349 61.9264C56.3414 61.3668 56.5627 60.8323 57.203 60.869C57.9202 60.9101 58.0231 61.4983 58.0331 62.1145C58.0756 64.7171 55.4257 67.7646 52.6531 68.2844C51.8201 68.4405 50.9833 68.4958 50.1342 68.4944C43.087 68.4831 36.0398 68.488 28.9926 68.4879C28.6135 68.4879 28.2343 68.4879 27.8552 68.4879C27.7849 68.5884 27.7146 68.6889 27.6443 68.7893C28.5328 69.6127 29.4216 70.4357 30.3097 71.2595C30.7566 71.6742 31.1088 72.1375 30.5772 72.7008C30.0147 73.2968 29.5082 72.9845 29.0418 72.5124C28.1999 71.6602 27.3527 70.8132 26.452 69.9137Z" fill="white"/>
<path d="M17.2147 37.936C18.7301 37.9377 20.1316 37.9358 21.533 37.9434C22.1414 37.9467 22.7297 38.0555 22.7296 38.826C22.7294 39.5847 22.2091 39.8785 21.5197 39.879C17.3154 39.8823 13.111 39.8756 8.90668 39.87C8.198 39.8691 7.70128 39.5593 7.71525 38.8077C7.72918 38.0576 8.28909 37.9339 8.91913 37.9356C11.6463 37.9426 14.3735 37.9371 17.2147 37.936Z" fill="white"/>
<path d="M7.68994 45.3213C7.8801 44.4804 8.48187 44.3582 9.10814 44.3565C13.128 44.3457 17.1479 44.352 21.1677 44.357C21.3558 44.3573 21.5477 44.3827 21.731 44.4255C22.2352 44.543 22.7381 44.7376 22.6888 45.3563C22.6399 45.9705 22.2028 46.2769 21.5904 46.2776C17.3429 46.2821 13.0955 46.2818 8.84803 46.2797C8.2511 46.2794 7.8258 46.0318 7.68994 45.3213Z" fill="white"/>
<path d="M12.8575 51.5295C11.5395 51.5288 10.3313 51.519 9.12326 51.5305C8.38206 51.5375 7.65888 51.4182 7.67243 50.5146C7.68485 49.6859 8.37813 49.5623 9.07442 49.5657C10.6223 49.5733 12.1703 49.5757 13.7181 49.5656C14.4175 49.561 15.0929 49.6747 15.1096 50.5175C15.1262 51.3559 14.4639 51.524 13.7603 51.5254C13.496 51.5259 13.2318 51.5281 12.8575 51.5295Z" fill="white"/>
<path d="M54.189 44.6228C51.8278 44.6723 52.0728 44.2662 51.2013 46.6C51.0932 46.8896 50.9425 47.1631 50.8305 47.4515C50.5587 48.1515 50.0044 48.2469 49.4033 48.0399C48.7166 47.8034 48.7765 47.2701 48.9956 46.7008C50.191 43.5941 51.3768 40.4837 52.5657 37.3745C52.8008 36.7597 53.0474 36.149 53.2659 35.5284C53.4945 34.8791 53.8813 34.4998 54.62 34.4785C55.3596 34.4572 55.737 34.7925 55.9928 35.4604C57.4042 39.1466 58.8476 42.8205 60.2719 46.5018C60.4986 47.0877 60.7715 47.7639 59.9651 48.0943C59.1326 48.4354 58.5543 47.9537 58.4189 47.1757C57.9946 44.7376 56.4106 44.2825 54.189 44.6228ZM53.2487 41.1552C53.1414 41.5875 52.8175 41.9783 53.0368 42.6409C53.9393 42.6409 54.8875 42.6514 55.8355 42.6369C56.3696 42.6287 56.5055 42.2919 56.336 41.8508C55.8227 40.5147 55.282 39.189 54.6515 37.6072C54.1231 38.9251 53.7107 39.954 53.2487 41.1552Z" fill="white"/>
<path d="M64.944 41.5296C64.9425 43.2715 64.9404 44.8971 64.9398 46.5228C64.9395 47.2657 64.8359 48.0365 63.9076 48.0234C63.0609 48.0114 62.9364 47.2831 62.937 46.577C62.9401 43.016 62.9471 39.4551 62.9404 35.8941C62.939 35.1593 63.0863 34.5125 63.9691 34.5399C64.8431 34.5671 64.9529 35.2334 64.9472 35.9557C64.9328 37.7748 64.9434 39.5941 64.944 41.5296Z" fill="white"/>
</svg>
