<svg width="80" height="60" viewBox="0 0 80 60" fill="none" xmlns="http://www.w3.org/2000/svg">
<path d="M0.504355 14.4487C1.17944 13.5098 2.11684 13.1718 3.10922 13.1699C7.48892 13.1612 11.8688 13.2148 16.2485 13.2504C17.2197 13.2583 17.9814 13.7109 18.648 14.386C20.6613 16.4255 22.6673 18.4727 24.7146 20.4777C25.4681 21.2157 25.8135 22.0537 25.813 23.088C25.8098 29.3624 25.8301 35.6367 25.8157 41.911C25.81 44.4037 24.6203 45.5677 22.1426 45.5709C15.9357 45.5789 9.72882 45.5808 3.52192 45.5752C1.30253 45.5731 0.0198854 44.372 0.0135597 42.1579C-0.011224 33.4885 0.00548589 24.819 0.00578851 16.1496C0.00580713 15.5611 0.18321 15.0239 0.504355 14.4487ZM12.5147 14.8239C9.64957 14.8241 6.78445 14.8208 3.91935 14.8258C2.11576 14.8289 1.72361 15.2236 1.723 17.0205C1.72076 23.627 1.71986 30.2335 1.72035 36.84C1.72048 38.559 1.7071 40.2782 1.73774 41.9967C1.76307 43.4166 2.1939 43.842 3.63227 43.8915C4.67596 43.9275 5.72166 43.907 6.76646 43.9078C11.8224 43.9117 16.8784 43.9182 21.9344 43.9146C23.3228 43.9136 24.0659 43.3571 24.0708 42.1875C24.0966 35.9855 24.0814 29.7834 24.0902 23.5814C24.091 22.9663 23.8326 22.7268 23.2251 22.7895C21.8458 22.9319 20.469 22.8569 19.0886 22.7527C16.9866 22.5941 16.0258 21.6013 16.0083 19.4708C15.9991 18.3585 15.9438 17.2421 16.0194 16.135C16.0874 15.1402 15.8023 14.6869 14.7375 14.8121C14.0727 14.8903 13.391 14.825 12.5147 14.8239ZM17.8583 20.2732C18.0473 20.7462 18.3827 21.1088 18.8901 21.1264C20.0859 21.1678 21.2841 21.1397 22.5622 21.1397C21.9075 20.0758 18.4778 16.6345 17.7419 16.2807C17.7304 17.5791 17.6427 18.8495 17.8583 20.2732Z" fill="white"/>
<path d="M76.1599 40.0537C74.1984 41.6895 72.0145 42.5403 69.5231 42.5427C62.7136 42.5492 55.904 42.5778 49.0947 42.5362C45.8347 42.5162 43.2267 41.1823 41.5317 38.309C38.6825 33.4788 41.0943 27.5038 46.5104 26.061C47.4303 25.816 47.7575 25.4636 47.8448 24.4668C48.3497 18.7042 53.2323 14.3716 58.9857 14.2655C63.8228 14.1762 67.3209 16.2442 69.6877 20.3743C69.9586 20.847 70.2419 21.1345 70.8403 21.1828C75.2823 21.5409 79.2558 25.3629 79.865 29.8418C80.4112 33.8579 79.3253 37.2978 76.1599 40.0537ZM62.3547 16.3245C62.1581 16.278 61.96 16.2368 61.7651 16.1843C55.7418 14.5598 49.287 19.2108 49.5177 25.7364C49.5686 27.1752 49.332 27.3714 47.7393 27.5448C45.5071 27.788 43.8756 29.008 42.8684 30.9092C40.471 35.4342 43.6929 40.7669 48.8767 40.8247C55.8251 40.9023 62.7749 40.8546 69.7241 40.8614C70.5756 40.8622 71.3937 40.7154 72.1921 40.4033C76.5679 38.6924 78.8534 34.7461 78.1378 30.1107C77.5158 26.082 73.9625 22.8558 69.933 22.7453C69.0863 22.722 68.6565 22.3913 68.3278 21.6639C67.155 19.0687 65.1812 17.3333 62.3547 16.3245Z" fill="white"/>
<path d="M48.4425 4.77029C49.5326 4.72765 50.538 4.88838 51.6036 4.58555C50.9346 3.67094 50.132 3.0055 49.4147 2.26161C49.1582 1.99556 48.8893 1.73402 48.6771 1.43433C48.3847 1.02143 48.4556 0.565658 48.7858 0.229619C49.1699 -0.161331 49.6027 -0.00400443 49.9479 0.335518C51.51 1.87172 53.0649 3.41511 54.6153 4.96305C55.0609 5.40794 54.8597 5.86024 54.5044 6.20885C53.0136 7.6716 51.5001 9.11136 49.9888 10.5531C49.6233 10.9017 49.2157 10.9884 48.8382 10.5768C48.4459 10.149 48.5231 9.70294 48.908 9.32195C49.8382 8.40141 50.7858 7.49851 51.6346 6.34823C49.9068 6.34823 48.179 6.34878 46.4512 6.3481C42.8481 6.34668 39.2424 6.25953 35.6427 6.37075C32.9518 6.4539 30.2574 6.09398 27.5716 6.49146C25.34 6.82171 23.8832 8.42143 23.821 10.671C23.8173 10.8057 23.8132 10.9412 23.8219 11.0754C23.8567 11.6105 23.7033 12.0195 23.1035 12.0953C22.4187 12.1818 22.1961 11.6835 22.1319 11.1735C21.9431 9.67423 22.3165 8.29925 23.2294 7.08841C24.6877 5.15408 26.7328 4.60608 29.0316 4.63218C35.0639 4.70067 41.0979 4.54792 47.1292 4.76622C47.5333 4.78085 47.9382 4.76962 48.4425 4.77029Z" fill="white"/>
<path d="M22.9404 56.0533C22.3905 55.5006 21.8964 54.9937 21.3965 54.4925C20.8639 53.9583 20.8813 53.4291 21.4066 52.908C22.7947 51.5311 24.1797 50.1509 25.5803 48.7868C25.9884 48.3893 26.4656 48.0865 26.9799 48.6329C27.5158 49.2024 27.0758 49.6358 26.6997 50.0155C25.8012 50.9222 24.8723 51.799 23.8933 52.7485C24.3409 53.0457 24.7135 52.9584 25.0563 52.9587C32.0375 52.9657 39.0188 52.9686 46 52.9631C49.1095 52.9607 50.861 51.4878 51.4467 48.4084C51.5486 47.8727 51.7604 47.3611 52.3732 47.3962C53.0597 47.4356 53.1582 47.9986 53.1678 48.5884C53.2085 51.0794 50.6722 53.9963 48.0184 54.4938C47.2211 54.6432 46.4202 54.6961 45.6075 54.6948C38.8624 54.684 32.1172 54.6886 25.3721 54.6886C25.0092 54.6886 24.6463 54.6886 24.2834 54.6886C24.2161 54.7848 24.1488 54.8809 24.0815 54.9771C24.932 55.7652 25.7827 56.5529 26.6327 57.3414C27.0605 57.7383 27.3976 58.1818 26.8888 58.7209C26.3504 59.2914 25.8656 58.9924 25.4192 58.5406C24.6134 57.7249 23.8025 56.9142 22.9404 56.0533Z" fill="white"/>
<path d="M14.843 27.4506C16.1887 27.4521 17.4333 27.4504 18.6778 27.4572C19.218 27.4601 19.7405 27.5567 19.7403 28.2409C19.7402 28.9147 19.2781 29.1756 18.666 29.176C14.9324 29.179 11.1988 29.173 7.46525 29.1681C6.83593 29.1672 6.39483 28.8922 6.40724 28.2247C6.4196 27.5586 6.91682 27.4488 7.47631 27.4502C9.89811 27.4564 12.3199 27.4516 14.843 27.4506Z" fill="white"/>
<path d="M6.38477 34.0085C6.55363 33.2618 7.08801 33.1532 7.64416 33.1517C11.2139 33.1422 14.7836 33.1477 18.3534 33.1522C18.5204 33.1524 18.6908 33.175 18.8536 33.213C19.3014 33.3174 19.7479 33.4902 19.7041 34.0396C19.6607 34.585 19.2726 34.8571 18.7287 34.8577C14.9569 34.8617 11.185 34.8615 7.41318 34.8596C6.88308 34.8593 6.50541 34.6394 6.38477 34.0085Z" fill="white"/>
<path d="M10.9738 39.5215C9.80334 39.5208 8.73042 39.5122 7.65769 39.5224C6.99948 39.5286 6.35727 39.4226 6.36931 38.6203C6.38034 37.8843 6.99599 37.7746 7.61431 37.7776C8.98885 37.7843 10.3635 37.7865 11.738 37.7775C12.3591 37.7734 12.9589 37.8744 12.9737 38.6228C12.9885 39.3674 12.4003 39.5166 11.7755 39.5178C11.5408 39.5183 11.3061 39.5202 10.9738 39.5215Z" fill="white"/>
<path d="M57.5712 34.2536C55.5162 34.2967 55.7294 33.9433 54.971 35.9744C54.8768 36.2265 54.7457 36.4646 54.6482 36.7156C54.4117 37.3247 53.9292 37.4078 53.4061 37.2277C52.8084 37.0218 52.8605 36.5576 53.0512 36.0621C54.0917 33.3583 55.1237 30.6512 56.1584 27.9451C56.363 27.4101 56.5777 26.8786 56.7678 26.3384C56.9668 25.7733 57.3035 25.4432 57.9463 25.4247C58.5901 25.4061 58.9186 25.6979 59.1411 26.2792C60.3695 29.4875 61.6258 32.6851 62.8654 35.889C63.0627 36.3989 63.3002 36.9874 62.5984 37.275C61.8739 37.5719 61.3705 37.1527 61.2527 36.4755C60.8834 34.3535 59.5048 33.9575 57.5712 34.2536ZM56.7529 31.2356C56.6594 31.6119 56.3776 31.952 56.5685 32.5287C57.3539 32.5287 58.1792 32.5378 59.0042 32.5252C59.4691 32.5181 59.5874 32.225 59.4398 31.8411C58.9931 30.6782 58.5225 29.5244 57.9737 28.1477C57.5139 29.2947 57.1549 30.1902 56.7529 31.2356Z" fill="white"/>
<path d="M66.9316 31.5616C66.9303 33.0777 66.9285 34.4926 66.9279 35.9074C66.9276 36.554 66.8375 37.2249 66.0296 37.2134C65.2926 37.203 65.1843 36.5692 65.1848 35.9546C65.1875 32.8554 65.1936 29.7561 65.1878 26.6569C65.1866 26.0174 65.3148 25.4544 66.083 25.4783C66.8437 25.5019 66.9393 26.0818 66.9344 26.7105C66.9218 28.2937 66.931 29.8771 66.9316 31.5616Z" fill="white"/>
</svg>
