<svg width="80" height="80" viewBox="0 0 80 80" fill="none" xmlns="http://www.w3.org/2000/svg">
<path d="M55 64H25C22.244 64 20 61.756 20 59V21C20 18.244 22.244 16 25 16H55C57.756 16 60 18.244 60 21V59C60 61.756 57.756 64 55 64ZM25 18C23.346 18 22 19.346 22 21V59C22 60.654 23.346 62 25 62H55C56.654 62 58 60.654 58 59V21C58 19.346 56.654 18 55 18H25Z" fill="white"/>
<path d="M51 32H29C27.346 32 26 30.654 26 29V25C26 23.346 27.346 22 29 22H51C52.654 22 54 23.346 54 25V29C54 30.654 52.654 32 51 32ZM29 24C28.448 24 28 24.448 28 25V29C28 29.552 28.448 30 29 30H51C51.552 30 52 29.552 52 29V25C52 24.448 51.552 24 51 24H29Z" fill="white"/>
<path d="M32 44C31.448 44 31 43.552 31 43V37C31 36.448 31.448 36 32 36C32.552 36 33 36.448 33 37V43C33 43.552 32.552 44 32 44Z" fill="white"/>
<path d="M35 41H29C28.448 41 28 40.552 28 40C28 39.448 28.448 39 29 39H35C35.552 39 36 39.448 36 40C36 40.552 35.552 41 35 41Z" fill="white"/>
<path d="M51 41H45C44.448 41 44 40.552 44 40C44 39.448 44.448 39 45 39H51C51.552 39 52 39.448 52 40C52 40.552 51.552 41 51 41Z" fill="white"/>
<path d="M51 50H45C44.448 50 44 49.552 44 49C44 48.448 44.448 48 45 48H51C51.552 48 52 48.448 52 49C52 49.552 51.552 50 51 50Z" fill="white"/>
<path d="M51 56H45C44.448 56 44 55.552 44 55C44 54.448 44.448 54 45 54H51C51.552 54 52 54.448 52 55C52 55.552 51.552 56 51 56Z" fill="white"/>
<path d="M29.0005 56C28.7445 56 28.4885 55.902 28.2925 55.708C27.9025 55.318 27.9025 54.684 28.2925 54.294L34.2925 48.294C34.6825 47.904 35.3165 47.904 35.7065 48.294C36.0965 48.684 36.0965 49.318 35.7065 49.708L29.7065 55.708C29.5125 55.902 29.2565 56 29.0005 56Z" fill="white"/>
<path d="M35.0005 56C34.7445 56 34.4885 55.902 34.2925 55.708L28.2925 49.708C27.9025 49.318 27.9025 48.684 28.2925 48.294C28.6825 47.904 29.3165 47.904 29.7065 48.294L35.7065 54.294C36.0965 54.684 36.0965 55.318 35.7065 55.708C35.5125 55.902 35.2565 56 35.0005 56Z" fill="white"/>
</svg>
