<svg width="80" height="80" viewBox="0 0 80 80" fill="none" xmlns="http://www.w3.org/2000/svg">
<path d="M61 73.2H19C15.1416 73.2 12 70.0584 12 66.2V13C12 9.1416 15.1416 6 19 6H61C64.8584 6 68 9.1416 68 13V66.2C68 70.0584 64.8584 73.2 61 73.2ZM19 8.8C16.6844 8.8 14.8 10.6844 14.8 13V66.2C14.8 68.5156 16.6844 70.4 19 70.4H61C63.3156 70.4 65.2 68.5156 65.2 66.2V13C65.2 10.6844 63.3156 8.8 61 8.8H19Z" fill="white"/>
<path d="M55.4004 28.3999H24.6004C22.2848 28.3999 20.4004 26.5155 20.4004 24.1999V18.5999C20.4004 16.2843 22.2848 14.3999 24.6004 14.3999H55.4004C57.716 14.3999 59.6004 16.2843 59.6004 18.5999V24.1999C59.6004 26.5155 57.716 28.3999 55.4004 28.3999ZM24.6004 17.1999C23.8276 17.1999 23.2004 17.8271 23.2004 18.5999V24.1999C23.2004 24.9727 23.8276 25.5999 24.6004 25.5999H55.4004C56.1732 25.5999 56.8004 24.9727 56.8004 24.1999V18.5999C56.8004 17.8271 56.1732 17.1999 55.4004 17.1999H24.6004Z" fill="white"/>
<path d="M28.8004 45.2C28.0276 45.2 27.4004 44.5728 27.4004 43.8V35.4C27.4004 34.6272 28.0276 34 28.8004 34C29.5732 34 30.2004 34.6272 30.2004 35.4V43.8C30.2004 44.5728 29.5732 45.2 28.8004 45.2Z" fill="white"/>
<path d="M32.9992 41.0002H24.5992C23.8264 41.0002 23.1992 40.373 23.1992 39.6002C23.1992 38.8274 23.8264 38.2002 24.5992 38.2002H32.9992C33.772 38.2002 34.3992 38.8274 34.3992 39.6002C34.3992 40.373 33.772 41.0002 32.9992 41.0002Z" fill="white"/>
<path d="M55.3996 41.0002H46.9996C46.2268 41.0002 45.5996 40.373 45.5996 39.6002C45.5996 38.8274 46.2268 38.2002 46.9996 38.2002H55.3996C56.1724 38.2002 56.7996 38.8274 56.7996 39.6002C56.7996 40.373 56.1724 41.0002 55.3996 41.0002Z" fill="white"/>
<path d="M55.3996 53.6003H46.9996C46.2268 53.6003 45.5996 52.9731 45.5996 52.2003C45.5996 51.4275 46.2268 50.8003 46.9996 50.8003H55.3996C56.1724 50.8003 56.7996 51.4275 56.7996 52.2003C56.7996 52.9731 56.1724 53.6003 55.3996 53.6003Z" fill="white"/>
<path d="M55.3996 62.0002H46.9996C46.2268 62.0002 45.5996 61.373 45.5996 60.6002C45.5996 59.8274 46.2268 59.2002 46.9996 59.2002H55.3996C56.1724 59.2002 56.7996 59.8274 56.7996 60.6002C56.7996 61.373 56.1724 62.0002 55.3996 62.0002Z" fill="white"/>
<path d="M24.5999 62.0001C24.2415 62.0001 23.8831 61.8629 23.6087 61.5913C23.0627 61.0453 23.0627 60.1577 23.6087 59.6117L32.0087 51.2117C32.5547 50.6657 33.4423 50.6657 33.9883 51.2117C34.5343 51.7577 34.5343 52.6453 33.9883 53.1913L25.5883 61.5913C25.3167 61.8629 24.9583 62.0001 24.5999 62.0001Z" fill="white"/>
<path d="M32.9999 62.0001C32.6415 62.0001 32.2831 61.8629 32.0087 61.5913L23.6087 53.1913C23.0627 52.6453 23.0627 51.7577 23.6087 51.2117C24.1547 50.6657 25.0423 50.6657 25.5883 51.2117L33.9883 59.6117C34.5343 60.1577 34.5343 61.0453 33.9883 61.5913C33.7167 61.8629 33.3583 62.0001 32.9999 62.0001Z" fill="white"/>
</svg>
