<svg width="230" height="232" viewBox="0 0 230 232" fill="none" xmlns="http://www.w3.org/2000/svg">
<g clip-path="url(#clip0_2_2)">
<path d="M191.601 199.427C183.74 194.014 182.622 184.815 183.635 176.681C183.81 175.32 183.74 173.871 184.613 172.717C185.487 171.564 187.339 170.854 188.736 171.534C189.889 172.096 190.308 173.279 190.902 174.314C191.671 175.675 192.929 176.829 194.431 177.598C195.409 178.101 196.667 178.455 197.715 178.041C199.148 177.479 199.462 175.853 199.567 174.492C199.776 171.948 199.951 169.434 200.161 166.92C200.266 165.559 200.37 164.169 200.999 162.927C201.593 161.684 202.816 160.531 204.353 160.265C205.926 159.998 207.742 160.856 207.952 162.187C208.022 162.749 207.847 163.311 207.847 163.873C207.847 164.435 208.092 165.086 208.721 165.263C209.349 165.47 210.013 165.116 210.537 164.761C212.319 163.489 213.577 161.803 214.765 160.117C215.953 158.431 217.141 156.686 218.748 155.295C220.39 153.905 222.556 152.84 224.862 152.87C227.168 152.9 229.509 154.26 229.928 156.183C230.347 158.135 228.88 159.998 227.307 161.448C225.002 163.607 222.311 165.5 219.342 167.009C218.818 167.275 218.224 167.571 218.014 168.073C217.595 168.961 218.538 169.907 219.551 170.292C220.704 170.706 222.032 170.676 223.255 170.883C224.478 171.09 225.805 171.623 226.189 172.658C226.714 174.078 225.246 175.468 223.814 176.326C220.949 178.071 217.735 179.372 214.381 180.201C213.158 180.496 211.9 180.733 210.887 181.384C209.874 182.034 209.21 183.218 209.699 184.194C210.188 185.199 211.655 185.584 212.878 185.466C214.136 185.347 215.289 184.844 216.477 184.549C218.748 183.987 221.578 184.282 222.835 185.968C223.674 187.092 223.639 188.571 223.045 189.784C222.486 191.026 221.438 192.062 220.32 192.979C216.477 196.262 211.725 198.806 206.519 200.018C201.314 201.201 196.562 201.32 191.601 199.427Z" fill="#023EA1"/>
<path d="M194.536 194.458C196.317 190.435 198.693 186.146 201.349 181.709C202.012 180.615 202.676 179.52 203.34 178.456C204.004 177.391 204.633 176.326 205.366 175.32C206.764 173.309 208.301 171.475 209.838 169.76C211.376 168.044 212.878 166.476 214.31 164.997C215.743 163.518 217.105 162.187 218.433 161.004C221.053 158.638 223.429 156.952 225.106 155.828C225.945 155.266 226.609 154.852 227.063 154.586C227.272 154.467 227.447 154.349 227.587 154.29C227.692 154.231 227.761 154.201 227.761 154.201C227.761 154.201 227.692 154.231 227.587 154.319C227.447 154.408 227.307 154.497 227.098 154.645C226.643 154.941 225.98 155.355 225.176 155.917C223.499 157.041 221.158 158.756 218.573 161.123C217.28 162.306 215.918 163.666 214.485 165.116C213.053 166.595 211.55 168.162 210.048 169.878C208.546 171.593 207.008 173.427 205.611 175.439C204.912 176.444 204.248 177.48 203.619 178.574C202.956 179.639 202.292 180.733 201.628 181.828C198.973 186.235 196.597 190.524 194.815 194.546" fill="#E0E0E0"/>
<path d="M205.435 175.32C205.4 175.32 205.366 175.113 205.331 174.729C205.261 174.344 205.226 173.812 205.156 173.102C205.051 171.741 204.981 169.848 204.876 167.778C204.807 165.707 204.702 163.814 204.562 162.454C204.492 161.773 204.422 161.211 204.387 160.856C204.352 160.472 204.317 160.265 204.352 160.265C204.387 160.265 204.422 160.472 204.492 160.856C204.562 161.241 204.667 161.773 204.772 162.454C204.946 163.814 205.121 165.707 205.191 167.778C205.261 169.819 205.331 171.682 205.366 173.102C205.401 173.753 205.4 174.285 205.435 174.729C205.47 175.113 205.47 175.32 205.435 175.32Z" fill="#E0E0E0"/>
<path d="M226.294 173.309C226.294 173.338 226.014 173.338 225.455 173.338C224.931 173.338 224.162 173.368 223.219 173.398C221.332 173.457 218.712 173.605 215.812 173.9C212.912 174.196 210.327 174.551 208.475 174.847C207.532 174.995 206.798 175.113 206.274 175.202C205.75 175.291 205.471 175.35 205.471 175.32C205.471 175.291 205.75 175.232 206.274 175.113C206.798 174.995 207.532 174.817 208.475 174.67C210.327 174.315 212.947 173.93 215.847 173.664C218.747 173.368 221.367 173.25 223.289 173.25C224.232 173.25 225.001 173.25 225.56 173.279C226.014 173.279 226.294 173.309 226.294 173.309Z" fill="#E0E0E0"/>
<path d="M194.815 194.162C194.815 194.162 194.78 194.103 194.675 193.955C194.605 193.778 194.5 193.571 194.36 193.304C194.116 192.742 193.766 191.914 193.347 190.879C192.509 188.808 191.495 185.939 190.412 182.774C189.329 179.58 188.316 176.711 187.548 174.64C187.163 173.635 186.849 172.806 186.639 172.185C186.534 171.919 186.464 171.712 186.395 171.505C186.325 171.357 186.325 171.268 186.325 171.268C186.325 171.268 186.36 171.327 186.464 171.475C186.534 171.653 186.639 171.86 186.779 172.126C187.023 172.688 187.373 173.516 187.792 174.552C188.631 176.622 189.644 179.491 190.727 182.656C191.81 185.851 192.823 188.72 193.592 190.79C193.976 191.796 194.291 192.624 194.5 193.245C194.605 193.511 194.675 193.718 194.745 193.926C194.815 194.073 194.815 194.162 194.815 194.162Z" fill="#E0E0E0"/>
<path d="M222.835 188.365C222.835 188.365 222.73 188.394 222.555 188.453C222.346 188.512 222.066 188.572 221.752 188.631C220.983 188.779 219.97 188.986 218.747 189.252C216.232 189.784 212.738 190.553 208.86 191.382C205.017 192.239 201.523 192.979 198.972 193.452C197.715 193.689 196.666 193.896 195.968 194.014C195.653 194.073 195.374 194.103 195.129 194.132C194.954 194.162 194.85 194.162 194.85 194.162C194.85 194.162 194.954 194.132 195.129 194.073C195.339 194.014 195.618 193.955 195.933 193.896C196.701 193.748 197.715 193.541 198.937 193.275C201.453 192.742 204.947 191.973 208.825 191.145C212.668 190.287 216.162 189.548 218.712 189.074C219.97 188.838 221.018 188.631 221.717 188.512C222.031 188.453 222.311 188.424 222.555 188.394C222.73 188.365 222.835 188.335 222.835 188.365Z" fill="#E0E0E0"/>
<path d="M193.083 182.532C193.083 182.532 206.04 170.302 208.647 157.705" stroke="#FCBE42" stroke-width="0.321339" stroke-miterlimit="10"/>
<path d="M208.618 149.088C208.618 149.088 203.801 152.093 208.346 159.001C208.346 159.001 213.368 157.244 208.618 149.088Z" fill="#FCBE42"/>
<path d="M204.249 168.435C204.249 168.435 205.627 163.434 198.084 157.536C198.076 157.528 194.967 160.957 204.249 168.435Z" fill="#FCBE42"/>
<path d="M197.326 177.931C197.326 177.931 200.047 173.73 193.435 167.07C193.435 167.07 189.245 169.543 197.326 177.931Z" fill="#FCBE42"/>
<path d="M197.547 178.164C197.547 178.164 200.677 174.265 209.127 178.38C209.127 178.38 208.096 183.116 197.547 178.164Z" fill="#FCBE42"/>
<path d="M204.196 168.342C204.196 168.342 206.485 163.858 215.041 167.16C215.049 167.168 214.848 172.265 204.196 168.342Z" fill="#FCBE42"/>
<path d="M214.47 208H0.684571C0.306708 208 0 207.793 0 207.538C0 207.283 0.306708 207.075 0.684571 207.075H214.47C214.847 207.075 215.154 207.283 215.154 207.538C215.154 207.793 214.847 208 214.47 208Z" fill="#2E5B99"/>
<path d="M124.088 105.987V99.9707C124.088 97.2385 126.703 95.0239 129.929 95.0239H192.124C195.351 95.0239 197.967 97.2385 197.967 99.9707V206.31H37.0884V105.987H124.088Z" fill="white"/>
<path d="M123.572 105.987V99.9707C123.572 97.2385 126.187 95.0239 129.413 95.0239H191.607C194.834 95.0239 197.45 97.2385 197.45 99.9707V206.31H36.5718V105.987H123.572Z" fill="#0F4599"/>
<path d="M191.698 110.273V206.967H42.7354V109.798L191.698 110.273Z" fill="#BAE2FF"/>
<path d="M183.878 110.144V206.311H34.8477V109.671L183.878 110.144Z" fill="#0F4599"/>
<path d="M28.8397 105.988H176.071C179.093 105.988 181.319 107.719 181.753 110.113V206.311H21.0647V112.554C21.0285 109.098 24.712 105.988 28.8407 105.988H28.8397Z" fill="white"/>
<path d="M82.8457 141.7L168.896 141.903L169.079 86.5384L83.0283 86.335L82.8457 141.7Z" fill="#EBF3FF"/>
<path d="M85.1004 139.044L166.75 139.237L166.917 88.339L85.2683 88.146L85.1004 139.044Z" fill="#DBEFFF"/>
<path d="M159.867 135.135L107.396 135.011L136.085 111.71L159.867 135.135Z" fill="#E3EEFF"/>
<path d="M136.007 135.078L91.9199 134.974L115.843 115.716L136.007 135.078Z" fill="#E3EEFF"/>
<path d="M123.994 110.163C126.367 108.154 126.367 104.897 123.994 102.888C121.621 100.879 117.773 100.879 115.4 102.888C113.027 104.897 113.027 108.154 115.4 110.163C117.773 112.173 121.621 112.173 123.994 110.163Z" fill="#E3EEFF"/>
<path d="M71.3826 135.064L151.159 135.29L151.377 72.8103L71.6006 72.5846L71.3826 135.064Z" fill="#EBF3FF"/>
<path d="M73.7022 132.071L148.948 132.284L149.149 74.8464L73.9026 74.6335L73.7022 132.071Z" fill="#DBEFFF"/>
<path d="M141.764 81.7786H111.796V84.0076H141.764V81.7786Z" fill="#B1D7FF"/>
<path d="M80.7935 91.4053H141.764V89.1762H80.7935V91.4053Z" fill="#B1D7FF"/>
<path d="M80.7935 98.803H141.764V96.5739H80.7935V98.803Z" fill="#B1D7FF"/>
<path d="M28.1312 105.988H175.362C178.384 105.988 180.61 107.719 181.044 110.113V206.656H20.3562V112.554C20.32 109.098 24.0035 105.988 28.1322 105.988H28.1312Z" fill="#0064B5"/>
<path d="M181.752 206.31H197.966V205.757H181.752V206.31Z" fill="white"/>
<g opacity="0.5" style="mix-blend-mode:darken">
<path d="M197.966 146.676L192.06 149.939H184.257L181.753 151.569V150.02H21.0645V146.676H197.966Z" fill="black"/>
</g>
<path d="M17.7903 148.169L200.248 148.169V130.716L17.7903 130.716V148.169Z" fill="#032C6E"/>
<path d="M17.7902 148.169L183.823 148.169V130.716L17.7902 130.716V148.169Z" fill="#033E9F"/>
<path d="M167.914 123.072C167.914 122.984 167.913 122.946 167.913 122.937C167.913 122.953 167.914 123.072 167.914 123.072Z" fill="#D9FFFF"/>
<path d="M167.914 123.072C167.914 122.984 167.913 122.946 167.913 122.937C167.913 122.953 167.914 123.072 167.914 123.072Z" fill="#D9FFFF"/>
<path d="M105.637 123.653C105.637 123.653 105.636 123.534 105.636 123.518C105.636 123.527 105.636 123.566 105.637 123.653Z" fill="#D9FFFF"/>
<path d="M105.637 123.653C105.637 123.653 105.636 123.534 105.636 123.518C105.636 123.527 105.636 123.566 105.637 123.653Z" fill="#D9FFFF"/>
<path d="M136.536 109.067C143.844 115.577 155.467 120.882 167.878 123.102C167.887 123.799 167.937 127.663 168.172 145.474C168.484 169.233 141.743 180.993 137.591 182.797C133.543 181.254 106.281 169.811 105.969 146.052C105.735 128.242 105.684 124.377 105.675 123.68C118.024 121.231 129.4 115.712 136.537 109.065L136.536 109.067Z" fill="white"/>
<path d="M136.644 113.36C143.793 118.815 153.673 123.079 164.519 125.372L164.784 145.503C164.905 154.714 160.627 163.071 152.071 170.343C146.449 175.122 140.522 178.098 137.512 179.439C137.382 179.385 137.238 179.323 137.098 179.263L136.583 113.409C136.604 113.393 136.624 113.378 136.645 113.362L136.644 113.36Z" fill="#E89E0A"/>
<path d="M136.582 113.408L137.097 179.261C133.946 177.902 128.217 175.089 122.717 170.616C113.971 163.506 109.477 155.23 109.355 146.019L109.091 125.889C119.843 123.401 129.582 118.972 136.582 113.408Z" fill="#FCBE42"/>
<path d="M124.229 142.493L124.352 158.089C124.366 159.825 149.526 159.685 149.512 157.949L149.389 142.353L124.229 142.493ZM133.748 148.327C133.736 146.88 135.113 145.705 136.83 145.696C138.547 145.686 139.953 146.846 139.964 148.294C139.971 149.351 139.222 150.274 138.147 150.689L138.182 155.119C138.187 155.708 137.622 156.2 136.911 156.203C136.212 156.208 135.641 155.722 135.635 155.133L135.601 150.713C134.508 150.31 133.754 149.396 133.747 148.329L133.748 148.327Z" fill="white"/>
<path d="M126.422 141.369L128.969 141.355L128.961 140.305C128.933 136.667 132.422 133.686 136.739 133.662C141.057 133.638 144.593 136.579 144.622 140.218L144.629 141.267L147.176 141.253L147.168 140.204C147.131 135.381 142.445 131.484 136.722 131.516C131.001 131.548 126.377 135.497 126.414 140.319L126.422 141.369Z" fill="white"/>
<path d="M30.2263 47.0718C29.9424 48.5138 26.5359 52.1187 26.5359 52.1187L20.0068 54.2817L18.0197 67.7402L18.8713 76.3921C18.8713 76.3921 18.0197 78.7954 14.897 78.7954C11.4905 78.5551 9.50343 78.3147 10.3551 74.4694C11.2067 70.8645 8.93568 71.1048 7.80018 64.6159C6.66468 58.127 12.0583 56.4447 14.3293 55.4833C16.6003 54.522 18.8713 49.4751 18.8713 49.4751C19.7229 42.5055 28.523 45.1492 28.523 45.1492C28.523 45.1492 30.5101 45.8701 30.2263 47.0718Z" fill="#1C1156"/>
<path d="M31.0765 44.1878C31.0765 44.6685 29.941 46.5911 29.941 46.5911C29.941 46.5911 26.2506 44.9088 25.9667 44.9088C25.6829 44.6684 27.1022 43.4668 27.1022 43.4668C27.1022 43.4668 31.0765 43.9475 31.0765 44.1878Z" fill="#C74F59"/>
<path d="M37.3232 34.3343C32.2134 35.2956 33.0651 39.3812 31.6457 44.1878C30.5102 48.2734 27.6714 50.917 26.8198 51.638V51.8784C27.1037 52.1187 27.3876 52.8397 28.5231 54.0413C29.6586 55.964 35.3361 57.1656 36.4716 56.685C37.6071 56.2043 39.0264 52.8397 38.7425 49.4751C38.4587 46.3508 41.5813 47.7928 41.5813 47.7928C45.2717 48.2734 47.2588 46.3508 47.2588 46.3508C50.9492 43.4668 51.233 35.7762 51.233 34.0939C51.233 33.8536 50.9492 33.8536 50.9492 33.8536C48.6782 34.0939 41.5813 33.373 37.3232 34.3343Z" fill="#F9BC97"/>
<path d="M55.4894 35.0552C55.2056 35.7762 54.6378 36.2568 54.3539 36.7375C52.6507 37.9392 51.5152 36.2568 50.6636 35.2955C50.3797 35.0552 49.8119 34.8149 49.5281 35.0552C45.8377 36.9778 40.1602 36.0165 40.1602 36.0165C35.0505 34.5745 38.1731 39.3811 38.1731 39.3811C38.457 41.7844 35.9021 44.4281 29.6568 44.1877C23.6955 43.9474 26.5342 33.1325 26.8181 32.8922C28.8052 26.163 36.7537 24 41.5796 24C45.2699 24 48.1087 26.163 48.9603 27.1243C49.2442 27.3646 49.5281 27.3646 49.8119 27.3646C51.2313 27.3646 52.3668 27.6049 53.5023 28.3259C54.6378 29.2873 55.2056 30.7292 55.4894 32.1712C55.4894 32.6519 55.4894 33.3729 55.4894 33.6132V33.8535C55.2056 34.3342 55.2056 34.8149 55.4894 35.0552Z" fill="#1C1156"/>
<path d="M19.1549 54.7624L17.4517 56.2044C17.4517 56.2044 20.8582 83.7222 21.7098 84.9238C22.2775 86.1255 23.413 89.4901 23.413 89.4901L48.394 86.6061L48.1101 85.6448C48.1101 85.6448 44.7036 70.0233 45.2714 68.7015C45.5553 67.2595 47.5424 67.9805 47.5424 63.4143C47.5424 58.848 38.7423 52.1187 38.7423 52.1187C38.7423 52.1187 38.1745 55.964 33.9164 55.964C29.6583 55.964 26.5357 51.8784 26.5357 51.8784C21.9937 52.1187 19.1549 55.0027 19.1549 54.7624Z" fill="#0064DD"/>
<path d="M16.0325 73.1476L25.6842 71.7056C25.6842 71.7056 25.9681 70.2637 25.6842 63.7747C25.4003 57.5262 25.4003 53.2002 19.1551 53.9212C13.1937 54.6422 15.4647 68.341 15.4647 68.341L16.0325 73.1476Z" fill="#02549F"/>
<path d="M16.3146 73.628C16.0308 73.628 16.0308 73.8683 16.0308 73.8683C16.3146 74.349 17.1663 76.2716 18.8695 81.3185C21.4244 88.0478 25.1148 85.4042 25.1148 85.4042C25.1148 85.4042 45.2698 74.349 47.5408 74.1086C48.9602 73.8683 50.0957 73.628 50.3796 73.1473C50.6635 73.1473 50.3796 72.907 50.0957 72.907C49.528 72.907 48.6763 72.907 48.1086 72.186C46.9731 70.9844 50.9473 71.7053 50.9473 71.7053C50.9473 71.7053 52.9345 72.186 53.2183 71.7053C53.5022 71.2247 52.9345 69.5424 52.9345 69.302C52.6506 68.8214 48.3925 68.8214 46.1215 69.5424C44.4182 69.7827 43.5666 70.744 43.5666 71.465C43.2827 71.7053 42.9989 72.186 42.4311 72.4263C39.8762 73.3877 31.6439 76.7523 28.8051 78.1943C27.9535 78.6749 27.1019 78.6749 26.818 78.9152C25.9664 79.1556 25.6825 78.4346 25.6825 77.4733L25.3986 72.186C25.3986 71.9457 25.1148 71.9457 25.1148 71.9457L16.3146 73.628Z" fill="#E8B791"/>
<path d="M50.6672 76.9929L45.8413 77.2332L46.9768 83.0012L58.3318 79.1559L50.6672 76.9929Z" fill="#E8B791"/>
<path d="M48.3936 79.3965L65.7099 78.9159L84.1617 59.0886L66.2777 60.0499L48.3936 79.3965Z" fill="#1A1154"/>
<path d="M39.6826 87.5733L56.6278 96.4601L77.3506 117.489L81.8927 152.697L90.6928 152.457V151.496C90.6928 151.496 89.8411 118.21 88.7056 108.356C87.5701 98.5029 83.0281 97.7819 83.0281 97.7819L48.2296 86.5396L39.6826 87.5733Z" fill="#DA0620"/>
<path d="M23.1306 89.2499L22.8467 93.5758C20.5757 103.67 27.6726 106.554 29.3759 107.034C29.6597 107.275 29.9436 107.275 29.9436 107.275C32.7823 107.515 55.4923 109.438 60.3182 109.678C65.4279 110.159 65.144 111.841 65.144 111.841L49.8148 147.77L55.7762 151.616C55.7762 151.616 73.0925 125.299 79.3378 116.407C85.2991 107.755 75.9313 102.949 75.9313 102.949L39.6823 87.5732L23.1306 89.2499Z" fill="#EA394E"/>
<path d="M82.1754 152.457L81.8915 155.341C81.6077 158.225 83.027 158.465 83.027 158.465C83.027 158.465 94.6659 158.465 98.3563 158.705C102.047 158.946 101.763 157.744 101.763 157.744C101.763 156.542 100.343 156.302 99.4918 156.302C99.2079 156.302 98.6401 156.062 98.3563 156.062L90.6916 152.457H82.1754Z" fill="#130452"/>
<path d="M49.5317 147.89C49.5317 147.89 47.8284 149.332 46.6929 150.293C45.8413 151.014 45.8413 151.976 45.8413 152.696C45.8413 153.177 46.1252 153.177 46.1252 153.417C48.1123 154.619 57.1963 160.868 60.035 161.589C60.3189 161.589 60.3189 161.589 60.3189 161.589C60.8867 161.829 61.4544 161.829 62.0222 161.589C62.306 161.348 62.306 161.108 62.306 160.868C62.306 160.627 62.0222 160.387 62.0222 160.147C61.7383 159.666 61.4544 159.426 61.1705 159.185C60.035 157.743 58.6157 156.782 57.7641 155.34C55.7769 152.937 55.7769 151.254 55.7769 151.254L49.5317 147.89Z" fill="#130452"/>
</g>
<defs>
<clipPath id="clip0_2_2">
<rect width="230" height="232" fill="white"/>
</clipPath>
</defs>
</svg>
