<svg width="230" height="232" viewBox="0 0 230 232" fill="none" xmlns="http://www.w3.org/2000/svg">
<path d="M21.9062 21.2116V187.365C21.9062 189.097 23.177 190.589 24.9446 190.932L69.3732 199.552L81.4667 89.5384L69.7463 12L25.2028 17.6032C23.3164 17.8402 21.9062 19.3846 21.9062 21.2116Z" fill="#033E9F"/>
<path d="M146.063 14.8856L71.183 12.0048C68.2365 11.8914 65.8418 14.0051 65.8418 16.726V195.324C65.8418 198.045 68.2365 200.12 71.183 199.957L146.063 195.838C148.786 195.688 150.988 193.454 150.988 190.848V19.7934C150.988 17.1875 148.786 14.9903 146.063 14.8856Z" fill="#0064B5"/>
<path d="M74.77 17.3267L142.694 19.7788C144.418 19.8408 145.785 21.226 145.785 22.8276V34.9937C145.785 36.5827 144.437 37.8678 142.722 37.8228L74.7974 36.0337C72.9174 35.984 71.4474 34.5403 71.4468 32.8823V20.2427C71.4468 18.5985 72.8977 17.259 74.77 17.3267Z" stroke="#004F90" stroke-width="0.9"/>
<path d="M78.0604 21.6442C78.0604 22.5357 77.2791 23.2334 76.3141 23.2011C75.3484 23.1696 74.5654 22.4191 74.5654 21.5261C74.5654 20.633 75.3492 19.9361 76.3141 19.9691C77.2791 20.0022 78.0604 20.7527 78.0604 21.6442Z" fill="white"/>
<path d="M83.5757 21.8306C83.5757 22.7197 82.7985 23.4151 81.8393 23.3836C80.8793 23.3521 80.0996 22.604 80.0996 21.7133C80.0996 20.8226 80.8785 20.1272 81.8393 20.1603C82.7985 20.1934 83.5757 20.9415 83.5757 21.8306Z" fill="white"/>
<path d="M89.0624 22.0156C89.0624 22.9024 88.2893 23.5962 87.3358 23.5647C86.3807 23.5332 85.606 22.7874 85.606 21.8991C85.606 21.0107 86.3807 20.3169 87.3358 20.35C88.2901 20.3831 89.0624 21.1289 89.0624 22.0156Z" fill="white"/>
<path d="M74.7739 38.6277L142.699 40.3591C144.421 40.403 145.785 41.7704 145.785 43.3708V55.5369C145.785 57.1282 144.433 58.4301 142.717 58.4031L74.7935 57.3347C72.9143 57.305 71.4468 55.8788 71.4468 54.2234V41.5828C71.447 39.9362 72.901 38.5799 74.7739 38.6277Z" stroke="#004F90" stroke-width="0.9"/>
<path d="M78.0604 42.9099C78.0604 43.8014 77.2791 44.507 76.3141 44.4857C75.3484 44.4645 74.5654 43.7226 74.5654 42.8288C74.5654 41.935 75.3492 41.2301 76.3141 41.253C77.2791 41.2758 78.0604 42.0177 78.0604 42.9099Z" fill="white"/>
<path d="M83.5757 43.0385C83.5757 43.9276 82.7985 44.6317 81.8393 44.6096C80.8793 44.5883 80.0996 43.8489 80.0996 42.9574C80.0996 42.0659 80.8785 41.3634 81.8393 41.3863C82.7985 41.4091 83.5757 42.1486 83.5757 43.0385Z" fill="white"/>
<path d="M89.0624 43.1651C89.0624 44.0519 88.2893 44.7535 87.3358 44.7323C86.3807 44.711 85.606 43.9731 85.606 43.0848C85.606 42.1965 86.3807 41.4948 87.3358 41.5176C88.2901 41.5405 89.0624 42.2784 89.0624 43.1651Z" fill="white"/>
<path d="M74.7788 59.9294L142.704 60.9412C144.424 60.9669 145.784 62.3165 145.785 63.9138V76.0808C145.785 77.6742 144.43 78.9925 142.712 78.9841L74.7886 78.6365C72.9107 78.6266 71.4468 77.2182 71.4468 75.5652V62.9255C71.4468 61.2763 72.9045 59.9013 74.7788 59.9294Z" stroke="#004F90" stroke-width="0.9"/>
<path d="M78.0604 64.177C78.0604 65.0685 77.2791 65.7828 76.3141 65.771C75.3484 65.76 74.5654 65.026 74.5654 64.1329C74.5654 63.2399 75.3492 62.5256 76.3141 62.539C77.2791 62.5516 78.0604 63.2856 78.0604 64.177Z" fill="white"/>
<path d="M83.5757 64.2465C83.5757 65.1356 82.7985 65.8475 81.8393 65.8365C80.8793 65.8255 80.0996 65.0939 80.0996 64.2032C80.0996 63.3125 80.8785 62.6006 81.8393 62.6132C82.7985 62.6258 83.5757 63.3574 83.5757 64.2465Z" fill="white"/>
<path d="M89.0624 64.315C89.0624 65.2018 88.2893 65.9113 87.3358 65.9003C86.3807 65.8893 85.606 65.16 85.606 64.2717C85.606 63.3834 86.3807 62.6738 87.3358 62.6864C88.2901 62.699 89.0624 63.4283 89.0624 64.315Z" fill="white"/>
<path d="M74.7837 81.2305L142.708 81.5205C144.427 81.5283 145.784 82.8601 145.785 84.4561V96.623C145.785 98.2186 144.427 99.5537 142.708 99.5635L74.7837 99.9375C72.9074 99.9481 71.4468 98.5578 71.4468 96.9062V84.2656C71.4469 82.614 72.9082 81.2221 74.7837 81.2305Z" stroke="#004F90" stroke-width="0.9"/>
<path d="M78.0604 85.4431C78.0604 86.3346 77.2791 87.0568 76.3141 87.056C75.3484 87.0552 74.5654 86.3299 74.5654 85.4368C74.5654 84.5438 75.3492 83.8216 76.3141 83.824C77.2791 83.8263 78.0604 84.5516 78.0604 85.4431Z" fill="white"/>
<path d="M83.5757 85.4541C83.5757 86.3432 82.7985 87.0638 81.8393 87.0622C80.8793 87.0614 80.0996 86.3385 80.0996 85.447C80.0996 84.5555 80.8785 83.8357 81.8393 83.8389C82.7985 83.8412 83.5757 84.5642 83.5757 85.4541Z" fill="white"/>
<path d="M89.0624 85.4645C89.0624 86.3512 88.2893 87.0694 87.3358 87.0687C86.3807 87.0679 85.606 86.3465 85.606 85.4582C85.606 84.5699 86.3807 83.8516 87.3358 83.854C88.2901 83.8564 89.0624 84.5777 89.0624 85.4645Z" fill="white"/>
<path d="M142.713 102.101C144.431 102.09 145.785 103.406 145.785 105V117.166C145.785 118.764 144.423 120.116 142.703 120.144L74.7788 121.239C72.9037 121.269 71.4468 119.897 71.4468 118.248V105.608C71.4468 103.954 72.9117 102.543 74.7886 102.532L142.713 102.101Z" stroke="#004F90" stroke-width="0.9"/>
<path d="M78.0604 106.709C78.0604 107.601 77.2791 108.332 76.3141 108.34C75.3484 108.35 74.5654 107.632 74.5654 106.739C74.5654 105.846 75.3492 105.116 76.3141 105.108C77.2791 105.101 78.0604 105.818 78.0604 106.709Z" fill="white"/>
<path d="M83.5757 106.662C83.5757 107.551 82.7985 108.279 81.8393 108.289C80.8793 108.298 80.0996 107.583 80.0996 106.692C80.0996 105.802 80.8785 105.073 81.8393 105.065C82.7985 105.057 83.5757 105.772 83.5757 106.662Z" fill="white"/>
<path d="M89.0624 106.614C89.0624 107.501 88.2893 108.227 87.3358 108.236C86.3807 108.245 85.606 107.532 85.606 106.644C85.606 105.756 86.3807 105.03 87.3358 105.022C88.2901 105.014 89.0624 105.727 89.0624 106.614Z" fill="white"/>
<path d="M142.718 122.68C144.434 122.651 145.785 123.951 145.785 125.542V137.708C145.785 139.308 144.421 140.678 142.699 140.724L74.7739 142.539C72.9 142.589 71.4469 141.235 71.4468 139.588V126.949C71.4468 125.292 72.9149 123.864 74.7935 123.833L142.718 122.68Z" stroke="#004F90" stroke-width="0.9"/>
<path d="M78.0604 127.976C78.0604 128.868 77.2791 129.606 76.3141 129.626C75.3484 129.646 74.5654 128.937 74.5654 128.044C74.5654 127.151 75.3492 126.412 76.3141 126.394C77.2791 126.376 78.0604 127.085 78.0604 127.976Z" fill="white"/>
<path d="M83.5757 127.869C83.5757 128.758 82.7985 129.495 81.8393 129.514C80.8793 129.533 80.0996 128.827 80.0996 127.936C80.0996 127.046 80.8785 126.308 81.8393 126.291C82.7985 126.273 83.5757 126.98 83.5757 127.869Z" fill="white"/>
<path d="M89.0624 127.764C89.0624 128.65 88.2893 129.385 87.3358 129.404C86.3807 129.423 85.606 128.719 85.606 127.831C85.606 126.942 86.3807 126.208 87.3358 126.19C88.2901 126.173 89.0624 126.877 89.0624 127.765V127.764Z" fill="white"/>
<path d="M142.723 143.261C144.438 143.215 145.785 144.497 145.785 146.086V158.252C145.785 159.853 144.418 161.24 142.694 161.305L74.769 163.842C72.8962 163.911 71.447 162.575 71.4468 160.931V148.291C71.4468 146.632 72.9183 145.186 74.7983 145.135L142.723 143.261Z" stroke="#004F90" stroke-width="0.9"/>
<path d="M78.0604 149.242C78.0604 150.134 77.2791 150.881 76.3141 150.91C75.3484 150.94 74.5654 150.24 74.5654 149.346C74.5654 148.453 75.3492 147.706 76.3141 147.678C77.2791 147.649 78.0604 148.349 78.0604 149.242V149.242Z" fill="white"/>
<path d="M83.5757 149.077C83.5757 149.966 82.7985 150.711 81.8393 150.74C80.8793 150.77 80.0996 150.072 80.0996 149.181C80.0996 148.29 80.8785 147.545 81.8393 147.518C82.7985 147.49 83.5757 148.188 83.5757 149.078V149.077Z" fill="white"/>
<path d="M89.0624 148.913C89.0624 149.8 88.2893 150.543 87.3358 150.572C86.3807 150.601 85.606 149.905 85.606 149.017C85.606 148.128 86.3807 147.386 87.3358 147.357C88.2901 147.33 89.0624 148.026 89.0624 148.913V148.913Z" fill="white"/>
<path d="M142.728 163.84C144.441 163.774 145.785 165.041 145.785 166.627V178.794C145.784 180.397 144.415 181.801 142.689 181.884L74.7642 185.142C72.8926 185.231 71.4474 183.912 71.4468 182.271V169.632C71.4468 167.971 72.9215 166.507 74.8032 166.435L142.727 163.84H142.728Z" stroke="#004F90" stroke-width="0.9"/>
<path d="M78.0604 170.509C78.0604 171.4 77.2791 172.156 76.3141 172.196C75.3484 172.236 74.5654 171.544 74.5654 170.651C74.5654 169.758 75.3492 169.002 76.3141 168.964C77.2791 168.925 78.0604 169.617 78.0604 170.509Z" fill="white"/>
<path d="M83.5757 170.285C83.5757 171.174 82.7985 171.927 81.8393 171.967C80.8793 172.007 80.0996 171.317 80.0996 170.426C80.0996 169.535 80.8785 168.783 81.8393 168.744C82.7985 168.706 83.5757 169.396 83.5757 170.285Z" fill="white"/>
<path d="M89.0624 170.063C89.0624 170.95 88.2893 171.701 87.3358 171.741C86.3807 171.78 85.606 171.092 85.606 170.203C85.606 169.315 86.3807 168.564 87.3358 168.526C88.2901 168.488 89.0624 169.176 89.0624 170.063Z" fill="white"/>
<path d="M36.5933 82.5607C36.3592 83.1217 35.891 83.6827 35.4228 84.2437C35.1887 84.8047 34.7205 85.4779 34.2523 86.039C33.55 87.2732 32.8477 88.6196 32.1454 89.8538C30.8579 92.3222 29.6874 94.9029 28.8681 97.4835L28.634 98.4933C28.634 98.4933 28.634 98.4933 28.634 98.3811V98.2689C28.634 98.2689 28.634 98.1567 28.5169 98.0445C28.5169 97.9323 28.3999 97.8201 28.3999 97.8201C28.2828 97.5957 28.1658 97.3713 27.8146 97.2591C27.3464 97.0347 27.2294 97.0347 27.3464 97.1469C27.4635 97.2591 27.9317 97.2591 28.5169 97.2591C29.1022 97.2591 29.8045 97.2591 30.6238 97.1469C33.433 96.6981 36.4762 96.0249 39.4024 95.3517L41.1582 98.9421C39.7536 99.8397 38.2319 100.625 36.7103 101.186C35.3057 101.859 33.6671 102.533 32.0284 102.981C31.092 103.206 30.2726 103.542 29.4533 103.655C28.9851 103.767 28.3999 103.767 27.8146 103.767C27.2294 103.767 26.6441 103.767 25.9419 103.655C25.2396 103.542 24.3032 103.43 23.3668 102.533C22.8986 102.308 22.5474 101.635 22.0792 101.186C21.9622 100.962 21.8451 100.625 21.611 100.289C21.494 100.064 21.494 99.7275 21.377 99.3909V98.9421V98.7177C21.377 98.4933 21.377 98.2689 21.377 98.0445C21.377 97.8201 21.377 97.5957 21.377 97.4835V97.2591V97.1469L21.611 95.9127C21.8451 94.2297 22.5474 92.5466 23.0156 90.9758C23.6009 89.405 24.1861 87.9464 24.8884 86.4878C25.5907 85.0291 26.293 83.5705 27.2294 82.2241C27.6976 81.5509 28.1658 80.8777 28.5169 80.0923C28.8681 79.3069 29.4533 78.7459 29.9215 77.9604L36.5933 82.5607Z" fill="#FFBE9D"/>
<path d="M38.2322 83.3461C37.647 84.5803 37.1788 85.8145 36.5935 86.9365C35.6572 88.9562 34.7208 90.527 34.0185 91.8734C33.4332 92.9954 32.965 93.5564 32.965 93.5564L22.4307 88.5073C22.4307 88.5073 26.6444 76.7262 31.0923 75.492C35.7742 74.2578 40.5732 77.736 38.2322 83.3461Z" fill="#F59E28"/>
<path d="M42.4462 112.294C42.4462 112.294 38.7006 144.496 36.2426 156.165C33.5505 169.068 15.6421 210.47 15.6421 210.47L6.98047 208.675C11.3113 194.313 17.5148 167.609 21.4945 157.399C24.4207 141.915 21.1434 122.392 25.4742 110.387L42.4462 112.294Z" fill="#EE384E"/>
<path d="M51.3419 113.304C51.3419 113.304 53.6829 147.637 54.034 160.092C54.3851 173.107 50.9907 211.705 50.9907 211.705H42.6803C42.6803 211.705 39.1688 175.912 40.8075 158.521C38.7006 145.281 34.1357 111.284 34.1357 111.284L51.3419 113.304Z" fill="#DE051F"/>
<path d="M15.1738 210.134L7.21448 208.339C6.98038 208.226 6.74628 208.339 6.62923 208.787L4.05416 214.061C3.70302 214.51 4.05416 215.071 4.63941 215.407H4.75646C7.44857 215.856 9.32135 216.305 12.7158 216.866C14.8226 217.202 20.9092 218.773 23.6013 219.447C26.4104 220.12 27.3468 217.539 26.1763 217.09C21.3774 214.846 17.7488 212.602 16.4613 210.807C16.1102 210.695 15.759 210.47 15.1738 210.134Z" fill="#170856"/>
<path d="M50.8736 211.817H42.6802C42.329 211.817 42.212 211.929 42.212 212.378L41.0415 217.988C41.0415 218.549 41.2756 218.998 41.8608 219.11H41.9779C44.67 218.998 46.5428 218.998 50.0543 218.886C52.1611 218.773 58.5988 218.998 61.2909 218.886C63.983 218.773 64.4512 216.193 63.1637 215.968C57.8965 214.959 53.9168 213.612 52.1611 212.153C51.6929 211.929 51.2247 211.817 50.8736 211.817Z" fill="#170856"/>
<path d="M59.1844 55.5201C59.1844 55.5201 57.6628 68.7599 54.5025 72.0138C52.7467 74.7066 47.1284 72.0138 47.1284 72.0138L45.7238 77.2872L38.4668 74.8188L44.5533 54.0615L59.1844 55.5201Z" fill="#FFBE9D"/>
<path d="M39.1688 69.5453C39.754 70.5551 41.0415 71.0039 42.212 71.0039C43.9677 70.8917 45.7235 69.8819 47.1281 69.3209C47.4792 69.2087 47.7133 68.9843 47.9474 68.8721C48.7667 68.4233 50.4054 67.8623 50.6395 66.5158C50.6395 65.7304 50.1713 65.1694 50.0543 64.384C49.9372 63.7108 50.2884 62.9254 50.9907 62.8132C52.1611 62.3644 53.0975 63.4864 52.8634 64.384C52.7464 64.7206 52.6293 65.1694 52.8634 65.2816C53.2146 65.3938 53.4487 65.1694 53.6828 64.945C54.0339 64.2718 54.268 63.4864 54.5021 62.701C54.6192 61.9156 55.0874 61.1302 55.9067 60.6814C56.3749 60.3448 56.9601 60.457 57.5454 60.457C57.8965 60.457 58.0136 60.457 58.2477 60.457C59.8864 60.457 61.408 59.4471 61.8762 57.8763C62.3444 56.3055 61.2909 54.8469 61.2909 54.8469C61.2909 54.8469 61.525 52.4907 58.7159 52.0418C55.5556 51.7052 55.2044 52.7151 51.2248 51.1442C48.4156 50.0222 45.2553 52.4907 45.2553 52.4907C42.7973 51.8174 41.6268 53.2761 41.6268 53.2761C40.3392 54.0615 39.871 55.7445 39.6369 57.2031C39.4028 58.7739 39.637 60.2326 39.4029 61.6912C39.2858 63.1498 38.9347 64.4962 38.7006 65.8426C38.4665 67.3013 38.4665 68.7599 39.1688 69.9941" fill="#170856"/>
<path d="M35.3063 77.3993C35.1892 75.9407 35.3063 73.5845 36.4767 73.2479C37.6472 72.9113 45.0213 73.3601 48.7668 76.1651C47.4793 78.4092 47.5964 80.6532 47.5964 80.6532L35.3063 77.3993Z" fill="#F59E28"/>
<path opacity="0.2" d="M34.0189 81.9998L28.5176 91.0881L28.9858 91.4247C28.9858 91.4247 31.0927 89.4051 33.5507 86.6L34.0189 81.9998Z" fill="black"/>
<path d="M55.4387 96.5859C54.5023 101.074 53.0977 106.684 51.342 113.528L25.5913 110.499C25.8254 107.357 29.571 93.5565 28.6346 78.7459C28.5175 76.7262 30.5074 75.0432 32.9654 75.0432C34.1359 75.0432 35.6575 75.1554 36.945 75.2676C40.2224 75.492 45.0214 75.9408 47.8305 76.614C51.8102 77.2872 55.0876 78.6337 55.0876 78.6337C55.0876 78.6337 56.9603 80.7655 56.0239 90.4148C55.6728 92.0978 55.5557 94.1175 55.4387 96.5859Z" fill="#FABD4F"/>
<path d="M57.4279 82.5605C57.662 83.0094 58.0132 83.5704 58.4813 84.2436C58.9495 84.8046 59.4177 85.3656 59.7689 86.0388C60.7053 87.1608 61.5246 88.395 62.578 89.6292C64.4508 91.8733 66.5577 94.1173 68.6646 96.1369C69.2498 96.5857 69.718 97.0345 70.3033 97.3711L70.4203 97.5955H70.5374C70.4203 97.5955 70.3033 97.5955 70.3033 97.4833C70.0692 97.4833 69.718 97.4833 69.718 97.4833C69.601 97.5955 69.9521 97.4833 70.4203 97.2589C70.8885 97.0345 71.4737 96.5857 71.8249 96.1369C73.9318 94.3417 75.8045 91.7611 77.6773 89.4048L81.3058 91.0879C80.7206 92.7709 80.1353 94.2295 79.433 95.6881C79.1989 96.4735 78.7308 97.2589 78.2626 97.9321C77.7944 98.6054 77.3262 99.503 76.858 100.176C76.3898 100.849 75.6875 101.523 74.7511 102.42C74.2829 102.645 73.8147 103.093 73.3465 103.542C72.7613 103.767 72.176 104.215 71.2396 104.44C70.3033 104.664 69.3669 104.664 68.3134 104.44C67.7282 104.328 67.26 104.215 66.9088 103.879L66.7918 103.767L66.3236 103.318L66.0895 103.206C65.2702 102.645 64.4508 102.196 63.7485 101.635C60.8223 99.3908 58.3643 97.0345 56.1404 94.4539C54.9699 93.2197 53.9165 91.8733 52.9801 90.5269C52.3948 89.8536 51.9266 89.1804 51.5755 88.395C51.1073 87.7218 50.6391 87.0486 50.1709 85.9266L57.4279 82.5605Z" fill="#FFBE9D"/>
<path d="M77.5605 89.0682L80.3697 85.1411L83.7641 89.8536C83.7641 89.8536 81.1891 92.0976 78.8481 91.8732L77.5605 89.0682Z" fill="#FFBE9D"/>
<path d="M85.7534 83.2336L86.5727 87.7217L83.7635 89.8535L80.3691 85.1411L85.7534 83.2336Z" fill="#FFBE9D"/>
<path d="M46.7764 83.0095C46.8935 87.4976 56.3744 97.5957 56.3744 97.5957L66.4406 91.3124C66.4406 91.3124 63.1632 85.5901 59.1836 81.4387C52.863 75.1554 46.4253 77.6238 46.7764 83.0095Z" fill="#F59E28"/>
<path d="M183.158 165.529H224.065C227.276 165.529 229.879 168.132 229.879 171.343V211.157C229.879 214.368 227.276 216.971 224.065 216.971H183.158C179.946 216.971 177.343 214.368 177.343 211.157V171.343C177.343 168.132 179.946 165.529 183.158 165.529Z" fill="#236EB0"/>
<path d="M208.784 105.372C208.784 105.372 216.226 102.748 217.102 109.572C217.102 109.572 218.962 114.507 220.932 115.346C222.793 116.186 227.609 117.971 226.405 124.27C225.201 130.674 223.45 130.254 224.107 133.929C224.873 137.603 223.012 138.023 220.385 138.128C217.758 138.232 216.992 135.818 216.992 135.818L217.758 127.629L216.007 114.401L210.316 112.196C210.316 112.196 207.361 108.627 207.142 107.262C206.923 105.898 208.784 105.372 208.784 105.372Z" fill="#170856"/>
<path d="M209.768 103.588C209.768 103.588 210.972 104.743 210.643 104.953C210.315 105.163 207.141 106.842 207.141 106.842C207.141 106.842 206.156 105.058 206.265 104.532C206.375 104.007 209.768 103.588 209.768 103.588Z" fill="#F05051"/>
<path d="M189.958 94.6642C189.739 94.6642 189.63 94.7692 189.63 94.9793C189.63 96.5542 190.067 104.113 193.132 106.947C193.132 106.947 194.774 109.047 197.838 108.102C197.838 108.102 200.684 106.423 200.246 109.782C199.808 113.142 201.231 116.396 202.326 116.816C203.42 117.341 208.017 116.081 209.112 114.191C209.768 112.932 210.206 112.301 210.315 111.987C210.425 111.882 210.425 111.777 210.315 111.567C209.659 110.832 207.251 107.998 206.156 104.113C204.843 99.5989 205.609 95.1894 201.231 94.349C197.619 93.8246 191.381 94.5591 189.958 94.6642Z" fill="#FFBE97"/>
<path d="M185.908 94.349C185.908 94.2439 185.908 94.2448 185.908 94.1398C185.908 93.7196 185.908 93.1943 185.908 92.775C186.017 91.4102 186.565 89.9404 187.659 88.9949C188.535 88.2604 189.629 88.0503 190.614 88.0503C190.833 88.0503 191.052 87.9453 191.271 87.8402C192.037 87.0007 194.445 84.6904 197.729 84.6904C201.669 84.6904 208.564 86.7906 210.425 93.4044C210.534 93.8246 213.161 104.218 207.907 104.533C202.544 104.848 200.465 102.328 200.574 100.018C200.574 100.018 203.201 95.5046 198.714 96.6592C198.714 96.6592 194.117 97.4988 190.943 95.7138C190.505 95.5046 190.067 95.6096 189.848 96.0289C189.191 97.0786 187.988 98.7585 186.784 97.3937C186.346 96.8693 185.908 96.3441 185.798 95.6096C185.689 95.0844 185.798 94.7692 185.908 94.349Z" fill="#170856"/>
<path d="M210.425 111.882C210.425 111.882 207.798 115.976 204.076 115.871C200.355 115.871 200.136 112.092 200.136 112.092C200.136 112.092 192.584 118.706 192.694 123.01C192.803 127.314 194.226 126.684 194.664 128.049C195.102 129.519 192.147 144.847 192.147 144.847L191.709 145.791L213.051 148.626C213.051 148.626 213.927 145.371 214.474 144.321C215.021 143.272 218.086 116.291 218.086 116.291L216.663 114.821C216.773 114.926 214.255 112.092 210.425 111.882Z" fill="#0181F7"/>
<path d="M219.947 128.26C219.947 128.26 222.027 114.927 216.664 114.191C211.41 113.562 211.301 117.761 211.191 123.955C210.972 130.149 211.082 131.514 211.082 131.514L219.4 132.983L219.947 128.26Z" fill="#0064E1"/>
<path d="M211.301 131.618C211.191 131.618 211.082 131.723 211.082 131.828L210.644 136.972C210.644 137.708 210.535 138.442 209.769 138.127C209.331 137.918 208.784 137.708 208.127 137.393C205.719 136.133 198.605 132.668 196.306 131.723C195.869 131.513 195.65 131.199 195.431 130.779C195.212 130.148 194.555 129.204 193.242 128.784C191.162 128.259 187.551 128.259 187.551 128.574C187.441 128.784 187.003 130.464 187.222 131.094C187.441 131.618 189.083 131.199 189.083 131.199C189.083 131.199 192.366 130.674 191.381 131.723C190.834 132.354 190.068 132.459 189.521 132.459C189.302 132.459 189.192 132.668 189.411 132.878C189.849 133.193 190.615 133.613 191.928 133.823C194.336 134.138 211.41 144.952 211.41 144.952C211.41 144.952 214.694 147.471 216.664 140.857C218.087 135.818 218.853 134.033 219.072 133.403C219.181 133.298 219.072 133.088 218.853 133.088L211.301 131.618Z" fill="#FEBD96"/>
<path d="M182.953 138.758L192.694 142.642L193.679 136.764L189.739 136.553L182.953 138.758Z" fill="#FEBD96"/>
<path d="M176.277 119.966L160.845 119.125L176.824 138.547L191.6 139.073L176.277 119.966Z" fill="#0064B7"/>
<path d="M176.167 137.182C176.167 137.182 176.714 133.613 175.51 133.088C174.306 132.564 173.431 133.823 173.541 134.453C173.65 135.188 176.058 137.603 176.058 137.603L176.167 137.182Z" fill="#FEBD96"/>
<path d="M191.819 145.897L161.721 156.92C161.721 156.92 158 157.655 157.014 167.418C156.139 177.182 155.373 209.622 155.373 209.622V210.672L162.815 210.777L166.537 176.237L184.267 155.45L198.714 146.736L191.819 145.897Z" fill="#DE051F"/>
<path d="M213.38 148.101L198.823 146.841L168.069 161.643C168.069 161.643 159.75 166.368 165.113 174.977C170.476 183.585 185.252 209.726 185.252 209.726L190.396 206.052L177.262 170.883C177.262 170.883 176.933 169.098 181.311 168.782C185.361 168.467 204.734 166.683 207.251 166.473C207.47 166.473 207.689 166.368 207.908 166.368C209.44 165.843 215.35 163.008 213.49 153.035L213.271 148.836L213.38 148.101Z" fill="#EE384E"/>
<path d="M155.373 210.777L148.805 214.241C148.477 214.451 148.149 214.556 147.711 214.661C147.054 214.766 145.741 215.081 145.741 216.026C145.741 216.026 145.522 217.181 148.696 216.866C151.87 216.551 161.83 216.656 161.83 216.656C161.83 216.656 163.143 216.341 162.924 213.611L162.705 210.881L155.373 210.777Z" fill="#130452"/>
<path d="M185.251 209.726C185.251 209.726 185.143 211.406 183.501 213.61C182.515 214.87 181.53 216.026 180.546 217.285C180.326 217.6 179.998 217.81 179.779 218.23C179.669 218.44 179.56 218.755 179.56 218.964C179.56 219.175 179.56 219.49 179.888 219.7C180.217 219.91 180.765 219.805 181.202 219.7C181.311 219.7 181.421 219.595 181.53 219.595C184.047 218.755 191.709 212.666 193.351 211.406C193.57 211.196 193.679 210.986 193.679 210.776C193.679 210.251 193.57 209.202 192.913 208.466C191.928 207.312 190.396 206.157 190.396 206.157L185.251 209.726Z" fill="#130452"/>
<path d="M189.408 43.4375C188.585 44.587 187.761 45.6481 186.847 46.7091C186.664 46.886 186.664 47.0628 186.847 47.3281C187.212 48.0355 187.487 48.9197 187.853 49.6271C187.944 49.8039 188.036 49.8923 188.219 49.8923C189.774 50.0692 191.147 50.246 192.702 50.5113C192.702 51.6608 192.702 52.7218 192.702 53.9597C191.787 54.0482 190.781 54.225 189.866 54.3134C189.317 54.4018 188.676 54.4018 188.127 54.4903C188.036 54.4903 187.853 54.5787 187.853 54.6671C187.487 55.4629 187.121 56.3471 186.664 57.2313C186.664 57.3198 186.664 57.4966 186.755 57.585C187.487 58.5577 188.31 59.6187 189.042 60.503C189.134 60.5914 189.225 60.6798 189.225 60.7682C188.402 61.564 187.578 62.3598 186.664 63.244C186.664 63.244 186.481 63.1556 186.389 63.0672C185.383 62.3598 184.285 61.564 183.278 60.8566C183.187 60.7682 183.004 60.7682 182.821 60.8566C181.998 61.1219 181.083 61.564 180.259 61.8293C180.076 61.9177 179.985 62.0061 179.985 62.2714C179.802 63.5977 179.619 64.9241 179.436 66.3388C179.436 66.6041 179.344 66.6925 179.07 66.6925C178.155 66.6925 177.149 66.6925 176.325 66.6925C176.051 66.6925 175.959 66.6041 175.959 66.3388C175.776 65.0125 175.593 63.6861 175.41 62.3598C175.41 62.0946 175.319 62.0061 175.044 61.9177C174.221 61.6524 173.398 61.2103 172.483 60.9451C172.391 60.9451 172.208 60.9451 172.025 61.0335C171.019 61.7409 169.921 62.5367 169.006 63.244C168.915 63.3325 168.732 63.4209 168.64 63.5093C167.817 62.7135 166.993 61.9177 166.078 61.0335C166.902 59.884 167.725 58.9114 168.549 57.7619C168.732 57.4966 168.732 57.3198 168.549 57.0545C168.183 56.3471 167.908 55.5513 167.634 54.844C167.542 54.5787 167.451 54.4903 167.176 54.4903C165.804 54.3134 164.523 54.1366 163.151 53.9597C163.059 53.9597 162.876 53.9597 162.693 53.8713C162.693 52.7218 162.693 51.6608 162.693 50.4229C163.425 50.3344 164.249 50.246 164.981 50.1576C165.713 50.0692 166.536 49.9807 167.268 49.8923C167.359 49.8923 167.542 49.8039 167.542 49.6271C167.908 48.8313 168.274 47.947 168.732 47.1512C168.732 47.0628 168.732 46.886 168.64 46.7091C167.908 45.7365 167.085 44.6754 166.353 43.7912C166.261 43.7028 166.17 43.6144 166.17 43.5259C166.993 42.7302 167.817 41.8459 168.732 41.0501C169.738 41.7575 170.927 42.6417 172.117 43.4375C172.3 43.6144 172.483 43.6144 172.757 43.4375C173.489 43.0838 174.313 42.8186 175.044 42.5533C175.319 42.4649 175.41 42.3765 175.502 42.1112C175.685 40.7849 175.868 39.4585 176.051 38.1322C176.051 37.8669 176.142 37.8669 176.417 37.8669C177.332 37.8669 178.338 37.8669 179.253 37.8669C179.436 37.8669 179.527 37.8669 179.527 38.1322C179.71 39.4585 179.893 40.7849 180.076 42.1112C180.076 42.3765 180.259 42.5533 180.534 42.6417C181.266 42.907 182.089 43.2607 182.821 43.6144C183.004 43.7028 183.187 43.7028 183.37 43.6144C184.559 42.8186 185.657 41.9344 186.847 41.1386C187.761 41.7575 188.585 42.4649 189.408 43.4375ZM170.378 52.1029C170.378 55.9934 173.581 59.1766 177.606 59.1766C181.723 59.1766 184.925 56.0819 184.925 52.1913C184.925 48.2123 181.723 45.1175 177.698 45.1175C173.764 45.0291 170.378 48.2123 170.378 52.1029Z" stroke="#DE051F" stroke-width="0.775849" stroke-miterlimit="10"/>
<path d="M6.61938 27.0396L0 28.8267L1.8561 35.1998L8.47548 33.4127L6.61938 27.0396Z" fill="#ED3B4E"/>
</svg>
