<svg width="230" height="232" viewBox="0 0 230 232" fill="none" xmlns="http://www.w3.org/2000/svg">
<g clip-path="url(#clip0_2_2)">
<path d="M176.933 173.444C164.094 165.156 160.361 147.998 168.595 135.122C176.829 122.245 193.913 118.525 206.752 126.813C219.592 135.101 223.325 152.259 215.09 165.135C206.856 178.012 189.772 181.732 176.933 173.444Z" stroke="#DD1F26" stroke-width="0.468083" stroke-miterlimit="10" stroke-dasharray="1.87 1.87"/>
<path d="M217.086 151.079C215.393 149.986 214.901 147.723 215.986 146.025C217.072 144.327 219.325 143.837 221.018 144.93C222.711 146.023 223.204 148.286 222.118 149.984C221.032 151.682 218.78 152.172 217.086 151.079Z" fill="#24499F"/>
<path d="M219.355 149.596L217.792 146.863L220.756 146.94L219.355 149.596Z" fill="white"/>
<path d="M114.178 3.7018C114.178 3.7018 111.382 8.29685 115.449 8.42449C119.897 8.55213 121.803 9.95617 121.041 14.1683C120.151 18.5081 121.676 21.1885 123.837 21.6991C126.251 22.4649 130.954 23.2308 129.429 28.847C127.903 34.5908 125.616 45.5678 119.515 44.802C113.034 44.0362 107.442 35.7395 108.586 31.3998C109.73 27.06 113.034 24.8901 109.857 21.1885C106.806 17.3593 103.629 20.9332 101.977 16.0829C100.325 11.1049 97.9102 6.38224 104.265 2.55303C109.221 -0.510338 114.813 0.893707 114.178 3.7018Z" stroke="#1C4599" stroke-width="0.326921" stroke-miterlimit="10"/>
<path d="M109.731 8.42432C109.731 8.42432 120.279 39.058 124.728 46.3335" stroke="#1C4599" stroke-width="0.326921" stroke-miterlimit="10"/>
<path d="M123.076 26.0383L119.136 33.5691L112.019 32.2927" stroke="#1C4599" stroke-width="0.326921" stroke-miterlimit="10"/>
<path d="M116.596 12.2534L112.91 17.1038L106.937 16.8485" stroke="#1C4599" stroke-width="0.326921" stroke-miterlimit="10"/>
<path d="M127.145 0.000289433C127.145 0.000289433 137.439 -0.127351 136.168 4.97826C134.77 10.0839 136.931 11.3603 139.218 12.2538C141.506 13.4025 146.335 13.6578 144.429 19.1463C142.523 24.6349 139.472 26.4219 140.616 29.3576C141.76 32.2933 142.523 44.9297 137.439 43.6533C132.228 42.3769 129.559 35.4843 129.178 32.1657C128.924 29.1023 124.857 26.4218 121.807 25.1454C118.63 23.869 115.579 20.0398 119.265 17.487C123.078 14.8066 123.332 9.95624 121.044 7.40343C118.884 5.10591 120.282 0.12793 127.145 0.000289433Z" fill="#FABD41"/>
<path d="M128.414 6.51001L136.547 47.8655" stroke="white" stroke-width="0.326921" stroke-miterlimit="10" stroke-linecap="round" stroke-linejoin="round"/>
<path d="M139.086 16.4658L131.842 23.3584L122.183 19.5292" stroke="white" stroke-width="0.326921" stroke-miterlimit="10" stroke-linecap="round" stroke-linejoin="round"/>
<path d="M85.0734 19.9126C85.0734 19.9126 80.3711 18.3809 81.8962 14.2964C83.1671 10.2119 89.1403 8.29731 91.4279 11.1054C93.7155 13.5306 92.6988 16.3387 95.4948 15.8281C98.2908 15.3175 106.043 15.5728 105.662 19.2744C105.408 23.2312 101.087 24.6353 104.391 28.4645C107.568 32.4213 116.592 30.2515 113.923 38.0375C111.508 45.6959 103.756 57.6941 94.9864 48.6317C86.4714 39.6968 98.4179 38.1652 90.2841 33.3148C82.1503 28.4645 86.9798 26.6775 87.7423 23.4865C88.3778 20.1679 85.0734 19.9126 85.0734 19.9126Z" fill="#EE384E"/>
<path d="M93.4648 21.3164C93.4648 21.3164 98.0401 33.5699 105.793 42.1218C113.545 50.6737 116.341 51.4395 116.341 51.4395" stroke="white" stroke-width="0.326921" stroke-miterlimit="10" stroke-linecap="round" stroke-linejoin="round"/>
<path d="M46.459 54.6239C45.446 56.0915 44.433 57.4462 43.3075 58.8009C43.0824 59.0267 43.0824 59.2524 43.3075 59.5911C43.7577 60.4943 44.0954 61.6232 44.5456 62.5263C44.6581 62.7521 44.7707 62.865 44.9958 62.865C46.9092 63.0908 48.5975 63.3165 50.5109 63.6552C50.5109 65.1228 50.5109 66.4775 50.5109 68.058C49.3854 68.1709 48.1473 68.3967 47.0218 68.5096C46.3464 68.6224 45.5586 68.6224 44.8832 68.7353C44.7707 68.7353 44.5456 68.8482 44.5456 68.9611C44.0954 69.9771 43.6451 71.1061 43.0824 72.235C43.0824 72.3479 43.0824 72.5737 43.1949 72.6865C44.0954 73.9284 45.1084 75.283 46.0088 76.412C46.1213 76.5249 46.2339 76.6378 46.2339 76.7506C45.2209 77.7667 44.2079 78.7827 43.0824 79.9116C43.0824 79.9116 42.8573 79.7987 42.7447 79.6858C41.5066 78.7827 40.156 77.7667 38.9179 76.8635C38.8053 76.7506 38.5802 76.7506 38.3551 76.8635C37.3421 77.2022 36.2166 77.7667 35.2036 78.1053C34.9785 78.2182 34.8659 78.3311 34.8659 78.6698C34.6408 80.3632 34.4157 82.0565 34.1906 83.8628C34.1906 84.2015 34.0781 84.3144 33.7404 84.3144C32.6149 84.3144 31.3768 84.3144 30.3638 84.3144C30.0261 84.3144 29.9136 84.2015 29.9136 83.8628C29.6885 82.1694 29.4634 80.4761 29.2382 78.7827C29.2382 78.444 29.1257 78.3311 28.788 78.2182C27.7751 77.8796 26.7621 77.3151 25.6365 76.9764C25.524 76.9764 25.2989 76.9764 25.0738 77.0893C23.8357 77.9924 22.485 79.0085 21.3595 79.9116C21.2469 80.0245 21.0218 80.1374 20.9093 80.2503C19.8963 79.2343 18.8833 78.2182 17.7578 77.0893C18.7707 75.6217 19.7837 74.3799 20.7967 72.9123C21.0218 72.5737 21.0218 72.3479 20.7967 72.0092C20.3465 71.1061 20.0088 70.09 19.6712 69.1869C19.5586 68.8482 19.4461 68.7353 19.1084 68.7353C17.4201 68.5096 15.8443 68.2838 14.156 68.058C14.0435 68.058 13.8184 68.058 13.5933 67.9451C13.5933 66.4775 13.5933 65.1228 13.5933 63.5423C14.4937 63.4294 15.5067 63.3165 16.4071 63.2037C17.3075 63.0908 18.3205 62.9779 19.221 62.865C19.3335 62.865 19.5586 62.7521 19.5586 62.5263C20.0088 61.5103 20.459 60.3814 21.0218 59.3653C21.0218 59.2524 21.0218 59.0267 20.9093 58.8009C20.0088 57.5591 18.9958 56.2044 18.0954 55.0755C17.9829 54.9626 17.8703 54.8497 17.8703 54.7368C18.8833 53.7208 19.8963 52.5918 21.0218 51.5758C22.2599 52.4789 23.7231 53.6079 25.1863 54.6239C25.4114 54.8497 25.6365 54.8497 25.9742 54.6239C26.8746 54.1723 27.8876 53.8336 28.788 53.495C29.1257 53.3821 29.2383 53.2692 29.3508 52.9305C29.5759 51.2371 29.801 49.5438 30.0261 47.8504C30.0261 47.5117 30.1387 47.5117 30.4763 47.5117C31.6019 47.5117 32.84 47.5117 33.9655 47.5117C34.1906 47.5117 34.3032 47.5117 34.3032 47.8504C34.5283 49.5438 34.7534 51.2371 34.9785 52.9305C34.9785 53.2692 35.2036 53.495 35.5413 53.6079C36.4417 53.9465 37.4547 54.3981 38.3551 54.8497C38.5802 54.9626 38.8053 54.9626 39.0304 54.8497C40.4936 53.8336 41.8443 52.7047 43.3075 51.6887C44.433 52.4789 45.446 53.3821 46.459 54.6239ZM23.0478 65.6873C23.0478 70.6545 26.9872 74.7186 31.9395 74.7186C37.0045 74.7186 40.9439 70.7674 40.9439 65.8002C40.9439 60.72 37.0045 56.7688 32.0521 56.7688C27.2123 56.6559 23.0478 60.72 23.0478 65.6873Z" stroke="#DE051F" stroke-width="0.753475" stroke-miterlimit="10"/>
<path d="M203.54 74.5918C202.643 75.8914 201.746 77.091 200.749 78.2906C200.55 78.4905 200.55 78.6905 200.749 78.9904C201.148 79.7901 201.447 80.7898 201.846 81.5895C201.945 81.7894 202.045 81.8894 202.244 81.8894C203.939 82.0893 205.434 82.2893 207.128 82.5892C207.128 83.8887 207.128 85.0883 207.128 86.4879C206.131 86.5878 205.035 86.7878 204.038 86.8877C203.44 86.9877 202.743 86.9877 202.145 87.0877C202.045 87.0877 201.846 87.1876 201.846 87.2876C201.447 88.1873 201.048 89.187 200.55 90.1866C200.55 90.2866 200.55 90.4865 200.65 90.5865C201.447 91.6861 202.344 92.8857 203.141 93.8854C203.241 93.9854 203.341 94.0853 203.341 94.1853C202.444 95.085 201.547 95.9847 200.55 96.9844C200.55 96.9844 200.351 96.8844 200.251 96.7844C199.155 95.9847 197.959 95.085 196.862 94.2853C196.763 94.1853 196.563 94.1853 196.364 94.2853C195.467 94.5852 194.47 95.085 193.573 95.3849C193.374 95.4849 193.274 95.5848 193.274 95.8847C193.075 97.3842 192.876 98.8837 192.676 100.483C192.676 100.783 192.577 100.883 192.278 100.883C191.281 100.883 190.184 100.883 189.287 100.883C188.988 100.883 188.889 100.783 188.889 100.483C188.689 98.9837 188.49 97.4842 188.291 95.9847C188.291 95.6848 188.191 95.5848 187.892 95.4849C186.995 95.185 186.098 94.6851 185.101 94.3852C185.002 94.3852 184.802 94.3852 184.603 94.4852C183.507 95.2849 182.311 96.1846 181.314 96.9844C181.214 97.0843 181.015 97.1843 180.915 97.2843C180.018 96.3846 179.121 95.4849 178.125 94.4852C179.022 93.1856 179.919 92.086 180.816 90.7864C181.015 90.4865 181.015 90.2866 180.816 89.9867C180.417 89.187 180.118 88.2873 179.819 87.4875C179.719 87.1876 179.62 87.0877 179.321 87.0877C177.826 86.8877 176.43 86.6878 174.935 86.4879C174.836 86.4879 174.636 86.4879 174.437 86.3879C174.437 85.0883 174.437 83.8887 174.437 82.4892C175.234 82.3892 176.131 82.2893 176.929 82.1893C177.726 82.0893 178.623 81.9894 179.42 81.8894C179.52 81.8894 179.719 81.7894 179.719 81.5895C180.118 80.6898 180.517 79.6901 181.015 78.7904C181.015 78.6905 181.015 78.4905 180.915 78.2906C180.118 77.191 179.221 75.9914 178.424 74.9917C178.324 74.8917 178.224 74.7918 178.224 74.6918C179.121 73.7921 180.018 72.7924 181.015 71.8927C182.111 72.6925 183.407 73.6921 184.703 74.5918C184.902 74.7918 185.101 74.7918 185.4 74.5918C186.198 74.192 187.095 73.8921 187.892 73.5922C188.191 73.4922 188.291 73.3922 188.39 73.0923C188.59 71.5928 188.789 70.0933 188.988 68.5938C188.988 68.2939 189.088 68.2939 189.387 68.2939C190.384 68.2939 191.48 68.2939 192.477 68.2939C192.676 68.2939 192.776 68.2939 192.776 68.5938C192.975 70.0933 193.175 71.5928 193.374 73.0923C193.374 73.3922 193.573 73.5922 193.872 73.6921C194.67 73.992 195.567 74.3919 196.364 74.7918C196.563 74.8917 196.763 74.8917 196.962 74.7918C198.258 73.8921 199.454 72.8924 200.749 71.9927C201.746 72.6925 202.643 73.4922 203.54 74.5918ZM182.809 84.3886C182.809 88.7871 186.297 92.3859 190.683 92.3859C195.168 92.3859 198.656 88.8871 198.656 84.4885C198.656 79.99 195.168 76.4912 190.782 76.4912C186.497 76.3912 182.809 79.99 182.809 84.3886Z" stroke="#0064E1" stroke-width="0.66721" stroke-miterlimit="10"/>
<path d="M184.253 28.342C187.01 28.342 189.375 30.8441 189.375 34.0881V219.405C189.375 221.485 187.689 223.172 185.608 223.172H35.7661C33.6856 223.172 31.9995 221.485 31.9995 219.405V34.0803C31.9995 30.9422 34.2124 28.4984 36.8521 28.342H184.253Z" fill="#FAFCFF" stroke="#0064B5" stroke-width="1.50695"/>
<path d="M36.8 27.5879H184.172C187.42 27.5879 190.057 30.2365 190.057 33.498V41.5421H30.9229V33.5056C30.9229 30.244 33.56 27.5955 36.8075 27.5955L36.8 27.5879Z" fill="#0064B5"/>
<path d="M56.4431 34.5576C56.4431 33.3392 55.4862 32.3555 54.3108 32.3555C53.9115 32.3555 53.5347 32.4765 53.2183 32.6733C53.4292 33.8992 53.9943 35.5792 55.4862 36.3964C56.0664 36.0029 56.4507 35.3294 56.4507 34.5576H56.4431Z" fill="#FD3359"/>
<path d="M53.2107 32.6733C52.5928 33.0593 52.1709 33.7555 52.1709 34.5576C52.1709 35.776 53.1278 36.7597 54.3032 36.7597C54.7327 36.7597 55.1396 36.6235 55.4787 36.3965C53.9868 35.5792 53.4217 33.8993 53.2107 32.6733Z" fill="#FF486F"/>
<path d="M50.3396 34.5576C50.3396 33.3392 49.3827 32.3555 48.2073 32.3555C47.8079 32.3555 47.4312 32.4765 47.1147 32.6733C47.3257 33.8992 47.8908 35.5792 49.3827 36.3964C49.9629 36.0029 50.3472 35.3294 50.3472 34.5576H50.3396Z" fill="white"/>
<path d="M47.1072 32.6733C46.4893 33.0593 46.0674 33.7555 46.0674 34.5576C46.0674 35.776 47.0243 36.7597 48.1997 36.7597C48.6367 36.7597 49.0361 36.6235 49.3751 36.3965C47.8833 35.5792 47.3182 33.8993 47.1072 32.6733Z" fill="white"/>
<path d="M44.2293 34.5573C44.2293 33.339 43.2724 32.3552 42.0969 32.3552C41.6976 32.3552 41.3209 32.4763 41.0044 32.6731C41.2154 33.899 41.7805 35.5789 43.2723 36.3962C43.8525 36.0027 44.2368 35.3292 44.2368 34.5573H44.2293Z" fill="#1CD324"/>
<path d="M41.0042 32.6731C40.3863 33.059 39.9644 33.7552 39.9644 34.5574C39.9644 35.7757 40.9213 36.7595 42.0967 36.7595C42.5262 36.7595 42.933 36.6233 43.2721 36.3962C41.7802 35.579 41.2151 33.899 41.0042 32.6731Z" fill="#1CD324"/>
<path d="M42.978 53.4363H97.228C98.7119 53.4363 99.9154 54.6389 99.9155 56.1228V84.905C99.9155 86.389 98.712 87.5925 97.228 87.5925H42.978C41.4942 87.5924 40.2915 86.3889 40.2915 84.905V56.1228C40.2916 54.639 41.4942 53.4364 42.978 53.4363Z" fill="#F8FBFF" stroke="#DBE9F8" stroke-width="0.653842"/>
<path d="M42.978 139.466H176.343C177.8 139.466 178.98 140.647 178.98 142.103V204.182C178.98 205.638 177.8 206.819 176.343 206.819H42.978C41.5218 206.819 40.3415 205.638 40.3413 204.182V142.103C40.3414 140.647 41.5217 139.466 42.978 139.466Z" stroke="#DBE9F8" stroke-width="0.753475"/>
<path d="M158.583 60.9544H110.86C110.072 60.9544 109.284 60.2771 109.284 59.3739C109.284 58.5837 109.959 57.7935 110.86 57.7935H158.808C159.596 57.7935 160.384 58.4708 160.384 59.3739C160.384 60.2771 159.596 60.9544 158.583 60.9544Z" fill="#DBE9F8"/>
<path d="M178.443 68.5216H110.181C109.733 68.5216 109.284 67.7648 109.284 67.0081C109.284 66.2514 109.733 65.4946 110.181 65.4946H178.443C178.892 65.4946 179.34 66.2514 179.34 67.0081C179.452 67.7648 179.004 68.5216 178.443 68.5216Z" fill="#DBE9F8"/>
<path d="M177.087 97.7876H42.2346C40.9808 97.7876 39.9644 98.804 39.9644 100.058C39.9644 101.312 40.9808 102.328 42.2346 102.328H177.087C178.341 102.328 179.357 101.312 179.357 100.058C179.357 98.804 178.341 97.7876 177.087 97.7876Z" fill="#DBE9F8"/>
<path d="M177.087 106.112H42.2346C40.9808 106.112 39.9644 107.128 39.9644 108.382C39.9644 109.636 40.9808 110.652 42.2346 110.652H177.087C178.341 110.652 179.357 109.636 179.357 108.382C179.357 107.128 178.341 106.112 177.087 106.112Z" fill="#DBE9F8"/>
<path d="M177.087 114.436H42.2346C40.9808 114.436 39.9644 115.452 39.9644 116.706C39.9644 117.96 40.9808 118.976 42.2346 118.976H177.087C178.341 118.976 179.357 117.96 179.357 116.706C179.357 115.452 178.341 114.436 177.087 114.436Z" fill="#DBE9F8"/>
<path d="M94.797 200.909C94.797 200.909 92.7055 200.02 92.8664 197.677C93.0272 195.254 94.2339 193.557 91.7401 194.284C89.1659 195.011 88.3615 195.254 86.5113 194.93C84.6611 194.526 83.1327 193.799 83.9371 196.142C84.7415 198.566 85.6264 200.505 83.6958 200.909C81.7651 201.313 79.754 199.859 79.5127 203.575C79.2714 207.292 82.2478 211.574 87.1548 211.654C91.9815 211.816 94.1534 209.796 94.1534 209.796C94.1534 209.796 95.4406 207.938 93.4295 207.453C91.4184 206.968 89.3268 206.161 90.3726 205.191C91.4184 204.221 94.797 204.141 94.797 204.141C94.797 204.141 99.0605 203.414 94.797 200.909Z" fill="#649CE8"/>
<path d="M72.595 201.555C72.9167 199.131 72.6754 197.435 68.251 196.788C63.8266 196.142 61.2524 198.808 61.0111 201.555C60.7697 204.302 64.5506 205.272 64.5506 205.272C64.5506 205.272 67.2857 206.08 65.9181 208.423C64.5506 210.846 63.9071 213.108 67.0444 213.512C70.1817 213.836 73.6407 213.028 75.5714 211.735C77.502 210.442 79.4327 207.211 77.2607 205.514C77.2607 205.514 76.6172 205.11 74.5256 204.948C72.3536 204.868 72.595 201.555 72.595 201.555Z" fill="#023E9F"/>
<path d="M88.1211 201.152C88.1211 201.152 84.4207 209.473 83.938 215.129" stroke="#023E9F" stroke-width="0.870463" stroke-miterlimit="10"/>
<path d="M67.7681 202.525C67.7681 202.525 74.2841 212.22 75.8125 215.451" stroke="#649CE8" stroke-width="0.870463" stroke-miterlimit="10"/>
<path d="M86.2694 214.482H71.3873C71.3873 214.482 69.7785 214.563 69.8589 216.825C69.9394 218.925 72.594 218.441 73.9615 218.441C75.3291 218.441 86.5912 218.441 86.5912 218.441C86.5912 218.441 88.4414 218.764 88.4414 216.663C88.361 214.643 87.7174 214.482 86.2694 214.482Z" fill="#0055A2"/>
<path d="M86.5117 218.44L84.2593 231.69H74.2843L72.595 221.753L86.5117 218.44Z" fill="#0055A2"/>
<path d="M86.5117 218.44L72.595 221.753L72.0319 218.44H86.5117Z" fill="#016AD3"/>
<path d="M80.1562 214.967C80.1562 214.967 79.4323 200.263 75.0079 191.052" stroke="#FABC43" stroke-width="0.870463" stroke-miterlimit="10"/>
<path d="M71.3885 185.801C71.3885 185.801 71.0667 190.325 75.4107 192.103C75.4107 192.103 76.376 188.225 71.3885 185.801Z" fill="#FABC43"/>
<path d="M77.9844 200.182C77.9844 200.182 76.3755 196.304 71.388 196.869C71.388 196.789 71.7902 200.667 77.9844 200.182Z" fill="#FABC43"/>
<path d="M79.5933 209.796C79.5933 209.796 78.7888 205.676 73.8013 205.272C73.8013 205.272 73.4795 209.069 79.5933 209.796Z" fill="#FABC43"/>
<path d="M79.8338 209.877C79.8338 209.877 79.2707 205.756 83.7755 203.656C83.7755 203.575 85.3844 207.13 79.8338 209.877Z" fill="#FABC43"/>
<path d="M77.9037 200.101C77.9037 200.101 76.7774 196.062 81.041 193.396C81.041 193.396 83.1325 196.708 77.9037 200.101Z" fill="#FABC43"/>
<path d="M191.761 225.749C191.761 225.749 195.338 225.929 198.021 225.929C200.615 225.929 204.818 226.468 204.818 226.468C204.818 226.468 205.891 226.468 205.98 227.815C206.07 229.162 206.07 229.701 206.07 229.701C206.07 229.701 206.159 231.318 204.907 231.318C203.655 231.318 195.606 232.216 193.818 232.216C192.029 232.216 190.688 232.576 190.688 231.318C190.598 230.061 190.509 225.66 191.761 225.749Z" fill="#160856"/>
<path d="M194.712 187.397C194.712 187.397 197.037 200.421 197.216 203.924C197.395 207.337 197.752 210.031 195.517 211.379C193.281 212.726 189.525 213.983 189.525 213.983L184.964 190.631V187.936L194.712 187.397Z" fill="#FDBD97"/>
<path d="M154.915 186.589C154.915 186.589 153.663 192.517 153.305 195.481C152.948 198.445 152.143 204.283 152.053 205.631C151.964 206.978 151.785 209.223 154.2 211.02C156.614 212.726 159.297 213.714 159.297 213.714L164.305 186.589H154.915Z" fill="#FDBD97"/>
<path d="M172.712 167.817C172.712 167.817 172.712 170.512 171.55 171.679C170.387 172.847 168.867 174.823 168.867 174.823C168.867 174.823 171.55 179.134 177.005 178.506C182.371 177.967 183.355 174.015 183.355 174.015C183.355 174.015 178.257 173.296 177.631 168.446C177.094 163.596 176.289 163.596 176.289 163.596L172.712 167.817Z" fill="#FDAE7D"/>
<path d="M168.777 157.039C168.777 157.039 168.956 163.236 171.907 168.086C174.769 172.937 178.257 170.242 179.688 167.727C181.029 165.212 184.696 157.039 183.981 154.883C183.176 152.728 172.533 151.74 172.533 151.74L168.777 157.039Z" fill="#FDBD97"/>
<path d="M182.46 160.542C182.46 160.542 183.98 159.374 183.98 160.542C183.98 161.71 183.175 163.416 182.281 163.686C181.297 163.865 181.476 163.326 181.744 162.518C181.923 161.71 182.46 160.542 182.46 160.542Z" fill="#FDBD97"/>
<path d="M169.225 163.057C169.672 163.236 170.119 163.326 170.119 162.697C170.119 161.53 169.314 159.823 168.42 159.554C167.436 159.374 167.615 159.913 167.883 160.721C167.973 160.991 168.062 161.26 168.151 161.619C168.33 162.158 168.867 162.877 169.225 163.057Z" fill="#FDBD97"/>
<path d="M169.045 159.913L168.866 157.937C168.866 157.937 170.566 158.117 172.533 156.231C172.533 156.231 176.289 157.129 179.33 156.769C182.549 156.5 183.891 155.602 183.891 155.602C183.891 155.602 183.354 159.284 182.818 160.362C182.818 160.362 184.338 159.733 184.964 157.937C185.501 156.231 185.411 154.344 185.411 154.344C185.411 154.344 187.558 152.638 188.094 150.662C188.094 150.662 182.281 149.315 180.582 148.147C178.883 146.979 177.899 146.171 177.899 146.171C177.899 146.171 175.216 144.644 172.533 146.71C169.85 148.866 168.062 150.033 168.062 153.716C167.972 153.805 165.468 157.308 169.045 159.913Z" fill="#160856"/>
<path d="M169.493 172.846C169.493 172.846 165.826 172.397 163.769 172.936C161.802 173.475 161.176 173.116 161.712 174.643C162.249 176.17 164.932 183.265 163.68 187.666C162.428 192.067 160.729 214.881 160.729 214.881C160.729 214.881 174.501 215.42 179.777 215.69C185.143 215.959 189.078 214.971 189.078 214.971C189.078 214.971 190.241 205.181 189.078 200.87C187.916 196.648 186.395 189.373 186.395 189.373C186.395 189.373 185.411 179.403 186.753 176.978C188.094 174.553 189.078 174.463 187.379 173.834C185.68 173.206 183.802 172.667 182.371 172.667C181.029 172.667 180.314 172.667 179.509 173.475C178.704 174.283 177.094 175.9 174.859 175.541C172.623 175.182 170.924 173.655 170.924 173.655C170.924 173.655 170.119 172.936 169.493 172.846Z" fill="#0181F7"/>
<path d="M162.964 173.655C162.964 173.655 161.712 173.027 159.834 174.643C157.777 176.44 156.346 180.212 155.631 182.547C154.915 184.883 154.468 187.218 154.468 187.218C154.468 187.218 157.062 188.565 159.834 188.655C162.517 188.745 164.306 188.924 164.306 188.924C164.306 188.924 165.468 181.829 165.2 178.685C164.842 175.541 164.395 174.464 162.964 173.655Z" fill="#023E9F"/>
<path d="M185.68 176.26C185.68 176.26 186.753 173.296 189.167 174.643C191.582 175.99 193.371 181.2 193.997 182.816C194.533 184.433 195.249 187.756 195.249 187.756C195.249 187.756 192.387 189.014 189.883 189.193C187.468 189.373 185.769 189.553 185.769 189.553C185.769 189.553 184.785 183.086 184.964 180.571C185.143 178.056 185.68 176.26 185.68 176.26Z" fill="#023E9F"/>
<path d="M165.736 216.947H184.249L174.679 219.911L165.736 216.947Z" fill="#BA0A28"/>
<path d="M149.281 211.648C149.281 211.648 183.086 222.247 190.509 224.852C190.509 224.852 192.923 225.48 193.013 226.738C193.102 227.995 192.834 229.792 192.566 230.69C192.297 231.588 191.493 232.307 190.151 232.037C188.81 231.768 158.493 225.66 146.509 222.516L143.11 221.439C143.11 221.439 140.606 220.271 141.053 217.217C141.501 214.163 143.736 211.379 145.346 211.199C146.956 211.109 149.281 211.648 149.281 211.648Z" fill="#EC384E"/>
<path d="M146.241 226.738C146.241 226.738 150.444 226.019 153.037 225.929C155.541 225.84 158.94 225.57 159.476 225.929C160.013 226.289 160.46 231.229 160.46 231.229C160.46 231.229 160.907 232.576 157.598 232.306C154.289 232.037 146.598 231.768 146.598 231.768C146.598 231.768 144.899 231.678 144.81 230.151C144.72 228.624 144.989 227.905 144.989 227.905C144.989 227.905 145.078 226.917 146.241 226.738Z" fill="#160856"/>
<path d="M166.363 222.427C166.363 222.427 186.842 216.139 194.176 213.984C201.509 211.828 205.533 209.852 207.948 213.265C210.273 216.678 210.094 220.54 207.411 221.618C204.728 222.696 183.354 227.726 174.501 229.522C165.647 231.319 159.834 232.486 159.029 232.127C158.224 231.768 157.33 229.163 157.509 227.726C157.688 226.289 157.777 225.75 159.476 225.031C161.176 224.223 166.363 222.427 166.363 222.427Z" fill="#DB061F"/>
<path d="M164.037 192.427H188.72C188.72 192.427 190.062 192.247 190.062 194.044C190.062 195.84 190.062 215.42 190.062 215.42C190.062 215.42 190.151 216.857 189.078 216.857C188.005 216.857 160.102 216.857 160.102 216.857C160.102 216.857 158.94 217.217 158.94 215.241C158.94 213.265 158.94 193.505 158.94 193.505C158.94 193.505 158.85 192.427 160.281 192.427C161.623 192.427 164.037 192.427 164.037 192.427Z" fill="#0064B5"/>
<path d="M176.021 204.553L174.232 203.115L172.801 204.912L174.59 206.349L176.021 204.553Z" fill="#579CD2"/>
<path d="M30.0703 145.15L32.9007 145.049V226.909L26.7519 227.01L23.3359 173.553L30.0703 145.15Z" fill="#003EB0"/>
<path d="M16.4998 145.15C16.4998 145.15 16.4022 147.889 16.207 149.208C16.1094 149.918 12.303 156.308 15.231 164.017C15.231 164.119 15.231 164.322 15.3286 164.626C15.3286 166.351 15.9142 177.103 13.767 182.479L2.64062 220.315L6.93502 223.663C6.93502 223.663 21.4774 191 21.8678 189.478C22.2582 188.058 31.823 156.004 30.359 147.077L29.9686 145.353L16.4998 145.15Z" fill="#0064E1"/>
<path d="M66.3764 136.122C66.3764 136.122 63.2532 135.209 61.8868 136.122C60.7156 137.035 57.7876 137.542 57.202 137.542C57.1044 137.542 57.1044 137.542 57.1044 137.542V137.847C56.3236 137.745 55.25 137.644 54.0788 137.542C50.6628 137.137 46.3684 136.528 45.1972 135.818C42.6596 134.195 38.0724 127.5 34.4612 123.341C34.3636 123.138 34.0708 122.935 33.9732 122.733C33.8756 122.631 33.778 122.53 33.5828 122.327C33.5828 122.327 33.5828 122.327 33.4852 122.225C33.3876 122.124 33.29 122.022 33.0948 121.82C32.5092 121.211 31.2404 120.298 31.2404 120.298C30.7524 119.892 30.2644 119.892 29.874 120.095C29.874 120.095 29.386 120.602 28.898 121.515C28.8004 121.617 28.8004 121.921 28.7028 122.124C28.7028 122.225 28.6052 122.327 28.6052 122.53C28.41 123.24 28.1172 124.457 28.1172 125.674C28.1172 126.587 28.8004 126.587 29.2884 127.804C29.2884 127.804 39.146 138.861 43.538 140.383C47.93 141.904 53.5908 141.397 53.5908 141.397C55.25 141.093 56.8116 140.687 57.7876 140.484C58.7636 140.383 60.4228 140.281 61.9844 140.281C64.4244 140.383 65.3028 138.354 65.986 137.644C66.6692 136.731 66.3764 136.122 66.3764 136.122Z" fill="#FDBD97"/>
<path d="M29.1875 120.501C29.1875 123.24 31.2371 131.05 31.7251 130.036C32.2131 128.92 34.2627 124.356 35.3363 124.254C35.3363 124.153 31.3347 119.487 31.1395 119.487C31.1395 119.588 30.0659 119.892 29.1875 120.501Z" fill="#EE384E"/>
<path d="M29.6838 117.255C29.6838 117.255 33.8806 121.617 34.271 123.95C34.9542 126.283 33.5878 129.732 33.1974 130.949C32.9046 131.963 33.0998 146.063 33.0998 146.063H16.5078V117.154L29.6838 117.255Z" fill="#DE051F"/>
<path d="M39.1508 104.17C39.1508 104.17 38.858 107.618 38.0772 109.647V111.27C38.0772 111.372 37.9796 111.575 37.7844 111.575L36.8084 111.473V112.792C36.8084 112.893 36.7108 113.096 36.5156 113.096H35.6372C35.5396 113.096 35.3444 113.197 35.3444 113.4L35.442 114.11C35.442 114.212 35.442 114.415 35.1492 114.415C34.466 114.516 33.2948 114.719 31.8308 113.502C30.2692 112.386 29.2932 112.893 29.2932 114.11C29.2932 115.125 30.1716 118.371 28.7076 119.182C27.634 119.892 24.1204 119.487 23.4372 118.574C22.5588 117.661 23.4372 115.632 24.5108 114.516C25.3892 113.603 26.4628 104.17 28.4148 103.155C30.3668 102.851 39.1508 104.17 39.1508 104.17Z" fill="#FBBC98"/>
<path d="M32.8987 226.909C32.8987 226.909 36.8027 228.937 38.4619 229.546C39.7307 229.85 40.0235 230.865 40.1211 231.27C40.1211 231.372 40.1211 231.575 40.0235 231.575H26.5547V226.909H32.8987Z" fill="#221D56"/>
<path d="M6.84166 223.257C6.84166 223.257 7.81766 226.706 10.0625 228.734C12.3073 230.763 9.96486 232.183 9.96486 232.183L0.302459 225.387C0.204859 225.083 -0.380741 224.068 0.400059 223.054C1.08326 221.938 2.74246 220.315 2.74246 220.315L6.84166 223.257Z" fill="#221D56"/>
<path d="M8.7909 140.281C9.7669 133.891 12.4997 125.776 12.4997 125.776C13.0853 124.66 13.6709 123.646 14.3541 122.834C14.4517 122.631 14.7445 122.327 14.9397 122.124C15.0373 122.023 15.1349 121.921 15.3301 121.718C16.5013 121.82 19.0389 122.327 20.9909 124.66C20.9909 124.761 20.9909 124.863 20.8933 125.066C20.2101 127.602 18.9413 130.848 17.7701 133.992C17.1845 135.615 16.4037 137.34 15.8181 139.064C15.4277 139.977 15.1349 140.991 14.8421 141.701C14.2565 143.324 13.8661 144.643 13.6709 145.556C13.5733 146.165 13.6709 147.28 14.0613 148.701C14.5493 151.135 15.6229 154.482 16.5989 157.221C16.9893 158.337 17.2821 159.453 17.6725 160.366C17.9653 161.482 18.2581 162.395 18.2581 162.395L16.2085 163.815C16.2085 163.815 15.7205 163.206 14.8421 162.09C14.6469 161.887 14.4517 161.583 14.4517 161.583C13.8661 160.67 12.7925 158.439 12.7925 158.439C12.7925 158.439 7.5221 148.599 8.7909 140.281Z" fill="#FDBD97"/>
<path d="M19.14 132.471C17.0904 129.326 11.2344 127.906 11.2344 127.906C14.4552 117.052 23.1416 118.066 23.1416 118.066C23.1416 118.066 20.0184 129.326 19.14 132.471Z" fill="#EE384E"/>
<path d="M16.1094 163.713C16.1094 163.713 16.5974 164.423 16.695 165.133C16.695 165.64 17.183 167.669 17.8662 168.278C18.4518 168.886 20.0134 170.205 20.2086 169.901C20.3062 169.698 21.087 168.278 20.4038 167.263C20.2086 166.858 19.8182 165.539 19.4278 165.235C18.9398 164.829 18.0614 162.293 18.0614 162.293L16.1094 163.713Z" fill="#FFB27B"/>
<path d="M18.1562 162.8C18.1562 162.8 19.7179 163.713 20.0107 164.322C20.2059 164.93 21.0843 166.351 20.9867 166.553C20.8891 166.655 19.5227 165.843 19.0347 164.93C18.6443 164.018 18.1562 162.8 18.1562 162.8Z" fill="#FFB27B"/>
<path d="M8.30992 125.167C7.43152 121.718 13.1899 117.154 13.1899 117.154C13.1899 117.154 15.8251 116.139 16.5083 112.792C17.0939 109.343 20.0219 108.43 21.3883 107.314C22.6571 106.198 23.6331 103.257 23.6331 103.257L23.7307 102.547C23.7307 102.547 25.9755 92.2 33.6859 94.8373C33.6859 94.8373 37.1995 96.156 38.7611 99.0977C38.7611 99.0977 43.9339 100.011 42.8603 104.17C41.8843 108.43 39.5419 105.793 39.5419 105.793C39.5419 105.793 38.5659 103.764 37.5899 105.083C36.5163 106.503 33.9787 107.517 33.1003 106.097C32.2219 104.677 30.7579 103.764 30.2699 105.793V106.807C30.2699 106.807 26.3659 111.879 26.0731 113.502C25.4875 115.226 24.7067 117.864 22.7547 118.878C20.9003 119.994 18.8507 124.558 17.8747 126.892C16.5083 129.529 9.38352 130.036 8.30992 125.167Z" fill="#1F1952"/>
</g>
<defs>
<clipPath id="clip0_2_2">
<rect width="230" height="232" fill="white"/>
</clipPath>
</defs>
</svg>
