<svg width="230" height="232" viewBox="0 0 230 232" fill="none" xmlns="http://www.w3.org/2000/svg">
<rect x="4" y="199" width="222" height="4" rx="2" fill="#DBDBDB"/>
<path fill-rule="evenodd" clip-rule="evenodd" d="M81.5528 199.082H194.399C200.534 199.082 205.555 194.061 205.555 187.926V120.99C205.555 117.577 204.002 114.514 201.57 112.462H201.604C200.376 111.494 198.989 110.628 197.641 109.762C193.853 107.322 162.576 89.3962 153.468 83.5647C140.824 75.4723 135.124 75.4637 122.484 83.5647C113.645 89.2299 82.0989 107.322 78.3107 109.762C76.967 110.628 75.5806 111.494 74.3477 112.462H74.3818C71.9503 114.514 70.3975 117.577 70.3975 120.99V187.926C70.3975 194.061 75.4184 199.082 81.5528 199.082Z" fill="#022C70"/>
<path d="M93.0449 67.0481H188.233C192.376 67.0481 195.733 70.3999 195.733 74.5413V168.892C195.733 175.944 189.96 181.714 182.911 181.714H92.7158C85.8137 181.538 80.2227 175.838 80.2227 168.896V79.8704C80.2228 72.8178 85.9924 67.0482 93.0449 67.0481Z" fill="white" stroke="#0064B7"/>
<path fill-rule="evenodd" clip-rule="evenodd" d="M137.978 199.082H194.399C200.534 199.082 205.555 194.061 205.555 187.926V120.99C205.555 120.717 205.546 120.444 205.525 120.175C205.555 120.721 205.742 127.402 197.863 132.324C189.643 137.461 137.978 165.714 137.978 165.714C137.978 165.714 86.3095 137.465 78.0933 132.324C70.2142 127.402 70.4019 120.721 70.4317 120.175C70.4104 120.444 70.4019 120.717 70.4019 120.99V187.926C70.4019 194.061 75.4228 199.082 81.5572 199.082H137.978Z" fill="#0064B5"/>
<path fill-rule="evenodd" clip-rule="evenodd" d="M122.484 152.161C113.645 157.826 82.0989 175.918 78.3107 178.358C74.5226 180.798 70.3975 183.238 70.3975 187.926C70.3975 194.061 75.4184 199.082 81.5528 199.082H194.399C200.534 199.082 205.555 194.061 205.555 187.926C205.555 183.238 201.43 180.798 197.641 178.358C193.853 175.918 162.576 157.992 153.468 152.161C140.824 144.068 135.124 144.06 122.484 152.161Z" fill="#033E9F"/>
<path fill-rule="evenodd" clip-rule="evenodd" d="M92.4439 102.1H186.776C187.275 102.1 187.681 102.506 187.681 103.005C187.681 103.504 187.275 103.909 186.776 103.909H92.4439C91.9448 103.909 91.5396 103.504 91.5396 103.005C91.5396 102.506 91.9448 102.1 92.4439 102.1Z" fill="#E8F0FD"/>
<path fill-rule="evenodd" clip-rule="evenodd" d="M92.4439 109.809H186.776C187.275 109.809 187.681 110.214 187.681 110.713C187.681 111.212 187.275 111.618 186.776 111.618H92.4439C91.9448 111.618 91.5396 111.212 91.5396 110.713C91.5396 110.218 91.9448 109.809 92.4439 109.809Z" fill="#E8F0FD"/>
<path fill-rule="evenodd" clip-rule="evenodd" d="M123.414 117.517H186.776C187.275 117.517 187.68 117.923 187.68 118.422C187.68 118.921 187.275 119.326 186.776 119.326H123.414C122.915 119.326 122.51 118.921 122.51 118.422C122.51 117.927 122.915 117.517 123.414 117.517Z" fill="#E8F0FD"/>
<path fill-rule="evenodd" clip-rule="evenodd" d="M128.559 125.226H186.776C187.275 125.226 187.681 125.631 187.681 126.13C187.681 126.629 187.275 127.035 186.776 127.035H128.559C128.06 127.035 127.655 126.629 127.655 126.13C127.655 125.631 128.06 125.226 128.559 125.226Z" fill="#E8F0FD"/>
<path fill-rule="evenodd" clip-rule="evenodd" d="M123.303 132.934H186.776C187.275 132.934 187.68 133.34 187.68 133.839C187.68 134.338 187.275 134.743 186.776 134.743H123.303C122.804 134.743 122.399 134.338 122.399 133.839C122.399 133.34 122.804 132.934 123.303 132.934Z" fill="#E8F0FD"/>
<path fill-rule="evenodd" clip-rule="evenodd" d="M178.427 96.239C183.521 96.239 187.676 92.084 187.676 86.9905C187.676 81.8969 183.521 77.7419 178.427 77.7419C173.334 77.7419 169.179 81.8969 169.179 86.9905C169.179 92.084 173.334 96.239 178.427 96.239Z" fill="#0064B5"/>
<path fill-rule="evenodd" clip-rule="evenodd" d="M173.645 93.0565C174.959 94.0974 176.623 94.716 178.427 94.716C180.232 94.716 181.895 94.0932 183.209 93.0565C183.124 90.497 181.004 88.428 178.427 88.428C175.846 88.428 173.726 90.497 173.645 93.0565ZM178.427 80.4124C176.529 80.4124 174.993 81.9524 174.993 83.8507C174.993 85.749 176.533 87.2848 178.427 87.2848C180.321 87.2848 181.861 85.7448 181.861 83.8507C181.861 81.9566 180.321 80.4124 178.427 80.4124Z" fill="white"/>
<path fill-rule="evenodd" clip-rule="evenodd" d="M163.889 81.7305H146.092C145.563 81.7305 145.132 82.1613 145.132 82.6903C145.132 83.2193 145.563 83.6501 146.092 83.6501H163.889C164.418 83.6501 164.849 83.2193 164.849 82.6903C164.849 82.1613 164.418 81.7305 163.889 81.7305Z" fill="#E8F0FD"/>
<path fill-rule="evenodd" clip-rule="evenodd" d="M163.889 85.9536H153.809C153.28 85.9536 152.849 86.3845 152.849 86.9134C152.849 87.4424 153.28 87.8733 153.809 87.8733H163.889C164.418 87.8733 164.849 87.4424 164.849 86.9134C164.849 86.3845 164.418 85.9536 163.889 85.9536Z" fill="#E8F0FD"/>
<path fill-rule="evenodd" clip-rule="evenodd" d="M150.383 85.9536H148.911C148.383 85.9536 147.952 86.3845 147.952 86.9134C147.952 87.4424 148.383 87.8733 148.911 87.8733H150.383C150.912 87.8733 151.343 87.4424 151.343 86.9134C151.343 86.3845 150.912 85.9536 150.383 85.9536Z" fill="#E8F0FD"/>
<path fill-rule="evenodd" clip-rule="evenodd" d="M163.889 90.3347H156.155C155.626 90.3347 155.195 90.7656 155.195 91.2945C155.195 91.8235 155.626 92.2544 156.155 92.2544H163.889C164.418 92.2544 164.849 91.8235 164.849 91.2945C164.849 90.7656 164.418 90.3347 163.889 90.3347Z" fill="#E8F0FD"/>
<path d="M94.3849 74.9519H123.278C124.848 74.9519 126.123 76.2274 126.123 77.7973V94.8695C126.123 96.4394 124.848 97.7149 123.278 97.7149H94.3849C92.8151 97.7149 91.5396 96.4394 91.5396 94.8695V77.7973C91.5396 76.2274 92.8151 74.9519 94.3849 74.9519Z" fill="#E8F0FD"/>
<path fill-rule="evenodd" clip-rule="evenodd" d="M116.815 85.4675C116.815 86.406 116.666 87.2677 116.363 88.0441C116.064 88.8205 115.642 89.4305 115.096 89.8785C114.546 90.3221 113.91 90.5439 113.189 90.5439C112.707 90.5439 112.28 90.4288 111.909 90.1941C111.538 89.9638 111.274 89.6566 111.107 89.2812H110.949C110.246 90.1216 109.35 90.5439 108.262 90.5439C107.106 90.5439 106.197 90.1941 105.532 89.5031C104.866 88.8077 104.534 87.8607 104.534 86.6577C104.534 85.2841 104.969 84.1749 105.843 83.3388C106.718 82.4984 107.857 82.0761 109.264 82.0761C109.823 82.0761 110.442 82.1315 111.12 82.2382C111.794 82.3448 112.349 82.4728 112.788 82.6264L112.566 87.4042C112.566 88.3086 112.814 88.7608 113.309 88.7608C113.727 88.7608 114.059 88.4579 114.307 87.8479C114.554 87.2421 114.682 86.4444 114.682 85.459C114.682 84.4095 114.46 83.4881 114.025 82.6818C113.586 81.8756 112.976 81.2656 112.182 80.839C111.389 80.4166 110.485 80.2033 109.469 80.2033C108.151 80.2033 107.008 80.4721 106.039 81.0139C105.067 81.5556 104.32 82.3363 103.804 83.3516C103.288 84.3712 103.028 85.5485 103.028 86.8838C103.028 88.6797 103.51 90.0619 104.47 91.0217C105.429 91.9816 106.824 92.4593 108.65 92.4593C109.341 92.4593 110.096 92.3868 110.924 92.2332C111.751 92.0797 112.571 91.8578 113.368 91.5635V93.4405C111.973 94.0335 110.425 94.3321 108.723 94.3321C106.248 94.3321 104.316 93.6837 102.93 92.3783C101.543 91.0772 100.852 89.2642 100.852 86.9435C100.852 85.3353 101.206 83.872 101.914 82.5624C102.622 81.2485 103.625 80.2204 104.935 79.4739C106.244 78.7273 107.746 78.3562 109.448 78.3562C110.881 78.3562 112.165 78.6506 113.287 79.235C114.418 79.8194 115.288 80.6555 115.902 81.7348C116.512 82.8184 116.819 84.064 116.819 85.476L116.815 85.4675ZM106.803 86.6875C106.803 88.0612 107.362 88.748 108.484 88.748C109.072 88.748 109.52 88.5432 109.823 88.1252C110.13 87.7114 110.318 87.0416 110.382 86.1116L110.51 83.9531C110.177 83.8848 109.802 83.8464 109.384 83.8464C108.565 83.8464 107.933 84.0981 107.481 84.6058C107.029 85.1134 106.799 85.8088 106.799 86.6875H106.803Z" fill="#FCBE42"/>
<path fill-rule="evenodd" clip-rule="evenodd" d="M206.878 160.887C210.075 164.785 211.406 168.103 210.406 170.451C208.733 174.381 200.987 174.607 189.814 171.798C179.016 169.084 164.843 163.597 149.859 155.988C141.61 151.801 133.973 147.398 127.295 143.079C123.502 140.628 120.022 138.196 116.908 135.844C115.963 135.137 115.879 134.088 116.203 133.742C116.53 133.396 117.167 133.702 117.167 133.702C120.425 136.202 124.124 138.796 128.186 141.426C134.813 145.714 142.4 150.084 150.597 154.248C165.465 161.801 179.514 167.241 190.203 169.927C200.521 172.521 207.537 172.632 208.81 169.644C209.413 168.226 208.693 166.176 206.864 163.669C206.871 163.518 206.875 163.367 206.875 163.212V160.887H206.878Z" fill="#111111"/>
<path fill-rule="evenodd" clip-rule="evenodd" d="M115.676 126.126L109.819 139.598L88.3911 115.551L115.616 122.982L115.676 126.126Z" fill="#E89E0A"/>
<path fill-rule="evenodd" clip-rule="evenodd" d="M109.819 139.597L101.556 130.323C101.714 129.227 101.705 127.947 101.705 127.947L110.092 130.477L109.823 139.597H109.819Z" fill="#B87C03"/>
<path fill-rule="evenodd" clip-rule="evenodd" d="M88.3911 115.551L124.34 122.679L115.676 126.126L88.3911 115.551Z" fill="#FCBE42"/>
<path fill-rule="evenodd" clip-rule="evenodd" d="M88.3911 115.551L98.7616 139.828L110.088 130.477L88.3911 115.551Z" fill="#FCBE42"/>
<path d="M43.8537 82.9457L82.6326 90.3385C84.1633 90.6359 85.6516 89.6162 85.9492 88.0867L95.3888 38.7585C95.6864 37.2289 94.6659 35.7419 93.1352 35.4445L54.3563 28.0516C52.8256 27.7542 51.3374 28.7739 51.0397 30.3034L41.6001 79.6316C41.3025 81.1612 42.323 82.6483 43.8537 82.9457Z" fill="#0374CF"/>
<g opacity="0.3">
<path d="M84.1633 88.6387C84.2059 88.6387 84.2484 88.6387 84.2484 88.5962C84.3334 88.5538 84.3759 88.4263 84.3334 88.2988L53.0382 29.8358C52.9957 29.7508 52.8681 29.7083 52.7405 29.7508C52.6555 29.7933 52.613 29.9208 52.6555 30.0482L83.9507 88.5113C83.9933 88.5962 84.0783 88.6387 84.1633 88.6387Z" fill="white"/>
<path d="M43.216 80.8214C43.2586 80.8214 43.3011 80.8214 43.3436 80.7789L93.9432 37.9088C94.0283 37.8239 94.0283 37.6964 93.9857 37.6114C93.9007 37.5264 93.7731 37.5264 93.6881 37.5689L43.0885 80.439C43.0034 80.524 43.0034 80.6514 43.046 80.7364C43.0885 80.8214 43.131 80.8214 43.216 80.8214Z" fill="white"/>
</g>
<path d="M34.7468 121.918L26.0853 193.96L19.8985 193.341L19.0049 120.045L34.7468 121.918Z" fill="#EE384E"/>
<path d="M25.3125 121.918L41.57 193.96L47.774 193.341L43.512 120.045L25.3125 121.918Z" fill="#DE051F"/>
<path d="M37.0324 68.668C37.0324 68.668 38.8712 71.0138 38.9657 75.1985C39.0517 79.3832 38.5275 82.3734 36.7402 82.4078C34.9529 82.4422 31.344 81.3251 30.7167 80.1479C30.0894 78.9707 28.9036 78.9879 28.8435 76.6077C28.7919 74.2189 31.6533 68.7797 34.0421 68.7281C36.4395 68.6937 37.0324 68.668 37.0324 68.668Z" fill="#FFBE9B"/>
<path d="M29.7528 76.8904C29.7528 76.8904 29.2201 79.8807 28.0858 82.8967C26.9602 85.9042 26.3931 87.1158 26.3931 87.1158C26.3931 87.1158 30.0708 91.2145 33.6368 90.5443C37.2028 89.8741 37.1512 87.4853 37.1512 87.4853C37.1512 87.4853 33.8086 84.8731 33.7313 81.2899C33.654 77.7153 33.654 77.7153 33.654 77.7153L29.7528 76.8904Z" fill="#FEBE9A"/>
<path d="M38.828 68.6331C38.828 68.6331 40.5122 63.8212 39.3006 63.2541C38.089 62.6783 35.7346 63.9243 35.1503 64.543C34.566 65.1531 33.3802 65.1788 32.7701 65.1874C32.7701 65.1874 26.8067 65.3163 25.6381 66.5365C24.4695 67.7567 24.4781 68.3496 24.4953 68.9511C24.5038 69.544 24.5554 71.8812 23.9883 73.1443C23.7391 73.6857 23.4555 76.1346 24.7015 78.5062C25.9474 80.8606 27.159 81.4364 27.7519 81.4278C28.3448 81.4192 28.8948 81.402 28.9291 80.8005C28.9807 80.156 29.1955 79.2452 29.4705 78.4031C29.7368 77.604 30.0118 76.0057 30.0118 76.0057C30.0118 76.0057 30.5446 73.0154 31.7046 71.7867C32.8646 70.5579 32.8732 70.5665 35.2448 69.9135C37.625 69.2518 38.2695 70.4376 38.828 68.6331Z" fill="#160C56"/>
<path d="M30.8706 73.1707C31.7814 74.1674 30.6214 75.9805 30.6214 75.9805C30.6214 75.9805 28.8513 76.6164 28.8083 74.8205C28.774 73.0332 29.9684 72.1653 30.8706 73.1707Z" fill="#FFBE9B"/>
<path d="M46.2154 93.0779L51.6811 100.909C51.6811 100.909 52.0709 101.321 52.4606 100.909C52.8504 100.496 59.4768 91.8323 59.8666 90.5959C60.2564 89.3595 59.8666 88.1231 61.0359 86.0532C62.2053 83.9833 63.3747 83.159 63.3747 83.159C63.3747 83.159 64.544 82.3348 64.1542 83.5712C63.7645 84.8076 63.3747 86.044 64.1542 86.4653C64.9338 86.8866 71.1704 88.1139 71.1704 88.1139C71.1704 88.1139 64.9252 90.1746 63.3573 92.6566C61.7982 95.1295 57.5019 103.381 55.5443 105.442C53.5953 107.503 51.6378 108.748 50.4684 107.503C49.299 106.266 41.4946 98.0145 41.4946 98.0145L46.2154 93.0779Z" fill="#FFBE9B"/>
<path d="M42.9265 79.5547C42.9265 79.5547 40.2112 81.4881 39.8245 83.43C39.4378 85.3634 37.8911 88.4654 37.8911 88.4654L39.4378 90.3988C39.4378 90.3988 42.5398 88.0787 44.4732 86.9101C46.4066 85.7415 49.8952 84.1948 49.8952 84.1948L42.9351 82.6481C42.9351 82.6481 42.5484 81.4881 42.9351 80.7147C43.3217 79.9414 42.9265 79.5547 42.9265 79.5547Z" fill="#FFBE9B"/>
<path d="M19.9064 198.05C19.9064 198.05 19.5627 199.02 21.5734 199.012C23.5841 198.995 34.5056 198.9 34.5056 198.9C34.5056 198.9 36.6022 198.462 34.6516 197.534C32.7011 196.606 26.8494 194.037 26.8494 194.037C26.8494 194.037 26.4026 193.916 26.4026 192.799L19.7861 192.859L19.9064 198.05Z" fill="#170856"/>
<path d="M41.2409 198.05C41.2409 198.05 40.8972 199.02 42.9079 199.012C44.9186 198.995 55.84 198.9 55.84 198.9C55.84 198.9 57.9367 198.462 55.9861 197.534C54.0355 196.615 48.1839 194.037 48.1839 194.037C48.1839 194.037 47.737 193.916 47.737 192.799L41.1206 192.859L41.2409 198.05Z" fill="#170856"/>
<path d="M35.1413 85.9562C35.1413 85.9562 35.7857 85.4235 36.5247 86.0164C37.2637 86.6007 39.8501 88.5169 41.1132 90.9658C42.3678 93.4234 42.806 96.8347 43.2357 104.792C43.6739 112.757 43.6051 121.367 43.6051 121.367L18.9353 121.908C18.9353 121.908 18.1534 107.421 20.482 98.5189C22.8106 89.6168 26.2907 86.5234 27.0641 86.1367C27.8374 85.75 28.6108 86.5234 28.6108 86.5234C28.6108 86.5234 32.0049 89.634 35.1413 85.9562Z" fill="#0083F9"/>
<path d="M47.5749 94.2656C47.5749 94.2656 44.0863 89.2303 40.2281 87.6836C36.37 86.1369 34.4194 89.2303 36.3528 92.3323C38.2861 95.4342 41.7748 99.6791 41.7748 99.6791L47.5749 94.2656Z" fill="#0064B7"/>
</svg>
