<svg width="411" height="303" viewBox="0 0 411 303" fill="none" xmlns="http://www.w3.org/2000/svg">
<path d="M254.046 223.234C238.347 212.818 233.797 191.232 243.884 175.02C253.97 158.808 274.874 154.109 290.574 164.525C306.273 174.941 310.823 196.527 300.736 212.739C290.65 228.951 269.746 233.65 254.046 223.234Z" stroke="#DD1F26" stroke-width="0.715896" stroke-miterlimit="10" stroke-dasharray="2.86 2.86"/>
<path d="M303.195 195.078C301.125 193.704 300.525 190.858 301.855 188.72C303.185 186.582 305.942 185.963 308.012 187.336C310.082 188.71 310.682 191.556 309.352 193.694C308.022 195.832 305.266 196.451 303.195 195.078Z" fill="#24499F"/>
<path d="M305.972 193.209L304.062 189.773L307.69 189.866L305.972 193.209Z" fill="white"/>
<path d="M177.278 9.65731C177.278 9.65731 173.857 15.4384 178.833 15.599C184.276 15.7596 186.609 17.5261 185.676 22.8254C184.587 28.2854 186.453 31.6577 189.097 32.3C192.051 33.2635 197.805 34.2271 195.939 41.2929C194.073 48.5193 191.274 62.3297 183.809 61.3662C175.878 60.4027 169.036 49.9646 170.436 44.5046C171.835 39.0447 175.878 36.3147 171.991 31.6577C168.258 26.8401 164.371 31.3365 162.349 25.2342C160.327 18.9713 157.373 13.0296 165.148 8.21203C171.213 4.35795 178.056 6.1244 177.278 9.65731Z" stroke="#1C4599" stroke-width="0.5" stroke-miterlimit="10"/>
<path d="M171.836 15.5989C171.836 15.5989 184.744 54.1397 190.187 63.2931" stroke="#1C4599" stroke-width="0.5" stroke-miterlimit="10"/>
<path d="M188.165 37.7592L183.345 47.2338L174.636 45.6279" stroke="#1C4599" stroke-width="0.5" stroke-miterlimit="10"/>
<path d="M180.237 20.4164L175.727 26.5187L168.418 26.1975" stroke="#1C4599" stroke-width="0.5" stroke-miterlimit="10"/>
<path d="M193.144 5.00036C193.144 5.00036 205.74 4.83978 204.185 11.2632C202.474 17.6867 205.118 19.2926 207.917 20.4167C210.716 21.862 216.626 22.1831 214.293 29.0884C211.961 35.9936 208.228 38.2418 209.628 41.9353C211.027 45.6288 211.961 61.5269 205.74 59.921C199.364 58.3151 196.098 49.6434 195.632 45.4682C195.321 41.6141 190.345 38.2418 186.612 36.6359C182.725 35.0301 178.992 30.2125 183.502 27.0007C188.167 23.6284 188.478 17.5261 185.679 14.3144C183.036 11.4238 184.746 5.16095 193.144 5.00036Z" fill="#FABD41"/>
<path d="M194.697 13.1903L204.65 65.2204" stroke="white" stroke-width="0.5" stroke-miterlimit="10" stroke-linecap="round" stroke-linejoin="round"/>
<path d="M207.756 25.7159L198.892 34.3876L187.073 29.57" stroke="white" stroke-width="0.5" stroke-miterlimit="10" stroke-linecap="round" stroke-linejoin="round"/>
<path d="M141.665 30.0524C141.665 30.0524 135.911 28.1253 137.777 22.9865C139.333 17.8478 146.642 15.439 149.441 18.9719C152.24 22.023 150.996 25.5559 154.417 24.9136C157.838 24.2712 167.324 24.5924 166.858 29.2494C166.547 34.2276 161.259 35.9941 165.303 40.8117C169.19 45.7898 180.232 43.0599 176.966 52.8557C174.011 62.4909 164.525 77.586 153.795 66.1844C143.376 54.9433 157.994 53.0163 148.041 46.914C138.088 40.8117 143.998 38.5634 144.931 34.5488C145.708 30.3735 141.665 30.0524 141.665 30.0524Z" fill="#EE384E"/>
<path d="M151.933 31.8186C151.933 31.8186 157.531 47.2349 167.018 57.9942C176.504 68.7535 179.925 69.7171 179.925 69.7171" stroke="white" stroke-width="0.5" stroke-miterlimit="10" stroke-linecap="round" stroke-linejoin="round"/>
<path d="M94.4156 73.7232C93.1761 75.5696 91.9366 77.274 90.5593 78.9784C90.2839 79.2624 90.2839 79.5465 90.5593 79.9726C91.1102 81.1088 91.5234 82.5291 92.0743 83.6654C92.212 83.9494 92.3497 84.0915 92.6252 84.0915C94.9665 84.3755 97.0323 84.6596 99.3736 85.0857C99.3736 86.9321 99.3736 88.6365 99.3736 90.6249C97.9964 90.7669 96.4814 91.051 95.1042 91.193C94.2779 91.335 93.3138 91.335 92.4875 91.4771C92.3497 91.4771 92.0743 91.6191 92.0743 91.7611C91.5234 93.0394 90.9725 94.4597 90.2839 95.88C90.2839 96.0221 90.2839 96.3061 90.4216 96.4482C91.5234 98.0105 92.7629 99.7149 93.8647 101.135C94.0024 101.277 94.1401 101.419 94.1401 101.561C92.9006 102.84 91.6611 104.118 90.2839 105.538C90.2839 105.538 90.0084 105.396 89.8707 105.254C88.3558 104.118 86.7031 102.84 85.1881 101.703C85.0504 101.561 84.775 101.561 84.4995 101.703C83.26 102.129 81.8828 102.84 80.6433 103.266C80.3678 103.408 80.2301 103.55 80.2301 103.976C79.9547 106.106 79.6792 108.237 79.4038 110.509C79.4038 110.935 79.266 111.077 78.8529 111.077C77.4756 111.077 75.9607 111.077 74.7212 111.077C74.308 111.077 74.1703 110.935 74.1703 110.509C73.8948 108.379 73.6194 106.248 73.3439 104.118C73.3439 103.692 73.2062 103.55 72.7931 103.408C71.5536 102.982 70.314 102.271 68.9368 101.845C68.7991 101.845 68.5236 101.845 68.2482 101.987C66.7332 103.124 65.0806 104.402 63.7033 105.538C63.5656 105.68 63.2902 105.822 63.1524 105.964C61.9129 104.686 60.6734 103.408 59.2962 101.987C60.5357 100.141 61.7752 98.5786 63.0147 96.7322C63.2902 96.3061 63.2902 96.0221 63.0147 95.596C62.4638 94.4597 62.0506 93.1815 61.6375 92.0452C61.4998 91.6191 61.362 91.4771 60.9489 91.4771C58.883 91.193 56.9549 90.909 54.8891 90.6249C54.7513 90.6249 54.4759 90.6249 54.2004 90.4829C54.2004 88.6365 54.2004 86.9321 54.2004 84.9437C55.3022 84.8016 56.5417 84.6596 57.6435 84.5176C58.7453 84.3755 59.9848 84.2335 61.0866 84.0915C61.2243 84.0915 61.4998 83.9494 61.4998 83.6654C62.0507 82.3871 62.6015 80.9668 63.2902 79.6885C63.2902 79.5465 63.2902 79.2624 63.1524 78.9784C62.0507 77.416 60.8111 75.7116 59.7094 74.2913C59.5716 74.1493 59.4339 74.0073 59.4339 73.8652C60.6734 72.587 61.9129 71.1667 63.2902 69.8884C64.8051 71.0246 66.5955 72.4449 68.3859 73.7232C68.6614 74.0073 68.9368 74.0073 69.35 73.7232C70.4518 73.1551 71.6913 72.729 72.7931 72.3029C73.2062 72.1609 73.344 72.0188 73.4817 71.5928C73.7571 69.4623 74.0326 67.3318 74.308 65.2014C74.308 64.7753 74.4457 64.7753 74.8589 64.7753C76.2361 64.7753 77.7511 64.7753 79.1283 64.7753C79.4038 64.7753 79.5415 64.7753 79.5415 65.2014C79.8169 67.3318 80.0924 69.4623 80.3678 71.5928C80.3678 72.0188 80.6433 72.3029 81.0564 72.4449C82.1582 72.871 83.3977 73.4392 84.4995 74.0073C84.775 74.1493 85.0504 74.1493 85.3259 74.0073C87.1163 72.729 88.7689 71.3087 90.5593 70.0304C91.9366 71.0246 93.1761 72.1609 94.4156 73.7232ZM65.7692 87.6422C65.7692 93.8916 70.5895 99.0047 76.6493 99.0047C82.8469 99.0047 87.6672 94.0336 87.6672 87.7843C87.6672 81.3929 82.8468 76.4218 76.787 76.4218C70.8649 76.2798 65.7692 81.3929 65.7692 87.6422Z" stroke="#DE051F" stroke-width="1.15238" stroke-miterlimit="10"/>
<path d="M286.623 98.8453C285.526 100.48 284.428 101.989 283.209 103.499C282.965 103.75 282.965 104.002 283.209 104.379C283.696 105.385 284.062 106.643 284.55 107.649C284.672 107.901 284.794 108.026 285.038 108.026C287.111 108.278 288.941 108.53 291.014 108.907C291.014 110.542 291.014 112.051 291.014 113.812C289.794 113.938 288.453 114.189 287.233 114.315C286.501 114.441 285.648 114.441 284.916 114.566C284.794 114.566 284.55 114.692 284.55 114.818C284.062 115.95 283.574 117.208 282.965 118.465C282.965 118.591 282.965 118.843 283.087 118.968C284.062 120.352 285.16 121.861 286.136 123.119C286.258 123.245 286.379 123.37 286.379 123.496C285.282 124.628 284.184 125.76 282.965 127.018C282.965 127.018 282.721 126.892 282.599 126.766C281.257 125.76 279.794 124.628 278.452 123.622C278.33 123.496 278.087 123.496 277.843 123.622C276.745 123.999 275.525 124.628 274.428 125.005C274.184 125.131 274.062 125.257 274.062 125.634C273.818 127.521 273.574 129.407 273.33 131.42C273.33 131.797 273.208 131.923 272.842 131.923C271.623 131.923 270.281 131.923 269.184 131.923C268.818 131.923 268.696 131.797 268.696 131.42C268.452 129.533 268.208 127.647 267.964 125.76C267.964 125.383 267.842 125.257 267.476 125.131C266.379 124.754 265.281 124.125 264.062 123.748C263.94 123.748 263.696 123.748 263.452 123.873C262.11 124.88 260.647 126.012 259.427 127.018C259.305 127.143 259.061 127.269 258.94 127.395C257.842 126.263 256.744 125.131 255.525 123.873C256.622 122.238 257.72 120.855 258.818 119.22C259.061 118.843 259.061 118.591 258.818 118.214C258.33 117.208 257.964 116.076 257.598 115.07C257.476 114.692 257.354 114.566 256.988 114.566C255.159 114.315 253.452 114.063 251.622 113.812C251.5 113.812 251.256 113.812 251.012 113.686C251.012 112.051 251.012 110.542 251.012 108.781C251.988 108.655 253.086 108.53 254.061 108.404C255.037 108.278 256.135 108.152 257.11 108.026C257.232 108.026 257.476 107.901 257.476 107.649C257.964 106.517 258.452 105.26 259.061 104.128C259.061 104.002 259.061 103.75 258.94 103.499C257.964 102.115 256.866 100.606 255.891 99.3483C255.769 99.2226 255.647 99.0968 255.647 98.971C256.744 97.8391 257.842 96.5814 259.061 95.4495C260.403 96.4556 261.988 97.7133 263.574 98.8453C263.818 99.0968 264.062 99.0968 264.428 98.8453C265.403 98.3422 266.501 97.9649 267.476 97.5876C267.842 97.4618 267.964 97.336 268.086 96.9587C268.33 95.0722 268.574 93.1856 268.818 91.2991C268.818 90.9218 268.94 90.9218 269.306 90.9218C270.525 90.9218 271.867 90.9218 273.086 90.9218C273.33 90.9218 273.452 90.9218 273.452 91.2991C273.696 93.1856 273.94 95.0722 274.184 96.9587C274.184 97.336 274.428 97.5876 274.794 97.7133C275.769 98.0906 276.867 98.5937 277.843 99.0968C278.087 99.2226 278.33 99.2226 278.574 99.0968C280.16 97.9649 281.623 96.7072 283.209 95.5752C284.428 96.4556 285.526 97.4618 286.623 98.8453ZM261.257 111.171C261.257 116.705 265.525 121.232 270.891 121.232C276.379 121.232 280.648 116.83 280.648 111.296C280.648 105.637 276.379 101.235 271.013 101.235C265.769 101.109 261.257 105.637 261.257 111.171Z" stroke="#0064E1" stroke-width="1.02044" stroke-miterlimit="10"/>
<path d="M263.024 40.8622C266.22 40.8622 269.061 43.8666 269.061 47.8866V279.81C269.061 282.992 266.482 285.572 263.3 285.572H82.7146C79.5326 285.572 76.9531 282.992 76.9529 279.81V47.8768C76.9529 43.9914 79.6065 41.0547 82.6697 40.8622H263.024Z" fill="#FAFCFF" stroke="#0064B5" stroke-width="2.30476"/>
<path d="M82.5969 39.7089H262.924C266.898 39.7089 270.125 43.0411 270.125 47.1445V57.2649H75.4055V47.154C75.4055 43.0506 78.6324 39.7184 82.6061 39.7184L82.5969 39.7089Z" fill="#0064B5"/>
<path d="M106.633 48.4775C106.633 46.9447 105.462 45.707 104.023 45.707C103.535 45.707 103.074 45.8594 102.687 46.1069C102.945 47.6492 103.636 49.7628 105.462 50.7911C106.172 50.296 106.642 49.4486 106.642 48.4775H106.633Z" fill="#FD3359"/>
<path d="M102.677 46.1068C101.921 46.5924 101.405 47.4683 101.405 48.4775C101.405 50.0103 102.576 51.248 104.014 51.248C104.54 51.248 105.038 51.0766 105.452 50.791C103.627 49.7627 102.935 47.6492 102.677 46.1068Z" fill="#FF486F"/>
<path d="M99.1648 48.4775C99.1648 46.9447 97.9939 45.707 96.5556 45.707C96.067 45.707 95.606 45.8594 95.2188 46.1069C95.4769 47.6492 96.1684 49.7628 97.9939 50.7911C98.7038 50.296 99.174 49.4486 99.174 48.4775H99.1648Z" fill="white"/>
<path d="M95.2096 46.1068C94.4536 46.5924 93.9373 47.4683 93.9373 48.4775C93.9373 50.0103 95.1082 51.248 96.5464 51.248C97.0812 51.248 97.5698 51.0766 97.9847 50.791C96.1592 49.7627 95.4677 47.6492 95.2096 46.1068Z" fill="white"/>
<path d="M91.6877 48.4774C91.6877 46.9446 90.5168 45.7069 89.0785 45.7069C88.5899 45.7069 88.1289 45.8592 87.7417 46.1068C87.9998 47.6491 88.6913 49.7627 90.5168 50.7909C91.2267 50.2959 91.6969 49.4485 91.6969 48.4774H91.6877Z" fill="#1CD324"/>
<path d="M87.7416 46.1067C86.9855 46.5922 86.4692 47.4681 86.4692 48.4773C86.4692 50.0102 87.6401 51.2478 89.0784 51.2478C89.6039 51.2478 90.1018 51.0765 90.5167 50.7908C88.6912 49.7626 87.9997 47.649 87.7416 46.1067Z" fill="#1CD324"/>
<path d="M91.0786 72.3176H155.617C157.886 72.3176 159.726 74.1574 159.726 76.427V111.003C159.726 113.273 157.886 115.113 155.617 115.113H91.0786C88.8091 115.112 86.9693 113.273 86.9692 111.003V76.427C86.9693 74.1575 88.8091 72.3177 91.0786 72.3176Z" fill="#F8FBFF" stroke="#DBE9F8"/>
<path d="M91.0786 180.567H252.423C254.651 180.567 256.456 182.373 256.457 184.6V261.067C256.457 263.295 254.651 265.1 252.423 265.1H91.0786C88.8511 265.1 87.0454 263.295 87.0454 261.067V184.6C87.0455 182.373 88.8512 180.567 91.0786 180.567Z" stroke="#DBE9F8" stroke-width="1.15238"/>
<path d="M231.613 81.6879H173.218C172.254 81.6879 171.29 80.8357 171.29 79.6995C171.29 78.7053 172.116 77.7111 173.218 77.7111H231.888C232.852 77.7111 233.816 78.5632 233.816 79.6995C233.816 80.8357 232.852 81.6879 231.613 81.6879Z" fill="#DBE9F8"/>
<path d="M255.915 91.2084H172.387C171.839 91.2084 171.29 90.2563 171.29 89.3043C171.29 88.3522 171.839 87.4001 172.387 87.4001H255.915C256.463 87.4001 257.012 88.3522 257.012 89.3043C257.149 90.2563 256.6 91.2084 255.915 91.2084Z" fill="#DBE9F8"/>
<path d="M254.177 128.029H89.3254C87.748 128.029 86.4692 129.307 86.4692 130.885C86.4692 132.462 87.748 133.741 89.3254 133.741H254.177C255.754 133.741 257.033 132.462 257.033 130.885C257.033 129.307 255.754 128.029 254.177 128.029Z" fill="#DBE9F8"/>
<path d="M254.177 138.501H89.3254C87.748 138.501 86.4692 139.78 86.4692 141.357C86.4692 142.935 87.748 144.214 89.3254 144.214H254.177C255.754 144.214 257.033 142.935 257.033 141.357C257.033 139.78 255.754 138.501 254.177 138.501Z" fill="#DBE9F8"/>
<path d="M254.177 148.974H89.3254C87.748 148.974 86.4692 150.253 86.4692 151.83C86.4692 153.407 87.748 154.686 89.3254 154.686H254.177C255.754 154.686 257.033 153.407 257.033 151.83C257.033 150.253 255.754 148.974 254.177 148.974Z" fill="#DBE9F8"/>
<path d="M253.93 224.882C253.93 224.882 255.895 224.319 255.676 220.825C255.458 217.443 253.275 214.625 256.331 212.822C259.279 211.019 260.043 210.342 261.462 208.99C262.881 207.412 263.536 206.285 268.121 206.848C268.121 206.848 271.724 203.805 275.108 206.51C278.273 209.328 277.509 216.88 278.055 217.894C278.71 219.021 283.077 223.642 283.623 227.475C284.168 231.307 281.658 233.786 278.055 233.674C274.671 233.561 269.759 233.674 269.759 233.674H256.55C256.55 233.674 252.074 234.012 251.746 229.165C251.746 226.347 253.93 224.882 253.93 224.882Z" fill="#180857"/>
<path d="M264.846 230.631C264.846 230.631 264.846 233.561 263.646 234.688C262.445 235.928 260.917 237.957 260.917 237.957C260.917 237.957 263.646 242.578 268.995 241.789C274.235 241.225 275.217 237.055 275.217 237.055C275.217 237.055 270.196 236.492 269.541 231.194C268.995 226.122 268.121 226.122 268.121 226.122L264.846 230.631Z" fill="#FFB07E"/>
<path d="M267.575 232.208C270.831 232.208 273.47 227.364 273.47 221.388C273.47 215.412 270.831 210.568 267.575 210.568C264.32 210.568 261.68 215.412 261.68 221.388C261.68 227.364 264.32 232.208 267.575 232.208Z" fill="#FFBE9B"/>
<path d="M267.575 210.004C267.575 210.004 266.484 213.386 264.3 216.654C261.899 220.036 259.388 221.839 259.17 222.515C258.951 223.079 256.768 221.388 257.532 218.909C258.187 216.203 262.445 208.765 266.811 208.539C271.178 208.426 272.051 205.721 274.234 211.244C276.199 216.542 275.981 222.741 275.981 222.741L267.575 210.004Z" fill="#180857"/>
<path d="M261.79 220.148C261.79 220.148 259.388 219.81 259.17 221.275C258.951 222.853 259.825 224.093 261.79 224.319C263.864 224.769 261.79 220.148 261.79 220.148Z" fill="#FFBE9B"/>
<path d="M284.059 290.931C284.059 290.931 287.443 291.044 290.172 291.044C292.902 291.044 296.832 291.494 296.832 291.494C296.832 291.494 297.923 291.494 298.032 293.072C298.141 294.65 298.141 295.101 298.141 295.101C298.141 295.101 298.251 296.792 296.941 296.792C295.631 296.792 287.88 297.806 286.024 297.806C284.168 297.806 282.968 298.144 282.968 296.792C282.968 295.327 282.968 290.593 284.059 290.931Z" fill="black"/>
<path d="M287.116 250.468C287.116 250.468 289.518 264.218 289.627 267.712C289.736 271.206 290.064 274.024 287.88 275.602C285.806 277.18 282.094 278.42 282.094 278.42L277.51 254.074V251.144L287.116 250.468Z" fill="#FFBF99"/>
<path d="M247.817 249.791C247.817 249.791 246.616 255.99 246.179 259.034C245.961 262.077 244.978 268.276 244.978 269.741C244.869 271.319 244.76 273.348 247.053 275.377C249.345 277.406 252.074 278.307 252.074 278.307L256.987 249.791H247.817Z" fill="#FFBF99"/>
<path d="M262.008 235.252C262.008 235.252 258.405 234.801 256.331 235.365C254.366 235.815 253.711 235.477 254.366 237.168C254.803 238.859 257.532 246.298 256.331 250.919C255.13 255.653 253.384 279.435 253.384 279.435C253.384 279.435 266.92 279.885 272.16 280.111C277.291 280.449 281.221 279.435 281.221 279.435C281.221 279.435 282.422 269.065 281.221 264.669C280.02 260.048 278.492 252.609 278.492 252.609C278.492 252.609 277.618 242.127 278.71 239.535C280.129 236.83 281.112 236.83 279.256 236.266C277.509 235.703 275.872 235.026 274.344 235.026C272.924 235.026 272.379 235.026 271.396 235.703C270.741 236.379 268.885 238.408 266.811 237.844C264.409 237.506 262.881 235.815 262.881 235.815C262.881 235.815 262.772 235.477 262.008 235.252Z" fill="#FCBE42"/>
<path d="M255.567 236.266C255.567 236.266 254.367 235.702 252.511 237.28C250.546 239.084 249.127 243.141 248.144 245.621C247.489 248.101 246.943 250.58 246.943 250.58C246.943 250.58 249.563 252.158 252.074 252.158C254.803 252.271 256.55 252.496 256.55 252.496C256.55 252.496 257.751 244.945 257.423 241.676C257.423 238.069 257.096 237.055 255.567 236.266Z" fill="#F79F03"/>
<path d="M278.055 238.746C278.055 238.746 279.147 235.702 281.439 237.055C283.95 238.633 285.806 243.818 286.243 245.621C286.679 247.312 287.443 250.806 287.443 250.806C287.443 250.806 284.496 252.046 282.313 252.384C279.802 252.496 278.055 252.722 278.055 252.722C278.055 252.722 277.182 246.072 277.4 243.367C277.619 240.662 278.055 238.746 278.055 238.746Z" fill="#F79F03"/>
<path d="M258.515 281.463H276.854L267.248 284.506L258.515 281.463Z" fill="#004B89"/>
<path d="M242.14 275.94C242.14 275.94 275.435 286.986 282.749 289.804C282.749 289.804 285.26 290.367 285.26 291.833C285.26 293.072 285.151 295.101 284.824 296.003C284.605 297.017 283.732 297.694 282.313 297.581C280.894 297.243 251.201 290.931 239.302 287.775L236.027 286.648C236.027 286.648 233.516 285.408 234.062 282.027C234.498 278.758 236.791 275.94 238.428 275.828C239.738 275.602 242.14 275.94 242.14 275.94Z" fill="#0064E1"/>
<path d="M239.084 291.833C239.084 291.833 243.45 291.156 245.743 291.156C248.253 291.044 251.528 290.818 251.965 291.156C252.402 291.495 252.838 296.792 252.838 296.792C252.838 296.792 253.275 298.37 249.891 297.919C246.616 297.581 239.084 297.468 239.084 297.468C239.084 297.468 237.337 297.355 237.228 295.778C237.228 294.087 237.337 293.298 237.337 293.298C237.337 293.298 238.319 291.945 239.084 291.833Z" fill="black"/>
<path d="M258.952 287.212C258.952 287.212 279.256 280.787 286.352 278.42C293.557 276.166 297.487 273.912 299.888 277.744C302.29 281.238 301.963 285.408 299.452 286.535C296.723 287.662 275.872 292.847 267.03 294.876C258.297 296.905 252.62 297.919 251.747 297.694C251.092 297.356 250 294.65 250.109 292.96C250.218 291.269 250.327 290.818 252.074 290.029C253.93 289.24 258.952 287.212 258.952 287.212Z" fill="#0054A3"/>
<path d="M256.659 255.765H281.112C281.112 255.765 282.531 255.652 282.531 257.456C282.531 259.259 282.531 279.885 282.531 279.885C282.531 279.885 282.64 281.463 281.658 281.463C280.675 281.463 252.947 281.463 252.947 281.463C252.947 281.463 251.746 281.801 251.746 279.772C251.746 277.744 251.746 257.005 251.746 257.005C251.746 257.005 251.637 255.878 253.165 255.878C254.475 255.765 256.659 255.765 256.659 255.765Z" fill="#0064B7"/>
<path d="M265.611 268.84L267.03 267.036L268.667 268.502L267.357 270.305L265.611 268.84Z" fill="#569ED4"/>
<path d="M102.635 245.216C102.635 245.216 86.8265 246.177 93.7115 247.127C100.596 248.088 110.073 248.088 113.423 247.697C116.763 247.317 105.237 245.406 102.635 245.216Z" fill="#0064B7"/>
<path d="M101.541 247.373L101.313 292.846C101.313 292.846 94.4714 293.025 93.2571 294.679C92.0427 296.333 93.4523 297.372 100.489 297.193C107.526 297.014 111.754 297.037 111.754 297.037C111.754 297.037 115.181 296.634 111.158 294.544C107.135 292.455 103.915 293.058 103.915 293.058L103.688 247.429L101.541 247.373Z" fill="#0064B7"/>
<path d="M105.811 176.408C105.811 176.408 103.892 170.899 108.608 169.435C108.608 169.435 109.974 161.132 116.393 164.886C116.881 165.166 117.434 165.211 117.933 164.954C119.635 164.082 123.408 159.869 126.021 166.328C126.227 166.831 126.726 167.032 127.181 167.054C129.111 167.133 133.763 167.915 129.946 173.849C129.946 173.849 128.179 176.051 125.23 176.23C125.23 176.23 111.536 185.952 107.557 184.309C103.599 182.644 103.751 178.241 105.811 176.408Z" fill="#2C2477"/>
<path d="M118.876 173.603C119.071 173.536 126.357 171.122 125.208 177.816V177.827C125.219 178.006 125.425 184.007 120.763 187.461C120.698 187.505 120.633 187.561 120.578 187.628C120.286 187.952 119.017 189.103 116.968 187.181C115.07 185.404 114.442 186.634 114.236 187.148C114.181 187.282 114.105 187.427 114.04 187.55C113.748 188.098 112.848 189.405 113.444 190.299C114.073 191.238 114.864 192.4 115.07 192.713C115.092 192.747 115.07 192.791 115.038 192.791C113.975 192.724 103.317 192.009 103.577 189.573C103.577 189.573 104.217 186.88 104.217 186.868L104.412 186.824C104.445 186.812 104.477 186.801 104.51 186.779L107.838 184.253C107.849 184.253 107.849 184.242 107.86 184.242C108.077 184.264 111.276 184.555 112.414 183.136C112.414 183.136 113.834 181.459 114.496 179.291C114.691 178.643 114.593 177.917 114.225 177.403C113.672 176.643 113.086 175.257 114.474 174.274C114.474 174.274 115.558 173.447 116.545 174.687L116.675 174.855C116.773 174.978 116.914 175 117.033 174.911L118.876 173.603C118.865 173.603 118.865 173.603 118.876 173.603Z" fill="#FFBF9C"/>
<path d="M104.196 186.869C104.196 186.869 109.054 191.518 114.573 192.043C114.573 192.043 117.587 195.496 118.032 203.028C118.476 210.561 118.769 227.436 118.324 228.531C117.88 229.626 91.9661 229.447 91.9661 229.447C91.9661 229.447 93.8852 202.101 96.9753 196.413C96.9753 196.413 101.54 188.154 104.196 186.869Z" fill="#DE051F"/>
<path d="M101.864 207.241C101.864 207.241 102.308 217.333 103.187 221.009C104.065 224.675 104.509 226.329 108.196 226.877C111.882 227.424 121.597 228.162 123.505 227.793C125.425 227.424 131.605 229.056 131.605 229.056C131.605 229.056 133.524 229.603 133.665 228.318C133.806 227.033 135.877 228.139 136.018 228.687C136.17 229.235 137.2 229.972 137.492 228.508C137.785 227.044 137.644 225.2 135.139 224.653C132.635 224.105 130.282 224.653 127.626 224.865C125.262 225.055 123.679 224.295 123.213 224.295L111.286 221.546C111.286 221.546 109.811 220.998 109.519 218.797C109.226 216.595 109.226 207.051 109.226 207.051L101.864 207.241Z" fill="#FFBF9C"/>
<path d="M100.682 208.336H110.082C110.191 201.184 109.53 194.389 105.832 194.378C105.832 194.389 100.682 193.182 100.682 208.336Z" fill="#EE384E"/>
<path d="M144.833 242.835C144.833 242.835 147.565 259.71 147.934 263.957C148.314 268.159 150.276 281.737 150.276 281.737L144.237 281.558L139.087 258.436L144.833 242.835Z" fill="#005498"/>
<path d="M92.0967 227.67C91.9883 228.43 91.3378 239.784 92.4112 242.656C93.387 245.283 95.9458 246.143 100.511 246.512C104.37 246.825 124.375 245.763 130.447 245.406C131.271 245.361 131.867 246.356 131.607 247.317L122.608 280.273L127.91 283.212C127.91 283.212 140.129 260.09 142.048 254.581C143.967 249.071 146.613 239.538 146.461 237.326C146.461 237.326 146.906 233.101 142.341 232.554C137.863 232.017 123.594 229.179 123.063 229.067C123.052 229.067 123.041 229.067 123.03 229.067L118.346 228.519C118.336 228.519 118.325 228.519 118.314 228.519L92.0967 227.67Z" fill="#0064E1"/>
<path d="M123.43 227.871C123.029 227.782 121.696 227.86 121.707 228.888C121.717 229.827 123.333 229.95 123.626 229.995C123.853 230.028 142.112 232.744 143.294 232.923C143.326 232.934 143.37 232.934 143.402 232.945C143.706 233.012 145.376 233.291 146.449 231.47C147.566 229.559 156.457 215.657 157.411 214.17C157.454 214.103 157.498 214.036 157.552 213.969C157.736 213.734 158.257 212.941 157.639 212.025C156.901 210.918 155.719 212.762 155.719 212.762L144.996 230.296C144.747 230.699 144.411 231 144.02 231.123H144.01C143.847 231.168 143.684 231.179 143.522 231.146" fill="#606060"/>
<path d="M150.233 281.525C150.244 281.525 150.265 281.525 150.276 281.536C150.601 281.849 155.524 286.543 158.083 287.604C158.332 287.705 158.571 287.817 158.809 287.929C159.004 288.018 159.189 288.119 159.373 288.23C159.514 288.32 159.655 288.409 159.796 288.51C159.893 288.588 159.991 288.666 160.089 288.756C160.154 288.823 160.219 288.89 160.284 288.968C160.327 289.024 160.36 289.08 160.392 289.147C160.414 289.191 160.436 289.236 160.446 289.281C160.457 289.337 160.457 289.381 160.446 289.437C160.446 289.493 160.446 289.538 160.446 289.594C160.446 289.65 160.446 289.705 160.446 289.761C160.446 289.784 160.425 289.806 160.403 289.806L144.15 287.627C144.107 287.616 144.063 287.604 144.031 287.582C143.857 287.459 143.391 287.012 143.51 285.973C143.641 284.799 144.15 282.073 144.237 281.626C144.248 281.592 144.269 281.57 144.302 281.559L150.233 281.525Z" fill="#2B2377"/>
<path d="M127.897 283.212C127.897 283.212 130.695 290.555 132.614 292.209C134.077 293.471 133.644 294.522 133.362 294.947C133.275 295.081 133.134 295.148 132.993 295.125C132.646 295.081 131.887 294.891 131.139 294.231C130.109 293.315 119.95 285.604 119.95 285.604C119.95 285.604 119.505 284.498 120.242 283.402C120.98 282.296 122.595 280.284 122.595 280.284L127.897 283.212Z" fill="#2B2377"/>
<path d="M92.355 250.379C92.355 250.379 89.7957 249.261 89.9926 246.313C90.1894 243.264 91.6659 241.129 88.6145 242.044C85.4647 242.959 84.4804 243.264 82.2164 242.857C79.9525 242.349 78.0822 241.434 79.0666 244.382C80.0509 247.431 81.1337 249.871 78.7713 250.379C76.4089 250.887 73.9481 249.058 73.6528 253.733C73.3575 258.409 76.9995 263.796 83.0039 263.898C88.9098 264.101 91.5675 261.56 91.5675 261.56C91.5675 261.56 93.1424 259.222 90.6816 258.612C88.2208 258.002 85.6615 256.986 86.9412 255.766C88.2208 254.546 92.355 254.445 92.355 254.445C92.355 254.445 97.5719 253.53 92.355 250.379Z" fill="#649CE8"/>
<path d="M65.1881 251.192C65.5819 248.142 65.2866 246.008 59.8728 245.194C54.459 244.381 51.3092 247.736 51.0139 251.192C50.7186 254.648 55.3449 255.867 55.3449 255.867C55.3449 255.867 58.6916 256.884 57.0182 259.831C55.3449 262.881 54.5574 265.727 58.3963 266.235C62.2352 266.642 66.4677 265.625 68.8301 263.999C71.1925 262.373 73.5549 258.307 70.8972 256.172C70.8972 256.172 70.1098 255.664 67.5505 255.461C64.8928 255.359 65.1881 251.192 65.1881 251.192Z" fill="#023E9F"/>
<path d="M84.186 250.684C84.186 250.684 79.6581 261.154 79.0675 268.269" stroke="#023E9F" stroke-width="1.33131" stroke-miterlimit="10"/>
<path d="M59.2822 252.412C59.2822 252.412 67.2553 264.609 69.1255 268.675" stroke="#649CE8" stroke-width="1.33131" stroke-miterlimit="10"/>
<path d="M81.9207 267.455H63.7107C63.7107 267.455 61.742 267.557 61.8405 270.403C61.9389 273.046 65.1872 272.436 66.8605 272.436C68.5339 272.436 82.3144 272.436 82.3144 272.436C82.3144 272.436 84.5784 272.842 84.5784 270.2C84.4799 267.658 83.6925 267.455 81.9207 267.455Z" fill="#0055A2"/>
<path d="M82.2168 272.435L79.4607 289.105H67.2551L65.188 276.603L82.2168 272.435Z" fill="#0055A2"/>
<path d="M82.2168 272.435L65.188 276.603L64.499 272.435H82.2168Z" fill="#016AD3"/>
<path d="M74.4404 268.065C74.4404 268.065 73.5545 249.566 68.1408 237.978" stroke="#FABC43" stroke-width="1.33131" stroke-miterlimit="10"/>
<path d="M63.7117 231.371C63.7117 231.371 63.318 237.063 68.6334 239.299C68.6334 239.299 69.8145 234.42 63.7117 231.371Z" fill="#FABC43"/>
<path d="M71.7822 249.464C71.7822 249.464 69.8136 244.585 63.7108 245.297C63.7108 245.195 64.2029 250.074 71.7822 249.464Z" fill="#FABC43"/>
<path d="M73.7512 261.56C73.7512 261.56 72.7669 256.376 66.6641 255.868C66.6641 255.868 66.2704 260.645 73.7512 261.56Z" fill="#FABC43"/>
<path d="M74.0457 261.661C74.0457 261.661 73.3567 256.477 78.8689 253.834C78.8689 253.733 80.8376 258.205 74.0457 261.661Z" fill="#FABC43"/>
<path d="M71.6842 249.363C71.6842 249.363 70.3061 244.281 75.523 240.926C75.523 240.926 78.0823 245.094 71.6842 249.363Z" fill="#FABC43"/>
</svg>
