<svg width="230" height="232" viewBox="0 0 230 232" fill="none" xmlns="http://www.w3.org/2000/svg">
<path d="M30.2827 66.0691C36.4821 61.0269 37.3638 52.4579 36.5647 44.8809C36.427 43.6134 36.4821 42.2633 35.7933 41.1888C35.1044 40.1142 33.6441 39.4529 32.542 40.0867C31.6328 40.6102 31.3021 41.7123 30.8337 42.6766C30.2276 43.9441 29.2357 45.0186 28.0509 45.735C27.2794 46.2034 26.2875 46.534 25.4609 46.1483C24.3312 45.6248 24.0833 44.1094 24.0006 42.8419C23.8353 40.4724 23.6975 38.1304 23.5322 35.7884C23.4495 34.521 23.3669 33.226 22.8709 32.0688C22.4025 30.9115 21.4382 29.837 20.2258 29.589C18.986 29.341 17.5532 30.14 17.3879 31.3799C17.3328 31.9034 17.4706 32.4269 17.4706 32.9504C17.4706 33.474 17.2777 34.0801 16.7817 34.2454C16.2858 34.4383 15.7623 34.1077 15.349 33.777C13.9438 32.5923 12.9519 31.0217 12.0151 29.4512C11.0783 27.8807 10.1415 26.2551 8.87404 24.9601C7.57905 23.6651 5.87077 22.6732 4.05228 22.7008C2.23379 22.7283 0.38774 23.9957 0.0571046 25.7867C-0.27353 27.6052 0.883692 29.341 2.12357 30.6911C3.94207 32.7025 6.06364 34.4659 8.40564 35.8711C8.81893 36.119 9.28734 36.3946 9.45266 36.863C9.7833 37.6895 9.03936 38.5712 8.24033 38.9294C7.33108 39.3152 6.28408 39.2876 5.31972 39.4805C4.35537 39.6734 3.30835 40.1693 3.00527 41.1337C2.59198 42.4562 3.7492 43.7512 4.87887 44.5502C7.13821 46.1759 9.67307 47.3882 12.3182 48.1597C13.2825 48.4352 14.2744 48.6556 15.0734 49.2618C15.8725 49.8679 16.396 50.9701 16.0103 51.8793C15.6245 52.8161 14.4673 53.1743 13.5029 53.0641C12.511 52.9539 11.6018 52.4855 10.665 52.2099C8.87404 51.6864 6.64225 51.962 5.65034 53.5325C4.98907 54.5795 5.01663 55.9571 5.48503 57.0868C5.92588 58.244 6.75247 59.2084 7.63416 60.0625C10.665 63.1209 14.4122 65.4905 18.5176 66.6201C22.6229 67.7222 26.3702 67.8325 30.2827 66.0691Z" fill="#023EA1"/>
<path d="M27.9683 61.4402C26.5631 57.693 24.6895 53.6978 22.5954 49.5649C22.0719 48.5454 21.5484 47.526 21.0249 46.5341C20.5014 45.5422 20.0055 44.5503 19.4269 43.6135C18.3247 41.7399 17.1124 40.0316 15.9001 38.4335C14.6878 36.8354 13.503 35.3751 12.3733 33.9975C11.2436 32.6198 10.1691 31.38 9.12207 30.2778C7.0556 28.0736 5.18199 26.5031 3.85945 25.4561C3.19818 24.9326 2.67468 24.5468 2.31649 24.2989C2.15118 24.1886 2.01341 24.0784 1.9032 24.0233C1.82054 23.9682 1.76544 23.9407 1.76544 23.9407C1.76544 23.9407 1.82054 23.9682 1.9032 24.0509C2.01341 24.1335 2.12363 24.2162 2.28895 24.354C2.64714 24.6295 3.17064 25.0152 3.80436 25.5387C5.1269 26.5858 6.97294 28.1838 9.01185 30.3881C10.0313 31.4902 11.1059 32.7576 12.2355 34.1077C13.3652 35.4854 14.55 36.9457 15.7348 38.5437C16.9195 40.1418 18.1319 41.8501 19.234 43.7237C19.7851 44.6605 20.3085 45.6248 20.8045 46.6443C21.328 47.6362 21.8515 48.6556 22.375 49.6751C24.469 53.7805 26.3426 57.7757 27.7478 61.5229" fill="#E0E0E0"/>
<path d="M19.3718 43.6133C19.3993 43.6133 19.4269 43.4204 19.4544 43.0622C19.5095 42.7041 19.5371 42.2081 19.5922 41.5468C19.6748 40.2794 19.7299 38.516 19.8126 36.5873C19.8677 34.6586 19.9504 32.8952 20.0606 31.6278C20.1157 30.9941 20.1708 30.4706 20.1983 30.1399C20.2259 29.7817 20.2534 29.5889 20.2259 29.5889C20.1983 29.5889 20.1708 29.7817 20.1157 30.1399C20.0606 30.4981 19.9779 30.9941 19.8953 31.6278C19.7575 32.8952 19.6197 34.6586 19.5646 36.5873C19.5095 38.4885 19.4544 40.2243 19.4268 41.5468C19.3993 42.153 19.3993 42.649 19.3718 43.0622C19.3442 43.4204 19.3442 43.6133 19.3718 43.6133Z" fill="#E0E0E0"/>
<path d="M2.9227 41.7397C2.9227 41.7672 3.14311 41.7672 3.58396 41.7672C3.99725 41.7672 4.60342 41.7948 5.34735 41.8223C6.83521 41.8774 8.90168 42.0152 11.1886 42.2907C13.4755 42.5663 15.5144 42.8969 16.9747 43.1724C17.7186 43.3102 18.2972 43.4204 18.7105 43.5031C19.1238 43.5857 19.3442 43.6408 19.3442 43.6133C19.3442 43.5857 19.1238 43.5306 18.7105 43.4204C18.2972 43.3102 17.7186 43.1449 16.9747 43.0071C15.5144 42.6765 13.4479 42.3183 11.161 42.0703C8.87412 41.7948 6.80766 41.6846 5.29224 41.6846C4.54832 41.6846 3.94215 41.6846 3.5013 41.7121C3.14312 41.7121 2.9227 41.7397 2.9227 41.7397Z" fill="#E0E0E0"/>
<path d="M27.748 61.1646C27.748 61.1646 27.7756 61.1095 27.8582 60.9717C27.9133 60.8064 27.996 60.6135 28.1062 60.3656C28.2991 59.842 28.5746 59.0706 28.9052 58.1062C29.5665 56.1775 30.3655 53.5049 31.2197 50.5567C32.0738 47.581 32.8728 44.9084 33.479 42.9797C33.7821 42.0429 34.0301 41.2714 34.1954 40.6928C34.2781 40.4448 34.3332 40.2519 34.3883 40.059C34.4434 39.9213 34.4434 39.8386 34.4434 39.8386C34.4434 39.8386 34.4158 39.8937 34.3332 40.0315C34.2781 40.1968 34.1954 40.3897 34.0852 40.6377C33.8923 41.1612 33.6168 41.9326 33.2861 42.897C32.6249 44.8257 31.8258 47.4983 30.9717 50.4465C30.1176 53.4222 29.3185 56.0948 28.7124 58.0236C28.4093 58.9604 28.1613 59.7318 27.996 60.3104C27.9133 60.5584 27.8582 60.7513 27.8031 60.9442C27.748 61.0819 27.748 61.1646 27.748 61.1646Z" fill="#E0E0E0"/>
<path d="M5.65031 55.7641C5.65031 55.7641 5.73298 55.7917 5.87074 55.8468C6.03606 55.9019 6.25648 55.957 6.50446 56.0121C7.11062 56.1498 7.90965 56.3427 8.874 56.5907C10.8578 57.0866 13.6131 57.803 16.6715 58.5745C19.7023 59.3735 22.4576 60.0624 24.469 60.5032C25.4609 60.7236 26.2875 60.9165 26.8385 61.0267C27.0865 61.0818 27.3069 61.1094 27.4998 61.1369C27.6376 61.1645 27.7202 61.1645 27.7202 61.1645C27.7202 61.1645 27.6376 61.1369 27.4998 61.0818C27.3345 61.0267 27.114 60.9716 26.8661 60.9165C26.2599 60.7787 25.4609 60.5859 24.4965 60.3379C22.5127 59.8419 19.7574 59.1256 16.699 58.3541C13.6682 57.555 10.9129 56.8662 8.90157 56.4254C7.90966 56.2049 7.08306 56.0121 6.532 55.9019C6.28403 55.8468 6.06361 55.8192 5.87074 55.7916C5.73298 55.7641 5.65031 55.7365 5.65031 55.7641Z" fill="#E0E0E0"/>
<path d="M29.1136 50.3315C29.1136 50.3315 18.8954 38.9394 16.8394 27.2049" stroke="#FCBE42" stroke-width="0.309423" stroke-miterlimit="10"/>
<path d="M16.8618 19.1778C16.8618 19.1778 20.661 21.9772 17.0765 28.412C17.0765 28.412 13.1156 26.7748 16.8618 19.1778Z" fill="#FCBE42"/>
<path d="M20.3083 37.2C20.3083 37.2 19.2216 32.5415 25.1704 27.0468C25.1768 27.0401 27.6281 30.2341 20.3083 37.2Z" fill="#FCBE42"/>
<path d="M25.7672 46.0453C25.7672 46.0453 23.6217 42.1323 28.8362 35.9282C28.8362 35.9282 32.1401 38.2322 25.7672 46.0453Z" fill="#FCBE42"/>
<path d="M25.5935 46.2629C25.5935 46.2629 23.1244 42.6306 16.461 46.4639C16.461 46.4639 17.2743 50.8758 25.5935 46.2629Z" fill="#FCBE42"/>
<path d="M20.3492 37.1131C20.3492 37.1131 18.5444 32.9357 11.797 36.0124C11.7906 36.0192 11.9491 40.7678 20.3492 37.1131Z" fill="#FCBE42"/>
<path d="M138.737 147.561H91.4049C91.4049 147.561 93.3666 177.71 83.9966 177.71H146.15C136.779 177.71 138.741 147.561 138.741 147.561H138.737Z" fill="#0064B5"/>
<path opacity="0.55" d="M90.8672 165.686L138.586 156.019C138.5 151.239 138.737 147.565 138.737 147.565H91.405C91.405 147.565 92.0374 157.288 90.8672 165.69V165.686Z" fill="#033E9F"/>
<path d="M202.12 32.0054H28.0173C23.6407 32.0054 20.0928 35.5533 20.0928 39.9299V148.727C20.0928 153.103 23.6407 156.651 28.0173 156.651H202.12C206.497 156.651 210.045 153.103 210.045 148.727V39.9299C210.045 35.5533 206.497 32.0054 202.12 32.0054Z" fill="#0064B5"/>
<path d="M198.369 36.4236H31.7729C28.2683 36.4236 25.4272 39.2646 25.4272 42.7692V145.891C25.4272 149.396 28.2683 152.237 31.7729 152.237H198.369C201.873 152.237 204.715 149.396 204.715 145.891V42.7692C204.715 39.2646 201.873 36.4236 198.369 36.4236Z" fill="white" stroke="#0064B5" stroke-width="0.860427" stroke-miterlimit="10"/>
<path d="M25.4272 51.0293H204.715" stroke="#0064B5" stroke-width="0.860427" stroke-miterlimit="10"/>
<path d="M183.182 46.4778H59.6681C57.9774 46.4778 56.605 45.1054 56.605 43.4147C56.605 41.7239 57.9774 40.3516 59.6681 40.3516H183.182C184.873 40.3516 186.246 41.7239 186.246 43.4147C186.246 45.1054 184.873 46.4778 183.182 46.4778Z" fill="#DBE9F8"/>
<path d="M34.2252 43.5652C34.2252 44.4687 33.4938 45.2 32.5904 45.2C31.6869 45.2 30.9556 44.4687 30.9556 43.5652C30.9556 42.6618 31.6869 41.9304 32.5904 41.9304C33.4938 41.9304 34.2252 42.6618 34.2252 43.5652Z" stroke="#277EF1" stroke-width="0.645321" stroke-miterlimit="10"/>
<path d="M41.857 43.5652C41.857 44.4687 41.1257 45.2 40.2222 45.2C39.3188 45.2 38.5874 44.4687 38.5874 43.5652C38.5874 42.6618 39.3188 41.9304 40.2222 41.9304C41.1257 41.9304 41.857 42.6618 41.857 43.5652Z" stroke="#277EF1" stroke-width="0.645321" stroke-miterlimit="10"/>
<path d="M49.485 43.5652C49.485 44.4687 48.7536 45.2 47.8501 45.2C46.9467 45.2 46.2153 44.4687 46.2153 43.5652C46.2153 42.6618 46.9467 41.9304 47.8501 41.9304C48.7536 41.9304 49.485 42.6618 49.485 43.5652Z" stroke="#277EF1" stroke-width="0.645321" stroke-miterlimit="10"/>
<path d="M165.11 92.9924H65.0332C61.243 92.9924 58.167 89.9207 58.167 86.1262C58.167 82.336 61.2387 79.26 65.0332 79.26H165.11C168.9 79.26 171.976 82.3317 171.976 86.1262C171.976 89.9164 168.904 92.9924 165.11 92.9924Z" stroke="#0064B5" stroke-width="0.645321" stroke-miterlimit="10"/>
<path d="M165.11 79.2643H153.588V92.9924H165.11C168.9 92.9924 171.976 89.9207 171.976 86.1262C171.976 82.336 168.904 79.26 165.11 79.26V79.2643Z" fill="#0064B5"/>
<path d="M167.114 89.4388L164.843 87.1673C165.303 86.5521 165.553 85.8035 165.553 85.0334C165.553 83.0673 163.952 81.4626 161.982 81.4626C160.012 81.4626 158.411 83.063 158.411 85.0334C158.411 87.0038 160.012 88.6042 161.982 88.6042C162.554 88.6042 163.118 88.4622 163.625 88.1998L165.992 90.566C166.142 90.7165 166.34 90.7983 166.551 90.7983C166.762 90.7983 166.959 90.7165 167.11 90.566C167.261 90.4154 167.342 90.2175 167.342 90.0067C167.342 89.7959 167.261 89.598 167.11 89.4474L167.114 89.4388ZM164.546 85.0334C164.546 86.4445 163.397 87.5932 161.986 87.5932C160.575 87.5932 159.422 86.4445 159.422 85.0334C159.422 83.6223 160.571 82.4693 161.986 82.4693C163.402 82.4693 164.546 83.618 164.546 85.0334Z" fill="white"/>
<path opacity="0.75" d="M93.84 89.0818H65.2007C63.5702 89.0818 62.2451 87.761 62.2451 86.1262C62.2451 84.4957 63.5659 83.1707 65.2007 83.1707H93.84C95.4705 83.1707 96.7956 84.4914 96.7956 86.1262C96.7956 87.7567 95.4748 89.0818 93.84 89.0818Z" fill="#E0EBFC"/>
<path d="M154.599 176.85H75.543V181.251H154.599V176.85Z" fill="#0064B5"/>
<path opacity="0.75" d="M101.64 101.541H82.2543C80.4319 101.541 78.9546 103.018 78.9546 104.841V104.845C78.9546 106.667 80.4319 108.145 82.2543 108.145H101.64C103.462 108.145 104.94 106.667 104.94 104.845V104.841C104.94 103.018 103.462 101.541 101.64 101.541Z" fill="#E0EBFC"/>
<path opacity="0.75" d="M147.884 101.541H113.475C111.653 101.541 110.175 103.018 110.175 104.841V104.845C110.175 106.667 111.653 108.145 113.475 108.145H147.884C149.706 108.145 151.183 106.667 151.183 104.845V104.841C151.183 103.018 149.706 101.541 147.884 101.541Z" fill="#E0EBFC"/>
<path d="M169.596 56.562H176.85" stroke="#0064B5" stroke-width="0.645321" stroke-miterlimit="10"/>
<path d="M180.36 56.562H187.614" stroke="#0064B5" stroke-width="0.645321" stroke-miterlimit="10"/>
<path opacity="0.75" d="M191.202 54.5959H190.225V55.5725H191.202V54.5959Z" fill="#E0EBFC"/>
<path opacity="0.75" d="M192.565 54.5959H191.589V55.5725H192.565V54.5959Z" fill="#E0EBFC"/>
<path opacity="0.75" d="M193.925 54.5959H192.948V55.5725H193.925V54.5959Z" fill="#E0EBFC"/>
<path opacity="0.75" d="M191.202 56.0715H190.225V57.0481H191.202V56.0715Z" fill="#E0EBFC"/>
<path opacity="0.75" d="M192.565 56.0715H191.589V57.0481H192.565V56.0715Z" fill="#E0EBFC"/>
<path opacity="0.75" d="M193.925 56.0715H192.948V57.0481H193.925V56.0715Z" fill="#E0EBFC"/>
<path opacity="0.75" d="M191.202 57.5515H190.225V58.5281H191.202V57.5515Z" fill="#E0EBFC"/>
<path opacity="0.75" d="M192.565 57.5515H191.589V58.5281H192.565V57.5515Z" fill="#E0EBFC"/>
<path opacity="0.75" d="M193.925 57.5515H192.948V58.5281H193.925V57.5515Z" fill="#E0EBFC"/>
<path opacity="0.75" d="M197.956 59.0358C199.322 59.0358 200.43 57.9283 200.43 56.5621C200.43 55.1959 199.322 54.0884 197.956 54.0884C196.59 54.0884 195.482 55.1959 195.482 56.5621C195.482 57.9283 196.59 59.0358 197.956 59.0358Z" fill="#E0EBFC"/>
<path d="M143.99 177.086H103.537" stroke="#024FA9" stroke-width="0.645321" stroke-miterlimit="10"/>
<path d="M98.9981 177.086H85.7905" stroke="#024FA9" stroke-width="0.645321" stroke-miterlimit="10"/>
<path d="M180.064 19.2668L179.216 22.6784C179.143 22.9667 179.5 23.2334 179.823 23.1301L183.071 22.1234C183.338 22.0417 183.411 21.7535 183.213 21.5556L180.812 19.1464C180.571 18.9054 180.137 18.9743 180.064 19.2625V19.2668Z" stroke="#DE051F" stroke-width="0.860427" stroke-miterlimit="10"/>
<path d="M6.16335 98.5596L7.65619 101.743C7.78096 102.014 8.22408 101.993 8.41337 101.713L10.302 98.8865C10.4569 98.6542 10.3321 98.3832 10.0525 98.3574L6.671 98.0003C6.33544 97.9659 6.03859 98.2929 6.16335 98.5639V98.5596Z" stroke="#033E9F" stroke-width="0.860427" stroke-miterlimit="10"/>
<path d="M186.21 124.338L184.447 123.968L183.844 129.329L188.667 131.131" fill="white"/>
<path d="M169.971 102.898L166.614 103.998L171.098 117.677L174.455 116.577L169.971 102.898Z" fill="#19202D"/>
<path d="M157.184 69.5722C147.779 72.6568 142.651 82.7798 145.736 92.1885C148.82 101.593 158.943 106.721 168.348 103.637C177.752 100.552 182.88 90.429 179.796 81.0202C176.711 71.6157 166.588 66.4876 157.184 69.5722ZM167.552 101.21C159.485 103.856 150.799 99.4592 148.158 91.3884C145.512 83.3218 149.909 74.6358 157.98 71.9943C166.046 69.3485 174.732 73.7453 177.374 81.8161C180.02 89.8826 175.623 98.5686 167.552 101.21Z" fill="#19202D"/>
<path d="M177.107 130.357C175.73 130.809 174.251 130.06 173.799 128.684L167.66 109.969L172.646 108.334L178.785 127.049C179.237 128.425 178.488 129.905 177.111 130.357H177.107Z" fill="#19202D"/>
<path d="M188.142 127.909L184.331 126.416L182.214 132L187.419 135.631" fill="white"/>
<path d="M195.24 137.914C195.24 137.914 197.612 172.694 198.086 178.769C198.442 184.844 199.866 205.688 199.866 205.688H205.915L210.066 137.676L195.24 137.914Z" fill="#0064E1"/>
<path d="M218.132 138.271C218.132 138.271 217.42 155.781 217.183 160.188C216.827 164.714 220.386 179.841 222.165 186.63C223.944 193.42 227.147 200.566 227.147 200.566L222.165 203.544C222.165 203.544 211.727 185.201 208.168 174.124C204.491 163.165 201.763 146.966 202.238 137.557L218.132 138.271Z" fill="#0054A3"/>
<path d="M172.822 113.02H171.043C171.043 113.02 169.856 113.02 169.856 114.33C169.856 115.64 169.856 117.665 169.856 117.665C169.856 117.665 169.619 118.38 170.568 118.38C171.517 118.38 172.347 118.38 172.347 118.38C172.347 118.38 173.059 118.261 174.245 119.214C175.431 120.166 184.327 125.169 184.327 125.169C184.327 125.169 187.411 126.956 189.309 125.05C191.207 123.144 195.714 118.261 195.714 118.261L195.951 116.831L192.156 113.258L187.53 119.333C187.53 119.333 187.174 119.809 186.225 119.571C185.276 119.333 176.499 116.236 176.499 116.236C176.499 116.236 175.194 115.64 174.838 114.568C174.838 114.449 174.838 114.449 174.72 114.33C174.601 113.496 173.771 112.901 172.822 113.02Z" fill="#FFBF99"/>
<path d="M207.101 96.7017C207.101 96.7017 207.694 99.4412 208.761 102.181C209.948 104.92 210.422 105.992 210.422 105.992C210.422 105.992 207.101 109.804 203.898 109.327C200.577 108.732 200.577 106.588 200.577 106.588C200.577 106.588 203.661 104.206 203.661 100.751C203.661 97.2972 203.661 97.4163 203.661 97.4163L207.101 96.7017Z" fill="#FFBF99"/>
<path d="M199.984 106.111C199.984 106.111 197.256 107.779 196.188 108.494C195.002 109.446 191.681 113.139 191.681 113.139L196.307 117.665L199.51 113.973L199.984 106.111Z" fill="#F59F1D"/>
<path d="M209.117 104.92C209.117 104.92 207.457 107.183 205.322 107.66C203.068 108.255 202.001 106.469 202.001 106.469L201.408 105.635C201.408 105.635 200.815 105.159 200.103 105.754C199.391 106.35 198.205 107.66 197.019 110.042C195.833 112.424 195.596 115.521 195.24 122.906C195.002 130.291 195.24 138.39 195.24 138.39H218.013L218.251 126.956C218.251 126.956 215.878 111.71 213.625 108.613C211.252 105.516 210.541 104.801 210.541 104.801C210.541 104.801 210.066 103.967 209.117 104.92Z" fill="#FCBE42"/>
<path d="M200.222 89.1977C200.222 89.1977 198.561 91.4608 198.561 95.2723C198.561 99.0839 199.154 101.823 200.815 101.823C202.594 101.823 205.796 100.632 206.271 99.5603C206.864 98.3692 207.931 98.3692 207.931 96.2252C207.931 93.9621 205.203 88.9595 202.95 88.9595C200.933 89.1977 200.222 89.1977 200.222 89.1977Z" fill="#FFBF99"/>
<path d="M198.679 89.1977C198.679 89.1977 197.019 84.6715 198.086 84.195C199.035 83.5995 201.408 84.7906 201.882 85.3861C202.475 85.9817 203.543 85.9817 204.136 85.9817C204.136 85.9817 209.592 85.9817 210.659 87.1728C211.846 88.3639 211.846 88.8403 211.846 89.4359C211.846 90.0314 211.846 92.1754 212.439 93.2474C212.676 93.7239 213.032 95.987 211.846 98.2501C210.659 100.513 209.592 100.99 209.117 100.99C208.524 100.99 208.169 100.99 207.931 100.394C207.931 99.7985 207.694 98.9648 207.338 98.131C207.101 97.4163 206.745 95.8679 206.745 95.8679C206.745 95.8679 206.152 93.1283 205.085 92.0563C204.136 90.8652 203.898 90.8652 201.763 90.3888C199.747 89.7932 199.273 90.8652 198.679 89.1977Z" fill="#1A1155"/>
<path d="M206.152 93.3664C205.322 94.3193 206.389 95.9869 206.389 95.9869C206.389 95.9869 208.05 96.5824 208.05 94.7958C207.931 93.1282 206.982 92.1753 206.152 93.3664Z" fill="#EEBD98"/>
<path d="M217.183 116.712C217.183 116.712 219.081 124.573 218.962 129.695C218.607 134.698 217.183 138.986 216.116 142.083C214.93 144.941 214.336 145.894 214.336 147.681C214.336 149.587 213.388 151.85 212.439 152.803C211.253 153.994 210.541 154.589 210.541 154.589C210.541 154.589 209.118 155.185 209.355 153.994C209.355 153.994 208.406 153.994 208.762 153.398C208.762 153.398 207.576 153.398 208.406 152.445C209.355 151.493 210.778 150.659 210.778 150.659C210.778 150.659 211.727 149.229 210.422 149.944C209.118 150.659 208.05 150.659 209.118 149.468C210.304 148.277 211.49 146.252 212.795 142.559C213.743 138.748 215.048 131.482 213.625 125.645C212.201 120.047 210.422 118.141 210.422 118.141L217.183 116.712Z" fill="#FFBF99"/>
<path d="M221.928 203.306C221.928 203.306 220.741 206.403 219.674 207.951C218.488 209.38 217.42 210.333 217.42 210.333C217.42 210.333 215.997 212.596 217.658 212.001C219.318 211.286 228.095 205.45 228.095 205.45C228.095 205.45 229.4 204.735 228.807 203.663C228.214 202.71 226.909 200.447 226.909 200.447L221.928 203.306Z" fill="#1A1155"/>
<path d="M205.677 209.738C205.677 209.738 206.033 210.691 204.017 210.691C202.238 210.691 192.037 210.691 192.037 210.691C192.037 210.691 190.139 210.214 191.918 209.38C193.698 208.428 199.272 206.045 199.272 206.045C199.272 206.045 199.747 205.926 199.747 204.854H205.796L205.677 209.738Z" fill="#1A1155"/>
<path d="M208.524 111.352C208.524 111.352 208.05 107.541 210.778 107.183C213.506 106.826 215.285 110.399 216.234 112.662C217.183 115.045 217.657 116.831 217.657 116.831C217.657 116.831 211.845 119.214 210.303 119.214C210.185 119.214 208.88 115.402 208.524 111.352Z" fill="#F59F1D"/>
<path d="M34.1374 147.107C34.1374 147.107 36.4238 146.237 36.315 143.518C36.2061 140.8 34.6818 138.951 37.7304 139.821C40.5612 140.582 41.4323 140.909 43.6099 140.474C45.6786 140.039 47.3117 139.06 46.5496 141.887C45.6786 144.606 44.6986 146.78 46.7673 147.215C48.9449 147.65 51.2314 146.019 51.4491 150.26C51.6669 154.501 48.2917 159.067 42.9566 159.285C37.6215 159.502 35.0084 157.219 35.0084 157.219C35.0084 157.219 33.4841 155.153 35.7706 154.609C38.057 154.066 40.4524 153.087 39.1458 152.108C38.057 151.13 34.2463 151.021 34.2463 151.021C34.2463 151.021 29.5645 149.825 34.1374 147.107Z" fill="#DE051F"/>
<path d="M59.2912 147.759C58.9646 145.041 59.1824 143.084 64.1908 142.431C69.1992 141.779 72.0301 144.715 72.3567 147.759C72.6834 150.804 68.3282 152 68.3282 152C68.3282 152 65.2796 152.87 66.695 155.479C68.3282 158.198 68.9815 160.699 65.4974 161.134C62.0132 161.46 58.0936 160.59 55.916 159.176C53.7384 157.654 51.5608 154.175 54.0651 152.217C54.0651 152.217 54.7183 151.782 57.1137 151.674C59.509 151.456 59.2912 147.759 59.2912 147.759Z" fill="#033E9F"/>
<path d="M41.7622 147.324C41.7622 147.324 45.8996 156.675 46.444 162.982" stroke="#FFC4CB" stroke-width="0.762769" stroke-miterlimit="10" stroke-linecap="round" stroke-linejoin="round"/>
<path d="M64.7323 148.846C64.7323 148.846 57.4374 159.611 55.8042 163.308" stroke="#579DD3" stroke-width="0.762769" stroke-miterlimit="10" stroke-linecap="round" stroke-linejoin="round"/>
<path d="M43.9354 162.221H60.5939C60.5939 162.221 62.4448 162.329 62.3359 164.83C62.2271 167.114 59.2873 166.679 57.763 166.679C56.1298 166.679 43.6087 166.679 43.6087 166.679C43.6087 166.679 41.54 167.005 41.54 164.722C41.54 162.438 42.1933 162.221 43.9354 162.221Z" fill="#0054A3"/>
<path d="M43.6069 166.679L46.1112 181.358H57.3257L59.2855 170.376L43.6069 166.679Z" fill="#0054A3"/>
<path d="M43.6069 166.679L59.2855 170.376L59.8299 166.679H43.6069Z" fill="#016AD3"/>
<path d="M50.7988 162.764C50.7988 162.764 51.561 146.454 56.5694 136.124Z" fill="#FABC42"/>
<path d="M60.4884 130.253C60.4884 130.253 60.815 135.254 55.9154 137.32C56.0243 137.212 54.9355 132.971 60.4884 130.253Z" fill="#FABC42"/>
<path d="M53.1963 146.237C53.1963 146.237 55.0472 141.887 60.6001 142.54C60.4912 142.431 60.0557 146.78 53.1963 146.237Z" fill="#FABC42"/>
<path d="M51.3457 157.001C51.3457 157.001 52.2167 152.435 57.9873 151.891C57.7696 151.891 58.2051 156.24 51.3457 157.001Z" fill="#FABC42"/>
<path d="M51.1255 157.001C51.1255 157.001 51.7788 152.326 46.6615 150.042C46.6615 150.042 44.8105 153.957 51.1255 157.001Z" fill="#FABC42"/>
<path d="M53.3037 146.128C53.3037 146.128 54.5014 141.561 49.8196 138.625C49.7107 138.734 47.3153 142.322 53.3037 146.128Z" fill="#FABC42"/>
</svg>
