<svg width="411" height="303" viewBox="0 0 411 303" fill="none" xmlns="http://www.w3.org/2000/svg">
<path d="M289.885 70.8115C281.058 63.6286 279.803 51.4216 280.94 40.6277C281.136 38.8221 281.058 36.8989 282.039 35.3681C283.019 33.8373 285.099 32.8953 286.668 33.798C287.962 34.5438 288.433 36.1138 289.1 37.4876C289.963 39.2931 291.375 40.8239 293.062 41.8444C294.16 42.5117 295.573 42.9827 296.75 42.4332C298.358 41.6874 298.711 39.5287 298.829 37.7231C299.064 34.3476 299.26 31.0112 299.496 27.6749C299.613 25.8694 299.731 24.0246 300.437 22.3761C301.104 20.7275 302.477 19.1968 304.203 18.8435C305.968 18.4903 308.008 19.6285 308.244 21.3948C308.322 22.1406 308.126 22.8863 308.126 23.6321C308.126 24.3779 308.401 25.2414 309.107 25.4769C309.813 25.7516 310.558 25.2806 311.147 24.8096C313.147 23.1218 314.56 20.8846 315.893 18.6473C317.227 16.41 318.561 14.0942 320.365 12.2494C322.209 10.4046 324.641 8.99158 327.23 9.03083C329.82 9.07008 332.448 10.8756 332.919 13.4269C333.389 16.0175 331.742 18.4903 329.976 20.4135C327.387 23.2788 324.367 25.7909 321.032 27.7927C320.444 28.1459 319.777 28.5384 319.542 29.2057C319.071 30.3832 320.13 31.6393 321.268 32.1495C322.562 32.699 324.053 32.6598 325.426 32.9345C326.799 33.2093 328.29 33.9158 328.721 35.2896C329.31 37.1736 327.662 39.0184 326.054 40.1567C322.837 42.4725 319.228 44.1995 315.462 45.2985C314.089 45.691 312.677 46.005 311.539 46.8685C310.401 47.7321 309.656 49.3021 310.205 50.5974C310.754 51.9319 312.402 52.4421 313.775 52.2851C315.187 52.1281 316.482 51.4609 317.816 51.0684C320.365 50.3226 323.543 50.7151 324.955 52.9524C325.897 54.4439 325.857 56.4065 325.191 58.0158C324.563 59.6643 323.386 61.0381 322.131 62.2548C317.816 66.6117 312.48 69.9872 306.635 71.5965C300.79 73.1665 295.455 73.3235 289.885 70.8115Z" fill="#023EA1"/>
<path d="M293.18 64.2174C295.181 58.8793 297.848 53.1879 300.83 47.3003C301.575 45.848 302.32 44.3957 303.066 42.9827C303.811 41.5697 304.517 40.1567 305.341 38.8221C306.91 36.1531 308.636 33.7195 310.362 31.443C312.088 29.1665 313.775 27.0862 315.383 25.1236C316.992 23.1611 318.522 21.3948 320.012 19.8248C322.955 16.6847 325.622 14.4474 327.505 12.9559C328.447 12.2101 329.192 11.6606 329.702 11.3074C329.937 11.1504 330.134 10.9934 330.29 10.9149C330.408 10.8364 330.487 10.7971 330.487 10.7971C330.487 10.7971 330.408 10.8364 330.29 10.9541C330.134 11.0719 329.977 11.1896 329.741 11.3859C329.231 11.7784 328.486 12.3279 327.584 13.0737C325.701 14.5652 323.072 16.8417 320.169 19.9818C318.718 21.5518 317.188 23.3574 315.58 25.2806C313.971 27.2432 312.284 29.3235 310.598 31.6C308.911 33.8766 307.185 36.3101 305.615 38.9791C304.831 40.3137 304.086 41.6874 303.379 43.1397C302.634 44.5527 301.889 46.005 301.143 47.4573C298.162 53.3057 295.494 58.997 293.494 64.3351" fill="#E0E0E0"/>
<path d="M305.419 38.822C305.38 38.822 305.341 38.5472 305.301 38.037C305.223 37.5267 305.184 36.8202 305.105 35.8782C304.988 34.0727 304.909 31.5606 304.791 28.8131C304.713 26.0655 304.595 23.5535 304.438 21.7479C304.36 20.8452 304.281 20.0994 304.242 19.6284C304.203 19.1181 304.164 18.8434 304.203 18.8434C304.242 18.8434 304.281 19.1181 304.36 19.6284C304.438 20.1387 304.556 20.8452 304.674 21.7479C304.87 23.5535 305.066 26.0655 305.145 28.8131C305.223 31.5214 305.301 33.9942 305.341 35.8782C305.38 36.7417 305.38 37.4482 305.419 38.037C305.458 38.5472 305.458 38.822 305.419 38.822Z" fill="#E0E0E0"/>
<path d="M328.839 36.153C328.839 36.1922 328.525 36.1922 327.897 36.1922C327.309 36.1922 326.446 36.2315 325.387 36.2707C323.268 36.3492 320.326 36.5455 317.07 36.938C313.814 37.3305 310.911 37.8015 308.832 38.194C307.773 38.3903 306.949 38.5473 306.361 38.665C305.772 38.7828 305.458 38.8613 305.458 38.822C305.458 38.7828 305.772 38.7043 306.361 38.5473C306.949 38.3903 307.773 38.1548 308.832 37.9585C310.911 37.4875 313.853 36.9772 317.109 36.624C320.365 36.2315 323.308 36.0745 325.465 36.0745C326.524 36.0745 327.387 36.0745 328.015 36.1137C328.525 36.1137 328.839 36.153 328.839 36.153Z" fill="#E0E0E0"/>
<path d="M293.493 63.8249C293.493 63.8249 293.454 63.7464 293.336 63.5501C293.258 63.3146 293.14 63.0399 292.983 62.6866C292.709 61.9409 292.316 60.8418 291.846 59.4681C290.904 56.7205 289.767 52.9132 288.55 48.7134C287.334 44.4743 286.197 40.667 285.334 37.9194C284.902 36.5849 284.549 35.4859 284.314 34.6616C284.196 34.3083 284.118 34.0336 284.039 33.7588C283.961 33.5626 283.961 33.4448 283.961 33.4448C283.961 33.4448 284 33.5233 284.118 33.7196C284.196 33.9551 284.314 34.2298 284.471 34.5831C284.745 35.3289 285.138 36.4279 285.608 37.8017C286.55 40.5492 287.687 44.3565 288.904 48.5564C290.12 52.7954 291.257 56.6028 292.12 59.3503C292.552 60.6848 292.905 61.7839 293.14 62.6081C293.258 62.9614 293.336 63.2361 293.415 63.5109C293.493 63.7071 293.493 63.8249 293.493 63.8249Z" fill="#E0E0E0"/>
<path d="M324.955 56.1315C324.955 56.1315 324.837 56.1707 324.641 56.2492C324.406 56.3277 324.092 56.4062 323.739 56.4847C322.876 56.681 321.738 56.9558 320.365 57.309C317.541 58.0155 313.618 59.036 309.264 60.1351C304.948 61.2733 301.025 62.2546 298.162 62.8826C296.749 63.1966 295.573 63.4714 294.788 63.6284C294.435 63.7069 294.121 63.7461 293.847 63.7854C293.65 63.8246 293.533 63.8246 293.533 63.8246C293.533 63.8246 293.65 63.7854 293.847 63.7069C294.082 63.6284 294.396 63.5499 294.749 63.4714C295.612 63.2751 296.749 63.0004 298.123 62.6471C300.947 61.9406 304.87 60.9201 309.224 59.8211C313.539 58.6828 317.462 57.7015 320.326 57.0735C321.738 56.7595 322.915 56.4847 323.7 56.3277C324.053 56.2492 324.367 56.21 324.641 56.1707C324.837 56.1315 324.955 56.0922 324.955 56.1315Z" fill="#E0E0E0"/>
<path d="M291.549 48.392C291.549 48.392 306.098 32.1632 309.025 15.4467" stroke="#FCBE42" stroke-width="0.460149" stroke-miterlimit="10"/>
<path d="M308.993 4.01203C308.993 4.01203 303.584 7.99992 308.687 17.1666C308.687 17.1666 314.326 14.8344 308.993 4.01203Z" fill="#FCBE42"/>
<path d="M304.086 29.6852C304.086 29.6852 305.633 23.049 297.164 15.2214C297.155 15.2119 293.664 19.7619 304.086 29.6852Z" fill="#FCBE42"/>
<path d="M296.314 42.2862C296.314 42.2862 299.369 36.7119 291.944 27.8738C291.944 27.8738 287.24 31.1559 296.314 42.2862Z" fill="#FCBE42"/>
<path d="M296.561 42.5961C296.561 42.5961 300.077 37.4217 309.564 42.8825C309.564 42.8825 308.406 49.1674 296.561 42.5961Z" fill="#FCBE42"/>
<path d="M304.027 29.5616C304.027 29.5616 306.597 23.6107 316.204 27.9937C316.213 28.0033 315.987 34.7679 304.027 29.5616Z" fill="#FCBE42"/>
<path d="M129.732 139.783C138.558 132.6 139.814 120.393 138.676 109.599C138.48 107.793 138.558 105.87 137.578 104.339C136.597 102.808 134.518 101.866 132.949 102.769C131.654 103.515 131.183 105.085 130.517 106.459C129.653 108.264 128.241 109.795 126.554 110.816C125.456 111.483 124.044 111.954 122.867 111.404C121.258 110.659 120.905 108.5 120.788 106.694C120.552 103.319 120.356 99.9823 120.121 96.646C120.003 94.8405 119.885 92.9957 119.179 91.3471C118.512 89.6986 117.139 88.1678 115.413 87.8146C113.648 87.4613 111.608 88.5996 111.373 90.3659C111.294 91.1116 111.49 91.8574 111.49 92.6032C111.49 93.3489 111.216 94.2125 110.51 94.448C109.804 94.7227 109.058 94.2517 108.47 93.7807C106.469 92.0929 105.057 89.8556 103.723 87.6183C102.389 85.381 101.056 83.0652 99.2511 81.2205C97.4073 79.3757 94.9751 77.9626 92.386 78.0019C89.7969 78.0411 87.1686 79.8467 86.6978 82.398C86.2271 84.9885 87.8747 87.4613 89.64 89.3846C92.2291 92.2499 95.2497 94.762 98.5842 96.7637C99.1726 97.117 99.8395 97.5095 100.075 98.1768C100.546 99.3543 99.4864 100.61 98.3488 101.121C97.0542 101.67 95.5636 101.631 94.1905 101.906C92.8175 102.18 91.3268 102.887 90.8953 104.261C90.3069 106.145 91.9545 107.989 93.5629 109.128C96.7796 111.444 100.389 113.171 104.155 114.27C105.528 114.662 106.94 114.976 108.078 115.84C109.215 116.703 109.961 118.273 109.411 119.568C108.862 120.903 107.215 121.413 105.842 121.256C104.429 121.099 103.135 120.432 101.801 120.039C99.2511 119.294 96.0735 119.686 94.6613 121.923C93.7198 123.415 93.759 125.378 94.4259 126.987C95.0536 128.635 96.2304 130.009 97.4858 131.226C101.801 135.583 107.136 138.958 112.981 140.568C118.826 142.138 124.161 142.295 129.732 139.783Z" fill="#023EA1"/>
<path d="M126.437 133.188C124.436 127.85 121.769 122.159 118.787 116.271C118.042 114.819 117.296 113.367 116.551 111.954C115.806 110.541 115.1 109.128 114.276 107.793C112.707 105.124 110.981 102.691 109.255 100.414C107.528 98.1375 105.842 96.0572 104.233 94.0947C102.625 92.1322 101.095 90.3659 99.6042 88.7959C96.662 85.6558 93.9945 83.4185 92.1115 81.927C91.17 81.1812 90.4246 80.6317 89.9147 80.2784C89.6793 80.1214 89.4831 79.9644 89.3262 79.8859C89.2085 79.8074 89.1301 79.7682 89.1301 79.7682C89.1301 79.7682 89.2085 79.8074 89.3262 79.9252C89.4831 80.0429 89.6401 80.1607 89.8754 80.3569C90.3854 80.7495 91.1308 81.299 92.033 82.0447C93.916 83.5363 96.5443 85.8128 99.4473 88.9529C100.899 90.5229 102.429 92.3284 104.037 94.2517C105.645 96.2142 107.332 98.2945 109.019 100.571C110.706 102.848 112.432 105.281 114.001 107.95C114.786 109.285 115.531 110.659 116.237 112.111C116.983 113.524 117.728 114.976 118.473 116.428C121.455 122.277 124.122 127.968 126.123 133.306" fill="#E0E0E0"/>
<path d="M114.197 107.793C114.237 107.793 114.276 107.518 114.315 107.008C114.393 106.498 114.433 105.791 114.511 104.849C114.629 103.044 114.707 100.532 114.825 97.7841C114.903 95.0366 115.021 92.5245 115.178 90.719C115.257 89.8162 115.335 89.0705 115.374 88.5995C115.413 88.0892 115.453 87.8145 115.413 87.8145C115.374 87.8145 115.335 88.0892 115.257 88.5995C115.178 89.1097 115.06 89.8162 114.943 90.719C114.747 92.5245 114.55 95.0366 114.472 97.7841C114.393 100.492 114.315 102.965 114.276 104.849C114.237 105.713 114.237 106.419 114.197 107.008C114.158 107.518 114.158 107.793 114.197 107.793Z" fill="#E0E0E0"/>
<path d="M90.7778 105.124C90.7778 105.163 91.0916 105.163 91.7193 105.163C92.3077 105.163 93.1707 105.203 94.2299 105.242C96.3483 105.32 99.2905 105.517 102.546 105.909C105.802 106.302 108.705 106.773 110.785 107.165C111.844 107.361 112.668 107.518 113.256 107.636C113.844 107.754 114.158 107.832 114.158 107.793C114.158 107.754 113.844 107.675 113.256 107.518C112.668 107.361 111.844 107.126 110.785 106.93C108.705 106.459 105.763 105.948 102.507 105.595C99.2512 105.203 96.3091 105.046 94.1515 105.046C93.0923 105.046 92.2292 105.046 91.6016 105.085C91.0916 105.085 90.7778 105.124 90.7778 105.124Z" fill="#E0E0E0"/>
<path d="M126.123 132.796C126.123 132.796 126.162 132.717 126.28 132.521C126.359 132.286 126.476 132.011 126.633 131.658C126.908 130.912 127.3 129.813 127.771 128.439C128.712 125.692 129.85 121.884 131.066 117.684C132.282 113.445 133.42 109.638 134.283 106.89C134.714 105.556 135.067 104.457 135.303 103.633C135.42 103.279 135.499 103.005 135.577 102.73C135.656 102.534 135.656 102.416 135.656 102.416C135.656 102.416 135.617 102.494 135.499 102.691C135.42 102.926 135.303 103.201 135.146 103.554C134.871 104.3 134.479 105.399 134.008 106.773C133.067 109.52 131.929 113.328 130.713 117.527C129.497 121.767 128.359 125.574 127.496 128.321C127.065 129.656 126.712 130.755 126.476 131.579C126.359 131.932 126.28 132.207 126.202 132.482C126.123 132.678 126.123 132.796 126.123 132.796Z" fill="#E0E0E0"/>
<path d="M94.6614 125.103C94.6614 125.103 94.7791 125.142 94.9752 125.22C95.2106 125.299 95.5244 125.377 95.8775 125.456C96.7405 125.652 97.8781 125.927 99.2512 126.28C102.076 126.987 105.999 128.007 110.353 129.106C114.668 130.244 118.591 131.226 121.455 131.854C122.867 132.168 124.044 132.442 124.828 132.599C125.181 132.678 125.495 132.717 125.77 132.756C125.966 132.796 126.084 132.796 126.084 132.796C126.084 132.796 125.966 132.756 125.77 132.678C125.535 132.599 125.221 132.521 124.868 132.442C124.005 132.246 122.867 131.971 121.494 131.618C118.669 130.912 114.747 129.891 110.392 128.792C106.077 127.654 102.154 126.673 99.2904 126.045C97.8782 125.731 96.7013 125.456 95.9167 125.299C95.5636 125.22 95.2498 125.181 94.9752 125.142C94.7791 125.103 94.6614 125.063 94.6614 125.103Z" fill="#E0E0E0"/>
<path d="M128.067 117.363C128.067 117.363 113.519 101.135 110.592 84.4181" stroke="#FCBE42" stroke-width="0.460149" stroke-miterlimit="10"/>
<path d="M110.624 72.9832C110.624 72.9832 116.033 76.9711 110.929 86.1378C110.929 86.1378 105.29 83.8056 110.624 72.9832Z" fill="#FCBE42"/>
<path d="M115.53 98.6565C115.53 98.6565 113.983 92.0204 122.453 84.1927C122.462 84.1832 125.952 88.7332 115.53 98.6565Z" fill="#FCBE42"/>
<path d="M123.303 111.257C123.303 111.257 120.248 105.683 127.672 96.845C127.672 96.845 132.376 100.127 123.303 111.257Z" fill="#FCBE42"/>
<path d="M123.055 111.567C123.055 111.567 119.54 106.393 110.053 111.854C110.053 111.854 111.211 118.139 123.055 111.567Z" fill="#FCBE42"/>
<path d="M115.589 98.5328C115.589 98.5328 113.02 92.5819 103.413 96.9649C103.404 96.9745 103.629 103.739 115.589 98.5328Z" fill="#FCBE42"/>
<path d="M303.215 29.8798H113.08V285.467H303.215V29.8798Z" fill="#0064B5"/>
<path d="M294.152 38.1625H124.229V274H294.152V38.1625Z" fill="white"/>
<path d="M145.829 84.1116V65.9116H148.091V82.0316H156.385V84.1116H145.829ZM160.545 66.1196C160.805 66.3796 160.935 66.7176 160.935 67.1076C160.935 67.5236 160.805 67.8356 160.545 68.0956C160.285 68.3556 159.947 68.4856 159.557 68.4856C159.141 68.4856 158.829 68.3556 158.569 68.0956C158.309 67.8356 158.179 67.5236 158.179 67.1076C158.179 66.7176 158.309 66.3796 158.569 66.1196C158.829 65.8596 159.141 65.7296 159.557 65.7296C159.947 65.7296 160.285 65.8596 160.545 66.1196ZM158.491 70.8516H160.623V84.1116H158.491V70.8516ZM173.424 83.0196C172.384 83.8516 171.084 84.2676 169.524 84.2676C168.224 84.2676 167.106 83.9816 166.144 83.4096C165.156 82.8376 164.402 82.0576 163.882 81.0176C163.336 79.9776 163.076 78.8076 163.076 77.4556C163.076 76.1296 163.336 74.9596 163.882 73.9196C164.428 72.9056 165.208 72.1256 166.196 71.5536C167.184 70.9816 168.302 70.6956 169.602 70.6956C171.162 70.6956 172.436 71.1116 173.45 71.9436C174.464 72.7756 175.114 73.9196 175.374 75.3756H173.216C173.008 74.5436 172.566 73.8676 171.916 73.3476C171.24 72.8536 170.46 72.5936 169.524 72.5936C168.25 72.5936 167.21 73.0616 166.43 73.9456C165.65 74.8556 165.26 76.0256 165.26 77.4556C165.26 78.9116 165.65 80.1076 166.43 81.0176C167.21 81.9276 168.25 82.3696 169.524 82.3696C170.486 82.3696 171.292 82.1356 171.968 81.6156C172.618 81.1216 173.034 80.4196 173.242 79.5356H175.374C175.088 81.0176 174.438 82.1876 173.424 83.0196ZM177.872 73.9196C178.392 72.9056 179.146 72.1256 180.108 71.5536C181.044 70.9816 182.136 70.6956 183.384 70.6956C184.58 70.6956 185.672 70.9556 186.608 71.4496C187.544 71.9696 188.272 72.6976 188.818 73.6336C189.338 74.5956 189.624 75.7136 189.676 76.9876C189.676 77.1956 189.65 77.4816 189.624 77.8976H179.328V78.0796C179.354 79.3796 179.744 80.4196 180.524 81.1996C181.278 81.9796 182.266 82.3696 183.514 82.3696C184.45 82.3696 185.256 82.1356 185.932 81.6676C186.608 81.1996 187.05 80.5236 187.284 79.6656H189.442C189.182 81.0176 188.532 82.1356 187.492 82.9936C186.452 83.8516 185.178 84.2676 183.67 84.2676C182.344 84.2676 181.2 84.0076 180.212 83.4356C179.224 82.8636 178.444 82.0836 177.898 81.0436C177.352 80.0036 177.092 78.8336 177.092 77.4816C177.092 76.1296 177.352 74.9596 177.872 73.9196ZM187.466 76.1296C187.362 75.0116 186.92 74.1276 186.192 73.5036C185.464 72.8796 184.528 72.5676 183.41 72.5676C182.396 72.5676 181.512 72.9056 180.758 73.5556C179.978 74.2316 179.562 75.0896 179.458 76.1296H187.466ZM202.482 72.1516C203.47 73.1396 203.964 74.6476 203.964 76.7276V84.1116H201.832V76.8576C201.832 75.5056 201.52 74.4656 200.896 73.7376C200.272 73.0096 199.388 72.6456 198.244 72.6456C196.996 72.6456 196.008 73.0876 195.306 73.9456C194.578 74.8296 194.24 75.9996 194.24 77.4816V84.1116H192.108V70.8516H193.954L194.24 72.6456C195.228 71.3456 196.684 70.6956 198.608 70.6956C200.22 70.6956 201.494 71.1896 202.482 72.1516ZM208.347 79.7436C208.373 80.5496 208.711 81.1996 209.387 81.6936C210.063 82.2136 210.921 82.4476 211.987 82.4476C212.923 82.4476 213.677 82.2656 214.249 81.9016C214.821 81.5376 215.133 81.0436 215.133 80.4196C215.133 79.8996 214.977 79.5096 214.717 79.2236C214.431 78.9636 214.067 78.7556 213.625 78.6516C213.183 78.5476 212.559 78.4436 211.753 78.3396C210.609 78.2096 209.673 78.0276 208.945 77.7936C208.217 77.5856 207.619 77.2216 207.177 76.7276C206.709 76.2336 206.501 75.5576 206.501 74.6736C206.501 73.8936 206.709 73.2176 207.151 72.5936C207.593 71.9956 208.191 71.5276 208.971 71.1896C209.725 70.8516 210.583 70.6696 211.545 70.6696C213.105 70.6696 214.353 71.0336 215.341 71.7616C216.329 72.4896 216.875 73.5296 216.979 74.8816H214.847C214.743 74.2056 214.405 73.6336 213.833 73.1656C213.235 72.7236 212.507 72.4896 211.623 72.4896C210.713 72.4896 209.985 72.6976 209.439 73.0616C208.867 73.4256 208.607 73.9196 208.607 74.5176C208.607 74.9856 208.737 75.3236 208.997 75.5576C209.257 75.8176 209.569 75.9736 209.985 76.0516C210.401 76.1556 211.025 76.2336 211.857 76.3376C213.001 76.4936 213.963 76.6756 214.717 76.9096C215.471 77.1696 216.069 77.5596 216.537 78.0796C217.005 78.6256 217.239 79.3536 217.239 80.2636C217.239 81.0696 217.005 81.7716 216.537 82.3696C216.069 82.9936 215.419 83.4616 214.639 83.7736C213.833 84.1116 212.949 84.2676 211.987 84.2676C210.245 84.2676 208.841 83.8776 207.801 83.0716C206.761 82.2916 206.215 81.1736 206.215 79.7436H208.347ZM219.969 73.9196C220.489 72.9056 221.243 72.1256 222.205 71.5536C223.141 70.9816 224.233 70.6956 225.481 70.6956C226.677 70.6956 227.769 70.9556 228.705 71.4496C229.641 71.9696 230.369 72.6976 230.915 73.6336C231.435 74.5956 231.721 75.7136 231.773 76.9876C231.773 77.1956 231.747 77.4816 231.721 77.8976H221.425V78.0796C221.451 79.3796 221.841 80.4196 222.621 81.1996C223.375 81.9796 224.363 82.3696 225.611 82.3696C226.547 82.3696 227.353 82.1356 228.029 81.6676C228.705 81.1996 229.147 80.5236 229.381 79.6656H231.539C231.279 81.0176 230.629 82.1356 229.589 82.9936C228.549 83.8516 227.275 84.2676 225.767 84.2676C224.441 84.2676 223.297 84.0076 222.309 83.4356C221.321 82.8636 220.541 82.0836 219.995 81.0436C219.449 80.0036 219.189 78.8336 219.189 77.4816C219.189 76.1296 219.449 74.9596 219.969 73.9196ZM229.563 76.1296C229.459 75.0116 229.017 74.1276 228.289 73.5036C227.561 72.8796 226.625 72.5676 225.507 72.5676C224.493 72.5676 223.609 72.9056 222.855 73.5556C222.075 74.2316 221.659 75.0896 221.555 76.1296H229.563Z" fill="#0064B7"/>
<path d="M174.538 29.8799V38.5376C174.538 43.3191 178.409 47.1954 183.182 47.1954H229.618C234.394 47.1954 238.263 43.3191 238.263 38.5376V29.8799H174.536H174.538Z" fill="#033E9F"/>
<path d="M215.805 263.281C213.11 264.155 210.479 264.611 208.413 264.438C205.262 264.176 203.487 262.523 203.417 259.785C203.36 257.613 204.261 255.71 206.028 254.169C206.011 254.021 205.997 253.872 205.985 253.723C205.869 252.192 206.196 251.174 206.957 250.699C208.187 249.931 210.015 250.982 210.092 251.026L209.683 251.726C209.273 251.488 208.057 250.963 207.383 251.386C206.802 251.75 206.734 252.753 206.784 253.567C208.221 252.527 210.097 251.676 212.386 251.059C214.078 250.6 215.962 250.294 217.666 250.157C217.674 249.967 217.69 249.795 217.712 249.657C217.767 249.281 217.899 248.841 218.267 248.753C218.408 248.722 218.678 248.726 218.92 249.094C219.074 249.331 219.153 249.67 219.168 250.078C219.754 250.065 220.301 250.075 220.782 250.111C220.788 250.101 220.791 250.09 220.796 250.08C220.678 249.12 220.762 247.99 220.921 247.26C221.127 246.322 221.463 245.847 221.934 245.803C222.217 245.777 222.463 245.929 222.575 246.2C222.839 246.836 222.343 248.554 221.629 250.202C221.629 250.205 221.629 250.207 221.631 250.21C222.302 250.323 222.758 250.51 222.9 250.769C223.008 250.965 223.022 251.266 222.737 251.529C222.196 252.028 221.762 251.902 221.553 251.782C221.377 251.681 221.233 251.508 221.12 251.285C220.578 252.357 219.987 253.274 219.525 253.661C219.098 254.021 218.723 253.877 218.582 253.799C218.509 253.757 218.44 253.703 218.377 253.634C218.192 254.083 217.984 254.519 217.76 254.91C216.913 256.396 215.959 257.162 215.001 257.116C214.609 257.097 214.261 256.941 213.968 256.658C213.439 257.805 212.772 258.897 212.111 259.713C211.437 260.543 210.579 260.848 209.693 260.571C208.123 260.08 206.703 257.807 206.17 255.114C204.828 256.427 204.176 257.982 204.22 259.765C204.28 262.1 205.713 263.401 208.475 263.631C215.448 264.212 227.676 257.725 228.601 252.952C227.847 256.833 222.045 261.255 215.8 263.279L215.805 263.281ZM206.885 254.493C207.31 257.334 208.732 259.422 209.936 259.799C210.502 259.976 211.023 259.775 211.483 259.204C212.268 258.234 212.947 257.037 213.433 255.87C213.293 255.568 213.182 255.215 213.098 254.814C212.902 253.877 212.87 252.592 213.101 251.71C211.799 252.033 210.493 252.468 209.283 253.039C208.358 253.478 207.556 253.963 206.885 254.493ZM214.33 255.822C214.503 256.086 214.734 256.293 215.042 256.307C215.656 256.332 216.393 255.679 217.061 254.508C217.409 253.898 217.686 253.247 217.895 252.621C217.76 252.113 217.691 251.52 217.667 250.975C216.769 251.047 215.791 251.169 214.785 251.35C215.31 252.372 215.006 254.1 214.33 255.822ZM218.738 252.635C218.865 253.015 218.978 253.089 218.978 253.091C219.43 252.701 219.946 251.86 220.417 250.9C220.034 250.886 219.6 250.882 219.129 250.894C219.064 251.436 218.927 252.033 218.738 252.635ZM213.989 251.594C213.783 252.024 213.636 253.399 213.886 254.623C214.292 253.281 214.376 252.12 213.989 251.594ZM221.958 251.076C221.958 251.076 221.961 251.076 221.963 251.076C221.961 251.076 221.96 251.076 221.958 251.076ZM221.838 246.92C221.766 247.128 221.697 247.423 221.646 247.767C221.742 247.435 221.809 247.143 221.838 246.92Z" fill="#0064B7"/>
<path d="M175.261 143.535H144.529V112.785H175.261V143.535ZM145.976 142.086H173.813V114.234H145.976V142.086Z" fill="#0064B5"/>
<path d="M160.659 137.353C160.015 137.353 159.4 137.067 158.985 136.564L149.501 125.086C148.737 124.162 148.867 122.792 149.791 122.028C150.714 121.263 152.083 121.393 152.847 122.318L160.368 131.421L173.974 108.571C174.588 107.541 175.921 107.203 176.951 107.817C177.98 108.431 178.318 109.765 177.704 110.795L162.522 136.292C162.16 136.899 161.526 137.291 160.824 137.346C160.769 137.351 160.712 137.353 160.657 137.353H160.659Z" fill="#0064B7"/>
<path d="M175.261 191.613H144.529V160.864H175.261V191.613ZM145.976 190.165H173.813V162.313H145.976V190.165Z" fill="#0064B5"/>
<path d="M160.659 185.167C160.015 185.167 159.4 184.881 158.985 184.379L149.501 172.901C148.737 171.977 148.867 170.607 149.791 169.842C150.714 169.078 152.083 169.208 152.847 170.132L160.368 179.236L173.974 156.388C174.588 155.357 175.921 155.02 176.951 155.633C177.98 156.247 178.318 157.581 177.704 158.611L162.522 184.108C162.16 184.715 161.526 185.107 160.824 185.162C160.769 185.167 160.712 185.169 160.657 185.169L160.659 185.167Z" fill="#0064B7"/>
<path d="M175.261 238.696H144.529V207.947H175.261V238.696ZM145.976 237.25H173.813V209.397H145.976V237.25Z" fill="#0064B5"/>
<path d="M160.659 231.799C160.015 231.799 159.4 231.513 158.985 231.011L149.501 219.533C148.737 218.609 148.867 217.239 149.791 216.474C150.714 215.71 152.083 215.84 152.847 216.764L160.368 225.867L173.974 203.018C174.588 201.987 175.921 201.65 176.951 202.264C177.98 202.877 178.318 204.211 177.704 205.241L162.522 230.738C162.16 231.345 161.526 231.738 160.824 231.792C160.769 231.798 160.712 231.799 160.657 231.799H160.659Z" fill="#0064B7"/>
<g opacity="0.5">
<path d="M236.048 119.96H195.973V122.961H236.048V119.96Z" fill="#DBE9F8"/>
<path d="M270.097 119.96H260.989V122.96H270.097V119.96Z" fill="#DBE9F8"/>
<path d="M236.048 133.36H195.973V136.36H236.048V133.36Z" fill="#DBE9F8"/>
<path d="M270.097 133.36H256.518V136.36H270.097V133.36Z" fill="#DBE9F8"/>
<path d="M270.097 126.66H258.936V129.66H270.097V126.66Z" fill="#DBE9F8"/>
<path d="M236.74 126.66H225.578V129.66H236.74V126.66Z" fill="#DBE9F8"/>
<path d="M220.774 126.66H195.973V129.66H220.774V126.66Z" fill="#DBE9F8"/>
</g>
<path d="M234.518 166.136H195.973V169.136H234.518V166.136Z" fill="#DBE9F8"/>
<path d="M236.048 179.536H195.973V182.536H236.048V179.536Z" fill="#DBE9F8"/>
<path d="M234.019 172.836H223.647V175.836H234.019V172.836Z" fill="#DBE9F8"/>
<path d="M220.774 172.836H195.973V175.836H220.774V172.836Z" fill="#DBE9F8"/>
<path d="M236.048 213.623H195.973V216.624H236.048V213.623Z" fill="#DBE9F8"/>
<path d="M236.048 227.023H195.973V230.023H236.048V227.023Z" fill="#DBE9F8"/>
<path d="M241.075 220.323H223.647V223.324H241.075V220.323Z" fill="#DBE9F8"/>
<path d="M220.774 220.323H195.973V223.324H220.774V220.323Z" fill="#DBE9F8"/>
<path d="M165.553 255.136H144.529V257.265H165.553V255.136Z" fill="#0064B5"/>
<path d="M191.446 255.136H170.422V257.265H191.446V255.136Z" fill="#0064B5"/>
<path d="M173.685 259.859H144.529V261.988H173.685V259.859Z" fill="#0064B5"/>
<path d="M269.708 164.419L277.244 172.524C277.244 172.524 279.841 175.344 277.244 177.862C274.646 180.387 272.85 182.198 272.85 182.198L269.708 164.419Z" fill="#FFBF99"/>
<path d="M204.088 131.614L201.411 129.487C201.411 129.487 200.966 129.083 200.529 129.271C200.092 129.46 200.058 129.918 200.724 130.422C201.384 130.934 203.368 132.556 203.368 132.556L204.088 131.614Z" fill="#0064B7"/>
<path d="M204.486 130.577L202.514 133.162L212.707 146.29L219.705 136.717L204.486 130.577Z" fill="#649EEA"/>
<path d="M219.705 136.717L243.462 154.678C241.652 157.162 238.759 161.369 236.801 164.25L212.708 146.29L219.705 136.717Z" fill="#0064B7"/>
<path d="M236.801 164.25C238.759 161.369 241.652 157.155 243.462 154.677L272.743 176.812L267.939 187.455L236.801 164.25Z" fill="#649EEA"/>
<path d="M278.273 180.999L279.054 181.592C279.054 181.592 280.319 182.527 279.276 183.84C277.997 185.449 274.404 190.686 274.404 190.686C274.404 190.686 273.563 191.871 272.897 191.36C272.238 190.841 270.691 189.515 270.691 189.515L267.939 187.469L272.743 176.825L278.273 180.999Z" fill="#0064B7"/>
<path d="M254.933 201.417L265.987 293.436L273.893 292.668L275.03 199.021L254.933 201.417Z" fill="#0064E1"/>
<path d="M266.977 201.417L246.213 293.436L238.308 292.668L243.744 199.021L266.977 201.417Z" fill="#003EB0"/>
<path d="M260.147 143.893C260.147 143.893 260.827 147.724 262.267 151.568C263.707 155.411 264.433 156.953 264.433 156.953C264.433 156.953 259.744 162.19 255.189 161.329C250.634 160.467 250.701 157.418 250.701 157.418C250.701 157.418 254.967 154.079 255.068 149.508C255.168 144.937 255.168 144.937 255.168 144.937L260.147 143.893Z" fill="#FFBF99"/>
<path d="M250.856 133.398C250.856 133.398 248.501 136.394 248.387 141.732C248.272 147.071 248.952 150.894 251.233 150.948C253.52 150.995 258.122 149.575 258.916 148.067C259.71 146.559 261.237 146.593 261.305 143.543C261.372 140.494 257.712 133.553 254.664 133.486C251.616 133.412 250.856 133.398 250.856 133.398Z" fill="#FFBF99"/>
<path d="M248.568 133.344C248.568 133.344 246.415 127.198 247.956 126.464C249.496 125.737 252.511 127.326 253.257 128.107C254.004 128.888 255.525 128.922 256.285 128.935C256.285 128.935 263.901 129.103 265.395 130.658C266.889 132.213 266.869 132.981 266.855 133.742C266.842 134.502 266.781 137.491 267.501 139.093C267.81 139.787 268.18 142.924 266.593 145.94C265.005 148.956 263.464 149.683 262.697 149.669C261.937 149.656 261.25 149.636 261.19 148.875C261.129 148.047 260.854 146.882 260.497 145.812C260.154 144.789 259.804 142.749 259.804 142.749C259.804 142.749 259.124 138.918 257.637 137.363C256.144 135.808 256.144 135.808 253.116 134.974C250.075 134.146 249.281 135.653 248.568 133.344Z" fill="#170856"/>
<path d="M258.721 139.134C257.564 140.407 259.037 142.729 259.037 142.729C259.037 142.729 261.305 143.544 261.358 141.255C261.412 138.966 259.878 137.862 258.721 139.134Z" fill="#FFBF99"/>
<path d="M273.886 298.666C273.886 298.666 274.33 299.911 271.767 299.891C269.203 299.871 255.256 299.743 255.256 299.743C255.256 299.743 252.571 299.184 255.067 298C257.564 296.822 265.039 293.536 265.039 293.536C265.039 293.536 265.604 293.388 265.61 291.954L274.068 292.028L273.886 298.666Z" fill="#170856"/>
<path d="M246.637 298.666C246.637 298.666 247.081 299.911 244.518 299.891C241.954 299.871 228.007 299.743 228.007 299.743C228.007 299.743 225.322 299.184 227.818 298C230.315 296.822 237.79 293.536 237.79 293.536C237.79 293.536 238.355 293.388 238.361 291.954L246.819 292.028L246.637 298.666Z" fill="#170856"/>
<path d="M254.428 155.472C254.428 155.472 253.601 154.792 252.652 155.546C251.703 156.3 248.407 158.731 246.792 161.881C245.177 165.032 244.632 169.38 244.08 179.552C243.529 189.724 243.616 200.724 243.616 200.724L275.117 201.411C275.117 201.411 276.113 182.912 273.146 171.535C270.179 160.158 265.732 156.206 264.743 155.708C263.754 155.216 262.764 156.199 262.764 156.199C262.764 156.199 258.438 160.178 254.428 155.472Z" fill="#FCBE42"/>
<path d="M241.423 165.092L234.479 172.612C234.479 172.612 233.901 173.77 232.744 172.033C231.586 170.296 226.957 162.198 226.957 159.882C226.957 157.566 226.957 155.829 226.379 154.671C225.8 153.513 224.643 151.777 224.643 151.777C224.643 151.777 223.486 150.04 223.486 151.198C223.486 152.355 223.486 154.092 222.907 154.092C222.328 154.092 218.857 150.619 218.857 150.619C218.857 150.619 218.857 156.408 220.014 156.987C221.171 157.566 222.907 158.724 222.907 160.461C222.907 162.198 228.115 177.243 229.272 179.559C230.429 181.875 232.744 181.875 235.058 180.717C237.373 179.559 247.202 171.461 247.202 171.461L241.423 165.092Z" fill="#FFBF99"/>
<path d="M239.599 165.348C239.599 165.348 250.008 155.512 254.637 158.979C259.266 162.453 246.543 174.025 246.543 174.025C246.543 174.025 240.178 167.657 239.599 165.348Z" fill="#F79F03"/>
<path d="M80.854 251.207C80.854 251.207 84.1094 249.968 83.9544 246.096C83.7994 242.223 81.6291 239.59 85.9696 240.829C90.0001 241.913 91.2402 242.378 94.3406 241.758C97.286 241.139 99.6112 239.745 98.5261 243.772C97.286 247.645 95.8908 250.743 98.8361 251.362C101.937 251.982 105.192 249.658 105.502 255.699C105.812 261.74 101.006 268.246 93.4105 268.556C85.8146 268.866 82.0942 265.613 82.0942 265.613C82.0942 265.613 79.9239 262.67 83.1793 261.895C86.4347 261.121 89.8451 259.727 87.9849 258.333C86.4347 256.939 81.009 256.784 81.009 256.784C81.009 256.784 74.3433 255.08 80.854 251.207Z" fill="#649CE8"/>
<path d="M116.667 252.137C116.202 248.264 116.512 245.476 123.643 244.547C130.774 243.617 134.804 247.8 135.269 252.137C135.734 256.474 129.534 258.178 129.534 258.178C129.534 258.178 125.193 259.417 127.208 263.135C129.534 267.007 130.464 270.57 125.503 271.189C120.542 271.654 114.962 270.415 111.861 268.401C108.761 266.233 105.661 261.276 109.226 258.488C109.226 258.488 110.156 257.868 113.567 257.713C116.977 257.403 116.667 252.137 116.667 252.137Z" fill="#033E9F"/>
<path d="M91.7097 251.517C91.7097 251.517 97.6004 264.838 98.3755 273.822" stroke="#82D8FD" stroke-width="1.13433" stroke-miterlimit="10" stroke-linecap="round" stroke-linejoin="round"/>
<path d="M124.414 253.686C124.414 253.686 114.028 269.021 111.703 274.287" stroke="#579DD3" stroke-width="1.13433" stroke-miterlimit="10" stroke-linecap="round" stroke-linejoin="round"/>
<path d="M94.804 272.738H118.522C118.522 272.738 121.157 272.893 121.002 276.456C120.847 279.709 116.662 279.089 114.491 279.089C112.166 279.089 94.3389 279.089 94.3389 279.089C94.3389 279.089 91.3936 279.554 91.3936 276.301C91.3936 273.048 92.3237 272.738 94.804 272.738Z" fill="#0054A3"/>
<path d="M94.3362 279.089L97.9016 300.001H113.868L116.659 284.356L94.3362 279.089Z" fill="#0054A3"/>
<path d="M94.3362 279.089L116.659 284.356L117.434 279.089H94.3362Z" fill="#016AD3"/>
<path d="M104.576 273.513C104.576 273.513 105.661 250.278 112.792 235.562Z" fill="#FABC42"/>
<path d="M118.372 227.198C118.372 227.198 118.837 234.323 111.861 237.266C112.016 237.111 110.466 231.07 118.372 227.198Z" fill="#FABC42"/>
<path d="M107.989 249.968C107.989 249.968 110.625 243.772 118.531 244.702C118.375 244.547 117.755 250.743 107.989 249.968Z" fill="#FABC42"/>
<path d="M105.354 265.303C105.354 265.303 106.595 258.797 114.811 258.023C114.501 258.023 115.121 264.219 105.354 265.303Z" fill="#FABC42"/>
<path d="M105.041 265.303C105.041 265.303 105.971 258.642 98.6851 255.389C98.6851 255.389 96.0498 260.966 105.041 265.303Z" fill="#FABC42"/>
<path d="M108.142 249.813C108.142 249.813 109.848 243.307 103.182 239.125C103.027 239.28 99.6163 244.391 108.142 249.813Z" fill="#FABC42"/>
<path d="M321.137 114.681L314.182 116.637L316.132 123.612L323.088 121.656L321.137 114.681Z" fill="#24499F"/>
<path d="M98.3591 13.5795L91.4036 15.5354L93.3539 22.5108L100.309 20.5549L98.3591 13.5795Z" fill="#ED3B4E"/>
</svg>
