<svg width="411" height="303" viewBox="0 0 411 303" fill="none" xmlns="http://www.w3.org/2000/svg">
<g clip-path="url(#clip0_2_2)">
<path d="M286.662 142.105C317.622 149.398 348.749 130.519 356.186 99.9372C363.622 69.355 344.553 38.6505 313.592 31.3567C282.632 24.0629 251.505 42.9419 244.069 73.5241C236.632 104.106 255.702 134.811 286.662 142.105Z" stroke="#003EB0" stroke-width="1.12101" stroke-miterlimit="10" stroke-dasharray="6.73 6.73"/>
<path d="M354.441 91.2831C359.672 92.5155 364.931 89.3257 366.187 84.1586C367.444 78.9914 364.222 73.8036 358.991 72.5712C353.76 71.3389 348.5 74.5287 347.244 79.6958C345.987 84.863 349.21 90.0508 354.441 91.2831Z" fill="#EE384E"/>
<path d="M360.985 79.6283L356.764 86.0112L353.18 79.8416L360.985 79.6283Z" fill="white"/>
<path d="M63.0284 95.4248C74.7031 86.0258 76.3634 70.0526 74.8587 55.9284C74.5993 53.5658 74.7031 51.0491 73.4059 49.046C72.1087 47.043 69.3586 45.8103 67.2831 46.9916C65.5708 47.9675 64.9482 50.0219 64.0661 51.8195C62.9246 54.1821 61.0566 56.1852 58.8255 57.5206C57.3726 58.3937 55.5047 59.01 53.948 58.291C51.8206 57.3151 51.3537 54.4903 51.198 52.1277C50.8867 47.7107 50.6272 43.345 50.3159 38.9793C50.1602 36.6167 50.0046 34.2028 49.0706 32.0456C48.1885 29.8885 46.3724 27.8854 44.0894 27.4232C41.7545 26.9609 39.0563 28.4504 38.745 30.7616C38.6412 31.7375 38.9006 32.7133 38.9006 33.6892C38.9006 34.665 38.5374 35.795 37.6034 36.1031C36.6695 36.4626 35.6836 35.8463 34.9053 35.23C32.259 33.0215 30.3911 30.0939 28.6269 27.1663C26.8627 24.2388 25.0985 21.2085 22.7117 18.7945C20.273 16.3806 17.056 14.5316 13.6314 14.583C10.2068 14.6343 6.73035 16.9969 6.1077 20.3354C5.48505 23.7252 7.66432 26.9609 9.99926 29.4776C13.4238 33.2269 17.4192 36.514 21.8296 39.1334C22.6079 39.5957 23.49 40.1093 23.8014 40.9824C24.424 42.5232 23.023 44.1668 21.5183 44.8345C19.806 45.5535 17.8343 45.5021 16.0182 45.8617C14.2022 46.2212 12.2304 47.1457 11.6597 48.9433C10.8814 51.4086 13.0606 53.8226 15.188 55.3121C19.4428 58.3423 24.2165 60.6022 29.1977 62.0403C31.0137 62.5539 32.8817 62.9648 34.3864 64.0947C35.8912 65.2247 36.877 67.2791 36.1506 68.974C35.4242 70.7203 33.2449 71.388 31.4288 71.1825C29.5609 70.9771 27.8486 70.104 26.0844 69.5904C22.7117 68.6145 18.5088 69.1281 16.6409 72.0557C15.3956 74.0074 15.4475 76.5754 16.3296 78.6812C17.1598 80.8384 18.7164 82.636 20.3768 84.2282C26.0844 89.9292 33.1411 94.3463 40.8724 96.452C48.6036 98.5065 55.6603 98.7119 63.0284 95.4248Z" fill="#023EA1"/>
<path d="M58.6699 86.7963C56.0237 79.8113 52.4953 72.3639 48.5519 64.6598C47.566 62.7595 46.5801 60.8591 45.5943 59.0101C44.6084 57.1611 43.6744 55.3122 42.5848 53.5659C40.5093 50.0734 38.2262 46.889 35.9432 43.9101C33.6601 40.9311 31.429 38.209 29.3016 35.641C27.1742 33.0729 25.1506 30.7617 23.1789 28.7073C19.2873 24.5984 15.7589 21.6708 13.2683 19.7191C12.023 18.7433 11.0372 18.0242 10.3626 17.562C10.0513 17.3565 9.79186 17.1511 9.58431 17.0484C9.42865 16.9456 9.32488 16.8943 9.32488 16.8943C9.32488 16.8943 9.42865 16.9456 9.58431 17.0997C9.79186 17.2538 9.99943 17.4079 10.3108 17.6647C10.9853 18.1783 11.9712 18.8974 13.1646 19.8732C15.6552 21.8249 19.1316 24.8038 22.9713 28.9127C24.8911 30.9671 26.9148 33.3297 29.0421 35.8464C31.1695 38.4145 33.4007 41.1366 35.6319 44.1155C37.863 47.0944 40.1461 50.2788 42.2216 53.7713C43.2593 55.5176 44.2452 57.3152 45.1792 59.2156C46.165 61.0646 47.1509 62.9649 48.1368 64.8653C52.0802 72.518 55.6086 79.9653 58.2548 86.9504" fill="#E0E0E0"/>
<path d="M42.4811 53.5661C42.533 53.5661 42.5849 53.2066 42.6367 52.5389C42.7405 51.8712 42.7924 50.9467 42.8962 49.714C43.0518 47.3514 43.1556 44.0644 43.3113 40.4691C43.4151 36.8738 43.5707 33.5868 43.7783 31.2242C43.8821 30.0429 43.9858 29.067 44.0377 28.4507C44.0896 27.783 44.1415 27.4235 44.0896 27.4235C44.0377 27.4235 43.9858 27.783 43.882 28.4507C43.7783 29.1184 43.6226 30.0429 43.4669 31.2242C43.2075 33.5868 42.9481 36.8738 42.8443 40.4691C42.7405 44.013 42.6367 47.2487 42.5848 49.714C42.5329 50.844 42.533 51.7685 42.4811 52.5389C42.4292 53.2066 42.4292 53.5661 42.4811 53.5661Z" fill="#E0E0E0"/>
<path d="M11.5042 50.0735C11.5042 50.1249 11.9193 50.1249 12.7495 50.1249C13.5278 50.1249 14.6694 50.1763 16.0703 50.2276C18.8723 50.3304 22.7638 50.5872 27.0705 51.1008C31.3772 51.6144 35.2168 52.2307 37.9669 52.7443C39.3678 53.0011 40.4575 53.2066 41.2358 53.3606C42.0141 53.5147 42.4292 53.6174 42.4292 53.5661C42.4292 53.5147 42.0141 53.412 41.2358 53.2066C40.4575 53.0011 39.3678 52.6929 37.9669 52.4361C35.2168 51.8198 31.3253 51.1521 27.0186 50.6899C22.7119 50.1763 18.8204 49.9708 15.9665 49.9708C14.5656 49.9708 13.4241 49.9708 12.5939 50.0222C11.9193 50.0222 11.5042 50.0735 11.5042 50.0735Z" fill="#E0E0E0"/>
<path d="M58.2549 86.2827C58.2549 86.2827 58.3068 86.1799 58.4624 85.9231C58.5662 85.615 58.7218 85.2555 58.9294 84.7932C59.2926 83.8174 59.8115 82.3793 60.4341 80.5816C61.6794 76.9864 63.1842 72.0044 64.7927 66.5088C66.4012 60.9618 67.9059 55.9798 69.0475 52.3846C69.6182 50.6383 70.0852 49.2002 70.3966 48.1216C70.5522 47.6594 70.656 47.2998 70.7598 46.9403C70.8636 46.6835 70.8635 46.5294 70.8635 46.5294C70.8635 46.5294 70.8117 46.6321 70.656 46.8889C70.5522 47.1971 70.3965 47.5566 70.189 48.0189C69.8258 48.9947 69.3069 50.4328 68.6843 52.2305C67.439 55.8257 65.9342 60.8077 64.3257 66.3033C62.7172 71.8503 61.2124 76.8323 60.0709 80.4275C59.5002 82.1738 59.0332 83.6119 58.7219 84.6905C58.5662 85.1527 58.4624 85.5123 58.3586 85.8718C58.2549 86.1286 58.2549 86.2827 58.2549 86.2827Z" fill="#E0E0E0"/>
<path d="M16.6409 76.2161C16.6409 76.2161 16.7966 76.2675 17.0561 76.3702C17.3674 76.4729 17.7825 76.5756 18.2495 76.6783C19.391 76.9351 20.8957 77.2947 22.7118 77.7569C26.4477 78.6814 31.6364 80.0168 37.396 81.4549C43.1036 82.9444 48.2924 84.2284 52.0802 85.0502C53.9481 85.461 55.5047 85.8206 56.5425 86.026C57.0095 86.1287 57.4246 86.1801 57.7878 86.2315C58.0472 86.2828 58.2029 86.2828 58.2029 86.2828C58.2029 86.2828 58.0472 86.2315 57.7878 86.1287C57.4765 86.026 57.0613 85.9233 56.5943 85.8206C55.4528 85.5638 53.9481 85.2042 52.132 84.742C48.3961 83.8175 43.2074 82.4821 37.4479 81.044C31.7402 79.5545 26.5515 78.2705 22.7637 77.4488C20.8957 77.0379 19.3391 76.6783 18.3013 76.4729C17.8344 76.3702 17.4193 76.3188 17.0561 76.2675C16.7966 76.2161 16.6409 76.1647 16.6409 76.2161Z" fill="#E0E0E0"/>
<path d="M60.826 66.0883C60.826 66.0883 41.5832 44.8525 37.7113 22.9784" stroke="#FCBE42" stroke-width="0.59243" stroke-miterlimit="10"/>
<path d="M37.7537 8.01583C37.7537 8.01583 44.9084 13.2341 38.158 25.229C38.158 25.229 30.6988 22.1772 37.7537 8.01583Z" fill="#FCBE42"/>
<path d="M44.244 41.6102C44.244 41.6102 42.1975 32.9265 53.4003 22.6839C53.4123 22.6713 58.0287 28.6252 44.244 41.6102Z" fill="#FCBE42"/>
<path d="M54.5242 58.099C54.5242 58.099 50.4837 50.8049 60.3037 39.24C60.3037 39.24 66.5255 43.5347 54.5242 58.099Z" fill="#FCBE42"/>
<path d="M54.1965 58.5043C54.1965 58.5043 49.5467 51.7334 36.9982 58.879C36.9982 58.879 38.5298 67.1031 54.1965 58.5043Z" fill="#FCBE42"/>
<path d="M44.3216 41.449C44.3216 41.449 40.9228 33.6621 28.2161 39.3973C28.2041 39.4099 28.5025 48.2617 44.3216 41.449Z" fill="#FCBE42"/>
<path d="M411 302.805H389.669V303H411V302.805Z" fill="#EBEBEB"/>
<path d="M71.2807 86.2341C73.6508 103.388 59.6275 150.952 59.6275 150.952H52.9121C53.1096 135.552 66.3429 96.7605 71.2807 86.2341Z" fill="#E6E6E6"/>
<path d="M60.4178 150.172H55.48C55.48 150.172 70.2934 108.846 79.3789 95.2008C77.6013 113.33 60.4178 150.172 60.4178 150.172Z" fill="#F0F0F0"/>
<path d="M314.417 216.84H64.367C57.8491 216.84 52.3188 211.577 52.1213 205.144L45.6034 20.5422C45.4059 14.1094 50.5412 8.84619 57.0591 8.84619H307.109C313.627 8.84619 319.157 14.1094 319.355 20.5422L325.873 205.144C326.07 211.577 320.935 216.84 314.417 216.84Z" fill="white"/>
<path d="M314.417 217.229H64.3676C57.4547 217.229 51.7268 211.771 51.5293 204.949L45.0114 21.7676C44.8139 15.1398 50.1467 8.26086 57.0596 8.26086H307.11C314.022 8.26086 319.75 13.719 319.948 20.5417L326.466 205.143C326.663 211.771 321.133 217.229 314.417 217.229Z" fill="#0064B5"/>
<path d="M55.2056 12.9525H310.25C311.764 12.9525 312.89 13.2536 313.737 13.7758C314.581 14.2965 315.173 15.0522 315.592 16.0052C316.441 17.934 316.568 20.6177 316.663 23.6556V23.6566L322.871 200.203V200.203C322.962 203.148 321.797 206.433 319.84 208.982C317.883 211.532 315.167 213.302 312.183 213.302H66.5571C63.5714 213.302 60.7948 211.53 58.728 208.976C56.6624 206.424 55.3433 203.134 55.2515 200.185V200.184L49.0425 23.6361C48.9482 20.6073 49.0159 17.9257 49.8472 16.0033C50.2583 15.0525 50.8531 14.2977 51.7036 13.7767C52.5567 13.2542 53.6914 12.9525 55.2056 12.9525Z" fill="#FCFCFC" stroke="#0064B5" stroke-width="0.583746"/>
<path d="M154.717 99.4913H65.9926C65.1313 99.4913 64.4331 100.19 64.4331 101.051C64.4331 101.912 65.1313 102.61 65.9926 102.61H154.717C155.578 102.61 156.276 101.912 156.276 101.051C156.276 100.19 155.578 99.4913 154.717 99.4913Z" fill="#0064E1"/>
<path d="M154.716 107.288H65.9923C65.1311 107.288 64.4329 107.987 64.4329 108.848C64.4329 109.709 65.1311 110.407 65.9923 110.407H154.716C155.578 110.407 156.276 109.709 156.276 108.848C156.276 107.987 155.578 107.288 154.716 107.288Z" fill="#0064E1"/>
<path d="M154.716 115.476H65.9923C65.1311 115.476 64.4329 116.174 64.4329 117.035C64.4329 117.896 65.1311 118.595 65.9923 118.595H154.716C155.578 118.595 156.276 117.896 156.276 117.035C156.276 116.174 155.578 115.476 154.716 115.476Z" fill="#0064E1"/>
<path d="M154.716 124.248H65.9923C65.1311 124.248 64.4329 124.946 64.4329 125.807C64.4329 126.668 65.1311 127.367 65.9923 127.367H154.716C155.578 127.367 156.276 126.668 156.276 125.807C156.276 124.946 155.578 124.248 154.716 124.248Z" fill="#0064E1"/>
<path d="M154.717 148.652H65.9926C65.1313 148.652 64.4331 149.35 64.4331 150.211C64.4331 151.072 65.1313 151.771 65.9926 151.771H154.717C155.578 151.771 156.276 151.072 156.276 150.211C156.276 149.35 155.578 148.652 154.717 148.652Z" fill="#0064E1"/>
<path d="M154.716 156.449H65.9923C65.1311 156.449 64.4329 157.147 64.4329 158.009C64.4329 158.87 65.1311 159.568 65.9923 159.568H154.716C155.578 159.568 156.276 158.87 156.276 158.009C156.276 157.147 155.578 156.449 154.716 156.449Z" fill="#0064E1"/>
<path d="M154.716 164.636H65.9923C65.1311 164.636 64.4329 165.334 64.4329 166.195C64.4329 167.057 65.1311 167.755 65.9923 167.755H154.716C155.578 167.755 156.276 167.057 156.276 166.195C156.276 165.334 155.578 164.636 154.716 164.636Z" fill="#0064E1"/>
<path d="M154.716 173.408H65.9923C65.1311 173.408 64.4329 174.106 64.4329 174.968C64.4329 175.829 65.1311 176.527 65.9923 176.527H154.716C155.578 176.527 156.276 175.829 156.276 174.968C156.276 174.106 155.578 173.408 154.716 173.408Z" fill="#0064E1"/>
<path d="M298.837 119.167H182.54C181.755 119.167 181.119 119.803 181.119 120.588C181.119 121.373 181.755 122.009 182.54 122.009H298.837C299.622 122.009 300.258 121.373 300.258 120.588C300.258 119.803 299.622 119.167 298.837 119.167Z" fill="#DFECF9"/>
<path d="M298.837 134.455H182.54C181.755 134.455 181.119 135.091 181.119 135.876C181.119 136.66 181.755 137.297 182.54 137.297H298.837C299.622 137.297 300.258 136.66 300.258 135.876C300.258 135.091 299.622 134.455 298.837 134.455Z" fill="#DFECF9"/>
<path d="M298.837 127.351H182.54C181.755 127.351 181.119 127.987 181.119 128.771C181.119 129.556 181.755 130.192 182.54 130.192H298.837C299.622 130.192 300.258 129.556 300.258 128.771C300.258 127.987 299.622 127.351 298.837 127.351Z" fill="#DFECF9"/>
<path d="M298.837 143.322H182.54C181.755 143.322 181.119 143.958 181.119 144.743C181.119 145.528 181.755 146.164 182.54 146.164H298.837C299.622 146.164 300.258 145.528 300.258 144.743C300.258 143.958 299.622 143.322 298.837 143.322Z" fill="#DFECF9"/>
<path d="M306.267 23.7739H60.6457C59.8146 23.7739 59.1513 24.467 59.1878 25.2973L61.1844 70.7536C61.2187 71.5339 61.8613 72.1489 62.6423 72.1489H306.267C307.073 72.1489 307.726 71.4955 307.726 70.6896V25.2333C307.726 24.4273 307.073 23.7739 306.267 23.7739Z" stroke="#0064E1" stroke-width="0.729682" stroke-miterlimit="10"/>
<path d="M299.238 38.4967H67.6095C67.0287 38.4967 66.5579 38.9675 66.5579 39.5483C66.5579 40.1291 67.0287 40.6 67.6095 40.6H299.238C299.819 40.6 300.289 40.1291 300.289 39.5483C300.289 38.9675 299.819 38.4967 299.238 38.4967Z" fill="#0064E1"/>
<path d="M299.238 43.7549H67.6095C67.0287 43.7549 66.5579 44.2257 66.5579 44.8065C66.5579 45.3873 67.0287 45.8581 67.6095 45.8581H299.238C299.819 45.8581 300.289 45.3873 300.289 44.8065C300.289 44.2257 299.819 43.7549 299.238 43.7549Z" fill="#0064E1"/>
<path d="M299.238 49.0131H67.6095C67.0287 49.0131 66.5579 49.4839 66.5579 50.0647C66.5579 50.6455 67.0287 51.1163 67.6095 51.1163H299.238C299.819 51.1163 300.289 50.6455 300.289 50.0647C300.289 49.4839 299.819 49.0131 299.238 49.0131Z" fill="#0064E1"/>
<path d="M299.238 54.2712H67.6095C67.0287 54.2712 66.5579 54.7421 66.5579 55.3229C66.5579 55.9037 67.0287 56.3745 67.6095 56.3745H299.238C299.819 56.3745 300.289 55.9037 300.289 55.3229C300.289 54.7421 299.819 54.2712 299.238 54.2712Z" fill="#0064E1"/>
<path d="M53.9032 153.733L81.8427 131.925C81.8427 131.925 82.606 131.422 83.7085 129.845C84.8205 128.278 86.9595 126.693 88.2033 127.038L90.9737 124.491C90.9737 124.491 91.9443 124.305 90.9737 125.191C90.0032 126.086 89.4566 127.178 89.4566 127.178C89.4566 127.178 90.3236 127.616 90.0786 127.961C90.0786 127.961 90.7759 128.166 90.7005 128.679C90.7005 128.679 92.359 129.192 90.7288 130.797C89.0986 132.41 88.5426 133.054 86.7522 133.837C84.9618 134.621 83.6049 135.544 81.8427 137.195C80.0806 138.837 57.4274 160.365 57.4274 160.365L53.9032 153.733Z" fill="#FFBE9B"/>
<path d="M40.8418 148.258C40.8418 148.258 34.5001 148.109 33.5012 141.066C32.5118 134.024 37.327 131.599 40.0691 130.172C42.8207 128.736 44.498 128.959 45.7324 126.991C46.9669 125.023 47.4192 124.501 47.4192 124.501C47.4192 124.501 52.5831 129.817 48.974 134.537C45.3555 139.248 40.8418 148.258 40.8418 148.258Z" fill="#180857"/>
<path d="M30.5133 270.904C30.4379 270.923 30.4379 271.035 30.4191 271.109C30.2306 271.884 29.2695 276.361 31.7195 276.407C34.2166 276.463 43.7057 276.529 45.0155 276.538C45.1097 276.538 45.1851 276.482 45.2134 276.389C45.3076 276.025 45.4867 275.12 44.8459 274.831C44.8459 274.831 39.3334 272.294 37.4487 270.811C35.7243 269.44 31.2671 270.671 30.5133 270.904Z" fill="#170856"/>
<path d="M54.3377 270.233C54.2623 270.261 54.2529 270.363 54.2434 270.438C54.055 271.277 53.0938 276.221 55.5438 276.342C58.0504 276.464 69.6314 276.352 71.1297 276.342C71.2428 276.342 71.3276 276.277 71.3559 276.184C71.4689 275.848 71.582 275.064 70.5832 274.635C70.5832 274.635 64.1848 272.098 61.2637 270.326C58.6535 268.731 55.0256 269.962 54.3377 270.233Z" fill="#170856"/>
<path d="M29.006 192.219L30.4477 270.989L37.4585 270.803L43.0276 220.798L42.3585 206.919L38.2972 192.06L29.006 192.219Z" fill="#0064E1"/>
<path d="M36.4043 192.089C36.4043 192.089 43.0288 225.556 45.0547 229.445L54.28 270.318H61.2908L56.9373 191.958L36.4043 192.089Z" fill="#003EB0"/>
<path d="M48.9652 134.528C48.9652 134.528 52.4706 137.401 52.5177 142.382C52.5648 147.363 51.6885 147.54 49.6625 147.54C47.6366 147.54 46.0252 147.353 45.799 148.454C45.5729 149.555 45.8462 153.845 46.3079 155.123C46.7602 156.401 37.9213 155.123 37.9213 155.123C37.9213 155.123 40.3619 148.557 40.7388 145.684C41.1157 142.811 40.6917 139.565 42.4444 136.832C44.1688 134.062 46.2419 131.963 48.9652 134.528Z" fill="#FFBE9B"/>
<path d="M47.1659 156.653L54.2709 152.735L58.1438 160.486L50.2566 167.155L47.1659 156.653Z" fill="#F79F03"/>
<path d="M36.4054 156.018C36.4054 156.018 32.1461 160.794 30.6667 172.341C29.1872 183.889 29.0082 192.218 29.0082 192.218H56.929C56.929 192.218 54.8087 175.923 52.9335 167.304C51.0583 158.676 47.6848 155.197 47.6848 155.197C47.6848 155.197 46.8085 154.143 45.7531 154.834C44.6883 155.524 42.1535 155.654 39.9014 154.6C37.6304 153.537 37.1215 155.057 36.4054 156.018Z" fill="#FCBE42"/>
<path d="M42.05 138.856C42.05 138.856 40.5329 138.492 39.8356 139.266C39.1383 140.04 39.9769 141.729 41.3527 142.232C42.7473 142.745 42.05 138.856 42.05 138.856Z" fill="#FFBE9B"/>
<path d="M46.0147 170.298C46.0147 170.298 49.1997 192.199 50.8582 198.16C52.5166 204.12 55.0043 209.726 55.0043 209.726C55.0043 209.726 56.1163 212.468 55.0043 213.494C53.8924 214.52 51.2822 215.686 50.7545 213.839C50.2362 211.992 50.2362 208.019 49.5389 207.133C48.8416 206.237 42.8391 192.414 40.8225 184.131C38.8154 175.848 38.4762 172.155 38.4762 172.155L46.0147 170.298Z" fill="#FFBE9B"/>
<path d="M47.1638 171.409C47.1638 171.409 45.2509 159.339 40.1342 159.283C40.1342 159.283 37.2318 159.283 37.1565 163.658C37.0811 168.032 37.5051 173.228 37.5051 173.228L47.1638 171.409Z" fill="#F79F03"/>
<path opacity="0.5" d="M320.543 297.877C343.991 297.877 362.998 294.935 362.998 291.306C362.998 287.677 343.991 284.735 320.543 284.735C297.096 284.735 278.088 287.677 278.088 291.306C278.088 294.935 297.096 297.877 320.543 297.877Z" fill="#E7E6EC"/>
<path d="M298.033 276.045L343.704 275.197L345.42 291.306H350.352L333.627 137.633C333.627 136.573 332.34 135.301 330.839 134.453C329.553 134.029 328.481 134.453 328.695 135.513L329.767 146.323C329.767 146.959 329.338 147.595 328.909 147.595L285.382 148.443C284.953 148.443 284.524 148.019 284.31 147.383L283.238 136.149C283.238 135.089 281.951 133.817 280.45 132.97C279.164 132.546 278.092 132.97 278.306 134.029L293.101 271.381C292.887 271.805 293.101 272.229 293.316 272.865L295.245 291.306H299.748L298.033 276.045ZM284.739 153.318L330.41 152.47L332.555 172.395L286.883 173.243L284.739 153.318ZM287.526 177.906L333.198 177.058L335.342 196.982L289.671 197.83L287.526 177.906ZM289.885 202.281L335.557 201.434L337.701 221.358L292.029 222.206L289.885 202.281ZM292.672 226.869L338.344 226.021L340.488 245.946L294.817 246.794L292.672 226.869ZM295.245 251.457L340.917 250.609L343.061 270.534L297.39 271.381L295.245 251.457Z" fill="#E7E6EC"/>
<path d="M311.748 60.0544C311.748 60.0544 310.676 61.5382 310.461 63.8698C310.461 63.8698 309.175 64.0817 308.96 65.3535C308.96 66.8373 310.676 67.2612 310.89 69.1688C310.89 70.8645 311.748 72.7722 312.82 73.6201C313.678 74.4679 314.535 74.044 314.535 74.6799C314.535 75.3158 314.75 75.9517 314.75 75.9517L321.397 76.1636L321.182 71.7124L317.537 60.6903L311.748 60.0544Z" fill="#FFB48F"/>
<path d="M314.756 131.91L288.811 130.638L298.675 169.639H294.815L277.233 126.611C277.233 126.611 272.944 119.828 282.379 118.768C291.813 117.92 308.324 117.072 308.324 117.072L315.614 116.648L314.756 131.91Z" fill="#DE051F"/>
<path d="M314.751 56.8753L312.822 52.6361C312.822 52.6361 312.178 51.3643 310.892 52.0002C309.605 52.6361 310.463 56.6634 310.463 56.6634L314.751 56.8753Z" fill="#FFB48F"/>
<path d="M312.83 49.2446C312.83 49.0327 312.615 48.6087 312.401 48.3968L309.613 44.7934C309.399 44.3695 308.541 43.5216 308.112 43.5216C307.469 43.5216 307.04 43.5216 306.826 45.0054C306.397 47.9728 307.683 51.1523 308.327 52.0001C308.97 52.848 310.471 53.9078 310.471 53.9078L313.687 54.9676L312.83 49.2446Z" fill="#FFB48F"/>
<path d="M325.474 118.556C325.474 118.556 327.833 151.411 328.262 155.226C328.476 159.041 331.263 165.612 331.692 173.667C332.121 181.509 331.907 192.32 331.907 192.32H327.404C327.404 192.32 325.26 181.298 322.901 170.275C320.542 159.253 313.467 131.91 313.467 131.91L310.25 114.529L325.045 115.377L325.474 118.556Z" fill="#EE384E"/>
<path d="M320.549 70.2288L328.697 79.9791C328.697 79.9791 330.412 83.1585 329.34 87.1858C328.482 91.4251 326.124 94.3925 325.695 101.387C325.266 108.382 325.48 117.285 325.48 117.285H302.109C302.109 117.285 302.109 91.637 303.395 85.4901C303.395 85.4901 304.467 77.4355 309.399 76.5876C314.116 75.7398 321.192 75.3159 321.192 75.3159L320.549 70.2288Z" fill="#0083F9"/>
<path d="M313.252 55.8153C313.252 55.8153 313.252 56.2392 314.11 56.2392C314.753 56.2392 319.899 56.2392 322.258 58.1469C324.402 60.2665 325.045 64.7177 323.544 68.1092C322.258 71.5006 318.827 72.7723 316.254 71.7125C316.254 71.7125 312.823 70.4408 311.537 66.6254C310.25 62.8101 311.322 60.9024 311.322 60.9024C311.322 60.9024 311.536 60.4785 310.893 60.2665C310.25 60.2665 308.963 58.7828 309.607 56.6632C309.821 54.7555 312.823 54.3316 313.252 55.8153Z" fill="#170856"/>
<path d="M299.534 171.547C299.534 171.547 299.534 172.818 298.248 172.818C296.747 172.818 287.956 173.03 287.956 173.03C287.956 173.03 286.24 172.818 288.385 171.971C290.529 171.123 294.817 169.639 294.817 169.639H298.891L299.534 171.547Z" fill="#170856"/>
<path d="M332.118 193.379C332.118 193.379 333.404 196.77 331.904 196.982C330.403 197.194 326.543 197.194 326.543 197.194C326.543 197.194 324.828 196.77 326.114 195.286C327.401 193.803 327.615 192.319 327.615 192.319H332.118V193.379Z" fill="#170856"/>
<path d="M277.012 75.7396L272.724 71.5004C272.724 71.5004 271.437 70.6525 271.866 71.9243C272.08 72.9841 272.724 73.832 271.866 73.408C271.008 72.9841 267.792 70.2286 266.72 70.4406C265.648 70.6525 265.219 72.3482 267.149 74.2559C269.079 75.9516 273.367 78.0712 275.94 78.0712C278.299 77.8593 277.012 75.7396 277.012 75.7396Z" fill="#FFB48F"/>
<path d="M310.035 77.2238C307.247 77.2238 302.53 77.4358 299.099 77.6477C294.597 77.8597 292.023 78.0717 289.45 77.4358C287.735 76.7999 279.802 75.7401 276.371 75.1042C275.299 74.8922 274.655 74.8922 274.655 74.8922C274.655 74.8922 272.94 74.4683 272.726 75.5281C272.511 76.5879 273.369 78.2836 275.942 78.9195C278.086 79.5554 286.877 83.3707 286.877 83.3707C286.877 83.3707 289.236 84.4305 293.739 85.0664C298.242 85.4904 312.179 86.5502 313.466 84.8545C314.323 83.5827 314.966 81.2511 314.538 79.5554C313.68 77.6477 310.892 77.2238 310.035 77.2238Z" fill="#0064B7"/>
<path d="M14.6076 108.879L7.43579 110.874L9.4468 117.99L16.6186 115.995L14.6076 108.879Z" fill="#ED3B4E"/>
<path d="M357.368 159.435L350.222 161.423L352.226 168.512L359.372 166.524L357.368 159.435Z" fill="#24499F"/>
<path d="M85.2049 230.372C85.2049 230.372 88.2973 229.207 88.15 225.568C88.0028 221.929 85.9412 219.454 90.0643 220.619C93.8929 221.638 95.0709 222.075 98.0159 221.492C100.814 220.91 103.023 219.6 101.992 223.385C100.814 227.024 99.4885 229.935 102.286 230.517C105.231 231.1 108.324 228.916 108.618 234.593C108.913 240.27 104.348 246.384 97.1324 246.675C89.917 246.966 86.383 243.909 86.383 243.909C86.383 243.909 84.3214 241.144 87.4137 240.416C90.506 239.688 93.7456 238.378 91.9786 237.068C90.506 235.758 85.3522 235.612 85.3522 235.612C85.3522 235.612 79.0203 234.011 85.2049 230.372Z" fill="#649CE8"/>
<path d="M119.224 231.246C118.782 227.607 119.077 224.986 125.85 224.113C132.624 223.24 136.453 227.17 136.894 231.246C137.336 235.322 131.446 236.923 131.446 236.923C131.446 236.923 127.323 238.087 129.237 241.581C131.446 245.22 132.329 248.568 127.617 249.15C122.905 249.587 117.604 248.422 114.659 246.53C111.714 244.492 108.769 239.834 112.156 237.214C112.156 237.214 113.039 236.632 116.279 236.486C119.518 236.195 119.224 231.246 119.224 231.246Z" fill="#033E9F"/>
<path d="M95.5166 230.664C95.5166 230.664 101.112 243.182 101.848 251.625" stroke="#82D8FD" stroke-width="1.00221" stroke-miterlimit="10" stroke-linecap="round" stroke-linejoin="round"/>
<path d="M126.583 232.701C126.583 232.701 116.717 247.112 114.508 252.061" stroke="#579DD3" stroke-width="1.00221" stroke-miterlimit="10" stroke-linecap="round" stroke-linejoin="round"/>
<path d="M98.4559 250.605H120.986C120.986 250.605 123.489 250.751 123.342 254.099C123.194 257.156 119.219 256.573 117.157 256.573C114.948 256.573 98.0141 256.573 98.0141 256.573C98.0141 256.573 95.2163 257.01 95.2163 253.953C95.2163 250.896 96.0998 250.605 98.4559 250.605Z" fill="#0054A3"/>
<path d="M98.0117 256.573L101.399 276.225H116.566L119.216 261.523L98.0117 256.573Z" fill="#0054A3"/>
<path d="M98.0117 256.573L119.216 261.523L119.952 256.573H98.0117Z" fill="#016AD3"/>
<path d="M107.739 251.333C107.739 251.333 108.769 229.499 115.543 215.67Z" fill="#FABC42"/>
<path d="M120.844 207.809C120.844 207.809 121.285 214.505 114.659 217.271C114.806 217.126 113.334 211.449 120.844 207.809Z" fill="#FABC42"/>
<path d="M110.981 229.208C110.981 229.208 113.484 223.385 120.994 224.259C120.847 224.113 120.258 229.936 110.981 229.208Z" fill="#FABC42"/>
<path d="M108.478 243.618C108.478 243.618 109.656 237.505 117.46 236.777C117.166 236.777 117.755 242.599 108.478 243.618Z" fill="#FABC42"/>
<path d="M108.18 243.618C108.18 243.618 109.064 237.359 102.143 234.302C102.143 234.302 99.6394 239.542 108.18 243.618Z" fill="#FABC42"/>
<path d="M111.126 229.062C111.126 229.062 112.746 222.948 106.414 219.018C106.266 219.164 103.027 223.967 111.126 229.062Z" fill="#FABC42"/>
</g>
<defs>
<clipPath id="clip0_2_2">
<rect width="411" height="303" fill="white"/>
</clipPath>
</defs>
</svg>
