<svg width="230" height="232" viewBox="0 0 230 232" fill="none" xmlns="http://www.w3.org/2000/svg">
<path d="M177.551 60.706C171.113 55.4697 170.197 46.5707 171.027 38.7019C171.17 37.3856 171.113 35.9835 171.828 34.8676C172.543 33.7516 174.06 33.0649 175.205 33.723C176.149 34.2667 176.492 35.4113 176.979 36.4127C177.608 37.729 178.638 38.8449 179.869 39.5889C180.67 40.0753 181.7 40.4187 182.558 40.0181C183.732 39.4744 183.989 37.9007 184.075 36.5844C184.247 34.1236 184.39 31.6914 184.561 29.2592C184.647 27.943 184.733 26.5981 185.248 25.3963C185.734 24.1946 186.736 23.0786 187.995 22.8211C189.283 22.5636 190.771 23.3934 190.942 24.681C190.999 25.2247 190.856 25.7683 190.856 26.312C190.856 26.8557 191.057 27.4852 191.572 27.6568C192.087 27.8571 192.63 27.5138 193.06 27.1704C194.519 25.94 195.549 24.309 196.522 22.678C197.495 21.047 198.468 19.3588 199.784 18.0139C201.129 16.6691 202.903 15.639 204.791 15.6676C206.68 15.6962 208.597 17.0124 208.94 18.8723C209.284 20.7609 208.082 22.5636 206.794 23.9656C204.906 26.0545 202.703 27.8858 200.27 29.3451C199.841 29.6026 199.355 29.8887 199.183 30.3752C198.84 31.2336 199.612 32.1493 200.442 32.5212C201.386 32.9218 202.474 32.8932 203.475 33.0935C204.477 33.2938 205.564 33.8089 205.879 34.8104C206.308 36.1838 205.106 37.5287 203.933 38.3585C201.587 40.0467 198.954 41.3057 196.207 42.1069C195.206 42.3931 194.176 42.622 193.346 43.2515C192.516 43.881 191.972 45.0256 192.373 45.9698C192.774 46.9427 193.975 47.3147 194.977 47.2002C196.007 47.0858 196.951 46.5993 197.924 46.3132C199.784 45.7695 202.102 46.0557 203.132 47.6867C203.819 48.774 203.79 50.2047 203.303 51.3779C202.846 52.5797 201.987 53.5812 201.072 54.4682C197.924 57.6443 194.033 60.1052 189.769 61.2783C185.506 62.4229 181.614 62.5373 177.551 60.706Z" fill="#023EA1"/>
<path d="M179.955 55.8988C181.414 52.0073 183.36 47.8582 185.534 43.5661C186.078 42.5074 186.622 41.4487 187.165 40.4186C187.709 39.3885 188.224 38.3584 188.825 37.3855C189.969 35.4397 191.229 33.6657 192.488 32.0061C193.747 30.3464 194.977 28.8299 196.15 27.3992C197.323 25.9685 198.439 24.6809 199.527 23.5363C201.673 21.2472 203.618 19.6162 204.992 18.5288C205.679 17.9852 206.222 17.5846 206.594 17.3271C206.766 17.2126 206.909 17.0981 207.023 17.0409C207.109 16.9837 207.167 16.9551 207.167 16.9551C207.167 16.9551 207.109 16.9837 207.023 17.0695C206.909 17.1554 206.795 17.2412 206.623 17.3843C206.251 17.6704 205.707 18.071 205.049 18.6147C203.676 19.702 201.758 21.3616 199.641 23.6508C198.582 24.7953 197.466 26.1116 196.293 27.5137C195.12 28.9444 193.89 30.4609 192.659 32.1205C191.429 33.7801 190.17 35.5542 189.025 37.4999C188.453 38.4728 187.909 39.4743 187.394 40.533C186.851 41.5631 186.307 42.6219 185.763 43.6806C183.589 47.9441 181.643 52.0931 180.183 55.9846" fill="#E0E0E0"/>
<path d="M188.882 37.3856C188.853 37.3856 188.825 37.1853 188.796 36.8133C188.739 36.4413 188.71 35.9263 188.653 35.2395C188.567 33.9233 188.51 32.092 188.424 30.089C188.367 28.086 188.281 26.2547 188.166 24.9385C188.109 24.2804 188.052 23.7367 188.023 23.3933C187.995 23.0213 187.966 22.821 187.995 22.821C188.023 22.821 188.052 23.0213 188.109 23.3933C188.166 23.7653 188.252 24.2804 188.338 24.9385C188.481 26.2547 188.624 28.086 188.682 30.089C188.739 32.0634 188.796 33.8661 188.825 35.2395C188.853 35.869 188.853 36.3841 188.882 36.8133C188.91 37.1853 188.91 37.3856 188.882 37.3856Z" fill="#E0E0E0"/>
<path d="M205.965 35.4398C205.965 35.4684 205.736 35.4684 205.278 35.4684C204.849 35.4684 204.219 35.497 203.447 35.5256C201.901 35.5829 199.755 35.7259 197.38 36.0121C195.005 36.2982 192.888 36.6416 191.371 36.9277C190.599 37.0708 189.998 37.1853 189.569 37.2711C189.14 37.3569 188.911 37.4142 188.911 37.3855C188.911 37.3569 189.14 37.2997 189.569 37.1853C189.998 37.0708 190.599 36.8991 191.371 36.756C192.888 36.4127 195.034 36.0407 197.409 35.7832C199.784 35.497 201.93 35.3826 203.504 35.3826C204.276 35.3826 204.906 35.3826 205.364 35.4112C205.736 35.4112 205.965 35.4398 205.965 35.4398Z" fill="#E0E0E0"/>
<path d="M180.183 55.6128C180.183 55.6128 180.155 55.5556 180.069 55.4125C180.011 55.2408 179.926 55.0405 179.811 54.783C179.611 54.2394 179.325 53.4382 178.981 52.4367C178.295 50.4337 177.465 47.6581 176.578 44.5964C175.691 41.5061 174.861 38.7306 174.231 36.7276C173.917 35.7547 173.659 34.9535 173.487 34.3526C173.402 34.0951 173.344 33.8948 173.287 33.6945C173.23 33.5514 173.23 33.4656 173.23 33.4656C173.23 33.4656 173.259 33.5228 173.344 33.6659C173.402 33.8376 173.488 34.0379 173.602 34.2954C173.802 34.839 174.088 35.6402 174.432 36.6417C175.118 38.6447 175.948 41.4203 176.835 44.482C177.722 47.5723 178.552 50.3478 179.182 52.3508C179.496 53.3237 179.754 54.1249 179.926 54.7258C180.011 54.9833 180.069 55.1836 180.126 55.3839C180.183 55.527 180.183 55.6128 180.183 55.6128Z" fill="#E0E0E0"/>
<path d="M203.132 50.0043C203.132 50.0043 203.046 50.0329 202.903 50.0901C202.731 50.1474 202.502 50.2046 202.245 50.2618C201.615 50.4049 200.785 50.6052 199.784 50.8627C197.724 51.3778 194.862 52.1217 191.686 52.9229C188.539 53.7527 185.677 54.4681 183.588 54.9259C182.558 55.1548 181.7 55.3551 181.128 55.4696C180.87 55.5268 180.641 55.5554 180.441 55.584C180.298 55.6126 180.212 55.6126 180.212 55.6126C180.212 55.6126 180.298 55.584 180.441 55.5268C180.613 55.4696 180.841 55.4123 181.099 55.3551C181.728 55.212 182.558 55.0117 183.56 54.7542C185.62 54.2392 188.481 53.4952 191.658 52.694C194.805 51.8642 197.666 51.1488 199.755 50.691C200.785 50.4621 201.644 50.2618 202.216 50.1474C202.474 50.0901 202.703 50.0615 202.903 50.0329C203.046 50.0043 203.132 49.9757 203.132 50.0043Z" fill="#E0E0E0"/>
<path d="M178.765 44.3622C178.765 44.3622 189.376 32.5313 191.512 20.3449" stroke="#FCBE42" stroke-width="0.321339" stroke-miterlimit="10"/>
<path d="M191.488 12.0088C191.488 12.0088 187.543 14.916 191.265 21.5986C191.265 21.5986 195.379 19.8984 191.488 12.0088Z" fill="#FCBE42"/>
<path d="M187.91 30.7249C187.91 30.7249 189.038 25.887 182.86 20.1807C182.854 20.1737 180.308 23.4907 187.91 30.7249Z" fill="#FCBE42"/>
<path d="M182.24 39.9111C182.24 39.9111 184.468 35.8474 179.053 29.4044C179.053 29.4044 175.622 31.797 182.24 39.9111Z" fill="#FCBE42"/>
<path d="M182.421 40.137C182.421 40.137 184.985 36.3648 191.905 40.3458C191.905 40.3458 191.06 44.9276 182.421 40.137Z" fill="#FCBE42"/>
<path d="M187.866 30.6346C187.866 30.6346 189.741 26.2964 196.748 29.4916C196.755 29.4986 196.59 34.4301 187.866 30.6346Z" fill="#FCBE42"/>
<path d="M187.275 30.8665H48.5879V217.191H187.275V30.8665Z" fill="#0064B5"/>
<path d="M180.664 36.9045H56.7202V208.831H180.664V36.9045Z" fill="white"/>
<path d="M77.3044 58.2988C78.1396 58.2988 78.8659 58.4622 79.5195 58.789C80.155 59.1159 80.6452 59.5698 80.9902 60.1508C81.3352 60.7318 81.5167 61.4218 81.5167 62.2025C81.5167 63.0014 81.3352 63.6914 80.9902 64.2724C80.6271 64.8716 80.1368 65.3255 79.5013 65.6523C78.8659 65.9791 78.1396 66.1244 77.3044 66.1244H73.9998V71.0085H72.4202V58.2988H77.3044ZM73.9998 64.6718H77.1591C77.9943 64.6718 78.648 64.454 79.1564 64C79.6466 63.5643 79.9008 62.9651 79.9008 62.2025C79.9008 61.4581 79.6466 60.8589 79.1564 60.4232C78.6661 59.9874 78.0125 59.7514 77.1773 59.7514H73.9998V64.6718ZM84.3743 70.5183C83.6844 70.1189 83.1396 69.5742 82.7584 68.8479C82.3589 68.1398 82.1773 67.3227 82.1773 66.3786C82.1773 65.4526 82.3589 64.6355 82.7584 63.9092C83.1396 63.2011 83.6844 62.6383 84.3743 62.2388C85.0643 61.8394 85.8632 61.6397 86.771 61.6397C87.6607 61.6397 88.4596 61.8394 89.1495 62.2388C89.8395 62.6383 90.3842 63.2011 90.7836 63.9092C91.1649 64.6355 91.3647 65.4526 91.3647 66.3786C91.3647 67.3227 91.1649 68.1398 90.7836 68.8479C90.3842 69.5742 89.8395 70.1189 89.1495 70.5183C88.4596 70.9178 87.6607 71.1175 86.771 71.1175C85.8632 71.1175 85.0643 70.9178 84.3743 70.5183ZM88.3688 69.3563C88.8409 69.0658 89.204 68.6663 89.4582 68.1398C89.7124 67.6314 89.8395 67.0322 89.8395 66.3786C89.8395 65.7249 89.7124 65.1439 89.4582 64.6174C89.204 64.109 88.8409 63.6914 88.3688 63.4009C87.8967 63.1104 87.3702 62.9651 86.771 62.9651C86.1537 62.9651 85.6271 63.1104 85.155 63.4009C84.683 63.6914 84.338 64.109 84.0838 64.6174C83.8296 65.1439 83.7025 65.7249 83.7025 66.3786C83.7025 67.0322 83.8296 67.6314 84.0838 68.1398C84.338 68.6663 84.683 69.0658 85.155 69.3563C85.6271 69.6468 86.1537 69.792 86.771 69.792C87.3702 69.792 87.8967 69.6468 88.3688 69.3563ZM93.072 58.2988H94.5608V71.0085H93.072V58.2988ZM98.0349 58.4441C98.2164 58.6256 98.3072 58.8617 98.3072 59.134C98.3072 59.4245 98.2164 59.6424 98.0349 59.824C97.8533 60.0055 97.6173 60.0963 97.3449 60.0963C97.0544 60.0963 96.8365 60.0055 96.6549 59.824C96.4734 59.6424 96.3826 59.4245 96.3826 59.134C96.3826 58.8617 96.4734 58.6256 96.6549 58.4441C96.8365 58.2625 97.0544 58.1717 97.3449 58.1717C97.6173 58.1717 97.8533 58.2625 98.0349 58.4441ZM96.6005 61.7486H98.0893V71.0085H96.6005V61.7486ZM107.029 70.246C106.302 70.827 105.394 71.1175 104.305 71.1175C103.397 71.1175 102.616 70.9178 101.945 70.5183C101.255 70.1189 100.728 69.5742 100.365 68.8479C99.9837 68.1216 99.8022 67.3046 99.8022 66.3604C99.8022 65.4344 99.9837 64.6174 100.365 63.8911C100.746 63.183 101.291 62.6383 101.981 62.2388C102.671 61.8394 103.452 61.6397 104.36 61.6397C105.449 61.6397 106.339 61.9302 107.047 62.5112C107.755 63.0922 108.209 63.8911 108.39 64.9079H106.883C106.738 64.3269 106.429 63.8548 105.975 63.4916C105.503 63.1467 104.959 62.9651 104.305 62.9651C103.415 62.9651 102.689 63.2919 102.144 63.9092C101.6 64.5447 101.327 65.3618 101.327 66.3604C101.327 67.3772 101.6 68.2124 102.144 68.8479C102.689 69.4834 103.415 69.792 104.305 69.792C104.977 69.792 105.54 69.6286 106.012 69.2655C106.466 68.9205 106.756 68.4303 106.901 67.813H108.39C108.191 68.8479 107.737 69.6649 107.029 70.246ZM111.546 58.4441C111.728 58.6256 111.818 58.8617 111.818 59.134C111.818 59.4245 111.728 59.6424 111.546 59.824C111.364 60.0055 111.128 60.0963 110.856 60.0963C110.566 60.0963 110.348 60.0055 110.166 59.824C109.985 59.6424 109.894 59.4245 109.894 59.134C109.894 58.8617 109.985 58.6256 110.166 58.4441C110.348 58.2625 110.566 58.1717 110.856 58.1717C111.128 58.1717 111.364 58.2625 111.546 58.4441ZM110.112 61.7486H111.601V71.0085H110.112V61.7486ZM113.858 63.8911C114.221 63.183 114.748 62.6383 115.42 62.2388C116.073 61.8394 116.836 61.6397 117.707 61.6397C118.542 61.6397 119.305 61.8212 119.959 62.1662C120.612 62.5293 121.121 63.0377 121.502 63.6914C121.865 64.3632 122.065 65.1439 122.101 66.0336C122.101 66.1788 122.083 66.3786 122.065 66.6691H114.875V66.7962C114.893 67.704 115.165 68.4303 115.71 68.975C116.237 69.5197 116.927 69.792 117.798 69.792C118.452 69.792 119.015 69.6286 119.487 69.3018C119.959 68.975 120.267 68.5029 120.431 67.9037H121.938C121.756 68.8479 121.302 69.6286 120.576 70.2278C119.85 70.827 118.96 71.1175 117.907 71.1175C116.981 71.1175 116.182 70.9359 115.492 70.5365C114.802 70.137 114.258 69.5923 113.876 68.866C113.495 68.1398 113.313 67.3227 113.313 66.3786C113.313 65.4344 113.495 64.6174 113.858 63.8911ZM120.558 65.4344C120.485 64.6537 120.177 64.0363 119.668 63.6006C119.16 63.1648 118.506 62.9469 117.725 62.9469C117.017 62.9469 116.4 63.183 115.873 63.6369C115.329 64.109 115.038 64.7081 114.966 65.4344H120.558ZM124.927 67.9582C124.945 68.5211 125.181 68.975 125.653 69.32C126.125 69.6831 126.724 69.8465 127.469 69.8465C128.122 69.8465 128.649 69.7194 129.048 69.4652C129.448 69.211 129.666 68.866 129.666 68.4303C129.666 68.0671 129.557 67.7948 129.375 67.5951C129.175 67.4135 128.921 67.2683 128.613 67.1956C128.304 67.123 127.868 67.0504 127.305 66.9777C126.506 66.887 125.853 66.7599 125.344 66.5965C124.836 66.4512 124.418 66.197 124.11 65.852C123.783 65.507 123.638 65.035 123.638 64.4176C123.638 63.8729 123.783 63.4009 124.092 62.9651C124.4 62.5475 124.818 62.2207 125.362 61.9846C125.889 61.7486 126.488 61.6215 127.16 61.6215C128.249 61.6215 129.121 61.8757 129.811 62.3841C130.501 62.8925 130.882 63.6187 130.955 64.5629H129.466C129.393 64.0908 129.157 63.6914 128.758 63.3645C128.34 63.0559 127.832 62.8925 127.214 62.8925C126.579 62.8925 126.071 63.0377 125.689 63.2919C125.29 63.5461 125.108 63.8911 125.108 64.3087C125.108 64.6355 125.199 64.8716 125.381 65.035C125.562 65.2165 125.78 65.3255 126.071 65.3799C126.361 65.4526 126.797 65.507 127.378 65.5797C128.177 65.6886 128.849 65.8157 129.375 65.9791C129.902 66.1607 130.319 66.433 130.646 66.7962C130.973 67.1775 131.136 67.6859 131.136 68.3213C131.136 68.8842 130.973 69.3744 130.646 69.792C130.319 70.2278 129.865 70.5546 129.321 70.7725C128.758 71.0085 128.14 71.1175 127.469 71.1175C126.252 71.1175 125.272 70.8451 124.545 70.2823C123.819 69.7376 123.438 68.9568 123.438 67.9582H124.927Z" fill="#0064B7"/>
<path d="M93.4163 30.8665V37.178C93.4163 40.6637 96.2396 43.4896 99.7216 43.4896H133.593C137.076 43.4896 139.898 40.6637 139.898 37.178V30.8665H93.415H93.4163Z" fill="#033E9F"/>
<path d="M123.516 201.017C121.551 201.655 119.632 201.987 118.125 201.861C115.826 201.67 114.532 200.465 114.48 198.469C114.439 196.885 115.096 195.498 116.385 194.375C116.373 194.267 116.363 194.158 116.354 194.05C116.269 192.934 116.508 192.191 117.062 191.845C117.96 191.285 119.293 192.051 119.35 192.084L119.051 192.594C118.752 192.42 117.865 192.037 117.374 192.346C116.95 192.611 116.9 193.342 116.936 193.936C117.985 193.177 119.353 192.557 121.023 192.107C122.257 191.772 123.631 191.55 124.874 191.45C124.88 191.311 124.891 191.186 124.908 191.085C124.948 190.811 125.044 190.49 125.312 190.426C125.415 190.404 125.612 190.406 125.789 190.675C125.901 190.848 125.959 191.095 125.97 191.393C126.397 191.383 126.796 191.39 127.147 191.416C127.151 191.409 127.153 191.401 127.157 191.394C127.071 190.694 127.132 189.87 127.248 189.338C127.398 188.654 127.643 188.308 127.987 188.275C128.193 188.257 128.373 188.368 128.454 188.565C128.647 189.029 128.286 190.281 127.765 191.483C127.765 191.485 127.765 191.486 127.766 191.489C128.256 191.571 128.588 191.707 128.692 191.896C128.771 192.039 128.781 192.259 128.573 192.45C128.178 192.814 127.862 192.722 127.71 192.635C127.581 192.561 127.476 192.435 127.393 192.272C126.998 193.054 126.567 193.722 126.23 194.005C125.919 194.267 125.645 194.162 125.542 194.105C125.489 194.075 125.439 194.035 125.392 193.985C125.257 194.312 125.106 194.63 124.943 194.914C124.325 195.998 123.629 196.557 122.93 196.523C122.644 196.509 122.39 196.396 122.177 196.189C121.79 197.025 121.304 197.822 120.822 198.416C120.331 199.021 119.705 199.244 119.058 199.041C117.914 198.684 116.877 197.027 116.489 195.063C115.51 196.021 115.034 197.154 115.066 198.454C115.11 200.156 116.155 201.105 118.17 201.272C123.257 201.696 132.175 196.967 132.85 193.487C132.3 196.317 128.068 199.54 123.513 201.016L123.516 201.017ZM117.01 194.611C117.32 196.682 118.357 198.204 119.236 198.479C119.648 198.608 120.028 198.461 120.364 198.045C120.937 197.338 121.432 196.465 121.787 195.614C121.684 195.394 121.603 195.137 121.542 194.844C121.399 194.162 121.376 193.225 121.544 192.582C120.594 192.817 119.642 193.135 118.76 193.551C118.085 193.871 117.5 194.225 117.01 194.611ZM122.44 195.579C122.567 195.772 122.735 195.923 122.96 195.933C123.408 195.952 123.945 195.476 124.433 194.622C124.686 194.177 124.889 193.702 125.041 193.246C124.943 192.876 124.893 192.444 124.875 192.046C124.22 192.099 123.506 192.187 122.773 192.32C123.155 193.065 122.934 194.325 122.44 195.579ZM125.656 193.256C125.749 193.533 125.831 193.587 125.831 193.588C126.161 193.305 126.537 192.691 126.881 191.991C126.601 191.981 126.285 191.979 125.941 191.987C125.894 192.382 125.794 192.817 125.656 193.256ZM122.192 192.497C122.042 192.811 121.934 193.813 122.117 194.706C122.413 193.727 122.474 192.881 122.192 192.497ZM128.005 192.12C128.005 192.12 128.007 192.12 128.008 192.12C128.007 192.12 128.006 192.12 128.005 192.12ZM127.917 189.09C127.865 189.242 127.815 189.457 127.777 189.708C127.847 189.465 127.896 189.253 127.917 189.09Z" fill="#0064B7"/>
<path d="M93.9435 113.722H71.5269V91.3049H93.9435V113.722ZM72.583 112.665H92.8874V92.361H72.583V112.665Z" fill="#0064B5"/>
<path d="M83.2925 109.215C82.8225 109.215 82.3739 109.006 82.0714 108.64L75.1537 100.273C74.5963 99.5989 74.6913 98.6003 75.3649 98.0429C76.0386 97.4855 77.0372 97.5805 77.5946 98.2541L83.08 104.891L93.0048 88.2331C93.4522 87.482 94.4245 87.2358 95.1757 87.6832C95.9268 88.1306 96.173 89.103 95.7256 89.8541L84.651 108.441C84.3873 108.884 83.9249 109.17 83.4124 109.21C83.3725 109.214 83.3312 109.215 83.2912 109.215H83.2925Z" fill="#0064B7"/>
<path d="M93.9435 148.771H71.5269V126.354H93.9435V148.771ZM72.583 147.715H92.8874V127.411H72.583V147.715Z" fill="#0064B5"/>
<path d="M83.2925 144.072C82.8225 144.072 82.3739 143.863 82.0714 143.497L75.1537 135.13C74.5963 134.456 74.6913 133.457 75.3649 132.9C76.0386 132.343 77.0372 132.438 77.5946 133.111L83.08 139.748L93.0048 123.092C93.4522 122.34 94.4245 122.094 95.1757 122.542C95.9268 122.989 96.173 123.961 95.7256 124.713L84.651 143.3C84.3873 143.742 83.9249 144.028 83.4124 144.068C83.3725 144.072 83.3312 144.073 83.2912 144.073L83.2925 144.072Z" fill="#0064B7"/>
<path d="M93.9435 183.095H71.5269V160.678H93.9435V183.095ZM72.583 182.04H92.8874V161.736H72.583V182.04Z" fill="#0064B5"/>
<path d="M83.2925 178.067C82.8225 178.067 82.3739 177.858 82.0714 177.492L75.1537 169.125C74.5963 168.451 74.6913 167.452 75.3649 166.895C76.0386 166.338 77.0372 166.433 77.5946 167.106L83.08 173.743L93.0048 157.085C93.4522 156.334 94.4245 156.088 95.1757 156.535C95.9268 156.983 96.173 157.955 95.7256 158.706L84.651 177.293C84.3873 177.736 83.9249 178.022 83.4124 178.062C83.3725 178.066 83.3312 178.067 83.2912 178.067H83.2925Z" fill="#0064B7"/>
<g opacity="0.5">
<path d="M138.282 96.5356H109.051V98.7228H138.282V96.5356Z" fill="#DBE9F8"/>
<path d="M163.118 96.5356H156.474V98.7228H163.118V96.5356Z" fill="#DBE9F8"/>
<path d="M138.282 106.304H109.051V108.491H138.282V106.304Z" fill="#DBE9F8"/>
<path d="M163.118 106.304H153.213V108.491H163.118V106.304Z" fill="#DBE9F8"/>
<path d="M163.118 101.419H154.977V103.607H163.118V101.419Z" fill="#DBE9F8"/>
<path d="M138.787 101.419H130.646V103.607H138.787V101.419Z" fill="#DBE9F8"/>
<path d="M127.141 101.419H109.051V103.607H127.141V101.419Z" fill="#DBE9F8"/>
</g>
<path d="M137.166 130.198H109.051V132.385H137.166V130.198Z" fill="#DBE9F8"/>
<path d="M138.282 139.967H109.051V142.154H138.282V139.967Z" fill="#DBE9F8"/>
<path d="M136.802 135.083H129.237V137.27H136.802V135.083Z" fill="#DBE9F8"/>
<path d="M127.141 135.082H109.051V137.269H127.141V135.082Z" fill="#DBE9F8"/>
<path d="M138.282 164.816H109.051V167.004H138.282V164.816Z" fill="#DBE9F8"/>
<path d="M138.282 174.585H109.051V176.772H138.282V174.585Z" fill="#DBE9F8"/>
<path d="M141.949 169.701H129.237V171.888H141.949V169.701Z" fill="#DBE9F8"/>
<path d="M127.141 169.701H109.051V171.888H127.141V169.701Z" fill="#DBE9F8"/>
<path d="M86.8621 195.08H71.5269V196.632H86.8621V195.08Z" fill="#0064B5"/>
<path d="M105.749 195.08H90.4141V196.632H105.749V195.08Z" fill="#0064B5"/>
<path d="M92.7937 198.523H71.5269V200.075H92.7937V198.523Z" fill="#0064B5"/>
<path d="M200.347 92.6869L195.273 94.1128L196.696 99.1979L201.769 97.772L200.347 92.6869Z" fill="#ED3B4E"/>
<path d="M38.0734 75.3615L33 76.7874L34.4226 81.8725L39.496 80.4466L38.0734 75.3615Z" fill="#033E9F"/>
<path d="M214.987 125.018C194.454 124.607 183.927 115.573 183.927 115.573C183.927 115.573 173.399 124.607 152.867 125.018C152.792 135.359 153.315 146.148 155.928 156.153C159.96 171.682 171.01 177.693 183.964 182.173C196.918 177.693 207.968 171.682 212 156.153C214.539 146.148 215.099 135.359 214.987 125.018Z" fill="#033E9F"/>
<path d="M181.502 159.115C181.032 159.115 180.583 158.907 180.281 158.54L173.363 150.173C172.806 149.499 172.901 148.501 173.574 147.943C174.248 147.386 175.247 147.481 175.804 148.154L181.289 154.791L191.214 138.135C191.662 137.384 192.634 137.137 193.385 137.585C194.136 138.032 194.383 139.005 193.935 139.756L182.86 158.343C182.597 158.785 182.134 159.072 181.622 159.112C181.582 159.115 181.541 159.117 181.501 159.117L181.502 159.115Z" fill="white"/>
<path d="M183.977 122.287C184.256 122.499 184.657 122.791 185.181 123.137C186.277 123.862 187.906 124.824 190.064 125.796C194.261 127.685 200.451 129.604 208.581 129.868C208.639 138.167 208.155 146.746 206.164 154.697C204.558 160.963 201.567 165.278 197.702 168.487C193.878 171.661 189.169 173.776 184.007 175.597C178.846 173.776 174.138 171.661 170.314 168.487C166.448 165.278 163.458 160.963 161.852 154.697V154.696L161.66 153.928C159.774 146.198 159.345 137.905 159.376 129.868C167.505 129.604 173.695 127.685 177.891 125.796C180.049 124.824 181.679 123.862 182.774 123.137C183.297 122.791 183.698 122.499 183.977 122.287Z" stroke="white" stroke-width="1.44745"/>
<path d="M17.0818 184.864C17.0818 184.864 19.4563 183.961 19.3432 181.138C19.2301 178.315 17.6471 176.395 20.8131 177.299C23.753 178.089 24.6576 178.428 26.919 177.976C29.0674 177.524 30.7635 176.508 29.972 179.444C29.0674 182.267 28.0498 184.526 30.1981 184.977C32.4596 185.429 34.8341 183.735 35.0602 188.139C35.2864 192.543 31.7811 197.286 26.2406 197.512C20.7001 197.738 17.9863 195.366 17.9863 195.366C17.9863 195.366 16.4033 193.221 18.7778 192.656C21.1524 192.091 23.6399 191.075 22.2831 190.059C21.1524 189.043 17.1948 188.93 17.1948 188.93C17.1948 188.93 12.3327 187.688 17.0818 184.864Z" fill="#649CE8"/>
<path d="M43.2041 185.542C42.8649 182.719 43.091 180.686 48.2923 180.009C53.4936 179.331 56.4335 182.38 56.7727 185.542C57.1119 188.704 52.5891 189.946 52.5891 189.946C52.5891 189.946 49.423 190.849 50.893 193.559C52.5891 196.382 53.2675 198.98 49.6492 199.431C46.0309 199.77 41.9603 198.867 39.6988 197.399C37.4374 195.818 35.176 192.204 37.7766 190.172C37.7766 190.172 38.455 189.72 40.9426 189.607C43.4302 189.381 43.2041 185.542 43.2041 185.542Z" fill="#033E9F"/>
<path d="M25 185.09C25 185.09 29.2967 194.801 29.8621 201.351" stroke="#82D8FD" stroke-width="0.792144" stroke-miterlimit="10" stroke-linecap="round" stroke-linejoin="round"/>
<path d="M48.8549 186.671C48.8549 186.671 41.2791 197.85 39.583 201.69" stroke="#579DD3" stroke-width="0.792144" stroke-miterlimit="10" stroke-linecap="round" stroke-linejoin="round"/>
<path d="M27.2571 200.561H44.5572C44.5572 200.561 46.4794 200.673 46.3663 203.271C46.2532 205.642 43.2003 205.19 41.6173 205.19C39.9212 205.19 26.9179 205.19 26.9179 205.19C26.9179 205.19 24.7695 205.529 24.7695 203.158C24.7695 200.786 25.448 200.561 27.2571 200.561Z" fill="#0054A3"/>
<path d="M26.916 205.19L29.5167 220.435H41.1631L43.1984 209.03L26.916 205.19Z" fill="#0054A3"/>
<path d="M26.916 205.19L43.1984 209.03L43.7638 205.19H26.916Z" fill="#016AD3"/>
<path d="M34.3853 201.125C34.3853 201.125 35.1768 184.187 40.3781 173.459Z" fill="#FABC42"/>
<path d="M44.448 167.361C44.448 167.361 44.7872 172.556 39.6989 174.701C39.812 174.588 38.6813 170.184 44.448 167.361Z" fill="#FABC42"/>
<path d="M36.875 183.961C36.875 183.961 38.7972 179.444 44.5639 180.122C44.4508 180.009 43.9985 184.526 36.875 183.961Z" fill="#FABC42"/>
<path d="M34.9526 195.14C34.9526 195.14 35.8572 190.397 41.85 189.833C41.6239 189.833 42.0762 194.35 34.9526 195.14Z" fill="#FABC42"/>
<path d="M34.7242 195.14C34.7242 195.14 35.4026 190.284 30.0882 187.913C30.0882 187.913 28.166 191.978 34.7242 195.14Z" fill="#FABC42"/>
<path d="M36.9859 183.848C36.9859 183.848 38.2297 179.105 33.3676 176.056C33.2546 176.169 30.767 179.896 36.9859 183.848Z" fill="#FABC42"/>
</svg>
