<svg width="447" height="399" viewBox="0 0 447 399" fill="none" xmlns="http://www.w3.org/2000/svg">
<path d="M50.4588 67.271C50.4588 67.271 45.339 61.4106 49.8161 56.8983C54.2932 52.3861 63.5852 54.5389 64.8706 59.9753C66.1451 65.4118 62.9425 68.2713 66.8968 69.924C70.8401 71.5767 81.1452 77.8394 78.2476 83.1128C75.3608 88.3861 68.8358 87.1683 70.5024 95.1273C72.1691 103.086 85.3391 107.435 76.777 115.992C68.2149 124.549 50.0122 135.107 44.5547 115.764C39.0971 96.4211 56.3194 103.782 48.4327 90.4519C40.5459 77.1218 48.5634 78.557 51.5917 74.5015C54.5983 70.4568 50.4588 67.271 50.4588 67.271Z" fill="#023EA1"/>
<path d="M60.2123 76.1763C60.2123 76.1763 58.2515 96.6825 62.5108 114.971C66.77 133.259 70.4193 136.575 70.4193 136.575" stroke="white" stroke-width="0.872859" stroke-miterlimit="10" stroke-linecap="round" stroke-linejoin="round"/>
<path d="M6.77769 73.1101C6.77769 73.1101 20.1873 63.6508 22.9651 72.3273C25.7538 81.0147 29.5555 80.7537 33.4771 80.2862C37.3987 79.8187 44.0436 76.0675 46.4837 85.3856C48.9347 94.7036 46.5817 100.423 50.6776 103.467C54.7735 106.522 67.2027 124.299 59.0763 127.268C50.9499 130.225 41.2222 122.56 37.9869 118.243C34.7516 113.927 27.5839 113.601 22.0936 114.72C16.6034 115.84 9.37029 112.926 11.6361 105.794C13.9128 98.6613 10.3289 91.2678 5.29621 89.6042C0.2853 87.9407 -2.19837 79.6665 6.77769 73.1101Z" fill="#FCBE42"/>
<path d="M14.1211 81.6768L61.7574 134.41" stroke="white" stroke-width="0.872859" stroke-miterlimit="10" stroke-linecap="round" stroke-linejoin="round"/>
<path d="M72.8879 120.678C72.8879 120.678 46.0578 93.5393 36.0469 69.0537" stroke="#DE051F" stroke-width="0.872859" stroke-miterlimit="10"/>
<path d="M32.2055 52.876C32.2055 52.876 41.4866 60.0629 37.151 71.5773C37.151 71.5773 28.0987 66.6736 32.2055 52.876Z" stroke="#DE051F" stroke-width="0.872859" stroke-miterlimit="10"/>
<path d="M48.1531 90.6033C48.1531 90.6033 43.6215 80.7743 53.3383 72.1304C53.3383 72.1304 60.005 79.5783 48.1531 90.6033Z" stroke="#DE051F" stroke-width="0.872859" stroke-miterlimit="10"/>
<path d="M63.8405 110.665C63.8405 110.665 57.468 101.913 65.3111 91.5401C65.3111 91.5292 73.3068 97.531 63.8405 110.665Z" stroke="#DE051F" stroke-width="0.872859" stroke-miterlimit="10"/>
<path d="M63.577 111.034C63.577 111.034 56.6598 102.695 44.6445 107.707C44.6554 107.707 48.4899 116.927 63.577 111.034Z" stroke="#DE051F" stroke-width="0.872859" stroke-miterlimit="10"/>
<path d="M48.1989 90.4525C48.1989 90.4525 42.4037 81.3085 29.8438 84.7443C29.8438 84.7443 32.4799 94.3776 48.1989 90.4525Z" stroke="#DE051F" stroke-width="0.872859" stroke-miterlimit="10"/>
<path d="M347.738 224.325C371.893 238.271 402.78 229.995 416.725 205.84C430.671 181.685 422.395 150.799 398.24 136.853C374.085 122.907 343.199 131.183 329.253 155.338C315.307 179.493 323.583 210.38 347.738 224.325Z" stroke="#DE051F" stroke-width="0.872859" stroke-miterlimit="10" stroke-dasharray="5.24 5.24"/>
<path d="M417.435 198.043C421.516 200.399 426.735 199.001 429.091 194.92C431.447 190.838 430.049 185.62 425.968 183.264C421.887 180.907 416.668 182.306 414.312 186.387C411.955 190.468 413.354 195.687 417.435 198.043Z" fill="#003EB0"/>
<path d="M426.281 189.173L421.131 193.547L419.675 187.403L426.281 189.173Z" fill="white"/>
<path d="M385.905 321.306H57.2743C54.6321 321.306 52.5 319.172 52.5 316.527V91.6176C52.5 88.9726 54.6321 86.8384 57.2743 86.8384H385.892C388.534 86.8384 390.666 88.9726 390.666 91.6176V316.527C390.679 319.159 388.534 321.306 385.905 321.306Z" fill="#0064B7"/>
<path d="M374.562 311.486H65.4735C62.8313 311.486 60.6992 309.352 60.6992 306.707V132.103C60.6992 129.458 62.8313 127.324 65.4735 127.324H374.575C377.217 127.324 379.349 129.458 379.349 132.103V306.707C379.336 309.352 377.204 311.486 374.562 311.486Z" fill="#D9EAFD"/>
<path d="M368.727 283.042C355.416 274.149 341.484 287.954 341.484 287.954C324.915 270.935 303.559 285.11 303.559 285.11C297.679 275.837 287.153 281.327 287.153 281.327C280.807 272.244 267.887 273.86 267.887 273.86C262.081 258.249 248.844 261.653 248.844 261.653C248.844 248.028 237.933 247.17 237.933 247.17V199.227L223.728 207.307L213.283 199.227V247.179C213.283 247.179 202.372 248.037 202.372 261.662C202.372 261.662 189.135 258.258 183.329 273.869C183.329 273.869 170.409 272.253 164.063 281.336C164.063 281.336 153.537 275.855 147.657 285.119C147.657 285.119 126.301 270.925 109.732 287.963C109.732 287.963 95.8078 274.158 82.4891 283.051C70.8072 296.114 69.1992 312.853 80.0144 310.824H371.216C381.41 310.59 382.031 291.936 368.727 283.042Z" fill="#D7DDEA"/>
<path d="M390.674 116.823V102.695C390.674 93.9351 383.427 86.8384 374.676 86.8384H69.3683C60.6176 86.8384 53.3711 93.9351 53.3711 102.695V116.823H390.674Z" fill="#0064B7"/>
<path d="M74.026 110.692C75.6401 109.076 75.6401 106.457 74.026 104.841C72.4118 103.225 69.7947 103.225 68.1805 104.841C66.5664 106.457 66.5664 109.076 68.1805 110.692C69.7947 112.308 72.4118 112.308 74.026 110.692Z" fill="#DC051F"/>
<path d="M84.1295 112.083C86.4123 112.083 88.2629 110.23 88.2629 107.945C88.2629 105.66 86.4123 103.808 84.1295 103.808C81.8467 103.808 79.9961 105.66 79.9961 107.945C79.9961 110.23 81.8467 112.083 84.1295 112.083Z" fill="#CCE5FF"/>
<path d="M96.6178 112.659C98.9006 112.659 100.751 110.807 100.751 108.521C100.751 106.236 98.9006 104.384 96.6178 104.384C94.335 104.384 92.4844 106.236 92.4844 108.521C92.4844 110.807 94.335 112.659 96.6178 112.659Z" fill="white"/>
<path d="M177.234 300.618H73.7689C72.9056 300.618 72.1992 299.911 72.1992 299.047V139.867C72.1992 139.003 72.9056 138.296 73.7689 138.296H177.234C178.098 138.296 178.804 139.003 178.804 139.867V299.033C178.804 299.911 178.098 300.618 177.234 300.618Z" fill="white"/>
<path d="M167.385 160.263H83.4261C82.7255 160.263 82.1523 160.229 82.1523 160.187V152.475C82.1523 152.433 82.7255 152.399 83.4261 152.399H167.385C168.085 152.399 168.658 152.433 168.658 152.475V160.186C168.658 160.229 168.085 160.263 167.385 160.263Z" fill="#EAF4FF"/>
<path d="M167.385 176.779H83.4261C82.7255 176.779 82.1523 176.744 82.1523 176.703V168.991C82.1523 168.949 82.7255 168.915 83.4261 168.915H167.385C168.085 168.915 168.658 168.949 168.658 168.991V176.702C168.658 176.744 168.085 176.779 167.385 176.779Z" fill="#EAF4FF"/>
<path d="M167.385 193.292H83.4261C82.7255 193.292 82.1523 193.258 82.1523 193.216V185.504C82.1523 185.462 82.7255 185.428 83.4261 185.428H167.385C168.085 185.428 168.658 185.462 168.658 185.504V193.216C168.658 193.258 168.085 193.292 167.385 193.292Z" fill="#EAF4FF"/>
<path d="M167.385 209.808H83.4261C82.7255 209.808 82.1523 209.774 82.1523 209.732V202.02C82.1523 201.978 82.7255 201.944 83.4261 201.944H167.385C168.085 201.944 168.658 201.978 168.658 202.02V209.731C168.658 209.774 168.085 209.808 167.385 209.808Z" fill="#EAF4FF"/>
<path d="M167.385 226.323H83.4261C82.7255 226.323 82.1523 226.288 82.1523 226.247V218.535C82.1523 218.493 82.7255 218.458 83.4261 218.458H167.385C168.085 218.458 168.658 218.493 168.658 218.535V226.246C168.658 226.288 168.085 226.323 167.385 226.323Z" fill="#EAF4FF"/>
<path d="M364.014 138.245V138.682H366.247C366.869 138.682 367.38 139.193 367.38 139.816V141.881H367.816V146.01H367.38V150.139H367.816V154.268H367.38V158.396H367.816V162.525H367.38V166.654H367.816V170.783H367.38V174.912H367.816V179.041H367.38V183.169H367.816V187.298H367.38V191.427H367.816V195.556H367.38V199.685H367.816V203.813H367.38V207.942H367.816V212.071H367.38V214.136C367.38 214.759 366.869 215.27 366.247 215.271H364.014V215.707H359.547V215.271H355.08V215.707H350.612V215.271H346.146V215.707H341.679V215.271H337.212V215.707H332.745V215.271H328.278V215.707H323.812V215.271H319.344V215.707H314.877V215.271H310.41V215.707H305.943V215.271H301.477V215.707H297.01V215.271H292.543V215.707H288.075V215.271H283.608V215.707H279.142V215.271H274.675V215.707H270.208V215.271H265.741V215.707H261.274V215.271H256.807V215.707H252.34V215.271H247.873V215.707H243.406V215.271H238.939V215.707H234.473V215.271H230.006V215.707H225.538V215.271H221.071V215.707H216.604V215.271H212.138V215.707H207.671V215.271H203.204V215.707H198.737V215.271H194.27V215.707H189.803V215.271H187.569C186.986 215.27 186.501 214.821 186.442 214.251L186.437 214.136V212.071H186V207.942H186.437V203.813H186V199.685H186.437V195.556H186V191.427H186.437V187.298H186V183.169H186.437V179.041H186V174.912H186.437V170.783H186V166.654H186.437V162.525H186V158.396H186.437V154.268H186V150.139H186.437V146.01H186V141.881H186.437V139.816C186.437 139.193 186.948 138.682 187.569 138.682H189.803V138.245H194.271V138.682H198.737V138.245H203.204V138.682H207.671V138.245H212.138V138.682H216.604V138.245H221.071V138.682H225.539V138.245H230.006V138.682H234.473V138.245H238.939V138.682H243.406V138.245H247.873V138.682H252.34V138.245H256.807V138.682H261.274V138.245H265.741V138.682H270.208V138.245H274.675V138.682H279.142V138.245H283.608V138.682H288.075V138.245H292.543V138.682H297.01V138.245H301.477V138.682H305.943V138.245H310.41V138.682H314.877V138.245H319.344V138.682H323.812V138.245H328.278V138.682H332.745V138.245H337.212V138.682H341.679V138.245H346.146V138.682H350.612V138.245H355.08V138.682H359.547V138.245H364.014Z" fill="white" stroke="#0064B7" stroke-width="0.872859" stroke-dasharray="4.36 4.36"/>
<path d="M353.452 160.263H196.983C195.678 160.263 194.609 160.246 194.609 160.225V156.369C194.609 156.348 195.678 156.331 196.983 156.331H353.452C354.757 156.331 355.825 156.348 355.825 156.369V160.225C355.825 160.246 354.757 160.263 353.452 160.263Z" fill="#EAF4FF"/>
<path d="M353.452 172.847H196.983C195.678 172.847 194.609 172.83 194.609 172.809V168.953C194.609 168.932 195.678 168.915 196.983 168.915H353.452C354.757 168.915 355.825 168.932 355.825 168.953V172.808C355.825 172.83 354.757 172.847 353.452 172.847Z" fill="#EAF4FF"/>
<path d="M353.452 185.429H196.983C195.678 185.429 194.609 185.412 194.609 185.391V181.535C194.609 181.514 195.678 181.497 196.983 181.497H353.452C354.757 181.497 355.825 181.514 355.825 181.535V185.391C355.825 185.412 354.757 185.429 353.452 185.429Z" fill="#EAF4FF"/>
<path d="M353.452 198.012H196.983C195.678 198.012 194.609 197.995 194.609 197.974V194.118C194.609 194.097 195.678 194.08 196.983 194.08H353.452C354.757 194.08 355.825 194.097 355.825 194.118V197.974C355.825 197.995 354.757 198.012 353.452 198.012Z" fill="#EAF4FF"/>
<g filter="url(#filter0_d_5640_1242)">
<path d="M136.417 272.343L116.951 283.59C116.23 284.022 115.509 284.022 114.788 283.59L95.3215 272.343C94.6005 271.91 94.168 271.189 94.168 270.468V248.118C94.168 247.397 94.6005 246.676 95.3215 246.243L114.788 234.996C115.509 234.564 116.23 234.564 116.951 234.996L136.417 246.243C137.138 246.676 137.57 247.397 137.57 248.118V270.324C137.426 271.189 136.994 271.91 136.417 272.343Z" fill="white"/>
</g>
<path d="M115.797 259.22L130.937 250.28L115.797 242.206V259.22Z" fill="#0A489B"/>
<path d="M115.797 275.803L100.656 267.295V250.28L115.797 242.206V275.803Z" fill="#0F68DE"/>
<path d="M115.22 259.51L100.656 267.296" stroke="#D9D9D9" stroke-width="0.0872859" stroke-miterlimit="10" stroke-linecap="square" stroke-linejoin="bevel"/>
<path d="M115.797 259.22L100.656 250.28L115.797 242.206V259.22Z" fill="#0F68DE"/>
<path d="M115.797 276.236L100.656 267.296L115.797 259.221V276.236Z" fill="#3F86E4"/>
<rect x="24.5625" y="137" width="7.86419" height="7.86419" transform="rotate(45 24.5625 137)" fill="#EE384E"/>
<path d="M204.074 170.817L216.213 224.621C216.213 224.621 220.256 238.272 226.732 238.272C233.209 238.272 236.447 227.027 237.252 222.216C238.057 217.404 248.585 169.219 248.585 169.219L204.074 170.817Z" fill="#D7DDEA"/>
<path d="M212.609 173.813L217.735 196.545L219.346 203.695C219.346 203.695 220.528 208.173 221.334 209.571C222.441 211.494 224.261 213.775 226.568 213.775C230.561 213.775 232.55 208.456 233.053 205.485C233.556 202.513 240.032 172.823 240.032 172.823L212.609 173.813Z" fill="#DCE8F4"/>
<path d="M182.493 150.741C176.025 174.83 175.203 191.693 175.203 191.693C175.203 191.693 175.203 200.533 180.052 194.906C183.282 191.169 192.249 183.861 199.564 178.459C197.819 163.177 196.804 134.627 196.393 121.134C192.795 125.587 186.763 134.835 182.493 150.741Z" fill="#EE384E"/>
<path d="M206.775 137.09L199.485 117.821C199.485 117.821 198.269 118.845 196.406 121.134C196.817 134.626 197.832 163.176 199.577 178.458C203.243 175.736 206.498 173.506 208.394 172.424C214.056 169.202 206.775 137.09 206.775 137.09Z" fill="#EE384E"/>
<path d="M271.298 150.74C277.766 174.829 278.588 191.692 278.588 191.692C278.588 191.692 278.588 200.532 273.739 194.905C270.509 191.168 261.542 183.86 254.227 178.458C255.971 163.176 256.986 134.626 257.398 121.133C260.988 125.586 267.028 134.834 271.298 150.74Z" fill="#EE384E"/>
<path d="M247.017 137.089L254.307 117.82C254.307 117.82 255.523 118.844 257.386 121.133C256.975 134.626 255.96 163.176 254.215 178.458C250.549 175.736 247.294 173.505 245.398 172.423C239.727 169.202 247.017 137.089 247.017 137.089Z" fill="#EE384E"/>
<path d="M238.941 23.0649L208.75 23.0649C203.171 33.2197 197.777 46.629 195.58 62.8101C191.914 89.9866 198.482 136.807 202.358 160.379H246.013C253.655 119.435 253.924 100.566 254.629 86.8236C255.912 61.8112 247.297 38.9214 238.941 23.0649Z" fill="white"/>
<path d="M227.536 88.9128C239.16 88.9128 248.583 79.5628 248.583 68.0289C248.583 56.4951 239.16 47.145 227.536 47.145C215.912 47.145 206.488 56.4951 206.488 68.0289C206.488 79.5628 215.912 88.9128 227.536 88.9128Z" fill="#EE384E"/>
<path d="M222.906 10.6951L212.982 15.9556C211.598 18.1114 210.155 20.4836 208.746 23.0722H243.526C243.384 22.8059 243.249 22.5562 243.107 22.3065C239.105 18.6857 233.669 13.7498 231.396 11.5441C227.587 7.83175 222.906 10.6951 222.906 10.6951Z" fill="#EE384E"/>
<path d="M224.716 0.982804C224.716 0.982804 219.255 6.22667 212.988 15.9486L222.912 10.6881C222.912 10.6881 227.602 7.82479 231.41 11.5288C233.684 13.7429 239.111 18.6788 243.121 22.2912C236.494 9.88073 230.152 1.94834 229.17 0.974482C226.939 -1.22295 224.716 0.982804 224.716 0.982804Z" fill="#BD4149"/>
<path d="M211.398 67.3638L226.398 52.0317C218.219 52.5977 211.734 59.1817 211.398 67.3638Z" fill="#0064E1"/>
<path d="M233.305 53.0376L212.602 74.1878C212.803 74.6623 213.029 75.1284 213.273 75.5862L234.731 53.6535C234.262 53.4288 233.792 53.2124 233.305 53.0376Z" fill="#0064E1"/>
<path d="M235.67 54.1528L213.809 76.4933C216.661 81.0463 221.736 84.0845 227.55 84.0845C236.484 84.0845 243.732 76.8929 243.732 68.0283C243.732 62.1019 240.477 56.9329 235.67 54.1528Z" fill="#0064E1"/>
<path d="M227.534 51.9722C227.148 51.9722 226.77 52.0055 226.384 52.0304L211.385 67.3625C211.377 67.5872 211.352 67.8036 211.352 68.0284C211.352 70.2092 211.796 72.2984 212.593 74.1878L233.297 53.0376C231.51 52.3551 229.572 51.9722 227.534 51.9722Z" fill="#003EB0"/>
<path d="M234.732 53.6621L213.273 75.5948C213.433 75.9111 213.634 76.2024 213.81 76.502L235.672 54.1615C235.361 53.9867 235.051 53.8119 234.732 53.6621Z" fill="#003EB0"/>
<path d="M245.742 160.379H202.363C203.303 166.081 204.075 170.417 204.511 172.798C204.754 174.121 204.888 174.829 204.888 174.829H247.361L243.234 174.421C244.131 169.626 244.97 164.94 245.742 160.379Z" fill="#0064E1"/>
<path d="M243.526 23.0649H238.938C247.284 38.9214 255.908 61.8112 254.625 86.832C254.004 98.9678 251.554 126.044 245.741 160.388H250.346C256.126 126.161 258.593 98.9178 259.213 86.832C260.497 61.8112 251.873 38.9214 243.526 23.0649Z" fill="#BDBDBD"/>
<path d="M243.164 174.829H247.367C248.281 169.893 249.556 165.074 250.353 160.379H245.748C244.968 164.941 244.062 170.026 243.164 174.829Z" fill="#023EA1"/>
<path d="M229.523 126.002C229.515 125.944 229.506 125.878 229.481 125.819C229.28 124.812 228.349 121.033 226.729 121.033C225.966 121.033 225.387 121.042 224.892 121.458C225.949 122.465 226.57 125.02 226.738 125.819C226.746 125.878 226.755 125.944 226.78 126.002C227.887 131.588 231.142 149.292 230.471 161.994C229.666 177.251 227.216 189.378 226.427 193.307C225.958 195.621 225.488 196.869 224.867 197.502C225.169 197.877 225.522 198.118 225.924 198.118C227.543 198.118 228.349 197.319 229.162 193.307C229.959 189.37 232.4 177.251 233.206 161.994C233.877 149.283 230.622 131.579 229.523 126.002Z" fill="#BA3E45"/>
<path d="M226.431 193.299C227.228 189.362 229.669 177.243 230.475 161.986C231.146 149.284 227.899 131.58 226.784 125.994C226.775 125.936 226.767 125.87 226.742 125.811C226.582 125.012 225.953 122.465 224.896 121.45C224.343 121.924 223.915 122.915 223.487 125.037C223.487 125.037 217.824 148.327 219.443 164.383C220.66 176.427 222.329 187.114 223.084 191.717C223.336 193.241 223.495 194.106 223.495 194.106C223.495 194.106 223.957 196.37 224.871 197.502C225.492 196.861 225.962 195.621 226.431 193.299Z" fill="#EE384E"/>
<path d="M413.835 325.847C413.835 325.847 416.552 318.431 422.725 320.228C428.897 322.024 431.522 331.329 427.285 335.106C423.093 338.883 418.947 337.455 419.454 341.739C419.915 346.069 419.362 358.275 413.236 358.275C407.109 358.275 405.037 351.919 398.772 357.262C392.508 362.605 395.041 376.47 383.295 373.015C371.503 369.607 353.309 358.552 367.818 344.272C382.374 329.993 384.171 348.879 392.185 335.382C400.2 321.886 402.78 329.717 407.893 330.408C413.005 331.053 413.835 325.847 413.835 325.847Z" fill="#1F3C6E"/>
<path d="M410.66 338.837C410.66 338.837 391.498 347.082 377.311 359.841C363.123 372.6 361.926 377.391 361.926 377.391" fill="#EE384E"/>
<path d="M334.372 347.542C334.372 347.542 317.237 319.26 298.766 305.671" stroke="#FCBE42" stroke-width="0.659771" stroke-miterlimit="10"/>
<path d="M286.012 298.994C286.012 298.994 290.065 308.298 300.706 307.101C300.706 307.101 298.449 298.441 286.012 298.994Z" stroke="#FCBE42" stroke-width="0.659771" stroke-miterlimit="10"/>
<path d="M314.344 320.365C314.344 320.365 307.066 314.469 297.762 320.826C297.762 320.826 302.598 328.011 314.344 320.365Z" stroke="#FCBE42" stroke-width="0.659771" stroke-miterlimit="10"/>
<path d="M327.883 337.777C327.883 337.777 321.849 330.545 311.531 334.967C311.531 334.967 314.848 342.936 327.883 337.777Z" stroke="#FCBE42" stroke-width="0.659771" stroke-miterlimit="10"/>
<path d="M328.25 337.639C328.25 337.639 322.677 330.038 329.402 321.01C329.448 321.01 336.403 326.215 328.25 337.639Z" stroke="#FCBE42" stroke-width="0.659771" stroke-miterlimit="10"/>
<path d="M314.211 320.365C314.211 320.365 307.762 313.594 313.289 303.737C313.289 303.737 320.844 307.975 314.211 320.365Z" stroke="#FCBE42" stroke-width="0.659771" stroke-miterlimit="10"/>
<path d="M411.431 312.028C411.431 312.028 404.384 311.614 406.963 316.634C409.542 321.655 409.404 324.926 404.061 326.676C398.718 328.426 396.645 331.789 397.382 335.013C398.119 338.238 400.468 343.903 393.098 345.884C385.728 347.865 371.679 352.747 368.547 344.963C365.415 337.132 370.896 325.386 376.424 323.82C381.997 322.3 386.511 324.511 388.676 318.477C390.795 312.443 384.761 311.199 389.137 306.086C393.513 300.927 397.566 295.308 405.765 299.822C413.227 303.829 415.346 311.291 411.431 312.028Z" fill="#EE384E"/>
<path d="M403.384 310.371C403.384 310.371 375.562 342.568 370.449 352.379" stroke="white" stroke-width="0.659771" stroke-miterlimit="10"/>
<path d="M392.33 336.763L381.229 337.132L378.051 328.334" stroke="#FCBE42" stroke-width="0.659771" stroke-miterlimit="10"/>
<path d="M403.709 320.411L395.648 319.49L392.102 312.442" stroke="white" stroke-width="0.659771" stroke-miterlimit="10"/>
<path d="M287.254 323.315C287.254 323.315 284.536 315.899 278.364 317.695C272.191 319.492 269.566 328.796 273.803 332.573C277.995 336.35 282.141 334.922 281.634 339.206C281.173 343.536 281.726 355.743 287.852 355.743C293.979 355.743 296.051 349.386 302.316 354.729C308.58 360.072 306.047 373.937 317.793 370.482C329.539 367.028 347.779 356.019 333.27 341.74C318.714 327.46 316.918 346.346 308.903 332.85C300.888 319.353 298.308 327.184 293.196 327.875C288.083 328.52 287.254 323.315 287.254 323.315Z" fill="#EE384E"/>
<path d="M290.43 336.303C290.43 336.303 309.592 344.548 323.779 357.307C337.966 370.066 339.163 374.857 339.163 374.857" stroke="white" stroke-width="0.659771" stroke-miterlimit="10" stroke-linecap="round" stroke-linejoin="round"/>
<path d="M377.023 331.052L390.52 351.641C390.52 351.641 393.191 355.833 396.922 354.635C401.114 353.346 427.508 343.074 430.271 341.784C433.081 340.54 438.839 337.823 439.76 333.815C440.681 329.854 437.733 328.334 437.733 328.334C437.733 328.334 436.812 327.643 435.983 328.979C435.154 330.268 433.311 333.953 433.311 333.953C433.311 333.953 431.976 335.427 432.298 333.493C432.62 331.558 432.989 329.578 431.423 331.282C429.811 333.032 429.35 336.118 424.191 337.777C418.986 339.481 399.824 344.41 399.824 344.41C399.824 344.41 397.844 345.331 396.139 343.258C394.389 341.139 386.282 325.478 386.282 325.478L377.023 331.052Z" fill="#FDC09B"/>
<path d="M326.595 330.407L313.191 350.767C313.191 350.767 310.519 354.866 306.788 353.714C302.596 352.471 276.387 342.291 273.623 341.001C270.814 339.758 265.102 337.086 264.181 333.079C263.259 329.163 266.161 327.643 266.161 327.643C266.161 327.643 267.083 326.998 267.912 328.242C268.741 329.532 270.583 333.171 270.583 333.171C270.583 333.171 271.919 334.645 271.597 332.71C271.274 330.776 270.952 328.841 272.472 330.545C273.992 332.296 274.499 335.336 279.658 336.994C284.863 338.698 303.886 343.581 303.886 343.581C303.886 343.581 305.821 344.502 307.571 342.429C309.322 340.356 317.382 324.833 317.382 324.833L326.595 330.407Z" fill="#FDC09B"/>
<path d="M327.566 280.061C327.566 280.061 330.422 279.278 329.916 273.428C329.409 267.578 325.908 262.742 331.159 259.748C336.41 256.754 338.115 255.694 340.556 253.207C342.997 250.719 344.425 248.739 352.808 249.568C352.808 249.568 359.441 244.179 365.337 249.015C371.233 253.852 369.391 266.381 370.681 268.361C371.97 270.342 379.939 278.172 380.768 284.851C381.643 291.53 377.175 295.676 370.681 295.354C364.186 295.031 355.434 295.354 355.434 295.354L334.89 291.761C334.89 291.669 328.257 287.984 327.566 280.061Z" fill="#180857"/>
<path d="M346.621 287.337C346.621 287.337 346.759 293.878 345.331 296.043C343.949 298.208 341.277 298.991 341.277 298.991C341.277 298.991 344.133 308.019 348.785 307.835C353.438 307.651 358.597 304.795 360.485 303.735C362.374 302.676 361.867 299.544 361.867 299.544C361.867 299.544 358.643 298.669 357.307 294.661C355.971 290.7 356.017 284.758 356.017 284.758L346.621 287.337Z" fill="#FFB07E"/>
<path d="M383.059 378.449C383.059 378.449 389.554 378.771 394.252 378.771C398.904 378.771 406.412 379.739 406.412 379.739C406.412 379.739 408.393 379.739 408.531 382.134C408.669 384.529 408.669 385.496 408.669 385.496C408.669 385.496 408.808 388.398 406.551 388.398C404.294 388.398 389.876 390.011 386.652 390.011C383.427 390.011 380.986 390.655 380.986 388.398C380.986 386.187 380.848 378.265 383.059 378.449Z" fill="#160758"/>
<path d="M352.616 368.085L328.848 360.393" stroke="#B70B28" stroke-width="0.164943" stroke-miterlimit="10"/>
<path d="M306.922 353.53C306.922 353.53 367.539 372.37 380.805 376.976C380.805 376.976 385.181 378.081 385.319 380.338C385.458 382.595 384.997 385.82 384.536 387.432C384.076 389.044 382.556 390.334 380.16 389.827C377.719 389.367 323.458 378.588 301.901 372.968L295.729 371.034C295.729 371.034 291.214 368.915 291.998 363.48C292.781 357.998 296.88 353.162 299.736 352.839C302.73 352.563 306.922 353.53 306.922 353.53Z" fill="#003EB0"/>
<path d="M301.447 380.247C301.447 380.247 309.047 379.004 313.607 378.773C318.121 378.635 324.109 378.129 325.123 378.773C326.09 379.418 326.919 388.078 326.919 388.078C326.919 388.078 327.702 390.473 321.714 390.013C315.726 389.552 301.953 389.045 301.953 389.045C301.953 389.045 298.867 388.907 298.729 386.143C298.591 383.426 299.051 382.136 299.051 382.136C299.051 382.136 299.466 380.524 301.447 380.247Z" fill="#160758"/>
<path d="M337.557 372.507C337.557 372.507 374.361 361.406 387.488 357.582C400.616 353.759 407.894 350.166 412.132 356.339C416.323 362.419 416.001 369.236 411.164 371.125C406.282 373.059 368.05 381.903 352.159 385.128C336.267 388.352 325.903 390.425 324.429 389.826C323.001 389.181 321.343 384.529 321.666 381.949C321.988 379.37 322.126 378.402 325.212 377.113C328.299 375.685 337.557 372.507 337.557 372.507Z" fill="#0064E1"/>
<path d="M370.443 355.144H333.27L328.895 360.395L352.847 367.949L374.45 361.5L370.443 355.144Z" fill="#0064B7"/>
<path d="M387.531 325.524L378.917 308.25C378.917 308.25 373.712 296.643 360.723 297.886L363.394 304.059L376.798 332.156L387.531 325.524Z" fill="#F79F03"/>
<path d="M316.098 324.971L324.665 307.836C324.665 307.836 329.824 296.367 342.768 297.61L340.096 303.691L326.738 331.512L316.098 324.971Z" fill="#F79F03"/>
<path d="M351.368 292.637C357.356 292.637 362.192 284.438 362.192 274.304C362.192 264.17 357.356 255.971 351.368 255.971C345.379 255.971 340.543 264.17 340.543 274.304C340.543 284.438 345.379 292.637 351.368 292.637Z" fill="#FFBE9B"/>
<path d="M341.291 272.139C341.291 272.139 337.192 271.725 336.593 274.212C336.04 276.699 337.883 278.956 341.291 279.463C344.7 279.97 341.291 272.139 341.291 272.139Z" fill="#FFBE9B"/>
<path d="M333.266 355.142H370.485C370.485 355.142 371.268 322.53 369.886 313.686C368.964 307.79 367.03 301.894 363.253 298.808C363.253 298.808 362.147 297.749 360.811 297.979C360.397 298.071 359.936 298.301 359.476 298.808C357.725 300.789 354.916 304.289 349.987 303.691C345.104 303.138 343.999 299.084 343.999 299.084C343.999 299.084 342.755 296.183 340.452 298.44C338.103 300.697 331.977 303.138 331.977 321.655L333.266 355.142Z" fill="#FCBE42"/>
<path d="M352.802 268.637C359.435 266.058 363.719 261.175 362.383 257.72C361.047 254.266 354.598 253.529 347.965 256.108C341.333 258.688 337.049 263.57 338.385 267.025C339.72 270.48 346.169 271.217 352.802 268.637Z" fill="#180857"/>
<path d="M358.551 321.886L352.333 325.479C352.102 325.617 351.872 325.617 351.642 325.479L345.423 321.886C345.193 321.748 345.055 321.518 345.055 321.287V314.148C345.055 313.918 345.193 313.687 345.423 313.549L351.642 309.956C351.872 309.818 352.102 309.818 352.333 309.956L358.551 313.549C358.781 313.687 358.919 313.918 358.919 314.148V321.241C358.873 321.518 358.735 321.748 358.551 321.886Z" fill="white"/>
<path d="M351.961 317.694L356.797 314.838L351.961 312.258V317.694Z" fill="#0A489B"/>
<path d="M351.965 322.991L347.129 320.273V314.838L351.965 312.258V322.991Z" fill="#0F68DE"/>
<path d="M351.781 317.784L347.129 320.272" stroke="#D9D9D9" stroke-width="0.121192" stroke-miterlimit="10" stroke-linecap="square" stroke-linejoin="bevel"/>
<path d="M351.965 317.694L347.129 314.838L351.965 312.258V317.694Z" fill="#0F68DE"/>
<path d="M351.965 323.13L347.129 320.274L351.965 317.694V323.13Z" fill="#3F86E4"/>
<path d="M84.0739 246.643C84.0739 246.643 79.0042 316.833 78.2766 329.281C77.5373 341.729 74.8733 383.659 74.8733 383.659H62.4221L54.0195 245.874L84.0739 246.643Z" fill="#DE051F"/>
<path d="M37.2289 247.376C37.2289 247.376 38.6958 282.739 39.353 291.705C39.9984 300.671 32.8985 331.33 28.8498 344.954C24.7894 358.589 19.0742 373.68 19.0742 373.68L28.8498 379.269C28.8498 379.269 49.9618 341.752 57.5311 319.616C65.0887 297.481 70.7217 264.353 69.7946 245.688L37.2289 247.376Z" fill="#EE384E"/>
<path d="M90.2183 197.154L99.7122 209.683C99.7122 209.683 100.452 210.685 102.212 210.23C103.96 209.776 122.232 203.186 122.232 203.186C122.232 203.186 124.779 202.056 125.46 200.042C126.129 198.027 126.445 197.538 126.844 196.991C127.243 196.444 127.83 196.514 127.49 195.163C127.15 193.824 126.962 193.265 126.962 193.265C126.962 193.265 126.563 192.322 127.361 192.322C128.159 192.322 129.016 192.508 129.461 193.428C129.884 194.348 129.778 196.572 129.778 196.572L133.686 196.723C133.686 196.723 136.08 196.805 136.08 199.285C136.08 201.765 136.08 205.91 136.08 205.91C136.08 205.91 136.421 207.203 134.672 207.203C132.923 207.203 131.081 207.145 131.081 207.145C131.081 207.145 129.614 206.993 127.208 208.728C124.803 210.463 106.495 220.862 106.495 220.862C106.495 220.862 100.17 224.611 96.0156 220.675C91.8612 216.74 82.7428 207.005 82.7428 207.005L82.2852 203.919L90.2183 197.154Z" fill="#FFBF99"/>
<path d="M59.6581 163.597C59.6581 163.597 58.5315 169.21 56.2665 174.834C54.0016 180.458 52.875 182.694 52.875 182.694C52.875 182.694 59.6581 190.553 66.4646 189.424C73.2477 188.306 73.2477 183.811 73.2477 183.811C73.2477 183.811 67.0162 178.758 67.0162 172.016C67.0162 165.274 67.0162 165.286 67.0162 165.286L59.6581 163.597Z" fill="#FFB48F"/>
<path d="M74.625 182.518C74.625 182.518 80.258 185.627 82.5933 187.594C84.9404 189.562 91.7117 197.294 91.7117 197.294L82.4408 206.225L75.9863 198.959L74.625 182.518Z" fill="#0064B7"/>
<path d="M55.734 179.886C55.734 179.886 59.1255 184.381 63.6554 185.499C68.1853 186.617 70.4384 183.251 70.4384 183.251L71.6824 181.645C71.6824 181.645 72.9381 180.666 74.3229 181.819C75.7076 182.949 78.3481 185.86 80.6365 190.564C82.9366 195.257 83.6056 201.684 84.0867 216.693C84.5679 231.703 84.0867 247.9 84.0867 247.9H37.2742L36.7227 224.576C36.7227 224.576 41.6985 193.556 46.5921 187.245C51.4858 180.934 52.9058 179.56 52.9058 179.56C52.9058 179.56 54.0324 178.023 55.734 179.886Z" fill="#0083F9"/>
<path d="M73.8194 148.424C73.8194 148.424 77.2109 152.919 77.2109 160.79C77.2109 168.65 76.0843 174.274 72.681 174.274C69.2778 174.274 62.483 172.027 61.3564 169.78C60.2298 167.532 57.9648 167.532 57.9648 163.049C57.9648 158.566 63.6213 148.448 68.1629 148.448C72.6928 148.448 73.8194 148.424 73.8194 148.424Z" fill="#FFBF99"/>
<path d="M77.2097 148.423C77.2097 148.423 80.6012 139.446 78.3363 138.305C76.0713 137.187 71.5532 139.422 70.4149 140.552C69.2883 141.67 67.0233 141.67 65.885 141.67C65.885 141.67 54.5604 141.67 52.2954 143.917C50.0305 146.164 50.0305 147.282 50.0305 148.412C50.0305 149.53 50.0188 153.943 48.9039 156.271C48.4227 157.284 47.7773 161.884 50.0305 166.39C52.2837 170.885 54.5604 172.003 55.687 172.003C56.8136 172.003 57.8345 172.003 57.9519 170.885C58.081 169.674 58.5269 167.962 59.0785 166.39C59.6183 164.888 60.2051 161.896 60.2051 161.896C60.2051 161.896 61.3317 156.283 63.5966 154.036C65.8615 151.788 65.8615 151.788 70.3797 150.671C74.9447 149.564 76.0831 151.788 77.2097 148.423Z" fill="#170856"/>
<path d="M61.9432 156.633C63.6213 158.542 61.3564 161.908 61.3564 161.908C61.3564 161.908 57.9648 163.025 57.9648 159.66C57.9648 156.295 60.2533 154.711 61.9432 156.633Z" fill="#FFBF99"/>
<path d="M39.2672 203.907C39.2672 203.907 35.019 220.128 35.7583 230.293C36.4976 240.447 39.5371 249.249 41.7433 255.374C43.9496 261.499 45.2522 262.966 45.3344 266.82C45.4165 270.675 47.2355 275.239 49.4887 277.533C51.7419 279.827 53.5492 280.968 53.5492 280.968C53.5492 280.968 56.2248 282.202 55.8023 279.734C55.8023 279.734 57.5979 279.874 56.9172 278.5C56.9172 278.5 59.3112 278.546 57.5627 276.671C55.8141 274.785 52.5868 272.969 52.5868 272.969C52.5868 272.969 50.7444 270.046 53.3731 271.513C56.0018 272.969 58.302 273.027 55.8728 270.651C53.4318 268.276 50.6153 264.119 48.5499 256.515C46.4844 248.923 44.0317 233.914 46.9539 222.386C49.876 210.859 53.5726 207.016 53.5726 207.016L39.2672 203.907Z" fill="#FFBF99"/>
<path d="M29.2583 378.512C29.2583 378.512 31.5115 384.789 34.0112 387.676C36.5108 390.564 38.4824 392.672 38.4824 392.672C38.4824 392.672 41.3927 397.294 38.1068 395.92C34.8327 394.546 16.7132 382.471 16.7132 382.471C16.7132 382.471 14.1314 381.144 15.3284 378.955C16.5254 376.766 19.5649 372.527 19.5649 372.527L29.2583 378.512Z" fill="#170856"/>
<path d="M62.5471 392.52C62.5471 392.52 61.8782 394.348 65.6804 394.348C69.4827 394.348 90.2191 394.348 90.2191 394.348C90.2191 394.348 94.2092 393.556 90.536 391.786C86.8393 390.016 75.7846 385.079 75.7846 385.079C75.7846 385.079 74.9396 384.858 74.9631 382.75H62.4062L62.5471 392.52Z" fill="#170856"/>
<path d="M57.0026 193.103C57.0026 193.103 57.8006 185.569 52.2733 184.847C46.7459 184.125 43.237 191.438 41.3946 196.188C39.5521 200.939 38.625 204.421 38.625 204.421C38.625 204.421 50.513 209.172 53.6463 209.172C53.658 209.172 56.2985 201.277 57.0026 193.103Z" fill="#0064B7"/>
<path d="M186.24 320.093H245.435C249.102 320.093 252.074 323.066 252.074 326.732V387.331C252.074 390.998 249.102 393.97 245.435 393.97H186.24C182.574 393.97 179.601 390.998 179.601 387.331V326.732C179.601 323.066 182.574 320.093 186.24 320.093Z" fill="#023EA1"/>
<path d="M222.975 233.702C222.975 233.702 233.242 229.933 234.45 239.733C234.45 239.733 237.017 246.82 239.734 248.025C242.301 249.232 248.945 251.794 247.284 260.841C245.623 270.038 243.207 269.434 244.113 274.712C245.17 279.989 242.603 280.592 238.98 280.743C235.356 280.893 234.299 277.425 234.299 277.425L235.356 265.665L232.94 246.669L225.089 243.502C225.089 243.502 221.012 238.376 220.71 236.416C220.408 234.456 222.975 233.702 222.975 233.702Z" fill="#170856"/>
<path d="M224.335 231.139C224.335 231.139 225.996 232.797 225.543 233.099C225.09 233.401 220.711 235.812 220.711 235.812C220.711 235.812 219.352 233.25 219.503 232.496C219.654 231.741 224.335 231.139 224.335 231.139Z" fill="#F05051"/>
<path d="M197.007 218.324C196.705 218.324 196.554 218.475 196.554 218.777C196.554 221.038 197.158 231.893 201.385 235.964C201.385 235.964 203.65 238.98 207.878 237.622C207.878 237.622 211.803 235.211 211.199 240.035C210.595 244.86 212.558 249.533 214.068 250.137C215.578 250.891 221.919 249.082 223.429 246.367C224.335 244.558 224.939 243.653 225.09 243.202C225.241 243.051 225.241 242.9 225.09 242.598C224.184 241.542 220.862 237.473 219.352 231.893C217.541 225.411 218.598 219.078 212.558 217.871C207.576 217.118 198.97 218.173 197.007 218.324Z" fill="#FFBE97"/>
<path d="M191.418 217.871C191.418 217.72 191.418 217.721 191.418 217.57C191.418 216.967 191.418 216.213 191.418 215.61C191.569 213.65 192.325 211.54 193.834 210.182C195.042 209.127 196.552 208.825 197.911 208.825C198.213 208.825 198.515 208.674 198.817 208.523C199.873 207.318 203.195 204 207.725 204C213.16 204 222.672 207.016 225.239 216.514C225.39 217.118 229.014 232.043 221.766 232.496C214.368 232.949 211.499 229.33 211.65 226.013C211.65 226.013 215.274 219.53 209.084 221.189C209.084 221.189 202.742 222.394 198.364 219.831C197.76 219.53 197.156 219.681 196.854 220.283C195.948 221.791 194.287 224.203 192.627 222.243C192.022 221.49 191.418 220.736 191.267 219.681C191.116 218.927 191.267 218.474 191.418 217.871Z" fill="#170856"/>
<path d="M225.232 243.049C225.232 243.049 221.608 248.929 216.475 248.778C211.341 248.778 211.039 243.351 211.039 243.351C211.039 243.351 200.621 252.849 200.772 259.031C200.923 265.213 202.886 264.308 203.49 266.268C204.094 268.378 200.017 290.391 200.017 290.391L199.413 291.748L228.855 295.818C228.855 295.818 230.063 291.144 230.818 289.637C231.573 288.129 235.801 249.382 235.801 249.382L233.838 247.271C233.989 247.422 230.516 243.351 225.232 243.049Z" fill="#FCBE42"/>
<path d="M238.378 266.571C238.378 266.571 241.247 247.424 233.849 246.368C226.602 245.464 226.451 251.495 226.3 260.39C225.998 269.284 226.149 271.244 226.149 271.244L237.624 273.355L238.378 266.571Z" fill="#F79F03"/>
<path d="M226.432 271.394C226.281 271.394 226.13 271.545 226.13 271.696L225.526 279.083C225.526 280.139 225.375 281.194 224.318 280.741C223.714 280.441 222.959 280.139 222.053 279.686C218.732 277.877 208.918 272.901 205.747 271.545C205.143 271.243 204.841 270.792 204.539 270.188C204.237 269.283 203.331 267.927 201.519 267.323C198.651 266.57 193.668 266.57 193.668 267.021C193.517 267.323 192.913 269.736 193.215 270.641C193.517 271.394 195.782 270.792 195.782 270.792C195.782 270.792 200.311 270.037 198.952 271.545C198.198 272.45 197.141 272.601 196.386 272.601C196.084 272.601 195.933 272.901 196.235 273.203C196.839 273.656 197.895 274.259 199.707 274.561C203.029 275.012 226.583 290.543 226.583 290.543C226.583 290.543 231.112 294.161 233.83 284.661C235.793 277.425 236.85 274.861 237.152 273.957C237.303 273.807 237.152 273.505 236.85 273.505L226.432 271.394Z" fill="#FEBD96"/>
<path d="M187.34 281.647L200.778 287.225L202.137 278.783L196.701 278.481L187.34 281.647Z" fill="#FEBD96"/>
<path d="M178.136 254.66L156.847 253.453L178.89 281.345L199.273 282.1L178.136 254.66Z" fill="#012D75"/>
<path d="M177.981 279.385C177.981 279.385 178.736 274.26 177.075 273.505C175.414 272.752 174.207 274.561 174.358 275.465C174.509 276.521 177.83 279.989 177.83 279.989L177.981 279.385Z" fill="#FEBD96"/>
<path d="M199.566 291.899L158.045 307.73C158.045 307.73 152.912 308.785 151.552 322.807C150.345 336.828 149.289 383.417 149.289 383.417V384.924L159.555 385.075L164.689 335.472L189.148 305.619L209.078 293.105L199.566 291.899Z" fill="#DE051F"/>
<path d="M229.323 295.065L209.242 293.256L166.816 314.515C166.816 314.515 155.34 321.3 162.739 333.663C170.137 346.025 190.52 383.567 190.52 383.567L197.616 378.291L179.498 327.783C179.498 327.783 179.045 325.22 185.084 324.767C190.67 324.315 217.395 321.752 220.868 321.451C221.17 321.451 221.472 321.3 221.774 321.3C223.888 320.545 232.041 316.475 229.474 302.152L229.172 296.122L229.323 295.065Z" fill="#EE384E"/>
<path d="M149.291 385.077L140.231 390.051C139.778 390.353 139.326 390.504 138.722 390.655C137.815 390.806 136.003 391.257 136.003 392.615C136.003 392.615 135.701 394.273 140.08 393.821C144.459 393.368 158.199 393.519 158.199 393.519C158.199 393.519 160.01 393.068 159.708 389.146L159.406 385.226L149.291 385.077Z" fill="#130452"/>
<path d="M190.51 383.567C190.51 383.567 190.36 385.979 188.095 389.145C186.736 390.954 185.377 392.613 184.019 394.423C183.717 394.874 183.263 395.176 182.961 395.779C182.81 396.081 182.659 396.533 182.659 396.834C182.659 397.136 182.659 397.588 183.112 397.89C183.566 398.192 184.321 398.041 184.924 397.89C185.075 397.89 185.226 397.739 185.377 397.739C188.85 396.533 199.419 387.788 201.684 385.979C201.986 385.677 202.137 385.376 202.137 385.074C202.137 384.321 201.986 382.814 201.08 381.757C199.721 380.099 197.607 378.441 197.607 378.441L190.51 383.567Z" fill="#130452"/>
<defs>
<filter id="filter0_d_5640_1242" x="92.4223" y="233.799" width="46.8938" height="52.7336" filterUnits="userSpaceOnUse" color-interpolation-filters="sRGB">
<feFlood flood-opacity="0" result="BackgroundImageFix"/>
<feColorMatrix in="SourceAlpha" type="matrix" values="0 0 0 0 0 0 0 0 0 0 0 0 0 0 0 0 0 0 127 0" result="hardAlpha"/>
<feOffset dy="0.872859"/>
<feGaussianBlur stdDeviation="0.872859"/>
<feComposite in2="hardAlpha" operator="out"/>
<feColorMatrix type="matrix" values="0 0 0 0 0 0 0 0 0 0 0 0 0 0 0 0 0 0 0.2 0"/>
<feBlend mode="normal" in2="BackgroundImageFix" result="effect1_dropShadow_5640_1242"/>
<feBlend mode="normal" in="SourceGraphic" in2="effect1_dropShadow_5640_1242" result="shape"/>
</filter>
</defs>
</svg>
