<svg width="473" height="480" viewBox="0 0 473 480" fill="none" xmlns="http://www.w3.org/2000/svg">
<path d="M398.178 373.737C398.178 373.737 403.369 368.918 399.745 364.408C396.121 359.898 387.505 360.965 385.825 365.764C384.155 370.564 386.783 373.456 383.046 374.577C379.32 375.698 369.397 380.389 371.519 385.437C373.631 390.485 379.653 390.002 377.388 397.049C375.124 404.095 362.789 406.781 369.727 415.34C376.664 423.899 392.139 435.185 398.917 418.194C405.694 401.203 389.405 406.23 397.81 394.913C406.216 383.595 398.822 384.133 396.466 380.174C394.129 376.227 398.178 373.737 398.178 373.737Z" fill="#023EA1"/>
<path d="M388.506 380.872C388.506 380.872 388.333 399.621 382.741 415.771C377.148 431.921 373.53 434.576 373.53 434.576" stroke="white" stroke-width="1.04392" stroke-miterlimit="10" stroke-linecap="round" stroke-linejoin="round"/>
<path d="M437.161 383.172C437.161 383.172 425.921 373.336 422.582 380.926C419.233 388.525 415.816 387.928 412.311 387.132C408.805 386.336 403.146 382.31 400.052 390.513C396.949 398.715 398.535 404.115 394.539 406.482C390.541 408.858 377.601 423.77 384.675 427.229C391.75 430.678 401.284 424.663 404.623 421.063C407.961 417.463 414.481 417.848 419.344 419.384C424.208 420.919 431.032 418.968 429.659 412.297C428.275 405.624 432.222 399.271 436.935 398.244C441.629 397.214 444.663 389.96 437.161 383.172Z" fill="#FCBE42"/>
<path d="M429.699 390.23L381.569 433.44" stroke="white" stroke-width="1.04392" stroke-miterlimit="10" stroke-linecap="round" stroke-linejoin="round"/>
<path d="M372.818 419.949C372.818 419.949 399.682 397.931 411.07 376.717" stroke="#DE051F" stroke-width="1.04392" stroke-miterlimit="10"/>
<path d="M416.083 362.439C416.083 362.439 406.999 368.063 409.83 378.897C409.83 378.897 418.49 375.318 416.083 362.439Z" stroke="#DE051F" stroke-width="1.04392" stroke-miterlimit="10"/>
<path d="M398.071 395.076C398.071 395.076 403.107 386.609 395.132 377.861C395.132 377.861 388.39 383.97 398.071 395.076Z" stroke="#DE051F" stroke-width="1.04392" stroke-miterlimit="10"/>
<path d="M381.961 411.746C381.961 411.746 388.561 404.428 382.446 394.293C382.447 394.284 374.64 398.957 381.961 411.746Z" stroke="#DE051F" stroke-width="1.04392" stroke-miterlimit="10"/>
<path d="M382.167 412.105C382.167 412.105 389.221 405.213 399.621 410.891C399.611 410.89 395.264 418.872 382.167 412.105Z" stroke="#DE051F" stroke-width="1.04392" stroke-miterlimit="10"/>
<path d="M398.039 394.935C398.039 394.935 404.153 387.208 415.196 391.511C415.196 391.511 411.895 399.981 398.039 394.935Z" stroke="#DE051F" stroke-width="1.04392" stroke-miterlimit="10"/>
<path d="M90.1484 341.552C90.1484 341.552 90.6284 346.372 93.2689 352.637L101.672 356.493L94.9495 357.698C102.392 376.253 120.399 402.761 162.173 397.459C162.173 397.701 182.581 345.167 90.1484 341.552Z" fill="#FABD41"/>
<path d="M101.192 370.229L135.284 373.843L90.1484 341.552" stroke="white" stroke-width="0.97561" stroke-miterlimit="10"/>
<path d="M119.195 344.926L135.281 373.843" stroke="white" stroke-width="0.97561" stroke-miterlimit="10"/>
<path d="M116.797 310.224C116.797 310.224 128.081 302.512 130.482 309.019C132.643 315.767 135.764 315.525 139.365 315.043C142.727 314.562 148.249 311.429 150.169 318.658C152.09 326.128 150.169 330.466 153.53 332.876C156.892 335.045 167.215 348.781 160.253 350.949C153.53 353.119 145.607 347.576 142.727 344.443C139.845 341.07 133.844 341.07 129.762 342.275C124.96 343.479 118.958 341.07 120.878 335.527C122.799 329.743 119.679 324.201 115.837 322.996C111.035 321.791 108.875 315.284 116.797 310.224Z" fill="#1C4599"/>
<path d="M122.555 316.73L161.688 356.01" stroke="white" stroke-width="0.487805" stroke-miterlimit="10" stroke-linecap="round" stroke-linejoin="round"/>
<path d="M141.526 320.104L138.406 332.634L124.961 334.803" stroke="white" stroke-width="0.487805" stroke-miterlimit="10" stroke-linecap="round" stroke-linejoin="round"/>
<path d="M106.467 327.815C106.467 327.815 106.467 334.804 111.269 332.153C116.071 329.502 119.432 329.02 121.353 334.322C123.273 339.624 126.635 341.792 130.236 340.829C133.597 339.624 139.119 337.213 141.279 344.444C143.44 351.914 149.443 365.65 141.519 369.505C133.837 373.12 121.833 368.059 119.672 362.758C117.751 357.456 119.672 352.636 113.669 350.468C107.668 348.781 106.708 354.805 101.185 350.709C95.6632 346.612 89.9014 342.997 93.7426 334.322C98.0646 326.369 105.747 323.96 106.467 327.815Z" stroke="#ED3B4E" stroke-width="0.487805" stroke-miterlimit="10"/>
<path d="M105.027 335.768C105.027 335.768 138.879 362.275 149.443 366.613" stroke="#ED3B4E" stroke-width="0.487805" stroke-miterlimit="10"/>
<path d="M132.637 345.407L133.358 356.492L124.715 360.106" stroke="#ED3B4E" stroke-width="0.487805" stroke-miterlimit="10"/>
<path d="M115.349 334.804L115.109 343.238L107.906 347.094" stroke="#ED3B4E" stroke-width="0.487805" stroke-miterlimit="10"/>
<path d="M245.887 26.4062C245.887 26.4062 236.764 33.8766 245.406 37.2503C254.29 40.6241 257.651 44.7207 253.09 52.9141C248.288 61.1075 249.728 67.6139 254.29 70.7467C259.091 73.8794 268.214 78.458 261.012 88.8202C254.049 99.6643 242.046 121.112 229.321 115.328C216.596 109.544 210.355 88.3382 215.397 80.1449C220.438 71.9516 229.081 69.5417 224.76 59.9025C220.918 50.2633 212.035 55.0829 211.794 43.9978C211.554 32.6717 210.114 21.1046 225.719 17.4899C238.925 14.1162 249.488 20.8637 245.887 26.4062Z" stroke="#1C4599" stroke-width="0.487805" stroke-miterlimit="10"/>
<path d="M233.645 33.3955C233.645 33.3955 235.084 104.725 239.406 122.558" stroke="#1C4599" stroke-width="0.487805" stroke-miterlimit="10"/>
<path d="M249.49 78.459L236.044 91.231L222.359 84.0015" stroke="#1C4599" stroke-width="0.487805" stroke-miterlimit="10"/>
<path d="M245.645 45.2031L234.602 53.1555L222.117 48.3359" stroke="#1C4599" stroke-width="0.487805" stroke-miterlimit="10"/>
<path d="M275.898 27.1292C275.898 27.1292 297.266 33.8766 291.504 43.5159C285.021 53.1551 288.623 57.2518 292.944 60.8665C296.785 64.4812 306.869 68.5779 299.426 78.4581C291.984 88.3382 284.541 90.2661 285.021 97.0135C285.501 103.761 278.539 130.751 268.696 124.485C258.612 118.461 257.651 102.315 259.092 95.3267C260.533 88.5793 254.29 80.8678 248.288 75.8073C242.286 70.9877 238.925 61.1075 248.048 57.9747C257.411 54.601 261.733 45.2027 258.852 38.4553C255.011 31.9488 261.493 22.7915 275.898 27.1292Z" fill="#FABD41"/>
<path d="M273.972 41.5889L263.168 132.92" stroke="white" stroke-width="0.487805" stroke-miterlimit="10" stroke-linecap="round" stroke-linejoin="round"/>
<path d="M289.104 69.7828L269.417 78.6991L252.371 64.2402" stroke="white" stroke-width="0.487805" stroke-miterlimit="10" stroke-linecap="round" stroke-linejoin="round"/>
<path d="M174.819 39.661C174.819 39.661 165.936 33.1545 171.698 25.6841C176.98 18.2137 190.905 18.2137 193.786 25.4431C196.907 32.1906 192.585 37.2511 198.828 38.2151C204.83 39.4199 220.915 44.7215 217.794 52.4329C214.433 60.1443 205.07 60.6263 208.911 70.9885C212.753 81.3506 232.68 83.2785 222.596 97.4963C212.512 111.714 188.504 131.234 176.26 106.894C164.495 82.5555 190.665 87.3751 176.5 71.7114C162.335 56.0476 174.339 55.5656 177.94 49.5411C181.781 42.7937 174.819 39.661 174.819 39.661Z" fill="#ED3B4E"/>
<path d="M191.148 48.8184C191.148 48.8184 192.589 77.2541 202.433 100.388C212.276 123.763 218.279 127.137 218.279 127.137" stroke="white" stroke-width="0.487805" stroke-miterlimit="10" stroke-linecap="round" stroke-linejoin="round"/>
<path d="M374.78 237.073L364.875 239.85L367.653 249.756L377.558 246.978L374.78 237.073Z" fill="#0064E1"/>
<path d="M100.005 127.805L86.8281 131.513L90.523 144.739L103.7 141.031L100.005 127.805Z" fill="#ED3B4E"/>
<path d="M313.757 453.389L155.773 453.659C147.458 453.659 140.752 446.903 140.752 438.255L140.484 101.528C140.484 93.1509 147.189 86.1242 155.505 86.1242L313.488 85.854C321.803 85.854 328.508 92.6103 328.508 101.258L328.777 437.985C328.777 446.362 322.071 453.389 313.757 453.389Z" fill="#0064B7"/>
<path d="M304.454 444.552L164.713 444.836C155.781 444.836 148.577 437.73 148.577 428.635L148.289 115.997C148.289 107.186 155.492 99.7962 164.425 99.7962L303.878 99.5122C312.81 99.5122 320.012 106.617 320.012 115.712L320.301 428.351C320.589 437.162 313.385 444.267 304.454 444.552Z" fill="white"/>
<rect x="159.023" y="203" width="151.22" height="4.87805" rx="2.43902" fill="#E7F1FC"/>
<rect x="159.023" y="216.878" width="112.195" height="4.87805" rx="2.43902" fill="#E7F1FC"/>
<rect x="159.023" y="230.756" width="151.22" height="4.87805" rx="2.43902" fill="#E7F1FC"/>
<rect x="159.023" y="272" width="151.22" height="4.87805" rx="2.43902" fill="#E7F1FC"/>
<rect x="159.023" y="285.878" width="112.195" height="4.87805" rx="2.43902" fill="#E7F1FC"/>
<rect x="159" y="299.756" width="151.22" height="4.87805" rx="2.43902" fill="#E7F1FC"/>
<rect x="159" y="328" width="112" height="25" rx="12.5" fill="#0064B7"/>
<g filter="url(#filter0_dddd_5607_317)">
<path d="M253.612 157.9L235.163 168.582C234.531 168.95 233.757 168.95 233.125 168.582L214.676 157.9C214.043 157.532 213.656 156.857 213.656 156.12V134.737C213.656 134.001 214.043 133.326 214.676 132.957L233.125 122.276C233.757 121.908 234.531 121.908 235.163 122.276L253.612 132.957C254.245 133.326 254.632 134.001 254.632 134.737V156.12C254.632 156.857 254.245 157.532 253.612 157.9Z" fill="white"/>
<path d="M234.145 145.438L248.517 136.987L234.145 129.252V145.438Z" fill="#0A489B"/>
<path d="M234.142 161.234L219.77 153.173V136.987L234.142 129.252V161.234Z" fill="#0F68DE"/>
<path d="M234.142 145.438L219.77 136.987L234.142 129.252V145.438Z" fill="#0F68DE"/>
<path d="M234.142 161.623L219.77 153.172L234.142 145.438V161.623Z" fill="#3F86E4"/>
</g>
<path d="M251.506 94.6343H218.731C217.656 94.6343 216.582 94.0856 216.582 93.1709C216.582 92.4389 217.388 91.7075 218.731 91.7075H251.506C252.58 91.7075 253.655 92.2562 253.655 93.1709C253.655 94.0856 252.58 94.6343 251.506 94.6343Z" fill="white"/>
<path d="M69.2362 188.246C69.2362 188.058 69.2362 187.493 69.2362 187.493C69.4244 186.552 70.5537 185.423 71.3065 184.67C73.1885 183.353 75.0705 182.6 76.9526 182.788C77.7054 182.788 78.27 182.976 79.0228 183.541C86.5509 186.364 89.5622 182.788 89.5622 182.788C89.5622 182.788 96.3375 177.142 99.1605 183.541C101.984 189.94 96.9021 193.892 95.02 193.327C93.138 193.139 86.7391 192.575 85.2335 195.398C83.3514 198.221 79.7756 200.291 78.4582 199.726C77.5172 199.538 77.1408 201.044 77.1408 201.797C77.1408 203.114 77.8936 204.62 79.0228 205.561C79.211 205.749 79.7756 206.313 79.7756 206.502C79.7756 206.69 79.7756 206.69 79.7756 207.254C79.7756 209.136 79.5874 210.266 79.0228 212.148C78.8346 213.465 78.0818 218.358 75.6352 217.606C72.2475 216.853 64.343 213.277 65.0958 200.667C65.0958 200.667 64.343 195.774 67.3542 193.139C68.107 192.386 69.6127 191.822 69.6127 190.316C70.3655 190.128 69.6126 188.999 69.2362 188.246Z" fill="#1F1954"/>
<path d="M93.705 191.069C93.705 191.069 100.48 199.538 98.0337 213.465C98.0337 213.465 96.1517 219.111 92.3877 219.676C89 219.864 90.3174 223.816 90.3174 224.757C91.0702 227.58 91.2584 226.075 92.3877 228.521C93.1405 230.78 89.5646 235.297 86.1769 235.297C82.7893 235.297 76.5787 231.156 75.6376 229.086C74.6966 227.016 74.8848 220.617 76.955 216.476C79.0253 212.336 77.7078 205.937 77.7078 205.937C77.7078 205.937 70.5562 200.479 76.3904 197.468C81.6601 195.209 92.3876 190.128 93.705 191.069Z" fill="#F9BC97"/>
<path d="M114.596 245.083L123.818 257.693C123.818 257.693 125.135 259.951 127.958 259.01C132.099 257.692 148.096 250.729 148.096 250.729C148.096 250.729 149.978 245.648 152.237 244.33C154.495 243.013 163.529 242.26 162.776 249.223C162.023 256.187 157.694 256.751 155.624 256.375C153.554 256.375 141.133 265.032 140.003 265.973C138.686 266.726 126.453 272.749 126.453 272.749C126.453 272.749 122.124 274.819 117.984 270.49C113.843 266.162 103.116 254.869 103.116 254.869L108.197 247.718L114.596 245.083Z" fill="#F9BC97"/>
<path d="M97.843 233.039C97.843 233.039 109.7 238.685 113.464 243.766L114.781 245.084L104.43 253.741L97.843 233.039Z" fill="#F39D1D"/>
<path d="M75.0666 224.004C75.0666 224.757 75.0666 224.945 75.2548 225.886C75.2548 226.639 75.443 226.827 76.0076 227.768C76.5722 228.521 76.7604 229.086 77.325 229.65C78.0778 230.403 78.6424 230.968 79.3953 231.532C80.1481 232.285 81.2773 232.474 82.2183 232.85C83.1593 233.038 84.4767 233.603 85.6059 233.603C85.7941 233.603 86.3587 233.603 86.5469 233.603C86.7351 233.603 87.2997 233.415 87.4879 232.85C88.2407 232.662 88.8054 231.909 89.5582 230.968C90.4992 230.215 91.4402 229.086 92.3812 228.145C92.3812 228.145 102.732 231.909 105.179 253.176L105.367 301.356L53.6115 300.038L67.5385 232.473C68.1031 231.344 72.4317 225.51 75.0666 224.004Z" fill="#FABC43"/>
<path d="M54.9293 253.553C54.9293 253.553 59.8226 230.404 68.8563 231.157C78.0782 231.909 75.067 250.353 72.9967 256.376L54.9293 253.553Z" fill="#F39D1D"/>
<path d="M105.367 300.791L94.8278 447.401L82.0301 448.154L77.8896 365.157L82.7829 300.415L105.367 300.791Z" fill="#0053A1"/>
<path d="M90.1289 300.227C90.1289 300.227 87.3059 358.946 77.3312 378.331C66.98 397.528 54.1822 435.921 45.9013 442.696L35.1738 435.545C35.1738 435.545 57.5699 373.25 56.4406 355.559L53.6176 299.474L90.1289 300.227Z" fill="#0064DF"/>
<path d="M73.1857 256.375C73.1857 256.375 64.9048 271.243 64.9048 274.631C64.9048 278.019 63.5873 289.499 64.9048 300.791C64.9048 300.791 69.2334 318.294 70.5508 319.8L73.9385 323.94C73.9385 323.94 76.0087 326.951 71.8683 325.257C71.8683 325.257 69.7981 326.198 70.9273 327.328C71.8683 328.269 74.3149 328.269 75.0677 330.715C75.0677 330.715 78.8317 332.033 76.0087 334.103C76.0087 334.103 72.6211 336.926 70.9273 334.856C70.9273 334.856 67.916 334.856 67.916 332.786C67.916 332.786 65.0929 331.468 64.5283 326.387C63.7755 320.929 60.1997 315.847 59.0705 313.777C59.0705 313.777 51.9188 289.875 51.9188 288.746C51.9188 287.993 51.9188 286.864 51.9188 286.488C51.9188 284.606 51.9188 283.1 51.9188 281.406C51.9188 279.336 51.9188 277.266 51.9188 275.196C51.9188 273.125 52.107 271.055 52.6716 268.985C52.8598 266.915 53.6126 265.221 53.6126 263.527C53.6126 262.774 53.6126 261.645 53.8008 261.269C53.8008 259.387 53.989 257.881 54.5536 255.811C54.5536 255.622 54.7418 253.74 54.7418 253.552L73.1857 256.375Z" fill="#F9BC97"/>
<path d="M81.8421 448.154L94.6398 447.213C94.6398 447.213 104.991 454.741 108.567 455.494C112.707 456.247 114.213 458.506 111.39 458.882C108.567 459.07 83.9123 459.07 83.9123 459.07C83.9123 459.07 81.0893 458.694 81.8421 448.154Z" fill="#201A56"/>
<path d="M46.0877 441.943C46.0877 441.943 51.1691 451.73 53.2394 453.8C55.3096 456.435 58.3208 462.081 53.2394 459.07C48.9107 456.435 34.2309 447.213 31.4079 445.143C31.2197 445.143 31.2197 444.39 31.2197 444.39C31.2197 444.202 31.2197 443.637 31.2197 443.261C31.2197 442.131 31.9725 439.685 33.2899 438.179C35.3602 435.168 35.3601 435.168 35.3601 435.168L46.0877 441.943Z" fill="#201A56"/>
<path d="M210.328 305.62C210.328 305.62 215.803 381.424 216.588 394.867C217.387 408.31 220.264 453.593 220.264 453.593H233.711L242.785 304.791L210.328 305.62Z" fill="#DE051F"/>
<path d="M260.921 306.413C260.921 306.413 259.337 344.604 258.627 354.287C257.93 363.97 265.598 397.08 269.97 411.793C274.355 426.519 280.527 442.816 280.527 442.816L269.97 448.852C269.97 448.852 247.17 408.335 238.995 384.43C230.833 360.524 224.75 324.747 225.751 304.589L260.921 306.413Z" fill="#EE384E"/>
<path d="M203.702 252.175L193.449 265.706C193.449 265.706 192.65 266.788 190.749 266.297C188.861 265.807 169.128 258.689 169.128 258.689C169.128 258.689 166.378 257.469 165.643 255.294C164.92 253.118 164.578 252.59 164.147 251.999C163.716 251.408 163.082 251.484 163.45 250.025C163.818 248.579 164.02 247.975 164.02 247.975C164.02 247.975 164.451 246.957 163.589 246.957C162.728 246.957 161.802 247.158 161.321 248.151C160.865 249.145 160.979 251.546 160.979 251.546L156.758 251.71C156.758 251.71 154.173 251.798 154.173 254.477C154.173 257.155 154.173 261.632 154.173 261.632C154.173 261.632 153.805 263.028 155.694 263.028C157.582 263.028 159.572 262.965 159.572 262.965C159.572 262.965 161.156 262.801 163.754 264.675C166.352 266.549 186.123 277.778 186.123 277.778C186.123 277.778 192.955 281.828 197.441 277.577C201.928 273.327 211.775 262.814 211.775 262.814L212.27 259.481L203.702 252.175Z" fill="#FFBF99"/>
<path d="M236.706 215.935C236.706 215.935 237.922 221.996 240.369 228.07C242.815 234.144 244.031 236.558 244.031 236.558C244.031 236.558 236.706 245.047 229.355 243.827C222.03 242.62 222.03 237.766 222.03 237.766C222.03 237.766 228.759 232.308 228.759 225.027C228.759 217.746 228.759 217.758 228.759 217.758L236.706 215.935Z" fill="#FFB48F"/>
<path d="M220.523 236.37C220.523 236.37 214.44 239.728 211.918 241.853C209.383 243.978 202.07 252.328 202.07 252.328L212.083 261.973L219.053 254.126L220.523 236.37Z" fill="#F79F03"/>
<path d="M240.933 233.526C240.933 233.526 237.271 238.38 232.378 239.587C227.486 240.794 225.053 237.16 225.053 237.16L223.71 235.425C223.71 235.425 222.353 234.368 220.858 235.613C219.362 236.833 216.511 239.977 214.039 245.057C211.555 250.125 210.833 257.067 210.313 273.276C209.794 289.486 210.313 306.978 210.313 306.978H260.869L261.465 281.79C261.465 281.79 256.091 248.289 250.806 241.473C245.521 234.658 243.988 233.174 243.988 233.174C243.988 233.174 242.771 231.514 240.933 233.526Z" fill="#FCBE42"/>
<path d="M221.405 199.549C221.405 199.549 217.742 204.403 217.742 212.904C217.742 221.393 218.959 227.466 222.634 227.466C226.31 227.466 233.648 225.039 234.865 222.612C236.081 220.185 238.527 220.185 238.527 215.344C238.527 210.502 232.419 199.574 227.514 199.574C222.622 199.574 221.405 199.549 221.405 199.549Z" fill="#FFBF99"/>
<path d="M217.739 199.55C217.739 199.55 214.077 189.854 216.523 188.622C218.969 187.415 223.848 189.829 225.077 191.049C226.294 192.256 228.74 192.256 229.97 192.256C229.97 192.256 242.2 192.256 244.646 194.683C247.092 197.11 247.092 198.317 247.092 199.537C247.092 200.744 247.104 205.51 248.308 208.025C248.828 209.12 249.525 214.087 247.092 218.953C244.658 223.807 242.2 225.015 240.983 225.015C239.766 225.015 238.664 225.015 238.537 223.807C238.398 222.5 237.916 220.651 237.32 218.953C236.737 217.331 236.104 214.099 236.104 214.099C236.104 214.099 234.887 208.038 232.441 205.611C229.995 203.184 229.995 203.184 225.115 201.977C220.185 200.782 218.956 203.184 217.739 199.55Z" fill="#170856"/>
<path d="M234.231 208.414C232.419 210.477 234.865 214.111 234.865 214.111C234.865 214.111 238.527 215.318 238.527 211.684C238.527 208.05 236.056 206.34 234.231 208.414Z" fill="#FFBF99"/>
<path d="M258.711 259.47C258.711 259.47 263.299 276.987 262.5 287.965C261.702 298.931 258.419 308.438 256.037 315.052C253.654 321.667 252.247 323.251 252.159 327.414C252.07 331.576 250.105 336.506 247.672 338.983C245.239 341.46 243.287 342.693 243.287 342.693C243.287 342.693 240.397 344.026 240.854 341.36C240.854 341.36 238.914 341.511 239.65 340.027C239.65 340.027 237.064 340.077 238.952 338.052C240.841 336.015 244.326 334.053 244.326 334.053C244.326 334.053 246.316 330.897 243.477 332.482C240.638 334.053 238.154 334.116 240.778 331.551C243.414 328.986 246.455 324.496 248.686 316.285C250.917 308.086 253.565 291.876 250.41 279.427C247.254 266.977 243.262 262.827 243.262 262.827L258.711 259.47Z" fill="#FFBF99"/>
<path d="M269.532 448.035C269.532 448.035 267.099 454.813 264.399 457.932C261.7 461.05 259.571 463.326 259.571 463.326C259.571 463.326 256.427 468.319 259.976 466.835C263.512 465.351 283.08 452.311 283.08 452.311C283.08 452.311 285.869 450.877 284.576 448.513C283.283 446.149 280.001 441.571 280.001 441.571L269.532 448.035Z" fill="#170856"/>
<path d="M233.582 463.164C233.582 463.164 234.305 465.139 230.198 465.139C226.092 465.139 203.697 465.139 203.697 465.139C203.697 465.139 199.388 464.284 203.355 462.372C207.348 460.461 219.286 455.129 219.286 455.129C219.286 455.129 220.199 454.89 220.173 452.614H233.734L233.582 463.164Z" fill="#170856"/>
<path d="M239.563 247.8C239.563 247.8 238.701 239.663 244.671 238.884C250.64 238.104 254.429 246.001 256.419 251.132C258.409 256.263 259.41 260.023 259.41 260.023C259.41 260.023 246.572 265.153 243.188 265.153C243.175 265.153 240.323 256.627 239.563 247.8Z" fill="#F79F03"/>
<path d="M332.032 340.189C332.032 340.189 335.775 339.12 335.133 333.132C334.598 327.251 331.07 322.226 336.416 319.339C341.762 316.238 343.473 315.169 346.039 312.71C348.606 310.143 349.996 308.219 358.443 308.967C358.443 308.967 365.179 303.514 371.274 308.326C377.261 313.137 375.23 325.968 376.62 328C377.903 330.031 385.922 337.944 386.885 344.68C387.74 351.416 383.142 355.693 376.62 355.266C369.99 354.838 361.116 355.266 361.116 355.266H336.844C336.844 355.266 328.611 355.8 327.969 347.781C327.434 342.756 332.032 340.189 332.032 340.189Z" fill="#180857"/>
<path d="M352.238 349.92C352.238 349.92 352.238 354.945 350.1 356.977C347.961 359.008 345.074 362.644 345.074 362.644C345.074 362.644 350.1 370.449 359.937 369.273C369.774 368.097 371.592 361.254 371.592 361.254C371.592 361.254 362.289 359.971 361.22 351.203C360.151 342.435 358.761 342.435 358.761 342.435L352.238 349.92Z" fill="#FFB07E"/>
<path d="M356.83 352.701C362.924 352.701 367.843 344.36 367.843 334.203C367.843 323.938 362.924 315.705 356.83 315.705C350.735 315.705 345.816 324.045 345.816 334.203C345.816 344.467 350.735 352.701 356.83 352.701Z" fill="#FFBE9B"/>
<path d="M356.835 314.634C356.835 314.634 354.803 320.514 350.74 326.288C346.677 332.169 341.758 335.377 341.224 336.339C340.689 337.409 337.053 334.415 338.443 329.71C339.833 325.005 347.532 312.174 355.551 311.961C363.571 311.747 365.389 307.149 369.131 316.451C372.98 325.754 372.232 336.446 372.232 336.446L356.835 314.634Z" fill="#180857"/>
<path d="M346.577 331.955C346.577 331.955 342.407 331.421 341.872 333.987C341.23 336.553 343.262 338.799 346.577 339.333C350.105 339.868 346.577 331.955 346.577 331.955Z" fill="#FFBE9B"/>
<path d="M387.416 453.743C387.416 453.743 394.045 454.171 398.75 454.171C403.455 454.171 411.046 455.24 411.046 455.24C411.046 455.24 413.078 455.24 413.185 457.699C413.399 460.159 413.399 461.121 413.399 461.121C413.399 461.121 413.612 464.008 411.26 464.008C408.908 464.008 394.366 465.719 391.051 465.719C387.737 465.719 385.277 466.36 385.277 464.008C385.384 461.656 385.063 453.636 387.416 453.743Z" fill="#170856"/>
<path d="M392.752 384.35C392.752 384.35 397.136 407.98 397.35 414.182C397.778 420.491 398.419 425.195 394.142 427.548C390.079 430.007 383.236 432.252 383.236 432.252L374.789 390.124V385.099L392.752 384.35Z" fill="#FFBF99"/>
<path d="M320.373 383.066C320.373 383.066 318.02 393.759 317.379 399.105C316.737 404.451 315.24 415.037 315.027 417.496C314.813 419.955 314.492 424.126 318.983 427.226C323.474 430.434 328.178 432.252 328.178 432.252L337.267 383.173L320.373 383.066Z" fill="#FFBF99"/>
<path d="M346.997 358.26C346.997 358.26 340.261 357.405 336.626 358.474C333.097 359.544 331.921 358.902 332.776 361.682C333.845 364.462 338.657 377.293 336.305 385.312C333.952 393.332 330.852 434.498 330.852 434.498C330.852 434.498 355.765 435.567 365.495 435.995C375.225 436.529 382.389 434.605 382.389 434.605C382.389 434.605 384.528 416.855 382.389 409.157C380.251 401.351 377.364 388.306 377.364 388.306C377.364 388.306 375.546 370.343 378.005 365.852C380.465 361.361 382.389 361.254 379.182 360.078C375.974 358.902 372.552 357.94 370.093 357.94C367.634 357.94 366.244 357.94 364.854 359.437C363.357 360.934 360.363 363.927 356.3 363.286C352.237 362.644 349.029 359.864 349.029 359.864C349.029 359.864 347.96 358.474 346.997 358.26Z" fill="#DE051F"/>
<path d="M334.909 359.65C334.909 359.65 332.557 358.474 329.135 361.468C325.393 364.676 322.72 371.519 321.33 375.796C319.94 380.18 319.191 384.35 319.191 384.35C319.191 384.35 323.896 386.809 328.922 387.023C333.947 387.237 337.155 387.557 337.155 387.557C337.155 387.557 339.293 374.833 338.866 369.059C338.331 363.179 337.476 361.147 334.909 359.65Z" fill="#EE384E"/>
<path d="M376.401 364.354C376.401 364.354 378.432 358.901 382.816 361.467C387.307 363.926 390.622 373.336 391.477 376.329C392.546 379.216 393.829 385.311 393.829 385.311C393.829 385.311 388.59 387.557 384.099 387.984C379.608 388.412 376.508 388.626 376.508 388.626C376.508 388.626 374.69 376.971 375.011 372.373C375.331 367.562 376.401 364.354 376.401 364.354Z" fill="#EE384E"/>
<path d="M340.047 437.918H373.835L356.406 443.158L340.047 437.918Z" fill="#004B89"/>
<path d="M310.112 428.296C310.112 428.296 371.487 447.435 384.96 452.354C384.96 452.354 389.451 453.53 389.558 455.775C389.771 458.021 389.13 461.442 388.702 463.046C388.167 464.757 386.671 465.933 384.211 465.506C381.752 464.971 326.793 454.065 304.873 448.291L298.564 446.259C298.564 446.259 293.967 444.121 294.715 438.454C295.571 432.787 299.741 427.975 302.628 427.547C305.942 427.44 310.112 428.296 310.112 428.296Z" fill="#0064E1"/>
<path d="M304.55 455.562C304.55 455.562 312.355 454.172 316.846 454.065C321.444 453.852 327.538 453.424 328.501 454.065C329.463 454.707 330.318 463.689 330.318 463.689C330.318 463.689 331.174 466.148 325.079 465.72C318.984 465.186 304.977 464.651 304.977 464.651C304.977 464.651 301.77 464.437 301.663 461.764C301.556 458.984 302.09 457.701 302.09 457.701C302.09 457.701 302.625 455.883 304.55 455.562Z" fill="#170856"/>
<path d="M341.226 447.755C341.226 447.755 378.542 436.421 391.801 432.465C404.953 428.509 412.544 424.98 416.714 431.075C421.098 437.383 420.671 444.227 415.645 446.151C410.62 448.183 371.913 457.164 355.874 460.479C339.836 463.794 329.25 465.932 327.753 465.184C326.256 464.542 324.545 459.731 324.973 457.164C325.401 454.491 325.508 453.636 328.502 452.139C331.709 450.963 341.226 447.755 341.226 447.755Z" fill="#0054A3"/>
<path d="M336.838 393.546H381.746C381.746 393.546 384.205 393.118 384.205 396.433C384.205 399.747 384.205 435.14 384.205 435.14C384.205 435.14 384.419 437.813 382.388 437.813C380.356 437.813 329.674 437.813 329.674 437.813C329.674 437.813 327.535 438.454 327.535 434.926C327.535 431.397 327.535 395.577 327.535 395.577C327.535 395.577 327.321 393.546 329.995 393.546C332.668 393.546 336.838 393.546 336.838 393.546Z" fill="#0064B7"/>
<path d="M355.769 412.899L353.203 416.107L356.411 418.673L358.977 415.466L355.769 412.899Z" fill="#569ED4"/>
<defs>
<filter id="filter0_dddd_5607_317" x="208.903" y="121.406" width="46.9185" height="57.5529" filterUnits="userSpaceOnUse" color-interpolation-filters="sRGB">
<feFlood flood-opacity="0" result="BackgroundImageFix"/>
<feColorMatrix in="SourceAlpha" type="matrix" values="0 0 0 0 0 0 0 0 0 0 0 0 0 0 0 0 0 0 127 0" result="hardAlpha"/>
<feOffset dy="0.594195"/>
<feGaussianBlur stdDeviation="0.594195"/>
<feColorMatrix type="matrix" values="0 0 0 0 0 0 0 0 0 0 0 0 0 0 0 0 0 0 0.06 0"/>
<feBlend mode="normal" in2="BackgroundImageFix" result="effect1_dropShadow_5607_317"/>
<feColorMatrix in="SourceAlpha" type="matrix" values="0 0 0 0 0 0 0 0 0 0 0 0 0 0 0 0 0 0 127 0" result="hardAlpha"/>
<feOffset dx="-0.594195" dy="1.78258"/>
<feGaussianBlur stdDeviation="0.891292"/>
<feColorMatrix type="matrix" values="0 0 0 0 0 0 0 0 0 0 0 0 0 0 0 0 0 0 0.05 0"/>
<feBlend mode="normal" in2="effect1_dropShadow_5607_317" result="effect2_dropShadow_5607_317"/>
<feColorMatrix in="SourceAlpha" type="matrix" values="0 0 0 0 0 0 0 0 0 0 0 0 0 0 0 0 0 0 127 0" result="hardAlpha"/>
<feOffset dx="-1.18839" dy="4.15936"/>
<feGaussianBlur stdDeviation="1.18839"/>
<feColorMatrix type="matrix" values="0 0 0 0 0 0 0 0 0 0 0 0 0 0 0 0 0 0 0.03 0"/>
<feBlend mode="normal" in2="effect2_dropShadow_5607_317" result="effect3_dropShadow_5607_317"/>
<feColorMatrix in="SourceAlpha" type="matrix" values="0 0 0 0 0 0 0 0 0 0 0 0 0 0 0 0 0 0 127 0" result="hardAlpha"/>
<feOffset dx="-1.78258" dy="7.13034"/>
<feGaussianBlur stdDeviation="1.48549"/>
<feColorMatrix type="matrix" values="0 0 0 0 0 0 0 0 0 0 0 0 0 0 0 0 0 0 0.01 0"/>
<feBlend mode="normal" in2="effect3_dropShadow_5607_317" result="effect4_dropShadow_5607_317"/>
<feBlend mode="normal" in="SourceGraphic" in2="effect4_dropShadow_5607_317" result="shape"/>
</filter>
</defs>
</svg>
