<svg width="90" height="91" viewBox="0 0 90 91" fill="none" xmlns="http://www.w3.org/2000/svg">
<path d="M31.7806 28.5779H58.2187C58.6306 28.5779 59.023 28.403 59.2983 28.0965C59.5737 27.7902 59.7058 27.3814 59.6619 26.9716C59.0559 21.3092 55.3173 16.6991 50.2728 14.7765C52.0452 13.2758 53.1734 11.0366 53.1734 8.53762C53.1736 4.03006 49.5069 0.363037 44.9998 0.363037C40.4926 0.363037 36.8258 4.03006 36.8258 8.53762C36.8258 11.0366 37.9541 13.2758 39.7265 14.7765C34.6818 16.6991 30.9432 21.3092 30.3374 26.9718C30.2934 27.3814 30.4255 27.7902 30.701 28.0967C30.9764 28.403 31.3689 28.5779 31.7806 28.5779ZM44.9998 3.26646C47.9061 3.26646 50.2704 5.63111 50.2704 8.53762C50.2704 11.4441 47.9061 13.8086 44.9998 13.8086C42.0935 13.8086 39.7291 11.4439 39.7291 8.53762C39.7291 5.63111 42.0935 3.26646 44.9998 3.26646ZM44.9996 16.712C50.5157 16.712 55.2008 20.4658 56.4922 25.6745H33.5073C34.7985 20.466 39.4836 16.712 44.9996 16.712ZM21.2353 17.6358L17.8102 18.4114C17.0278 18.5882 16.2508 18.0979 16.0739 17.3161C15.8968 16.5342 16.3873 15.7568 17.1691 15.5797L25.7889 13.6279C26.2604 13.521 26.7539 13.6558 27.1054 13.9875C27.457 14.3191 27.6205 14.8039 27.5416 15.2806L26.2359 23.1703C26.1183 23.8811 25.503 24.3852 24.8055 24.3852C24.7265 24.3852 24.6469 24.3789 24.5667 24.3656C23.7759 24.2346 23.2407 23.4873 23.3717 22.6963L23.988 18.9716C14.6878 28.3687 9.88735 41.5974 11.0871 54.8129C11.1597 55.6113 10.5712 56.3174 9.77286 56.3898C9.72822 56.3938 9.68394 56.3958 9.63985 56.3958C8.89754 56.3958 8.26446 55.8292 8.19605 55.0754C6.94876 41.3394 11.7895 27.5877 21.2353 17.6358ZM62.1142 12.6601C62.6276 12.044 63.543 11.9611 64.1588 12.4745C74.7528 21.3054 81.0529 34.4523 81.4104 48.1688L83.2839 45.1984C83.7116 44.5202 84.6079 44.3176 85.286 44.7449C85.9641 45.1726 86.1669 46.0692 85.7394 46.7472L81.0246 54.2227C80.7668 54.6316 80.3224 54.8851 79.8394 54.8994C79.8252 54.9 79.8109 54.9002 79.7968 54.9002C79.3295 54.9002 78.8897 54.675 78.6166 54.2935L73.9615 47.7915C73.4948 47.1395 73.6449 46.2327 74.2968 45.766C74.949 45.2994 75.8555 45.4493 76.3222 46.1013L78.5199 49.171C78.4517 35.9497 72.4928 23.2008 62.3004 14.7045C61.6842 14.1915 61.6011 13.276 62.1142 12.6601ZM43.7542 80.7342C39.9815 80.7342 36.2069 80.2884 32.5088 79.3965L34.8929 81.9749C35.437 82.5636 35.4011 83.4821 34.8127 84.0265C34.5334 84.2848 34.1799 84.4123 33.8274 84.4123C33.4367 84.4123 33.0473 84.2557 32.7612 83.9463L26.761 77.4566C26.4329 77.1017 26.303 76.6068 26.4142 76.1367C26.5256 75.6663 26.8639 75.2823 27.316 75.1121L34.801 72.2982C35.5513 72.0158 36.3886 72.3956 36.6707 73.1461C36.9529 73.8967 36.5731 74.7338 35.8228 75.016L32.2847 76.3461C41.9874 78.9002 52.3116 78.1467 61.6005 74.1638C62.3371 73.848 63.1906 74.189 63.5067 74.9259C63.8226 75.6629 63.4813 76.5163 62.7446 76.8322C56.6934 79.4268 50.2276 80.7342 43.7542 80.7342ZM41.8479 64.3811H54.7698L60.2019 70.036C60.4812 70.3268 60.8615 70.4821 61.2491 70.4821C61.4313 70.4821 61.6151 70.448 61.7907 70.377C62.3401 70.1558 62.7003 69.6228 62.7003 69.0304V64.3811H63.783C66.2348 64.3811 68.2295 62.3863 68.2295 59.9343V44.9233C68.2295 42.4713 66.2348 40.4765 63.783 40.4765H52.5979V35.5848C52.5979 33.1329 50.6032 31.138 48.1514 31.138H26.2163C23.7645 31.138 21.7698 33.1329 21.7698 35.5848V50.5958C21.7698 53.0478 23.7645 55.0426 26.2163 55.0426H27.299V59.6919C27.299 60.2844 27.659 60.8173 28.2086 61.0385C28.3844 61.1095 28.568 61.1436 28.7502 61.1436C29.138 61.1436 29.5181 60.9883 29.7974 60.6976L35.2294 55.0426H37.4014V59.9343C37.4014 62.3863 39.3961 64.3811 41.8479 64.3811ZM63.783 43.3799C64.6339 43.3799 65.3263 44.0722 65.3263 44.9233V59.9343C65.3263 60.7852 64.634 61.4777 63.783 61.4777H61.2487C60.4471 61.4777 59.7971 62.1277 59.7971 62.9294V65.4238L56.4352 61.9237C56.1614 61.6388 55.7834 61.4777 55.3882 61.4777H41.8479C40.997 61.4777 40.3046 60.7854 40.3046 59.9343V44.9233C40.3046 44.0722 40.9969 43.3799 41.8479 43.3799H63.783ZM34.6111 52.1392C34.2159 52.1392 33.8379 52.3003 33.5641 52.5852L30.2022 56.0853V53.5909C30.2022 52.7892 29.5522 52.1392 28.7506 52.1392H26.2163C25.3654 52.1392 24.673 51.4469 24.673 50.5958V35.5848C24.673 34.7339 25.3653 34.0414 26.2163 34.0414H48.1514C49.0023 34.0414 49.6947 34.7337 49.6947 35.5848V40.4765H41.8479C40.6956 40.4765 39.6447 40.9171 38.8539 41.6386H29.6214C28.8197 41.6386 28.1698 42.2886 28.1698 43.0903C28.1698 43.892 28.8197 44.542 29.6214 44.542H37.4188C37.4081 44.6678 37.4014 44.7948 37.4014 44.9233V47.033H29.6214C28.8197 47.033 28.1698 47.683 28.1698 48.4847C28.1698 49.2864 28.8197 49.9364 29.6214 49.9364H37.4014V52.1392H34.6111ZM19.9441 76.5676C21.7165 75.0669 22.8447 72.8277 22.8447 70.3287C22.8447 65.8212 19.178 62.1542 14.6707 62.1542C10.1635 62.1542 6.49677 65.8212 6.49677 70.3287C6.49677 72.8277 7.62503 75.0669 9.39725 76.5676C4.35275 78.4903 0.614144 83.1005 0.00828086 88.7629C-0.0356302 89.1727 0.0964659 89.5815 0.371908 89.8878C0.647349 90.1941 1.03965 90.3691 1.45154 90.3691L27.8896 90.3689C28.3015 90.3689 28.694 90.1938 28.9692 89.8876C29.2447 89.5813 29.3768 89.1723 29.3329 88.7627C28.727 83.1003 24.9884 78.4903 19.9441 76.5676ZM14.6707 65.0576C17.577 65.0576 19.9415 67.4222 19.9415 70.3287C19.9415 73.234 17.5789 75.5979 14.6744 75.5997H14.6706H14.6669C11.7625 75.5977 9.39997 73.2338 9.39997 70.3287C9.39997 67.4222 11.7645 65.0576 14.6707 65.0576ZM3.17822 87.4656C4.46924 82.258 9.15229 78.5048 14.6668 78.5031H14.6706H14.6744C20.1888 78.505 24.8719 82.2582 26.1629 87.4655L3.17822 87.4656ZM89.991 88.7626C89.385 83.1002 85.6465 78.4901 80.602 76.5675C82.3744 75.0668 83.5027 72.8275 83.5027 70.3286C83.5027 65.821 79.836 62.154 75.3287 62.154C70.8215 62.154 67.1547 65.821 67.1547 70.3286C67.1547 72.8275 68.283 75.0668 70.0554 76.5675C65.0107 78.4901 61.2721 83.1003 60.6664 88.7627C60.6225 89.1725 60.7546 89.5813 61.0301 89.8876C61.3055 90.1939 61.698 90.3689 62.1097 90.3689H88.5478C88.9597 90.3689 89.3521 90.1938 89.6274 89.8876C89.9028 89.5811 90.0349 89.1721 89.991 88.7626ZM75.3287 65.0576C78.235 65.0576 80.5995 67.4222 80.5995 70.3287C80.5995 73.234 78.2368 75.5977 75.3324 75.5997H75.3287H75.3251C72.4206 75.5977 70.058 73.234 70.058 70.3287C70.0581 67.4222 72.4226 65.0576 75.3287 65.0576ZM63.8364 87.4656C65.1274 82.258 69.8105 78.5048 75.3251 78.5031H75.3289H75.3327C80.8472 78.505 85.5301 82.2582 86.8213 87.4655L63.8364 87.4656Z" fill="#2A2A2A"/>
<rect x="44" y="56.9004" width="18" height="3" rx="1.5" fill="#2A2A2A"/>
<rect x="44" y="50.9004" width="18" height="3" rx="1.5" fill="#2A2A2A"/>
<path d="M28 48.4004C28 47.572 28.6716 46.9004 29.5 46.9004H36C36.8284 46.9004 37.5 47.572 37.5 48.4004C37.5 49.2288 36.8284 49.9004 36 49.9004H29.5C28.6716 49.9004 28 49.2288 28 48.4004Z" fill="#2A2A2A"/>
<path d="M28 43.4004C28 42.572 28.6716 41.9004 29.5 41.9004H36.5C37.3284 41.9004 38 42.572 38 43.4004C38 44.2288 37.3284 44.9004 36.5 44.9004H29.5C28.6716 44.9004 28 44.2288 28 43.4004Z" fill="#2A2A2A"/>
<rect x="52" y="45.9004" width="10" height="3" rx="1.5" fill="#2A2A2A"/>
</svg>
