<svg width="78" height="79" viewBox="0 0 78 79" fill="none" xmlns="http://www.w3.org/2000/svg">
<path d="M72.1076 31.9566C71.0096 31.965 69.5265 32.158 69.1736 30.8125C68.5084 28.4574 67.5636 26.1904 66.3593 24.06C66.189 23.7579 66.1233 23.4079 66.1722 23.0646C66.2212 22.7212 66.3821 22.4036 66.63 22.161C69.6177 19.7737 70.4615 15.7083 67.6473 12.821L65.516 10.6895C62.6195 7.88183 58.576 8.70771 56.1783 11.7071C55.9363 11.9544 55.6197 12.1152 55.2773 12.1648C54.9349 12.2145 54.5857 12.1502 54.2834 11.9818C52.152 10.7752 49.8832 9.82936 47.5259 9.1646C46.1758 8.82003 46.3752 7.30089 46.382 6.22897C46.3824 4.66856 45.7637 3.17174 44.6618 2.06698C43.5598 0.962225 42.0647 0.33976 40.5044 0.336182H37.4956C35.9353 0.339764 34.4402 0.962245 33.3383 2.06703C32.2364 3.17181 31.6177 4.66864 31.6181 6.22905C31.6233 7.33328 31.8279 8.80046 30.4741 9.16315C28.1192 9.82847 25.8524 10.7734 23.7221 11.9777C22.5187 12.7023 21.5629 11.4552 20.8058 10.6894C19.7011 9.58792 18.2048 8.96938 16.6449 8.96939C15.085 8.96941 13.5887 9.58798 12.484 10.6895L10.3526 12.8211C9.25111 13.9261 8.63261 15.4227 8.63261 16.983C8.63261 18.5433 9.25111 20.0399 10.3526 21.1449C11.1378 21.9123 12.3511 22.8522 11.6447 24.0546C10.4383 26.1862 9.4925 28.4552 8.82778 30.8126C8.73415 31.1449 8.53364 31.437 8.25726 31.6438C7.98088 31.8506 7.64405 31.9606 7.29889 31.9566C3.49379 31.5438 0.0613832 33.8112 0 37.8346V40.8436C0.0607843 44.8522 3.4903 47.1405 7.29889 46.7213C7.64394 46.7173 7.98067 46.8272 8.25686 47.0341C8.53305 47.241 8.73325 47.5332 8.82641 47.8655C9.4916 50.2206 10.4364 52.4876 11.6407 54.6181C12.3671 55.82 11.1144 56.7818 10.3511 57.5359C9.72464 58.166 9.24692 58.9282 8.95291 59.7668C8.83805 60.1127 8.86333 60.4899 9.02332 60.8175C9.1833 61.145 9.46526 61.3968 9.80873 61.5189C10.1522 61.641 10.5298 61.6236 10.8606 61.4704C11.1914 61.3173 11.449 61.0407 11.5782 60.6998C11.7828 59.8873 12.7828 59.066 13.3395 58.4882C16.7693 54.9528 12.0905 50.9481 11.5076 47.109C11.2453 46.195 10.6928 45.3912 9.93365 44.8187C9.17446 44.2463 8.24969 43.9363 7.29889 43.9355H5.89244C5.07081 43.9364 4.28236 43.6114 3.69997 43.0318C3.11759 42.4522 2.7888 41.6652 2.78571 40.8435V37.8345C2.7888 37.0128 3.11759 36.2259 3.69997 35.6463C4.28236 35.0667 5.07081 34.7417 5.89244 34.7425H7.29889C8.24981 34.7416 9.17466 34.4316 9.93401 33.8592C10.6934 33.2867 11.2461 32.4829 11.5088 31.5689C12.114 29.4241 12.9748 27.3597 14.0728 25.4203C14.5339 24.5866 14.7117 23.6256 14.5795 22.6821C14.4472 21.7385 14.0121 20.8634 13.3396 20.1886L12.3222 19.1738C11.742 18.592 11.4163 17.8039 11.4163 16.9823C11.4163 16.1607 11.742 15.3726 12.3222 14.7908L14.4537 12.6592C15.0351 12.0791 15.823 11.7533 16.6443 11.7533C17.4657 11.7533 18.2535 12.0791 18.8349 12.6592L19.8524 13.6768C23.391 17.1105 27.4015 12.4205 31.2306 11.8446C32.1445 11.5823 32.9483 11.0298 33.5207 10.2706C34.0931 9.51131 34.4031 8.58648 34.4039 7.63561V6.22905C34.403 5.40736 34.728 4.61885 35.3075 4.03642C35.8871 3.454 36.674 3.12519 37.4956 3.1221H40.5044C41.326 3.12519 42.1129 3.454 42.6925 4.03642C43.2721 4.61885 43.597 5.40736 43.5962 6.22905V7.63561C43.5971 8.5866 43.9071 9.51152 44.4795 10.2709C45.0519 11.0303 45.8556 11.5831 46.7695 11.8458C51.4521 12.7488 55.0583 17.7457 59.1637 12.6591C59.7458 12.0796 60.5337 11.7542 61.3551 11.7543C62.1764 11.7543 62.9643 12.0797 63.5464 12.6592L65.6778 14.7909C66.2579 15.3724 66.5837 16.1603 66.5837 16.9817C66.5837 17.8031 66.2579 18.591 65.6778 19.1725L64.6604 20.19C61.2292 23.7319 65.9154 27.7383 66.4924 31.5691C66.7547 32.4831 67.3072 33.2869 68.0663 33.8594C68.8255 34.4319 69.7503 34.7419 70.7011 34.7426H72.1076C72.9292 34.7417 73.7176 35.0667 74.3 35.6463C74.8824 36.2259 75.2112 37.0129 75.2143 37.8345V40.8435C75.2112 41.6652 74.8824 42.4522 74.3 43.0318C73.7176 43.6114 72.9292 43.9364 72.1076 43.9355H70.7011C69.7502 43.9364 68.8253 44.2465 68.066 44.8189C67.3066 45.3914 66.7539 46.1952 66.4912 47.1091C65.9239 50.9302 61.2233 54.9359 64.6602 58.4894C65.165 59.0041 66.2325 59.9142 66.4218 60.6999C66.5511 61.0407 66.8087 61.3172 67.1395 61.4702C67.4702 61.6233 67.8478 61.6406 68.1912 61.5185C68.5345 61.3965 68.8164 61.1447 68.9764 60.8173C69.1364 60.4898 69.1618 60.1127 69.047 59.7668C68.7525 58.9274 68.2743 58.1643 67.6474 57.5332C66.8695 56.7751 65.6421 55.8105 66.3553 54.6235C67.5617 52.4919 68.5075 50.2229 69.1722 47.8655C69.2659 47.5332 69.4664 47.2411 69.7427 47.0343C70.0191 46.8275 70.356 46.7175 70.7011 46.7215C74.5079 47.1323 77.9371 44.8696 78 40.8434V37.8345C77.9964 36.2741 77.374 34.7789 76.2693 33.6769C75.1646 32.5749 73.6679 31.9562 72.1076 31.9566Z" fill="#2A2A2A"/>
<path d="M58.5008 39.3391C58.495 34.1688 56.4387 29.2119 52.783 25.5559C49.1273 21.8999 44.1707 19.8434 39.0008 19.8376C13.1313 20.9086 13.1389 57.7735 39.001 58.8405C44.1709 58.8347 49.1274 56.7782 52.783 53.1222C56.4387 49.4662 58.495 44.5094 58.5008 39.3391ZM22.2865 39.3391C22.2913 34.9073 24.0539 30.6585 27.1873 27.5248C30.3208 24.391 34.5694 22.6284 39.0008 22.6236C61.1747 23.541 61.1683 55.1404 39.0007 56.0546C34.5693 56.0497 30.3208 54.2871 27.1873 51.1534C24.0538 48.0196 22.2913 43.7708 22.2865 39.3391Z" fill="#2A2A2A"/>
<path d="M71.0389 64.4126H6.96748C-2.21761 64.6975 -2.25034 78.0462 6.96765 78.3422H71.0389C80.224 78.0573 80.2567 64.7086 71.0389 64.4126ZM50.1461 75.5563H6.96748C5.8674 75.5439 4.81659 75.0981 4.04307 74.3158C3.26955 73.5334 2.83573 72.4775 2.83576 71.3773C2.83578 70.2771 3.26964 69.2212 4.04319 68.4389C4.81674 67.6566 5.86757 67.2109 6.96765 67.1985H50.1461C51.2461 67.2109 52.297 67.6566 53.0705 68.439C53.844 69.2213 54.2779 70.2772 54.2779 71.3774C54.2779 72.4776 53.844 73.5335 53.0705 74.3158C52.297 75.0982 51.2461 75.5439 50.1461 75.5563ZM71.0389 75.5563H55.6819C56.5946 74.3543 57.0887 72.8866 57.0886 71.3774C57.0886 69.8681 56.5945 68.4004 55.6818 67.1985H71.0389C72.139 67.2109 73.1898 67.6566 73.9633 68.439C74.7369 69.2213 75.1707 70.2772 75.1707 71.3774C75.1707 72.4776 74.7369 73.5335 73.9633 74.3158C73.1898 75.0982 72.139 75.5439 71.0389 75.5563Z" fill="#2A2A2A"/>
<path d="M8.76305 68.6812C8.41738 68.5514 8.03442 68.5637 7.69777 68.7154C7.36113 68.867 7.09816 69.1457 6.96626 69.4905L5.91073 72.2762C5.77977 72.6218 5.79147 73.0053 5.94324 73.3423C6.09502 73.6793 6.37445 73.9421 6.72005 74.0731C7.06565 74.204 7.44911 74.1923 7.78609 74.0406C8.12306 73.8888 8.38594 73.6094 8.5169 73.2638L9.57242 70.4781C9.70312 70.1324 9.69129 69.7491 9.53953 69.4122C9.38777 69.0752 9.1085 68.8123 8.76305 68.6812Z" fill="#2A2A2A"/>
<path d="M17.2084 68.6811C16.8627 68.5517 16.4798 68.5641 16.1433 68.7157C15.8067 68.8673 15.5437 69.1458 15.4116 69.4905L14.356 72.2762C14.2251 72.6218 14.2368 73.0053 14.3886 73.3422C14.5403 73.6792 14.8198 73.9421 15.1654 74.073C15.511 74.204 15.8944 74.1923 16.2314 74.0405C16.5684 73.8887 16.8313 73.6093 16.9622 73.2637L18.0177 70.478C18.1484 70.1324 18.1366 69.749 17.9848 69.4121C17.8331 69.0752 17.5538 68.8123 17.2084 68.6811Z" fill="#2A2A2A"/>
<path d="M25.6537 68.681C25.308 68.5514 24.9251 68.5638 24.5885 68.7154C24.2519 68.867 23.9889 69.1456 23.8569 69.4904L22.8014 72.2761C22.6704 72.6217 22.6821 73.0052 22.8339 73.3421C22.9856 73.6791 23.2651 73.942 23.6107 74.0729C23.9563 74.2039 24.3397 74.1922 24.6767 74.0404C25.0137 73.8886 25.2766 73.6092 25.4075 73.2636L26.463 70.4779C26.5937 70.1323 26.5819 69.7489 26.4302 69.412C26.2784 69.0751 25.9991 68.8122 25.6537 68.681Z" fill="#2A2A2A"/>
<path d="M34.099 68.6812C33.7533 68.5514 33.3704 68.5637 33.0337 68.7154C32.6971 68.867 32.4341 69.1457 32.3022 69.4905L31.2467 72.2762C31.1818 72.4474 31.1513 72.6296 31.1569 72.8125C31.1625 72.9954 31.204 73.1754 31.2792 73.3423C31.3543 73.5091 31.4616 73.6595 31.5949 73.7849C31.7282 73.9103 31.8849 74.0082 32.056 74.0731C32.2271 74.1379 32.4093 74.1684 32.5922 74.1629C32.7751 74.1573 32.9552 74.1157 33.122 74.0406C33.2889 73.9654 33.4393 73.8581 33.5647 73.7249C33.6901 73.5916 33.788 73.4349 33.8528 73.2638L34.9084 70.4781C35.0391 70.1324 35.0272 69.7491 34.8755 69.4122C34.7237 69.0752 34.4444 68.8123 34.099 68.6812Z" fill="#2A2A2A"/>
<path d="M42.5404 68.681C42.1947 68.5514 41.8118 68.5638 41.4752 68.7154C41.1386 68.867 40.8756 69.1456 40.7436 69.4904L39.6881 72.2761C39.5571 72.6217 39.5688 73.0051 39.7206 73.3421C39.8724 73.6791 40.1518 73.942 40.4974 74.0729C40.843 74.2039 41.2264 74.1922 41.5634 74.0404C41.9004 73.8886 42.1633 73.6092 42.2942 73.2636L43.3498 70.4779C43.4805 70.1323 43.4686 69.7489 43.3169 69.412C43.1651 69.0751 42.8858 68.8122 42.5404 68.681Z" fill="#2A2A2A"/>
<path d="M50.9882 68.6811C50.6425 68.5517 50.2597 68.5641 49.9231 68.7157C49.5866 68.8673 49.3236 69.1458 49.1914 69.4905L48.1359 72.2762C48.0131 72.6199 48.0301 72.9982 48.1832 73.3295C48.3363 73.6609 48.6132 73.919 48.9546 74.0484C49.2959 74.1777 49.6744 74.168 50.0086 74.0213C50.3429 73.8745 50.6062 73.6025 50.7421 73.2637L51.7976 70.478C51.9283 70.1324 51.9165 69.749 51.7647 69.4121C51.613 69.0752 51.3337 68.8123 50.9882 68.6811Z" fill="#2A2A2A"/>
</svg>
