<svg width="84" height="93" viewBox="0 0 84 93" fill="none" xmlns="http://www.w3.org/2000/svg">
<path d="M82.5203 48.7762H1.47976C0.662624 48.7762 0.000110095 49.4407 0.000110095 50.2602V55.76C0.000110095 56.374 0.377052 56.9244 0.948198 57.1449L6.94357 59.4596C7.77994 62.6724 9.04985 65.745 10.7272 68.6131L8.11804 74.5051C7.86946 75.066 7.99116 75.7225 8.42396 76.1568L16.1794 83.9348C16.6122 84.3689 17.2669 84.4906 17.8262 84.2417L23.703 81.6239C26.5639 83.3062 29.6263 84.5796 32.8271 85.4175L35.1354 91.4321C35.3551 92.0049 35.9041 92.383 36.5163 92.383H47.4837C48.0959 92.383 48.6446 92.0049 48.8645 91.4321L51.1722 85.4194C54.3753 84.5809 57.4388 83.3071 60.2991 81.6245L66.1739 84.2417C66.7332 84.4911 67.3879 84.3689 67.8207 83.9347L75.576 76.1564C76.0088 75.7223 76.1305 75.0658 75.8819 74.5049L73.2718 68.6109C74.9492 65.7418 76.2189 62.6707 77.0545 59.4601L83.0517 57.1451C83.6229 56.9247 83.9998 56.3742 83.9998 55.7602V50.2602C84 49.4407 83.3377 48.7762 82.5203 48.7762ZM60.4948 51.7442C59.7383 61.3134 51.7325 68.8682 42.0001 68.8682C32.2675 68.8682 24.2616 61.3134 23.5051 51.7442H60.4948ZM81.0407 54.7411L75.2739 56.9674C74.8188 57.1431 74.479 57.5328 74.366 58.0086C73.5509 61.4437 72.1989 64.7141 70.3474 67.7298C70.0916 68.1464 70.057 68.6628 70.2551 69.1101L72.7652 74.7783L66.4467 81.1155L60.7972 78.5986C60.3509 78.3998 59.836 78.4347 59.4206 78.6914C56.4145 80.5486 53.1526 81.9048 49.7253 82.7224C49.2507 82.8358 48.8621 83.1763 48.687 83.633L46.4679 89.415H37.5322L35.3126 83.6314C35.1374 83.1747 34.7488 82.8341 34.2742 82.7209C30.8496 81.9036 27.5886 80.5477 24.5814 78.6906C24.1658 78.4339 23.6507 78.3994 23.2051 78.5981L17.5536 81.1155L11.2349 74.7785L13.7441 69.1125C13.9421 68.6653 13.9076 68.1488 13.6516 67.732C11.8005 64.7179 10.4483 61.4461 9.63247 58.008C9.51946 57.5322 9.17988 57.1425 8.72451 56.9669L2.95942 54.7413V51.7442H20.5386C21.3016 62.9516 30.635 71.8363 42.0001 71.8363C53.3649 71.8363 62.6984 62.9517 63.4613 51.7444H81.0407V54.7411ZM34.6584 19.4674C34.1642 18.8147 34.2912 17.8838 34.9421 17.3882L49.3739 6.39802C49.7984 6.07452 50.3636 6.00533 50.8532 6.21642L64.41 12.0629L73.9504 3.35809L72.4043 3.36366H72.399C71.5842 3.36366 70.9225 2.70292 70.9193 1.88506C70.9164 1.06534 71.5765 0.39848 72.3936 0.395698L77.7856 0.376221H77.791C78.2327 0.376221 78.6514 0.574146 78.9326 0.916018C79.2148 1.25937 79.3287 1.71143 79.2426 2.14809L78.197 7.45313C78.0577 8.16006 77.4392 8.64941 76.7471 8.64959C76.6519 8.64959 76.5555 8.64013 76.4586 8.62103C75.657 8.46224 75.1354 7.68167 75.2939 6.87754L75.47 5.98455L65.6967 14.9018C65.2674 15.2932 64.6495 15.3971 64.1166 15.1674L50.4766 9.28492L36.7318 19.752C36.4643 19.9558 36.1499 20.0542 35.838 20.0542C35.3912 20.0542 34.9495 19.852 34.6584 19.4674ZM1.47976 46.2447H28.1873C28.6072 46.2447 29.0072 46.0659 29.2878 45.7528C29.5684 45.4397 29.7032 45.0216 29.6585 44.6029C29.0466 38.8692 25.2763 34.1993 20.1863 32.2449C21.9696 30.7223 23.1042 28.4566 23.1042 25.9291C23.1042 21.3554 19.3939 17.6343 14.8336 17.6343C10.2732 17.6343 6.56293 21.3554 6.56293 25.9291C6.56293 28.4566 7.69727 30.7221 9.4808 32.2449C4.3908 34.1991 0.62027 38.8692 0.00843316 44.6029C-0.0363263 45.0217 0.098507 45.4397 0.379086 45.7528C0.659665 46.0659 1.05991 46.2447 1.47976 46.2447ZM9.52242 25.9289C9.52242 22.9917 11.905 20.6021 14.8338 20.6021C17.7624 20.6021 20.145 22.9917 20.145 25.9289C20.145 28.8649 17.7645 31.2538 14.8375 31.2556H14.8336H14.8299C11.903 31.2538 9.52242 28.8651 9.52242 25.9289ZM14.8297 34.2238H14.8336H14.8375C20.396 34.2256 25.1174 38.0161 26.426 43.2768H3.24092C4.54967 38.0159 9.27106 34.2254 14.8297 34.2238Z" fill="#2A2A2A"/>
<mask id="path-2-inside-1_5636_1133" fill="white">
<rect x="31" y="29.9004" width="10" height="16" rx="1"/>
</mask>
<rect x="31" y="29.9004" width="10" height="16" rx="1" stroke="#2A2A2A" stroke-width="6" mask="url(#path-2-inside-1_5636_1133)"/>
<mask id="path-3-inside-2_5636_1133" fill="white">
<rect x="45" y="18.9004" width="10" height="27" rx="1"/>
</mask>
<rect x="45" y="18.9004" width="10" height="27" rx="1" stroke="#2A2A2A" stroke-width="6" mask="url(#path-3-inside-2_5636_1133)"/>
<mask id="path-4-inside-3_5636_1133" fill="white">
<rect x="60" y="22.9004" width="10" height="23" rx="1"/>
</mask>
<rect x="60" y="22.9004" width="10" height="23" rx="1" stroke="#2A2A2A" stroke-width="6" mask="url(#path-4-inside-3_5636_1133)"/>
<mask id="path-5-inside-4_5636_1133" fill="white">
<rect x="74" y="9.90039" width="10" height="36" rx="1"/>
</mask>
<rect x="74" y="9.90039" width="10" height="36" rx="1" stroke="#2A2A2A" stroke-width="6" mask="url(#path-5-inside-4_5636_1133)"/>
</svg>
