<svg width="80" height="81" viewBox="0 0 80 81" fill="none" xmlns="http://www.w3.org/2000/svg">
<path d="M80 45.5854V35.1198C80 34.4859 79.5397 33.9459 78.9137 33.8457L72.5123 32.8209C71.6835 29.2258 70.2739 25.8254 68.3126 22.6905L72.1169 17.4356C72.4889 16.9221 72.4324 16.2147 71.9844 15.7664L64.5845 8.36618C64.1365 7.91808 63.429 7.86163 62.9153 8.23343L57.6608 12.0381C54.5252 10.0763 51.1253 8.66669 47.5311 7.83791L46.5065 1.43614C46.4063 0.810128 45.8661 0.349609 45.2323 0.349609H34.7674C34.1335 0.349609 33.5935 0.810128 33.4934 1.43598L32.4687 7.83775C28.874 8.66653 25.4739 10.0761 22.3389 12.0377L17.0845 8.23327C16.5713 7.86146 15.8637 7.91792 15.4153 8.36602L8.01548 15.7663C7.56742 16.2145 7.51097 16.922 7.8829 17.4356L11.6873 22.6903C9.725 25.8273 8.31548 29.2271 7.48742 32.8208L1.08613 33.8455C0.460323 33.9458 0 34.4859 0 35.1198V45.5854C0 46.2194 0.460322 46.7594 1.08629 46.8596L7.48758 47.8843C8.31629 51.4791 9.72597 54.8795 11.6874 58.0148L7.88306 63.2697C7.51113 63.7831 7.56758 64.4906 8.01565 64.9388L15.4155 72.3391C15.864 72.7875 16.5715 72.8433 17.0847 72.4718L22.339 68.6672C25.4758 70.6296 28.8758 72.0394 32.4689 72.8673L33.4935 79.2691C33.5937 79.895 34.1339 80.3555 34.7676 80.3555H45.2324C45.8663 80.3555 46.4063 79.895 46.5065 79.2691L47.4258 73.5259C50.7866 77.6882 55.9281 80.3555 61.6816 80.3555C71.7824 80.3556 80 72.1374 80 62.0359C80 56.2819 77.3327 51.1399 73.1708 47.7788L78.9135 46.8596C79.5397 46.7596 80 46.2195 80 45.5854ZM63.0489 43.7672C62.5974 43.7337 62.1416 43.7163 61.6816 43.7163C58.9116 43.7163 56.284 44.3355 53.9279 45.4409V43.4004C53.9279 40.3513 51.6192 38.03 47.5934 37.0314C46.1905 36.6835 44.789 36.4341 43.3916 36.2767C45.5285 34.7767 46.9774 31.9078 46.9774 28.6203C46.9774 24.1738 44.3039 21.4115 40.0002 21.4115C35.6963 21.4115 33.0227 24.1738 33.0227 28.6203C33.0227 31.9007 34.4655 34.7641 36.5948 36.2667C35.185 36.4238 33.7842 36.677 32.3961 37.034C28.3181 38.0823 26.0721 40.3433 26.0721 43.4004V54.8815C26.0721 55.5941 26.6498 56.1719 27.3624 56.1719H44.3258C43.7019 58.0138 43.3634 59.986 43.3634 62.0359C43.3634 62.4957 43.3808 62.9517 43.4144 63.4032C42.2856 63.569 41.1418 63.6531 40 63.6531C27.1531 63.6531 16.7013 53.2005 16.7013 40.3525C16.7013 27.5044 27.1531 17.052 40 17.052C52.8469 17.052 63.2987 27.5047 63.2987 40.3526C63.2987 41.4945 63.2147 42.6384 63.0489 43.7672ZM46.8948 44.7492C46.1823 44.7492 45.6045 45.327 45.6045 46.0397V53.2625C45.545 53.3712 45.4869 53.4809 45.4295 53.5909H34.3952V46.0397C34.3952 45.327 33.8174 44.7492 33.1048 44.7492C32.3923 44.7492 31.8145 45.327 31.8145 46.0397V53.5909H28.6526V43.4003C28.6526 41.1361 31.0376 40.0478 33.0384 39.5334C37.5748 38.3667 42.2624 38.3676 46.9719 39.5361C48.606 39.9415 51.3471 40.9823 51.3471 43.4003V46.9181C50.1911 47.7111 49.13 48.6326 48.1852 49.6627V46.0395C48.1852 45.327 47.6074 44.7492 46.8948 44.7492ZM40 34.8046C37.5756 34.8046 35.6032 32.0302 35.6032 28.6201C35.6032 24.5934 38.3579 23.9922 40 23.9922C41.6421 23.9922 44.3966 24.5935 44.3966 28.6201C44.3966 32.0304 42.4242 34.8046 40 34.8046ZM77.4193 62.0359C77.4193 70.7144 70.3595 77.7748 61.6816 77.7748C53.0039 77.7748 45.944 70.7144 45.944 62.0359C45.944 53.3573 53.0039 46.2971 61.6816 46.2971C70.3595 46.2971 77.4193 53.3575 77.4193 62.0359ZM77.4193 44.4852L71.2337 45.4753C70.9098 45.5272 70.6273 45.6993 70.431 45.9447C68.935 45.1278 67.3127 44.5145 65.6023 44.1402C65.7861 42.888 65.8793 41.619 65.8793 40.3526C65.8793 26.0815 54.2698 14.4713 39.9998 14.4713C25.7298 14.4713 14.1205 26.0817 14.1205 40.3526C14.1205 54.6235 25.73 66.2341 39.9998 66.2341C41.2663 66.2341 42.535 66.1408 43.7871 65.957C44.1616 67.6676 44.7748 69.29 45.5916 70.7862C45.3463 70.9823 45.1742 71.2649 45.1223 71.589L44.1321 77.7748H35.8677L34.8776 71.5888C34.7926 71.0575 34.3868 70.6347 33.8595 70.5281C29.9763 69.7422 26.3258 68.2287 23.0095 66.0295C22.5615 65.7324 21.9758 65.7444 21.5398 66.0599L16.4624 69.7364L10.6187 63.8921L14.2948 58.8142C14.6103 58.3783 14.6224 57.7926 14.3252 57.3442C12.1271 54.0301 10.6135 50.3793 9.82694 46.4936C9.72016 45.9661 9.29742 45.5604 8.76629 45.4754L2.58065 44.4852V36.2201L8.76613 35.2298C9.29742 35.1448 9.72016 34.739 9.82677 34.2117C10.6127 30.328 12.1261 26.6774 14.325 23.361C14.6224 22.9128 14.6103 22.3269 14.2947 21.8911L10.6185 16.8134L16.4623 10.9691L21.5397 14.6455C21.9753 14.961 22.5613 14.973 23.0095 14.6757C26.3234 12.4776 29.9739 10.964 33.8595 10.1771C34.3868 10.0703 34.7924 9.64757 34.8776 9.1164L35.8677 2.93045H44.1321L45.1223 9.1164C45.2073 9.64757 45.6131 10.0703 46.1403 10.1771C50.025 10.9638 53.6755 12.4775 56.9903 14.6757C57.4384 14.9728 58.024 14.961 58.46 14.6454L63.5374 10.969L69.3813 16.8133L65.7052 21.8911C65.3897 22.3269 65.3776 22.9126 65.6748 23.361C67.8727 26.6748 69.3861 30.3256 70.1731 34.2117C70.2798 34.739 70.7026 35.1446 71.2337 35.2298L77.4193 36.2201V44.4852Z" fill="#2A2A2A"/>
<path d="M71.5284 55.3642C70.8995 54.7458 69.8801 54.7458 69.2512 55.3642L58.3578 66.0796L54.7488 62.5308C54.1199 61.9125 53.1005 61.9125 52.4716 62.5308C51.8428 63.1492 51.8428 64.1516 52.4716 64.77L57.2173 69.4364C57.7367 69.9472 58.5414 70.047 59.1741 69.6822C59.1975 69.6668 59.221 69.6553 59.2405 69.6399C59.3303 69.5823 59.4163 69.5132 59.4944 69.4364L71.5284 57.6033C72.1572 56.9849 72.1572 55.9825 71.5284 55.3642Z" fill="#2A2A2A"/>
</svg>
