<svg width="80" height="81" viewBox="0 0 80 81" fill="none" xmlns="http://www.w3.org/2000/svg">
<path d="M78.6667 78.2337H76.244V28.5311C76.244 27.7937 75.6467 27.1977 74.9107 27.1977H63.796C63.06 27.1977 62.4627 27.7937 62.4627 28.5311V78.2337H57.5773V49.8644C57.5773 49.1271 56.98 48.5311 56.244 48.5311H45.1293C44.3933 48.5311 43.796 49.1271 43.796 49.8644V78.2337H38.9107V39.1977C38.9107 38.4604 38.3133 37.8644 37.5773 37.8644H26.4627C25.7267 37.8644 25.1293 38.4604 25.1293 39.1977V78.2337H20.244V57.8644C20.244 57.1271 19.6467 56.5311 18.9107 56.5311H7.796C7.06 56.5311 6.46267 57.1271 6.46267 57.8644V78.2337H2.66667V2.23372C2.66667 1.49639 2.06933 0.900391 1.33333 0.900391C0.597333 0.900391 0 1.49639 0 2.23372V79.5671C0 80.3044 0.597333 80.9004 1.33333 80.9004H78.6667C79.4027 80.9004 80 80.3044 80 79.5671C80 78.8297 79.4027 78.2337 78.6667 78.2337ZM9.12933 78.2337V59.1977H17.5773V78.2337H9.12933ZM27.796 78.2337V40.5311H36.244V78.2337H27.796ZM46.4627 78.2337V51.1977H54.9107V78.2337H46.4627ZM65.1293 78.2337V29.8644H73.5773V78.2337H65.1293Z" fill="#2A2A2A"/>
<path d="M13.3529 47.5671C16.2942 47.5671 18.6862 45.1751 18.6862 42.2338C18.6862 41.2498 18.3995 40.3378 17.9329 39.5458L28.7049 27.5551C29.6315 28.3298 30.8062 28.8138 32.1049 28.8138C33.7622 28.8138 35.2262 28.0391 36.2049 26.8498L45.7382 33.6031C45.4955 34.2124 45.3529 34.8724 45.3529 35.5671C45.3529 38.5084 47.7449 40.9004 50.6862 40.9004C53.6275 40.9004 56.0195 38.5084 56.0195 35.5671C56.0195 34.7498 55.8195 33.9844 55.4902 33.2911L68.0169 16.6564C68.4462 16.7684 68.8889 16.8471 69.3529 16.8471C72.2942 16.8471 74.6862 14.4551 74.6862 11.5138C74.6862 8.57242 72.2942 6.18042 69.3529 6.18042C66.4115 6.18042 64.0195 8.57242 64.0195 11.5138C64.0195 13.0218 64.6542 14.3791 65.6635 15.3498L53.7289 31.1978C52.8649 30.5938 51.8182 30.2338 50.6862 30.2338C49.4062 30.2338 48.2462 30.7058 47.3262 31.4591L37.3462 24.3898C37.3982 24.0938 37.4382 23.7924 37.4382 23.4818C37.4382 20.5404 35.0462 18.1484 32.1049 18.1484C29.1635 18.1484 26.7715 20.5404 26.7715 23.4818C26.7715 24.1338 26.9062 24.7511 27.1209 25.3298L16.0462 37.6578C15.2529 37.1884 14.3395 36.9018 13.3529 36.9018C10.4115 36.9018 8.01953 39.2938 8.01953 42.2351C8.01953 45.1764 10.4115 47.5671 13.3529 47.5671ZM69.3529 8.84709C70.8235 8.84709 72.0195 10.0431 72.0195 11.5138C72.0195 12.9844 70.8235 14.1804 69.3529 14.1804C67.8822 14.1804 66.6862 12.9844 66.6862 11.5138C66.6862 10.0431 67.8822 8.84709 69.3529 8.84709ZM50.6862 32.9004C52.1569 32.9004 53.3529 34.0964 53.3529 35.5671C53.3529 37.0378 52.1569 38.2338 50.6862 38.2338C49.2155 38.2338 48.0195 37.0378 48.0195 35.5671C48.0195 34.0964 49.2155 32.9004 50.6862 32.9004ZM32.1049 20.8151C33.5755 20.8151 34.7715 22.0111 34.7715 23.4818C34.7715 24.9524 33.5755 26.1484 32.1049 26.1484C30.6342 26.1484 29.4382 24.9524 29.4382 23.4818C29.4382 22.0111 30.6342 20.8151 32.1049 20.8151ZM13.3529 39.5671C14.8235 39.5671 16.0195 40.7631 16.0195 42.2338C16.0195 43.7044 14.8235 44.9004 13.3529 44.9004C11.8822 44.9004 10.6862 43.7044 10.6862 42.2338C10.6862 40.7631 11.8822 39.5671 13.3529 39.5671Z" fill="#2A2A2A"/>
</svg>
