<svg width="139" height="98" viewBox="0 0 139 98" fill="none" xmlns="http://www.w3.org/2000/svg">
<path d="M136 50.143C135.213 53.0525 133.246 54.6395 130.467 55.5124C127.818 56.3588 125.248 57.4432 122.626 58.4219C118.797 59.8238 115.808 58.5541 114.024 54.8247C113.946 54.6924 113.841 54.5602 113.5 54.4544C113.5 54.7982 113.474 55.1421 113.5 55.4859C113.736 57.5755 113.552 59.6122 112.608 61.5166C111.035 64.7964 107.888 66.3041 104.348 65.4048C104.059 65.3254 103.771 65.2461 103.299 65.1138C103.535 68.4465 102.591 71.2503 99.9946 73.3134C97.3984 75.3765 94.4614 75.6939 91.2096 74.6888C91.3932 77.4132 90.7376 79.7937 88.9281 81.7775C87.1187 83.7877 84.7847 84.6077 82.0575 84.7135C82.4508 88.0462 81.5068 90.8764 78.727 92.7808C75.8162 94.7646 72.9315 94.1033 70.0207 92.3312C68.185 95.7697 65.7462 98.4412 61.5242 97.8064C57.5381 97.198 55.2304 94.5265 53.893 90.7441C51.5329 91.7228 49.1727 91.9344 46.7863 90.9293C44.4524 89.9506 42.9052 88.1785 41.9874 85.7979C38.6307 87.7817 35.3265 87.8875 32.1796 85.6657C28.9803 83.391 28.1936 80.0847 28.8754 76.3287C27.9051 76.2229 26.9348 76.2229 26.017 76.0113C20.5624 74.8211 17.7303 69.002 20.1166 63.9236C20.7984 62.4952 21.6114 61.1463 22.2932 59.718C22.503 59.2948 22.6079 58.7922 22.8439 58.0251C22.3457 58.2896 22.1359 58.3425 21.9785 58.4748C20.1428 59.8238 18.1761 60.0883 16.0257 59.4006C12.8788 58.369 9.70574 57.3903 6.5851 56.3323C2.83508 55.0627 1.18298 51.7829 2.38927 47.974C5.40502 38.4519 8.47322 28.9298 11.5152 19.4077C12.6953 15.7311 13.8753 12.0546 15.0554 8.37797C16.3928 4.33108 19.5921 2.69116 23.6831 3.98722C26.5939 4.91298 29.4523 5.94454 32.3894 6.8174C35.1691 7.63736 36.8737 9.40953 37.4768 12.6629C39.9419 12.372 42.4332 12.1075 44.9244 11.7636C47.337 11.4198 49.7234 10.8643 52.136 10.6262C56.9612 10.1766 61.4717 11.3404 65.6413 13.8532C66.2445 14.2235 66.664 14.2499 67.2934 13.8796C73.5871 10.0708 80.1956 9.72693 86.9875 12.3191C89.4788 13.2713 91.9176 14.3293 94.4089 15.2286C95.9823 15.784 97.6607 16.2601 99.3914 15.5195C99.2603 14.7789 99.103 14.1177 99.0243 13.43C98.7883 10.7056 100.204 8.21927 102.722 7.18771C106.183 5.78584 109.697 4.43688 113.238 3.24661C116.542 2.0828 119.767 3.88142 121.052 7.34641C123.963 15.2021 126.822 23.0579 129.732 30.9136C131.804 36.5475 133.902 42.155 136 47.7624C136 48.5559 136 49.3494 136 50.143ZM65.5889 77.0958C65.6151 77.0164 65.6413 76.9371 65.6675 76.8577C65.3528 76.6726 65.0119 76.4874 64.6972 76.2758C63.8319 75.6675 63.5172 74.8475 64.0416 73.8689C64.5661 72.9431 65.3791 72.6521 66.3756 73.1018C66.6903 73.234 67.0049 73.4192 67.2934 73.5779C71.4892 75.8262 75.6588 78.0745 79.8809 80.2963C83.0015 81.9362 86.5155 80.455 87.4071 77.2016C88.0627 74.7946 87.0138 72.467 84.4963 71.0651C80.8774 69.0549 77.206 67.124 73.5609 65.1667C73.1675 64.9551 72.7742 64.77 72.4333 64.5055C71.6203 63.9235 71.3319 63.13 71.7777 62.2043C72.2497 61.1992 73.1151 61.014 74.0854 61.3314C74.4525 61.4372 74.7934 61.6753 75.1343 61.8604C80.6676 64.8493 86.2008 67.8382 91.7079 70.8271C93.1239 71.5941 94.5925 71.8586 96.1135 71.3296C98.1589 70.6419 99.3915 69.1872 99.6275 66.9918C99.8897 64.6642 98.9194 62.8655 96.9002 61.7546C91.5767 58.8186 86.2533 55.9356 80.9298 53.026C80.5102 52.788 79.9071 52.6028 79.776 52.2325C79.5137 51.5713 79.304 50.7249 79.5137 50.0901C79.8022 49.2436 80.6676 48.9262 81.5854 49.2701C81.9526 49.4023 82.2935 49.6139 82.6344 49.7991C87.276 52.3383 91.8914 54.8776 96.533 57.3903C99.103 58.7922 101.647 60.2205 104.269 61.5166C106.787 62.7597 108.727 61.8869 109.593 59.189C110.405 56.6762 110.065 54.2692 108.045 52.5499C105.869 50.6984 103.509 48.9527 101.017 47.5508C96.2708 44.8793 91.3669 42.4724 86.5417 39.9596C85.3879 39.3512 84.2603 38.69 83.1326 38.0023C80.7725 36.5475 78.2812 36.6798 75.8162 37.4468C71.9088 38.6635 68.0801 40.1712 64.1728 41.3086C58.8493 42.8427 53.893 42.1814 49.6972 38.1345C46.3667 34.934 46.2094 34.0347 49.2776 30.5433C51.7164 27.7396 54.3913 25.1474 57.0136 22.5024C58.9804 20.5186 60.9997 18.6142 62.9927 16.6834C62.914 16.5776 62.8878 16.4982 62.8353 16.4453C62.7042 16.3395 62.5469 16.2602 62.3895 16.1808C58.1937 14.0119 53.7881 13.8267 49.2514 14.6731C45.344 15.3873 41.4891 16.3924 37.4768 16.1544C37.1622 16.1279 36.6377 16.6834 36.5328 17.0537C33.1761 27.3957 29.8457 37.7378 26.5939 48.1063C26.0432 49.852 25.9121 51.73 25.5974 53.5286C25.7285 53.5815 25.8597 53.6079 25.9646 53.6608C28.6918 51.3597 31.76 50.4604 35.0642 51.8887C38.3422 53.317 40.1255 56.0414 40.6237 59.5857C47.5468 59.427 49.4874 60.9082 51.4804 67.7059C56.8825 66.5421 62.5207 70.0336 62.3633 77.0958C63.4123 77.0958 64.5137 77.0958 65.5889 77.0958ZM51.0346 34.0612C53.421 37.1823 56.4629 38.7429 60.0294 38.2932C62.4682 37.9758 64.8546 37.2352 67.2147 36.5211C70.0994 35.6482 72.8791 34.5108 75.7637 33.6909C78.7795 32.8445 81.7952 33.0032 84.6274 34.6166C87.2236 36.0714 89.8197 37.4468 92.4421 38.8487C99.0768 42.393 106.183 45.1703 111.481 50.8836C111.612 51.0158 111.979 51.1216 112.136 51.0158C112.294 50.9365 112.372 50.5926 112.346 50.381C112.32 50.1165 112.189 49.8785 112.084 49.6404C108.465 39.8274 104.82 29.9878 101.201 20.1748C101.044 19.778 100.886 19.3813 100.729 19.0374C97.2935 19.7251 95.6939 19.6193 92.311 18.3497C90.2393 17.5827 88.1938 16.7098 86.1222 15.8634C79.1204 13.0068 72.4857 13.8267 66.7165 18.6407C62.0224 22.5553 57.8266 27.0254 53.421 31.2839C52.608 32.1303 51.8738 33.109 51.0346 34.0612ZM5.64104 49.9578C5.61481 51.5184 6.27041 52.3912 7.73895 52.8673C10.7809 53.8989 13.8491 54.904 16.9173 55.8827C19.0152 56.5439 20.1953 55.9091 20.9033 53.7402C25.0992 40.6473 29.295 27.5544 33.4908 14.4351C34.1989 12.2397 33.5695 11.023 31.3667 10.3088C28.5083 9.38308 25.6499 8.45732 22.7915 7.53156C20.3264 6.73805 19.225 7.29351 18.4383 9.75338C14.2687 22.714 10.1253 35.7011 5.95572 48.6617C5.8246 49.1908 5.71971 49.6933 5.64104 49.9578ZM114.785 6.57935C114.523 6.6587 114.051 6.73805 113.605 6.9232C110.694 8.00766 107.809 9.09213 104.898 10.1766C102.748 10.9965 102.171 12.2133 102.958 14.3822C107.704 27.3164 112.451 40.2241 117.224 53.1318C118.01 55.2479 119.217 55.7769 121.341 55.0098C124.173 53.9782 126.979 52.9202 129.785 51.8622C132.302 50.91 132.801 49.8256 131.883 47.3128C128.998 39.4835 126.114 31.6807 123.255 23.8514C121.393 18.7994 119.531 13.7209 117.67 8.66892C117.224 7.39931 116.411 6.57935 114.785 6.57935ZM32.1272 78.577C32.2583 81.0369 33.6219 82.862 35.9296 83.4703C38.1062 84.0522 40.309 83.1 41.4629 80.984C43.351 77.519 45.1867 74.0276 47.0223 70.5361C48.386 67.9175 47.573 65.008 45.1867 63.6855C42.7216 62.3101 39.837 63.2358 38.3947 65.8809C36.559 69.2665 34.7496 72.6786 32.9926 76.1171C32.5992 76.8842 32.4156 77.757 32.1272 78.577ZM28.2985 72.5992C29.531 72.5992 31.0258 71.8586 31.9436 70.2452C33.4908 67.4943 34.9856 64.7171 36.3754 61.8869C37.5555 59.4799 36.5066 56.7291 34.0415 55.4066C31.9436 54.2957 29.1114 55.0363 27.8527 57.2052C26.253 59.9825 24.732 62.7862 23.3684 65.6693C21.8212 68.9227 24.1551 72.5463 28.2985 72.5992ZM50.0905 87.914C51.7426 87.914 53.185 87.3056 53.9979 85.9037C55.5451 83.2587 57.0136 80.5608 58.2986 77.7835C59.3214 75.5352 58.1937 72.8902 55.9909 71.7264C53.8143 70.589 51.0084 71.2238 49.7496 73.3134C48.2549 75.8262 46.8388 78.4183 45.6325 81.0898C44.1377 84.3696 46.5503 87.914 50.0905 87.914ZM64.2514 80.693C60.8686 80.693 56.7776 85.8508 57.3808 89.3952C57.407 89.6068 57.4332 89.8448 57.5119 90.03C58.2986 92.1724 59.636 93.7859 61.97 94.1827C64.3301 94.5794 65.5364 92.9395 66.5067 91.1409C67.241 89.7919 67.949 88.443 68.5259 87.0146C69.9158 83.6555 67.8966 80.693 64.2514 80.693ZM70.5976 79.4499C73.4822 82.4123 73.0889 85.6657 71.6728 89.1571C72.5906 89.5274 73.4036 90.0035 74.269 90.2151C75.9997 90.5854 77.5994 89.6068 78.2812 87.8346C79.0155 85.9566 78.4386 83.8935 76.6291 82.7826C74.6623 81.5923 72.6169 80.5608 70.5976 79.4499Z" fill="#2A2A2A"/>
<rect x="18.0919" y="4.42836" width="19.1997" height="50.9112" rx="3.98005" transform="rotate(17.6033 18.0919 4.42836)" stroke="#1069DF" stroke-width="3.98005"/>
<rect x="-1.17888" y="2.56664" width="19.2687" height="51.0941" rx="3.99435" transform="matrix(-0.937706 0.34743 0.34743 0.937706 115.816 1.46986)" stroke="#1069DF" stroke-width="3.99434"/>
</svg>
