<svg width="96" height="102" viewBox="0 0 96 102" fill="none" xmlns="http://www.w3.org/2000/svg">
<path d="M2.24424 51.5451C2.79682 51.5473 3.33048 51.3439 3.7414 50.9744C4.15231 50.6049 4.41112 50.0957 4.46746 49.546C5.33606 40.7832 8.82257 32.4849 14.4731 25.7315C20.1236 18.9781 27.6763 14.0825 36.148 11.682L33.1523 14.3809C32.9335 14.5783 32.7557 14.8168 32.6291 15.0829C32.5025 15.349 32.4295 15.6374 32.4143 15.9317C32.3992 16.2259 32.4421 16.5203 32.5407 16.798C32.6393 17.0757 32.7916 17.3312 32.989 17.55C33.1863 17.7688 33.4248 17.9466 33.6909 18.0732C33.957 18.1999 34.2453 18.2728 34.5396 18.288C34.8339 18.3032 35.1282 18.2602 35.4059 18.1616C35.6835 18.063 35.9391 17.9107 36.1578 17.7133L45.04 9.70804C45.2651 9.50827 45.447 9.26465 45.5746 8.99209C45.7022 8.71954 45.7729 8.42379 45.7822 8.12298C45.7915 7.82216 45.7393 7.52261 45.6288 7.24267C45.5183 6.96274 45.3518 6.70831 45.1396 6.49499C44.9422 6.29164 44.712 6.12299 44.4586 5.99611L33.556 1.08546C33.0152 0.850978 32.4038 0.838853 31.854 1.0517C31.3043 1.26456 30.8605 1.68527 30.6186 2.22285C30.3766 2.76043 30.356 3.37165 30.5612 3.92431C30.7664 4.47696 31.1809 4.92662 31.715 5.17603L35.9793 7.09614C26.4072 9.57596 17.826 14.9326 11.3939 22.4433C4.96173 29.954 0.988147 39.2571 0.00934754 49.0974C-0.0190981 49.408 0.0175498 49.7211 0.11695 50.0168C0.21635 50.3125 0.376317 50.5841 0.586634 50.8145C0.79695 51.0448 1.05299 51.2288 1.33841 51.3546C1.62382 51.4804 1.93233 51.5452 2.24424 51.5451Z" fill="#2A2A2A"/>
<path d="M52.2435 10.2507C62.3252 11.2484 71.7497 15.709 78.9131 22.8734C86.0765 30.0378 90.5361 39.4633 91.533 49.5458C91.6185 50.1155 91.9198 50.6304 92.3745 50.984C92.8293 51.3375 93.4026 51.5026 93.9757 51.4449C94.5488 51.3872 95.0778 51.1113 95.453 50.6742C95.8282 50.2371 96.0209 49.6725 95.9911 49.0972C94.8897 37.9873 89.9745 27.6019 82.0811 19.707C74.1878 11.8121 63.8037 6.89512 52.6948 5.79227C52.1195 5.76252 51.5549 5.95522 51.1179 6.33045C50.6808 6.70569 50.4049 7.23468 50.3472 7.80783C50.2895 8.38098 50.4546 8.95435 50.8081 9.40913C51.1616 9.86392 51.6765 10.1653 52.2462 10.2507H52.2435Z" fill="#2A2A2A"/>
<path d="M43.7585 97.3246C33.6772 96.327 24.253 91.8668 17.0896 84.7029C9.92628 77.5391 5.46639 68.1142 4.46892 58.0322C4.38347 57.4625 4.08215 56.9475 3.6274 56.594C3.17265 56.2404 2.59932 56.0754 2.02622 56.1331C1.45311 56.1907 0.924155 56.4667 0.548952 56.9038C0.173749 57.3408 -0.0189408 57.9055 0.0108086 58.4808C1.1132 69.59 6.02905 79.9745 13.9225 87.8685C21.8159 95.7626 32.1996 100.679 43.3081 101.781C43.8833 101.811 44.4479 101.618 44.885 101.243C45.322 100.868 45.5979 100.339 45.6556 99.7657C45.7133 99.1925 45.5483 98.6192 45.1947 98.1644C44.8412 97.7096 44.3263 97.4082 43.7567 97.3228L43.7585 97.3246Z" fill="#2A2A2A"/>
<path d="M93.755 56.0311C93.2023 56.0292 92.6687 56.233 92.2579 56.6028C91.8471 56.9726 91.5886 57.4821 91.5327 58.032C90.5352 68.1142 86.0752 77.5392 78.9116 84.7031C71.7481 91.867 62.3237 96.3271 52.2423 97.3244C51.6726 97.4099 51.1577 97.7112 50.8042 98.166C50.4507 98.6208 50.2856 99.1942 50.3433 99.7673C50.401 100.34 50.6769 100.869 51.1139 101.245C51.551 101.62 52.1156 101.813 52.6908 101.783C63.7996 100.681 74.1838 95.7648 82.0776 87.8707C89.9714 79.9767 94.8875 69.592 95.9899 58.4824C96.0189 58.1715 95.9826 57.858 95.8835 57.5619C95.7843 57.2658 95.6244 56.9937 95.4141 56.7629C95.2037 56.5322 94.9475 56.3479 94.6618 56.2219C94.3761 56.0959 94.0673 56.0309 93.755 56.0311Z" fill="#2A2A2A"/>
<path d="M66.0503 66.756C66.3934 66.27 66.5295 65.6677 66.4285 65.0815C66.3276 64.4952 65.9979 63.9731 65.512 63.6299L50.2437 52.8656V39.2678C50.2437 38.6729 50.0074 38.1023 49.5868 37.6817C49.1662 37.261 48.5956 37.0247 48.0008 37.0247C47.4059 37.0247 46.8354 37.261 46.4148 37.6817C45.9941 38.1023 45.7578 38.6729 45.7578 39.2678V54.2653C45.7578 54.5529 45.8269 54.8363 45.9593 55.0916C46.0917 55.3469 46.2835 55.5667 46.5186 55.7323L62.9255 67.297C63.4116 67.6396 64.0139 67.775 64.5999 67.6735C65.1859 67.5721 65.7076 67.242 66.0503 66.756Z" fill="#1069DF"/>
</svg>
