<svg width="315" height="286" viewBox="0 0 315 286" fill="none" xmlns="http://www.w3.org/2000/svg">
<g clip-path="url(#clip0_137_10518)">
<path d="M242.301 165.327C255.313 174.082 272.96 170.632 281.715 157.619C290.471 144.607 287.02 126.96 274.008 118.204C260.996 109.449 243.349 112.899 234.593 125.912C225.838 138.924 229.288 156.571 242.301 165.327Z" stroke="#DE051F" stroke-width="0.689462" stroke-miterlimit="10" stroke-dasharray="4.14 4.14"/>
<path d="M282.417 153.272C284.616 154.752 287.597 154.169 289.077 151.97C290.556 149.772 289.973 146.79 287.774 145.311C285.576 143.831 282.594 144.414 281.115 146.613C279.636 148.812 280.219 151.793 282.417 153.272Z" fill="#003EB0"/>
<path d="M287.721 148.639L284.663 150.894L284.083 147.391L287.721 148.639Z" fill="white"/>
<path d="M31.7069 41.6968C34.2058 41.6968 36.7047 41.6968 39.2036 41.6968C39.2036 41.6968 39.3702 41.6968 39.5368 41.8631C41.3694 42.1959 42.2023 43.1941 42.5355 45.0243C42.7021 46.688 43.0353 48.5181 43.2019 50.1819C43.3685 51.0137 44.7013 51.5129 45.5343 51.0137C46.867 50.0155 48.3664 48.6845 49.8657 47.6863C51.5317 46.5216 53.3642 46.5216 54.8636 47.8526C56.3629 49.35 58.0288 51.0137 59.5282 52.6775C60.861 54.0085 60.861 56.005 59.6948 57.6687C58.8618 58.8333 57.8623 60.3307 56.8627 61.4953C56.1963 62.1608 56.0297 62.8263 56.6961 63.8246C56.8627 63.991 57.0293 64.3237 57.3625 64.3237C59.0284 64.4901 61.0276 64.8228 62.6935 64.9892C64.0263 65.1556 65.1924 65.8211 65.5256 67.1521C65.6922 67.4848 65.6922 67.8176 65.8588 68.3167C65.8588 70.8123 65.8588 73.3079 65.8588 75.9699C65.8588 76.1363 65.6922 76.3027 65.6922 76.469C65.1924 77.9664 64.3595 78.9646 62.6935 79.131C61.0276 79.2974 59.195 79.6301 57.5291 79.7965C56.6961 79.7965 56.0297 81.2939 56.6961 82.1258C57.6957 83.4568 59.0284 85.1205 60.028 86.4515C61.1942 87.9489 61.0276 89.9454 59.8614 91.4427C58.3621 93.1065 56.6961 94.7702 55.0301 96.2676C53.6974 97.5986 51.6983 97.5986 50.0323 96.434C48.533 95.4357 47.0336 94.1047 45.5343 93.1065C45.0345 92.6073 43.3685 93.1065 43.2019 93.9383C43.0353 95.7685 42.7021 97.5986 42.369 99.4287C42.2024 100.76 41.3694 101.924 39.87 102.257C39.7034 102.257 39.3703 102.423 39.0371 102.59C36.3715 102.59 33.8726 102.59 31.3737 102.59C31.3737 102.59 31.2071 102.59 31.2071 102.423C29.5411 102.091 28.5416 101.092 28.2084 99.2623C28.0418 97.5986 27.7086 95.7685 27.542 94.2711C27.3754 93.4392 26.0427 92.7737 25.0431 93.4392C23.7103 94.4375 22.211 95.7685 20.7116 96.6003C19.0457 97.765 17.2131 97.7649 15.7138 96.434C14.2144 94.9366 12.5485 93.2728 11.0491 91.6091C9.71638 90.2781 9.71637 88.2816 10.8825 86.6179C11.7155 85.4532 12.7151 83.9559 13.7146 82.7913C14.381 82.1258 14.381 81.2939 13.8812 80.462C13.7146 80.2956 13.548 79.9629 13.3815 79.9629C11.7155 79.7965 9.88296 79.4638 8.38361 79.2974C6.05128 79.131 4.88513 77.8 4.88513 75.4708C4.88513 73.1415 4.88513 70.9787 4.88513 68.6494C4.88513 66.4866 6.05129 65.1556 8.05042 64.9892C9.71637 64.8228 11.5489 64.4901 13.2149 64.3237C14.0478 64.3237 14.5476 62.8263 14.0478 61.9945C13.0483 60.6635 11.7155 58.9997 10.7159 57.6687C9.54979 56.1713 9.54977 54.1749 10.8825 52.6775C12.3819 51.1801 14.0478 49.5164 15.7138 47.8526C17.0466 46.5216 19.0457 46.5216 20.7116 47.6863C22.211 48.6845 23.7103 50.0155 25.2097 51.0137C25.7095 51.5129 27.3754 51.0137 27.542 50.1819C27.7086 48.5181 28.0418 46.5216 28.375 44.8579C28.5416 43.3605 29.3746 42.3623 30.8739 42.0295C30.8739 41.8632 31.2071 41.8632 31.7069 41.6968ZM56.6961 55.5059C55.1967 54.0085 53.6974 52.3447 52.0314 50.8474C49.8657 52.3447 47.8666 54.0085 45.7009 55.5059C45.3677 55.6722 45.0345 55.6722 44.7013 55.5059C43.3685 54.8404 41.8692 54.3412 40.5364 53.6757C40.0366 53.5094 39.7034 53.1766 39.7034 52.6775C39.3702 50.1819 39.037 47.6863 38.7039 45.1906C38.7039 44.8579 38.5373 44.6915 38.2041 44.6915C36.5381 44.6915 34.7056 44.6915 33.0396 44.6915C32.5399 44.6915 32.5399 44.8579 32.3733 45.1906C32.0401 47.6863 31.7069 50.1819 31.3737 52.6775C31.3737 53.1766 31.2071 53.343 30.5407 53.5094C29.208 54.0085 27.7086 54.5076 26.3758 55.1731C25.8761 55.3395 25.5429 55.3395 25.2097 55.1731C23.044 53.6757 21.0448 52.012 19.0457 50.681C17.5463 52.1784 15.8804 53.8421 14.381 55.3395C14.381 55.5059 14.5476 55.6722 14.7142 55.8386C16.047 57.6687 17.5463 59.4988 18.8791 61.329C19.0457 61.4953 19.0457 61.8281 19.0457 62.1608C18.3793 63.6582 17.7129 65.3219 16.88 66.8193C16.88 66.9857 16.5468 67.3184 16.3802 67.3184C15.0474 67.4848 13.5481 67.6512 12.2153 67.8176C10.8825 67.9839 9.38318 68.1503 8.05042 68.3167C8.05042 70.6459 8.05042 72.6424 8.05042 74.8053C8.21702 74.8053 8.55021 74.9717 8.8834 74.9717C11.3823 75.3044 13.7146 75.6371 16.2136 75.9699C16.7133 75.9699 16.8799 76.1363 17.0465 76.6354C17.5463 77.9664 18.0461 79.4638 18.7125 80.7948C18.8791 81.2939 18.8791 81.6266 18.7125 82.1258C17.2131 84.2886 15.5472 86.2851 14.2144 88.2816C15.7138 89.779 17.2131 91.2763 18.8791 92.9401C19.0457 92.9401 19.2123 92.7737 19.5455 92.441C21.378 91.11 23.3771 89.6126 25.0431 88.2816C25.2097 88.1152 25.5429 88.1152 25.8761 88.1152C27.3754 88.6144 28.8748 89.4462 30.5407 89.9453C31.0405 90.1117 31.2071 90.2781 31.2071 90.7772C31.5403 93.2728 31.8735 95.7685 32.2067 98.2641C32.2067 98.7632 32.3733 98.9296 32.873 98.9296C34.539 98.9296 36.3715 98.9296 37.8709 98.9296C38.3707 98.9296 38.5373 98.7632 38.5373 98.2641C38.8705 95.7685 39.2036 93.2728 39.5368 90.6108C39.5368 90.2781 39.7034 89.9454 40.0366 89.779C41.536 89.2799 43.2019 88.448 44.7013 87.9489C44.8679 87.9489 45.2011 87.9489 45.5343 87.9489C47.3668 89.2799 49.3659 90.7772 51.1985 92.1082C51.3651 92.2746 51.6983 92.441 51.6983 92.441C53.1976 90.9436 54.8636 89.2799 56.3629 87.7825C56.3629 87.6161 56.1963 87.4497 56.0297 87.2834C54.697 85.4532 53.1976 83.6231 51.8649 81.793C51.6983 81.6266 51.6983 81.2939 51.6983 81.1275C52.3646 79.6301 53.031 77.8 53.864 76.3027C53.864 76.1363 54.1972 75.9699 54.3638 75.9699C55.3633 75.8035 56.5295 75.6372 57.5291 75.6372C59.195 75.4708 61.0276 75.138 62.6935 74.9717C62.6935 72.6424 62.6935 70.6459 62.6935 68.4831C59.8614 68.1503 57.3625 67.6512 54.5304 67.3184C54.1972 67.3184 54.0306 67.1521 53.864 66.8193C53.3642 65.3219 52.6978 63.8246 52.0314 62.4936C51.8648 61.9945 51.8648 61.8281 52.0314 61.329C53.5308 59.4988 55.0301 57.5023 56.6961 55.5059Z" stroke="#DE051F" stroke-width="1.11524" stroke-miterlimit="10"/>
<path d="M56.697 55.5055C55.1976 57.6684 53.6983 59.6649 52.0323 61.6614C51.6991 61.9941 51.6991 62.3269 52.0323 62.826C52.6987 64.157 53.1985 65.8207 53.8649 67.1517C54.0315 67.4845 54.1981 67.6508 54.5313 67.6508C57.3634 67.9836 59.8623 68.3163 62.6944 68.8155C62.6944 70.9783 62.6944 72.9748 62.6944 75.3041C61.0285 75.4704 59.1959 75.8032 57.53 75.9696C56.5304 76.1359 55.3642 76.1359 54.3647 76.3023C54.1981 76.3023 53.8649 76.4687 53.8649 76.6351C53.1985 78.1324 52.5321 79.7962 51.6991 81.4599C51.6991 81.6263 51.6992 81.959 51.8658 82.1254C53.1985 83.9555 54.6979 85.952 56.0306 87.6158C56.1972 87.7821 56.3638 87.9485 56.3638 88.1149C54.8645 89.6123 53.3651 91.1096 51.6991 92.7734C51.6991 92.7734 51.366 92.607 51.1994 92.4406C49.3668 91.1096 47.3677 89.6123 45.5351 88.2813C45.3686 88.1149 45.0354 88.1149 44.7022 88.2813C43.2028 88.7804 41.5369 89.6123 40.0375 90.1114C39.7043 90.2778 39.5377 90.4441 39.5377 90.9433C39.2045 93.4389 38.8714 95.9345 38.5382 98.5965C38.5382 99.0956 38.3716 99.262 37.8718 99.262C36.2058 99.262 34.3733 99.262 32.8739 99.262C32.3742 99.262 32.2076 99.0956 32.2076 98.5965C31.8744 96.1009 31.5412 93.6053 31.208 91.1096C31.208 90.6105 31.0414 90.4441 30.5416 90.2778C29.0423 89.7786 27.5429 88.9468 25.877 88.4476C25.7104 88.4476 25.3772 88.4477 25.044 88.614C23.2114 89.945 21.2123 91.4424 19.5464 92.7734C19.3798 92.9398 19.0466 93.1061 18.88 93.2725C17.3806 91.7751 15.8813 90.2778 14.2153 88.614C15.7147 86.4512 17.214 84.621 18.7134 82.4582C19.0466 81.959 19.0466 81.6263 18.7134 81.1272C18.047 79.7962 17.5472 78.2988 17.0474 76.9678C16.8808 76.4687 16.7142 76.3023 16.2145 76.3023C13.7155 75.9696 11.3832 75.6368 8.8843 75.3041C8.71771 75.3041 8.38452 75.3041 8.05133 75.1377C8.05133 72.9748 8.05133 70.9783 8.05133 68.6491C9.38409 68.4827 10.8834 68.3163 12.2162 68.15C13.549 67.9836 15.0483 67.8172 16.3811 67.6508C16.5477 67.6508 16.8809 67.4845 16.8809 67.1517C17.5472 65.6544 18.2136 63.9906 19.0466 62.4932C19.0466 62.3269 19.0466 61.9941 18.88 61.6614C17.5472 59.8312 16.0479 57.8348 14.7151 56.171C14.5485 56.0046 14.3819 55.8383 14.3819 55.6719C15.8813 54.1745 17.3806 52.5108 19.0466 51.0134C20.8791 52.3444 23.0449 54.0081 25.2106 55.5055C25.5438 55.8383 25.877 55.8383 26.3768 55.5055C27.7095 54.84 29.2089 54.3409 30.5416 53.8418C31.0414 53.6754 31.208 53.509 31.3746 53.0099C31.7078 50.5143 32.041 48.0187 32.3742 45.5231C32.3742 45.0239 32.5408 45.0239 33.0405 45.0239C34.7065 45.0239 36.539 45.0239 38.205 45.0239C38.5382 45.0239 38.7048 45.0239 38.7048 45.5231C39.0379 48.0187 39.3711 50.5143 39.7043 53.0099C39.7043 53.509 40.0375 53.8418 40.5373 54.0081C41.8701 54.5073 43.3694 55.1728 44.7022 55.8383C45.0354 56.0046 45.3686 56.0046 45.7018 55.8383C47.8675 54.3409 49.8666 52.6772 52.0323 51.1798C53.5317 52.3444 55.031 53.8418 56.697 55.5055ZM22.0453 71.8102C22.0453 79.1307 27.8761 85.1202 35.2063 85.1202C42.703 85.1202 48.5339 79.2971 48.5339 71.9766C48.5339 64.4897 42.703 58.6666 35.3729 58.6666C28.0427 58.6666 22.0453 64.4897 22.0453 71.8102Z" stroke="#DE051F" stroke-width="1.11524" stroke-miterlimit="10"/>
<path d="M108.993 275.424C174.486 275.424 227.579 273.117 227.579 270.271C227.579 267.425 174.486 265.117 108.993 265.117C43.4994 265.117 -9.59351 267.425 -9.59351 270.271C-9.59351 273.117 43.4994 275.424 108.993 275.424Z" fill="#F3F3F3"/>
<path d="M259.295 71.2553V184.549C259.295 187.49 256.909 189.73 254.102 189.73H34.3155C31.3682 189.73 29.1226 187.35 29.1226 184.549V71.2553C29.1226 68.3144 31.5085 66.0737 34.3155 66.0737H253.962C256.769 66.0737 259.295 68.4544 259.295 71.2553Z" fill="white"/>
<mask id="mask0_137_10518" style="mask-type:luminance" maskUnits="userSpaceOnUse" x="29" y="66" width="231" height="124">
<path d="M259.297 71.2553V184.549C259.297 187.49 256.911 189.73 254.104 189.73H34.3173C31.3699 189.73 29.1243 187.35 29.1243 184.549V71.2553C29.1243 68.3144 31.5103 66.0737 34.3173 66.0737H253.964C256.771 66.0737 259.297 68.4544 259.297 71.2553Z" fill="white"/>
</mask>
<g mask="url(#mask0_137_10518)">
<path d="M259.297 77.2783V184.55C259.297 187.491 256.911 189.731 254.104 189.731H115.86V77.2783H259.297Z" fill="#DCE8F5"/>
</g>
<path d="M259.295 71.2553V184.549C259.295 187.49 256.909 189.73 254.102 189.73H34.3155C31.3682 189.73 29.1226 187.35 29.1226 184.549V71.2553C29.1226 68.3144 31.5085 66.0737 34.3155 66.0737H253.962C256.769 66.0737 259.295 68.4544 259.295 71.2553Z" stroke="#1A2E35" stroke-width="1.53892" stroke-miterlimit="10" stroke-linecap="round" stroke-linejoin="round"/>
<path d="M239.928 124.469H211.297C208.069 124.469 205.542 126.85 205.542 129.511C205.542 132.312 208.209 134.552 211.297 134.552H239.928C243.156 134.552 245.682 132.172 245.682 129.511C245.682 126.71 243.156 124.469 239.928 124.469Z" fill="#0064B7"/>
<path d="M259.294 71.2553V81.8984H29.1219V71.2553C29.1219 68.3144 31.5079 66.0737 34.3149 66.0737H253.961C256.768 66.0737 259.294 68.4544 259.294 71.2553Z" fill="#0064B7"/>
<path d="M38.8069 77.4208C40.8222 77.4208 42.4559 75.7907 42.4559 73.7797C42.4559 71.7688 40.8222 70.1387 38.8069 70.1387C36.7915 70.1387 35.1578 71.7688 35.1578 73.7797C35.1578 75.7907 36.7915 77.4208 38.8069 77.4208Z" fill="#FF383C" stroke="#1A2E35" stroke-width="1.53892" stroke-miterlimit="10" stroke-linecap="round" stroke-linejoin="round"/>
<path d="M48.4914 77.4208C50.5067 77.4208 52.1404 75.7907 52.1404 73.7797C52.1404 71.7688 50.5067 70.1387 48.4914 70.1387C46.476 70.1387 44.8423 71.7688 44.8423 73.7797C44.8423 75.7907 46.476 77.4208 48.4914 77.4208Z" fill="#34C759" stroke="#1A2E35" stroke-width="1.53892" stroke-miterlimit="10" stroke-linecap="round" stroke-linejoin="round"/>
<path d="M58.1724 77.4208C60.1877 77.4208 61.8215 75.7907 61.8215 73.7797C61.8215 71.7688 60.1877 70.1387 58.1724 70.1387C56.1571 70.1387 54.5233 71.7688 54.5233 73.7797C54.5233 75.7907 56.1571 77.4208 58.1724 77.4208Z" fill="white" stroke="#1A2E35" stroke-width="1.53892" stroke-miterlimit="10" stroke-linecap="round" stroke-linejoin="round"/>
<path d="M115.717 81.894V189.726" stroke="#1A2E35" stroke-width="1.53892" stroke-miterlimit="10" stroke-linecap="round" stroke-linejoin="round"/>
<path d="M251.296 77.2768H201.051C199.086 77.2768 197.402 75.5963 197.402 73.6357C197.402 71.6751 199.086 69.9946 201.051 69.9946H251.296C253.261 69.9946 254.945 71.6751 254.945 73.6357C255.085 75.7363 253.261 77.2768 251.296 77.2768Z" fill="white" stroke="#1A2E35" stroke-width="1.53892" stroke-miterlimit="10" stroke-linecap="round" stroke-linejoin="round"/>
<path d="M242.173 115.081H133.262C131.297 115.081 129.753 113.4 129.753 111.58C129.753 109.619 131.438 108.079 133.262 108.079H242.173C244.138 108.079 245.682 109.759 245.682 111.58C245.682 113.54 244.138 115.081 242.173 115.081Z" fill="#BFBFBF" stroke="#1A2E35" stroke-width="1.53892" stroke-miterlimit="10"/>
<path d="M192.487 114.809H133.962C131.997 114.809 130.453 113.269 130.453 111.588C130.453 109.768 132.137 108.367 133.962 108.367H192.487C194.452 108.367 195.996 109.908 195.996 111.588C195.996 113.409 194.452 114.809 192.487 114.809Z" fill="#0064B7"/>
<path d="M137.753 165.222H132.981V169.983H137.753V165.222Z" stroke="#1A2E35" stroke-width="0.769458" stroke-miterlimit="10" stroke-linecap="round" stroke-linejoin="round"/>
<path d="M134.386 167.318L135.087 168.299L136.21 166.618" stroke="#1A2E35" stroke-width="0.769458" stroke-miterlimit="10" stroke-linecap="round" stroke-linejoin="round"/>
<path opacity="0.3" d="M179.438 169H146.456C145.755 169 145.193 168.44 145.193 167.739V167.459C145.193 166.759 145.755 166.199 146.456 166.199H179.438C180.14 166.199 180.701 166.759 180.701 167.459V167.739C180.701 168.44 180.28 169 179.438 169Z" fill="black"/>
<path d="M91.1641 121.652C91.1641 121.652 88.4049 143.835 83.8303 148.809C78.3843 154.8 74.3907 153.928 72.2123 157.014C69.9976 153.928 66.0402 154.8 60.558 148.809C56.0197 143.835 53.2604 121.652 53.2604 121.652C65.2415 115.843 72.2123 109.308 72.2123 109.308C72.4301 109.526 79.3646 115.916 91.1641 121.652Z" fill="#0064B7"/>
<path d="M72.2123 109.308V157.014C69.9976 153.928 66.0402 154.8 60.558 148.809C56.0197 143.835 53.2604 121.652 53.2604 121.652C65.2415 115.843 72.2123 109.308 72.2123 109.308Z" fill="#0064B7"/>
<path d="M88.2245 123.425C88.2245 123.425 85.9009 142.159 82.0524 146.371C77.4415 151.417 74.0651 150.691 72.2134 153.305C70.3618 150.691 66.9853 151.453 62.3745 146.371C58.526 142.159 56.2024 123.425 56.2024 123.425C66.3318 118.524 72.2134 113.005 72.2134 113.005C72.2134 113.005 78.0951 118.524 88.2245 123.425Z" fill="#005397"/>
<path d="M56.2024 123.425C56.2024 123.425 58.526 142.159 62.3745 146.371C66.9853 151.417 70.3255 150.691 72.2134 153.305V113.005C72.0319 113.187 66.1866 118.596 56.2024 123.425Z" fill="#004D8C"/>
<path d="M77.475 138.434C80.3816 135.527 80.3816 130.815 77.475 127.908C74.5684 125.002 69.856 125.002 66.9494 127.908C64.0429 130.815 64.0429 135.527 66.9494 138.434C69.856 141.34 74.5684 141.34 77.475 138.434Z" fill="#0064B5"/>
<path d="M71.3804 137.987L68.0765 134.538L69.3109 133.376L71.1263 135.264L75.0473 129.237L76.4633 130.181L71.3804 137.987Z" fill="white"/>
<path d="M130.551 100.001C130.846 100.001 131.11 100.062 131.337 100.173C131.558 100.283 131.736 100.443 131.859 100.651C131.981 100.86 132.049 101.1 132.049 101.37C132.049 101.658 131.969 101.91 131.822 102.125C131.668 102.346 131.466 102.499 131.214 102.585L132.123 104.298H131.337L130.52 102.739H129.563V104.298H128.857V100.001H130.551ZM129.563 102.125H130.496C130.747 102.125 130.95 102.057 131.097 101.922C131.245 101.787 131.325 101.603 131.325 101.37C131.325 101.143 131.245 100.958 131.097 100.823C130.95 100.688 130.747 100.615 130.496 100.615H129.563V102.125ZM133.357 100.001V102.493C133.357 102.898 133.437 103.205 133.596 103.408C133.756 103.611 134.002 103.709 134.339 103.709C134.677 103.709 134.929 103.611 135.088 103.408C135.248 103.205 135.334 102.898 135.334 102.493V100.001H136.04V102.456C136.04 103.07 135.892 103.537 135.604 103.856C135.315 104.175 134.892 104.335 134.339 104.335C133.787 104.335 133.363 104.175 133.081 103.856C132.792 103.537 132.651 103.07 132.651 102.456V100.001H133.357ZM136.8 104.298V100.001H137.445L139.538 103.046V100.001H140.232V104.298H139.587L137.494 101.253V104.298H136.8ZM141.015 104.298V100.001H141.659L143.753 103.046V100.001H144.447V104.298H143.802L141.709 101.253V104.298H141.015ZM145.229 100.001H145.935V104.298H145.229V100.001ZM146.722 104.298V100.001H147.367L149.46 103.046V100.001H150.154V104.298H149.509L147.416 101.253V104.298H146.722ZM151.023 101.008C151.195 100.676 151.434 100.424 151.753 100.24C152.067 100.056 152.435 99.9639 152.858 99.9639C153.35 99.9639 153.761 100.099 154.092 100.369C154.418 100.639 154.62 101.008 154.694 101.462H153.994C153.921 101.192 153.785 100.977 153.583 100.817C153.38 100.664 153.135 100.584 152.84 100.584C152.57 100.584 152.33 100.651 152.128 100.787C151.925 100.922 151.772 101.106 151.661 101.339C151.551 101.572 151.496 101.842 151.496 102.149C151.496 102.456 151.545 102.733 151.655 102.966C151.766 103.199 151.919 103.383 152.122 103.518C152.324 103.653 152.564 103.715 152.834 103.715C153.178 103.715 153.46 103.623 153.693 103.432C153.927 103.248 154.049 102.984 154.068 102.647V102.542H152.877V101.947H154.743V104.298H154.209L154.135 103.684C154.013 103.868 153.835 104.022 153.607 104.145C153.38 104.274 153.11 104.335 152.803 104.335C152.404 104.335 152.054 104.249 151.747 104.065C151.44 103.881 151.201 103.623 151.029 103.291C150.857 102.96 150.771 102.579 150.771 102.149C150.771 101.72 150.851 101.339 151.023 101.008Z" fill="black"/>
<path d="M251.996 137.64L240.628 129.518L243.856 142.962L246.242 139.601L248.347 142.682L250.031 141.701L247.926 138.48L251.996 137.64Z" fill="#EE384E"/>
<path d="M150.622 226.577C150.622 226.577 153.514 225.34 153.205 222.145C152.998 218.847 151.345 216.579 154.754 217.507C158.163 218.435 159.402 218.847 161.882 218.332C164.361 217.816 166.53 216.786 165.394 220.084C164.257 223.382 163.121 226.062 165.704 226.577C168.286 227.093 171.075 225.134 171.385 230.185C171.695 235.235 167.563 241.007 160.952 241.213C154.237 241.42 151.345 238.637 151.345 238.637C151.345 238.637 149.589 236.06 152.378 235.545C155.167 234.823 157.956 233.689 156.613 232.452C155.167 231.112 150.622 231.009 150.622 231.009C150.622 231.009 144.941 229.979 150.622 226.577Z" fill="#649EEA"/>
<path d="M180.889 227.393C180.372 224.095 180.682 221.827 186.777 220.899C192.768 219.972 196.28 223.682 196.694 227.393C197.107 231.103 191.839 232.443 191.839 232.443C191.839 232.443 188.12 233.474 189.979 236.772C191.839 240.071 192.768 243.163 188.43 243.678C184.091 244.193 179.443 242.957 176.86 241.307C174.278 239.555 171.592 235.123 174.588 232.856C174.588 232.856 175.414 232.237 178.306 232.134C181.302 231.825 180.889 227.393 180.889 227.393Z" fill="#023EA1"/>
<path d="M159.714 226.881C159.714 226.881 164.672 238.219 165.395 245.846" stroke="#83DAFF" stroke-width="1.13266" stroke-miterlimit="10" stroke-linecap="round" stroke-linejoin="round"/>
<path d="M187.5 228.739C187.5 228.739 178.616 241.829 176.55 246.261" stroke="#579FD5" stroke-width="1.13266" stroke-miterlimit="10" stroke-linecap="round" stroke-linejoin="round"/>
<path d="M162.296 244.925H182.646C182.646 244.925 184.918 245.131 184.712 248.12C184.505 250.903 180.993 250.388 179.134 250.388C177.274 250.388 161.883 250.388 161.883 250.388C161.883 250.388 159.3 250.903 159.3 248.017C159.404 245.131 160.437 244.925 162.296 244.925Z" fill="#0054A5"/>
<path d="M161.986 250.287L165.085 268.221H178.514L180.89 254.822L161.986 250.287Z" fill="#0054A5"/>
<path d="M161.986 250.287L180.89 254.822L181.613 250.287H161.986Z" fill="#006AD5"/>
<path d="M170.561 245.635C170.561 245.635 171.594 225.845 177.585 213.374L170.561 245.635Z" fill="#FCBE42"/>
<path d="M182.438 206.165C182.438 206.165 182.955 212.247 176.964 214.617C176.964 214.617 175.724 209.464 182.438 206.165Z" fill="#FCBE42"/>
<path d="M173.454 225.545C173.454 225.545 175.726 220.289 182.441 221.01C182.441 221.01 181.924 226.164 173.454 225.545Z" fill="#FCBE42"/>
<path d="M171.282 238.628C171.282 238.628 172.522 233.063 179.236 232.444C179.236 232.444 179.649 237.598 171.282 238.628Z" fill="#FCBE42"/>
<path d="M171.077 238.633C171.077 238.633 171.903 232.964 165.705 230.181C165.809 230.181 163.536 234.923 171.077 238.633Z" fill="#FCBE42"/>
<path d="M173.556 225.437C173.556 225.437 175.105 219.974 169.217 216.366C169.32 216.47 166.635 220.799 173.556 225.437Z" fill="#FCBE42"/>
<path d="M55.935 202.912C55.935 202.912 57.8146 202.395 57.4905 199.355C57.2313 196.38 55.4165 193.858 58.1387 192.371C60.8609 190.818 61.7035 190.236 62.9997 189.008C64.296 187.714 65.009 186.744 69.2867 187.132C69.2867 187.132 72.7219 184.351 75.7681 186.809C78.8144 189.266 77.7774 195.733 78.4903 196.768C79.1385 197.803 83.2218 201.813 83.6755 205.24C84.1292 208.668 81.7959 210.802 78.4903 210.608C75.12 210.414 70.6478 210.608 70.6478 210.608H58.3331C58.3331 210.608 54.185 210.867 53.8609 206.792C53.6017 204.206 55.935 202.912 55.935 202.912Z" fill="#180857"/>
<path d="M66.1761 207.825C66.1761 207.825 66.1761 210.347 65.0743 211.382C63.9724 212.416 62.5465 214.227 62.5465 214.227C62.5465 214.227 65.0743 218.172 70.065 217.59C75.0557 217.008 75.9631 213.516 75.9631 213.516C75.9631 213.516 71.2316 212.869 70.7131 208.407C70.1946 203.944 69.4816 203.944 69.4816 203.944L66.1761 207.825Z" fill="#FFB07E"/>
<path d="M68.509 209.252C71.5874 209.252 74.083 205.053 74.083 199.874C74.083 194.695 71.5874 190.497 68.509 190.497C65.4305 190.497 62.9349 194.695 62.9349 199.874C62.9349 205.053 65.4305 209.252 68.509 209.252Z" fill="#FFBE9B"/>
<path d="M68.5089 189.979C68.5089 189.979 67.4719 192.954 65.3978 195.864C63.3238 198.839 60.8608 200.456 60.6016 200.973C60.3423 201.491 58.4627 200.003 59.1757 197.61C59.8886 195.218 63.7775 188.75 67.8608 188.621C71.9441 188.492 72.8515 186.164 74.7311 190.885C76.6755 195.606 76.2866 201.038 76.2866 201.038L68.5089 189.979Z" fill="#180857"/>
<path d="M63.3227 198.71C63.3227 198.71 61.1839 198.452 60.9246 199.745C60.6005 201.039 61.6376 202.203 63.3227 202.461C65.0727 202.72 63.3227 198.71 63.3227 198.71Z" fill="#FFBE9B"/>
<path d="M83.9993 260.406C83.9993 260.406 87.3696 260.6 89.7677 260.6C92.1659 260.6 95.9899 261.117 95.9899 261.117C95.9899 261.117 97.0269 261.117 97.0917 262.346C97.2214 263.574 97.2214 264.092 97.2214 264.092C97.2214 264.092 97.351 265.579 96.1195 265.579C94.9529 265.579 87.564 266.42 85.8789 266.42C84.1937 266.42 82.9622 266.743 82.9622 265.579C82.9622 264.415 82.8326 260.341 83.9993 260.406Z" fill="#170856"/>
<path d="M86.721 225.287C86.721 225.287 88.9247 237.251 89.0543 240.42C89.2488 243.589 89.5729 245.982 87.434 247.211C85.3599 248.439 81.9248 249.604 81.9248 249.604L77.647 228.262V225.74L86.721 225.287Z" fill="#FFBF99"/>
<path d="M50.0357 224.642C50.0357 224.642 48.869 230.075 48.5449 232.791C48.2209 235.507 47.4431 240.875 47.3783 242.104C47.2486 243.332 47.119 245.467 49.3875 247.019C51.656 248.635 54.0541 249.541 54.0541 249.541L58.6559 224.707L50.0357 224.642Z" fill="#FFBF99"/>
<path d="M63.5185 212.031C63.5185 212.031 60.0834 211.579 58.2686 212.161C56.4538 212.678 55.8704 212.355 56.3241 213.777C56.8427 215.2 59.3056 221.667 58.1389 225.742C56.9723 229.816 55.3519 250.641 55.3519 250.641C55.3519 250.641 67.9907 251.158 72.9166 251.417C77.8425 251.675 81.4721 250.705 81.4721 250.705C81.4721 250.705 82.5739 241.716 81.4721 237.835C80.3702 233.89 78.9443 227.294 78.9443 227.294C78.9443 227.294 78.0369 218.175 79.2684 215.912C80.4999 213.648 81.4721 213.583 79.8517 213.001C78.2314 212.419 76.4814 211.902 75.2499 211.902C74.0184 211.902 73.3055 211.902 72.5925 212.678C71.8147 213.454 70.324 214.942 68.25 214.618C66.1759 214.295 64.5556 212.872 64.5556 212.872C64.5556 212.872 64.037 212.161 63.5185 212.031Z" fill="#DE051F"/>
<path d="M57.4256 212.741C57.4256 212.741 56.2589 212.159 54.5089 213.647C52.6293 215.264 51.2682 218.756 50.5553 220.89C49.8423 223.089 49.4534 225.223 49.4534 225.223C49.4534 225.223 51.8516 226.452 54.3793 226.581C56.9071 226.711 58.5274 226.84 58.5274 226.84C58.5274 226.84 59.6293 220.373 59.37 217.462C59.1108 214.552 58.7219 213.517 57.4256 212.741Z" fill="#EE384E"/>
<path d="M78.4258 215.136C78.4258 215.136 79.4629 212.355 81.6665 213.648C83.935 214.877 85.6202 219.663 86.0739 221.15C86.5924 222.638 87.2406 225.677 87.2406 225.677C87.2406 225.677 84.5832 226.842 82.3147 227.036C80.0462 227.23 78.4906 227.359 78.4906 227.359C78.4906 227.359 77.5832 221.474 77.7129 219.146C77.9073 216.753 78.4258 215.136 78.4258 215.136Z" fill="#EE384E"/>
<path d="M60.0188 252.388H77.1298L68.315 255.039L60.0188 252.388Z" fill="#004B89"/>
<path d="M44.8511 247.535C44.8511 247.535 75.9619 257.236 82.7674 259.693C82.7674 259.693 85.0359 260.275 85.1007 261.439C85.2304 262.603 84.9063 264.285 84.647 265.126C84.3878 265.966 83.61 266.613 82.3785 266.354C81.1471 266.096 53.2769 260.534 42.1937 257.624L39.0178 256.589C39.0178 256.589 36.6845 255.489 37.0734 252.644C37.5271 249.798 39.6011 247.341 41.0919 247.147C42.7122 247.082 44.8511 247.535 44.8511 247.535Z" fill="#FFC727"/>
<path d="M41.9994 261.314C41.9994 261.314 45.9531 260.602 48.2216 260.538C50.5549 260.408 53.666 260.214 54.1197 260.538C54.5734 260.861 55.0271 265.388 55.0271 265.388C55.0271 265.388 55.4808 266.617 52.3697 266.423C49.2586 266.164 42.1939 265.906 42.1939 265.906C42.1939 265.906 40.5735 265.776 40.5087 264.418C40.4439 262.995 40.7031 262.349 40.7031 262.349C40.7031 262.349 41.0272 261.508 41.9994 261.314Z" fill="#170856"/>
<path d="M60.6012 257.365C60.6012 257.365 79.527 251.609 86.2029 249.604C92.8787 247.599 96.7028 245.788 98.8416 248.892C101.045 252.061 100.851 255.554 98.3231 256.524C95.7954 257.559 76.1566 262.086 68.0549 263.767C59.9531 265.449 54.5735 266.548 53.7957 266.16C53.018 265.837 52.1754 263.379 52.3698 262.086C52.5643 260.727 52.6291 260.275 54.1846 259.563C55.805 258.981 60.6012 257.365 60.6012 257.365Z" fill="#FCBE42"/>
<path d="M58.3977 229.947H81.1475C81.1475 229.947 82.3789 229.753 82.3789 231.434C82.3789 233.116 82.3789 251.03 82.3789 251.03C82.3789 251.03 82.5086 252.388 81.4715 252.388C80.4345 252.388 54.7681 252.388 54.7681 252.388C54.7681 252.388 53.6662 252.712 53.6662 250.901C53.6662 249.09 53.6662 230.982 53.6662 230.982C53.6662 230.982 53.5366 229.947 54.8977 229.947C56.2588 229.947 58.3977 229.947 58.3977 229.947Z" fill="#0064B7"/>
<path d="M67.9553 239.744L66.6592 241.36L68.2784 242.653L69.5745 241.037L67.9553 239.744Z" fill="#569ED4"/>
<path d="M276.685 129.772C277.296 132.924 276.786 136.888 279.637 138.413C279.637 138.413 279.23 141.36 272.714 142.58C265.586 143.8 268.946 141.056 268.946 141.056C272.714 139.734 271.899 136.583 270.779 134.55L276.685 129.772Z" fill="#FFBE9B"/>
<path d="M274.751 124.69C276.482 128.248 277.602 130.382 276.38 133.025C274.547 136.99 268.336 137.599 265.383 134.448C262.634 131.602 260.496 126.215 263.958 123.165C267.216 120.116 273.02 121.132 274.751 124.69Z" fill="#FFBE9B"/>
<path d="M267.317 118.083C264.16 118.896 261.717 120.218 261.411 121.539C258.56 122.759 257.746 125.3 259.782 126.113C261.615 126.926 264.364 125.808 264.364 125.808C264.364 125.808 263.346 131.399 267.419 129.061C268.131 130.891 269.862 134.245 273.426 134.347C275.361 134.448 278.721 133.839 279.026 132.517C279.23 131.196 278.11 131.501 278.313 130.484C278.517 129.468 279.942 125.707 277.906 123.165C277.906 123.267 274.851 115.44 267.317 118.083Z" fill="#180857"/>
<path d="M269.252 128.756C269.455 129.671 269.048 130.586 268.539 131.196C267.724 132.212 267.419 132.212 267.114 131.196C266.706 130.281 265.79 128.349 266.91 127.739C268.03 127.231 269.252 127.739 269.252 128.756Z" fill="#FFBE9B"/>
<path d="M249.397 147.46C249.397 147.46 246.648 144.512 246.546 144.512C246.546 144.512 244.001 141.564 243.288 141.564C242.575 141.666 242.881 142.276 243.797 143.394C244.612 144.41 244.713 145.02 244.713 145.02L243.186 146.037C243.186 146.037 241.964 145.732 242.066 146.748C242.066 147.053 242.27 147.46 242.473 148.07C242.575 148.374 242.779 148.781 243.186 148.679C243.288 148.578 243.492 148.476 243.492 148.273C243.39 147.663 243.288 147.46 243.39 147.46C243.492 147.46 245.019 150.407 245.019 150.407L249.397 147.46Z" fill="#FFBE9D"/>
<path d="M244.306 145.325C244.103 145.223 243.899 145.122 243.695 145.122C243.492 145.122 243.186 145.02 243.084 145.122C242.983 145.122 242.779 145.223 242.677 145.325C242.575 145.528 242.575 145.731 242.677 145.833C242.779 145.935 242.881 146.138 242.983 146.24" fill="#FFBE9D"/>
<path d="M245.019 144.613C244.815 144.511 244.611 144.409 244.408 144.409C244.204 144.409 244 144.308 243.797 144.409C243.695 144.409 243.593 144.511 243.491 144.613C243.39 144.714 243.39 144.918 243.491 145.121C243.593 145.223 244 145.528 244.102 145.731" fill="#FFBE9D"/>
<path d="M248.277 145.63L252.452 151.932L249.194 155.693L246.648 151.017C246.648 151.017 245.63 151.322 245.121 150.712C244.612 150.102 243.696 148.069 243.696 148.069L248.277 145.63Z" fill="#FFBE9D"/>
<path d="M245.834 145.833C245.834 145.833 245.732 145.325 245.325 145.02C245.121 144.817 244.917 144.613 244.612 144.613C244.408 144.512 244.306 144.512 244.306 144.613C244.306 144.715 244.714 144.817 245.121 145.223C245.63 145.427 245.834 145.833 245.834 145.833Z" fill="#EB996E"/>
<path d="M242.372 146.239C242.576 146.138 242.779 146.138 243.187 146.239C243.492 146.341 243.696 146.443 243.797 146.544C244.001 146.646 244.103 146.747 244.103 146.747C244.103 146.747 244.103 146.646 243.899 146.544C243.797 146.443 243.594 146.239 243.187 146.138C242.881 146.036 242.474 146.138 242.372 146.239Z" fill="#EB996E"/>
<path d="M243.186 145.122C243.186 145.223 243.695 145.223 244.103 145.427C244.51 145.63 244.815 146.036 244.815 146.036C244.917 146.036 244.714 145.63 244.205 145.325C244.001 145.223 243.695 145.122 243.594 145.122C243.39 145.02 243.186 145.02 243.186 145.122Z" fill="#EB996E"/>
<path d="M242.576 146.545C242.474 146.545 242.474 146.85 242.678 147.053C242.881 147.358 243.187 147.256 243.187 147.256C243.187 147.155 242.983 147.155 242.881 146.952C242.678 146.85 242.678 146.647 242.576 146.545Z" fill="#EB996E"/>
<path d="M249.295 147.358C249.295 147.358 249.194 145.325 248.583 145.02C247.972 144.613 246.546 145.223 246.546 145.223" fill="#FFBE9D"/>
<path d="M288.394 141.056L296.845 151.424C297.864 152.644 298.78 153.965 299.594 155.287C300.307 156.608 300.205 158.438 299.289 159.657L299.391 159.353C298.678 160.369 297.558 160.979 296.234 161.182H296.031C294.3 161.386 292.671 160.572 291.958 159.251L289.209 156.303L288.394 141.056Z" fill="#0083F9"/>
<path d="M265.994 140.954C267.827 139.836 269.762 139.429 271.9 139.226C274.343 138.921 277.805 138.311 280.453 138.21C280.453 138.21 288.089 138.006 289.107 142.682L290.635 164.842L293.486 174.092L269.354 177.141L268.234 166.163C267.216 160.369 266.911 152.135 266.911 152.135C266.198 149.086 264.161 147.968 263.55 145.935C263.245 144.207 264.467 142.072 265.994 140.954Z" fill="#0083F9"/>
<path d="M247.056 154.473L252.248 150.712L256.423 155.896C256.423 155.896 260.598 149.188 262.43 145.427C264.059 141.97 266.605 140.751 267.929 140.446C268.234 140.344 268.743 140.649 268.641 140.954L268.03 153.152C267.827 153.762 264.467 159.454 262.532 162.402C259.274 167.179 253.368 164.943 251.536 161.894C250.11 159.352 247.768 155.795 247.056 154.473Z" fill="#0083F9"/>
<g opacity="0.3">
<path d="M270.881 146.036C270.881 146.036 271.39 150.509 270.372 152.338C269.456 154.27 267.318 158.234 267.318 157.929C267.318 157.726 267.114 154.778 267.114 154.778C267.114 154.778 271.085 148.476 270.881 146.036Z" fill="black"/>
</g>
<path d="M277.703 176.023C277.703 176.023 281.572 204.586 283.914 215.056C286.561 226.441 303.769 263.238 303.769 263.238L311.813 261.51C307.638 248.804 301.427 225.119 297.66 215.971C294.809 202.147 297.558 184.866 293.383 174.092L277.703 176.023Z" fill="#EE384E"/>
<path opacity="0.2" d="M280.147 187.103C279.943 187.103 279.536 187.103 279.333 187.103C280.554 195.641 282.285 207.026 283.711 213.531C284.729 204.078 285.849 188.017 280.147 187.103Z" fill="black"/>
<path d="M269.252 177.039C269.252 177.039 267.419 207.636 267.215 218.716C267.012 230.202 270.575 264.559 270.575 264.559H278.416C278.416 264.559 281.266 232.743 279.637 217.191C281.47 205.298 285.339 175.108 285.339 175.108L269.252 177.039Z" fill="#EE384E"/>
<path d="M303.871 262.933L311.304 261.205C311.711 261.103 311.813 261.205 311.915 261.51L314.358 266.185C314.562 266.49 314.46 267.1 313.849 267.304H313.747C311.304 267.913 309.471 268.117 306.315 268.727C304.482 269.032 298.678 270.556 296.234 271.065C293.689 271.675 292.671 269.438 293.791 268.93C298.271 266.897 301.631 264.966 302.853 263.339C303.158 263.238 303.464 263.034 303.871 262.933Z" fill="#170856"/>
<path d="M270.576 264.56H278.314C278.721 264.56 278.823 264.661 278.823 264.966L280.045 269.947C280.147 270.354 279.943 270.862 279.332 270.963H279.23C276.685 270.963 274.852 270.862 271.696 270.862C269.863 270.862 263.754 270.963 261.208 270.963C258.663 270.963 258.154 268.626 259.376 268.422C264.263 267.406 268.03 266.186 269.659 264.865C269.863 264.763 270.168 264.56 270.576 264.56Z" fill="#170856"/>
</g>
<defs>
<clipPath id="clip0_137_10518">
<rect width="314.454" height="285.673" fill="white"/>
</clipPath>
</defs>
</svg>
