<svg width="680" height="424" viewBox="0 0 680 424" fill="none" xmlns="http://www.w3.org/2000/svg">
<rect width="680" height="424" fill="white"/>
<path d="M402.991 53.0633C402.991 53.0633 398.99 59.8938 405.235 59.8938C411.48 59.8938 414.7 61.6502 413.724 67.8952C412.748 74.1402 414.993 77.9457 418.603 78.8239C422.213 79.7021 429.044 80.2876 427.19 88.6793C425.433 97.071 423.092 113.562 413.627 112.683C404.259 111.805 395.282 100.291 396.648 93.9485C398.014 87.6059 402.6 84.1907 397.624 79.0191C392.647 73.8474 388.354 79.2142 385.524 72.1886C382.694 65.163 379.084 58.3326 387.866 52.3803C395.77 47.1111 404.259 48.7699 402.991 53.0633Z" stroke="#DB061F" stroke-width="2.20619" stroke-miterlimit="10"/>
<path d="M397.234 60.2837C397.234 60.2837 414.993 104.486 422.116 114.635" stroke="#DB061F" stroke-width="2.20619" stroke-miterlimit="10"/>
<path d="M419.481 56.0875C419.481 56.0875 434.411 54.6239 432.752 62.7228C430.995 70.9194 434.216 72.3831 437.533 73.8467C440.851 75.2128 447.876 75.2128 445.632 83.7997C443.388 92.3865 438.899 95.8017 440.753 100.095C442.607 104.389 444.461 124.197 436.655 122.831C428.849 121.562 424.555 111.024 423.97 106.145C423.384 101.266 417.822 97.7533 412.944 96.1921C408.065 94.6308 403.576 89.0689 408.65 84.3851C413.724 79.7014 414.212 72.1879 410.894 68.5775C407.674 64.9671 409.431 57.2585 419.481 56.0875Z" fill="#FABC43"/>
<path d="M421.531 66.2368L435.68 129.76" stroke="white" stroke-width="2.20619" stroke-miterlimit="10" stroke-linecap="round" stroke-linejoin="round"/>
<path d="M437.435 80.5801L427.189 91.9967L413.236 87.1178" stroke="white" stroke-width="2.20619" stroke-miterlimit="10" stroke-linecap="round" stroke-linejoin="round"/>
<path d="M466.455 226.52C486.104 233.408 507.56 223.019 514.336 203.37C521.224 183.72 510.835 162.264 491.186 155.489C471.537 148.6 450.081 158.989 443.305 178.639C436.529 198.288 446.919 219.744 466.455 226.52Z" stroke="#DB061F" stroke-width="1.10309" stroke-miterlimit="10" stroke-dasharray="6.62 6.62"/>
<path d="M513.884 197.723C517.159 198.852 520.772 197.158 522.014 193.771C523.144 190.496 521.45 186.882 518.062 185.64C514.787 184.511 511.173 186.205 509.931 189.592C508.802 192.867 510.496 196.481 513.884 197.723Z" fill="#003FAE"/>
<path d="M515.239 188.801L518.175 192.867L513.545 193.657L515.239 188.801Z" fill="white"/>
<path d="M144.171 149.878C148.915 152.354 156.96 149.775 160.569 143.071C164.179 136.368 171.502 139.565 174.493 144.412C177.587 149.26 182.847 154.21 188.313 153.591C193.78 152.869 206.259 154.52 209.869 162.667C213.479 170.712 191.614 174.219 186.457 173.394C181.3 172.569 178.825 178.344 170.161 183.192C161.601 188.039 159.641 180.51 157.166 177.313C154.691 174.116 152.215 171.125 143.861 175.25C135.507 179.376 132.929 162.874 132.929 162.874C131.588 151.425 139.426 147.3 144.171 149.878Z" fill="#023E9F"/>
<path d="M217.089 159.368L144.583 161.946" stroke="white" stroke-width="1.10309" stroke-miterlimit="10" stroke-linecap="round" stroke-linejoin="round"/>
<path d="M164.902 147.196L174.081 160.913L164.695 175.146" stroke="white" stroke-width="1.10309" stroke-miterlimit="10" stroke-linecap="round" stroke-linejoin="round"/>
<path d="M163.972 119.661C163.869 124.921 156.237 128.634 171.089 135.131C185.94 141.629 166.86 145.961 183.362 158.956C199.864 172.054 208.837 151.943 210.796 139.36C212.859 126.881 199.039 131.212 192.644 125.54C186.353 119.764 192.644 116.876 191.819 110.585C191.097 104.294 178.411 105.325 174.08 106.356C169.748 107.388 170.676 102.953 166.241 99.1367C161.806 95.3206 152.627 99.1367 151.596 105.737C150.564 112.338 158.506 114.195 158.506 114.195C158.506 114.195 163.972 114.298 163.972 119.661Z" fill="#EC384E"/>
<path d="M218.017 160.811C218.017 160.811 212.86 160.192 198.008 147.3C183.157 134.408 172.224 115.74 172.224 115.74" stroke="white" stroke-width="1.10309" stroke-miterlimit="10" stroke-linecap="round" stroke-linejoin="round"/>
<path d="M146.233 131.417C167.789 141.319 190.995 166.278 190.995 166.278" stroke="#FABC43" stroke-width="1.10309" stroke-miterlimit="10"/>
<path d="M148.502 132.551C138.085 135.955 132 127.395 132 127.395C144.376 124.197 148.502 132.551 148.502 132.551Z" stroke="#FABC43" stroke-width="1.10309" stroke-miterlimit="10"/>
<path d="M148.399 146.991C156.547 138.637 165.107 143.072 165.107 143.072C154.793 153.18 148.399 146.991 148.399 146.991Z" stroke="#FABC43" stroke-width="1.10309" stroke-miterlimit="10"/>
<path d="M165.314 158.438C174.905 151.837 182.434 157.819 182.434 157.819C170.367 165.761 165.314 158.438 165.314 158.438Z" stroke="#FABC43" stroke-width="1.10309" stroke-miterlimit="10"/>
<path d="M160.569 126.466C157.063 137.501 165.004 143.071 165.004 143.071C169.027 129.147 160.569 126.466 160.569 126.466Z" stroke="#FABC43" stroke-width="1.10309" stroke-miterlimit="10"/>
<path d="M485.314 302.52H193.85C190.914 302.52 188.655 300.148 188.655 297.325V102.752C188.655 99.8162 191.026 97.5576 193.85 97.5576H485.427C488.363 97.5576 490.621 99.9291 490.621 102.752V297.325C490.621 300.148 488.25 302.52 485.314 302.52Z" fill="#0064B5"/>
<path d="M483.846 104.673H195.431V300.488H483.846V104.673Z" fill="#DAE6FF"/>
<path d="M521.45 307.714H157.826C155.003 307.714 152.744 305.456 152.744 302.633V299.696C152.744 296.873 155.003 294.615 157.826 294.615H521.45C524.273 294.615 526.532 296.873 526.532 299.696V302.633C526.532 305.456 524.273 307.714 521.45 307.714Z" fill="#0064B5"/>
<path d="M483.908 104.746H195.493V295.366H483.908V104.746Z" fill="white"/>
<path d="M452.876 122.831H226.547V276.49H452.876V122.831Z" fill="white" stroke="#D3D2D2" stroke-width="0.869892" stroke-miterlimit="10"/>
<path d="M452.876 122.831H226.547V127.755H452.876V122.831Z" fill="#0064B5"/>
<path d="M231.272 125.294C231.272 125.826 230.872 126.226 230.34 126.226C229.807 126.226 229.408 125.826 229.408 125.294C229.408 124.762 229.807 124.362 230.34 124.362C230.806 124.362 231.272 124.762 231.272 125.294Z" fill="#C7C7C7"/>
<path d="M235.065 125.294C235.065 125.826 234.665 126.226 234.133 126.226C233.6 126.226 233.201 125.826 233.201 125.294C233.201 124.762 233.6 124.362 234.133 124.362C234.665 124.362 235.065 124.762 235.065 125.294Z" fill="white"/>
<path d="M237.993 126.226C238.507 126.226 238.924 125.809 238.924 125.294C238.924 124.779 238.507 124.362 237.993 124.362C237.478 124.362 237.061 124.779 237.061 125.294C237.061 125.809 237.478 126.226 237.993 126.226Z" fill="#FFC727"/>
<path d="M287.838 181.993H285.775L285.376 183.124C285.309 183.324 285.11 183.457 284.91 183.457C284.843 183.457 284.777 183.457 284.777 183.457C284.511 183.391 284.378 183.058 284.511 182.858L286.441 177.801C286.507 177.601 286.707 177.468 286.906 177.468C287.106 177.468 287.306 177.601 287.372 177.801L289.302 182.858C289.369 183.124 289.236 183.391 289.036 183.457C288.969 183.457 288.903 183.457 288.903 183.457C288.703 183.457 288.504 183.324 288.437 183.124L287.838 181.993ZM287.505 180.995L286.84 179.131L286.174 180.995H287.505Z" fill="#263238"/>
<path d="M291.831 183.39C290.833 183.39 290.034 182.591 290.034 181.593V179.53C290.034 179.264 290.234 179.064 290.5 179.064C290.766 179.064 290.966 179.264 290.966 179.53V181.593C290.966 182.059 291.365 182.458 291.831 182.458C292.297 182.458 292.696 182.059 292.763 181.593V179.53C292.763 179.264 292.962 179.064 293.229 179.064C293.495 179.064 293.694 179.264 293.694 179.53V181.593C293.628 182.591 292.829 183.39 291.831 183.39Z" fill="#263238"/>
<path d="M297.354 179.53C297.354 179.796 297.155 179.996 296.889 179.996H296.689V182.391C296.955 182.391 297.155 182.591 297.155 182.857C297.155 183.124 296.955 183.323 296.689 183.323C296.157 183.323 295.757 182.924 295.757 182.391V180.062H295.491C295.225 180.062 295.025 179.863 295.025 179.596C295.025 179.33 295.225 179.131 295.491 179.131H295.757V177.866C295.757 177.6 295.957 177.4 296.223 177.4C296.489 177.4 296.689 177.6 296.689 177.866V179.131H296.889C297.088 179.064 297.354 179.264 297.354 179.53Z" fill="#263238"/>
<path d="M299.618 182.924C299.618 183.19 299.418 183.39 299.152 183.39C298.952 183.39 298.752 183.257 298.686 183.057C298.686 182.99 298.686 182.99 298.686 182.924V177.866C298.686 177.6 298.886 177.4 299.152 177.4C299.418 177.4 299.618 177.6 299.618 177.866V179.33C299.884 179.197 300.217 179.064 300.549 179.064C301.614 179.064 302.413 179.929 302.413 180.927V182.857C302.413 183.124 302.213 183.323 301.947 183.323C301.681 183.323 301.481 183.124 301.481 182.857V180.927C301.481 180.395 301.082 179.996 300.549 179.996C300.017 179.996 299.618 180.395 299.618 180.927V182.924Z" fill="#263238"/>
<path d="M303.61 181.261C303.61 180.063 304.542 179.131 305.673 179.131C306.804 179.131 307.669 179.996 307.736 181.128C307.736 181.128 307.736 181.128 307.736 181.194V181.261C307.736 181.461 307.536 181.594 307.27 181.594H304.542C304.608 181.793 304.675 181.993 304.808 182.193C305.007 182.392 305.34 182.525 305.606 182.592C305.939 182.592 306.272 182.525 306.472 182.392C306.671 182.193 307.004 182.259 307.137 182.392C307.27 182.525 307.337 182.791 307.137 182.925C306.738 183.324 306.205 183.524 305.606 183.524C304.542 183.39 303.61 182.392 303.61 181.261ZM304.542 180.795H307.004C306.937 180.462 306.472 179.93 305.74 179.863C305.007 179.93 304.608 180.462 304.542 180.795Z" fill="#263238"/>
<path d="M312.726 180.861V182.924C312.726 183.19 312.527 183.39 312.261 183.39C311.994 183.39 311.795 183.19 311.795 182.924V180.861C311.795 180.395 311.395 179.996 310.93 179.996C310.464 179.996 310.064 180.395 310.064 180.861V182.924V182.991C309.998 183.19 309.865 183.39 309.599 183.39C309.332 183.39 309.133 183.19 309.133 182.924V180.861V179.53C309.133 179.264 309.332 179.064 309.599 179.064C309.798 179.064 309.931 179.198 309.998 179.331C310.264 179.198 310.597 179.064 310.93 179.064C311.928 179.064 312.726 179.93 312.726 180.861Z" fill="#263238"/>
<path d="M316.387 179.53C316.387 179.796 316.187 179.996 315.921 179.996H315.722V182.391C315.988 182.391 316.187 182.591 316.187 182.857C316.187 183.124 315.988 183.323 315.722 183.323C315.189 183.323 314.79 182.924 314.79 182.391V180.062H314.524C314.257 180.062 314.058 179.863 314.058 179.596C314.058 179.33 314.257 179.131 314.524 179.131H314.79V177.866C314.79 177.6 314.99 177.4 315.256 177.4C315.522 177.4 315.722 177.6 315.722 177.866V179.131H315.921C316.121 179.064 316.387 179.264 316.387 179.53Z" fill="#263238"/>
<path d="M318.783 178C318.783 178.266 318.583 178.466 318.317 178.466C318.051 178.466 317.851 178.266 317.851 178V177.8C317.851 177.534 318.051 177.334 318.317 177.334C318.583 177.334 318.783 177.534 318.783 177.8V178ZM318.783 179.597V182.925C318.783 183.191 318.583 183.39 318.317 183.39C318.051 183.39 317.851 183.191 317.851 182.925V179.597C317.851 179.331 318.051 179.131 318.317 179.131C318.583 179.065 318.783 179.264 318.783 179.597Z" fill="#263238"/>
<path d="M319.982 181.261C319.982 180.063 320.98 179.131 322.178 179.131C322.71 179.131 323.176 179.331 323.575 179.597C323.775 179.73 323.775 180.063 323.642 180.263C323.442 180.462 323.176 180.529 322.976 180.329C322.777 180.196 322.511 180.063 322.178 180.063C321.512 180.063 320.913 180.662 320.913 181.327C320.913 181.993 321.512 182.525 322.178 182.525C322.511 182.525 322.777 182.392 322.976 182.259C323.176 182.126 323.442 182.126 323.642 182.326C323.775 182.525 323.775 182.791 323.575 182.991C323.176 183.257 322.71 183.457 322.178 183.457C320.98 183.39 319.982 182.392 319.982 181.261Z" fill="#263238"/>
<path d="M328.833 181.261V182.924C328.833 183.19 328.633 183.39 328.367 183.39C328.167 183.39 327.967 183.257 327.901 182.991C327.568 183.19 327.169 183.39 326.77 183.39C326.171 183.39 325.705 183.124 325.305 182.791C324.906 182.392 324.707 181.859 324.707 181.261C324.707 180.662 324.906 180.129 325.305 179.73C325.705 179.331 326.171 179.064 326.77 179.064C327.169 179.064 327.568 179.198 327.901 179.464C327.967 179.264 328.1 179.064 328.367 179.064C328.633 179.064 328.833 179.264 328.833 179.53V181.261ZM327.901 181.261C327.901 180.928 327.768 180.595 327.568 180.395C327.368 180.196 327.102 180.063 326.77 180.063C326.437 180.063 326.171 180.196 325.971 180.395C325.771 180.595 325.638 180.928 325.638 181.261C325.638 181.593 325.771 181.926 325.971 182.126C326.171 182.325 326.437 182.458 326.77 182.458C327.102 182.458 327.368 182.325 327.568 182.126C327.768 181.926 327.901 181.593 327.901 181.261Z" fill="#263238"/>
<path d="M332.426 179.53C332.426 179.796 332.227 179.996 331.96 179.996H331.761V182.391C332.027 182.391 332.227 182.591 332.227 182.857C332.227 183.124 332.027 183.323 331.761 183.323C331.228 183.323 330.829 182.924 330.829 182.391V180.062H330.563C330.297 180.062 330.097 179.863 330.097 179.596C330.097 179.33 330.297 179.131 330.563 179.131H330.829V177.866C330.829 177.6 331.029 177.4 331.295 177.4C331.561 177.4 331.761 177.6 331.761 177.866V179.131H331.96C332.227 179.064 332.426 179.264 332.426 179.53Z" fill="#263238"/>
<path d="M333.291 181.261C333.291 180.063 334.222 179.131 335.354 179.131C336.485 179.131 337.35 179.996 337.417 181.128C337.417 181.128 337.417 181.128 337.417 181.194V181.261C337.417 181.461 337.217 181.594 336.951 181.594H334.222C334.289 181.793 334.355 181.993 334.489 182.193C334.688 182.392 335.021 182.525 335.287 182.592C335.62 182.592 335.953 182.525 336.152 182.392C336.352 182.193 336.685 182.259 336.818 182.392C336.951 182.525 337.017 182.791 336.818 182.925C336.418 183.324 335.886 183.524 335.287 183.524C334.222 183.39 333.291 182.392 333.291 181.261ZM334.222 180.795H336.685C336.618 180.462 336.152 179.93 335.42 179.863C334.688 179.93 334.289 180.462 334.222 180.795Z" fill="#263238"/>
<path d="M345.668 178.2L343.938 180.595V182.925C343.938 183.191 343.738 183.39 343.472 183.39C343.206 183.39 343.006 183.191 343.006 182.925V180.595L341.276 178.2C341.143 178 341.143 177.734 341.342 177.534C341.542 177.401 341.875 177.401 342.008 177.667L343.472 179.664L344.936 177.667C345.069 177.468 345.402 177.401 345.601 177.534C345.801 177.667 345.867 178 345.668 178.2Z" fill="#263238"/>
<path d="M346.067 182.724C345.668 182.324 345.468 181.792 345.468 181.193C345.468 180.594 345.668 180.128 346.067 179.663C346.466 179.263 346.932 178.997 347.531 178.997C348.13 178.997 348.596 179.263 348.995 179.663C349.394 180.062 349.594 180.594 349.594 181.193C349.594 181.792 349.394 182.324 348.995 182.724C348.662 183.123 348.13 183.389 347.531 183.389C346.932 183.389 346.466 183.19 346.067 182.724ZM346.4 181.26C346.4 181.659 346.533 181.925 346.733 182.191C346.932 182.391 347.198 182.524 347.531 182.524C347.864 182.524 348.13 182.391 348.33 182.191C348.529 181.925 348.662 181.659 348.662 181.26C348.662 180.927 348.529 180.594 348.33 180.395C348.13 180.195 347.864 180.062 347.531 180.062C347.198 180.062 346.932 180.195 346.733 180.395C346.533 180.594 346.4 180.86 346.4 181.26Z" fill="#263238"/>
<path d="M352.589 183.39C351.59 183.39 350.792 182.591 350.792 181.593V179.53C350.792 179.264 350.992 179.064 351.258 179.064C351.524 179.064 351.724 179.264 351.724 179.53V181.593C351.724 182.059 352.123 182.458 352.589 182.458C353.055 182.458 353.454 182.059 353.52 181.593V179.53C353.52 179.264 353.72 179.064 353.986 179.064C354.252 179.064 354.452 179.264 354.452 179.53V181.593C354.385 182.591 353.587 183.39 352.589 183.39Z" fill="#263238"/>
<path d="M358.777 179.53C358.777 179.796 358.578 179.996 358.312 179.996C358.112 179.996 357.912 180.063 357.779 180.129C357.646 180.262 357.513 180.395 357.38 180.529C357.18 180.795 357.047 181.127 357.047 181.261V182.924C357.047 183.19 356.848 183.39 356.581 183.39C356.315 183.39 356.115 183.19 356.115 182.924V179.53C356.115 179.264 356.315 179.064 356.581 179.064C356.848 179.064 357.047 179.264 357.047 179.53V179.597C357.114 179.53 357.18 179.464 357.247 179.397C357.513 179.198 357.912 179.064 358.312 179.064C358.578 179.064 358.777 179.264 358.777 179.53Z" fill="#263238"/>
<path d="M365.699 181.993H363.636L363.237 183.124C363.17 183.324 362.97 183.457 362.771 183.457C362.704 183.457 362.638 183.457 362.638 183.457C362.372 183.391 362.238 183.058 362.372 182.858L364.301 177.801C364.368 177.601 364.568 177.468 364.767 177.468C364.967 177.468 365.167 177.601 365.233 177.801L367.163 182.858C367.23 183.124 367.096 183.391 366.897 183.457C366.83 183.457 366.764 183.457 366.764 183.457C366.564 183.457 366.364 183.324 366.298 183.124L365.699 181.993ZM365.3 180.995L364.634 179.131L363.969 180.995H365.3Z" fill="#263238"/>
<path d="M367.563 181.261C367.563 180.063 368.562 179.131 369.76 179.131C370.292 179.131 370.758 179.331 371.157 179.597C371.357 179.73 371.357 180.063 371.224 180.263C371.024 180.462 370.758 180.529 370.558 180.329C370.358 180.196 370.092 180.063 369.76 180.063C369.094 180.063 368.495 180.662 368.495 181.327C368.495 181.993 369.094 182.525 369.76 182.525C370.092 182.525 370.358 182.392 370.558 182.259C370.758 182.126 371.024 182.126 371.224 182.326C371.357 182.525 371.357 182.791 371.157 182.991C370.758 183.257 370.292 183.457 369.76 183.457C368.562 183.39 367.563 182.392 367.563 181.261Z" fill="#263238"/>
<path d="M372.287 181.261C372.287 180.063 373.285 179.131 374.483 179.131C375.016 179.131 375.481 179.331 375.881 179.597C376.08 179.73 376.08 180.063 375.947 180.263C375.748 180.462 375.481 180.529 375.282 180.329C375.082 180.196 374.816 180.063 374.483 180.063C373.818 180.063 373.219 180.662 373.219 181.327C373.219 181.993 373.818 182.525 374.483 182.525C374.816 182.525 375.082 182.392 375.282 182.259C375.481 182.126 375.748 182.126 375.947 182.326C376.08 182.525 376.08 182.791 375.881 182.991C375.481 183.257 375.016 183.457 374.483 183.457C373.285 183.39 372.287 182.392 372.287 181.261Z" fill="#263238"/>
<path d="M377.812 182.727C377.413 182.328 377.213 181.796 377.213 181.197C377.213 180.598 377.413 180.132 377.812 179.666C378.211 179.267 378.677 179 379.276 179C379.875 179 380.341 179.267 380.74 179.666C381.139 180.065 381.339 180.598 381.339 181.197C381.339 181.796 381.139 182.328 380.74 182.727C380.407 183.126 379.875 183.393 379.276 183.393C378.677 183.393 378.211 183.193 377.812 182.727ZM378.145 181.263C378.145 181.662 378.278 181.929 378.478 182.195C378.677 182.394 378.943 182.528 379.276 182.528C379.609 182.528 379.875 182.394 380.075 182.195C380.274 181.929 380.407 181.662 380.407 181.263C380.407 180.93 380.274 180.598 380.075 180.398C379.875 180.198 379.609 180.065 379.276 180.065C378.943 180.065 378.677 180.198 378.478 180.398C378.278 180.598 378.145 180.864 378.145 181.263Z" fill="#263238"/>
<path d="M384.334 183.39C383.335 183.39 382.537 182.591 382.537 181.593V179.53C382.537 179.264 382.736 179.064 383.003 179.064C383.269 179.064 383.468 179.264 383.468 179.53V181.593C383.468 182.059 383.868 182.458 384.334 182.458C384.799 182.458 385.199 182.059 385.265 181.593V179.53C385.265 179.264 385.465 179.064 385.731 179.064C385.997 179.064 386.197 179.264 386.197 179.53V181.593C386.13 182.591 385.332 183.39 384.334 183.39Z" fill="#263238"/>
<path d="M391.254 180.861V182.924C391.254 183.19 391.054 183.39 390.788 183.39C390.522 183.39 390.322 183.19 390.322 182.924V180.861C390.322 180.395 389.923 179.996 389.457 179.996C388.991 179.996 388.592 180.395 388.592 180.861V182.924V182.991C388.525 183.19 388.392 183.39 388.126 183.39C387.86 183.39 387.66 183.19 387.66 182.924V180.861V179.53C387.66 179.264 387.86 179.064 388.126 179.064C388.326 179.064 388.459 179.198 388.525 179.331C388.791 179.198 389.124 179.064 389.457 179.064C390.455 179.064 391.254 179.93 391.254 180.861Z" fill="#263238"/>
<path d="M394.913 179.53C394.913 179.796 394.714 179.996 394.448 179.996H394.248V182.391C394.514 182.391 394.714 182.591 394.714 182.857C394.714 183.124 394.514 183.323 394.248 183.323C393.716 183.323 393.316 182.924 393.316 182.391V180.062H393.05C392.784 180.062 392.584 179.863 392.584 179.596C392.584 179.33 392.784 179.131 393.05 179.131H393.316V177.866C393.316 177.6 393.516 177.4 393.782 177.4C394.048 177.4 394.248 177.6 394.248 177.866V179.131H394.448C394.647 179.064 394.913 179.264 394.913 179.53Z" fill="#263238"/>
<path d="M279.92 201.358H257.759V230.439H279.92V201.358Z" fill="#EAF4FF"/>
<path d="M306.672 201.358H284.511V230.439H306.672V201.358Z" fill="#EAF4FF"/>
<path d="M333.357 201.358H311.197V230.439H333.357V201.358Z" fill="#EAF4FF"/>
<path d="M368.229 201.358H346.068V230.439H368.229V201.358Z" fill="#EAF4FF"/>
<path d="M394.914 201.358H372.754V230.439H394.914V201.358Z" fill="#EAF4FF"/>
<path d="M421.667 201.358H399.507V230.439H421.667V201.358Z" fill="#EAF4FF"/>
<path d="M273.276 217.081C273.868 217.715 274.164 218.54 274.164 219.576C274.164 220.401 273.932 221.12 273.487 221.754C273.043 222.388 272.388 222.875 271.542 223.213C270.696 223.551 269.66 223.721 268.476 223.721C267.271 223.721 266.235 223.551 265.389 223.213C264.543 222.875 263.887 222.388 263.443 221.754C262.999 221.12 262.788 220.401 262.788 219.576C262.788 218.561 263.063 217.736 263.655 217.102C264.226 216.489 264.966 216.087 265.875 215.876C265.114 215.664 264.479 215.284 263.972 214.713C263.464 214.163 263.211 213.444 263.211 212.556C263.211 211.795 263.401 211.097 263.824 210.505C264.247 209.913 264.839 209.469 265.642 209.13C266.446 208.813 267.376 208.644 268.476 208.644C269.554 208.644 270.485 208.813 271.288 209.13C272.092 209.469 272.684 209.913 273.107 210.505C273.53 211.097 273.741 211.795 273.741 212.556C273.741 213.38 273.466 214.099 272.959 214.691C272.451 215.284 271.817 215.685 271.077 215.876C271.965 216.066 272.684 216.468 273.276 217.081ZM266.827 211.329C266.404 211.689 266.192 212.154 266.192 212.704C266.192 213.296 266.404 213.761 266.827 214.121C267.25 214.48 267.799 214.649 268.476 214.649C269.131 214.649 269.681 214.48 270.104 214.099C270.527 213.74 270.76 213.275 270.76 212.704C270.76 212.154 270.527 211.689 270.104 211.329C269.681 210.991 269.131 210.801 268.476 210.801C267.799 210.801 267.25 210.991 266.827 211.329ZM270.358 220.972C270.865 220.549 271.119 220.02 271.119 219.386C271.119 218.751 270.865 218.202 270.358 217.779C269.85 217.356 269.216 217.123 268.476 217.123C267.715 217.123 267.08 217.356 266.573 217.779C266.065 218.202 265.812 218.751 265.812 219.386C265.812 220.02 266.065 220.549 266.573 220.972C267.08 221.395 267.715 221.585 268.476 221.585C269.216 221.585 269.85 221.395 270.358 220.972Z" fill="#595959"/>
<path d="M298.612 214.228C299.373 214.651 299.965 215.264 300.388 216.025C300.811 216.786 301.043 217.674 301.043 218.647C301.043 219.747 300.79 220.698 300.282 221.46C299.775 222.221 299.119 222.813 298.273 223.193C297.427 223.595 296.476 223.786 295.44 223.786C294.319 223.786 293.346 223.574 292.501 223.151C291.655 222.728 290.999 222.136 290.534 221.396C290.069 220.656 289.815 219.831 289.773 218.901H292.797C292.881 219.599 293.156 220.17 293.642 220.614C294.129 221.079 294.721 221.29 295.44 221.29C296.116 221.29 296.708 221.079 297.216 220.614C297.723 220.149 297.977 219.493 297.977 218.647C297.977 217.886 297.745 217.252 297.279 216.744C296.814 216.237 296.201 215.983 295.44 215.983C294.932 215.983 294.425 216.11 293.96 216.342C293.473 216.575 293.135 216.977 292.945 217.526H290.005L290.428 208.857H300.134V211.415H293.198L293.029 214.714C293.833 213.953 294.848 213.572 296.095 213.572C297.026 213.572 297.85 213.805 298.612 214.228Z" fill="#595959"/>
<path d="M356.807 216.66C357.526 216.089 358.055 215.56 358.393 215.074C358.731 214.608 358.901 214.08 358.901 213.509C358.901 212.79 358.668 212.24 358.245 211.859C357.822 211.479 357.251 211.267 356.532 211.267C355.834 211.267 355.264 211.5 354.841 211.965C354.418 212.43 354.206 213.065 354.206 213.847V214.08H351.14V213.678C351.14 212.748 351.352 211.902 351.796 211.141C352.24 210.379 352.874 209.787 353.699 209.364C354.502 208.941 355.454 208.709 356.532 208.709C358.266 208.709 359.598 209.132 360.55 209.978C361.501 210.823 361.988 211.965 361.988 213.382C361.988 214.397 361.734 215.285 361.227 216.025C360.719 216.765 359.958 217.548 358.922 218.393L355.602 221.1H362.051V223.659H351.204V221.312L356.807 216.66Z" fill="#595959"/>
<path d="M326.657 217.221C327.249 217.813 327.567 218.596 327.567 219.569C327.567 220.414 327.313 221.176 326.848 221.81C326.382 222.444 325.706 222.952 324.839 223.29C323.951 223.65 322.936 223.819 321.794 223.819C320.018 223.819 318.622 223.375 317.607 222.487C316.571 221.598 316.063 220.351 316.063 218.765H319.087C319.087 219.59 319.362 220.245 319.912 220.71C320.441 221.197 321.117 221.429 321.963 221.429C322.682 221.429 323.274 221.239 323.739 220.858C324.204 220.478 324.458 219.97 324.458 219.315C324.458 218.723 324.226 218.257 323.76 217.919C323.295 217.581 322.618 217.412 321.752 217.412H320.292V214.98H321.582C322.386 214.98 323.02 214.811 323.464 214.451C323.908 214.092 324.141 213.605 324.141 212.992C324.141 212.421 323.93 211.977 323.528 211.639C323.105 211.322 322.576 211.153 321.921 211.153C321.202 211.153 320.61 211.364 320.144 211.745C319.679 212.146 319.426 212.675 319.426 213.352H316.444C316.444 211.935 316.93 210.814 317.903 209.99C318.876 209.186 320.166 208.763 321.794 208.763C323.485 208.763 324.818 209.123 325.769 209.842C326.721 210.561 327.207 211.533 327.207 212.717C327.207 213.605 326.932 214.303 326.404 214.853C325.875 215.403 325.177 215.783 324.31 215.995C325.262 216.228 326.044 216.629 326.657 217.221Z" fill="#595959"/>
<path d="M320.713 188.915C320.713 188.848 320.779 188.782 320.846 188.782H322.576C322.643 188.782 322.709 188.848 322.709 188.915C322.709 188.981 322.643 189.048 322.576 189.048H320.912V190.379H322.376C322.443 190.379 322.51 190.445 322.51 190.512C322.51 190.579 322.443 190.645 322.376 190.645H320.912V191.976H322.576C322.643 191.976 322.709 192.043 322.709 192.109C322.709 192.176 322.643 192.242 322.576 192.242H320.846C320.779 192.242 320.713 192.176 320.713 192.109V188.915Z" fill="#C7C7C7"/>
<path d="M325.238 190.777C325.238 190.378 324.905 190.045 324.506 190.045C324.107 190.045 323.774 190.378 323.774 190.777V192.108V192.175L323.707 192.241C323.641 192.241 323.641 192.175 323.641 192.175V190.844V190.71V189.912C323.641 189.845 323.707 189.779 323.774 189.779C323.84 189.779 323.907 189.845 323.907 189.912V190.112C324.107 189.912 324.373 189.779 324.639 189.779C325.171 189.779 325.637 190.245 325.637 190.777V192.108C325.637 192.175 325.571 192.241 325.504 192.241C325.438 192.241 325.371 192.175 325.371 192.108V190.777H325.238Z" fill="#C7C7C7"/>
<path d="M327.368 189.913C327.368 189.98 327.302 190.046 327.235 190.046H326.902V191.776C326.902 191.909 327.035 191.976 327.102 191.976C327.169 191.976 327.235 192.043 327.235 192.109C327.235 192.176 327.169 192.242 327.102 192.242C326.836 192.242 326.703 192.043 326.703 191.843V190.046H326.437C326.303 190.046 326.303 189.98 326.303 189.913C326.303 189.847 326.303 189.78 326.437 189.78H326.703V188.915C326.703 188.848 326.769 188.782 326.836 188.782C326.902 188.782 326.969 188.848 326.969 188.915V189.78H327.302C327.302 189.78 327.368 189.847 327.368 189.913Z" fill="#C7C7C7"/>
<path d="M328.099 190.977C328.099 190.311 328.632 189.779 329.23 189.779C329.829 189.779 330.362 190.245 330.362 190.91C330.362 190.977 330.295 191.043 330.229 191.043H328.232C328.232 191.576 328.698 191.975 329.164 191.975C329.497 191.975 329.763 191.842 329.962 191.509C330.029 191.442 330.096 191.443 330.096 191.443C330.162 191.509 330.162 191.576 330.162 191.576C329.962 191.908 329.63 192.108 329.164 192.108C328.632 192.175 328.099 191.642 328.099 190.977ZM328.365 190.777H330.162C330.096 190.311 329.696 189.978 329.23 189.978C328.831 190.045 328.432 190.378 328.365 190.777Z" fill="#C7C7C7"/>
<path d="M331.161 189.912C331.161 189.845 331.227 189.779 331.294 189.779C331.36 189.779 331.427 189.845 331.427 189.912V190.444C331.427 190.444 331.427 190.378 331.494 190.378C331.693 190.112 331.959 189.779 332.425 189.779C332.492 189.779 332.558 189.845 332.558 189.912C332.558 189.978 332.492 190.045 332.425 190.045C332.092 190.045 331.893 190.245 331.76 190.444C331.627 190.644 331.494 190.91 331.494 190.977C331.494 190.977 331.494 190.977 331.494 191.043V192.108C331.494 192.175 331.427 192.241 331.36 192.241C331.294 192.241 331.227 192.175 331.227 192.108V189.912H331.161Z" fill="#C7C7C7"/>
<path d="M335.553 192.175C335.486 192.175 335.486 192.175 335.553 192.175L334.621 189.979C334.621 189.913 334.621 189.846 334.688 189.846C334.754 189.846 334.821 189.846 334.821 189.913L335.62 191.776L336.418 189.913C336.418 189.846 336.485 189.846 336.551 189.846C336.618 189.846 336.618 189.913 336.618 189.979L335.753 192.109V192.175L335.686 192.242C335.62 192.175 335.553 192.175 335.553 192.175Z" fill="#C7C7C7"/>
<path d="M339.48 189.912V192.041C339.48 192.108 339.413 192.175 339.347 192.175C339.28 192.175 339.214 192.108 339.214 192.041V191.709C339.014 191.975 338.681 192.175 338.348 192.175C337.75 192.175 337.217 191.642 337.217 190.977C337.217 190.311 337.75 189.779 338.348 189.779C338.681 189.779 339.014 189.978 339.214 190.245V189.912C339.214 189.845 339.28 189.779 339.347 189.779C339.413 189.779 339.48 189.845 339.48 189.912ZM339.28 190.977C339.28 190.444 338.881 189.978 338.415 189.978C337.949 189.978 337.483 190.378 337.483 190.977C337.483 191.509 337.883 191.908 338.415 191.908C338.881 191.975 339.28 191.509 339.28 190.977Z" fill="#C7C7C7"/>
<path d="M340.612 188.915C340.612 188.848 340.678 188.782 340.745 188.782C340.811 188.782 340.878 188.848 340.878 188.915V192.109C340.878 192.176 340.811 192.242 340.745 192.242C340.678 192.242 340.612 192.176 340.612 192.109V188.915Z" fill="#C7C7C7"/>
<path d="M341.809 189.114C341.809 189.048 341.876 188.981 341.943 188.981C342.009 188.981 342.076 189.048 342.076 189.114V189.247C342.076 189.314 342.009 189.38 341.943 189.38C341.876 189.38 341.809 189.314 341.809 189.247V189.114ZM341.809 189.913C341.809 189.846 341.876 189.78 341.943 189.78C342.009 189.78 342.076 189.846 342.076 189.913V192.042C342.076 192.109 342.009 192.175 341.943 192.175C341.876 192.175 341.809 192.109 341.809 192.042V189.913Z" fill="#C7C7C7"/>
<path d="M345.07 191.709C344.87 191.975 344.537 192.175 344.138 192.175C343.472 192.175 343.007 191.642 343.007 190.977C343.007 190.312 343.539 189.779 344.138 189.779C344.537 189.779 344.87 189.979 345.07 190.245V188.847C345.07 188.781 345.136 188.714 345.203 188.714C345.269 188.714 345.336 188.781 345.336 188.847V190.91V190.977V192.042C345.336 192.108 345.269 192.175 345.203 192.175C345.136 192.175 345.07 192.108 345.07 192.042V191.709ZM345.07 191.044V190.977C345.07 190.445 344.67 190.045 344.138 190.045C343.606 190.045 343.206 190.445 343.206 190.977C343.206 191.509 343.606 191.909 344.138 191.909C344.67 191.975 345.07 191.576 345.07 191.044Z" fill="#C7C7C7"/>
<path d="M347.665 190.977C347.665 190.311 348.198 189.779 348.863 189.779C349.129 189.779 349.395 189.845 349.595 190.045C349.662 190.112 349.662 190.178 349.595 190.178C349.528 190.245 349.462 190.245 349.462 190.178C349.262 190.045 349.063 189.978 348.863 189.978C348.331 189.978 347.865 190.444 347.865 190.91C347.865 191.443 348.331 191.908 348.863 191.908C349.063 191.908 349.329 191.842 349.462 191.709C349.528 191.642 349.595 191.709 349.595 191.709C349.662 191.775 349.662 191.842 349.595 191.908C349.395 192.041 349.129 192.175 348.863 192.175C348.198 192.175 347.665 191.642 347.665 190.977Z" fill="#C7C7C7"/>
<path d="M351.591 189.779C352.19 189.779 352.722 190.311 352.722 190.977C352.722 191.642 352.19 192.175 351.591 192.175C350.992 192.175 350.46 191.642 350.46 190.977C350.46 190.378 350.926 189.779 351.591 189.779ZM351.591 191.975C352.057 191.975 352.523 191.576 352.523 191.043C352.523 190.511 352.123 190.045 351.591 190.045C351.125 190.045 350.726 190.511 350.726 191.043C350.659 191.509 351.125 191.975 351.591 191.975Z" fill="#C7C7C7"/>
<path d="M355.518 191.709C355.319 191.975 354.986 192.175 354.587 192.175C353.921 192.175 353.455 191.642 353.455 190.977C353.455 190.312 353.988 189.779 354.587 189.779C354.986 189.779 355.319 189.979 355.518 190.245V188.847C355.518 188.781 355.585 188.714 355.652 188.714C355.718 188.714 355.785 188.781 355.785 188.847V190.91V190.977V192.042C355.785 192.108 355.718 192.175 355.652 192.175C355.585 192.175 355.518 192.108 355.518 192.042V191.709ZM355.518 191.044V190.977C355.518 190.445 355.119 190.045 354.587 190.045C354.054 190.045 353.655 190.445 353.655 190.977C353.655 191.509 354.054 191.909 354.587 191.909C355.119 191.975 355.518 191.576 355.518 191.044Z" fill="#C7C7C7"/>
<path d="M356.583 190.977C356.583 190.311 357.115 189.779 357.714 189.779C358.313 189.779 358.845 190.245 358.845 190.91C358.845 190.977 358.779 191.043 358.712 191.043H356.716C356.716 191.576 357.182 191.975 357.648 191.975C357.98 191.975 358.246 191.842 358.446 191.509C358.513 191.442 358.579 191.443 358.579 191.443C358.646 191.509 358.646 191.576 358.646 191.576C358.446 191.908 358.113 192.108 357.648 192.108C357.115 192.175 356.583 191.642 356.583 190.977ZM356.849 190.777H358.646C358.579 190.311 358.18 189.978 357.781 189.978C357.315 190.045 356.915 190.378 356.849 190.777Z" fill="#C7C7C7"/>
<path d="M350.561 239.957H328.933C326.195 239.957 323.975 242.176 323.975 244.914C323.975 247.652 326.195 249.872 328.933 249.872H350.561C353.299 249.872 355.519 247.652 355.519 244.914C355.519 242.176 353.299 239.957 350.561 239.957Z" fill="#FF00AE"/>
<path d="M330.697 245.68C330.764 245.547 330.963 245.547 331.03 245.614C331.23 245.814 331.629 246.013 331.962 246.013C332.228 246.013 332.427 245.947 332.561 245.814C332.694 245.68 332.76 245.614 332.76 245.481C332.76 245.414 332.76 245.348 332.694 245.348C332.694 245.281 332.627 245.281 332.561 245.215C332.427 245.148 332.161 245.015 331.895 245.015C331.695 244.948 331.429 244.882 331.296 244.815C331.097 244.749 330.963 244.616 330.83 244.416C330.764 244.283 330.697 244.15 330.697 244.017C330.697 243.751 330.83 243.484 331.097 243.285C331.296 243.152 331.629 243.019 331.962 243.019C332.427 243.019 332.76 243.218 333.026 243.418C333.16 243.484 333.16 243.684 333.093 243.751C333.026 243.884 332.893 243.884 332.76 243.817C332.494 243.684 332.294 243.484 331.962 243.484C331.762 243.484 331.562 243.551 331.429 243.617C331.296 243.684 331.23 243.817 331.23 243.95C331.23 244.017 331.23 244.017 331.296 244.083C331.296 244.15 331.363 244.15 331.429 244.216C331.562 244.283 331.762 244.35 332.028 244.416C332.294 244.483 332.494 244.549 332.694 244.616C332.893 244.682 333.093 244.815 333.16 245.015C333.226 245.148 333.293 245.281 333.293 245.414C333.293 245.747 333.093 246.013 332.893 246.146C332.627 246.346 332.361 246.413 331.962 246.413C331.429 246.413 330.963 246.146 330.697 245.947C330.631 245.947 330.631 245.747 330.697 245.68Z" fill="white"/>
<path d="M335.489 246.545C334.69 246.545 334.091 245.879 334.091 245.147V243.417C334.091 243.284 334.225 243.151 334.358 243.151C334.491 243.151 334.624 243.284 334.624 243.417V245.147C334.624 245.613 335.023 246.012 335.489 246.012C335.955 246.012 336.354 245.613 336.354 245.147V243.417C336.354 243.284 336.487 243.151 336.62 243.151C336.753 243.151 336.886 243.284 336.886 243.417V245.147C336.886 245.879 336.221 246.545 335.489 246.545Z" fill="white"/>
<path d="M338.018 246.279V243.417C338.018 243.284 338.151 243.151 338.284 243.151H338.95C339.482 243.151 339.881 243.55 339.881 244.083C339.881 244.282 339.815 244.482 339.682 244.615C339.948 244.815 340.147 245.147 340.147 245.48C340.147 246.079 339.682 246.545 339.083 246.545H338.218C338.151 246.545 338.018 246.412 338.018 246.279ZM338.55 244.415H338.95C339.149 244.415 339.349 244.216 339.349 244.016C339.349 243.816 339.149 243.617 338.95 243.617H338.55V244.415ZM338.55 245.946H339.149C339.415 245.946 339.682 245.746 339.682 245.414C339.682 245.147 339.482 244.948 339.149 244.881H338.55V245.946Z" fill="white"/>
<path d="M343.874 243.351V246.213C343.874 246.346 343.741 246.479 343.608 246.479C343.475 246.479 343.342 246.346 343.342 246.213V244.15L342.61 245.148C342.543 245.214 342.477 245.281 342.41 245.281C342.344 245.281 342.211 245.214 342.211 245.148L341.545 244.15V246.213C341.545 246.346 341.412 246.479 341.279 246.479C341.146 246.479 341.013 246.346 341.013 246.213V243.351C341.013 243.218 341.146 243.085 341.279 243.085C341.345 243.085 341.412 243.151 341.479 243.218L342.477 244.549L343.475 243.218C343.542 243.151 343.608 243.085 343.675 243.085C343.741 243.085 343.874 243.218 343.874 243.351Z" fill="white"/>
<path d="M345.072 243.351C345.072 243.218 345.205 243.085 345.338 243.085C345.471 243.085 345.604 243.218 345.604 243.351V246.213C345.604 246.346 345.471 246.479 345.338 246.479C345.205 246.479 345.072 246.346 345.072 246.213V243.351Z" fill="white"/>
<path d="M348.598 243.617H347.8V246.213C347.8 246.346 347.667 246.479 347.534 246.479C347.401 246.479 347.268 246.346 347.268 246.213V243.617H346.469C346.336 243.617 346.203 243.484 346.203 243.351C346.203 243.218 346.336 243.085 346.469 243.085H348.532C348.665 243.085 348.798 243.218 348.798 243.351C348.865 243.484 348.798 243.617 348.598 243.617Z" fill="white"/>
<path opacity="0.2" d="M344.459 171.296C351.526 168.685 355.139 160.84 352.528 153.773C349.918 146.705 342.072 143.092 335.005 145.703C327.937 148.314 324.325 156.159 326.935 163.227C329.546 170.294 337.392 173.907 344.459 171.296Z" fill="#0064B5"/>
<path d="M343.873 153.515V157.974H342.609V153.515C342.609 151.852 341.344 150.454 339.747 150.454C338.15 150.454 336.886 151.852 336.886 153.515V157.974H335.621V153.515C335.621 151.119 337.485 149.123 339.747 149.123C342.01 149.19 343.873 151.119 343.873 153.515Z" fill="white"/>
<path d="M335.621 154.712L336.886 154.778V157.973H335.621V154.712Z" fill="#EBEBEB"/>
<path d="M343.873 155.045V157.973H342.608V154.979L343.873 155.045Z" fill="#EBEBEB"/>
<path d="M345.47 156.308H334.023V165.824H345.47V156.308Z" fill="#0064B5"/>
<path d="M340.213 161.033L340.679 163.296H338.616L339.081 161.033C338.815 160.834 338.616 160.567 338.616 160.168C338.616 159.569 339.081 159.17 339.614 159.17C340.146 159.17 340.612 159.636 340.612 160.168C340.679 160.501 340.479 160.834 340.213 161.033Z" fill="white"/>
<path d="M536.431 309.412H149.962C149.73 309.412 149.575 309.072 149.575 308.563V308.054C149.575 307.545 149.73 307.206 149.962 307.206H536.354C536.586 307.206 536.741 307.545 536.741 308.054V308.563C536.819 309.072 536.664 309.412 536.431 309.412Z" fill="#2D3554"/>
<path d="M209.501 299.911C209.501 299.911 214.34 300.153 217.969 300.153C221.478 300.153 227.163 300.879 227.163 300.879C227.163 300.879 228.615 300.879 228.736 302.694C228.857 304.508 228.857 305.234 228.857 305.234C228.857 305.234 228.978 307.412 227.284 307.412C225.591 307.412 214.703 308.621 212.284 308.621C209.864 308.621 208.05 309.105 208.05 307.412C207.929 305.718 207.808 299.791 209.501 299.911Z" fill="#160856"/>
<path d="M213.493 248.257C213.493 248.257 216.639 265.798 216.881 270.516C217.122 275.113 217.606 278.742 214.582 280.556C211.558 282.371 206.477 284.065 206.477 284.065L200.307 252.612V248.983L213.493 248.257Z" fill="#FDBD97"/>
<path d="M159.661 247.17C159.661 247.17 157.967 255.155 157.483 259.147C156.999 263.139 155.911 271.002 155.79 272.816C155.669 274.631 155.427 277.655 158.693 280.075C161.959 282.373 165.588 283.704 165.588 283.704L172.363 247.17H159.661Z" fill="#FDBD97"/>
<path d="M183.735 221.886C183.735 221.886 183.735 225.516 182.162 227.088C180.589 228.661 178.533 231.322 178.533 231.322C178.533 231.322 182.162 237.129 189.541 236.282C196.8 235.556 198.13 230.233 198.13 230.233C198.13 230.233 191.235 229.266 190.388 222.733C189.662 216.201 188.574 216.201 188.574 216.201L183.735 221.886Z" fill="#FDAE7D"/>
<path d="M178.412 207.367C178.412 207.367 178.654 215.714 182.646 222.246C186.517 228.779 191.235 225.15 193.17 221.762C194.985 218.375 199.945 207.367 198.977 204.464C197.888 201.56 183.493 200.229 183.493 200.229L178.412 207.367Z" fill="#FDBD97"/>
<path d="M196.921 212.085C196.921 212.085 198.977 210.513 198.977 212.085C198.977 213.658 197.888 215.956 196.679 216.319C195.348 216.561 195.59 215.835 195.953 214.747C196.195 213.658 196.921 212.085 196.921 212.085Z" fill="#FDBD97"/>
<path d="M179.018 215.472C179.623 215.714 180.227 215.835 180.227 214.988C180.227 213.416 179.139 211.117 177.929 210.754C176.598 210.512 176.84 211.238 177.203 212.327C177.324 212.69 177.445 213.053 177.566 213.537C177.808 214.262 178.534 215.23 179.018 215.472Z" fill="#FDBD97"/>
<path d="M178.774 211.24L178.532 208.579C178.532 208.579 180.831 208.821 183.492 206.281C183.492 206.281 188.573 207.49 192.686 207.006C197.041 206.643 198.856 205.434 198.856 205.434C198.856 205.434 198.13 210.394 197.404 211.845C197.404 211.845 199.461 210.998 200.307 208.579C201.033 206.281 200.912 203.74 200.912 203.74C200.912 203.74 203.816 201.442 204.541 198.78C204.541 198.78 196.678 196.966 194.38 195.393C192.081 193.82 190.751 192.732 190.751 192.732C190.751 192.732 187.122 190.675 183.492 193.458C179.863 196.361 177.444 197.933 177.444 202.893C177.323 203.014 173.936 207.732 178.774 211.24Z" fill="#160856"/>
<path d="M179.38 228.657C179.38 228.657 174.421 228.053 171.638 228.778C168.977 229.504 168.13 229.02 168.856 231.077C169.582 233.133 173.211 242.69 171.517 248.618C169.824 254.545 167.525 285.272 167.525 285.272C167.525 285.272 186.155 285.998 193.292 286.361C200.55 286.724 205.873 285.393 205.873 285.393C205.873 285.393 207.446 272.207 205.873 266.401C204.301 260.715 202.244 250.916 202.244 250.916C202.244 250.916 200.913 237.488 202.728 234.222C204.543 230.956 205.873 230.835 203.575 229.988C201.276 229.141 198.736 228.416 196.8 228.416C194.986 228.416 194.018 228.416 192.929 229.504C191.841 230.593 189.663 232.771 186.639 232.287C183.614 231.803 181.316 229.746 181.316 229.746C181.316 229.746 180.227 228.778 179.38 228.657Z" fill="#FFC727"/>
<path d="M170.549 229.748C170.549 229.748 168.856 228.901 166.315 231.079C163.533 233.498 161.597 238.579 160.63 241.724C159.662 244.87 159.057 248.015 159.057 248.015C159.057 248.015 162.565 249.829 166.315 249.95C169.944 250.071 172.364 250.313 172.364 250.313C172.364 250.313 173.936 240.756 173.574 236.522C173.09 232.288 172.485 230.837 170.549 229.748Z" fill="#023E9F"/>
<path d="M201.275 233.255C201.275 233.255 202.726 229.263 205.993 231.077C209.259 232.892 211.678 239.908 212.525 242.086C213.251 244.263 214.219 248.739 214.219 248.739C214.219 248.739 210.348 250.433 206.96 250.675C203.694 250.917 201.396 251.159 201.396 251.159C201.396 251.159 200.065 242.449 200.307 239.062C200.549 235.674 201.275 233.255 201.275 233.255Z" fill="#023E9F"/>
<path d="M174.299 288.056H199.34L186.396 292.048L174.299 288.056Z" fill="#BA0A28"/>
<path d="M152.04 280.919C152.04 280.919 197.767 295.193 207.808 298.702C207.808 298.702 211.074 299.548 211.195 301.242C211.316 302.936 210.953 305.355 210.59 306.565C210.227 307.775 209.139 308.742 207.324 308.379C205.509 308.016 164.5 299.79 148.29 295.556L143.693 294.105C143.693 294.105 140.305 292.532 140.91 288.419C141.515 284.306 144.54 280.556 146.717 280.314C148.895 280.193 152.04 280.919 152.04 280.919Z" fill="#EC384E"/>
<path d="M147.926 301.243C147.926 301.243 153.612 300.275 157.12 300.154C160.508 300.033 165.104 299.67 165.83 300.154C166.556 300.638 167.161 307.292 167.161 307.292C167.161 307.292 167.766 309.106 163.29 308.743C158.814 308.38 148.41 308.017 148.41 308.017C148.41 308.017 146.112 307.896 145.991 305.84C145.87 303.783 146.233 302.816 146.233 302.816C146.233 302.816 146.354 301.485 147.926 301.243Z" fill="#160856"/>
<path d="M175.145 295.436C175.145 295.436 202.848 286.968 212.767 284.064C222.687 281.161 228.131 278.499 231.397 283.096C234.542 287.693 234.3 292.895 230.671 294.347C227.042 295.798 198.13 302.573 186.154 304.992C174.177 307.412 166.314 308.984 165.225 308.501C164.137 308.017 162.927 304.508 163.169 302.573C163.411 300.637 163.532 299.912 165.83 298.944C168.129 297.855 175.145 295.436 175.145 295.436Z" fill="#DB061F"/>
<path d="M172 255.032H205.388C205.388 255.032 207.203 254.79 207.203 257.209C207.203 259.629 207.203 286 207.203 286C207.203 286 207.324 287.936 205.872 287.936C204.421 287.936 166.677 287.936 166.677 287.936C166.677 287.936 165.105 288.42 165.105 285.758C165.105 283.097 165.105 256.483 165.105 256.483C165.105 256.483 164.984 255.032 166.919 255.032C168.734 255.032 172 255.032 172 255.032Z" fill="#0064B5"/>
<path d="M188.211 271.361L185.792 269.426L183.856 271.845L186.276 273.781L188.211 271.361Z" fill="#579CD2"/>
<path d="M489.861 248.699C489.861 248.699 493.023 247.457 492.797 243.843C492.571 240.229 490.764 237.745 494.491 238.761C498.33 239.778 499.572 240.229 502.396 239.665C505.219 239.1 507.477 237.971 506.235 241.472C504.993 245.085 503.751 248.134 506.574 248.699C509.397 249.264 512.559 247.118 512.898 252.764C513.237 258.411 508.72 264.735 501.379 264.96C494.039 265.186 490.764 262.137 490.764 262.137C490.764 262.137 488.844 259.314 491.893 258.636C494.943 257.959 498.104 256.604 496.523 255.249C494.943 253.781 489.861 253.668 489.861 253.668C489.861 253.668 483.424 252.426 489.861 248.699Z" fill="#649CE8"/>
<path d="M523.4 249.602C522.836 245.989 523.287 243.391 529.95 242.488C536.613 241.472 540.565 245.537 540.904 249.602C541.356 253.668 535.484 255.249 535.484 255.249C535.484 255.249 531.418 256.378 533.451 259.992C535.484 263.605 536.5 267.106 531.757 267.558C527.014 268.122 521.819 266.88 518.883 264.96C515.947 263.041 513.011 258.185 516.399 255.588C516.399 255.588 517.302 254.91 520.464 254.797C523.739 254.684 523.4 249.602 523.4 249.602Z" fill="#023E9F"/>
<path d="M499.912 249.037C499.912 249.037 505.445 261.572 506.236 270.154" stroke="#023E9F" stroke-width="1.10309" stroke-miterlimit="10"/>
<path d="M530.74 251.071C530.74 251.071 520.916 265.639 518.657 270.495" stroke="#649CE8" stroke-width="1.10309" stroke-miterlimit="10"/>
<path d="M502.848 269.14H525.32C525.32 269.14 527.804 269.365 527.579 272.64C527.353 275.689 523.513 275.012 521.48 275.012C519.448 275.012 502.396 275.012 502.396 275.012C502.396 275.012 499.686 275.464 499.686 272.302C499.573 269.253 500.589 269.14 502.848 269.14Z" fill="#0055A2"/>
<path d="M502.396 275.125L505.784 295H520.916L523.513 280.093L502.396 275.125Z" fill="#0055A2"/>
<path d="M502.396 275.125L523.513 280.093L524.417 275.125H502.396Z" fill="#016AD3"/>
<path d="M512.107 269.929C512.107 269.929 513.236 247.796 519.786 234.019" stroke="#FABC43" stroke-width="1.10309" stroke-miterlimit="10"/>
<path d="M525.207 226C525.207 226 525.771 232.776 519.109 235.373C519.109 235.373 517.754 229.614 525.207 226Z" fill="#FABC43"/>
<path d="M515.269 247.57C515.269 247.57 517.753 241.81 525.206 242.601C525.206 242.601 524.642 248.36 515.269 247.57Z" fill="#FABC43"/>
<path d="M512.786 262.137C512.786 262.137 514.028 256.039 521.594 255.249C521.594 255.249 522.159 261.008 512.786 262.137Z" fill="#FABC43"/>
<path d="M512.559 262.137C512.559 262.137 513.462 255.926 506.574 252.764C506.574 252.764 504.089 257.959 512.559 262.137Z" fill="#FABC43"/>
<path d="M515.382 247.57C515.382 247.57 517.076 241.472 510.639 237.52C510.639 237.407 507.59 242.376 515.382 247.57Z" fill="#FABC43"/>
<path d="M493.107 60.9692L486.783 62.7761L488.59 69.1L494.914 67.2931L493.107 60.9692Z" fill="#EB3B4E"/>
<path d="M419.303 246.33L416.198 247.459L420.432 251.976C420.432 251.976 421.562 250.282 422.267 248.447C422.408 247.741 421.985 246.895 421.138 246.753L419.303 246.33Z" fill="#FFBE9B"/>
<path d="M414.789 252.402L416.764 254.237C417.47 254.801 418.599 254.801 419.023 254.095L420.575 252.119L416.341 247.603L414.506 251.131C414.365 251.414 414.365 251.978 414.789 252.402Z" fill="#FFBE9B"/>
<path d="M380.776 216.833C379.506 219.515 378.094 222.338 376.542 225.02C375.13 227.701 373.578 230.383 372.166 232.782C371.884 233.347 371.32 233.911 371.037 234.194C370.614 234.758 370.049 235.182 369.485 235.746C368.356 236.734 367.227 237.863 365.956 238.851C363.557 240.968 361.158 243.085 358.758 245.344L361.158 248.166C364.263 246.614 367.085 244.92 370.049 243.085C371.461 242.238 373.013 241.251 374.284 240.263C374.989 239.698 375.695 239.133 376.401 238.569C377.247 237.863 377.812 237.016 378.518 236.452C380.776 233.629 382.328 230.947 384.022 228.125C385.716 225.302 387.127 222.62 388.397 219.656L380.776 216.833Z" fill="#FFBE9B"/>
<path d="M407.45 216.41C409.285 219.092 411.12 221.633 413.095 224.314L418.741 232.077L419.447 233.065L419.588 233.206C419.588 233.206 419.588 233.347 419.729 233.347C419.87 233.629 420.011 234.194 420.011 234.758C420.152 236.029 420.011 237.44 419.87 238.851C419.588 241.674 418.882 244.779 418.318 247.743L421.987 249.013C423.54 246.05 425.092 243.086 426.08 239.981C426.504 238.428 426.927 236.734 427.068 234.758C427.068 233.77 427.068 232.782 426.786 231.653C426.645 231.371 426.645 231.089 426.504 230.665L426.221 230.242L426.08 230.101V229.96L425.375 228.831C423.822 226.008 421.987 223.326 420.152 220.503C418.318 217.822 416.483 215.14 414.507 212.458L407.45 216.41Z" fill="#FFBE9B"/>
<path d="M402.228 194.674C402.792 199.332 401.804 205.26 405.474 207.659C405.474 207.659 404.627 212.034 395.877 213.305C386.138 214.575 390.937 210.764 390.937 210.764C396.159 209.07 395.312 204.413 393.901 201.308L402.228 194.674Z" fill="#FFBE9B"/>
<path d="M405.895 210.341C406.037 208.647 405.895 205.966 404.625 205.542C403.355 205.119 395.31 205.683 391.217 208.93C392.628 211.47 392.487 214.011 392.487 214.011L405.895 210.341Z" fill="#0054A3"/>
<path d="M409.706 207.661C414.646 208.084 421.844 219.093 421.844 219.093L412.67 226.291C412.67 226.291 408.295 222.198 404.907 217.399C401.379 212.459 404.484 207.378 409.706 207.661Z" fill="#0054A3"/>
<path opacity="0.6" d="M409.706 207.661C414.646 208.084 421.844 219.093 421.844 219.093L412.67 226.291C412.67 226.291 408.295 222.198 404.907 217.399C401.379 212.459 404.484 207.378 409.706 207.661Z" fill="#0054A3"/>
<path opacity="0.2" d="M407.03 215.706L413.099 226.009L412.676 226.291C412.676 226.291 410.418 224.033 407.736 220.928L407.03 215.706Z" fill="black"/>
<path d="M384.302 232.5C385.29 237.581 386.843 243.932 388.819 251.695L416.906 248.025C416.623 244.497 412.389 228.83 413.236 211.894C413.377 209.494 411.119 207.518 408.437 207.659C407.026 207.659 405.473 207.801 404.062 207.942C400.533 208.224 395.17 208.789 392.206 209.494C387.972 210.341 384.302 211.894 384.302 211.894C384.302 211.894 382.327 214.434 383.314 225.302C383.597 227.278 383.879 229.677 384.302 232.5Z" fill="#0083F9"/>
<path opacity="0.6" d="M384.302 232.5C385.29 237.581 386.843 243.932 388.819 251.695L416.906 248.025C416.623 244.497 412.389 228.83 413.236 211.894C413.377 209.494 411.119 207.518 408.437 207.659C407.026 207.659 405.473 207.801 404.062 207.942C400.533 208.224 395.17 208.789 392.206 209.494C387.972 210.341 384.302 211.894 384.302 211.894C384.302 211.894 382.327 214.434 383.314 225.302C383.597 227.278 383.879 229.677 384.302 232.5Z" fill="#0083F9"/>
<path opacity="0.2" d="M384.305 232.497C386.563 231.227 388.68 225.441 387.692 222.335L383.176 225.017C383.599 227.275 383.882 229.675 384.305 232.497Z" fill="black"/>
<path d="M390.651 215C392.062 219.234 383.453 231.654 383.453 231.654L373.009 226.855C373.009 226.855 375.408 220.645 379.078 215.705C383.171 210.342 389.099 210.201 390.651 215Z" fill="#0054A3"/>
<path opacity="0.6" d="M390.651 215C392.062 219.234 383.453 231.654 383.453 231.654L373.009 226.855C373.009 226.855 375.408 220.645 379.078 215.705C383.171 210.342 389.099 210.201 390.651 215Z" fill="#0054A3"/>
<path d="M399.97 186.913C401.946 192.276 403.357 195.522 401.381 199.333C398.558 205.12 390.231 205.402 386.42 200.603C383.033 196.228 380.634 188.042 385.433 183.808C390.372 179.573 397.994 181.549 399.97 186.913Z" fill="#FFBE9B"/>
<path d="M390.654 176.609C386.279 177.597 382.892 179.29 382.468 181.266C378.516 182.819 377.246 186.489 379.928 187.9C382.327 189.311 386.138 187.759 386.138 187.759C386.138 187.759 384.303 195.945 389.949 192.84C390.795 195.663 392.771 200.744 397.57 201.167C400.111 201.449 404.768 200.885 405.192 198.909C405.615 196.933 404.062 197.356 404.345 195.804C404.768 194.251 406.885 188.888 404.486 184.936C404.345 185.077 400.957 173.08 390.654 176.609Z" fill="#180857"/>
<path d="M392.349 192.557C392.49 193.968 391.926 195.239 391.22 196.086C390.091 197.497 389.668 197.497 389.244 195.944C388.821 194.533 387.692 191.569 389.244 190.863C390.797 190.158 392.349 191.005 392.349 192.557Z" fill="#FFBE9B"/>
<path d="M398.841 250.566C398.841 250.566 403.216 286.98 405.898 300.247C408.862 314.784 428.621 361.642 428.621 361.642L437.936 359.525C433.138 343.294 426.081 313.09 421.705 301.517C418.459 283.875 421.705 261.857 416.907 248.167L398.841 250.566Z" fill="#EE384E"/>
<path opacity="0.2" d="M401.663 264.679C401.381 264.679 400.957 264.679 400.675 264.679C402.087 275.547 404.062 290.084 405.615 298.411C406.885 286.273 408.156 265.808 401.663 264.679Z" fill="black"/>
<path d="M389.101 251.838C389.101 251.838 386.842 290.792 386.56 304.906C386.278 319.584 390.23 363.338 390.23 363.338H399.263C399.263 363.338 402.65 322.831 400.815 303.071C402.932 287.969 407.59 249.438 407.59 249.438L389.101 251.838Z" fill="#EE384E"/>
<path d="M356.502 244.778C357.772 244.637 359.607 244.778 360.877 245.343L361.583 246.33C362.006 247.177 361.724 248.165 360.595 248.448L357.349 249.294L355.796 249.718C355.091 249.859 354.385 249.718 353.961 249.153L353.256 248.306C352.832 247.742 352.973 246.895 353.397 246.472L354.808 245.343C355.514 245.06 355.937 244.919 356.502 244.778Z" fill="#FFBE9B"/>
<path d="M428.762 361.361L437.372 359.244C437.795 359.103 437.936 359.244 438.077 359.668L440.9 365.596C441.182 366.019 441.041 366.725 440.336 367.007H440.194C437.372 367.713 435.255 367.995 431.585 368.842C429.468 369.265 422.693 371.1 419.87 371.806C416.906 372.511 415.777 369.689 417.048 369.124C422.27 366.584 426.08 364.043 427.492 362.067C427.915 361.785 428.339 361.503 428.762 361.361Z" fill="#170856"/>
<path d="M390.23 363.333H399.122C399.545 363.333 399.687 363.475 399.687 363.898L401.098 370.249C401.239 370.814 400.957 371.378 400.251 371.52H400.11C397.146 371.52 395.029 371.378 391.359 371.378C389.242 371.378 382.185 371.52 379.221 371.52C376.257 371.52 375.693 368.556 377.104 368.273C382.75 367.003 387.125 365.451 388.96 363.757C389.383 363.475 389.807 363.333 390.23 363.333Z" fill="#170856"/>
</svg>
