<svg width="680" height="424" viewBox="0 0 680 424" fill="none" xmlns="http://www.w3.org/2000/svg">
<rect width="680" height="424" fill="white"/>
<path d="M225.077 57.4646C225.077 57.4646 219.032 62.4653 224.732 64.707C230.604 66.9486 232.85 69.7076 229.914 75.2256C226.632 80.7436 227.668 85.0546 230.604 87.1238C233.886 89.1931 239.932 92.297 235.095 99.3669C230.259 106.609 222.313 121.094 213.85 117.128C205.213 113.162 201.068 99.022 204.522 93.504C207.977 87.986 213.677 86.4341 210.741 80.0539C208.15 73.6737 202.104 76.7776 201.931 69.3628C201.759 61.7755 200.722 54.0158 211.259 51.6017C220.241 49.36 227.495 53.8434 225.077 57.4646Z" stroke="#1C4599" stroke-width="1.67092" stroke-miterlimit="10"/>
<path d="M216.786 62.2939C216.786 62.2939 217.823 110.059 220.586 121.957" stroke="#1C4599" stroke-width="1.67092" stroke-miterlimit="10"/>
<path d="M227.495 92.4702L218.341 101.092L209.186 96.0914" stroke="#1C4599" stroke-width="1.67092" stroke-miterlimit="10"/>
<path d="M224.904 70.2261L217.477 75.5716L209.013 72.2953" stroke="#1C4599" stroke-width="1.67092" stroke-miterlimit="10"/>
<path d="M245.287 57.982C245.287 57.982 259.796 62.4654 255.823 69.018C251.505 75.3982 253.923 78.1572 256.859 80.5713C259.45 82.9854 266.187 85.7444 261.178 92.2971C256.169 98.8497 251.159 100.229 251.505 104.713C251.85 109.196 247.187 127.302 240.45 123.163C233.541 119.197 233.023 108.334 234.059 103.505C235.096 99.0221 230.777 93.849 226.805 90.4002C222.832 87.1239 220.586 80.5713 226.632 78.5021C232.85 76.2604 235.786 69.8802 233.886 65.3968C231.123 61.2583 235.441 55.223 245.287 57.982Z" fill="#FABD41"/>
<path d="M243.905 67.8115L236.65 129.027" stroke="white" stroke-width="1.67092" stroke-miterlimit="10" stroke-linecap="round" stroke-linejoin="round"/>
<path d="M254.096 86.6075L240.796 92.6428L229.396 82.9863" stroke="white" stroke-width="1.67092" stroke-miterlimit="10" stroke-linecap="round" stroke-linejoin="round"/>
<path d="M177.231 66.4316C177.231 66.4316 171.358 62.1207 175.158 57.12C178.786 52.1193 188.113 52.1193 190.013 56.9476C192.086 61.431 189.322 64.8797 193.468 65.5695C197.44 66.2592 208.322 69.8804 206.25 75.0535C204.004 80.2266 197.613 80.5715 200.377 87.469C202.968 94.3665 216.441 95.5736 209.531 105.23C202.622 114.714 186.558 127.819 178.267 111.438C170.322 95.0563 187.94 98.3326 178.44 87.8139C168.94 77.2952 176.886 76.9503 179.477 72.9843C181.895 68.5009 177.231 66.4316 177.231 66.4316Z" fill="#ED3B4E"/>
<path d="M188.113 72.4683C188.113 72.4683 189.149 91.4364 195.713 107.128C202.277 122.82 206.422 124.889 206.422 124.889" stroke="white" stroke-width="1.67092" stroke-miterlimit="10" stroke-linecap="round" stroke-linejoin="round"/>
<path d="M518.329 122.455C522.539 112.294 519.948 102.132 512.985 93.7454C505.86 85.5197 493.877 81.6488 483.351 84.2294C481.57 73.7457 473.959 64.391 464.243 60.0362C454.527 55.5201 442.544 56.3266 433.476 62.1329C424.408 67.9393 418.254 77.9392 417.606 88.5842C410.319 89.8745 403.842 94.3906 400.118 100.681C396.393 106.971 396.069 115.197 398.66 121.81L518.329 122.455Z" fill="#EE384E"/>
<path d="M468.453 96.8123C468.291 96.8123 468.453 94.7156 467.158 91.9737C466.51 90.5221 465.539 88.9092 464.081 87.4576C462.624 86.006 460.843 84.877 458.575 84.2318C456.308 83.5867 454.041 83.4254 452.098 83.748C449.993 84.2318 448.374 85.0383 447.24 85.8447C444.649 87.4576 443.516 89.2318 443.354 89.0705C443.354 89.0705 443.516 88.5866 444.001 87.7802C444.487 86.9737 445.459 86.1673 446.592 85.1996C447.888 84.2318 449.669 83.4254 451.936 82.7802C454.041 82.2964 456.47 82.2964 458.899 83.2641C461.328 84.0705 463.433 85.3608 464.729 86.9737C466.186 88.5866 467.158 90.1995 467.806 91.8124C468.453 93.4252 468.453 94.7156 468.615 95.522C468.453 96.3284 468.453 96.8123 468.453 96.8123Z" fill="white"/>
<path d="M461.976 92.1337C462.138 91.9724 465.215 93.9078 468.615 96.6497C468.615 96.6497 468.777 96.6497 468.777 96.811L467.968 96.9723C469.425 92.9401 470.883 89.7144 471.044 89.7144C471.206 89.7144 470.397 93.1014 468.939 97.1336L468.777 97.94L468.13 97.4562C468.13 97.4562 467.968 97.4562 467.968 97.2949C464.405 94.7143 461.814 92.295 461.976 92.1337Z" fill="white"/>
<path d="M442.706 94.5522C442.868 94.5522 442.544 96.649 443.354 99.3909C443.84 100.842 444.649 102.455 445.621 104.068C446.916 105.681 448.536 107.133 450.479 108.1C450.965 108.262 451.45 108.584 452.098 108.746C452.584 108.907 453.07 109.229 453.718 109.229C454.689 109.391 455.823 109.713 456.794 109.713C458.899 109.713 460.519 109.229 461.814 108.746C463.272 108.1 464.243 107.455 464.891 107.133C465.701 106.649 465.863 106.326 466.186 106.326C466.186 106.326 466.024 106.81 465.377 107.294C464.729 107.939 463.757 108.746 462.3 109.391C460.843 110.197 459.061 110.681 456.956 110.681C455.985 110.681 454.689 110.681 453.718 110.52C453.07 110.52 452.422 110.036 452.098 110.036C451.45 109.875 450.803 109.552 450.479 109.229C448.212 108.262 446.431 106.649 445.135 104.713C443.84 103.101 443.03 101.326 442.868 99.7135C442.706 98.907 442.706 98.2619 442.706 97.6167C442.706 96.9716 442.706 96.3264 442.706 96.0038C442.544 95.1974 442.544 94.5522 442.706 94.5522Z" fill="white"/>
<path d="M448.698 100.198C448.536 100.36 445.621 98.1015 442.544 94.8757C442.544 94.8757 442.544 94.8757 442.382 94.7145L443.192 94.5532C441.087 98.4241 439.467 101.489 439.144 101.489C438.982 101.327 440.115 98.2628 442.22 94.2306L442.706 93.5854L443.354 94.2306C443.354 94.2306 443.354 94.2306 443.516 94.3919C446.431 97.4564 448.86 100.037 448.698 100.198Z" fill="white"/>
<path d="M505.374 272.614C505.374 272.614 427.646 272.776 332.106 272.776C236.565 272.776 158.837 272.776 158.837 272.614C158.837 272.614 236.565 272.453 332.106 272.453C427.808 272.614 505.374 272.614 505.374 272.614Z" fill="#263238"/>
<path d="M380.368 96.0029H179.571C176.17 96.0029 173.255 98.9061 173.255 102.293V243.42C173.255 246.807 176.17 249.711 179.571 249.711H256.651C256.651 249.711 261.509 264.872 246.287 272.775H318.348C318.348 272.775 301.183 266.968 305.555 249.711H380.53C383.931 249.711 386.845 246.807 386.845 243.42V102.293C386.683 98.7448 383.769 96.0029 380.368 96.0029Z" fill="#0064B7"/>
<path d="M282.56 234.873C285.475 238.744 280.941 242.937 277.054 240.357C276.893 240.357 276.893 240.195 276.569 239.873C273.654 236.002 278.188 231.808 282.074 234.389C282.398 234.711 282.56 234.711 282.56 234.873Z" fill="#E8F7FF"/>
<path d="M383.283 223.905H176.98V106.487C176.98 101.971 180.38 98.584 184.914 98.584H375.672C380.206 98.584 383.607 101.971 383.607 106.487L383.283 223.905Z" fill="white"/>
<path d="M212.43 114.875H191.813C191.102 114.875 190.525 115.452 190.525 116.164C190.525 116.875 191.102 117.452 191.813 117.452H212.43C213.141 117.452 213.718 116.875 213.718 116.164C213.718 115.452 213.141 114.875 212.43 114.875Z" fill="#E0E0E0"/>
<path d="M235.48 133.196H221.449C220.738 133.196 220.161 133.773 220.161 134.485C220.161 135.196 220.738 135.773 221.449 135.773H235.48C236.191 135.773 236.768 135.196 236.768 134.485C236.768 133.773 236.191 133.196 235.48 133.196Z" fill="#E0E0E0"/>
<path d="M249.367 133.196H240.777C240.065 133.196 239.488 133.773 239.488 134.485C239.488 135.196 240.065 135.773 240.777 135.773H249.367C250.079 135.773 250.655 135.196 250.655 134.485C250.655 133.773 250.079 133.196 249.367 133.196Z" fill="#1487E3"/>
<path d="M272.131 207.203H263.54C262.829 207.203 262.252 207.78 262.252 208.491C262.252 209.203 262.829 209.78 263.54 209.78H272.131C272.842 209.78 273.419 209.203 273.419 208.491C273.419 207.78 272.842 207.203 272.131 207.203Z" fill="#1487E3"/>
<path d="M200.833 179.578H192.243C191.531 179.578 190.954 180.154 190.954 180.866C190.954 181.577 191.531 182.154 192.243 182.154H200.833C201.545 182.154 202.121 181.577 202.121 180.866C202.121 180.154 201.545 179.578 200.833 179.578Z" fill="#1487E3"/>
<path d="M278.001 133.196H253.948C253.237 133.196 252.66 133.773 252.66 134.485C252.66 135.196 253.237 135.773 253.948 135.773H278.001C278.712 135.773 279.289 135.196 279.289 134.485C279.289 133.773 278.712 133.196 278.001 133.196Z" fill="#E0E0E0"/>
<path d="M207.132 170.416H192.099C191.467 170.416 190.954 170.929 190.954 171.561C190.954 172.194 191.467 172.706 192.099 172.706H207.132C207.765 172.706 208.278 172.194 208.278 171.561C208.278 170.929 207.765 170.416 207.132 170.416Z" fill="#E0E0E0"/>
<path d="M253.089 189.023H238.343C237.631 189.023 237.054 189.6 237.054 190.312C237.054 191.023 237.631 191.6 238.343 191.6H253.089C253.801 191.6 254.378 191.023 254.378 190.312C254.378 189.6 253.801 189.023 253.089 189.023Z" fill="#E0E0E0"/>
<path d="M317.372 207.203H302.625C301.914 207.203 301.337 207.78 301.337 208.491C301.337 209.203 301.914 209.78 302.625 209.78H317.372C318.084 209.78 318.66 209.203 318.66 208.491C318.66 207.78 318.084 207.203 317.372 207.203Z" fill="#E0E0E0"/>
<path d="M224.313 189.023H216.295C215.584 189.023 215.007 189.6 215.007 190.312C215.007 191.023 215.584 191.6 216.295 191.6H224.313C225.024 191.6 225.601 191.023 225.601 190.312C225.601 189.6 225.024 189.023 224.313 189.023Z" fill="#E0E0E0"/>
<path d="M210.425 189.023H192.243C191.531 189.023 190.954 189.6 190.954 190.312C190.954 191.023 191.531 191.6 192.243 191.6H210.425C211.137 191.6 211.714 191.023 211.714 190.312C211.714 189.6 211.137 189.023 210.425 189.023Z" fill="#1487E3"/>
<path d="M201.263 197.901H192.243C191.531 197.901 190.954 198.478 190.954 199.19C190.954 199.901 191.531 200.478 192.243 200.478H201.263C201.974 200.478 202.551 199.901 202.551 199.19C202.551 198.478 201.974 197.901 201.263 197.901Z" fill="#E0E0E0"/>
<path d="M233.476 114.875H219.588C218.876 114.875 218.299 115.452 218.299 116.164C218.299 116.875 218.876 117.452 219.588 117.452H233.476C234.187 117.452 234.764 116.875 234.764 116.164C234.764 115.452 234.187 114.875 233.476 114.875Z" fill="#78C2FF"/>
<path d="M233.476 142.504H219.588C218.876 142.504 218.299 143.081 218.299 143.792C218.299 144.504 218.876 145.081 219.588 145.081H233.476C234.187 145.081 234.764 144.504 234.764 143.792C234.764 143.081 234.187 142.504 233.476 142.504Z" fill="#1487E3"/>
<path d="M215.722 151.804H211.427C210.715 151.804 210.139 152.381 210.139 153.092C210.139 153.804 210.715 154.38 211.427 154.38H215.722C216.434 154.38 217.011 153.804 217.011 153.092C217.011 152.381 216.434 151.804 215.722 151.804Z" fill="#E0E0E0"/>
<path d="M217.584 160.969H204.412C203.701 160.969 203.124 161.546 203.124 162.258C203.124 162.969 203.701 163.546 204.412 163.546H217.584C218.296 163.546 218.872 162.969 218.872 162.258C218.872 161.546 218.296 160.969 217.584 160.969Z" fill="#78C2FF"/>
<path d="M241.636 160.969H222.451C221.74 160.969 221.163 161.546 221.163 162.258C221.163 162.969 221.74 163.546 222.451 163.546H241.636C242.348 163.546 242.924 162.969 242.924 162.258C242.924 161.546 242.348 160.969 241.636 160.969Z" fill="#1487E3"/>
<path d="M310.5 197.901H291.315C290.604 197.901 290.027 198.478 290.027 199.19C290.027 199.901 290.604 200.478 291.315 200.478H310.5C311.212 200.478 311.788 199.901 311.788 199.19C311.788 198.478 311.212 197.901 310.5 197.901Z" fill="#1487E3"/>
<path d="M206.13 151.804H192.243C191.531 151.804 190.954 152.381 190.954 153.092C190.954 153.804 191.531 154.38 192.243 154.38H206.13C206.842 154.38 207.419 153.804 207.419 153.092C207.419 152.381 206.842 151.804 206.13 151.804Z" fill="#1487E3"/>
<path d="M199.545 160.969H192.243C191.531 160.969 190.954 161.546 190.954 162.258C190.954 162.969 191.531 163.546 192.243 163.546H199.545C200.256 163.546 200.833 162.969 200.833 162.258C200.833 161.546 200.256 160.969 199.545 160.969Z" fill="#1487E3"/>
<path d="M228.178 151.804H221.592C220.881 151.804 220.304 152.381 220.304 153.092C220.304 153.804 220.881 154.38 221.592 154.38H228.178C228.89 154.38 229.467 153.804 229.467 153.092C229.467 152.381 228.89 151.804 228.178 151.804Z" fill="#DE051F"/>
<path d="M199.115 207.203H192.529C191.817 207.203 191.241 207.78 191.241 208.491C191.241 209.203 191.817 209.78 192.529 209.78H199.115C199.827 209.78 200.403 209.203 200.403 208.491C200.403 207.78 199.827 207.203 199.115 207.203Z" fill="#DE051F"/>
<path d="M206.13 133.196H192.243C191.531 133.196 190.954 133.773 190.954 134.485C190.954 135.196 191.531 135.773 192.243 135.773H206.13C206.842 135.773 207.419 135.196 207.419 134.485C207.419 133.773 206.842 133.196 206.13 133.196Z" fill="#78C2FF"/>
<path d="M220.59 179.578H206.703C205.991 179.578 205.414 180.154 205.414 180.866C205.414 181.577 205.991 182.154 206.703 182.154H220.59C221.302 182.154 221.879 181.577 221.879 180.866C221.879 180.154 221.302 179.578 220.59 179.578Z" fill="#78C2FF"/>
<path d="M220.734 197.901H206.846C206.134 197.901 205.557 198.478 205.557 199.19C205.557 199.901 206.134 200.478 206.846 200.478H220.734C221.445 200.478 222.022 199.901 222.022 199.19C222.022 198.478 221.445 197.901 220.734 197.901Z" fill="#78C2FF"/>
<path d="M250.083 197.901H236.195C235.484 197.901 234.907 198.478 234.907 199.19C234.907 199.901 235.484 200.478 236.195 200.478H250.083C250.795 200.478 251.372 199.901 251.372 199.19C251.372 198.478 250.795 197.901 250.083 197.901Z" fill="#78C2FF"/>
<path d="M213.002 142.504H192.243C191.531 142.504 190.954 143.081 190.954 143.792C190.954 144.504 191.531 145.081 192.243 145.081H213.002C213.714 145.081 214.291 144.504 214.291 143.792C214.291 143.081 213.714 142.504 213.002 142.504Z" fill="#78C2FF"/>
<path d="M315.654 114.875H301.766C301.055 114.875 300.478 115.452 300.478 116.164C300.478 116.875 301.055 117.452 301.766 117.452H315.654C316.366 117.452 316.942 116.875 316.942 116.164C316.942 115.452 316.366 114.875 315.654 114.875Z" fill="#78C2FF"/>
<path d="M257.098 207.203H243.211C242.499 207.203 241.922 207.78 241.922 208.491C241.922 209.203 242.499 209.78 243.211 209.78H257.098C257.81 209.78 258.387 209.203 258.387 208.491C258.387 207.78 257.81 207.203 257.098 207.203Z" fill="#78C2FF"/>
<path d="M331.689 114.875H323.385C322.673 114.875 322.096 115.452 322.096 116.164C322.096 116.875 322.673 117.452 323.385 117.452H331.689C332.4 117.452 332.977 116.875 332.977 116.164C332.977 115.452 332.4 114.875 331.689 114.875Z" fill="#78C2FF"/>
<path d="M368.913 124.038H360.609C359.897 124.038 359.32 124.614 359.32 125.326C359.32 126.037 359.897 126.614 360.609 126.614H368.913C369.624 126.614 370.201 126.037 370.201 125.326C370.201 124.614 369.624 124.038 368.913 124.038Z" fill="#78C2FF"/>
<path d="M258.673 114.875H240.491C239.779 114.875 239.202 115.452 239.202 116.164C239.202 116.875 239.779 117.452 240.491 117.452H258.673C259.385 117.452 259.962 116.875 259.962 116.164C259.962 115.452 259.385 114.875 258.673 114.875Z" fill="#1487E3"/>
<path d="M341.568 207.203H323.385C322.673 207.203 322.096 207.78 322.096 208.491C322.096 209.203 322.673 209.78 323.385 209.78H341.568C342.279 209.78 342.856 209.203 342.856 208.491C342.856 207.78 342.279 207.203 341.568 207.203Z" fill="#1487E3"/>
<path d="M223.311 207.203H205.128C204.416 207.203 203.839 207.78 203.839 208.491C203.839 209.203 204.416 209.78 205.128 209.78H223.311C224.022 209.78 224.599 209.203 224.599 208.491C224.599 207.78 224.022 207.203 223.311 207.203Z" fill="#1487E3"/>
<path d="M339.993 124.038H321.81C321.099 124.038 320.522 124.614 320.522 125.326C320.522 126.037 321.099 126.614 321.81 126.614H339.993C340.704 126.614 341.281 126.037 341.281 125.326C341.281 124.614 340.704 124.038 339.993 124.038Z" fill="#1487E3"/>
<path d="M314.366 133.196H296.183C295.471 133.196 294.894 133.773 294.894 134.485C294.894 135.196 295.471 135.773 296.183 135.773H314.366C315.077 135.773 315.654 135.196 315.654 134.485C315.654 133.773 315.077 133.196 314.366 133.196Z" fill="#1487E3"/>
<path d="M296.183 207.203H278C277.289 207.203 276.712 207.78 276.712 208.491C276.712 209.203 277.289 209.78 278 209.78H296.183C296.895 209.78 297.471 209.203 297.471 208.491C297.471 207.78 296.895 207.203 296.183 207.203Z" fill="#1487E3"/>
<path d="M293.033 189.023H274.851C274.139 189.023 273.562 189.6 273.562 190.312C273.562 191.023 274.139 191.6 274.851 191.6H293.033C293.745 191.6 294.322 191.023 294.322 190.312C294.322 189.6 293.745 189.023 293.033 189.023Z" fill="#1487E3"/>
<path d="M231.757 189.023H229.896C229.184 189.023 228.608 189.6 228.608 190.312C228.608 191.023 229.184 191.6 229.896 191.6H231.757C232.469 191.6 233.046 191.023 233.046 190.312C233.046 189.6 232.469 189.023 231.757 189.023Z" fill="#DE051F"/>
<path d="M295.038 114.875H276.855C276.144 114.875 275.567 115.452 275.567 116.164C275.567 116.875 276.144 117.452 276.855 117.452H295.038C295.749 117.452 296.326 116.875 296.326 116.164C296.326 115.452 295.749 114.875 295.038 114.875Z" fill="#DE051F"/>
<path d="M252.947 179.724H243.211C242.499 179.724 241.922 180.301 241.922 181.012C241.922 181.724 242.499 182.301 243.211 182.301H252.947C253.658 182.301 254.235 181.724 254.235 181.012C254.235 180.301 253.658 179.724 252.947 179.724Z" fill="#DE051F"/>
<path d="M270.27 114.875H265.259C264.547 114.875 263.97 115.452 263.97 116.164C263.97 116.875 264.547 117.452 265.259 117.452H270.27C270.981 117.452 271.558 116.875 271.558 116.164C271.558 115.452 270.981 114.875 270.27 114.875Z" fill="#E0E0E0"/>
<path d="M245.502 142.504H240.491C239.779 142.504 239.202 143.081 239.202 143.792C239.202 144.504 239.779 145.081 240.491 145.081H245.502C246.213 145.081 246.79 144.504 246.79 143.792C246.79 143.081 246.213 142.504 245.502 142.504Z" fill="#E0E0E0"/>
<path d="M352.735 124.038H347.724C347.012 124.038 346.435 124.614 346.435 125.326C346.435 126.037 347.012 126.614 347.724 126.614H352.735C353.446 126.614 354.023 126.037 354.023 125.326C354.023 124.614 353.446 124.038 352.735 124.038Z" fill="#E0E0E0"/>
<path d="M201.119 124.038H191.813C191.102 124.038 190.525 124.614 190.525 125.326C190.525 126.037 191.102 126.614 191.813 126.614H201.119C201.831 126.614 202.408 126.037 202.408 125.326C202.408 124.614 201.831 124.038 201.119 124.038Z" fill="#1487E3"/>
<path d="M230.755 170.416H223.883C223.171 170.416 222.594 170.993 222.594 171.704C222.594 172.416 223.171 172.993 223.883 172.993H230.755C231.467 172.993 232.043 172.416 232.043 171.704C232.043 170.993 231.467 170.416 230.755 170.416Z" fill="#1487E3"/>
<path d="M208.135 124.038H206.846C206.134 124.038 205.557 124.614 205.557 125.326C205.557 126.037 206.134 126.614 206.846 126.614H208.135C208.846 126.614 209.423 126.037 209.423 125.326C209.423 124.614 208.846 124.038 208.135 124.038Z" fill="#1487E3"/>
<path d="M315.654 124.038H286.161C285.45 124.038 284.873 124.614 284.873 125.326C284.873 126.037 285.45 126.614 286.161 126.614H315.654C316.366 126.614 316.943 126.037 316.943 125.326C316.943 124.614 316.366 124.038 315.654 124.038Z" fill="#E0E0E0"/>
<path d="M285.016 197.901H255.523C254.812 197.901 254.235 198.478 254.235 199.19C254.235 199.901 254.812 200.478 255.523 200.478H285.016C285.728 200.478 286.304 199.901 286.304 199.19C286.304 198.478 285.728 197.901 285.016 197.901Z" fill="#E0E0E0"/>
<path d="M214.864 124.038H213.431C212.72 124.038 212.143 124.614 212.143 125.326C212.143 126.037 212.72 126.614 213.431 126.614H214.864C215.575 126.614 216.152 126.037 216.152 125.326C216.152 124.614 215.575 124.038 214.864 124.038Z" fill="#DE051F"/>
<path d="M280.721 124.038H272.846C272.135 124.038 271.558 124.614 271.558 125.326C271.558 126.037 272.135 126.614 272.846 126.614H280.721C281.432 126.614 282.009 126.037 282.009 125.326C282.009 124.614 281.432 124.038 280.721 124.038Z" fill="#1487E3"/>
<path d="M291.029 133.196H283.154C282.443 133.196 281.866 133.773 281.866 134.485C281.866 135.196 282.443 135.773 283.154 135.773H291.029C291.741 135.773 292.317 135.196 292.317 134.485C292.317 133.773 291.741 133.196 291.029 133.196Z" fill="#DE051F"/>
<path d="M267.693 189.023H259.818C259.107 189.023 258.53 189.6 258.53 190.312C258.53 191.023 259.107 191.6 259.818 191.6H267.693C268.404 191.6 268.981 191.023 268.981 190.312C268.981 189.6 268.404 189.023 267.693 189.023Z" fill="#DE051F"/>
<path d="M237.484 207.203H229.609C228.898 207.203 228.321 207.78 228.321 208.491C228.321 209.203 228.898 209.78 229.609 209.78H237.484C238.196 209.78 238.772 209.203 238.772 208.491C238.772 207.78 238.196 207.203 237.484 207.203Z" fill="#DE051F"/>
<path d="M267.406 124.038H247.792C247.08 124.038 246.504 124.614 246.504 125.326C246.504 126.037 247.08 126.614 247.792 126.614H267.406C268.118 126.614 268.695 126.037 268.695 125.326C268.695 124.614 268.118 124.038 267.406 124.038Z" fill="#1487E3"/>
<path d="M319.233 189.023H299.619C298.907 189.023 298.33 189.6 298.33 190.312C298.33 191.023 298.907 191.6 299.619 191.6H319.233C319.945 191.6 320.522 191.023 320.522 190.312C320.522 189.6 319.945 189.023 319.233 189.023Z" fill="#1487E3"/>
<path d="M237.771 179.724H227.176C226.464 179.724 225.887 180.301 225.887 181.012C225.887 181.724 226.464 182.301 227.176 182.301H237.771C238.482 182.301 239.059 181.724 239.059 181.012C239.059 180.301 238.482 179.724 237.771 179.724Z" fill="#1487E3"/>
<path d="M230.183 197.901H226.317C225.605 197.901 225.028 198.478 225.028 199.19C225.028 199.901 225.605 200.478 226.317 200.478H230.183C230.894 200.478 231.471 199.901 231.471 199.19C231.471 198.478 230.894 197.901 230.183 197.901Z" fill="#1487E3"/>
<path d="M242.066 124.038H237.054C236.343 124.038 235.766 124.614 235.766 125.326C235.766 126.037 236.343 126.614 237.054 126.614H242.066C242.777 126.614 243.354 126.037 243.354 125.326C243.354 124.614 242.777 124.038 242.066 124.038Z" fill="#78C2FF"/>
<path d="M320.951 197.901H315.94C315.228 197.901 314.652 198.478 314.652 199.19C314.652 199.901 315.228 200.478 315.94 200.478H320.951C321.663 200.478 322.24 199.901 322.24 199.19C322.24 198.478 321.663 197.901 320.951 197.901Z" fill="#DE051F"/>
<path d="M216.295 133.196H211.284C210.572 133.196 209.996 133.773 209.996 134.485C209.996 135.196 210.572 135.773 211.284 135.773H216.295C217.007 135.773 217.583 135.196 217.583 134.485C217.583 133.773 217.007 133.196 216.295 133.196Z" fill="#DE051F"/>
<path d="M217.87 170.416H212.859C212.147 170.416 211.571 170.993 211.571 171.704C211.571 172.416 212.147 172.993 212.859 172.993H217.87C218.582 172.993 219.159 172.416 219.159 171.704C219.159 170.993 218.582 170.416 217.87 170.416Z" fill="#DE051F"/>
<path d="M231.471 124.038H220.733C220.022 124.038 219.445 124.614 219.445 125.326C219.445 126.037 220.022 126.614 220.733 126.614H231.471C232.183 126.614 232.759 126.037 232.759 125.326C232.759 124.614 232.183 124.038 231.471 124.038Z" fill="#1487E3"/>
<path d="M499.545 211.325H424.408V231.486H499.545V211.325Z" fill="#25409C"/>
<path d="M430.399 213.905H426.351V229.389H430.399V213.905Z" fill="#3864B2"/>
<path d="M435.095 217.131C435.095 217.938 434.447 218.421 433.8 218.421C432.99 218.421 432.504 217.776 432.504 217.131C432.504 216.325 433.152 215.841 433.8 215.841C434.609 215.841 435.095 216.325 435.095 217.131Z" fill="white"/>
<path d="M435.095 222.615C435.095 223.422 434.447 223.906 433.8 223.906C432.99 223.906 432.504 223.261 432.504 222.615C432.504 221.809 433.152 221.325 433.8 221.325C434.609 221.164 435.095 221.809 435.095 222.615Z" fill="white"/>
<path d="M444.163 215.841H440.115V227.776H444.163V215.841Z" fill="#3864B2"/>
<path d="M449.831 215.841H445.783V227.776H449.831V215.841Z" fill="#3864B2"/>
<path d="M455.499 215.841H451.45V227.776H455.499V215.841Z" fill="#3864B2"/>
<path d="M461.328 215.841H457.28V227.776H461.328V215.841Z" fill="#3864B2"/>
<path d="M466.996 215.841H462.948V227.776H466.996V215.841Z" fill="#3864B2"/>
<path d="M472.988 215.841H468.939V227.776H472.988V215.841Z" fill="#3864B2"/>
<path d="M478.655 215.841H474.607V227.776H478.655V215.841Z" fill="#3864B2"/>
<path d="M484.323 215.841H480.275V227.776H484.323V215.841Z" fill="#3864B2"/>
<path d="M490.152 215.841H486.104V227.776H490.152V215.841Z" fill="#3864B2"/>
<path d="M495.82 215.841H491.772V227.776H495.82V215.841Z" fill="#3864B2"/>
<path d="M512.661 211.326H499.221V231.487H512.661V211.326Z" fill="#3864B2"/>
<path d="M499.545 233.745H424.408V253.906H499.545V233.745Z" fill="#25409C"/>
<path d="M430.399 236.325H426.351V251.809H430.399V236.325Z" fill="#3864B2"/>
<path d="M435.095 239.552C435.095 240.358 434.448 240.842 433.8 240.842C432.99 240.842 432.504 240.197 432.504 239.552C432.504 238.745 433.152 238.261 433.8 238.261C434.61 238.423 435.095 238.906 435.095 239.552Z" fill="white"/>
<path d="M435.095 245.035C435.095 245.842 434.448 246.326 433.8 246.326C432.99 246.326 432.505 245.681 432.505 245.035C432.505 244.229 433.152 243.745 433.8 243.745C434.61 243.745 435.095 244.39 435.095 245.035Z" fill="white"/>
<path d="M444.164 238.422H440.115V250.357H444.164V238.422Z" fill="#3864B2"/>
<path d="M449.831 238.422H445.783V250.357H449.831V238.422Z" fill="#3864B2"/>
<path d="M455.499 238.422H451.451V250.357H455.499V238.422Z" fill="#3864B2"/>
<path d="M461.329 238.422H457.28V250.357H461.329V238.422Z" fill="#3864B2"/>
<path d="M466.996 238.422H462.948V250.357H466.996V238.422Z" fill="#3864B2"/>
<path d="M472.988 238.422H468.939V250.357H472.988V238.422Z" fill="#3864B2"/>
<path d="M478.655 238.422H474.607V250.357H478.655V238.422Z" fill="#3864B2"/>
<path d="M484.323 238.422H480.275V250.357H484.323V238.422Z" fill="#3864B2"/>
<path d="M490.153 238.422H486.104V250.357H490.153V238.422Z" fill="#3864B2"/>
<path d="M495.82 238.422H491.772V250.357H495.82V238.422Z" fill="#3864B2"/>
<path d="M512.661 233.744H499.221V253.905H512.661V233.744Z" fill="#3864B2"/>
<path d="M499.545 255.519H424.408V275.68H499.545V255.519Z" fill="#25409C"/>
<path d="M430.399 258.1H426.351V273.583H430.399V258.1Z" fill="#3864B2"/>
<path d="M435.095 261.325C435.095 262.132 434.447 262.616 433.8 262.616C432.99 262.616 432.504 261.971 432.504 261.325C432.504 260.519 433.152 260.035 433.8 260.035C434.609 260.196 435.095 260.68 435.095 261.325Z" fill="white"/>
<path d="M435.095 266.809C435.095 267.616 434.447 268.1 433.8 268.1C432.99 268.1 432.504 267.455 432.504 266.809C432.504 266.003 433.152 265.519 433.8 265.519C434.609 265.519 435.095 266.164 435.095 266.809Z" fill="white"/>
<path d="M444.163 260.196H440.115V272.132H444.163V260.196Z" fill="#3864B2"/>
<path d="M449.831 260.196H445.783V272.132H449.831V260.196Z" fill="#3864B2"/>
<path d="M455.499 260.196H451.451V272.132H455.499V260.196Z" fill="#3864B2"/>
<path d="M461.328 260.196H457.28V272.132H461.328V260.196Z" fill="#3864B2"/>
<path d="M466.996 260.196H462.948V272.132H466.996V260.196Z" fill="#3864B2"/>
<path d="M472.988 260.196H468.939V272.132H472.988V260.196Z" fill="#3864B2"/>
<path d="M478.655 260.196H474.607V272.132H478.655V260.196Z" fill="#3864B2"/>
<path d="M484.323 260.196H480.275V272.132H484.323V260.196Z" fill="#3864B2"/>
<path d="M490.153 260.196H486.104V272.132H490.153V260.196Z" fill="#3864B2"/>
<path d="M495.82 260.196H491.772V272.132H495.82V260.196Z" fill="#3864B2"/>
<path d="M512.661 255.519H499.221V275.68H512.661V255.519Z" fill="#3864B2"/>
<path d="M517.681 221.163H512.661V224.873H517.681V221.163Z" fill="#263238"/>
<path d="M451.127 126.004V122.133C451.127 121.649 451.289 121.488 451.774 121.488H455.499C455.985 121.488 456.147 121.649 456.147 122.133V126.004C456.147 127.294 455.175 128.423 453.718 128.423C452.26 128.262 451.127 127.455 451.127 126.004Z" fill="#263238"/>
<path d="M517.681 242.777H512.661V246.487H517.681V242.777Z" fill="#263238"/>
<path d="M517.681 263.422H512.661V267.131H517.681V263.422Z" fill="#263238"/>
<path d="M423.922 263.422H418.902V267.131H423.922V263.422Z" fill="#263238"/>
<path d="M529.664 233.259C529.664 233.259 529.664 233.421 529.664 234.066C529.664 234.227 529.664 234.55 529.664 234.872C529.664 235.356 529.664 235.679 529.502 236.162C529.34 236.646 529.34 236.969 529.016 237.453C529.016 237.614 528.854 237.937 528.854 238.259C528.854 238.421 528.693 238.743 528.369 239.066C527.883 240.033 527.073 241.162 526.264 241.969C525.454 242.775 524.158 243.582 523.349 244.066C523.187 244.066 522.863 244.227 522.539 244.549C522.377 244.549 522.053 244.711 521.729 244.711C521.244 244.872 520.92 244.872 520.434 245.195C519.948 245.195 519.624 245.356 519.138 245.356C518.653 245.356 518.491 245.356 518.329 245.356C517.843 245.356 517.519 245.356 517.519 245.356C517.519 245.356 518.491 245.356 520.11 244.872C520.596 244.872 520.92 244.711 521.406 244.388C521.568 244.388 521.891 244.227 522.215 244.227C522.377 244.227 522.701 244.066 523.025 243.743C523.997 243.259 525.13 242.453 525.94 241.646C526.749 240.84 527.559 239.872 528.045 238.743C528.045 238.582 528.207 238.259 528.531 237.937C528.855 237.614 528.693 237.453 528.693 237.13C528.855 236.646 529.178 236.324 529.178 235.84C529.34 234.388 529.34 233.259 529.664 233.259Z" fill="#263238"/>
<path d="M529.664 211.002C529.664 211.002 529.664 211.164 529.664 211.809C529.664 211.97 529.664 212.293 529.664 212.615C529.664 213.099 529.664 213.422 529.502 213.906C529.34 214.389 529.34 214.712 529.017 215.196C529.017 215.357 528.855 215.68 528.855 216.002C528.855 216.164 528.693 216.486 528.369 216.809C527.883 217.777 527.073 218.906 526.264 219.712C525.454 220.518 524.159 221.325 523.349 221.809C523.187 221.809 522.863 221.97 522.539 222.293C522.377 222.293 522.053 222.454 521.73 222.454C521.244 222.615 520.92 222.615 520.434 222.938C519.948 222.938 519.624 223.099 519.139 223.099C518.653 223.099 518.491 223.099 518.329 223.099C517.843 223.099 517.519 223.099 517.519 223.099C517.519 223.099 518.491 223.099 520.11 222.615C520.596 222.615 520.92 222.454 521.406 222.131C521.568 222.131 521.892 221.97 522.215 221.97C522.377 221.97 522.701 221.809 523.025 221.486C523.997 221.002 525.13 220.196 525.94 219.389C526.75 218.583 527.559 217.615 528.045 216.486C528.045 216.325 528.207 216.002 528.531 215.68C528.531 215.518 528.693 215.196 528.693 214.873C528.855 214.389 529.179 214.067 529.179 213.583C529.34 211.97 529.34 211.002 529.664 211.002Z" fill="#263238"/>
<path d="M421.331 265.194C420.845 265.194 420.683 265.194 420.359 265.194C419.55 265.194 418.74 265.194 417.283 265.194C414.692 265.194 410.805 265.194 405.947 265.194C396.393 265.194 383.277 265.194 368.865 265.194C365.14 265.194 361.74 265.194 358.339 265.194C356.72 265.194 354.938 265.194 353.319 265.194C351.7 265.194 350.08 265.194 348.461 265.194C346.842 265.033 345.384 264.71 343.927 264.226C343.441 264.226 343.279 263.743 342.955 263.743C342.469 263.581 342.308 263.259 341.984 263.259C341.498 263.097 341.336 262.775 341.174 262.614C340.688 262.452 340.526 262.13 340.364 261.968C339.879 261.807 339.717 261.485 339.555 261.323C339.393 261.162 339.069 260.839 338.745 260.517C338.259 260.033 337.935 259.549 337.45 258.904C336.64 257.936 335.992 256.646 335.668 255.678C334.697 253.42 334.373 251.162 334.373 249.388C334.373 247.614 334.373 246.001 334.373 244.549C334.373 243.259 334.373 242.13 334.373 241.485C334.373 241.001 334.373 240.84 334.373 240.678C334.373 240.84 334.373 241.162 334.373 241.485C334.373 242.291 334.373 243.098 334.373 244.549C334.373 245.84 334.373 247.452 334.373 249.388C334.373 251.162 334.859 253.42 335.668 255.517C336.154 256.485 336.64 257.775 337.45 258.743C337.935 259.388 338.259 259.71 338.745 260.194C338.907 260.356 339.231 260.678 339.555 261.001C339.717 261.162 340.04 261.485 340.364 261.646C340.526 261.807 341.012 262.13 341.174 262.291C341.66 262.452 341.822 262.775 341.984 262.936C342.469 263.097 342.631 263.42 342.955 263.42C343.441 263.581 343.603 263.904 343.927 263.904C345.384 264.549 346.842 264.71 348.461 264.872C350.08 264.872 351.7 264.872 353.319 264.872C354.938 264.872 356.558 264.872 358.339 264.872C361.74 264.872 365.302 264.872 368.865 264.872C383.439 264.872 396.393 264.872 405.947 264.872C410.643 264.872 414.53 264.872 417.283 264.872C418.578 264.872 419.712 264.872 420.359 264.872C420.845 264.872 421.007 264.872 421.169 264.872C421.331 265.194 421.331 265.194 421.331 265.194Z" fill="#263238"/>
<path d="M453.556 127.457C453.556 127.457 453.556 127.618 453.556 128.102C453.556 128.586 453.556 128.908 453.556 129.715C453.556 131.166 453.556 133.102 453.556 135.844C453.556 141.166 453.556 148.747 453.556 158.263C453.556 162.94 453.556 168.101 453.556 173.585C453.556 175.037 453.556 176.488 453.556 177.778C453.556 178.585 453.556 179.23 453.556 180.036C453.556 180.843 453.556 181.488 453.556 182.295C454.041 185.198 454.851 188.101 456.632 190.843C458.252 193.423 460.681 195.681 463.595 197.294C463.757 197.294 464.081 197.456 464.081 197.778L464.729 197.939L466.024 198.585L467.32 199.068C467.806 199.23 468.13 199.552 468.615 199.552L469.911 200.036C470.397 200.036 470.721 200.197 471.206 200.197C472.016 200.359 472.826 200.359 473.635 200.359C480.598 200.359 487.4 200.359 494.687 200.359C501.974 200.359 508.937 200.359 515.738 200.359C517.357 200.359 519.139 200.359 520.758 200.359C522.377 200.359 524.159 200.843 525.616 201.649C528.531 203.262 530.474 206.488 530.474 209.714C530.474 222.294 530.474 233.584 530.474 242.778C530.474 245.197 530.474 247.455 530.474 249.39C530.474 250.358 530.474 251.487 530.474 252.455C530.474 253.423 530.474 254.552 530.312 255.358C530.15 257.132 529.34 259.068 528.531 260.197C527.721 261.648 526.426 262.616 525.454 263.422C523.349 265.035 521.244 265.681 519.786 265.842C519.301 265.842 519.139 265.842 518.977 266.003C519.139 266.003 519.624 266.003 519.786 265.842C521.244 265.681 523.187 265.035 525.292 263.422C526.264 262.616 527.397 261.648 528.207 260.197C529.017 258.745 529.826 257.132 529.988 255.358C530.15 254.552 530.15 253.584 530.15 252.455C530.15 251.487 530.15 250.358 530.15 249.39C530.15 247.294 530.15 244.874 530.15 242.778C530.15 233.262 530.15 222.133 530.15 209.714C530.15 206.649 528.369 203.585 525.454 201.972C523.997 201.165 522.377 200.681 520.758 200.681C519.139 200.681 517.519 200.681 515.738 200.681C508.775 200.681 501.974 200.681 494.687 200.681C487.4 200.681 480.437 200.681 473.635 200.681C472.826 200.681 472.016 200.681 471.206 200.52C470.721 200.52 470.397 200.52 469.911 200.359L468.615 199.875C468.13 199.875 467.806 199.714 467.32 199.391L466.024 198.907L464.729 198.262L464.081 198.101C463.919 198.101 463.595 197.939 463.434 197.617C460.519 196.004 458.09 193.585 456.47 191.004C454.851 188.423 453.879 185.359 453.394 182.456C453.394 181.649 453.394 181.004 453.394 180.198C453.394 179.391 453.394 178.746 453.394 177.94C453.394 176.488 453.394 175.037 453.394 173.746C453.394 168.101 453.394 163.101 453.394 158.424C453.394 148.908 453.394 141.489 453.556 136.005C453.556 133.424 453.556 131.327 453.556 129.876C453.556 129.069 453.556 128.586 453.556 128.263C453.556 127.618 453.556 127.457 453.556 127.457Z" fill="#263238"/>
<path d="M165.231 293.487C165.231 293.487 140.267 294.957 151.139 296.41C162.012 297.879 176.976 297.879 182.267 297.281C187.54 296.7 169.34 293.778 165.231 293.487Z" fill="#023EA1"/>
<path d="M163.502 296.784L163.142 366.322C163.142 366.322 152.339 366.596 150.421 369.125C148.503 371.654 150.729 373.244 161.841 372.97C172.953 372.697 179.631 372.731 179.631 372.731C179.631 372.731 185.041 372.116 178.689 368.92C172.337 365.724 167.252 366.647 167.252 366.647L166.892 296.87L163.502 296.784Z" fill="#023EA1"/>
<path d="M170.247 188.262C170.247 188.262 167.216 179.837 174.665 177.598C174.665 177.598 176.822 164.901 186.958 170.643C187.728 171.07 188.602 171.138 189.389 170.745C192.077 169.412 198.036 162.97 202.162 172.847C202.488 173.616 203.275 173.924 203.994 173.958C207.042 174.078 214.387 175.274 208.36 184.349C208.36 184.349 205.569 187.716 200.912 187.989C200.912 187.989 179.287 202.857 173.004 200.345C166.754 197.798 166.994 191.065 170.247 188.262Z" fill="#2C2477"/>
<path d="M190.881 183.974C191.189 183.872 202.695 180.18 200.88 190.417V190.434C200.897 190.708 201.222 199.885 193.86 205.166C193.757 205.234 193.655 205.32 193.569 205.422C193.107 205.918 191.103 207.678 187.867 204.738C184.871 202.021 183.878 203.901 183.553 204.687C183.467 204.892 183.347 205.114 183.244 205.302C182.782 206.14 181.361 208.139 182.303 209.507C183.296 210.942 184.546 212.719 184.871 213.198C184.905 213.249 184.871 213.318 184.82 213.318C183.142 213.215 166.311 212.121 166.722 208.396C166.722 208.396 167.732 204.277 167.732 204.26L168.04 204.192C168.092 204.175 168.143 204.157 168.194 204.123L173.451 200.261C173.468 200.261 173.468 200.244 173.485 200.244C173.827 200.278 178.878 200.722 180.676 198.552C180.676 198.552 182.919 195.989 183.964 192.673C184.272 191.682 184.118 190.571 183.536 189.785C182.662 188.623 181.738 186.504 183.929 185C183.929 185 185.642 183.735 187.2 185.632L187.405 185.888C187.559 186.076 187.782 186.111 187.97 185.974L190.881 183.974C190.864 183.974 190.864 183.974 190.881 183.974Z" fill="#FFBF9C"/>
<path d="M167.698 204.263C167.698 204.263 175.369 211.373 184.084 212.176C184.084 212.176 188.844 217.456 189.546 228.975C190.248 240.493 190.71 266.299 190.008 267.974C189.306 269.649 148.385 269.375 148.385 269.375C148.385 269.375 151.415 227.557 156.295 218.858C156.295 218.858 163.503 206.229 167.698 204.263Z" fill="#FCBE42"/>
<path d="M164.016 235.415C164.016 235.415 164.718 250.847 166.105 256.47C167.492 262.075 168.194 264.604 174.015 265.442C179.837 266.279 195.178 267.407 198.191 266.843C201.222 266.279 210.981 268.774 210.981 268.774C210.981 268.774 214.012 269.612 214.234 267.646C214.457 265.681 217.727 267.373 217.95 268.21C218.19 269.048 219.816 270.176 220.278 267.937C220.741 265.698 220.518 262.878 216.563 262.041C212.608 261.203 208.892 262.041 204.698 262.366C200.965 262.656 198.465 261.494 197.729 261.494L178.895 257.29C178.895 257.29 176.566 256.453 176.104 253.086C175.642 249.719 175.642 235.125 175.642 235.125L164.016 235.415Z" fill="#FFBF9C"/>
<path d="M162.149 237.092H176.994C177.165 226.154 176.12 215.764 170.282 215.747C170.282 215.764 162.149 213.918 162.149 237.092Z" fill="#F79F03"/>
<path d="M231.869 289.844C231.869 289.844 236.184 315.65 236.766 322.144C237.365 328.57 240.464 349.334 240.464 349.334L230.927 349.06L222.794 313.702L231.869 289.844Z" fill="#DE051F"/>
<path d="M148.589 266.655C148.418 267.817 147.391 285.18 149.086 289.572C150.627 293.588 154.668 294.904 161.876 295.468C167.971 295.947 199.561 294.323 209.149 293.776C210.451 293.708 211.392 295.229 210.981 296.699L196.77 347.096L205.143 351.591C205.143 351.591 224.439 316.232 227.47 307.807C230.5 299.382 234.678 284.804 234.438 281.42C234.438 281.42 235.14 274.96 227.932 274.123C220.861 273.303 198.328 268.962 197.489 268.791C197.472 268.791 197.455 268.791 197.438 268.791L190.041 267.954C190.024 267.954 190.007 267.954 189.99 267.954L148.589 266.655Z" fill="#EE384E"/>
<path d="M198.072 266.96C197.438 266.824 195.332 266.943 195.349 268.516C195.366 269.951 197.918 270.139 198.38 270.207C198.739 270.259 227.573 274.411 229.439 274.685C229.49 274.702 229.559 274.702 229.61 274.719C230.09 274.822 232.726 275.249 234.421 272.463C236.185 269.541 250.225 248.281 251.732 246.008C251.8 245.906 251.869 245.803 251.954 245.701C252.245 245.342 253.067 244.128 252.091 242.727C250.927 241.035 249.061 243.855 249.061 243.855L232.127 270.669C231.733 271.284 231.203 271.746 230.586 271.933H230.569C230.312 272.002 230.055 272.019 229.799 271.968" fill="#023EA1"/>
<path d="M240.397 349.011C240.414 349.011 240.448 349.011 240.465 349.028C240.979 349.507 248.752 356.685 252.793 358.308C253.187 358.462 253.563 358.633 253.94 358.804C254.248 358.94 254.539 359.094 254.83 359.265C255.053 359.402 255.276 359.539 255.498 359.692C255.652 359.812 255.806 359.932 255.96 360.068C256.063 360.171 256.166 360.273 256.269 360.393C256.337 360.478 256.388 360.564 256.44 360.666C256.474 360.735 256.508 360.803 256.525 360.872C256.543 360.957 256.543 361.025 256.525 361.111C256.525 361.196 256.525 361.265 256.525 361.35C256.525 361.435 256.525 361.521 256.525 361.606C256.525 361.641 256.491 361.675 256.457 361.675L230.791 358.342C230.723 358.325 230.654 358.308 230.603 358.274C230.329 358.086 229.593 357.402 229.781 355.813C229.987 354.018 230.791 349.849 230.928 349.165C230.945 349.114 230.98 349.08 231.031 349.062L240.397 349.011Z" fill="#2B2377"/>
<path d="M205.126 351.591C205.126 351.591 209.544 362.819 212.574 365.348C214.886 367.279 214.201 368.886 213.756 369.535C213.619 369.74 213.396 369.843 213.174 369.808C212.626 369.74 211.427 369.45 210.246 368.441C208.619 367.04 192.576 355.248 192.576 355.248C192.576 355.248 191.874 353.556 193.038 351.881C194.203 350.189 196.754 347.113 196.754 347.113L205.126 351.591Z" fill="#2B2377"/>
<path d="M313.417 359.38C314.028 356.02 321.51 356.173 321.51 356.173L318.151 341.972L332.046 339.224L336.474 361.518L315.097 364.114C315.097 364.114 312.501 364.114 313.417 359.38Z" fill="black"/>
<path d="M345.79 357.853C346.4 354.493 353.883 354.646 353.883 354.646L350.523 340.445L364.419 337.696L368.847 359.99L347.469 362.586C347.469 362.586 344.873 362.739 345.79 357.853Z" fill="black"/>
<g opacity="0.6">
<path d="M330.061 353.273C330.519 353.273 331.13 353.731 331.13 354.494C331.13 354.952 330.672 355.563 329.909 355.563C329.451 355.563 328.687 354.952 328.84 354.342C328.993 353.731 329.756 353.12 330.061 353.273Z" fill="white"/>
</g>
<path d="M348.384 343.651L337.543 283.335C337.085 280.434 337.237 277.38 338.154 274.479C340.597 267.607 347.01 263.179 354.34 263.179H392.514L417.404 274.174C417.404 283.335 409.617 290.36 400.76 289.596L360.142 286.389L365.945 340.903L348.384 343.651Z" fill="#EE384E"/>
<path d="M316.776 346.859L304.408 283.489C303.95 280.588 304.102 277.534 305.018 274.633C307.462 267.761 313.875 263.333 321.204 263.333H359.379L384.269 274.327V290.971L327.16 286.543L334.642 342.889L316.776 346.859Z" fill="#EE384E"/>
<path d="M334.642 342.736C334.642 342.736 334.642 342.583 334.489 342.125C334.489 341.667 334.337 340.903 334.184 340.293C334.031 338.613 333.726 336.17 333.115 333.116C332.199 327.16 331.283 318.762 329.908 309.447C328.687 300.591 327.618 292.498 327.007 286.695V286.848C324.258 285.016 322.273 283.183 320.594 282.267C319.983 281.809 319.219 281.198 318.914 281.046C318.609 280.74 318.456 280.587 318.456 280.587C318.456 280.587 318.456 280.587 318.609 280.74C318.761 280.74 318.914 280.893 319.067 281.046C319.372 281.351 320.136 281.656 320.746 282.267C322.273 283.336 324.411 285.016 327.16 286.695C328.076 292.651 328.992 300.744 330.214 309.447C331.435 318.762 332.504 327.008 333.268 333.116C333.573 336.17 333.879 338.613 334.184 340.293C334.337 341.209 334.337 341.82 334.337 342.125C334.642 342.583 334.642 342.736 334.642 342.736Z" fill="#455A64"/>
<path d="M298.605 237.984L301.354 232.793C301.659 232.335 302.27 232.182 302.728 232.182H303.95L305.935 230.35H308.378L310.21 229.128L317.387 230.502L323.19 232.029L319.983 238.748L316.624 238.137L310.974 237.984C309.447 237.984 307.767 237.374 306.698 236.152C305.629 235.083 304.255 234.625 302.881 234.625C302.728 234.472 301.048 238.443 298.605 237.984Z" fill="#FFBE9D"/>
<path d="M379.993 161.481L380.146 198.282L364.418 198.893L363.96 190.036C363.96 190.036 358.31 191.105 356.936 185.913C356.019 182.706 356.325 156.9 356.325 156.9L379.993 161.481Z" fill="#FFBE9D"/>
<path d="M380.146 190.342C381.826 188.662 382.589 186.219 383.048 183.776C383.353 181.333 383.506 179.042 384.116 176.599C384.575 174.156 385.643 171.865 386.102 169.269C386.56 166.826 386.56 163.925 385.033 161.94C385.033 161.94 383.964 159.039 379.841 158.886C379.841 158.886 376.176 153.236 371.137 153.694C364.113 154.305 363.96 152.32 358.921 151.404C354.34 150.793 353.424 154.763 353.424 154.763C353.424 154.763 350.981 156.595 350.981 159.344C350.828 162.093 352.66 164.536 355.256 165.299C355.562 165.452 355.867 165.452 356.325 165.605C357.241 165.91 358.158 166.063 358.768 166.826C359.837 167.895 359.99 169.422 359.837 170.796C359.837 172.171 359.685 173.698 359.99 174.919C360.143 175.377 360.448 175.836 361.059 175.836C361.517 175.683 361.517 174.919 361.517 174.309C361.67 172.629 363.807 171.407 365.334 172.629C366.251 173.24 366.556 174.614 365.945 175.683C365.487 176.904 364.266 177.668 363.96 178.889C363.655 181.18 365.945 183.012 367.014 184.081C367.32 184.387 367.625 184.997 368.083 185.303C370.068 186.983 372.206 189.426 374.954 190.495C376.787 191.105 379.077 190.953 380.452 189.578" fill="#170856"/>
<path d="M361.517 197.213C358.158 199.656 359.532 206.375 359.532 209.735C359.38 217.522 360.143 224.852 360.601 226.073C361.059 227.753 363.35 243.023 363.35 243.023L359.685 263.179C359.685 263.179 364.266 275.242 384.575 275.09L394.653 272.646C399.692 271.425 403.051 266.844 402.746 261.499L400.456 234.624L397.402 212.788C396.485 201.336 389.461 195.228 380.299 195.992L361.517 197.213Z" fill="#0083F9"/>
<g opacity="0.5">
<path d="M369.915 272.493C367.625 271.272 370.526 248.978 373.274 237.525C374.343 233.097 375.718 228.363 378.772 225.157C381.367 222.561 384.727 221.034 388.239 220.118C391.904 219.202 394.652 219.202 398.164 219.049L401.371 270.05C401.218 270.05 379.382 277.38 369.915 272.493Z" fill="black"/>
</g>
<path d="M361.517 197.214C361.517 197.214 354.951 198.131 351.744 204.697C349.149 210.041 338.002 232.03 338.002 232.03L321.052 230.808L317.693 238.596L341.056 245.009C345.789 245.925 350.217 243.024 352.355 238.596L362.128 220.73L361.517 197.214Z" fill="#0083F9"/>
<path d="M363.197 197.213C363.197 197.213 362.891 193.243 363.349 192.632C363.807 192.021 380.91 192.174 380.91 192.174L381.826 196.602L379.993 199.809L363.807 201.183L363.197 197.213Z" fill="#0083F9"/>
<path d="M364.418 214.772C364.571 214.772 363.35 217.521 361.823 220.728C360.296 223.934 359.074 226.683 358.921 226.53C358.769 226.53 359.99 223.782 361.517 220.575C363.044 217.368 364.418 214.772 364.418 214.772Z" fill="#263238"/>
<path d="M381.521 195.839C381.521 195.839 381.673 195.992 381.673 196.297C381.673 196.602 381.521 197.366 380.757 197.519C379.078 197.671 376.176 197.671 372.817 197.824C370.068 197.977 367.625 197.977 365.793 197.977C364.877 197.977 364.113 197.824 363.808 197.519C363.35 197.366 363.197 197.06 363.197 197.06C363.197 197.06 363.35 197.213 363.808 197.366C364.266 197.519 365.029 197.671 365.793 197.671C367.472 197.519 370.068 197.519 372.817 197.366C376.024 197.213 378.772 197.213 380.757 197.213C381.215 197.06 381.673 196.602 381.673 196.144C381.521 195.992 381.521 195.839 381.521 195.839Z" fill="#263238"/>
<path d="M369.762 294.33L369.152 361.67H372.969L373.274 295.552C373.274 295.552 373.427 292.498 375.87 292.345C378.161 292.192 412.671 293.872 412.671 293.872L422.749 361.517H427.177L417.252 293.872C417.252 293.872 388.239 284.099 374.038 287.153C374.038 287.153 370.679 286.542 370.373 289.138C370.068 291.734 369.762 294.33 369.762 294.33Z" fill="#023EA1"/>
<path d="M370.373 286.694C370.373 286.694 376.328 239.968 378.466 232.181C379.688 227.905 382.589 225.156 385.185 223.782C387.017 222.713 389.155 222.102 391.14 222.255L422.902 222.866C425.803 222.866 428.093 225.615 427.482 228.363L416.946 294.329C405.341 294.329 377.855 294.329 377.855 294.329C377.855 294.329 340.444 290.206 334.642 290.053C330.977 289.901 330.671 291.275 330.519 292.802C327.159 290.053 329.144 284.404 333.42 284.709L370.373 286.694Z" fill="#90A7CB"/>
<path d="M427.329 225.921C427.329 225.921 427.177 225.921 427.024 225.921C426.871 225.921 426.566 225.921 426.108 225.921C425.497 225.921 424.428 225.921 423.054 225.921C420.305 225.921 416.488 225.921 411.754 225.921C409.311 225.921 406.715 225.921 403.814 225.921C402.44 225.921 400.913 225.921 399.538 225.921C398.927 225.921 398.011 225.921 397.248 225.921C396.637 225.921 395.721 225.921 394.805 225.921C393.278 226.074 391.751 226.532 390.529 227.601C389.155 228.67 388.239 230.044 387.628 231.571C387.322 232.487 387.322 233.251 387.17 234.167C387.017 235.083 386.864 235.847 386.864 236.763C386.559 238.443 386.406 240.428 385.948 242.107C383.505 256.461 381.52 269.593 379.84 279.06C378.924 283.641 378.466 287.612 378.008 290.207C377.855 291.582 377.702 292.498 377.55 293.261C377.55 293.567 377.397 293.719 377.397 294.178C377.397 294.025 377.397 293.719 377.55 293.261C377.702 292.651 377.855 291.582 378.008 290.207C378.313 287.459 379.077 283.641 379.687 279.06C381.214 269.593 383.352 256.614 385.643 242.107C385.948 240.428 386.101 238.443 386.559 236.763C386.712 235.847 386.864 235.083 386.864 234.167C387.017 233.251 387.017 232.487 387.322 231.571C387.78 229.891 389.002 228.517 390.224 227.448C391.598 226.379 393.125 225.769 394.805 225.769C395.721 225.769 396.332 225.769 397.248 225.769C397.859 225.769 398.775 225.769 399.538 225.769C401.065 225.769 402.44 225.769 403.814 225.769C406.562 225.769 409.311 225.769 411.754 225.769C416.488 225.769 420.305 225.769 423.054 225.769C424.428 225.769 425.497 225.769 426.108 225.769C426.413 225.769 426.566 225.769 427.024 225.769C427.329 225.921 427.329 225.921 427.329 225.921Z" fill="#263238"/>
<path d="M330.519 294.331L328.839 361.671H332.657L333.725 295.705C333.725 295.705 333.725 291.735 336.779 292.04C339.07 292.193 373.885 296.316 373.885 296.316L385.49 361.518H389.919L378.008 293.873L335.405 288.528C334.489 288.375 333.573 288.528 332.809 288.834C331.74 289.292 330.977 290.208 330.824 292.193C330.519 295.247 330.519 294.331 330.519 294.331Z" fill="#023EA1"/>
</svg>
