<svg width="315" height="286" viewBox="0 0 315 286" fill="none" xmlns="http://www.w3.org/2000/svg">
<g clip-path="url(#clip0_137_12634)">
<g clip-path="url(#clip1_137_12634)">
<path d="M119.485 253.441C118.545 252.635 116.531 250.083 118.142 247.128C118.68 246.054 119.888 245.516 121.097 244.979C122.306 244.576 123.38 244.039 124.455 243.368C126.201 241.89 126.738 239.338 127.947 237.324C129.29 235.04 131.842 233.294 134.394 233.429C137.348 233.563 140.035 235.981 141.243 238.801C142.452 241.621 142.452 244.845 142.452 247.8C142.452 249.411 142.452 251.426 141.109 252.635C139.9 253.709 138.289 253.709 136.677 253.709C131.036 253.575 125.529 253.441 119.888 253.306" fill="#F5F5F5"/>
<path d="M151.451 207.641H107.532L115.322 254.784C115.591 256.933 117.068 258.41 119.083 258.947H119.217C119.351 258.947 119.486 259.081 119.62 259.081C119.889 259.081 120.157 259.216 120.56 259.216H120.695H140.304C140.572 259.216 141.109 259.216 141.378 259.081C143.661 258.813 145.542 256.798 145.81 254.381L149.571 221.878L149.705 220.535L151.183 207.641H151.451ZM143.124 237.592H138.558L138.961 223.892H144.199L143.124 237.592ZM144.736 223.892H149.168L147.556 237.592H143.661L144.736 223.892ZM131.842 252.769L131.574 240.815H138.02L137.617 252.769H131.842ZM124.858 240.95H131.171L131.439 252.903H125.798L124.858 240.95ZM125.395 252.769H120.157C119.754 249.546 118.948 245.382 118.411 240.815H124.589L125.395 252.769ZM124.589 237.592L123.515 223.892H130.768L131.036 237.592H124.589ZM131.574 237.592L131.305 223.892H138.692L138.289 237.592H131.574ZM131.036 220.535L130.768 207.91H139.095L138.692 220.535H131.036ZM130.633 220.535H123.246L122.172 207.91H130.365L130.633 220.535ZM122.843 220.535H115.054C114.785 218.789 114.516 217.043 114.248 215.7C113.442 210.596 113.173 208.581 112.905 207.91H121.769L122.843 220.535ZM123.112 223.892L124.187 237.592H117.74C117.605 236.249 117.337 234.772 117.202 233.428C116.8 230.205 116.128 226.982 115.725 223.892H123.112ZM117.202 237.592H113.039L110.756 223.892H115.188C115.725 228.19 116.397 232.757 117.202 237.592ZM117.605 240.95C118.143 244.979 118.814 249.143 119.351 252.903H115.322L113.308 240.95H117.605ZM138.02 252.769L138.423 240.815H142.856L141.781 252.769H138.02ZM139.229 220.535L139.632 207.91H145.676L144.602 220.535H139.229ZM112.502 208.044C112.636 208.984 113.442 213.954 114.651 220.669H110.218L108.069 208.044H112.502ZM145.542 252.769H142.184L143.258 240.815H147.019L145.542 252.769ZM149.302 220.535H144.87L145.945 207.91H150.78L149.302 220.535Z" fill="#E0E0E0"/>
<path d="M138.587 15.1999L86.8121 23.9751L92.7147 58.8003L144.489 50.0251L138.587 15.1999Z" fill="#EBEBEB"/>
<path d="M138.558 15.1777C138.558 15.1777 138.423 15.4464 138.289 15.8493C138.02 16.1179 137.617 16.7894 137.08 17.461C136.006 18.6698 134.394 20.6844 132.514 22.9677C128.619 27.6685 123.246 33.981 117.202 40.9651L117.068 41.0994H116.8C116.665 40.9651 116.531 40.9651 116.397 40.8308C108.204 36.2643 100.817 32.1007 95.4444 29.2802C92.7582 27.6685 90.7436 26.594 89.1319 25.6538C88.4603 25.2509 87.9231 24.9823 87.3859 24.5794C87.1173 24.1764 86.8486 24.1764 86.8486 24.1764C86.8486 24.1764 87.1173 24.3108 87.5202 24.4451C87.9231 24.7137 88.5947 25.1166 89.2662 25.3852C90.8779 26.1911 93.0268 27.3999 95.713 28.8773C101.22 31.8321 108.472 35.9956 116.665 40.2935C116.8 40.4278 116.934 40.4278 117.068 40.5622H116.8C122.843 33.5781 128.216 27.2656 132.245 22.699C134.26 20.5501 135.871 18.6698 136.946 17.3267C137.617 16.6551 137.886 16.2522 138.155 15.9836C138.423 15.312 138.558 15.1777 138.558 15.1777Z" fill="#FAFAFA"/>
<path d="M92.6242 58.8275C92.4899 58.6932 95.579 53.3208 99.474 46.6054C103.369 40.0242 106.727 34.6519 106.861 34.6519C106.995 34.7862 103.906 40.1585 100.011 46.874C96.1163 53.5894 92.7585 58.8275 92.6242 58.8275Z" fill="#FAFAFA"/>
<path d="M124.052 31.2938C124.186 31.1595 128.753 35.1888 134.394 40.5611C140.035 45.6649 144.467 49.9628 144.467 50.0971C144.333 50.2314 139.766 46.2021 134.125 40.8297C128.484 35.726 123.918 31.4281 124.052 31.2938Z" fill="#FAFAFA"/>
<path d="M60.2424 106.786L26.1272 109.816L28.1711 132.827L62.2863 129.797L60.2424 106.786Z" fill="#F5F5F5"/>
<path d="M60.2558 106.775C60.2558 106.775 60.1215 106.909 59.9872 107.044C59.8528 107.312 59.5842 107.581 59.047 107.984C58.2411 108.79 57.0324 109.998 55.6893 111.341C52.8688 114.162 49.1081 117.923 44.8102 122.22L44.6759 122.355H44.5416C44.4073 122.355 44.4073 122.22 44.273 122.22C39.1693 118.863 34.6027 115.774 31.245 113.625C29.6333 112.55 28.2902 111.61 27.35 110.938C26.9471 110.67 26.5442 110.401 26.2756 110.133C26.007 109.864 26.007 109.864 26.007 109.864C26.007 109.864 26.1413 109.864 26.4099 109.998C26.6785 110.133 26.9471 110.401 27.4844 110.804C28.4245 111.341 29.7676 112.282 31.3793 113.356C34.737 115.639 39.4379 118.594 44.5416 121.952C44.6759 121.952 44.6759 122.086 44.8102 122.086H44.6759C48.8395 117.923 52.8688 113.893 55.6893 111.207C57.0324 109.864 58.2411 108.79 59.047 107.849C59.4499 107.581 59.8528 107.312 59.9872 106.909C60.1215 106.909 60.2558 106.775 60.2558 106.775Z" fill="#E0E0E0"/>
<path d="M28.1561 132.697C28.1561 132.697 30.4394 129.205 33.2599 125.176C36.0804 121.146 38.4979 117.789 38.6322 117.789C38.6322 117.789 36.349 121.281 33.5285 125.31C30.708 129.608 28.2904 132.831 28.1561 132.697Z" fill="#E0E0E0"/>
<path d="M50.0484 116.58C50.0484 116.58 52.8689 119.4 56.3609 123.026C59.853 126.653 62.5392 129.608 62.4048 129.608C62.4048 129.608 59.5843 126.787 56.0923 123.161C52.6003 119.534 49.9141 116.58 50.0484 116.58Z" fill="#E0E0E0"/>
<path d="M302.818 91.5991C302.818 91.5991 302.818 91.4648 302.952 91.1962C302.952 90.9276 303.086 90.256 303.221 89.7188C303.355 88.3757 303.758 86.4954 304.161 84.0778C305.101 79.2427 306.31 72.2586 307.787 63.7971L307.922 63.9314C296.774 61.9168 282.537 59.3649 267.36 56.6787L267.495 56.5444C265.749 66.4833 264.003 75.8849 262.525 84.3464L262.391 84.2121C274.344 86.3611 284.418 88.2414 291.536 89.4502C295.162 89.9874 297.848 90.6589 299.863 90.9276C300.803 91.0619 301.475 91.1962 302.146 91.3305C302.281 91.4648 302.415 91.5991 302.818 91.5991C302.818 91.5991 302.818 91.5991 302.684 91.5991C302.549 91.5991 302.415 91.5991 302.146 91.4648C301.743 91.3305 300.938 91.3305 299.863 91.1962C297.848 90.9276 295.028 90.3903 291.536 89.7188C284.283 88.51 274.21 86.764 262.257 84.615H261.988V84.4807C263.465 76.0193 265.211 66.4833 266.957 56.6787V56.5444H267.092C282.403 59.2306 296.371 61.7825 307.519 63.7971H307.653V63.9314C306.176 72.3929 304.833 79.377 303.892 84.3464C303.489 86.764 303.086 88.51 302.818 89.9874C302.684 90.5246 302.684 91.0619 302.549 91.4648C302.818 91.4648 302.818 91.5991 302.818 91.5991Z" fill="#E0E0E0"/>
<path d="M307.787 63.7966C307.787 63.7966 307.653 63.9309 307.384 64.0652C307.116 64.1995 306.579 64.4681 306.041 65.0054C304.833 65.8112 303.221 67.02 301.072 68.3631C296.908 71.0493 290.999 74.8099 284.418 79.1078C284.015 78.9735 284.283 79.1078 284.149 79.1078L284.015 78.9735L283.88 78.7049L283.477 78.1676C283.209 77.7647 282.94 77.3618 282.537 76.9589C282 76.153 281.463 75.4815 280.926 74.6756C279.851 73.1982 278.777 71.8551 277.702 70.512C275.687 67.8258 273.941 65.4083 272.464 63.3936C270.987 61.379 269.778 59.7673 268.838 58.5585C268.435 58.0213 268.032 57.484 267.898 57.2154C268.166 57.484 268.435 58.0213 268.972 58.4242C269.912 59.633 271.121 61.1104 272.598 63.125C274.076 65.1397 275.956 67.5572 277.971 70.2434C279.045 71.5865 280.12 72.9296 281.194 74.407C281.731 75.2128 282.269 75.8844 282.806 76.6902C283.074 76.9589 283.343 77.4961 283.746 77.899L284.149 78.4363L284.283 78.7049L284.418 78.8392C284.283 78.8392 284.686 78.8392 284.283 78.8392C290.73 74.8099 296.64 71.0493 301.072 68.2288C303.221 66.8857 304.967 65.8112 306.176 65.0054C306.713 64.7367 307.25 64.4681 307.519 64.0652C307.519 63.9309 307.787 63.7966 307.787 63.7966Z" fill="#E0E0E0"/>
<path d="M278.508 71.4528C278.508 71.4528 274.881 74.4076 270.449 78.034C265.883 81.6603 262.256 84.4808 262.122 84.3465C262.122 84.3465 265.748 81.3917 270.181 77.7654C274.613 74.139 278.239 71.3185 278.508 71.4528Z" fill="#E0E0E0"/>
<path d="M302.952 92.002C302.818 92.002 300.534 87.9727 297.714 82.7346C294.893 77.4966 292.744 73.333 292.744 73.333C292.879 73.333 295.162 77.3623 297.982 82.6003C300.803 87.7041 302.952 92.002 302.952 92.002Z" fill="#E0E0E0"/>
<path d="M122.844 144.115V151.905H89.1323C86.9833 151.905 85.2373 150.159 85.2373 148.01C85.2373 145.861 86.9833 144.115 89.1323 144.115" fill="#E0E0E0"/>
<path d="M122.843 150.292H111.83C110.621 150.292 109.547 149.218 109.547 148.009C109.547 146.8 110.621 145.726 111.83 145.726H122.843V150.292Z" fill="#FAFAFA"/>
<path d="M122.844 136.189V143.979H89.1323C86.9833 143.979 85.2373 142.233 85.2373 140.084C85.2373 137.935 86.9833 136.189 89.1323 136.189H122.844Z" fill="#F5F5F5"/>
<path d="M122.843 142.368H111.83C110.621 142.368 109.547 141.294 109.547 140.085C109.547 138.876 110.621 137.802 111.83 137.802H122.843V142.368Z" fill="#E0E0E0"/>
<path d="M98.534 123.699L93.0273 136.189H96.5194L98.9369 129.608L98.534 123.699Z" fill="#E0E0E0"/>
<path d="M114.92 112.282L116.935 136.189H99.3404L97.5944 112.282H114.92Z" fill="#EBEBEB"/>
<path d="M113.174 114.297L114.92 134.175L101.758 134.444L100.146 114.163L113.174 114.297Z" fill="#FAFAFA"/>
<path d="M110.354 116.983L111.428 130.817H104.31L103.235 116.983H110.354Z" fill="#E0E0E0"/>
<path d="M325.113 259.216C325.113 259.888 249.9 259.888 157.227 259.888C64.5535 259.888 -10.6595 259.216 -10.6595 259.216C-10.6595 258.545 64.5535 258.545 157.227 258.545C249.9 258.545 325.113 258.545 325.113 259.216Z" fill="#1A1A1A"/>
<path d="M207.325 138.472H133.589C123.919 138.472 123.382 133.771 123.382 128.265V76.6901C123.382 75.2127 124.59 74.1382 125.933 74.1382H214.98C216.458 74.1382 217.532 75.347 217.532 76.6901V127.996C217.667 133.771 217.935 138.472 207.325 138.472Z" fill="#0064B7"/>
<path d="M178.717 138.473H162.465C162.465 138.473 157.496 146.934 162.465 151.904H179.388C179.12 151.904 170.793 146.397 178.717 138.473Z" fill="#023EA1"/>
<g opacity="0.3">
<path d="M162.196 138.473L161.39 140.084L176.298 141.293C176.298 141.293 177.507 139.547 178.582 138.473H162.196Z" fill="black"/>
</g>
<path d="M172.404 134.041C173.369 134.041 174.15 133.259 174.15 132.295C174.15 131.331 173.369 130.549 172.404 130.549C171.44 130.549 170.658 131.331 170.658 132.295C170.658 133.259 171.44 134.041 172.404 134.041Z" fill="#FAFAFA"/>
<path d="M212.966 77.7646H127.814V126.787H212.966V77.7646Z" fill="#FAFAFA"/>
<path d="M213.1 126.653C213.1 126.653 213.1 126.385 213.1 125.713C213.1 125.042 213.1 124.236 213.1 123.161C213.1 120.878 213.1 117.52 213.1 113.357C213.1 104.895 213.1 92.673 213.1 77.6304L213.234 77.7647C190.401 77.7647 160.585 77.7647 128.082 77.7647L128.216 77.6304C128.216 94.9563 128.216 111.611 128.216 126.653L128.082 126.519C152.929 126.519 174.284 126.519 189.327 126.653C196.848 126.653 202.758 126.653 207.056 126.653C209.205 126.653 210.682 126.653 211.756 126.653C212.294 126.653 212.562 126.653 213.1 126.653C213.1 126.653 212.965 126.653 212.697 126.653C212.428 126.653 212.159 126.653 211.488 126.653C210.413 126.653 208.936 126.653 206.787 126.653C202.758 126.653 196.714 126.653 189.327 126.653C174.284 126.653 152.929 126.653 127.948 126.788H127.679V126.653C127.679 111.611 127.679 94.9563 127.679 77.6304V77.4961H127.813C160.45 77.4961 190.133 77.4961 212.965 77.4961H213.1V77.6304C213.1 92.673 213.1 104.895 213.1 113.625C213.1 117.789 213.1 121.147 213.1 123.43C213.1 124.504 213.1 125.444 213.1 125.982C213.1 126.519 213.1 126.653 213.1 126.653Z" fill="#263238"/>
<g opacity="0.9">
<path d="M148.9 81.7939H128.888V125.444H148.9V81.7939Z" fill="#EFF9FF"/>
</g>
<path d="M145.274 104.359C145.274 104.493 142.453 104.493 138.827 104.493C135.2 104.493 132.38 104.359 132.38 104.359C132.38 104.225 135.2 104.225 138.827 104.225C142.453 104.225 145.274 104.225 145.274 104.359Z" fill="#263238"/>
<path d="M145.274 100.329C145.274 100.463 142.453 100.463 138.827 100.463C135.2 100.463 132.38 100.329 132.38 100.329C132.38 100.194 135.2 100.194 138.827 100.194C142.453 100.194 145.274 100.06 145.274 100.329Z" fill="#263238"/>
<path d="M148.766 120.207C148.766 120.341 144.334 120.341 138.827 120.341C133.455 120.341 128.888 120.207 128.888 120.207C128.888 120.207 133.32 120.072 138.827 120.072C144.334 120.072 148.766 120.207 148.766 120.207Z" fill="#263238"/>
<path d="M142.319 108.387C142.319 108.521 140.035 108.521 137.349 108.521C134.663 108.521 132.38 108.387 132.38 108.387C132.38 108.387 134.663 108.252 137.349 108.252C140.035 108.252 142.319 108.387 142.319 108.387Z" fill="#263238"/>
<path d="M143.662 117.654C143.662 117.789 141.379 117.789 138.693 117.789C136.007 117.789 133.723 117.654 133.723 117.654C133.723 117.52 136.007 117.52 138.693 117.52C141.513 117.52 143.662 117.52 143.662 117.654Z" fill="#263238"/>
<path d="M145.274 112.954C145.274 113.088 142.453 113.088 138.827 113.088C135.2 113.088 132.38 112.954 132.38 112.954C132.38 112.954 135.2 112.82 138.827 112.82C142.453 112.82 145.274 112.954 145.274 112.954Z" fill="#263238"/>
<path d="M145.274 122.759C145.274 122.893 142.453 122.893 138.827 122.893C135.2 122.893 132.38 122.759 132.38 122.759C132.38 122.625 135.2 122.625 138.827 122.625C142.453 122.625 145.274 122.759 145.274 122.759Z" fill="#263238"/>
<path d="M138.558 84.8843C136.007 84.8843 133.723 87.0332 133.723 89.7194C133.723 91.4654 134.798 93.2114 136.275 93.883V92.4056C136.275 91.1968 137.35 90.1223 138.558 90.1223C139.767 90.1223 140.842 91.1968 140.842 92.4056V93.7487C142.319 92.9428 143.259 91.3311 143.259 89.5851C143.394 87.0332 141.245 84.8843 138.558 84.8843ZM138.693 89.8537C137.753 89.8537 137.081 89.0479 137.081 88.242C137.081 87.4361 137.887 86.6303 138.693 86.6303C139.499 86.6303 140.304 87.4361 140.304 88.242C140.304 89.0479 139.499 89.8537 138.693 89.8537Z" fill="#FAFAFA"/>
<path d="M138.692 90.1216C137.484 90.1216 136.409 91.1961 136.409 92.4048V93.8822C136.946 94.1509 137.752 94.2852 138.558 94.2852C139.498 94.2852 140.17 94.1509 140.976 93.7479V92.4048C140.976 91.1961 139.901 90.1216 138.692 90.1216Z" fill="#0064B7"/>
<path d="M138.693 86.3613C137.753 86.3613 137.081 87.1672 137.081 87.973C137.081 88.7789 137.887 89.5847 138.693 89.5847C139.499 89.5847 140.305 88.7789 140.305 87.973C140.305 87.1672 139.499 86.3613 138.693 86.3613Z" fill="#0064B7"/>
<path d="M143.394 89.584C143.394 89.584 143.394 89.181 143.259 88.3752C143.125 87.5693 142.722 86.6292 141.513 85.8233C140.976 85.4204 140.304 85.0175 139.499 84.8831C138.693 84.7488 137.887 84.7488 137.081 85.0175C136.275 85.2861 135.469 85.9576 134.932 86.6292C134.395 87.435 133.992 88.2409 133.992 89.3153C133.992 90.3898 134.261 91.33 134.932 92.0015C135.604 92.6731 136.275 93.3446 137.081 93.6132C137.887 93.8819 138.693 93.8819 139.499 93.7475C140.304 93.6132 140.842 93.3446 141.513 92.8074C142.588 92.0015 142.991 91.0614 143.259 90.2555C143.394 89.9869 143.394 89.584 143.394 89.584C143.394 89.584 143.394 89.7183 143.394 89.8526C143.394 89.9869 143.394 90.2555 143.259 90.7927C143.125 91.5986 142.722 92.5388 141.648 93.4789C141.11 93.8819 140.439 94.2848 139.499 94.4191C138.693 94.5534 137.887 94.5534 136.947 94.2848C136.007 94.0162 135.335 93.3446 134.663 92.6731C133.992 92.0015 133.723 90.9271 133.723 89.8526C133.723 88.7781 133.992 87.7036 134.663 87.0321C135.335 86.3605 136.007 85.689 136.947 85.4204C137.887 85.1518 138.693 85.1518 139.499 85.2861C140.304 85.4204 140.976 85.689 141.648 86.2262C142.722 87.1664 143.125 88.2409 143.259 88.9124C143.394 88.9124 143.394 89.181 143.394 89.584Z" fill="#FAFAFA"/>
<path d="M211.623 81.7939H148.766V84.7487H211.623V81.7939Z" fill="#F5F5F5"/>
<path d="M193.356 83.9431H151.049C150.78 83.9431 150.512 83.6745 150.512 83.4059C150.512 83.1373 150.78 82.8687 151.049 82.8687H193.356C193.625 82.8687 193.894 83.1373 193.894 83.4059C193.894 83.6745 193.759 83.9431 193.356 83.9431Z" fill="#E0E0E0"/>
<path d="M199.534 83.9431H196.982C196.714 83.9431 196.445 83.6745 196.445 83.4059C196.445 83.1373 196.714 82.8687 196.982 82.8687H199.534C199.803 82.8687 200.071 83.1373 200.071 83.4059C199.937 83.6745 199.803 83.9431 199.534 83.9431Z" fill="#E0E0E0"/>
<path d="M202.489 82.6006H202.086V83.0035H202.489V82.6006Z" fill="#E0E0E0"/>
<path d="M202.489 83.4058H202.086V83.8087H202.489V83.4058Z" fill="#E0E0E0"/>
<path d="M203.16 82.6006H202.758V83.0035H203.16V82.6006Z" fill="#E0E0E0"/>
<path d="M203.16 83.4058H202.758V83.8087H203.16V83.4058Z" fill="#E0E0E0"/>
<path d="M152.258 86.6294H150.512V88.3754H152.258V86.6294Z" fill="#EE384E"/>
<path d="M179.925 87.5694C179.925 87.7037 174.15 87.7037 167.031 87.7037C159.913 87.7037 154.138 87.5694 154.138 87.5694C154.138 87.4351 159.913 87.4351 167.031 87.4351C174.015 87.4351 179.925 87.4351 179.925 87.5694Z" fill="#263238"/>
<path d="M203.967 87.5694C203.967 87.7037 203.43 87.7037 202.49 87.7037C201.684 87.7037 201.012 87.5694 201.012 87.5694C201.012 87.4351 201.55 87.4351 202.49 87.4351C203.43 87.4351 203.967 87.4351 203.967 87.5694Z" fill="#263238"/>
<path d="M211.623 102.208H148.766V108.118H211.623V102.208Z" fill="#FAFAFA"/>
<path d="M151.99 104.225H150.244V105.971H151.99V104.225Z" fill="#EE384E"/>
<path d="M179.926 105.03C179.926 105.164 174.016 105.164 166.898 105.164C159.645 105.164 153.87 105.03 153.87 105.03C153.87 104.896 159.779 104.896 166.898 104.896C174.016 104.896 179.926 104.896 179.926 105.03Z" fill="#263238"/>
<path d="M204.37 105.03C204.37 105.164 203.833 105.164 202.893 105.164C202.087 105.164 201.415 105.03 201.415 105.03C201.415 104.896 201.953 104.896 202.893 104.896C203.699 104.896 204.37 104.896 204.37 105.03Z" fill="#263238"/>
<path d="M151.99 110.133H150.244V111.879H151.99V110.133Z" fill="#EE384E"/>
<path d="M179.926 110.805C179.926 110.939 174.016 110.939 166.898 110.939C159.645 110.939 153.87 110.805 153.87 110.805C153.87 110.67 159.779 110.67 166.898 110.67C174.016 110.67 179.926 110.805 179.926 110.805Z" fill="#263238"/>
<path d="M204.37 110.805C204.37 110.939 203.833 110.939 202.893 110.939C202.087 110.939 201.415 110.805 201.415 110.805C201.415 110.67 201.953 110.67 202.893 110.67C203.699 110.67 204.37 110.67 204.37 110.805Z" fill="#263238"/>
<path d="M211.623 113.894H148.766V119.804H211.623V113.894Z" fill="#FAFAFA"/>
<path d="M151.99 115.774H150.244V117.52H151.99V115.774Z" fill="#EE384E"/>
<path d="M179.926 116.714C179.926 116.848 174.016 116.848 166.898 116.848C159.645 116.848 153.87 116.714 153.87 116.714C153.87 116.58 159.779 116.58 166.898 116.58C174.016 116.58 179.926 116.58 179.926 116.714Z" fill="#263238"/>
<path d="M204.37 116.581C204.37 116.715 203.833 116.715 202.893 116.715C202.087 116.715 201.415 116.581 201.415 116.581C201.415 116.446 201.953 116.446 202.893 116.446C203.699 116.446 204.37 116.581 204.37 116.581Z" fill="#263238"/>
<path d="M151.99 121.55H150.244V123.296H151.99V121.55Z" fill="#EE384E"/>
<path d="M179.926 122.49C179.926 122.624 174.016 122.624 166.898 122.624C159.645 122.624 153.87 122.49 153.87 122.49C153.87 122.355 159.779 122.355 166.898 122.355C174.016 122.355 179.926 122.355 179.926 122.49Z" fill="#263238"/>
<path d="M204.37 122.49C204.37 122.624 203.833 122.624 202.893 122.624C202.087 122.624 201.415 122.49 201.415 122.49C201.415 122.355 201.953 122.355 202.893 122.355C203.699 122.355 204.37 122.355 204.37 122.49Z" fill="#263238"/>
<path d="M211.623 90.6592H148.766V96.5688H211.623V90.6592Z" fill="#FAFAFA"/>
<path d="M152.258 92.5396H150.512V94.2856H152.258V92.5396Z" fill="#EE384E"/>
<path d="M168.778 93.479C168.778 93.6133 165.42 93.6133 161.391 93.6133C157.361 93.6133 154.004 93.479 154.004 93.479C154.004 93.479 157.361 93.3447 161.391 93.3447C165.554 93.2104 168.778 93.3447 168.778 93.479Z" fill="#263238"/>
<path d="M203.967 93.6128C203.967 93.7471 203.43 93.7471 202.49 93.7471C201.684 93.7471 201.012 93.6128 201.012 93.6128C201.012 93.6128 201.55 93.4785 202.49 93.4785C203.43 93.4785 203.967 93.4785 203.967 93.6128Z" fill="#263238"/>
<path d="M203.967 99.2549C203.967 99.3892 203.43 99.3892 202.49 99.3892C201.684 99.3892 201.012 99.2549 201.012 99.2549C201.012 99.1206 201.55 99.1206 202.49 99.1206C203.43 99.1206 203.967 99.2549 203.967 99.2549Z" fill="#263238"/>
<path d="M152.258 98.4482H150.512V100.194H152.258V98.4482Z" fill="#EE384E"/>
<path d="M189.461 99.2549C189.461 99.3892 181.403 99.3892 171.598 99.3892C161.794 99.3892 153.735 99.2549 153.735 99.2549C153.735 99.2549 161.794 99.1206 171.598 99.1206C181.672 99.1206 189.461 99.2549 189.461 99.2549Z" fill="#263238"/>
<path d="M131.574 80.317C131.574 80.5856 131.306 80.8543 131.037 80.8543C130.768 80.8543 130.5 80.5856 130.5 80.317C130.5 80.0484 130.768 79.7798 131.037 79.7798C131.306 79.9141 131.574 80.1827 131.574 80.317Z" fill="#263238"/>
<path d="M133.724 80.317C133.724 80.5856 133.455 80.8543 133.186 80.8543C132.918 80.8543 132.649 80.5856 132.649 80.317C132.649 80.0484 132.918 79.7798 133.186 79.7798C133.321 79.9141 133.724 80.1827 133.724 80.317Z" fill="#263238"/>
<path d="M135.738 80.317C135.738 80.5856 135.469 80.8543 135.201 80.8543C134.932 80.8543 134.663 80.5856 134.663 80.317C134.663 80.0484 134.932 79.7798 135.201 79.7798C135.469 79.9141 135.738 80.1827 135.738 80.317Z" fill="#263238"/>
<path d="M211.623 125.444C211.623 124.37 211.623 107.312 211.489 78.8389L211.623 78.9732C189.462 78.9732 160.451 78.9732 128.754 78.9732L128.888 78.8389C128.888 95.3589 128.888 111.207 128.888 125.444L128.754 125.31C177.105 125.444 210.146 125.444 211.623 125.444C210.146 125.444 177.24 125.444 128.754 125.578H128.62V125.444C128.62 111.073 128.62 95.2246 128.62 78.8389V78.7046H128.754C160.451 78.7046 189.462 78.7046 211.623 78.7046H211.757V78.8389C211.757 107.447 211.623 124.37 211.623 125.444Z" fill="#263238"/>
<path d="M252.183 259.217H247.079L235.663 157.813H242.378L252.183 259.217Z" fill="#023EA1"/>
<path d="M220.217 259.217H214.979L203.697 157.813H210.413L220.217 259.217Z" fill="#023EA1"/>
<path d="M253.66 157.813H116.128H75.0293V151.904H253.66V157.813Z" fill="#0064E1"/>
<path d="M112.232 259.217H117.202L128.081 157.813H121.5L112.232 259.217Z" fill="#023EA1"/>
<path d="M68.7167 259.217H73.8204L85.2367 157.813H78.5212L68.7167 259.217Z" fill="#023EA1"/>
<path d="M129.962 151.904H75.0293V157.813H129.962V151.904Z" fill="#023EA1"/>
<path d="M193.355 150.157H155.346V151.903H193.355V150.157Z" fill="#0064B7"/>
<path d="M191.341 257.067C191.878 254.112 198.459 254.246 198.459 254.246L195.505 241.755L207.727 239.338L211.622 258.947L192.818 261.23C192.818 261.23 190.535 261.23 191.341 257.067Z" fill="black"/>
<path d="M219.815 255.724C220.352 252.769 226.934 252.903 226.934 252.903L223.979 240.413L236.201 237.995L240.096 257.604L221.293 259.888C221.293 259.888 219.009 260.022 219.815 255.724Z" fill="black"/>
<g opacity="0.6">
<path d="M205.981 251.694C206.384 251.694 206.921 252.097 206.921 252.769C206.921 253.172 206.518 253.709 205.847 253.709C205.444 253.709 204.772 253.172 204.907 252.634C205.041 252.097 205.713 251.56 205.981 251.694Z" fill="white"/>
</g>
<path d="M222.097 243.233L212.561 190.181C212.158 187.629 212.292 184.943 213.098 182.391C215.247 176.347 220.888 172.452 227.335 172.452H260.912L282.805 182.122C282.805 190.181 275.955 196.359 268.165 195.688L232.439 192.867L237.543 240.815L222.097 243.233Z" fill="#EE384E"/>
<path d="M194.296 246.053L183.417 190.315C183.014 187.763 183.148 185.077 183.954 182.525C186.103 176.481 191.744 172.586 198.191 172.586H231.768L253.66 182.257V196.896L203.429 193.001L210.01 242.561L194.296 246.053Z" fill="#EE384E"/>
<path d="M210.01 242.427C210.01 242.427 210.01 242.293 209.876 241.89C209.876 241.487 209.741 240.815 209.607 240.278C209.473 238.801 209.204 236.652 208.667 233.966C207.861 228.727 207.055 221.34 205.846 213.148C204.772 205.358 203.832 198.239 203.294 193.136V193.27C200.877 191.658 199.131 190.046 197.653 189.241C197.116 188.838 196.445 188.3 196.176 188.166C195.907 187.897 195.773 187.763 195.773 187.763C195.773 187.763 195.773 187.763 195.907 187.897C196.042 187.897 196.176 188.032 196.31 188.166C196.579 188.435 197.25 188.703 197.788 189.241C199.131 190.181 201.011 191.658 203.429 193.136C204.235 198.374 205.04 205.492 206.115 213.148C207.189 221.34 208.13 228.593 208.801 233.966C209.07 236.652 209.338 238.801 209.607 240.278C209.741 241.084 209.741 241.621 209.741 241.89C210.01 242.293 210.01 242.427 210.01 242.427Z" fill="#455A64"/>
<path d="M178.313 150.291L180.731 145.724C180.999 145.321 181.537 145.187 181.939 145.187H183.014L184.76 143.575H186.909L188.521 142.501L194.833 143.71L199.937 145.053L197.116 150.962L194.162 150.425L189.192 150.291C187.849 150.291 186.372 149.754 185.431 148.679C184.491 147.739 183.283 147.336 182.074 147.336C181.939 147.202 180.462 150.694 178.313 150.291Z" fill="#FFBE9D"/>
<path d="M249.899 83.0019L250.033 115.37L236.2 115.908L235.797 108.118C235.797 108.118 230.827 109.058 229.618 104.491C228.813 101.671 229.081 78.9727 229.081 78.9727L249.899 83.0019Z" fill="#FFBE9D"/>
<path d="M250.034 108.387C251.512 106.909 252.183 104.76 252.586 102.611C252.855 100.462 252.989 98.4477 253.526 96.2987C253.929 94.1498 254.869 92.1352 255.272 89.8519C255.675 87.703 255.675 85.1511 254.332 83.4051C254.332 83.4051 253.392 80.8532 249.766 80.7189C249.766 80.7189 246.542 75.7494 242.11 76.1524C235.932 76.6896 235.797 74.9436 231.365 74.1377C227.336 73.6005 226.53 77.0925 226.53 77.0925C226.53 77.0925 224.381 78.7042 224.381 81.1218C224.247 83.5394 225.859 85.6883 228.142 86.3599C228.41 86.4942 228.679 86.4942 229.082 86.6285C229.888 86.8971 230.694 87.0314 231.231 87.703C232.171 88.6431 232.305 89.9862 232.171 91.195C232.171 92.4038 232.037 93.7469 232.305 94.8213C232.44 95.2243 232.708 95.6272 233.246 95.6272C233.648 95.4929 233.648 94.8213 233.648 94.2841C233.783 92.8067 235.663 91.7322 237.006 92.8067C237.812 93.3439 238.081 94.5527 237.543 95.4929C237.14 96.5673 236.066 97.2389 235.797 98.3134C235.529 100.328 237.543 101.94 238.484 102.88C238.752 103.148 239.021 103.686 239.424 103.954C241.17 105.432 243.05 107.581 245.468 108.521C247.079 109.058 249.094 108.924 250.303 107.715" fill="#170856"/>
<path d="M233.649 114.431C230.694 116.58 231.903 122.49 231.903 125.444C231.768 132.294 232.44 138.741 232.843 139.815C233.246 141.293 235.26 154.724 235.26 154.724L232.037 172.452C232.037 172.452 236.066 183.063 253.929 182.929L262.794 180.78C267.226 179.705 270.181 175.676 269.912 170.975L267.898 147.337L265.211 128.13C264.406 118.057 258.227 112.685 250.169 113.356L233.649 114.431Z" fill="#0083F9"/>
<g opacity="0.5">
<path d="M241.035 180.645C239.02 179.57 241.572 159.961 243.99 149.888C244.93 145.993 246.139 141.83 248.825 139.009C251.108 136.726 254.063 135.383 257.152 134.577C260.375 133.771 262.793 133.771 265.882 133.637L268.703 178.496C268.568 178.496 249.362 184.943 241.035 180.645Z" fill="black"/>
</g>
<path d="M233.648 114.432C233.648 114.432 227.873 115.237 225.053 121.013C222.769 125.714 212.965 145.054 212.965 145.054L198.056 143.98L195.102 150.829L215.651 156.47C219.815 157.276 223.71 154.724 225.59 150.829L234.186 135.115L233.648 114.432Z" fill="#0083F9"/>
<path d="M235.126 114.431C235.126 114.431 234.857 110.939 235.26 110.402C235.663 109.864 250.706 109.999 250.706 109.999L251.511 113.894L249.9 116.714L235.663 117.923L235.126 114.431Z" fill="#0083F9"/>
<path d="M236.2 129.876C236.335 129.876 235.26 132.294 233.917 135.115C232.574 137.935 231.499 140.353 231.365 140.218C231.231 140.218 232.305 137.801 233.648 134.98C234.991 132.16 236.2 129.876 236.2 129.876Z" fill="#263238"/>
<path d="M251.243 113.223C251.243 113.223 251.377 113.357 251.377 113.626C251.377 113.894 251.243 114.566 250.571 114.7C249.094 114.834 246.542 114.834 243.587 114.969C241.17 115.103 239.021 115.103 237.409 115.103C236.603 115.103 235.932 114.969 235.663 114.7C235.26 114.566 235.126 114.297 235.126 114.297C235.126 114.297 235.26 114.431 235.663 114.566C236.066 114.7 236.737 114.834 237.409 114.834C238.886 114.7 241.17 114.7 243.587 114.566C246.408 114.431 248.825 114.431 250.571 114.431C250.974 114.297 251.377 113.894 251.377 113.491C251.243 113.357 251.243 113.223 251.243 113.223Z" fill="#263238"/>
<path d="M240.901 199.852L240.363 259.082H243.721L243.99 200.926C243.99 200.926 244.124 198.24 246.273 198.106C248.288 197.971 278.641 199.449 278.641 199.449L287.506 258.948H291.401L282.671 199.449C282.671 199.449 257.152 190.853 244.661 193.539C244.661 193.539 241.706 193.002 241.438 195.285C241.169 197.568 240.901 199.852 240.901 199.852Z" fill="#023EA1"/>
<path d="M241.438 193.136C241.438 193.136 246.676 152.037 248.556 145.188C249.63 141.427 252.182 139.009 254.466 137.801C256.077 136.86 257.958 136.323 259.704 136.457L287.64 136.995C290.192 136.995 292.206 139.412 291.669 141.83L282.402 199.851C272.194 199.851 248.019 199.851 248.019 199.851C248.019 199.851 215.113 196.225 210.009 196.091C206.786 195.956 206.517 197.165 206.383 198.508C203.428 196.091 205.174 191.121 208.935 191.39L241.438 193.136Z" fill="#90A7CB"/>
<path d="M291.535 139.682C291.535 139.682 291.4 139.682 291.266 139.682C291.132 139.682 290.863 139.682 290.46 139.682C289.923 139.682 288.983 139.682 287.774 139.682C285.356 139.682 281.999 139.682 277.835 139.682C275.686 139.682 273.403 139.682 270.851 139.682C269.642 139.682 268.299 139.682 267.09 139.682C266.553 139.682 265.747 139.682 265.076 139.682C264.538 139.682 263.733 139.682 262.927 139.682C261.584 139.816 260.241 140.219 259.166 141.159C257.957 142.099 257.151 143.308 256.614 144.651C256.346 145.457 256.346 146.129 256.211 146.934C256.077 147.74 255.943 148.412 255.943 149.218C255.674 150.695 255.54 152.441 255.137 153.918C252.988 166.543 251.242 178.094 249.764 186.421C248.959 190.451 248.556 193.943 248.153 196.226C248.018 197.435 247.884 198.24 247.75 198.912C247.75 199.181 247.615 199.315 247.615 199.718C247.615 199.584 247.615 199.315 247.75 198.912C247.884 198.375 248.018 197.435 248.153 196.226C248.421 193.808 249.093 190.451 249.63 186.421C250.973 178.094 252.854 166.678 254.868 153.918C255.137 152.441 255.271 150.695 255.674 149.218C255.808 148.412 255.943 147.74 255.943 146.934C256.077 146.129 256.077 145.457 256.346 144.651C256.748 143.174 257.823 141.965 258.897 141.025C260.106 140.085 261.449 139.547 262.927 139.547C263.733 139.547 264.27 139.547 265.076 139.547C265.613 139.547 266.419 139.547 267.09 139.547C268.433 139.547 269.642 139.547 270.851 139.547C273.269 139.547 275.686 139.547 277.835 139.547C281.999 139.547 285.356 139.547 287.774 139.547C288.983 139.547 289.923 139.547 290.46 139.547C290.729 139.547 290.863 139.547 291.266 139.547C291.535 139.682 291.535 139.682 291.535 139.682Z" fill="#263238"/>
<path d="M206.383 199.852L204.905 259.083H208.263L209.203 201.061C209.203 201.061 209.203 197.569 211.889 197.838C213.904 197.972 244.527 201.598 244.527 201.598L254.734 258.948H258.629L248.153 199.449L210.681 194.748C209.875 194.614 209.069 194.748 208.397 195.017C207.457 195.42 206.786 196.226 206.651 197.972C206.383 200.658 206.383 199.852 206.383 199.852Z" fill="#023EA1"/>
<path d="M5.99491 201.866C5.99491 201.866 9.88987 200.389 9.62125 195.822C9.35263 191.256 7.06938 188.301 11.7702 189.51C16.471 190.719 18.0827 191.256 21.4405 190.719C24.7982 190.181 27.6187 188.57 26.2756 193.002C24.7982 197.434 23.0522 201.195 26.6785 201.866C30.1705 202.672 33.9312 199.852 34.3341 206.836C34.7371 213.82 29.2304 221.475 20.0974 221.744C10.9643 222.013 7.06938 218.252 7.06938 218.252C7.06938 218.252 4.65182 214.76 8.41247 214.088C12.1731 213.148 16.0681 211.671 14.1878 209.925C12.1731 208.179 5.99491 207.91 5.99491 207.91C5.99491 207.91 -1.92933 206.433 5.99491 201.866Z" fill="#649EEA"/>
<path d="M47.0932 202.941C46.5559 198.508 46.9589 195.419 55.1517 194.21C63.3446 193.002 68.1797 197.971 68.5826 202.941C68.9855 208.044 62.0015 209.925 62.0015 209.925C62.0015 209.925 56.8977 211.402 59.4496 215.834C62.0015 220.266 63.2103 224.564 57.3007 225.236C51.3911 225.907 45.0785 224.296 41.5865 221.878C37.9601 219.461 34.3338 213.551 38.3631 210.462C38.3631 210.462 39.5719 209.656 43.4668 209.387C47.6304 209.119 47.0932 202.941 47.0932 202.941Z" fill="#023EA1"/>
<path d="M18.3512 202.27C18.3512 202.27 25.201 217.716 26.0068 228.057" stroke="#023EA1" stroke-width="1.01749" stroke-miterlimit="10"/>
<path d="M56.2269 204.687C56.2269 204.687 44.1391 222.684 41.3186 228.594" stroke="#649EEA" stroke-width="1.01749" stroke-miterlimit="10"/>
<path d="M21.9776 226.982H49.6453C49.6453 226.982 52.6001 227.116 52.3315 231.414C52.0629 235.175 47.2277 234.369 44.8102 234.369C42.3926 234.369 21.3061 234.369 21.3061 234.369C21.3061 234.369 17.9484 234.906 17.9484 231.011C17.8141 227.251 19.2915 226.982 21.9776 226.982Z" fill="#0054A5"/>
<path d="M21.3065 234.369L25.4701 258.813H44.0048L47.0939 240.413L21.3065 234.369Z" fill="#0054A5"/>
<path d="M21.3065 234.369L47.0939 240.413L48.1683 234.369H21.3065Z" fill="#006AD5"/>
<path d="M33.2599 227.788C33.2599 227.788 34.603 200.657 42.7958 183.734" stroke="#FCBE42" stroke-width="1.01749" stroke-miterlimit="10"/>
<path d="M49.3771 173.929C49.3771 173.929 49.9144 182.256 41.9901 185.614C41.8558 185.614 40.1098 178.496 49.3771 173.929Z" fill="#FCBE42"/>
<path d="M37.155 200.524C37.155 200.524 40.1098 193.405 49.3772 194.345C49.3772 194.345 48.7056 201.464 37.155 200.524Z" fill="#FCBE42"/>
<path d="M34.1998 218.387C34.1998 218.387 35.6772 210.865 44.9446 209.925C44.9446 209.925 45.6161 216.909 34.1998 218.387Z" fill="#FCBE42"/>
<path d="M33.9315 218.386C33.9315 218.386 35.0059 210.73 26.5445 206.97C26.4102 206.836 23.4554 213.282 33.9315 218.386Z" fill="#FCBE42"/>
<path d="M37.1548 200.389C37.1548 200.389 39.1694 193.002 31.3795 188.032C31.5138 188.032 27.6189 194.076 37.1548 200.389Z" fill="#FCBE42"/>
</g>
<path d="M61.9945 192.138C61.9945 192.138 40.7059 193.392 49.9777 194.63C59.2495 195.884 72.011 195.884 76.5228 195.374C81.02 194.878 65.4988 192.386 61.9945 192.138Z" fill="#023EA1"/>
<path d="M60.5203 194.949L60.2137 254.25C60.2137 254.25 51.0003 254.483 49.3649 256.64C47.7296 258.797 49.6278 260.152 59.104 259.919C68.5803 259.686 74.2747 259.715 74.2747 259.715C74.2747 259.715 78.8888 259.19 73.4717 256.465C68.0546 253.74 63.718 254.527 63.718 254.527L63.4114 195.022L60.5203 194.949Z" fill="#023EA1"/>
<path d="M66.7443 102.847C66.7443 102.847 64.0953 95.4822 70.6056 93.5253C70.6056 93.5253 72.4913 82.4262 81.3514 87.4455C82.0248 87.8189 82.7881 87.8787 83.4766 87.5351C85.8263 86.3699 91.0345 80.7382 94.6414 89.3725C94.9257 90.0447 95.6142 90.3136 96.2428 90.3435C98.9068 90.448 105.327 91.4937 100.059 99.4259C100.059 99.4259 97.6196 102.369 93.5488 102.608C93.5488 102.608 74.6465 115.604 69.1539 113.408C63.6912 111.182 63.9007 105.297 66.7443 102.847Z" fill="#2C2477"/>
<path d="M84.7805 99.0987C85.0499 99.0091 95.1072 95.7825 93.5208 104.73V104.745C93.5358 104.984 93.8201 113.006 87.3846 117.622C87.2949 117.682 87.2051 117.756 87.1302 117.846C86.7262 118.279 84.9751 119.818 82.1465 117.249C79.5274 114.873 78.6593 116.517 78.375 117.204C78.3002 117.383 78.1954 117.577 78.1056 117.742C77.7015 118.474 76.4593 120.221 77.2824 121.416C78.1505 122.671 79.243 124.225 79.5274 124.643C79.5573 124.688 79.5274 124.748 79.4825 124.748C78.0158 124.658 63.304 123.702 63.6631 120.445C63.6631 120.445 64.5462 116.845 64.5462 116.83L64.8156 116.771C64.8605 116.756 64.9054 116.741 64.9503 116.711L69.5449 113.335C69.5599 113.335 69.5599 113.32 69.5748 113.32C69.8742 113.35 74.2892 113.738 75.8607 111.841C75.8607 111.841 77.8212 109.6 78.7342 106.702C79.0036 105.836 78.8689 104.865 78.36 104.178C77.5967 103.162 76.7886 101.31 78.7042 99.995C78.7042 99.995 80.2009 98.8896 81.5628 100.548L81.7424 100.772C81.8771 100.936 82.0716 100.966 82.2363 100.846L84.7805 99.0987C84.7656 99.0987 84.7656 99.0987 84.7805 99.0987Z" fill="#FFBF9C"/>
<path d="M64.5161 116.832C64.5161 116.832 71.221 123.046 78.8388 123.748C78.8388 123.748 82.9994 128.364 83.613 138.433C84.2266 148.501 84.6307 171.058 84.0171 172.521C83.4035 173.985 47.6341 173.746 47.6341 173.746C47.6341 173.746 50.2832 137.193 54.5485 129.589C54.5485 129.589 60.8493 118.55 64.5161 116.832Z" fill="#FCBE42"/>
<path d="M61.2975 144.063C61.2975 144.063 61.9111 157.552 63.1234 162.467C64.3357 167.367 64.9493 169.577 70.0378 170.309C75.1263 171.041 88.5361 172.027 91.1701 171.534C93.8191 171.041 102.35 173.222 102.35 173.222C102.35 173.222 104.999 173.954 105.193 172.236C105.388 170.519 108.247 171.997 108.441 172.729C108.651 173.461 110.072 174.447 110.477 172.49C110.881 170.533 110.686 168.069 107.229 167.337C103.772 166.605 100.524 167.337 96.8573 167.621C93.5947 167.874 91.4096 166.859 90.766 166.859L74.3032 163.184C74.3032 163.184 72.2678 162.452 71.8637 159.509C71.4596 156.566 71.4596 143.809 71.4596 143.809L61.2975 144.063Z" fill="#FFBF9C"/>
<path d="M59.6656 145.529H72.6413C72.7909 135.968 71.878 126.886 66.7745 126.871C66.7745 126.886 59.6656 125.272 59.6656 145.529Z" fill="#F79F03"/>
<path d="M120.608 191.641C120.608 191.641 124.38 214.197 124.888 219.874C125.412 225.49 128.121 243.64 128.121 243.64L119.785 243.401L112.676 212.494L120.608 191.641Z" fill="#108EFF"/>
<path d="M47.813 171.371C47.6633 172.387 46.7653 187.564 48.247 191.403C49.5939 194.914 53.126 196.064 59.4268 196.557C64.7547 196.975 92.3674 195.556 100.749 195.078C101.886 195.018 102.709 196.348 102.35 197.632L89.928 241.685L97.2464 245.614C97.2464 245.614 114.113 214.707 116.762 207.342C119.411 199.978 123.063 187.235 122.854 184.278C122.854 184.278 123.467 178.631 117.166 177.899C110.985 177.182 91.2899 173.388 90.5565 173.238C90.5416 173.238 90.5266 173.238 90.5116 173.238L84.0462 172.506C84.0312 172.506 84.0163 172.506 84.0013 172.506L47.813 171.371Z" fill="#0083F9"/>
<path d="M91.0656 171.638C90.5118 171.519 88.671 171.623 88.686 172.998C88.7009 174.252 90.9309 174.417 91.335 174.476C91.6493 174.521 116.852 178.151 118.484 178.39C118.529 178.405 118.589 178.405 118.633 178.42C119.052 178.51 121.357 178.883 122.839 176.448C124.38 173.894 136.653 155.311 137.97 153.324C138.03 153.234 138.09 153.145 138.164 153.055C138.419 152.741 139.137 151.681 138.284 150.456C137.266 148.977 135.635 151.442 135.635 151.442L120.833 174.88C120.489 175.418 120.025 175.821 119.486 175.985H119.472C119.247 176.045 119.023 176.06 118.798 176.015" fill="#023EA1"/>
<path d="M128.062 243.358C128.077 243.358 128.107 243.358 128.122 243.373C128.571 243.791 135.366 250.065 138.898 251.484C139.242 251.619 139.571 251.768 139.9 251.917C140.17 252.037 140.424 252.171 140.679 252.321C140.873 252.44 141.068 252.56 141.262 252.694C141.397 252.799 141.532 252.903 141.666 253.023C141.756 253.113 141.846 253.202 141.936 253.307C141.996 253.381 142.04 253.456 142.085 253.546C142.115 253.605 142.145 253.665 142.16 253.725C142.175 253.8 142.175 253.859 142.16 253.934C142.16 254.009 142.16 254.069 142.16 254.143C142.16 254.218 142.16 254.293 142.16 254.367C142.16 254.397 142.13 254.427 142.1 254.427L119.666 251.514C119.606 251.499 119.546 251.484 119.501 251.454C119.262 251.29 118.618 250.693 118.783 249.303C118.962 247.735 119.666 244.09 119.786 243.492C119.801 243.448 119.831 243.418 119.875 243.403L128.062 243.358Z" fill="#2B2377"/>
<path d="M97.2324 245.613C97.2324 245.613 101.094 255.427 103.743 257.638C105.763 259.326 105.164 260.73 104.775 261.298C104.656 261.477 104.461 261.567 104.266 261.537C103.788 261.477 102.74 261.223 101.707 260.342C100.285 259.117 86.2621 248.81 86.2621 248.81C86.2621 248.81 85.6484 247.331 86.6661 245.867C87.6838 244.388 89.9138 241.699 89.9138 241.699L97.2324 245.613Z" fill="#2B2377"/>
</g>
<defs>
<clipPath id="clip0_137_12634">
<rect width="314.454" height="285.673" fill="white"/>
</clipPath>
<clipPath id="clip1_137_12634">
<rect width="335.773" height="268.618" fill="white" transform="translate(-10.6594)"/>
</clipPath>
</defs>
</svg>
