<svg width="315" height="286" viewBox="0 0 315 286" fill="none" xmlns="http://www.w3.org/2000/svg">
<path d="M270.482 207.873C267.238 210.355 260.881 209.44 257.247 204.738C253.614 200.166 248.554 203.431 246.867 207.481C245.181 211.53 241.807 215.972 237.655 216.102C233.503 216.233 224.291 219.107 222.604 225.638C220.917 232.17 237.785 232.039 241.548 230.733C245.31 229.426 247.905 233.476 255.042 236.089C262.048 238.701 262.567 232.692 263.995 229.949C265.422 227.206 266.979 224.593 273.726 226.683C280.473 228.773 280.343 215.841 280.343 215.841C280.214 207.35 273.726 205.391 270.482 207.873Z" fill="#033E9F"/>
<path d="M216.894 224.335L271.649 217.02" stroke="white" stroke-width="0.828335" stroke-miterlimit="10" stroke-linecap="round" stroke-linejoin="round"/>
<path d="M254.654 208.396L249.464 220.022L258.287 229.558" stroke="white" stroke-width="0.828335" stroke-miterlimit="10" stroke-linecap="round" stroke-linejoin="round"/>
<path d="M251.798 187.497C252.576 191.547 258.804 193.376 248.424 200.168C238.044 206.961 252.966 207.745 242.196 219.763C231.427 231.78 222.214 217.673 219.1 208.529C215.986 199.254 226.885 200.821 230.908 195.727C234.93 190.632 229.87 189.196 229.61 184.362C229.351 179.529 238.952 178.615 242.326 178.876C245.699 179.137 244.402 175.871 247.256 172.475C250.111 169.079 257.507 170.777 259.064 175.61C260.621 180.443 254.912 182.795 254.912 182.795C254.912 182.795 251.019 183.448 251.798 187.497Z" fill="#EC384E"/>
<path d="M216.375 225.512C216.375 225.512 220.137 224.467 229.609 212.711C239.081 201.085 244.92 185.54 244.92 185.54" stroke="white" stroke-width="0.828335" stroke-miterlimit="10" stroke-linecap="round" stroke-linejoin="round"/>
<path d="M266.59 194.16C251.669 204.349 237.266 226.295 237.266 226.295" stroke="#FABC42" stroke-width="0.828335" stroke-miterlimit="10"/>
<path d="M265.033 195.333C273.337 196.639 276.84 189.324 276.84 189.324C267.109 188.54 265.033 195.333 265.033 195.333Z" stroke="#FABC42" stroke-width="0.828335" stroke-miterlimit="10"/>
<path d="M266.98 206.171C259.843 200.815 253.875 205.387 253.875 205.387C262.957 211.788 266.98 206.171 266.98 206.171Z" stroke="#FABC42" stroke-width="0.828335" stroke-miterlimit="10"/>
<path d="M255.69 217.014C247.646 213.226 242.715 218.712 242.715 218.712C252.836 223.284 255.69 217.014 255.69 217.014Z" stroke="#FABC42" stroke-width="0.828335" stroke-miterlimit="10"/>
<path d="M241.937 205.522C246.998 212.838 242.456 218.716 242.456 218.716C236.358 209.311 242.067 205.522 241.937 205.522Z" stroke="#FABC42" stroke-width="0.828335" stroke-miterlimit="10"/>
<path d="M255.301 192.198C259.323 200.167 254.133 205.392 254.133 205.392C249.202 195.333 255.301 192.198 255.301 192.198Z" stroke="#FABC42" stroke-width="0.828335" stroke-miterlimit="10"/>
<path d="M59.62 50.0071C60.2794 49.6114 61.1367 49.6114 61.7962 50.0071C61.994 50.139 62.1919 50.205 62.3238 50.3368C62.5216 50.4687 62.7194 50.5347 62.9173 50.6006C63.6427 50.9304 64.1043 51.5898 64.1043 52.3812L64.1702 55.085L72.8751 54.8212L72.8092 52.1174C72.8092 51.326 73.2048 50.6006 73.9303 50.205C74.3259 50.0071 74.6557 49.7433 75.0513 49.5455C75.7108 49.0839 76.5021 49.0179 77.2276 49.4136L79.6016 50.6666L83.7562 42.9509L81.3822 41.6979C80.7227 41.3022 80.2611 40.5768 80.327 39.7855C80.327 39.3239 80.327 38.9282 80.2611 38.4666C80.1951 37.6752 80.5249 36.9498 81.2503 36.4882L83.5584 35.1033L78.9422 27.6514L76.5681 29.1682C75.9086 29.5639 75.0513 29.5639 74.3919 29.1682C74.194 29.0363 73.9962 28.9703 73.8643 28.8384C73.6665 28.7066 73.4686 28.6406 73.2708 28.5747C72.5454 28.2449 72.0838 27.5855 72.0838 26.7941L72.0178 24.0903L63.3129 24.3541L63.3789 27.0579C63.3789 27.8493 62.9832 28.5747 62.2578 28.9703C61.8621 29.1682 61.5324 29.432 61.1367 29.6298C60.4773 30.0914 59.6859 30.1574 58.9605 29.7617L56.5865 28.5087L52.4978 36.1585L54.8719 37.4114C55.5313 37.8071 55.9929 38.5325 55.927 39.3239C55.927 39.7855 55.927 40.1812 55.9929 40.6428C56.0589 41.4341 55.7292 42.1595 55.0038 42.6212L52.7616 44.006L57.3778 51.4579L59.62 50.0071ZM61.7962 36.2244C63.6427 32.7293 67.9951 31.4103 71.4903 33.3228C74.9854 35.1693 76.3043 39.5217 74.3919 43.0168C72.5454 46.512 68.193 47.8309 64.6978 45.9185C61.2686 44.006 59.9497 39.6536 61.7962 36.2244Z" fill="#0064E1"/>
<path d="M261.612 155.121C261.876 154.66 262.404 154.396 262.931 154.396C263.063 154.396 263.261 154.396 263.393 154.396C263.525 154.396 263.722 154.396 263.854 154.396C264.382 154.396 264.91 154.66 265.173 155.121L266.097 156.77L271.372 153.736L270.449 152.088C270.185 151.626 270.185 151.033 270.515 150.571C270.713 150.307 270.845 150.043 270.977 149.78C271.24 149.318 271.702 148.988 272.295 148.988H274.142V142.855H272.295C271.768 142.855 271.24 142.526 270.977 142.064C270.845 141.8 270.713 141.536 270.515 141.273C270.185 140.811 270.185 140.218 270.449 139.756L271.372 138.107L266.097 135.074L265.173 136.722C264.91 137.184 264.382 137.448 263.854 137.448C263.722 137.448 263.525 137.448 263.393 137.448C263.261 137.448 263.063 137.448 262.931 137.448C262.404 137.448 261.876 137.184 261.612 136.722L260.689 135.074L255.413 138.107L256.337 139.756C256.6 140.218 256.6 140.811 256.271 141.273C256.073 141.536 255.941 141.8 255.809 142.064C255.545 142.526 255.084 142.855 254.49 142.855H252.644V148.988H254.49C255.018 148.988 255.545 149.318 255.809 149.78C255.941 150.043 256.073 150.307 256.271 150.571C256.6 151.033 256.6 151.626 256.337 152.088L255.413 153.736L260.689 156.77L261.612 155.121ZM258.381 145.889C258.381 143.119 260.623 140.877 263.393 140.877C266.162 140.877 268.405 143.119 268.405 145.889C268.405 148.659 266.162 150.901 263.393 150.901C260.623 150.901 258.381 148.659 258.381 145.889Z" fill="#0064E1"/>
<path d="M34.693 62.0057C35.1546 62.2695 35.4184 62.7971 35.4184 63.3247C35.4184 63.4566 35.4184 63.6544 35.4184 63.7863C35.4184 63.9182 35.4184 64.116 35.4184 64.2479C35.4184 64.7755 35.1546 65.303 34.693 65.5668L33.0443 66.556L36.0778 71.8317L37.7265 70.9085C38.1881 70.6447 38.7816 70.6447 39.2432 70.9744C39.507 71.1722 39.7708 71.3041 40.0346 71.436C40.4962 71.6998 40.8259 72.1614 40.8259 72.7549V74.6014H46.9589V72.7549C46.9589 72.2274 47.2886 71.6998 47.7503 71.436C48.0141 71.3041 48.2778 71.1722 48.5416 70.9744C49.0032 70.6447 49.5968 70.6447 50.0584 70.9085L51.707 71.8317L54.7406 66.556L53.0919 65.6328C52.6303 65.369 52.3665 64.8414 52.3665 64.3138C52.3665 64.182 52.3665 63.9841 52.3665 63.8522C52.3665 63.7203 52.3665 63.5225 52.3665 63.3906C52.3665 62.863 52.6303 62.3355 53.0919 62.0717L54.7406 61.1484L51.707 55.8728L50.0584 56.796C49.5968 57.0598 49.0032 57.0598 48.5416 56.7301C48.2778 56.5322 48.0141 56.4003 47.7503 56.2684C47.2886 56.0047 46.9589 55.543 46.9589 54.9495V53.103H40.8259V54.9495C40.8259 55.4771 40.4962 56.0047 40.0346 56.2684C39.7708 56.4003 39.507 56.5322 39.2432 56.7301C38.7816 57.0598 38.1881 57.0598 37.7265 56.796L36.0778 55.8728L33.0443 61.1484L34.693 62.0057ZM43.9254 58.7744C46.6951 58.7744 48.9373 61.0166 48.9373 63.7863C48.9373 66.556 46.6951 68.7982 43.9254 68.7982C41.1557 68.7982 38.9135 66.556 38.9135 63.7863C38.9135 61.0166 41.1557 58.7744 43.9254 58.7744Z" fill="#EC384E"/>
<path d="M222.377 8.52783H110.929C104.73 8.52783 99.6519 13.6716 99.6519 20.0024V249.495C99.6519 255.825 104.73 260.969 110.929 260.969H222.377C228.576 260.969 233.654 255.825 233.654 249.495V20.0024C233.654 13.6716 228.576 8.52783 222.377 8.52783ZM226.598 242.438C226.598 248.505 222.048 253.385 216.508 253.385H116.798C111.192 253.385 106.708 248.505 106.708 242.438V28.7073C106.708 16.3754 111.258 15.7819 116.798 15.7819H136.779C137.966 15.7819 138.89 17.1008 138.89 18.7495V19.4749C138.89 23.2997 141 23.2997 143.572 23.2997H189.8C192.372 23.2997 194.482 23.2997 194.482 19.4749V18.7495C194.482 17.1008 195.405 15.7819 196.592 15.7819H216.574C222.18 15.7819 226.664 17.4305 226.664 28.7073V242.438H226.598Z" fill="#0064B7"/>
<path d="M172.918 18.55H160.322C159.86 18.55 159.531 18.2203 159.531 17.7586C159.531 17.297 159.86 16.9673 160.322 16.9673H172.918C173.379 16.9673 173.709 17.297 173.709 17.7586C173.709 18.2203 173.379 18.55 172.918 18.55Z" fill="white"/>
<path d="M226.6 28.7135V242.445C226.6 248.512 222.05 253.392 216.51 253.392H116.8C111.194 253.392 106.71 248.512 106.71 242.445V28.7135C106.71 16.3816 111.26 15.7881 116.8 15.7881H136.781C137.968 15.7881 138.892 17.107 138.892 18.7557V19.4811C138.892 23.3059 141.002 23.3059 143.574 23.3059H189.802C192.374 23.3059 194.484 23.3059 194.484 19.4811V18.7557C194.484 17.107 195.407 15.7881 196.594 15.7881H216.576C222.116 15.854 226.6 17.4367 226.6 28.7135Z" fill="white"/>
<path d="M118.779 36.8866L115.284 33.5893L118.779 30.2261L119.372 30.8196L116.405 33.5893L119.372 36.2931L118.779 36.8866Z" fill="#C7C7C7"/>
<path d="M217.301 31.4778C217.301 31.8735 216.971 32.2033 216.576 32.2033C216.18 32.2033 215.85 31.8735 215.85 31.4778C215.85 31.0822 216.18 30.7524 216.576 30.7524C216.971 30.7524 217.301 31.0822 217.301 31.4778Z" fill="#C7C7C7"/>
<path d="M217.301 33.9822C217.301 34.3779 216.971 34.7076 216.576 34.7076C216.18 34.7076 215.85 34.3779 215.85 33.9822C215.85 33.5866 216.18 33.2568 216.576 33.2568C216.971 33.2568 217.301 33.5866 217.301 33.9822Z" fill="#C7C7C7"/>
<path d="M217.301 36.4866C217.301 36.8823 216.971 37.212 216.576 37.212C216.18 37.212 215.85 36.8823 215.85 36.4866C215.85 36.091 216.18 35.7612 216.576 35.7612C216.971 35.7612 217.301 36.091 217.301 36.4866Z" fill="#C7C7C7"/>
<path d="M133.285 20.6044C133.219 20.6703 133.153 20.7363 133.087 20.8022C133.021 20.8682 133.021 20.8682 132.955 20.9341C132.428 20.4065 131.834 20.1427 131.109 20.1427C130.383 20.1427 129.79 20.4065 129.262 20.9341C129.196 20.8682 129.196 20.8682 129.13 20.8022C129.064 20.7363 128.999 20.6703 128.933 20.6044C128.999 20.5384 129.064 20.4725 129.196 20.4065C129.394 20.2746 129.592 20.1427 129.79 20.0768C130.054 19.9449 130.251 19.879 130.515 19.813C130.647 19.813 130.779 19.7471 130.911 19.7471C130.977 19.7471 131.241 19.7471 131.241 19.7471C131.307 19.7471 131.439 19.7471 131.504 19.7471C131.768 19.7471 131.966 19.813 132.164 19.879C132.296 19.9449 132.494 20.0109 132.626 20.0768C132.757 20.1427 132.955 20.2746 133.087 20.4065C133.153 20.4725 133.219 20.5384 133.285 20.6044Z" fill="#C7C7C7"/>
<path d="M129.922 21.5269C129.79 21.395 129.724 21.3291 129.592 21.1972C129.922 20.8675 130.317 20.6696 130.845 20.6037C131.57 20.5377 132.164 20.7356 132.691 21.1972C132.559 21.3291 132.493 21.395 132.362 21.5269C132.032 21.1972 131.57 20.9993 131.109 20.9993C130.647 20.9993 130.251 21.1972 129.922 21.5269Z" fill="#C7C7C7"/>
<path d="M132.099 21.8542C131.967 21.9861 131.901 22.052 131.769 22.1839C131.571 21.9861 131.374 21.9201 131.11 21.9201C130.846 21.9201 130.648 21.9861 130.45 22.1839C130.318 22.052 130.252 21.9861 130.121 21.8542C130.714 21.3266 131.571 21.3266 132.099 21.8542Z" fill="#C7C7C7"/>
<path d="M131.438 22.4523C131.438 22.5842 131.306 22.7161 131.174 22.7161C131.042 22.7161 130.911 22.5842 130.911 22.4523C130.911 22.3204 131.042 22.1885 131.174 22.1885C131.306 22.1226 131.438 22.2545 131.438 22.4523Z" fill="#C7C7C7"/>
<path d="M114.494 21.1981C114.494 20.7365 114.823 20.4067 115.285 20.4067C115.747 20.4067 116.076 20.7365 116.076 21.1981C116.076 21.6597 115.747 21.9894 115.285 21.9894C114.823 21.9894 114.494 21.6597 114.494 21.1981Z" fill="#C7C7C7"/>
<path d="M116.998 21.1981C116.998 20.7365 117.328 20.4067 117.79 20.4067C118.251 20.4067 118.581 20.7365 118.581 21.1981C118.581 21.6597 118.251 21.9894 117.79 21.9894C117.328 21.9894 116.998 21.6597 116.998 21.1981Z" fill="#C7C7C7"/>
<path d="M119.505 21.1981C119.505 20.7365 119.834 20.4067 120.296 20.4067C120.758 20.4067 121.087 20.7365 121.087 21.1981C121.087 21.6597 120.758 21.9894 120.296 21.9894C119.834 21.9894 119.505 21.6597 119.505 21.1981Z" fill="#C7C7C7"/>
<path d="M122.011 21.1981C122.011 20.7365 122.341 20.4067 122.803 20.4067C123.264 20.4067 123.594 20.7365 123.594 21.1981C123.594 21.6597 123.264 21.9894 122.803 21.9894C122.341 21.9894 122.011 21.6597 122.011 21.1981Z" fill="#C7C7C7"/>
<path d="M124.518 21.1981C124.518 20.7365 124.847 20.4067 125.309 20.4067C125.771 20.4067 126.1 20.7365 126.1 21.1981C126.1 21.6597 125.771 21.9894 125.309 21.9894C124.847 21.9894 124.518 21.6597 124.518 21.1981Z" fill="#C7C7C7"/>
<path d="M217.632 22.9827H211.169V19.9492H217.632V22.9827ZM211.499 22.5871H217.302V20.2789H211.499V22.5871Z" fill="#C7C7C7"/>
<path d="M215.851 20.478H211.697V22.4564H215.851V20.478Z" fill="#C7C7C7"/>
<path d="M218.225 20.6763H217.631V22.259H218.225V20.6763Z" fill="#C7C7C7"/>
<path d="M124.911 240.27H123.987V244.49H122.273V242.38H119.239V244.49H117.525V240.27H116.667L120.756 236.049L124.911 240.27Z" fill="#EBEBEB"/>
<path d="M216.64 236.046H206.682V237.497H216.64V236.046Z" fill="#EBEBEB"/>
<path d="M216.64 239.542H206.682V240.993H216.64V239.542Z" fill="#EBEBEB"/>
<path d="M216.64 243.038H206.682V244.489H216.64V243.038Z" fill="#EBEBEB"/>
<path d="M169.49 239.676L166.655 242.71L163.819 239.676L164.281 239.215L166.655 241.721L168.963 239.215L169.49 239.676Z" fill="#EBEBEB"/>
<path d="M166.655 245.808C163.819 245.808 161.511 243.5 161.511 240.664C161.511 237.829 163.819 235.521 166.655 235.521C169.49 235.521 171.798 237.829 171.798 240.664C171.798 243.5 169.49 245.808 166.655 245.808ZM166.655 236.246C164.215 236.246 162.17 238.224 162.17 240.73C162.17 243.236 164.149 245.215 166.655 245.215C169.095 245.215 171.139 243.236 171.139 240.73C171.139 238.224 169.095 236.246 166.655 236.246Z" fill="#EBEBEB"/>
<path d="M215.59 207.613H142.643C142.209 207.613 141.857 207.965 141.857 208.399C141.857 208.833 142.209 209.185 142.643 209.185H215.59C216.024 209.185 216.376 208.833 216.376 208.399C216.376 207.965 216.024 207.613 215.59 207.613Z" fill="#DCE8F5"/>
<path d="M215.59 211.447H142.643C142.209 211.447 141.857 211.799 141.857 212.233C141.857 212.667 142.209 213.019 142.643 213.019H215.59C216.024 213.019 216.376 212.667 216.376 212.233C216.376 211.799 216.024 211.447 215.59 211.447Z" fill="#DCE8F5"/>
<path d="M215.59 215.376H142.643C142.209 215.376 141.857 215.728 141.857 216.163C141.857 216.597 142.209 216.949 142.643 216.949H215.59C216.024 216.949 216.376 216.597 216.376 216.163C216.376 215.728 216.024 215.376 215.59 215.376Z" fill="#DCE8F5"/>
<path d="M215.59 219.695H142.643C142.209 219.695 141.857 220.047 141.857 220.481C141.857 220.916 142.209 221.267 142.643 221.267H215.59C216.024 221.267 216.376 220.916 216.376 220.481C216.376 220.047 216.024 219.695 215.59 219.695Z" fill="#DCE8F5"/>
<path d="M201.47 114.63C201.47 114.63 196.458 154.923 188.149 163.957C178.257 174.838 171.003 173.256 167.046 178.861C163.024 173.256 155.836 174.838 145.878 163.957C137.635 154.923 132.623 114.63 132.623 114.63C154.385 104.078 167.046 92.208 167.046 92.208C167.442 92.6037 180.038 104.21 201.47 114.63Z" fill="#0064B7"/>
<path d="M167.046 92.208V178.861C163.024 173.256 155.836 174.838 145.878 163.957C137.634 154.923 132.623 114.63 132.623 114.63C154.385 104.078 167.046 92.208 167.046 92.208Z" fill="#0064B7"/>
<path d="M196.129 117.865C196.129 117.865 191.908 151.894 184.918 159.543C176.543 168.71 170.41 167.391 167.046 172.139C163.683 167.391 157.55 168.776 149.175 159.543C142.185 151.894 137.964 117.865 137.964 117.865C156.363 108.963 167.046 98.939 167.046 98.939C167.046 98.939 177.73 108.963 196.129 117.865Z" fill="#005397"/>
<path d="M137.964 117.865C137.964 117.865 142.185 151.894 149.175 159.543C157.55 168.71 163.617 167.391 167.046 172.139V98.939C166.717 99.2687 156.099 109.095 137.964 117.865Z" fill="#004D8C"/>
<path d="M176.6 145.111C181.88 139.832 181.88 131.272 176.6 125.993C171.321 120.713 162.761 120.713 157.482 125.993C152.202 131.272 152.202 139.832 157.482 145.111C162.761 150.39 171.321 150.39 176.6 145.111Z" fill="#0064B5"/>
<path d="M165.531 144.306L159.53 138.041L161.772 135.93L165.069 139.36L172.191 128.413L174.763 130.127L165.531 144.306Z" fill="white"/>
<path d="M117.626 221.45H132.558C133.827 221.45 134.901 220.369 134.901 218.994V206.711L122.896 206.81V205.139H117.626V212.803V220.566V221.45Z" fill="#407CCA"/>
<path d="M130.509 203.663H120.163V215.454H130.509V203.663Z" fill="white"/>
<path d="M133.828 221.352L133.73 209.561H120.847V213.098H115.479V221.45" fill="#0064B5"/>
<path d="M134.998 209.561V220.173C134.998 220.861 134.51 221.352 133.827 221.352C133.144 221.352 132.656 220.861 132.656 220.173V209.561H134.998Z" fill="#407CCA"/>
<path d="M129.827 205.436H120.946V205.73H129.827V205.436Z" fill="#407CCA"/>
<path d="M129.827 206.222H120.946V206.516H129.827V206.222Z" fill="#407CCA"/>
<path d="M129.827 207.007H120.946V207.302H129.827V207.007Z" fill="#407CCA"/>
<path d="M124.947 207.889H120.946V208.184H124.947V207.889Z" fill="#407CCA"/>
<path d="M207.545 59.5488H156.626C156.403 59.5488 156.222 59.7298 156.222 59.953C156.222 60.1762 156.403 60.3571 156.626 60.3571H207.545C207.769 60.3571 207.95 60.1762 207.95 59.953C207.95 59.7298 207.769 59.5488 207.545 59.5488Z" fill="#0064B7"/>
<path d="M213.671 48.6948H150.614C148.327 48.6948 146.472 50.5491 146.472 52.8365V74.2289C146.472 76.5162 148.327 78.3705 150.614 78.3705H213.671C215.958 78.3705 217.812 76.5162 217.812 74.2289V52.8365C217.812 50.5491 215.958 48.6948 213.671 48.6948Z" stroke="#407CCA" stroke-width="0.414167" stroke-miterlimit="10"/>
<path d="M156.453 55.2363V52.8304H157.456C157.562 52.8304 157.659 52.853 157.747 52.8982C157.836 52.9411 157.912 52.9998 157.978 53.0744C158.043 53.1467 158.094 53.2291 158.13 53.3217C158.167 53.4121 158.185 53.5047 158.185 53.5996C158.185 53.7306 158.155 53.856 158.097 53.9758C158.038 54.0932 157.955 54.1892 157.849 54.2638C157.743 54.3361 157.619 54.3722 157.476 54.3722H156.758V55.2363H156.453ZM156.758 54.1011H157.459C157.543 54.1011 157.615 54.0785 157.676 54.0334C157.74 53.9882 157.788 53.9272 157.822 53.8504C157.858 53.7736 157.876 53.69 157.876 53.5996C157.876 53.5047 157.856 53.42 157.815 53.3455C157.775 53.2687 157.721 53.2088 157.656 53.1659C157.59 53.1229 157.518 53.1015 157.439 53.1015H156.758V54.1011ZM158.564 55.2363V52.8304H159.594C159.701 52.8304 159.798 52.853 159.886 52.8982C159.974 52.9411 160.051 52.9998 160.116 53.0744C160.182 53.1467 160.233 53.2291 160.269 53.3217C160.305 53.4121 160.323 53.5047 160.323 53.5996C160.323 53.7103 160.302 53.8154 160.259 53.9148C160.218 54.0142 160.159 54.0989 160.082 54.1689C160.008 54.2389 159.92 54.2875 159.818 54.3146L160.401 55.2363H160.055L159.506 54.3722H158.869V55.2363H158.564ZM158.869 54.1011H159.598C159.681 54.1011 159.754 54.0785 159.815 54.0334C159.878 53.9859 159.927 53.9238 159.96 53.847C159.997 53.7702 160.015 53.6877 160.015 53.5996C160.015 53.5092 159.994 53.4268 159.954 53.3522C159.913 53.2754 159.86 53.2144 159.794 53.1693C159.729 53.1241 159.657 53.1015 159.577 53.1015H158.869V54.1011ZM161.767 55.2533C161.598 55.2533 161.444 55.2194 161.306 55.1516C161.169 55.0838 161.049 54.9923 160.947 54.8771C160.848 54.7597 160.771 54.6286 160.717 54.484C160.663 54.3372 160.636 54.187 160.636 54.0334C160.636 53.873 160.664 53.7205 160.72 53.5759C160.779 53.4291 160.859 53.2992 160.961 53.1862C161.065 53.071 161.186 52.9806 161.323 52.9151C161.461 52.8473 161.611 52.8134 161.774 52.8134C161.944 52.8134 162.097 52.8485 162.235 52.9185C162.373 52.9885 162.491 53.0823 162.591 53.1998C162.69 53.3172 162.767 53.4483 162.821 53.5928C162.875 53.7374 162.903 53.8854 162.903 54.0367C162.903 54.1971 162.874 54.3508 162.818 54.4976C162.761 54.6422 162.681 54.7721 162.577 54.8873C162.476 55.0003 162.356 55.0895 162.218 55.155C162.08 55.2205 161.93 55.2533 161.767 55.2533ZM160.944 54.0334C160.944 54.1554 160.963 54.274 161.001 54.3892C161.042 54.5021 161.099 54.6027 161.171 54.6908C161.243 54.7789 161.33 54.8489 161.432 54.9009C161.534 54.9528 161.646 54.9788 161.771 54.9788C161.899 54.9788 162.015 54.9517 162.116 54.8975C162.218 54.8432 162.304 54.771 162.374 54.6806C162.446 54.5902 162.5 54.4886 162.537 54.3756C162.575 54.2627 162.594 54.1486 162.594 54.0334C162.594 53.9114 162.574 53.7939 162.533 53.6809C162.495 53.568 162.438 53.4675 162.364 53.3794C162.291 53.289 162.204 53.219 162.103 53.1693C162.003 53.1173 161.893 53.0913 161.771 53.0913C161.642 53.0913 161.527 53.1184 161.425 53.1726C161.323 53.2246 161.236 53.2958 161.164 53.3861C161.094 53.4765 161.04 53.5782 161.001 53.6911C160.963 53.8018 160.944 53.9159 160.944 54.0334ZM163.326 55.2363V52.8304H164.916V53.1015H163.631V53.9046H164.712V54.1587H163.631V55.2363H163.326ZM165.302 55.2363V52.8304H165.607V55.2363H165.302ZM166.182 55.2363V52.8304H166.487V54.9652H167.829V55.2363H166.182ZM169.794 54.9652V55.2363H168.161V52.8304H169.764V53.1015H168.466V53.8809H169.594V54.135H168.466V54.9652H169.794ZM171.375 53.3929V55.2363H171.07V52.8304H171.327L172.798 54.7111V52.8338H173.103V55.2363H172.825L171.375 53.3929ZM173.678 55.2363V52.8304H175.267V53.1015H173.982V53.9046H175.063V54.1587H173.982V55.2363H173.678ZM176.586 55.2533C176.417 55.2533 176.263 55.2194 176.125 55.1516C175.987 55.0838 175.868 54.9923 175.766 54.8771C175.667 54.7597 175.59 54.6286 175.536 54.484C175.481 54.3372 175.454 54.187 175.454 54.0334C175.454 53.873 175.482 53.7205 175.539 53.5759C175.598 53.4291 175.678 53.2992 175.78 53.1862C175.883 53.071 176.004 52.9806 176.142 52.9151C176.28 52.8473 176.43 52.8134 176.593 52.8134C176.762 52.8134 176.916 52.8485 177.054 52.9185C177.191 52.9885 177.31 53.0823 177.409 53.1998C177.509 53.3172 177.586 53.4483 177.64 53.5928C177.694 53.7374 177.721 53.8854 177.721 54.0367C177.721 54.1971 177.693 54.3508 177.637 54.4976C177.58 54.6422 177.5 54.7721 177.396 54.8873C177.294 55.0003 177.175 55.0895 177.037 55.155C176.899 55.2205 176.749 55.2533 176.586 55.2533ZM175.763 54.0334C175.763 54.1554 175.782 54.274 175.82 54.3892C175.861 54.5021 175.917 54.6027 175.99 54.6908C176.062 54.7789 176.149 54.8489 176.251 54.9009C176.352 54.9528 176.465 54.9788 176.589 54.9788C176.718 54.9788 176.833 54.9517 176.935 54.8975C177.037 54.8432 177.123 54.771 177.193 54.6806C177.265 54.5902 177.319 54.4886 177.355 54.3756C177.394 54.2627 177.413 54.1486 177.413 54.0334C177.413 53.9114 177.393 53.7939 177.352 53.6809C177.313 53.568 177.257 53.4675 177.182 53.3794C177.11 53.289 177.023 53.219 176.921 53.1693C176.822 53.1173 176.711 53.0913 176.589 53.0913C176.461 53.0913 176.345 53.1184 176.244 53.1726C176.142 53.2246 176.055 53.2958 175.983 53.3861C175.913 53.4765 175.859 53.5782 175.82 53.6911C175.782 53.8018 175.763 53.9159 175.763 54.0334ZM178.145 55.2363V52.8304H179.175C179.281 52.8304 179.378 52.853 179.467 52.8982C179.555 52.9411 179.631 52.9998 179.697 53.0744C179.762 53.1467 179.813 53.2291 179.849 53.3217C179.886 53.4121 179.904 53.5047 179.904 53.5996C179.904 53.7103 179.882 53.8154 179.839 53.9148C179.799 54.0142 179.74 54.0989 179.663 54.1689C179.589 54.2389 179.5 54.2875 179.399 54.3146L179.982 55.2363H179.636L179.087 54.3722H178.45V55.2363H178.145ZM178.45 54.1011H179.178C179.262 54.1011 179.334 54.0785 179.395 54.0334C179.459 53.9859 179.507 53.9238 179.541 53.847C179.577 53.7702 179.595 53.6877 179.595 53.5996C179.595 53.5092 179.575 53.4268 179.534 53.3522C179.494 53.2754 179.441 53.2144 179.375 53.1693C179.31 53.1241 179.237 53.1015 179.158 53.1015H178.45V54.1011ZM182.453 55.2363V53.3997L181.66 54.8127H181.473L180.677 53.3997V55.2363H180.372V52.8304H180.694L181.565 54.3926L182.439 52.8304H182.758V55.2363H182.453ZM184.066 52.8304H184.323L185.306 55.2363H184.981L184.696 54.5315H183.686L183.405 55.2363H183.08L184.066 52.8304ZM184.628 54.2943L184.195 53.1828L183.747 54.2943H184.628ZM187.134 53.1015H186.304V55.2363H185.999V53.1015H185.168V52.8304H187.134V53.1015ZM187.48 55.2363V52.8304H187.785V55.2363H187.48ZM189.336 55.2533C189.167 55.2533 189.013 55.2194 188.876 55.1516C188.738 55.0838 188.618 54.9923 188.516 54.8771C188.417 54.7597 188.34 54.6286 188.286 54.484C188.232 54.3372 188.205 54.187 188.205 54.0334C188.205 53.873 188.233 53.7205 188.289 53.5759C188.348 53.4291 188.428 53.2992 188.53 53.1862C188.634 53.071 188.755 52.9806 188.893 52.9151C189.03 52.8473 189.181 52.8134 189.343 52.8134C189.513 52.8134 189.666 52.8485 189.804 52.9185C189.942 52.9885 190.06 53.0823 190.16 53.1998C190.259 53.3172 190.336 53.4483 190.39 53.5928C190.445 53.7374 190.472 53.8854 190.472 54.0367C190.472 54.1971 190.443 54.3508 190.387 54.4976C190.33 54.6422 190.25 54.7721 190.146 54.8873C190.045 55.0003 189.925 55.0895 189.787 55.155C189.649 55.2205 189.499 55.2533 189.336 55.2533ZM188.513 54.0334C188.513 54.1554 188.532 54.274 188.571 54.3892C188.611 54.5021 188.668 54.6027 188.74 54.6908C188.812 54.7789 188.899 54.8489 189.001 54.9009C189.103 54.9528 189.216 54.9788 189.34 54.9788C189.469 54.9788 189.584 54.9517 189.685 54.8975C189.787 54.8432 189.873 54.771 189.943 54.6806C190.015 54.5902 190.07 54.4886 190.106 54.3756C190.144 54.2627 190.163 54.1486 190.163 54.0334C190.163 53.9114 190.143 53.7939 190.102 53.6809C190.064 53.568 190.007 53.4675 189.933 53.3794C189.861 53.289 189.774 53.219 189.672 53.1693C189.573 53.1173 189.462 53.0913 189.34 53.0913C189.211 53.0913 189.096 53.1184 188.994 53.1726C188.893 53.2246 188.806 53.2958 188.733 53.3861C188.663 53.4765 188.609 53.5782 188.571 53.6911C188.532 53.8018 188.513 53.9159 188.513 54.0334ZM191.2 53.3929V55.2363H190.895V52.8304H191.153L192.624 54.7111V52.8338H192.929V55.2363H192.651L191.2 53.3929Z" fill="#407CCA"/>
<path d="M207.544 62.6655H156.625C156.402 62.6655 156.221 62.8465 156.221 63.0697C156.221 63.2929 156.402 63.4738 156.625 63.4738H207.544C207.768 63.4738 207.948 63.2929 207.948 63.0697C207.948 62.8465 207.768 62.6655 207.544 62.6655Z" fill="#0064B7"/>
<path d="M207.544 65.5518H156.625C156.402 65.5518 156.221 65.7327 156.221 65.9559C156.221 66.1791 156.402 66.36 156.625 66.36H207.544C207.768 66.36 207.948 66.1791 207.948 65.9559C207.948 65.7327 207.768 65.5518 207.544 65.5518Z" fill="#0064B7"/>
<path d="M207.544 68.4385H156.625C156.402 68.4385 156.221 68.6194 156.221 68.8426C156.221 69.0658 156.402 69.2468 156.625 69.2468H207.544C207.768 69.2468 207.948 69.0658 207.948 68.8426C207.948 68.6194 207.768 68.4385 207.544 68.4385Z" fill="#0064B7"/>
<path d="M208.865 61.9734C211.588 61.9734 213.796 59.7504 213.796 57.0082C213.796 54.266 211.588 52.043 208.865 52.043C206.141 52.043 203.933 54.266 203.933 57.0082C203.933 59.7504 206.141 61.9734 208.865 61.9734Z" fill="#EC384E"/>
<path d="M207.49 54.3518L208.293 55.5065C208.523 55.8529 208.637 56.0838 208.867 56.4302C209.096 56.0838 209.211 55.8529 209.44 55.5065L210.243 54.3518H211.275L209.44 56.8921L211.275 59.6634H210.128L209.326 58.5087C209.096 58.1623 208.981 57.9314 208.752 57.5849C208.523 57.9314 208.408 58.1623 208.179 58.5087L207.376 59.6634H206.344L208.293 56.8921L206.458 54.2363L207.49 54.3518Z" fill="white"/>
<path d="M115.481 76.7534H135.196C135.196 76.7534 135.587 64.6675 125.339 64.6675C115.091 64.6675 115.481 76.7534 115.481 76.7534Z" fill="#0064B5"/>
<path d="M125.34 62.4057C128.197 62.4057 130.513 60.0742 130.513 57.198C130.513 54.3218 128.197 51.9902 125.34 51.9902C122.483 51.9902 120.167 54.3218 120.167 57.198C120.167 60.0742 122.483 62.4057 125.34 62.4057Z" fill="#0064B5"/>
<path d="M110.286 140.159L114.156 149.807H102.73L101.44 147.395C101.44 147.395 101.624 142.756 105.31 140.901C108.996 139.231 110.286 140.159 110.286 140.159Z" fill="#F7C5B4"/>
<path d="M53.5217 140.159L49.6514 149.807H61.0778L62.3679 147.395C62.3679 147.395 62.1836 142.756 58.4977 140.901C54.8117 139.231 53.5217 140.159 53.5217 140.159Z" fill="#F7C5B4"/>
<path d="M105.31 214.747C105.495 201.017 103.283 187.287 98.6756 174.299L89.0921 175.227C78.0343 175.969 66.055 174.299 66.055 174.299C61.4476 187.287 59.236 201.017 59.4203 214.747C59.4203 220.128 58.4989 245.547 61.8162 268.925H69.1881L69.5567 264.658C70.4781 248.145 73.2426 230.704 77.1128 214.747C78.4029 209.737 79.693 204.913 81.1674 199.904L82.2731 196.007C83.7475 200.831 85.9591 208.995 87.2492 214.376C91.1194 230.518 94.2524 248.145 95.1739 264.658L95.5425 268.925H102.914C106.416 245.361 105.126 220.128 105.31 214.747Z" fill="#DC051F"/>
<path d="M103.098 268.927C105.494 270.412 108.811 272.267 111.022 274.122C111.575 274.679 112.128 275.236 112.128 275.978C111.944 276.72 111.207 277.277 110.47 277.462C109.18 277.833 108.074 277.648 106.784 277.648C103.835 277.462 100.702 277.277 97.9374 276.349C97.3845 276.163 96.6473 275.792 96.2787 275.236C95.7259 274.494 95.7258 273.38 95.7258 272.267C95.7258 271.154 95.5416 270.04 95.5416 268.742" fill="#160956"/>
<path d="M61.8164 268.927C59.4206 270.412 56.1032 272.267 53.8917 274.122C53.3388 274.679 52.7859 275.236 52.7859 275.978C52.9702 276.72 53.7074 277.277 54.4446 277.462C55.7347 277.833 56.8404 277.648 58.1305 277.648C61.0793 277.462 64.2123 277.277 66.9768 276.349C67.5297 276.163 68.2668 275.792 68.6354 275.236C69.1883 274.494 69.1883 273.38 69.1883 272.267C69.1883 271.154 69.1883 270.04 69.1883 268.742" fill="#160956"/>
<path d="M64.2096 141.833C64.2096 141.833 62.9195 146.286 62.3666 147.4L61.4452 146.286C59.9708 144.431 55.5477 141.648 53.5204 140.349C59.2336 125.877 62.7352 126.433 65.8683 125.877C67.5269 125.506 69.5542 125.135 71.2129 124.949C81.9021 123.279 97.9359 125.877 97.9359 125.877C101.069 126.433 104.571 125.877 110.284 140.349C108.441 141.833 104.018 144.431 102.359 146.286L101.438 147.4C100.885 146.286 99.5946 141.833 99.5946 141.833V142.947C99.4103 153.151 99.226 162.429 98.8574 172.819C98.8574 173.561 98.6731 174.303 98.1202 174.489C98.1202 174.489 92.9599 175.416 80.9806 175.416C80.9806 175.416 66.0526 175.416 65.4997 174.118C65.3154 173.747 65.3154 173.376 65.3154 173.004C65.1311 170.592 65.1311 168.366 64.9468 165.954C64.7625 162.985 64.7625 159.831 64.5782 156.862C64.3939 150.925 64.2096 141.833 64.2096 141.833Z" fill="#0083F9"/>
<path d="M112.311 194.712H52.0464C46.8861 194.712 42.8316 190.63 42.8316 185.435V159.088C42.8316 153.892 46.8861 149.811 52.0464 149.811H112.311C117.472 149.811 121.526 153.892 121.526 159.088V185.435C121.526 190.63 117.472 194.712 112.311 194.712Z" fill="#0064B5"/>
<path d="M121.526 156.679H42.8316V165.028H121.526V156.679Z" fill="#033E9F"/>
<path d="M69.186 167.439H44.8588V172.263H69.186V167.439Z" fill="white"/>
<path d="M83.9291 167.439H72.3184V172.263H83.9291V167.439Z" fill="white"/>
<path d="M123.371 177.638L121.712 170.031V177.452V178.566C120.79 178.195 119.685 177.824 118.763 177.452C118.395 177.267 117.657 177.267 117.473 177.638C117.104 178.009 117.657 178.566 118.026 178.937C118.395 179.308 118.947 179.493 119.5 179.679C118.763 179.493 118.026 179.493 117.473 179.308C117.289 179.308 117.104 179.308 116.92 179.308C116.552 179.493 116.736 180.05 117.104 180.421C117.657 180.792 118.21 181.163 118.947 181.349C118.395 181.349 117.842 181.349 117.289 181.349C117.104 181.349 116.92 181.349 116.736 181.534C116.367 181.905 116.552 182.462 116.92 182.833C117.289 183.204 117.842 183.204 118.395 183.019C118.026 183.204 117.473 183.204 117.104 183.39C116.736 183.575 116.367 183.946 116.552 184.317C116.736 184.689 117.104 184.689 117.289 184.874C118.026 185.06 118.947 185.245 119.685 185.245C120.422 185.245 121.159 185.245 121.896 184.874C122.818 184.317 123.186 183.39 123.555 182.462C123.739 180.607 123.739 178.937 123.371 177.638Z" fill="#F7C5B4"/>
<path d="M47.4404 183.206C47.0718 183.021 46.5189 183.021 46.1503 182.835C46.7032 182.835 47.2561 182.835 47.6247 182.65C47.9933 182.279 48.1776 181.722 47.809 181.351C47.6247 181.165 47.4404 181.165 47.2561 181.165C46.7032 181.165 46.1503 181.165 45.5974 181.165C46.3346 180.98 46.8875 180.794 47.4404 180.238C47.809 180.052 47.9933 179.495 47.6247 179.124C47.4404 178.939 47.2561 179.124 47.0718 179.124C46.3346 179.31 45.5974 179.31 45.0446 179.495C45.5974 179.31 45.966 178.939 46.5189 178.753C46.8875 178.382 47.4404 177.825 47.0718 177.454C46.8875 177.083 46.1503 177.083 45.7818 177.269C44.8603 177.64 43.7545 178.011 42.833 178.382V177.269V169.847L41.1743 177.454C40.8057 178.939 40.8057 180.423 41.1743 181.907C41.3586 182.835 41.9115 183.948 42.833 184.319C43.5702 184.691 44.3074 184.691 45.0446 184.691C45.7817 184.691 46.7032 184.505 47.4404 184.319C47.809 184.319 48.1776 184.134 48.1776 183.763C48.3619 183.763 47.9933 183.392 47.4404 183.206Z" fill="#F7C5B4"/>
<path d="M79.8776 117.707C79.8776 117.707 79.8776 121.047 78.5875 122.345C77.2974 123.644 75.8231 124.201 75.8231 124.201C75.8231 124.201 78.5875 130.324 85.0379 129.582C91.4883 128.839 92.4098 124.757 92.4098 124.757C92.4098 124.757 86.328 124.015 85.5908 118.264C84.8536 112.512 83.9321 112.512 83.9321 112.512L79.8776 117.707Z" fill="#FDAE7F"/>
<path d="M75.2685 103.236C75.2685 103.236 75.6371 110.843 78.9544 116.595C82.6404 122.347 86.5106 119.193 88.1693 116.224C89.8279 113.255 94.2511 103.236 93.1453 101.195C92.0395 98.5976 79.5073 97.4844 79.5073 97.4844L75.2685 103.236Z" fill="#FDBD97"/>
<path d="M91.6712 107.507C91.6712 107.507 93.3299 106.208 93.3299 107.507C93.3299 108.806 92.2241 111.218 91.1183 111.218C90.0126 111.589 90.0126 110.847 90.3812 109.919C91.1183 108.806 91.6712 107.507 91.6712 107.507Z" fill="#FDBD97"/>
<path d="M75.8226 110.286C76.1912 110.658 76.9284 110.658 76.9284 109.915C76.9284 108.617 75.8226 106.205 74.7168 106.205C73.611 105.833 73.611 106.576 73.9796 107.503C73.9796 107.874 73.9796 108.245 74.3482 108.617C74.9011 109.173 75.6383 110.286 75.8226 110.286Z" fill="#FDBD97"/>
<path d="M75.6378 106.578L75.2692 104.351C75.2692 104.351 77.4808 104.722 79.508 102.125C79.508 102.125 84.1155 103.238 87.8014 102.867C91.6716 102.496 93.146 101.568 93.146 101.568C93.146 101.568 92.4088 105.836 91.856 107.32C91.856 107.32 93.5146 106.578 94.4361 104.351C95.1733 102.125 95.1733 100.084 95.1733 100.084C95.1733 100.084 97.7534 97.8572 98.4906 95.8163C98.4906 95.8163 91.6716 94.1464 89.4601 92.8476C87.2485 91.5488 86.1427 90.6211 86.1427 90.6211C86.1427 90.6211 82.8254 88.9512 79.6923 91.3633C76.5593 93.7753 74.3478 95.2597 74.3478 99.7127C74.532 99.156 71.2147 103.609 75.6378 106.578Z" fill="#150C56"/>
</svg>
