<svg width="315" height="286" viewBox="0 0 315 286" fill="none" xmlns="http://www.w3.org/2000/svg">
<g clip-path="url(#clip0_137_10041)">
<path d="M65.0947 100.714C92.3534 100.714 114.451 78.6455 114.451 51.4229C114.451 24.2003 92.3534 2.13208 65.0947 2.13208C37.8361 2.13208 15.7386 24.2003 15.7386 51.4229C15.7386 78.6455 37.8361 100.714 65.0947 100.714Z" stroke="#DC051F" stroke-width="0.933353" stroke-miterlimit="10" stroke-dasharray="5.6 5.6"/>
<path d="M26.3354 27.8914C29.3384 27.8914 31.7729 25.4602 31.7729 22.4611C31.7729 19.462 29.3384 17.0308 26.3354 17.0308C23.3323 17.0308 20.8978 19.462 20.8978 22.4611C20.8978 25.4602 23.3323 27.8914 26.3354 27.8914Z" fill="#003EAE"/>
<path d="M27.3113 19.9543L23.6863 21.9037L27.0325 23.8531L27.3113 19.9543Z" fill="white"/>
<path d="M261.347 117.98C263.438 117.98 265.53 117.98 267.621 117.98C267.621 117.98 267.76 117.98 267.9 118.119C269.434 118.397 270.131 119.233 270.409 120.765C270.549 122.157 270.828 123.689 270.967 125.081C271.107 125.777 272.222 126.195 272.919 125.777C274.035 124.942 275.289 123.828 276.544 122.992C277.938 122.018 279.472 122.018 280.727 123.132C281.982 124.385 283.376 125.777 284.631 127.17C285.746 128.283 285.746 129.954 284.77 131.347C284.073 132.321 283.236 133.575 282.4 134.549C281.842 135.106 281.703 135.663 282.261 136.499C282.4 136.638 282.539 136.916 282.818 136.916C284.212 137.056 285.886 137.334 287.28 137.473C288.395 137.613 289.371 138.169 289.65 139.283C289.789 139.562 289.789 139.84 289.929 140.258C289.929 142.347 289.929 144.435 289.929 146.663C289.929 146.802 289.789 146.942 289.789 147.081C289.371 148.334 288.674 149.169 287.28 149.309C285.886 149.448 284.352 149.726 282.958 149.866C282.261 149.866 281.703 151.119 282.261 151.815C283.097 152.929 284.212 154.321 285.049 155.435C286.025 156.688 285.886 158.359 284.91 159.612C283.655 161.005 282.261 162.397 280.866 163.65C279.751 164.764 278.078 164.764 276.684 163.79C275.429 162.954 274.174 161.84 272.919 161.005C272.501 160.587 271.107 161.005 270.967 161.701C270.828 163.233 270.549 164.764 270.27 166.296C270.131 167.41 269.434 168.384 268.179 168.663C268.039 168.663 267.76 168.802 267.482 168.941C265.251 168.941 263.159 168.941 261.068 168.941C261.068 168.941 260.929 168.941 260.929 168.802C259.534 168.524 258.698 167.688 258.419 166.157C258.28 164.764 258.001 163.233 257.861 161.979C257.722 161.283 256.606 160.726 255.77 161.283C254.655 162.119 253.4 163.233 252.145 163.929C250.751 164.903 249.217 164.903 247.962 163.79C246.707 162.536 245.313 161.144 244.058 159.752C242.943 158.638 242.943 156.967 243.919 155.574C244.616 154.6 245.453 153.347 246.289 152.372C246.847 151.815 246.847 151.119 246.429 150.423C246.289 150.283 246.15 150.005 246.01 150.005C244.616 149.866 243.082 149.587 241.828 149.448C239.876 149.309 238.9 148.195 238.9 146.245C238.9 144.296 238.9 142.486 238.9 140.537C238.9 138.726 239.876 137.613 241.549 137.473C242.943 137.334 244.477 137.056 245.871 136.916C246.568 136.916 246.986 135.663 246.568 134.967C245.731 133.853 244.616 132.461 243.779 131.347C242.804 130.094 242.804 128.423 243.919 127.17C245.174 125.916 246.568 124.524 247.962 123.132C249.078 122.018 250.751 122.018 252.145 122.992C253.4 123.828 254.655 124.942 255.909 125.777C256.328 126.195 257.722 125.777 257.861 125.081C258.001 123.689 258.28 122.018 258.558 120.625C258.698 119.372 259.395 118.537 260.65 118.258C260.65 118.119 260.929 118.119 261.347 117.98ZM282.261 129.537C281.006 128.283 279.751 126.891 278.357 125.638C276.544 126.891 274.871 128.283 273.059 129.537C272.78 129.676 272.501 129.676 272.222 129.537C271.107 128.98 269.852 128.562 268.736 128.005C268.318 127.866 268.039 127.587 268.039 127.17C267.76 125.081 267.482 122.992 267.203 120.904C267.203 120.625 267.063 120.486 266.784 120.486C265.39 120.486 263.857 120.486 262.462 120.486C262.044 120.486 262.044 120.625 261.905 120.904C261.626 122.992 261.347 125.081 261.068 127.17C261.068 127.587 260.929 127.727 260.371 127.866C259.256 128.283 258.001 128.701 256.885 129.258C256.467 129.397 256.188 129.397 255.909 129.258C254.097 128.005 252.424 126.613 250.751 125.499C249.496 126.752 248.102 128.144 246.847 129.397C246.847 129.537 246.986 129.676 247.126 129.815C248.241 131.347 249.496 132.878 250.611 134.41C250.751 134.549 250.751 134.828 250.751 135.106C250.193 136.359 249.635 137.752 248.938 139.005C248.938 139.144 248.659 139.423 248.52 139.423C247.405 139.562 246.15 139.701 245.034 139.84C243.919 139.98 242.664 140.119 241.549 140.258C241.549 142.207 241.549 143.878 241.549 145.688C241.688 145.688 241.967 145.828 242.246 145.828C244.337 146.106 246.289 146.385 248.38 146.663C248.799 146.663 248.938 146.802 249.078 147.22C249.496 148.334 249.914 149.587 250.472 150.701C250.611 151.119 250.611 151.397 250.472 151.815C249.217 153.625 247.823 155.296 246.707 156.967C247.962 158.22 249.217 159.473 250.611 160.866C250.751 160.866 250.89 160.726 251.169 160.448C252.703 159.334 254.376 158.081 255.77 156.967C255.909 156.828 256.188 156.828 256.467 156.828C257.722 157.245 258.977 157.941 260.371 158.359C260.789 158.498 260.929 158.638 260.929 159.055C261.207 161.144 261.486 163.233 261.765 165.321C261.765 165.739 261.905 165.878 262.323 165.878C263.717 165.878 265.251 165.878 266.506 165.878C266.924 165.878 267.063 165.739 267.063 165.321C267.342 163.233 267.621 161.144 267.9 158.916C267.9 158.638 268.039 158.359 268.318 158.22C269.573 157.802 270.967 157.106 272.222 156.688C272.361 156.688 272.64 156.688 272.919 156.688C274.453 157.802 276.126 159.055 277.66 160.169C277.799 160.309 278.078 160.448 278.078 160.448C279.333 159.195 280.727 157.802 281.982 156.549C281.982 156.41 281.842 156.271 281.703 156.131C280.587 154.6 279.333 153.068 278.217 151.536C278.078 151.397 278.078 151.119 278.078 150.98C278.635 149.726 279.193 148.195 279.89 146.942C279.89 146.802 280.169 146.663 280.309 146.663C281.145 146.524 282.121 146.385 282.958 146.385C284.352 146.245 285.886 145.967 287.28 145.828C287.28 143.878 287.28 142.207 287.28 140.397C284.91 140.119 282.818 139.701 280.448 139.423C280.169 139.423 280.03 139.283 279.89 139.005C279.472 137.752 278.914 136.499 278.357 135.385C278.217 134.967 278.217 134.828 278.357 134.41C279.611 132.878 280.866 131.207 282.261 129.537Z" stroke="#DE051F" stroke-width="0.933353" stroke-miterlimit="10"/>
<path d="M282.261 129.537C281.006 131.347 279.752 133.017 278.357 134.688C278.079 134.967 278.079 135.245 278.357 135.663C278.915 136.777 279.333 138.169 279.891 139.283C280.03 139.562 280.17 139.701 280.449 139.701C282.819 139.979 284.91 140.258 287.281 140.676C287.281 142.486 287.281 144.157 287.281 146.106C285.886 146.245 284.353 146.524 282.958 146.663C282.122 146.802 281.146 146.802 280.309 146.941C280.17 146.941 279.891 147.081 279.891 147.22C279.333 148.473 278.776 149.865 278.079 151.258C278.079 151.397 278.079 151.676 278.218 151.815C279.333 153.346 280.588 155.017 281.704 156.41C281.843 156.549 281.982 156.688 281.982 156.827C280.728 158.081 279.473 159.334 278.079 160.726C278.079 160.726 277.8 160.587 277.66 160.448C276.127 159.334 274.453 158.081 272.92 156.967C272.78 156.827 272.502 156.827 272.223 156.967C270.968 157.384 269.574 158.081 268.319 158.498C268.04 158.638 267.901 158.777 267.901 159.195C267.622 161.283 267.343 163.372 267.064 165.6C267.064 166.017 266.925 166.156 266.506 166.156C265.112 166.156 263.578 166.156 262.324 166.156C261.905 166.156 261.766 166.017 261.766 165.6C261.487 163.511 261.208 161.422 260.929 159.334C260.929 158.916 260.79 158.777 260.372 158.638C259.117 158.22 257.862 157.524 256.468 157.106C256.328 157.106 256.05 157.106 255.771 157.245C254.237 158.359 252.564 159.612 251.17 160.726C251.03 160.865 250.751 161.005 250.612 161.144C249.357 159.891 248.102 158.638 246.708 157.245C247.963 155.435 249.218 153.903 250.473 152.093C250.751 151.676 250.751 151.397 250.473 150.979C249.915 149.865 249.497 148.612 249.078 147.498C248.939 147.081 248.799 146.941 248.381 146.941C246.29 146.663 244.338 146.384 242.247 146.106C242.107 146.106 241.828 146.106 241.549 145.967C241.549 144.157 241.549 142.486 241.549 140.536C242.665 140.397 243.92 140.258 245.035 140.119C246.15 139.979 247.405 139.84 248.521 139.701C248.66 139.701 248.939 139.562 248.939 139.283C249.497 138.03 250.054 136.638 250.751 135.385C250.751 135.245 250.751 134.967 250.612 134.688C249.497 133.157 248.242 131.486 247.126 130.093C246.987 129.954 246.848 129.815 246.848 129.676C248.102 128.423 249.357 127.03 250.751 125.777C252.285 126.891 254.098 128.283 255.91 129.537C256.189 129.815 256.468 129.815 256.886 129.537C258.001 128.98 259.256 128.562 260.372 128.144C260.79 128.005 260.929 127.866 261.069 127.448C261.348 125.359 261.626 123.271 261.905 121.182C261.905 120.764 262.045 120.764 262.463 120.764C263.857 120.764 265.391 120.764 266.785 120.764C267.064 120.764 267.203 120.764 267.203 121.182C267.482 123.271 267.761 125.359 268.04 127.448C268.04 127.866 268.319 128.144 268.737 128.283C269.853 128.701 271.107 129.258 272.223 129.815C272.502 129.954 272.78 129.954 273.059 129.815C274.872 128.562 276.545 127.169 278.357 125.916C279.612 126.891 280.867 128.144 282.261 129.537ZM253.261 143.182C253.261 149.309 258.141 154.321 264.276 154.321C270.55 154.321 275.429 149.448 275.429 143.321C275.429 137.055 270.55 132.182 264.415 132.182C258.28 132.182 253.261 137.055 253.261 143.182Z" stroke="#DE051F" stroke-width="0.933353" stroke-miterlimit="10"/>
<path d="M278.356 25.8025C280.448 25.8025 282.539 25.8025 284.63 25.8025C284.63 25.8025 284.77 25.8025 284.909 25.9417C286.443 26.2202 287.14 27.0556 287.419 28.5873C287.558 29.9797 287.837 31.5113 287.977 32.9037C288.116 33.5999 289.231 34.0176 289.929 33.5999C291.044 32.7645 292.299 31.6506 293.554 30.8151C294.948 29.8404 296.481 29.8404 297.736 30.9544C298.991 32.2075 300.385 33.5999 301.64 34.9923C302.756 36.1062 302.756 37.7771 301.78 39.1695C301.082 40.1442 300.246 41.3973 299.409 42.372C298.852 42.929 298.712 43.4859 299.27 44.3214C299.409 44.4606 299.549 44.7391 299.828 44.7391C301.222 44.8783 302.895 45.1568 304.289 45.296C305.405 45.4353 306.381 45.9922 306.659 47.1061C306.799 47.3846 306.799 47.6631 306.938 48.0808C306.938 50.1694 306.938 52.258 306.938 54.4858C306.938 54.6251 306.799 54.7643 306.799 54.9036C306.381 56.1567 305.683 56.9922 304.289 57.1314C302.895 57.2706 301.361 57.5491 299.967 57.6883C299.27 57.6883 298.712 58.9415 299.27 59.6377C300.106 60.7516 301.222 62.144 302.058 63.2579C303.034 64.5111 302.895 66.182 301.919 67.4351C300.664 68.8275 299.27 70.2199 297.876 71.4731C296.76 72.587 295.087 72.587 293.693 71.6123C292.438 70.7769 291.183 69.663 289.929 68.8275C289.51 68.4098 288.116 68.8275 287.977 69.5237C287.837 71.0553 287.558 72.587 287.279 74.1186C287.14 75.2325 286.443 76.2072 285.188 76.4857C285.049 76.4857 284.77 76.6249 284.491 76.7642C282.26 76.7642 280.169 76.7642 278.077 76.7642C278.077 76.7642 277.938 76.7642 277.938 76.6249C276.544 76.3465 275.707 75.511 275.428 73.9794C275.289 72.587 275.01 71.0553 274.871 69.8022C274.731 69.106 273.616 68.549 272.779 69.106C271.664 69.9414 270.409 71.0553 269.154 71.7515C267.76 72.7262 266.226 72.7262 264.972 71.6123C263.717 70.4984 262.462 69.106 261.068 67.7136C259.952 66.5997 259.952 64.9288 260.928 63.5364C261.625 62.5617 262.462 61.3086 263.299 60.3339C263.856 59.7769 263.856 59.0807 263.438 58.3845C263.299 58.2453 263.159 57.9668 263.02 57.9668C261.625 57.8276 260.092 57.5491 258.837 57.4099C256.885 57.2706 255.909 56.1567 255.909 54.2074C255.909 52.258 255.909 50.4479 255.909 48.4985C255.909 46.6884 256.885 45.5745 258.558 45.4353C259.952 45.296 261.486 45.0175 262.88 44.8783C263.577 44.8783 263.996 43.6252 263.577 42.929C262.741 41.815 261.625 40.4226 260.789 39.3087C259.813 38.0556 259.813 36.3847 260.928 35.1315C262.183 33.8784 263.577 32.486 264.972 31.0936C266.087 29.9797 267.76 29.9797 269.154 30.9544C270.409 31.7898 271.664 32.9037 272.919 33.7391C273.337 34.1569 274.731 33.7391 274.871 33.0429C275.01 31.6506 275.289 29.9797 275.568 28.5873C275.707 27.3341 276.404 26.4987 277.659 26.2202C277.938 25.9417 278.217 25.9417 278.356 25.8025ZM299.409 37.4986C298.155 36.2455 296.9 34.8531 295.505 33.5999C293.693 34.8531 292.02 36.2455 290.207 37.4986C289.929 37.6379 289.65 37.6379 289.371 37.4986C288.255 36.9417 287.001 36.5239 285.885 35.967C285.467 35.8277 285.188 35.5493 285.188 35.1315C284.909 33.0429 284.63 30.9544 284.352 28.8658C284.352 28.5873 284.212 28.448 283.933 28.448C282.539 28.448 281.005 28.448 279.611 28.448C279.193 28.448 279.193 28.5873 279.053 28.8658C278.775 30.9544 278.496 33.0429 278.217 35.1315C278.217 35.5493 278.077 35.6885 277.52 35.8277C276.404 36.2455 275.15 36.6632 274.034 37.2201C273.616 37.3594 273.337 37.3594 273.058 37.2201C271.246 35.967 269.573 34.5746 267.9 33.4607C266.645 34.7138 265.25 36.1062 263.996 37.3594C263.996 37.4986 264.135 37.6379 264.274 37.7771C265.39 39.3087 266.645 40.8404 267.76 42.372C267.9 42.5112 267.9 42.7897 267.9 43.0682C267.342 44.3214 266.784 45.7137 266.087 46.9669C266.087 47.1061 265.808 47.3846 265.669 47.3846C264.553 47.5239 263.299 47.6631 262.183 47.8023C261.068 47.9416 259.813 48.0808 258.698 48.2201C258.698 50.1694 258.698 51.8403 258.698 53.6504C258.837 53.6504 259.116 53.7896 259.395 53.7896C261.486 54.0681 263.438 54.3466 265.529 54.6251C265.948 54.6251 266.087 54.7643 266.226 55.182C266.645 56.296 267.063 57.5491 267.621 58.663C267.76 59.0807 267.76 59.3592 267.621 59.7769C266.366 61.5871 264.972 63.2579 263.856 64.9288C265.111 66.182 266.366 67.4351 267.76 68.8275C267.9 68.8275 268.039 68.6883 268.318 68.4098C269.851 67.2959 271.525 66.0427 272.919 64.9288C273.058 64.7896 273.337 64.7896 273.616 64.7896C274.871 65.2073 276.126 65.9035 277.52 66.3212C277.938 66.4604 278.077 66.5997 278.077 67.0174C278.356 69.106 278.635 71.1946 278.914 73.2832C278.914 73.7009 279.053 73.8401 279.472 73.8401C280.866 73.8401 282.4 73.8401 283.654 73.8401C284.073 73.8401 284.212 73.7009 284.212 73.2832C284.491 71.1946 284.77 69.106 285.049 66.8782C285.049 66.5997 285.188 66.3212 285.467 66.182C286.722 65.7642 288.116 65.068 289.371 64.6503C289.51 64.6503 289.789 64.6503 290.068 64.6503C291.602 65.7642 293.275 67.0174 294.808 68.1313C294.948 68.2706 295.227 68.4098 295.227 68.4098C296.481 67.1566 297.876 65.7642 299.131 64.5111C299.131 64.3719 298.991 64.2326 298.852 64.0934C297.736 62.5617 296.481 61.0301 295.366 59.4985C295.227 59.3592 295.227 59.0807 295.227 58.9415C295.784 57.6884 296.342 56.1567 297.039 54.9036C297.039 54.7643 297.318 54.6251 297.457 54.6251C298.294 54.4858 299.27 54.3466 300.106 54.3466C301.501 54.2074 303.034 53.9289 304.429 53.7896C304.429 51.8403 304.429 50.1694 304.429 48.3593C302.058 48.0808 299.967 47.6631 297.597 47.3846C297.318 47.3846 297.179 47.2454 297.039 46.9669C296.621 45.7137 296.063 44.4606 295.505 43.3467C295.366 42.929 295.366 42.7897 295.505 42.372C296.9 40.8404 298.155 39.0302 299.409 37.4986Z" stroke="#0064E1" stroke-width="0.933353" stroke-miterlimit="10"/>
<path d="M299.409 37.4987C298.154 39.3088 296.899 40.9796 295.505 42.6505C295.226 42.929 295.226 43.2075 295.505 43.6252C296.062 44.7391 296.481 46.1315 297.038 47.2454C297.178 47.5239 297.317 47.6631 297.596 47.6631C299.966 47.9416 302.058 48.2201 304.428 48.6378C304.428 50.4479 304.428 52.1188 304.428 54.0682C303.034 54.2074 301.5 54.4859 300.106 54.6251C299.269 54.7644 298.293 54.7644 297.457 54.9036C297.317 54.9036 297.038 55.0428 297.038 55.1821C296.481 56.4352 295.923 57.8276 295.226 59.22C295.226 59.3593 295.226 59.6377 295.365 59.777C296.481 61.3086 297.735 62.9795 298.851 64.3719C298.99 64.5111 299.13 64.6504 299.13 64.7896C297.875 66.0428 296.62 67.2959 295.226 68.6883C295.226 68.6883 294.947 68.5491 294.808 68.4098C293.274 67.2959 291.601 66.0428 290.067 64.9288C289.928 64.7896 289.649 64.7896 289.37 64.9288C288.115 65.3466 286.721 66.0428 285.466 66.4605C285.187 66.5997 285.048 66.739 285.048 67.1567C284.769 69.2453 284.49 71.3339 284.211 73.5617C284.211 73.9794 284.072 74.1187 283.654 74.1187C282.259 74.1187 280.726 74.1187 279.471 74.1187C279.053 74.1187 278.913 73.9794 278.913 73.5617C278.634 71.4731 278.356 69.3845 278.077 67.2959C278.077 66.8782 277.937 66.739 277.519 66.5997C276.264 66.182 275.009 65.4858 273.615 65.0681C273.476 65.0681 273.197 65.0681 272.918 65.2073C271.384 66.3212 269.711 67.5744 268.317 68.6883C268.178 68.8276 267.899 68.9668 267.759 69.106C266.505 67.8529 265.25 66.5997 263.855 65.2073C265.11 63.3972 266.365 61.8656 267.62 60.0555C267.899 59.6377 267.899 59.3593 267.62 58.9415C267.062 57.8276 266.644 56.5745 266.226 55.4606C266.086 55.0428 265.947 54.9036 265.529 54.9036C263.437 54.6251 261.485 54.3466 259.394 54.0682C259.254 54.0682 258.976 54.0682 258.697 53.9289C258.697 52.1188 258.697 50.4479 258.697 48.4986C259.812 48.3593 261.067 48.2201 262.182 48.0809C263.298 47.9416 264.553 47.8024 265.668 47.6631C265.807 47.6631 266.086 47.5239 266.086 47.2454C266.644 45.9923 267.202 44.5999 267.899 43.3467C267.899 43.2075 267.899 42.929 267.759 42.6505C266.644 41.1189 265.389 39.448 264.274 38.0556C264.134 37.9164 263.995 37.7771 263.995 37.6379C265.25 36.3847 266.505 34.9923 267.899 33.7392C269.432 34.8531 271.245 36.2455 273.057 37.4987C273.336 37.7771 273.615 37.7771 274.033 37.4987C275.149 36.9417 276.404 36.524 277.519 36.1063C277.937 35.967 278.077 35.8278 278.216 35.4101C278.495 33.3215 278.774 31.2329 279.053 29.1443C279.053 28.7266 279.192 28.7266 279.61 28.7266C281.005 28.7266 282.538 28.7266 283.933 28.7266C284.211 28.7266 284.351 28.7266 284.351 29.1443C284.63 31.2329 284.908 33.3215 285.187 35.4101C285.187 35.8278 285.466 36.1063 285.884 36.2455C287 36.6632 288.255 37.2202 289.37 37.7771C289.649 37.9164 289.928 37.9164 290.207 37.7771C292.019 36.524 293.692 35.1316 295.505 33.8784C296.899 34.8531 298.154 35.967 299.409 37.4987ZM270.408 51.1441C270.408 57.2707 275.288 62.2833 281.423 62.2833C287.697 62.2833 292.577 57.4099 292.577 51.2834C292.577 45.0176 287.697 40.1442 281.562 40.1442C275.567 40.005 270.408 45.0176 270.408 51.1441Z" stroke="#0064E1" stroke-width="0.933353" stroke-miterlimit="10"/>
<path d="M272.199 25.0791H34.9706V186.351H272.199V25.0791Z" fill="#0064B5"/>
<path d="M272.199 162.515H34.9708V186.287H272.199V162.515Z" fill="#FFC727"/>
<path d="M272.199 162.515H34.9708V186.287H272.199V162.515Z" fill="#033E9F"/>
<path d="M199.816 215.385H107.354V223.114H199.816V215.385Z" fill="#FFC727"/>
<path d="M199.816 215.385H107.354V223.114H199.816V215.385Z" fill="#033E9F"/>
<path d="M188.834 215.384H118.335L120.154 202.005L120.219 201.355L120.414 200.121L120.479 199.472L120.674 198.238V198.043L120.739 197.588L120.934 196.354L120.999 195.704L122.234 186.352H184.936L186.105 195.185L186.17 195.575L186.365 197.068L186.43 197.458L186.495 198.043L186.625 198.952V199.342L186.82 200.836L186.885 201.225L188.834 215.384Z" fill="#0064B5"/>
<path d="M157.452 172.841C157.452 174.985 155.697 176.738 153.553 176.738C151.409 176.738 149.655 174.985 149.655 172.841C149.655 170.698 151.409 168.944 153.553 168.944C155.697 168.879 157.452 170.633 157.452 172.841Z" fill="white"/>
<g opacity="0.16">
<path d="M186.497 198.043L121 195.704L122.235 186.352H184.937L186.497 198.043Z" fill="black"/>
</g>
<path d="M261.597 35.5359H46.2662V151.343H261.597V35.5359Z" fill="white"/>
<path d="M11.0945 173.118C11.0945 173.118 14.0224 172.004 13.883 168.523C13.7436 165.042 11.7916 162.675 15.6955 163.789C19.3205 164.764 20.4359 165.181 23.2244 164.624C25.8734 164.067 27.9648 162.814 26.9888 166.434C25.8735 169.915 24.6186 172.7 27.2677 173.257C30.0562 173.814 32.9841 171.726 33.2629 177.156C33.5418 182.586 29.2196 188.434 22.3879 188.713C15.5561 188.991 12.2099 186.067 12.2099 186.067C12.2099 186.067 10.258 183.422 13.1859 182.726C16.1138 182.029 19.1811 180.776 17.508 179.523C16.1138 178.27 11.2339 178.131 11.2339 178.131C11.2339 178.131 5.2387 176.599 11.0945 173.118Z" fill="#649CE8"/>
<path d="M43.3011 173.953C42.8829 170.472 43.1617 167.966 49.5752 167.13C55.9887 166.295 59.6137 170.054 60.032 173.953C60.4503 177.852 54.8733 179.383 54.8733 179.383C54.8733 179.383 50.9695 180.497 52.782 183.839C54.8733 187.32 55.7099 190.522 51.2483 191.079C46.7867 191.497 41.7675 190.383 38.979 188.573C36.1905 186.624 33.402 182.168 36.6088 179.662C36.6088 179.662 37.4453 179.105 40.5127 178.966C43.58 178.687 43.3011 173.953 43.3011 173.953Z" fill="#033E9F"/>
<path d="M20.8546 173.396C20.8546 173.396 26.1527 185.371 26.8498 193.447" stroke="#82D8FD" stroke-width="0.933353" stroke-miterlimit="10" stroke-linecap="round" stroke-linejoin="round"/>
<path d="M50.2733 175.345C50.2733 175.345 40.9319 189.13 38.8406 193.864" stroke="#579DD3" stroke-width="0.933353" stroke-miterlimit="10" stroke-linecap="round" stroke-linejoin="round"/>
<path d="M23.6429 192.472H44.9748C44.9748 192.472 47.345 192.611 47.2055 195.814C47.0661 198.738 43.3017 198.181 41.3497 198.181C39.2584 198.181 23.2246 198.181 23.2246 198.181C23.2246 198.181 20.5756 198.598 20.5756 195.674C20.5756 192.75 21.4121 192.472 23.6429 192.472Z" fill="#0054A3"/>
<path d="M23.2251 198.181L26.4319 216.978H40.7925L43.3022 202.915L23.2251 198.181Z" fill="#0054A3"/>
<path d="M23.2251 198.181L43.3022 202.915L43.9993 198.181H23.2251Z" fill="#016AD3"/>
<path d="M32.4266 193.168C32.4266 193.168 33.4026 172.282 39.8161 159.055L32.4266 193.168Z" fill="#FABC42"/>
<path d="M44.8359 151.535C44.8359 151.535 45.2542 157.94 38.9801 160.586C39.1195 160.447 37.7253 155.016 44.8359 151.535Z" fill="#FABC42"/>
<path d="M35.4938 172.004C35.4938 172.004 37.864 166.435 44.9746 167.27C44.8352 167.131 44.2775 172.7 35.4938 172.004Z" fill="#FABC42"/>
<path d="M33.1239 185.788C33.1239 185.788 34.2393 179.94 41.6288 179.244C41.3499 179.244 41.9076 184.813 33.1239 185.788Z" fill="#FABC42"/>
<path d="M32.8452 185.789C32.8452 185.789 33.6817 179.801 27.1288 176.877C27.1288 176.877 24.7586 181.89 32.8452 185.789Z" fill="#FABC42"/>
<path d="M35.6341 171.864C35.6341 171.864 37.1678 166.016 31.1725 162.257C31.0331 162.396 27.9658 166.991 35.6341 171.864Z" fill="#FABC42"/>
<path d="M62.7233 95.562H112.358C113.892 95.562 115.286 94.3088 115.286 92.638V45.018C115.286 43.4864 114.031 42.094 112.358 42.094H62.7233C61.1897 42.094 59.7954 43.3472 59.7954 45.018V92.3595C59.7954 94.1696 61.1897 95.562 62.7233 95.562Z" stroke="#003EB0" stroke-width="0.466676" stroke-miterlimit="10" stroke-dasharray="1.87 1.87"/>
<path d="M121.56 95.5619H234.354C235.191 95.5619 235.749 95.0049 235.749 94.1695V43.6255C235.749 42.7901 235.191 42.2332 234.354 42.2332H121.56C120.724 42.2332 120.166 42.7901 120.166 43.6255V93.891C120.166 94.7265 120.863 95.5619 121.56 95.5619Z" fill="white"/>
<path d="M235.428 58.2453H137.134C135.182 58.2453 133.509 56.7137 133.509 54.6251C133.509 52.6758 135.043 51.0049 137.134 51.0049H235.428C237.38 51.0049 239.053 52.5365 239.053 54.6251C239.053 56.5745 237.52 58.2453 235.428 58.2453Z" fill="#033E9F"/>
<path d="M194.716 66.1822H135.6C134.624 66.1822 133.648 65.3467 133.648 64.2328C133.648 63.2581 134.485 62.2834 135.6 62.2834H194.995C195.971 62.2834 196.947 63.1189 196.947 64.2328C196.947 65.3467 195.971 66.1822 194.716 66.1822Z" fill="#DBE9F8"/>
<path d="M236.027 100.312C236.027 99.6161 235.47 98.9199 234.633 98.9199H61.3292C60.6321 98.9199 59.9349 99.4769 59.9349 100.312V127.464C59.9349 127.603 59.9349 127.603 59.9349 127.743C59.9349 127.882 59.9349 127.882 59.9349 128.021V149.325C59.9349 150.021 60.4926 150.717 61.3292 150.717H234.633C235.33 150.717 236.027 150.16 236.027 149.325V128.021C236.027 127.882 236.027 127.882 236.027 127.743C236.027 127.603 236.027 127.603 236.027 127.464V100.312Z" fill="white"/>
<path d="M120.446 116.309H73.0415C71.229 116.309 69.8347 114.916 69.8347 113.106C69.8347 111.296 71.229 109.904 73.0415 109.904H120.446C122.258 109.904 123.652 111.296 123.652 113.106C123.792 114.777 122.119 116.309 120.446 116.309Z" fill="#EE384E"/>
<path d="M211.071 121.739H70.9501C70.3924 121.739 69.8347 121.182 69.8347 120.625C69.8347 120.068 70.3924 119.511 70.9501 119.511H211.071C211.629 119.511 212.187 120.068 212.187 120.625C212.047 121.182 211.629 121.739 211.071 121.739Z" fill="#DBE9F8"/>
<path d="M220.371 73.9798H135.462C134.904 73.9798 134.346 73.4228 134.346 72.8659C134.346 72.3089 134.904 71.752 135.462 71.752H220.371C220.929 71.752 221.486 72.3089 221.486 72.8659C221.626 73.4228 221.068 73.9798 220.371 73.9798Z" fill="#DBE9F8"/>
<path d="M67.7723 110.176H124.889C126.589 110.176 128.288 108.648 128.288 106.611V49.4007C128.288 47.5333 126.759 45.8357 124.889 45.8357H67.7723C66.0725 45.8357 64.3726 47.3636 64.3726 49.4007V106.442C64.3726 108.479 65.9025 110.176 67.7723 110.176Z" fill="white" stroke="#0055DB" stroke-width="0.537234" stroke-miterlimit="10"/>
<path opacity="0.5" d="M138.999 289.278C157.587 289.278 172.656 286.921 172.656 284.015C172.656 281.108 157.587 278.752 138.999 278.752C120.41 278.752 105.341 281.108 105.341 284.015C105.341 286.921 120.41 289.278 138.999 289.278Z" fill="#E7E6EC"/>
<path d="M121.149 271.792L157.357 271.113L158.717 284.015H162.627L149.367 160.936C149.367 160.087 148.347 159.069 147.157 158.39C146.138 158.05 145.288 158.39 145.458 159.239L146.308 167.897C146.308 168.406 145.968 168.915 145.628 168.915L111.12 169.594C110.78 169.594 110.44 169.255 110.27 168.745L109.42 159.748C109.42 158.899 108.4 157.88 107.21 157.201C106.19 156.862 105.34 157.201 105.51 158.05L117.239 268.057C117.069 268.397 117.239 268.737 117.409 269.246L118.939 284.015H122.509L121.149 271.792ZM110.61 173.499L146.818 172.82L148.517 188.778L112.31 189.457L110.61 173.499ZM112.82 193.191L149.027 192.512L150.727 208.47L114.52 209.149L112.82 193.191ZM114.69 212.714L150.897 212.035L152.597 227.993L116.389 228.672L114.69 212.714ZM116.899 232.407L153.107 231.728L154.807 247.686L118.599 248.365L116.899 232.407ZM118.939 252.1L155.147 251.421L156.847 267.378L120.639 268.057L118.939 252.1Z" fill="#E7E6EC"/>
<path d="M132.028 98.8022C132.028 98.8022 131.178 99.9906 131.008 101.858C131.008 101.858 129.988 102.028 129.818 103.046C129.818 104.235 131.178 104.574 131.348 106.102C131.348 107.46 132.028 108.988 132.878 109.667C133.558 110.346 134.238 110.007 134.238 110.516C134.238 111.025 134.408 111.535 134.408 111.535L139.677 111.704L139.507 108.139L136.618 99.3115L132.028 98.8022Z" fill="#FFB48F"/>
<path d="M134.408 156.353L113.839 155.334L121.659 186.571H118.599L104.66 152.109C104.66 152.109 101.26 146.676 108.74 145.828C116.219 145.148 129.308 144.469 129.308 144.469L135.088 144.13L134.408 156.353Z" fill="#FFC727"/>
<path d="M134.408 96.2562L132.878 92.8609C132.878 92.8609 132.368 91.8423 131.348 92.3516C130.328 92.8609 131.008 96.0864 131.008 96.0864L134.408 96.2562Z" fill="#FFB48F"/>
<path d="M132.878 90.1442C132.878 89.9744 132.708 89.6349 132.538 89.4651L130.328 86.5791C130.159 86.2396 129.479 85.5605 129.139 85.5605C128.629 85.5605 128.289 85.5606 128.119 86.7489C127.779 89.1256 128.799 91.6721 129.309 92.3511C129.819 93.0302 131.008 93.879 131.008 93.879L133.558 94.7278L132.878 90.1442Z" fill="#FFB48F"/>
<path d="M142.908 145.657C142.908 145.657 144.778 171.97 145.118 175.026C145.288 178.082 147.498 183.345 147.838 189.796C148.178 196.077 148.008 204.735 148.008 204.735H144.438C144.438 204.735 142.738 195.907 140.868 187.079C138.999 178.252 133.389 156.352 133.389 156.352L130.839 142.431L142.568 143.11L142.908 145.657Z" fill="#FCBE42"/>
<path d="M138.999 106.951L145.459 114.76C145.459 114.76 146.819 117.307 145.969 120.532C145.289 123.927 143.419 126.304 143.079 131.906C142.739 137.509 142.909 144.639 142.909 144.639H124.38C124.38 144.639 124.38 124.097 125.4 119.174C125.4 119.174 126.25 112.723 130.16 112.044C133.9 111.365 139.509 111.025 139.509 111.025L138.999 106.951Z" fill="#0083F9"/>
<path d="M133.219 95.407C133.219 95.407 133.219 95.7465 133.899 95.7465C134.409 95.7465 138.489 95.7465 140.358 97.2744C142.058 98.972 142.568 102.537 141.378 105.253C140.358 107.97 137.639 108.988 135.599 108.139C135.599 108.139 132.879 107.121 131.859 104.065C130.839 101.009 131.689 99.4813 131.689 99.4813C131.689 99.4813 131.859 99.1418 131.349 98.972C130.839 98.972 129.819 97.7837 130.329 96.086C130.499 94.5582 132.879 94.2186 133.219 95.407Z" fill="#170856"/>
<path d="M122.339 188.098C122.339 188.098 122.339 189.117 121.319 189.117C120.13 189.117 113.16 189.286 113.16 189.286C113.16 189.286 111.8 189.117 113.5 188.437C115.2 187.758 118.6 186.57 118.6 186.57H121.829L122.339 188.098Z" fill="#0083F9"/>
<path d="M148.177 205.584C148.177 205.584 149.197 208.3 148.007 208.47C146.817 208.64 143.758 208.64 143.758 208.64C143.758 208.64 142.398 208.3 143.418 207.112C144.437 205.923 144.607 204.735 144.607 204.735H148.177V205.584Z" fill="#0083F9"/>
<path d="M110.099 85.0511C109.249 81.8256 107.719 79.1094 105 77.242C104.49 76.9024 103.98 76.5629 103.47 76.2234C102.62 77.921 101.6 79.2791 100.41 80.4675C98.37 82.1651 95.9901 82.8442 93.4403 81.8256C91.5704 81.1466 90.2105 79.9582 89.1905 78.2606C88.8506 77.5815 88.3406 76.9024 88.0006 76.2234C86.6407 76.9024 84.7708 78.4303 83.7509 79.9582C81.371 83.5233 80.5211 87.4278 80.8611 91.6719C80.8611 92.5208 81.371 92.8603 82.051 93.0301C82.561 93.1998 83.0709 93.1998 83.5809 93.1998C91.7404 93.1998 99.8999 93.1998 108.059 93.1998C108.399 93.1998 108.909 93.1998 109.249 93.1998C110.439 93.1998 110.949 92.5208 110.949 91.3324C110.949 89.1255 110.609 87.0883 110.099 85.0511Z" fill="#C6D7F0"/>
<path d="M92.4203 79.1097C94.1202 80.6376 96.16 80.8073 98.0299 79.7887C99.0498 79.2795 99.8998 78.4306 100.58 77.4121C102.11 75.3749 102.96 73.1679 103.13 70.6215C103.47 67.9053 102.79 65.3588 101.09 63.3216C98.1999 59.7566 93.4402 59.7566 90.5504 63.1519C89.0205 65.0193 88.1705 67.2262 88.1705 69.6029C88.1705 70.961 88.3405 72.3191 88.8505 73.6772C89.5304 75.7144 90.7204 77.5818 92.4203 79.1097Z" fill="#C6D7F0"/>
<path d="M104.49 111.364L101.09 107.969C101.09 107.969 100.07 107.29 100.41 108.309C100.58 109.158 101.09 109.837 100.41 109.497C99.73 109.158 97.1802 106.951 96.3302 107.12C95.4803 107.29 95.1403 108.648 96.6702 110.176C98.2001 111.534 101.6 113.232 103.64 113.232C105.51 113.062 104.49 111.364 104.49 111.364Z" fill="#FFB48F"/>
<path d="M130.669 112.553C128.459 112.553 124.72 112.723 122 112.892C118.43 113.062 116.39 113.232 114.35 112.723C112.99 112.213 106.701 111.365 103.981 110.855C103.131 110.685 102.621 110.685 102.621 110.685C102.621 110.685 101.261 110.346 101.091 111.195C100.921 112.044 101.601 113.402 103.641 113.911C105.341 114.42 112.31 117.476 112.31 117.476C112.31 117.476 114.18 118.325 117.75 118.834C121.32 119.174 132.369 120.023 133.389 118.664C134.069 117.646 134.579 115.778 134.239 114.42C133.559 112.892 131.349 112.553 130.669 112.553Z" fill="#0064B7"/>
<path d="M240.376 242.131H269.762C272.444 242.131 274.617 244.305 274.617 246.986V277.13C274.617 279.811 272.444 281.985 269.762 281.985H240.376C237.695 281.985 235.521 279.811 235.521 277.13V246.986C235.521 244.305 237.695 242.131 240.376 242.131Z" fill="#236EB0"/>
<path d="M258.918 195.526C258.918 195.526 264.457 193.493 265.108 198.78C265.108 198.78 266.493 202.603 267.959 203.253C269.344 203.904 272.928 205.286 272.032 210.167C271.136 215.128 269.833 214.802 270.321 217.65C270.891 220.496 269.507 220.822 267.552 220.903C265.597 220.984 265.027 219.113 265.027 219.113L265.597 212.769L264.294 202.521L260.059 200.813C260.059 200.813 257.859 198.048 257.696 196.99C257.534 195.933 258.918 195.526 258.918 195.526Z" fill="#170856"/>
<path d="M259.651 194.144C259.651 194.144 260.547 195.039 260.302 195.201C260.058 195.364 257.696 196.665 257.696 196.665C257.696 196.665 256.963 195.283 257.044 194.876C257.126 194.469 259.651 194.144 259.651 194.144Z" fill="#F05051"/>
<path d="M244.909 187.231C244.746 187.231 244.664 187.313 244.664 187.475C244.664 188.696 244.99 194.551 247.271 196.747C247.271 196.747 248.492 198.374 250.773 197.642C250.773 197.642 252.891 196.341 252.565 198.943C252.239 201.546 253.298 204.067 254.112 204.393C254.927 204.8 258.348 203.824 259.162 202.36C259.651 201.384 259.977 200.895 260.058 200.652C260.14 200.57 260.14 200.489 260.058 200.326C259.57 199.757 257.778 197.561 256.963 194.551C255.986 191.054 256.556 187.638 253.298 186.987C250.61 186.581 245.967 187.15 244.909 187.231Z" fill="#FFBE97"/>
<path d="M241.895 186.986C241.895 186.905 241.895 186.906 241.895 186.824C241.895 186.499 241.895 186.092 241.895 185.767C241.976 184.71 242.384 183.571 243.198 182.838C243.85 182.269 244.664 182.107 245.397 182.107C245.56 182.107 245.723 182.025 245.886 181.944C246.456 181.293 248.248 179.504 250.691 179.504C253.624 179.504 258.755 181.131 260.14 186.255C260.221 186.58 262.176 194.632 258.266 194.876C254.275 195.12 252.728 193.168 252.809 191.379C252.809 191.379 254.764 187.882 251.425 188.776C251.425 188.776 248.004 189.427 245.642 188.044C245.316 187.882 244.99 187.963 244.827 188.288C244.338 189.101 243.442 190.403 242.547 189.345C242.221 188.939 241.895 188.532 241.813 187.963C241.732 187.556 241.813 187.312 241.895 186.986Z" fill="#170856"/>
<path d="M260.14 200.569C260.14 200.569 258.185 203.741 255.415 203.66C252.646 203.66 252.483 200.732 252.483 200.732C252.483 200.732 246.863 205.856 246.945 209.191C247.026 212.526 248.085 212.037 248.411 213.095C248.736 214.233 246.537 226.108 246.537 226.108L246.212 226.84L262.094 229.036C262.094 229.036 262.746 226.514 263.153 225.701C263.56 224.888 265.841 203.986 265.841 203.986L264.782 202.847C264.864 202.928 262.99 200.732 260.14 200.569Z" fill="#0181F7"/>
<path d="M267.226 213.258C267.226 213.258 268.774 202.928 264.783 202.359C260.873 201.871 260.792 205.124 260.71 209.923C260.547 214.721 260.629 215.778 260.629 215.778L266.819 216.917L267.226 213.258Z" fill="#0064E1"/>
<path d="M260.792 215.86C260.71 215.86 260.629 215.942 260.629 216.023L260.303 220.008C260.303 220.578 260.221 221.147 259.651 220.903C259.326 220.741 258.918 220.578 258.43 220.334C256.638 219.358 251.343 216.673 249.633 215.942C249.307 215.779 249.144 215.535 248.981 215.21C248.818 214.721 248.33 213.99 247.352 213.664C245.805 213.258 243.117 213.258 243.117 213.501C243.035 213.664 242.709 214.966 242.872 215.454C243.035 215.86 244.257 215.535 244.257 215.535C244.257 215.535 246.701 215.128 245.968 215.942C245.56 216.43 244.99 216.511 244.583 216.511C244.42 216.511 244.339 216.673 244.502 216.836C244.827 217.08 245.397 217.406 246.375 217.569C248.167 217.812 260.873 226.19 260.873 226.19C260.873 226.19 263.317 228.142 264.783 223.017C265.842 219.114 266.412 217.731 266.575 217.243C266.656 217.162 266.575 216.999 266.412 216.999L260.792 215.86Z" fill="#FEBD96"/>
<path d="M239.696 221.391L246.945 224.4L247.678 219.846L244.746 219.683L239.696 221.391Z" fill="#FEBD96"/>
<path d="M234.727 206.832L223.243 206.181L235.134 221.228L246.13 221.635L234.727 206.832Z" fill="#0064B7"/>
<path d="M234.646 220.171C234.646 220.171 235.053 217.406 234.157 216.999C233.261 216.593 232.61 217.569 232.691 218.056C232.773 218.626 234.564 220.497 234.564 220.497L234.646 220.171Z" fill="#FEBD96"/>
<path d="M246.293 226.922L223.895 235.462C223.895 235.462 221.125 236.031 220.392 243.595C219.741 251.159 219.171 276.292 219.171 276.292V277.105L224.709 277.186L227.479 250.427L240.673 234.323L251.425 227.572L246.293 226.922Z" fill="#DE051F"/>
<path d="M262.339 228.629L251.506 227.653L228.619 239.121C228.619 239.121 222.428 242.782 226.419 249.451C230.41 256.12 241.406 276.372 241.406 276.372L245.234 273.526L235.46 246.279C235.46 246.279 235.216 244.896 238.474 244.652C241.487 244.408 255.904 243.026 257.778 242.863C257.94 242.863 258.103 242.782 258.266 242.782C259.407 242.375 263.805 240.179 262.42 232.452L262.257 229.199L262.339 228.629Z" fill="#EE384E"/>
<path d="M219.17 277.186L214.283 279.87C214.038 280.033 213.795 280.114 213.469 280.196C212.98 280.277 212.002 280.52 212.002 281.253C212.002 281.253 211.839 282.147 214.201 281.903C216.564 281.659 223.976 281.74 223.976 281.74C223.976 281.74 224.953 281.497 224.79 279.382L224.627 277.267L219.17 277.186Z" fill="#130452"/>
<path d="M241.406 276.372C241.406 276.372 241.325 277.674 240.103 279.382C239.37 280.357 238.637 281.253 237.904 282.229C237.741 282.472 237.497 282.635 237.334 282.96C237.252 283.123 237.171 283.367 237.171 283.529C237.171 283.692 237.171 283.936 237.415 284.099C237.66 284.262 238.067 284.181 238.393 284.099C238.474 284.099 238.556 284.018 238.637 284.018C240.51 283.367 246.212 278.65 247.434 277.674C247.597 277.511 247.678 277.348 247.678 277.185C247.678 276.779 247.597 275.966 247.108 275.396C246.375 274.502 245.235 273.607 245.235 273.607L241.406 276.372Z" fill="#130452"/>
</g>
<defs>
<clipPath id="clip0_137_10041">
<rect width="314.454" height="285.673" fill="white"/>
</clipPath>
</defs>
</svg>
