<svg width="315" height="286" viewBox="0 0 315 286" fill="none" xmlns="http://www.w3.org/2000/svg">
<g clip-path="url(#clip0_137_13482)">
<path d="M56.3566 162.432C84.3965 162.432 107.127 139.701 107.127 111.661C107.127 83.6215 84.3965 60.8906 56.3566 60.8906C28.3167 60.8906 5.58582 83.6215 5.58582 111.661C5.58582 139.701 28.3167 162.432 56.3566 162.432Z" stroke="#2626DB" stroke-width="0.637173" stroke-miterlimit="10" stroke-dasharray="3.82 3.82"/>
<path d="M8.59241 103.076C13.3379 103.076 17.1848 99.229 17.1848 94.4835C17.1848 89.7381 13.3379 85.8911 8.59241 85.8911C3.84695 85.8911 0 89.7381 0 94.4835C0 99.229 3.84695 103.076 8.59241 103.076Z" fill="#FCBE42"/>
<path d="M5.58582 92.7617L9.02138 97.9186L11.6033 93.6154" stroke="white" stroke-width="1.27435" stroke-miterlimit="10"/>
<path d="M265.582 190.945C283.56 190.945 298.133 176.372 298.133 158.395C298.133 140.418 283.56 125.844 265.582 125.844C247.605 125.844 233.032 140.418 233.032 158.395C233.032 176.372 247.605 190.945 265.582 190.945Z" stroke="#DE051F" stroke-width="0.637173" stroke-miterlimit="10" stroke-dasharray="3.82 3.82"/>
<path d="M308.299 111.256C308.299 111.256 303.765 123.144 298.217 118.75C292.668 114.356 290.324 116.168 288.001 118.162C285.678 120.157 283.033 125.446 277.428 120.499C271.824 115.545 270.851 110.85 266.898 110.648C262.937 110.445 247.25 104.357 251.189 98.9344C255.136 93.5117 264.708 94.2534 268.661 95.6458C272.614 97.0312 277.365 94.1484 280.416 91.0557C283.467 87.963 289.379 86.7175 291.01 92.3012C292.64 97.8848 298.14 101.104 302.093 99.998C306.06 98.8854 311.238 103.147 308.299 111.256Z" fill="#023EA1"/>
<path d="M299.869 108.899L246.39 95.4854" stroke="white" stroke-width="0.637173" stroke-miterlimit="10" stroke-linecap="round" stroke-linejoin="round"/>
<path d="M282.903 115.49L278.138 103.448L287.143 94.7017" stroke="white" stroke-width="0.637173" stroke-miterlimit="10" stroke-linecap="round" stroke-linejoin="round"/>
<path d="M297.07 71.1704C297.07 71.1704 303.256 71.0654 303.543 66.0135C303.822 60.9686 297.595 56.6304 293.712 58.7785C289.814 60.9266 289.828 64.3412 286.757 62.8998C283.685 61.4584 274.484 58.7226 272.916 63.2497C271.342 67.7698 275.54 70.9604 269.943 74.2281C264.345 77.4887 254.766 72.045 254.276 81.666C253.786 91.2869 257.236 107.66 271.573 100.551C285.91 93.449 272.385 87.2146 284.462 84.7587C296.539 82.2957 291.417 78.3284 292.207 74.382C292.984 70.4357 297.07 71.1704 297.07 71.1704Z" fill="#EE384E"/>
<path d="M286.616 70.1763C286.616 70.1763 275.539 82.2742 262.462 89.5302C249.384 96.7861 245.48 96.3943 245.48 96.3943" stroke="white" stroke-width="0.637173" stroke-miterlimit="10" stroke-linecap="round" stroke-linejoin="round"/>
<path d="M88.3735 20.7272C88.3735 20.7272 84.1823 27.8502 90.7176 27.8712C97.2528 27.8922 100.639 29.7534 99.6039 36.2397C98.5683 42.719 100.919 46.6934 104.67 47.645C108.42 48.5896 115.55 49.2123 113.682 57.9447C111.814 66.684 109.358 83.9178 99.5479 82.9942C89.738 82.0636 80.4459 70.0706 81.8383 63.4723C83.2307 56.8741 88.0027 53.3266 82.8459 47.8969C77.689 42.4671 73.2039 48.0998 70.2022 40.7668C67.2004 33.4339 63.499 26.2689 72.6091 20.0765C80.7817 14.5138 89.661 16.2421 88.3735 20.7272Z" stroke="#DE051F" stroke-width="0.637173" stroke-miterlimit="10"/>
<path d="M82.3279 28.2627C82.3279 28.2627 100.884 74.4294 108.336 85.044" stroke="#DE051F" stroke-width="0.637173" stroke-miterlimit="10"/>
<path d="M103.815 53.8589L98.2667 65.572L87.4282 64.2006" stroke="#DE051F" stroke-width="0.637173" stroke-miterlimit="10"/>
<path d="M92.8933 33.2939L87.6455 41.1587L78.4374 41.1167" stroke="#DE051F" stroke-width="0.637173" stroke-miterlimit="10"/>
<path d="M264.63 104.762C264.63 104.762 285.895 89.886 303.471 85.9746" stroke="#FCBE42" stroke-width="0.637173" stroke-miterlimit="10"/>
<path d="M314.763 85.2407C314.763 85.2407 308.886 90.6355 301.658 86.4162C301.651 86.4162 305.982 80.9165 314.763 85.2407Z" stroke="#FCBE42" stroke-width="0.637173" stroke-miterlimit="10"/>
<path d="M287.63 91.6154C287.63 91.6154 294.746 89.6982 299.441 97.199C299.441 97.199 293.683 100.817 287.63 91.6154Z" stroke="#FCBE42" stroke-width="0.637173" stroke-miterlimit="10"/>
<path d="M272.382 99.8298C272.382 99.8298 278.981 96.5622 285.054 102.999C285.054 102.999 280.121 107.673 272.382 99.8298Z" stroke="#FCBE42" stroke-width="0.637173" stroke-miterlimit="10"/>
<path d="M272.159 99.6192C272.159 99.6192 278.54 95.9388 276.546 87.3184C276.553 87.3184 269.92 88.8437 272.159 99.6192Z" stroke="#FCBE42" stroke-width="0.637173" stroke-miterlimit="10"/>
<path d="M287.727 91.6568C287.727 91.6568 294.529 88.816 293.647 80.0137C293.647 80.0207 286.888 80.6784 287.727 91.6568Z" stroke="#FCBE42" stroke-width="0.637173" stroke-miterlimit="10"/>
<path d="M105.579 23.8489C105.579 23.8489 121.19 22.2746 119.405 30.825C117.621 39.3754 120.917 40.9498 124.401 42.4121C127.886 43.8675 135.177 43.8745 132.812 52.7888C130.447 61.7031 125.801 65.3555 127.767 69.8337C129.733 74.3118 131.678 94.9812 123.527 93.6167C115.368 92.2523 110.904 81.2879 110.246 76.166C109.588 71.0442 103.788 67.3987 98.694 65.7404C93.6071 64.0891 88.9541 58.2535 94.2159 53.3836C99.4707 48.5136 99.9745 40.6699 96.5809 36.9124C93.1873 33.141 95.0205 25.0874 105.579 23.8489Z" fill="#FCBE42"/>
<path d="M107.643 34.4507L122.379 100.811" stroke="white" stroke-width="0.637173" stroke-miterlimit="10" stroke-linecap="round" stroke-linejoin="round"/>
<path d="M124.275 49.5068L113.626 61.4089L99.016 56.315" stroke="white" stroke-width="0.637173" stroke-miterlimit="10" stroke-linecap="round" stroke-linejoin="round"/>
<path d="M296.02 153.811C299.057 153.811 301.52 151.349 301.52 148.312C301.52 145.274 299.057 142.812 296.02 142.812C292.983 142.812 290.52 145.274 290.52 148.312C290.52 151.349 292.983 153.811 296.02 153.811Z" fill="#003EB0"/>
<path d="M294.642 146.108L298.225 148.585L294.642 150.516V146.108Z" fill="white"/>
<path d="M284.561 41.8245L281.523 44.8623L284.561 47.9001L287.599 44.8623L284.561 41.8245Z" fill="#003EB0"/>
<path d="M17.184 171.457L14.1461 174.495L17.184 177.532L20.2218 174.495L17.184 171.457Z" fill="#003EB0"/>
<path d="M146.161 48.0886L143.123 51.1265L146.161 54.1643L149.199 51.1265L146.161 48.0886Z" fill="#EE384E"/>
<path d="M217.547 30.6338H208.031C207.877 30.6338 207.751 30.7527 207.751 30.9137V34.832C207.751 34.902 207.786 34.979 207.835 35.028L208.954 36.1475C209.003 36.1965 209.073 36.2314 209.157 36.2314H216.434C216.504 36.2314 216.581 36.1965 216.63 36.1475L217.75 35.028C217.799 34.979 217.834 34.909 217.834 34.832V30.9067C217.834 30.7527 217.701 30.6338 217.547 30.6338ZM217.267 34.7131L216.315 35.6647H209.276L208.324 34.7131V31.1866H217.281V34.7131H217.267Z" fill="#003EB0"/>
<path d="M218.1 31.7464L207.457 32.3062C207.303 32.3132 207.184 32.4461 207.191 32.6C207.198 32.754 207.317 32.8659 207.471 32.8659C207.478 32.8659 207.478 32.8659 207.485 32.8659L218.128 32.3062C218.282 32.2992 218.401 32.1662 218.394 32.0123C218.38 31.8583 218.247 31.7394 218.1 31.7464Z" fill="#003EB0"/>
<path d="M218.1 33.4325L207.457 33.9922C207.303 33.9992 207.184 34.1322 207.191 34.2861C207.198 34.44 207.317 34.552 207.471 34.552C207.478 34.552 207.478 34.552 207.485 34.552L218.128 33.9922C218.282 33.9852 218.401 33.8523 218.394 33.6984C218.38 33.5374 218.247 33.4115 218.1 33.4325Z" fill="#003EB0"/>
<path d="M212.789 11.5938C207.534 11.5938 203.273 15.862 203.273 21.1098C203.273 24.4194 204.945 27.4211 207.751 29.1704V30.9057C207.751 31.0596 207.877 31.1856 208.031 31.1856H217.547C217.701 31.1856 217.827 31.0596 217.827 30.9057V29.1704C220.633 27.4141 222.305 24.4124 222.305 21.1098C222.305 15.862 218.037 11.5938 212.789 11.5938ZM217.4 28.7716C217.316 28.8205 217.26 28.9185 217.26 29.0165V30.6328H208.304V29.0165C208.304 28.9185 208.255 28.8275 208.164 28.7716C205.442 27.1342 203.826 24.2654 203.826 21.1098C203.826 16.1698 207.842 12.1535 212.782 12.1535C217.722 12.1535 221.738 16.1698 221.738 21.1098C221.745 24.2724 220.122 27.1342 217.4 28.7716Z" fill="#003EB0"/>
<path d="M215.433 35.6978C215.293 35.6278 215.125 35.6838 215.055 35.8168C215.034 35.8587 214.531 36.7823 212.788 36.7823C211.046 36.7823 210.535 35.8517 210.521 35.8168C210.451 35.6768 210.29 35.6208 210.15 35.6978C210.011 35.7678 209.955 35.9287 210.025 36.0686C210.046 36.1246 210.689 37.3421 212.788 37.3421C214.887 37.3421 215.531 36.1176 215.552 36.0686C215.629 35.9287 215.573 35.7678 215.433 35.6978Z" fill="#003EB0"/>
<path d="M200.751 20.8306H195.153C194.999 20.8306 194.874 20.9495 194.874 21.1104C194.874 21.2644 194.999 21.3903 195.153 21.3903H200.751C200.905 21.3903 201.031 21.2644 201.031 21.1104C201.031 20.9565 200.905 20.8306 200.751 20.8306Z" fill="#DE051F"/>
<path d="M230.419 20.8306H224.821C224.667 20.8306 224.542 20.9565 224.542 21.1104C224.542 21.2644 224.667 21.3903 224.821 21.3903H230.419C230.573 21.3903 230.699 21.2644 230.699 21.1104C230.706 20.9565 230.573 20.8306 230.419 20.8306Z" fill="#DE051F"/>
<path d="M202.604 26.9881C202.52 26.8481 202.352 26.8132 202.226 26.8831L197.377 29.682C197.238 29.7659 197.203 29.9339 197.273 30.0598C197.322 30.1508 197.419 30.1997 197.517 30.1997C197.566 30.1997 197.615 30.1927 197.657 30.1578L202.506 27.3589C202.639 27.289 202.688 27.121 202.604 26.9881Z" fill="#DE051F"/>
<path d="M228.298 12.1473C228.214 12.0073 228.046 11.9723 227.921 12.0423L223.072 14.8481C222.932 14.9321 222.897 15.1 222.967 15.226C223.016 15.3169 223.114 15.3659 223.212 15.3659C223.261 15.3659 223.309 15.3519 223.351 15.3239L228.2 12.5251C228.333 12.4551 228.375 12.2872 228.298 12.1473Z" fill="#DE051F"/>
<path d="M221.743 5.59749C221.603 5.52751 221.435 5.5625 221.365 5.70244L218.566 10.5514C218.482 10.6914 218.531 10.8593 218.671 10.9293C218.72 10.9502 218.769 10.9712 218.811 10.9712C218.909 10.9712 219.007 10.9223 219.056 10.8313L221.855 5.98232C221.925 5.84238 221.876 5.67445 221.743 5.59749Z" fill="#DE051F"/>
<path d="M212.786 3.19775C212.632 3.19775 212.506 3.3237 212.506 3.47764V9.07529C212.506 9.22923 212.632 9.35518 212.786 9.35518C212.94 9.35518 213.066 9.22923 213.066 9.07529V3.47764C213.066 3.3237 212.94 3.19775 212.786 3.19775Z" fill="#DE051F"/>
<path d="M207.014 10.5451L204.215 5.69609C204.131 5.55615 203.963 5.52117 203.837 5.59114C203.697 5.6751 203.662 5.84303 203.732 5.96898L206.531 10.818C206.58 10.9089 206.678 10.9579 206.776 10.9579C206.825 10.9579 206.874 10.9509 206.916 10.9159C207.042 10.8529 207.091 10.685 207.014 10.5451Z" fill="#DE051F"/>
<path d="M228.2 29.6898L223.351 26.8909C223.211 26.821 223.043 26.856 222.973 26.9959C222.889 27.1358 222.938 27.3038 223.078 27.3737L227.927 30.1726C227.976 30.1936 228.025 30.2146 228.067 30.2146C228.165 30.2146 228.263 30.1656 228.312 30.0746C228.375 29.9277 228.333 29.7597 228.2 29.6898Z" fill="#DE051F"/>
<path d="M202.501 14.8411L197.652 12.0423C197.512 11.9723 197.344 12.0073 197.274 12.1473C197.19 12.2872 197.239 12.4551 197.379 12.5251L202.228 15.3239C202.277 15.3449 202.319 15.3659 202.368 15.3659C202.466 15.3659 202.564 15.3169 202.613 15.226C202.69 15.093 202.641 14.9251 202.501 14.8411Z" fill="#DE051F"/>
<path d="M213.6 30.633V21.5928C213.6 21.5928 213.474 17.3315 215.797 17.3315C218.12 17.3315 217.049 21.7607 212.571 21.7607" stroke="#003EB0" stroke-width="0.637173" stroke-miterlimit="10"/>
<path d="M211.535 30.633V21.5928C211.535 21.5928 211.661 17.3315 209.338 17.3315C207.015 17.3315 208.086 21.7607 212.564 21.7607" stroke="#003EB0" stroke-width="0.637173" stroke-miterlimit="10"/>
<path d="M68.0284 71.3999H270.58L270.286 205.947L67.1608 205.66L68.0284 71.3999Z" fill="#E9EEF2"/>
<path d="M191.532 209.732C191.518 209.732 191.448 210.068 191.441 210.089C191.371 210.425 191.301 210.768 191.245 211.104C191.154 211.629 191.091 212.16 191.035 212.685C190.972 213.371 190.93 214.057 190.916 214.742C190.902 215.554 190.923 216.366 190.979 217.17C191.042 218.08 191.168 218.983 191.336 219.892C191.525 220.879 191.763 221.844 192.07 222.796C192.399 223.818 192.812 224.832 193.288 225.798C193.806 226.847 194.408 227.848 195.086 228.799C195.828 229.835 196.661 230.808 197.563 231.703C198.571 232.704 199.662 233.606 200.824 234.425C201.475 234.887 202.139 235.356 202.839 235.741C203.063 235.86 203.315 235.957 203.56 236.041C203.602 236.055 204.035 236.181 204.035 236.202V244.235H133.092L133.05 236.678C133.05 236.678 144.141 234.453 146.464 210.621C146.492 210.6 191.532 209.732 191.532 209.732Z" fill="#0064B7"/>
<path d="M191.721 222.517L146.163 213.253L146.485 210.601L191.819 210.021C191.819 210.021 189.3 212.924 191.721 222.517Z" fill="#023EA1"/>
<path d="M204.05 236.658H133.072L133.065 244.215H204.05V236.658Z" fill="#023EA1"/>
<path d="M268.836 60.9465H67.7402C59.3087 60.6526 59.3087 67.6357 59.3087 67.6357V101.047V173.41V206.822C59.3087 206.822 59.3087 213.798 67.7402 213.511H268.829C268.829 213.511 277.841 213.805 277.841 205.079C277.841 204.862 277.841 204.568 277.841 204.219V200.153C277.841 200.153 277.841 99.0596 277.841 74.3179C277.841 72.5547 277.841 71.1692 277.841 70.2526C277.841 69.8958 277.841 69.6089 277.841 69.392C277.834 60.6596 268.836 60.9465 268.836 60.9465ZM268.542 201.301L68.6078 202.455L68.314 137.222L68.6078 71.9879L268.542 73.1424L268.836 137.222L268.542 201.301Z" fill="#0064B7"/>
<path d="M80.0157 197.535H257.686C261.056 197.535 263.79 193.778 263.79 189.146V85.4994C263.79 80.8677 261.056 77.1099 257.686 77.1099H80.0157C76.646 77.1099 73.9121 80.8677 73.9121 85.4994V189.146C73.9015 193.778 76.646 197.535 80.0157 197.535Z" fill="white"/>
<path d="M80.0157 197.535H257.686C261.056 197.535 263.79 193.778 263.79 189.146V85.4994C263.79 80.8677 261.056 77.1099 257.686 77.1099H80.0157C76.646 77.1099 73.9121 80.8677 73.9121 85.4994V189.146C73.9015 193.778 76.646 197.535 80.0157 197.535Z" fill="white"/>
<path d="M131.206 123.501L166.123 101.928C168.018 100.739 170.488 100.739 172.383 101.928L207.3 123.501V158.743L131.321 154.821L131.206 123.501Z" fill="#0064B7"/>
<path d="M200.581 107.933H137.696V164.213H200.581V107.933Z" fill="white"/>
<path d="M209.63 181.606H128.709C127.653 181.606 126.797 182.462 126.797 183.517C126.797 184.573 127.653 185.429 128.709 185.429H209.63C210.685 185.429 211.541 184.573 211.541 183.517C211.541 182.462 210.685 181.606 209.63 181.606Z" fill="#A4A4A4"/>
<path d="M139.591 110.364C139.591 110.008 139.878 109.71 140.222 109.71C140.567 109.71 140.854 110.008 140.854 110.364C140.854 110.721 140.567 111.018 140.222 111.018C139.878 111.077 139.591 110.78 139.591 110.364Z" fill="#FBCBAA"/>
<path d="M197.365 110.364C197.365 110.008 197.652 109.71 197.996 109.71C198.341 109.71 198.628 110.008 198.628 110.364C198.628 110.721 198.341 111.018 197.996 111.018C197.652 111.077 197.365 110.78 197.365 110.364Z" fill="#FBCBAA"/>
<path d="M198.112 110.304H140.338V110.423H198.112V110.304Z" fill="#67C2F1" stroke="#003EB0" stroke-width="1.17683" stroke-miterlimit="10"/>
<path d="M140.394 110.185H140.279V169.971H140.394V110.185Z" fill="#67C2F1" stroke="#003EB0" stroke-width="1.17683" stroke-miterlimit="10"/>
<path d="M198.112 110.185H197.997V169.971H198.112V110.185Z" fill="#67C2F1" stroke="#003EB0" stroke-width="1.17683" stroke-miterlimit="10"/>
<path d="M207.185 123.444V170.513H131.206V123.444L169.167 147.038L207.185 123.444Z" fill="#0064B7"/>
<path d="M131.206 170.515L166.008 144.663C167.904 143.237 170.488 143.237 172.326 144.663L207.128 170.515H131.206Z" fill="#023EA1"/>
<path d="M180.768 115.774H157.853C157.566 115.774 157.279 115.476 157.279 115.179C157.279 114.882 157.566 114.585 157.853 114.585H180.768C181.055 114.585 181.342 114.882 181.342 115.179C181.4 115.476 181.112 115.774 180.768 115.774Z" fill="#C7D7F0"/>
<path d="M186.683 118.27H151.938C151.651 118.27 151.364 117.973 151.364 117.675C151.364 117.378 151.651 117.081 151.938 117.081H186.683C186.97 117.081 187.257 117.378 187.257 117.675C187.315 117.973 187.028 118.27 186.683 118.27Z" fill="#C7D7F0"/>
<path d="M182.203 126.118H157.049C156.819 126.118 156.647 125.88 156.647 125.702C156.647 125.464 156.877 125.286 157.049 125.286H182.203C182.433 125.286 182.605 125.523 182.605 125.702C182.605 125.88 182.433 126.118 182.203 126.118Z" fill="#C7D7F0"/>
<path d="M159.575 128.434H152.454C152.224 128.434 152.052 128.196 152.052 128.018C152.052 127.78 152.282 127.602 152.454 127.602H159.575C159.805 127.602 159.977 127.839 159.977 128.018C159.977 128.255 159.747 128.434 159.575 128.434Z" fill="#C7D7F0"/>
<path d="M170.258 128.434H161.701C161.471 128.434 161.299 128.196 161.299 128.018C161.299 127.78 161.528 127.602 161.701 127.602H170.258C170.487 127.602 170.66 127.839 170.66 128.018C170.66 128.255 170.545 128.434 170.258 128.434Z" fill="#C7D7F0"/>
<path d="M186.739 128.434H171.922C171.692 128.434 171.52 128.196 171.52 128.018C171.52 127.78 171.75 127.602 171.922 127.602H186.739C186.969 127.602 187.141 127.839 187.141 128.018C187.198 128.255 186.969 128.434 186.739 128.434Z" fill="#C7D7F0"/>
<path d="M170.314 131.17H156.474C156.244 131.17 156.072 130.932 156.072 130.754C156.072 130.516 156.301 130.338 156.474 130.338H170.314C170.544 130.338 170.716 130.576 170.716 130.754C170.716 130.932 170.544 131.17 170.314 131.17Z" fill="#C7D7F0"/>
<path d="M182.719 131.17H171.865C171.635 131.17 171.463 130.932 171.463 130.754C171.463 130.516 171.692 130.338 171.865 130.338H182.719C182.948 130.338 183.121 130.576 183.121 130.754C183.121 130.932 182.891 131.17 182.719 131.17Z" fill="#C7D7F0"/>
<g opacity="0.5">
<path d="M167.789 84.8682L171.12 92.3564L159.002 98.0022L155.786 90.514L163.424 91.346L167.789 84.8682Z" fill="#C5E0FB"/>
<path d="M155.786 90.514L167.846 84.8682L164.171 91.1678C163.883 91.7026 163.309 91.8809 162.792 91.8215L155.786 90.514Z" fill="#A4CFF3"/>
</g>
<g opacity="0.5">
<path d="M134.493 111.518L136.273 116.331L128.52 119.303L126.797 114.549L131.506 115.44L134.493 111.518Z" fill="#C5E0FB"/>
<path d="M126.797 114.549L134.493 111.577L132.023 115.321C131.794 115.618 131.449 115.737 131.162 115.618L126.797 114.549Z" fill="#A4CFF3"/>
</g>
<g opacity="0.5">
<path d="M229.066 105.256L226.654 114.586L211.493 110.486L213.905 101.036L220.222 107.811L229.066 105.256Z" fill="#C5E0FB"/>
<path d="M213.905 101.036L229.066 105.256L221.141 108.227C220.509 108.465 219.878 108.227 219.418 107.811L213.905 101.036Z" fill="#A4CFF3"/>
</g>
<path d="M93.5326 154.825C93.188 154.825 92.8434 154.825 92.4414 154.825C92.4414 154.825 92.384 154.825 92.384 154.765C92.384 154.765 92.384 154.706 92.4414 154.706C92.7286 154.706 93.0731 154.706 93.5326 154.706C93.5326 154.706 93.59 154.706 93.5326 154.825ZM94.6237 154.825C94.5089 154.765 94.5089 154.825 94.6237 154.825C94.5663 154.765 94.6237 154.706 94.6237 154.706C94.9683 154.706 95.3129 154.706 95.7149 154.706C95.7149 154.706 95.7723 154.706 95.7723 154.765C95.7723 154.765 95.7723 154.825 95.7149 154.825C95.2555 154.825 94.9109 154.825 94.6237 154.825ZM91.4077 154.765C91.0631 154.765 90.7185 154.765 90.3165 154.706C90.3165 154.706 90.2591 154.706 90.2591 154.647C90.2591 154.647 90.2591 154.587 90.3165 154.587C90.6037 154.587 90.9482 154.647 91.4077 154.647C91.4651 154.587 91.4651 154.587 91.4077 154.765C91.4651 154.765 91.4651 154.765 91.4077 154.765ZM96.6912 154.765C96.6338 154.706 96.6912 154.647 96.6912 154.647C97.0358 154.647 97.3803 154.647 97.7823 154.587C97.7823 154.587 97.8398 154.587 97.8398 154.647C97.8398 154.647 97.8398 154.706 97.7823 154.706C97.3803 154.706 97.0358 154.765 96.6912 154.765ZM98.8161 154.587C98.7586 154.587 98.7586 154.587 98.8161 154.587C98.7586 154.528 98.8161 154.468 98.8161 154.468C99.1607 154.468 99.5052 154.468 99.9072 154.409C99.9072 154.409 99.9647 154.409 99.9647 154.468C99.9647 154.528 99.9647 154.528 99.9072 154.528C99.5052 154.528 99.1607 154.587 98.8161 154.587ZM89.3402 154.528C88.9956 154.468 88.6511 154.409 88.2491 154.29C88.2491 154.29 88.1916 154.29 88.2491 154.231C88.2491 154.231 88.2491 154.171 88.3065 154.231C88.5936 154.29 88.9382 154.349 89.2828 154.468C89.3402 154.409 89.3977 154.468 89.3402 154.528ZM100.941 154.468C100.884 154.409 100.884 154.468 100.941 154.468C100.884 154.409 100.941 154.349 100.941 154.349C101.286 154.349 101.63 154.29 102.032 154.29C102.032 154.29 102.09 154.29 102.09 154.349C102.09 154.349 102.09 154.409 102.032 154.409C101.573 154.409 101.286 154.409 100.941 154.468ZM103.008 154.231C102.951 154.231 102.951 154.231 103.008 154.231C102.951 154.171 103.008 154.112 103.008 154.112C103.353 154.112 103.698 154.052 104.1 154.052C104.1 154.052 104.157 154.052 104.157 154.112C104.157 154.112 104.157 154.171 104.1 154.171C103.698 154.171 103.353 154.231 103.008 154.231ZM105.076 154.052C105.018 153.993 105.076 153.933 105.076 153.933C105.42 153.933 105.765 153.874 106.167 153.874C106.167 153.874 106.224 153.874 106.224 153.933C106.224 153.993 106.224 153.993 106.167 153.993C105.765 153.933 105.478 153.933 105.076 154.052C105.133 154.052 105.133 154.052 105.076 154.052ZM87.3302 153.815C87.1005 153.696 86.9856 153.517 86.9282 153.28C86.8708 153.161 86.8708 152.983 86.8133 152.923V152.864H86.8708C86.8708 152.983 86.9282 153.101 86.9856 153.22C87.043 153.458 87.2153 153.577 87.3302 153.815C87.3876 153.815 87.3876 153.815 87.3302 153.815ZM107.201 153.815C107.143 153.815 107.143 153.815 107.201 153.815C107.143 153.755 107.201 153.696 107.201 153.696C107.545 153.696 107.89 153.636 108.292 153.577C108.292 153.577 108.349 153.577 108.349 153.636C108.349 153.636 108.349 153.696 108.292 153.696C107.89 153.755 107.545 153.815 107.201 153.815ZM109.268 153.577C109.211 153.517 109.268 153.458 109.268 153.458C109.613 153.458 109.957 153.399 110.359 153.339C110.359 153.339 110.417 153.339 110.417 153.399C110.417 153.458 110.417 153.458 110.359 153.458C109.957 153.458 109.613 153.517 109.268 153.577ZM111.393 153.28C111.336 153.22 111.336 153.28 111.393 153.28C111.336 153.22 111.393 153.161 111.393 153.161C111.738 153.161 112.082 153.101 112.484 153.042C112.484 153.042 112.542 153.042 112.542 153.101C112.542 153.161 112.542 153.161 112.484 153.161C112.025 153.161 111.738 153.22 111.393 153.28ZM113.461 152.983C113.403 152.923 113.403 152.983 113.461 152.983C113.403 152.923 113.461 152.864 113.461 152.864C113.805 152.864 114.15 152.804 114.552 152.745C114.552 152.745 114.609 152.745 114.609 152.804C114.609 152.804 114.609 152.864 114.552 152.864C114.207 152.864 113.805 152.923 113.461 152.983ZM115.585 152.685C115.528 152.626 115.528 152.685 115.585 152.685C115.528 152.626 115.585 152.567 115.585 152.567C115.93 152.567 116.275 152.507 116.677 152.448C116.677 152.448 116.734 152.448 116.734 152.507C116.734 152.507 116.734 152.567 116.677 152.567C116.332 152.567 115.987 152.626 115.585 152.685ZM117.653 152.329C117.596 152.329 117.596 152.329 117.653 152.329C117.596 152.269 117.653 152.21 117.653 152.21C117.998 152.21 118.342 152.151 118.744 152.091C118.744 152.091 118.802 152.091 118.802 152.151C118.802 152.151 118.802 152.21 118.744 152.21C118.4 152.269 118.055 152.329 117.653 152.329ZM119.72 152.032C119.663 151.972 119.72 151.913 119.72 151.913C120.065 151.853 120.41 151.853 120.812 151.794C120.812 151.794 120.869 151.794 120.869 151.853C120.869 151.853 120.869 151.913 120.812 151.913C120.467 151.913 120.122 151.972 119.72 152.032ZM86.6985 151.913C86.641 151.794 86.641 151.913 86.6985 151.913C86.6985 151.556 86.8133 151.2 87.043 150.903H87.1005V150.962C86.9282 151.2 86.7559 151.497 86.6985 151.913ZM121.903 151.675C121.788 151.675 121.788 151.675 121.903 151.675C121.845 151.616 121.903 151.556 121.903 151.556C122.247 151.497 122.592 151.497 122.879 151.437C122.879 151.437 122.936 151.437 122.936 151.497C122.936 151.497 122.936 151.556 122.879 151.556C122.534 151.616 122.247 151.616 121.903 151.675ZM123.97 151.319C123.855 151.319 123.855 151.319 123.97 151.319C123.913 151.259 123.97 151.2 123.97 151.2C124.315 151.14 124.659 151.14 124.946 151.081C124.946 151.081 125.004 151.081 125.004 151.14C125.004 151.2 125.004 151.2 124.946 151.2C124.659 151.2 124.315 151.319 123.97 151.319ZM125.98 151.021C125.923 150.962 125.98 150.903 125.98 150.903C126.325 150.843 126.669 150.843 126.956 150.784C126.956 150.784 127.014 150.784 127.014 150.843C127.014 150.903 127.014 150.903 126.956 150.903C126.727 150.843 126.382 150.903 125.98 151.021ZM128.048 150.665C127.99 150.605 128.048 150.546 128.048 150.546C128.392 150.486 128.737 150.486 129.024 150.427C129.024 150.427 129.081 150.427 129.081 150.486C129.081 150.546 129.081 150.546 129.024 150.546C128.794 150.486 128.45 150.546 128.048 150.665ZM130.23 150.249C130.115 150.189 130.115 150.249 130.23 150.249C130.173 150.189 130.23 150.13 130.23 150.13C130.575 150.07 130.919 150.07 131.206 150.011C131.206 150.011 131.264 150.011 131.264 150.07C131.264 150.13 131.264 150.13 131.206 150.13C130.919 150.13 130.575 150.189 130.23 150.249ZM87.9045 150.13C87.8471 150.07 87.8471 150.07 87.8471 150.011C88.1342 149.892 88.4214 149.654 88.7659 149.476H88.8234V149.536C88.4788 149.773 88.1916 149.952 87.9045 150.13ZM132.297 149.833C132.183 149.833 132.183 149.833 132.297 149.833C132.24 149.773 132.297 149.714 132.297 149.714C132.642 149.654 132.987 149.595 133.274 149.595C133.274 149.595 133.331 149.595 133.331 149.654C133.331 149.654 133.331 149.714 133.274 149.714C132.987 149.773 132.642 149.833 132.297 149.833ZM134.365 149.476C134.25 149.476 134.25 149.476 134.365 149.476C134.307 149.417 134.365 149.357 134.365 149.357C134.709 149.298 135.054 149.238 135.341 149.238C135.341 149.238 135.399 149.238 135.399 149.298C135.399 149.357 135.399 149.357 135.341 149.357C135.054 149.298 134.709 149.357 134.365 149.476ZM89.7997 149.179C89.7422 149.179 89.7422 149.179 89.7997 149.179C89.7422 149.12 89.7422 149.12 89.7997 149.06C90.0868 149.001 90.4314 148.822 90.776 148.763H90.8334V148.822C90.4888 148.941 90.2017 149.001 89.7997 149.179ZM136.432 149.06C136.375 149.001 136.432 148.941 136.432 148.941C136.777 148.882 137.122 148.822 137.409 148.822C137.409 148.822 137.466 148.822 137.466 148.882C137.466 148.882 137.466 148.941 137.409 148.941C137.179 148.941 136.834 149.001 136.432 149.06ZM138.5 148.644C138.442 148.585 138.5 148.525 138.5 148.525C138.557 148.525 138.557 148.525 138.557 148.525C138.557 148.525 138.615 148.525 138.615 148.585C138.672 148.644 138.672 148.644 138.5 148.644ZM91.8097 148.585C91.7523 148.525 91.7523 148.585 91.8097 148.585C91.7523 148.525 91.7523 148.466 91.8097 148.466C92.0968 148.406 92.4414 148.347 92.786 148.228C92.786 148.228 92.8434 148.228 92.8434 148.288C92.8434 148.288 92.8434 148.347 92.786 148.347C92.5563 148.406 92.1543 148.525 91.8097 148.585ZM93.8771 148.109C93.8197 148.05 93.8771 147.99 93.8771 147.99C94.2217 147.931 94.5089 147.931 94.9683 147.872C94.9683 147.872 95.0257 147.872 95.0257 147.931C95.0257 147.931 95.0257 147.99 94.9683 147.99C94.6237 147.99 94.2217 148.05 93.8771 148.109ZM96.002 147.812C95.9446 147.753 95.9446 147.812 96.002 147.812C95.9446 147.753 96.002 147.693 96.002 147.693C96.3466 147.693 96.6912 147.634 97.0932 147.634C97.0932 147.634 97.1506 147.634 97.1506 147.693C97.1506 147.693 97.1506 147.753 97.0932 147.753C96.7486 147.753 96.404 147.753 96.002 147.812ZM98.0695 147.634C98.0121 147.574 98.0695 147.515 98.0695 147.515C98.7012 147.515 99.1607 147.456 99.1607 147.456C99.1607 147.456 99.2181 147.456 99.2181 147.515C99.2181 147.574 99.2181 147.574 99.1607 147.574C99.1607 147.515 98.7586 147.515 98.0695 147.634Z" fill="#A2CDFC"/>
<path d="M140.913 152.566L149.527 147.455L141.602 147.93L142.233 149.297L140.625 151.139L140.913 152.566Z" fill="#A2CDFC"/>
<path d="M149.469 147.335L140.453 149.178L133.848 153.873L149.469 147.335Z" fill="#FCBE42"/>
<path d="M141.601 147.93L149.526 147.455L141.256 144.959L141.601 147.93Z" fill="#FCBE42"/>
<path d="M147.517 167.717H137.984C136.261 167.717 134.825 166.29 134.825 164.448C134.825 162.665 136.204 161.179 137.984 161.179H147.517C149.24 161.179 150.676 162.606 150.676 164.448C150.561 166.35 149.24 167.717 147.517 167.717Z" fill="#FFECDA"/>
<path d="M146.598 162.961H136.777C136.72 162.961 136.548 162.901 136.548 162.723C136.548 162.664 136.605 162.485 136.777 162.485H146.655C146.713 162.485 146.885 162.545 146.885 162.723C146.827 162.842 146.713 162.961 146.598 162.961Z" fill="#FBCBAA"/>
<path d="M138.5 163.853H136.777C136.72 163.853 136.548 163.793 136.548 163.615C136.548 163.556 136.605 163.377 136.777 163.377H138.5C138.558 163.377 138.73 163.437 138.73 163.615C138.672 163.734 138.615 163.853 138.5 163.853Z" fill="#FBCBAA"/>
<path d="M144.014 163.853H139.19C139.132 163.853 138.96 163.793 138.96 163.615C138.96 163.556 139.018 163.377 139.19 163.377H144.014C144.071 163.377 144.244 163.437 144.244 163.615C144.186 163.734 144.071 163.853 144.014 163.853Z" fill="#FBCBAA"/>
<path d="M146.598 165.458H136.777C136.72 165.458 136.548 165.399 136.548 165.221C136.548 165.161 136.605 164.983 136.777 164.983H146.655C146.713 164.983 146.885 165.042 146.885 165.221C146.827 165.399 146.713 165.458 146.598 165.458Z" fill="#FBCBAA"/>
<path d="M140.338 166.35H136.777C136.72 166.35 136.548 166.291 136.548 166.112C136.548 166.053 136.605 165.875 136.777 165.875H140.338C140.395 165.875 140.568 165.934 140.568 166.112C140.51 166.231 140.453 166.35 140.338 166.35Z" fill="#FBCBAA"/>
<path d="M144.645 166.35H141.085C141.027 166.35 140.855 166.291 140.855 166.112C140.855 166.053 140.912 165.875 141.085 165.875H144.645C144.703 165.875 144.875 165.934 144.875 166.112C144.875 166.231 144.818 166.35 144.645 166.35Z" fill="#FBCBAA"/>
<path d="M191.047 85.704C191.047 85.704 190.99 85.6446 190.932 85.704L189.841 85.8229C189.726 85.8229 189.554 85.7635 189.554 85.5852C189.497 85.0503 189.267 84.5749 188.98 84.0994C188.922 83.9806 188.98 83.8023 189.037 83.7428L189.841 83.0891C189.841 83.0891 189.899 83.0297 189.899 82.9703C189.899 82.9108 189.899 82.9108 189.841 82.8514L188.635 81.6034C188.635 81.6034 188.578 81.5439 188.52 81.5439C188.463 81.5439 188.463 81.5439 188.406 81.6034L187.774 82.4354C187.716 82.4948 187.544 82.5542 187.429 82.4948C187.027 82.1977 186.51 82.0788 185.993 81.9005C185.879 81.9005 185.764 81.7816 185.764 81.6034L185.879 80.4742C185.879 80.4148 185.879 80.4148 185.879 80.3553C185.879 80.3553 185.821 80.2959 185.764 80.2959H184.041C183.983 80.2959 183.983 80.2959 183.926 80.3553C183.926 80.3553 183.869 80.4148 183.926 80.4742L184.041 81.6034C184.041 81.7222 183.983 81.9005 183.811 81.9005C183.294 81.9599 182.835 82.1977 182.375 82.4948C182.261 82.5542 182.088 82.4948 182.031 82.4354L181.399 81.6034C181.399 81.6034 181.342 81.5439 181.284 81.5439C181.227 81.5439 181.227 81.5439 181.169 81.6034L179.963 82.8514C179.963 82.8514 179.906 82.9108 179.906 82.9703C179.906 83.0297 179.906 83.0297 179.963 83.0891L180.767 83.7428C180.825 83.8023 180.882 83.9806 180.825 84.0994C180.538 84.5154 180.423 85.0503 180.251 85.5852C180.251 85.704 180.136 85.8229 179.963 85.8229L178.872 85.704C178.815 85.704 178.815 85.704 178.757 85.704C178.757 85.704 178.7 85.7635 178.7 85.8229V87.6058C178.7 87.6652 178.7 87.6652 178.757 87.7247C178.757 87.7247 178.815 87.7841 178.872 87.7247L179.963 87.6058C180.078 87.6058 180.251 87.6652 180.251 87.8435C180.308 88.3784 180.538 88.8538 180.825 89.3293C180.882 89.4481 180.825 89.6264 180.767 89.6858L179.963 90.3396C179.963 90.3396 179.906 90.399 179.906 90.4584C179.906 90.5179 179.906 90.5179 179.963 90.5773L181.169 91.8253C181.169 91.8253 181.227 91.8848 181.284 91.8848C181.342 91.8848 181.342 91.8848 181.399 91.8253L181.973 91.0527C182.031 90.9933 182.203 90.9339 182.318 90.9933C182.72 91.2905 183.237 91.4093 183.754 91.5876C183.869 91.5876 183.983 91.7065 183.983 91.8848L183.869 93.0139C183.869 93.0734 183.869 93.0734 183.869 93.1328C183.869 93.1328 183.926 93.1922 183.983 93.1922H185.706C185.764 93.1922 185.764 93.1922 185.821 93.1328C185.821 93.1328 185.879 93.0734 185.821 93.0139L185.706 91.8848C185.706 91.7659 185.764 91.5876 185.936 91.5876C186.453 91.5282 186.912 91.2905 187.372 90.9933C187.487 90.9339 187.659 90.9933 187.716 91.0527L188.348 91.8848C188.348 91.8848 188.406 91.9442 188.463 91.9442C188.52 91.9442 188.52 91.9442 188.578 91.8848L189.784 90.6367C189.784 90.6367 189.841 90.5773 189.841 90.5179C189.841 90.4584 189.841 90.4584 189.784 90.399L188.98 89.7453C188.922 89.6858 188.865 89.5076 188.922 89.3887C189.21 88.9727 189.324 88.4378 189.497 87.9029C189.497 87.7841 189.612 87.6652 189.784 87.6652L190.875 87.7841C190.932 87.7841 190.932 87.7841 190.99 87.7841C190.99 87.7841 191.047 87.7247 191.047 87.6652V85.8823C191.105 85.8229 191.047 85.7635 191.047 85.704ZM190.588 87.4869L189.726 87.4275C189.382 87.4275 189.037 87.5464 188.922 87.9624C188.865 88.3784 188.635 88.8538 188.406 89.2698C188.291 89.567 188.348 89.983 188.52 90.2207L189.095 90.6367L188.233 91.5282L187.831 90.9339C187.602 90.6367 187.199 90.5773 186.912 90.815C186.568 91.0527 186.051 91.231 185.649 91.3499C185.304 91.4093 185.075 91.7659 185.132 92.1819L185.189 93.0734H183.983L184.041 92.1819C184.041 91.8253 183.926 91.4687 183.524 91.3499C183.122 91.2905 182.663 91.0527 182.261 90.815C181.973 90.6962 181.571 90.7556 181.342 90.9339L180.94 91.5282L180.078 90.6367L180.653 90.2207C180.94 89.983 180.997 89.567 180.767 89.2698C180.538 88.9133 180.365 88.3784 180.251 87.9624C180.193 87.6058 179.849 87.3681 179.447 87.4275L178.585 87.4869V86.2389L179.447 86.2983C179.791 86.2983 180.136 86.1795 180.251 85.7635C180.308 85.3475 180.538 84.872 180.767 84.456C180.882 84.1589 180.825 83.7428 180.653 83.5051L180.078 83.0891L180.94 82.1977L181.342 82.792C181.571 83.0891 181.973 83.1485 182.261 82.9108C182.605 82.6731 183.122 82.4948 183.524 82.376C183.869 82.3165 184.098 81.9599 184.041 81.5439L183.983 80.6525H185.189L185.132 81.5439C185.132 81.9005 185.247 82.2571 185.649 82.376C186.051 82.4354 186.51 82.6731 186.912 82.9108C187.199 83.0297 187.602 82.9703 187.831 82.792L188.233 82.1977L189.095 83.0891L188.52 83.5051C188.233 83.7428 188.176 84.1589 188.406 84.456C188.635 84.8126 188.808 85.3475 188.922 85.7635C188.98 86.12 189.324 86.3578 189.726 86.2983L190.588 86.2389V87.4869Z" fill="#003EB0"/>
<path d="M184.558 83.6841C182.893 83.6841 181.572 85.1104 181.572 86.7744C181.572 88.4385 182.95 89.8648 184.558 89.8648C186.166 89.8648 187.545 88.4385 187.545 86.7744C187.602 85.1104 186.281 83.6841 184.558 83.6841ZM184.558 89.5082C183.122 89.5082 181.974 88.3196 181.974 86.8339C181.974 85.3481 183.122 84.1595 184.558 84.1595C185.994 84.1595 187.143 85.3481 187.143 86.8339C187.2 88.2602 186.051 89.5082 184.558 89.5082Z" fill="#003EB0"/>
<path d="M182.868 181.606H128.709C127.653 181.606 126.797 182.462 126.797 183.517C126.797 184.573 127.653 185.429 128.709 185.429H182.868C183.924 185.429 184.78 184.573 184.78 183.517C184.78 182.462 183.924 181.606 182.868 181.606Z" fill="#EE384E"/>
<path d="M76.1566 249.531L67.7042 210.228L65.0663 197.983H31.7882L43.7042 249.531" stroke="#96AABE" stroke-width="1.91152" stroke-miterlimit="10"/>
<path d="M34.6871 210.508L67.7063 210.229" stroke="#96AABE" stroke-width="1.91152" stroke-miterlimit="10"/>
<path d="M37.4694 222.593L70.2996 222.313" stroke="#96AABE" stroke-width="1.91152" stroke-miterlimit="10"/>
<path d="M40.3328 235.397L73.0511 235.117" stroke="#96AABE" stroke-width="1.91152" stroke-miterlimit="10"/>
<path d="M20.3987 249.531L28.8581 210.228L31.496 197.983H64.7601L52.8511 249.531" stroke="#2626DB" stroke-width="1.91152" stroke-miterlimit="10"/>
<path d="M61.8696 210.508L28.8574 210.229" stroke="#2626DB" stroke-width="1.91152" stroke-miterlimit="10"/>
<path d="M59.0943 222.593L26.2571 222.313" stroke="#2626DB" stroke-width="1.91152" stroke-miterlimit="10"/>
<path d="M56.2254 235.398L23.5001 235.118" stroke="#2626DB" stroke-width="1.91152" stroke-miterlimit="10"/>
<path d="M196.857 217.898C196.857 217.898 199.747 216.722 199.53 213.413C199.32 210.096 197.613 207.752 201.132 208.711C204.659 209.669 205.841 210.096 208.409 209.564C210.963 209.032 213.104 207.962 211.985 211.271C210.865 214.588 209.654 217.359 212.292 217.898C214.93 218.429 217.764 216.435 218.1 221.627C218.436 226.812 214.252 232.648 207.485 232.864C200.719 233.074 197.724 230.276 197.724 230.276C197.724 230.276 195.912 227.722 198.739 227.078C201.573 226.448 204.456 225.245 203.014 223.922C201.573 222.6 196.871 222.495 196.871 222.495C196.871 222.495 190.972 221.312 196.857 217.898Z" fill="#649EEA"/>
<path d="M227.798 218.752C227.322 215.442 227.686 213.063 233.83 212.168C239.973 211.272 243.556 214.959 243.927 218.752C244.297 222.544 238.959 223.923 238.959 223.923C238.959 223.923 235.166 225 237.09 228.317C239.008 231.633 239.889 234.838 235.523 235.321C231.157 235.804 226.385 234.649 223.719 232.879C221.06 231.102 218.331 226.609 221.382 224.265C221.382 224.265 222.236 223.678 225.174 223.517C228.113 223.349 227.798 218.752 227.798 218.752Z" fill="#023EA1"/>
<path d="M206.172 218.22C206.172 218.22 211.279 229.765 211.972 237.623" stroke="#023EA1" stroke-width="0.637173" stroke-miterlimit="10"/>
<path d="M234.552 220.117C234.552 220.117 225.519 233.53 223.378 238.015" stroke="#649EEA" stroke-width="0.637173" stroke-miterlimit="10"/>
<path d="M208.821 236.707H229.554C229.554 236.707 231.828 236.867 231.632 239.967C231.464 242.822 227.839 242.199 225.971 242.199C224.103 242.199 208.367 242.199 208.367 242.199C208.367 242.199 205.82 242.633 205.82 239.75C205.827 236.86 206.792 236.707 208.821 236.707Z" fill="#0054A5"/>
<path d="M208.382 242.206L211.517 260.531H225.441L227.799 246.775L208.403 242.206H208.382Z" fill="#0054A5"/>
<path d="M208.403 242.206L227.799 246.775L228.582 242.206H208.403Z" fill="#006AD5"/>
<path d="M217.319 237.399C217.319 237.399 218.369 217.072 224.428 204.316" stroke="#FCBE42" stroke-width="0.637173" stroke-miterlimit="10"/>
<path d="M229.424 196.984C229.424 196.984 229.921 203.225 223.833 205.66C223.826 205.667 222.511 200.335 229.424 196.984Z" fill="#FCBE42"/>
<path d="M220.278 216.849C220.278 216.849 222.524 211.524 229.423 212.238C229.43 212.231 228.891 217.541 220.278 216.849Z" fill="#FCBE42"/>
<path d="M218.017 230.242C218.017 230.242 219.178 224.581 226.085 223.93C226.078 223.93 226.588 229.227 218.017 230.242Z" fill="#FCBE42"/>
<path d="M217.773 230.268C217.773 230.268 218.571 224.552 212.28 221.62C212.28 221.62 210.027 226.455 217.773 230.268Z" fill="#FCBE42"/>
<path d="M220.355 216.807C220.355 216.807 221.881 211.23 216.01 207.529C216.017 207.529 213.155 212.028 220.355 216.807Z" fill="#FCBE42"/>
<path d="M45.0954 145.608L36.4529 217.491L30.2797 216.874L29.3881 143.739L45.0954 145.608Z" fill="#EE384E"/>
<path d="M35.6804 145.608L51.9022 217.491L58.0926 216.874L53.8399 143.739L35.6804 145.608Z" fill="#DE051F"/>
<path d="M47.3752 92.4751C47.3752 92.4751 49.21 94.8158 49.3043 98.9912C49.3901 103.167 48.8671 106.15 47.0837 106.185C45.3003 106.219 41.6993 105.104 41.0734 103.93C40.4475 102.755 39.2643 102.772 39.2043 100.397C39.1529 98.0138 42.008 92.5866 44.3915 92.5351C46.7836 92.5008 47.3752 92.4751 47.3752 92.4751Z" fill="#FFBE9B"/>
<path d="M40.1119 100.679C40.1119 100.679 39.5803 103.663 38.4486 106.672C37.3254 109.673 36.7595 110.882 36.7595 110.882C36.7595 110.882 40.4291 114.972 43.9873 114.303C47.5455 113.634 47.494 111.251 47.494 111.251C47.494 111.251 44.1588 108.644 44.0816 105.069C44.0045 101.502 44.0045 101.502 44.0045 101.502L40.1119 100.679Z" fill="#FEBE9A"/>
<path d="M49.1661 92.4403C49.1661 92.4403 50.8466 87.6389 49.6377 87.0731C48.4288 86.4986 46.0795 87.7418 45.4965 88.3592C44.9135 88.9679 43.7303 88.9936 43.1215 89.0022C43.1215 89.0022 37.1713 89.1308 36.0052 90.3483C34.8392 91.5658 34.8477 92.1574 34.8649 92.7576C34.8735 93.3491 34.9249 95.6813 34.359 96.9416C34.1104 97.4818 33.8274 99.9253 35.0707 102.292C36.3139 104.641 37.5228 105.215 38.1144 105.207C38.706 105.198 39.2547 105.181 39.289 104.581C39.3405 103.938 39.5548 103.029 39.8292 102.189C40.095 101.391 40.3693 99.7967 40.3693 99.7967C40.3693 99.7967 40.9009 96.813 42.0584 95.5869C43.2159 94.3609 43.2244 94.3695 45.5908 93.7178C47.9658 93.0576 48.6088 94.2408 49.1661 92.4403Z" fill="#160C56"/>
<path d="M41.2263 96.9678C42.1351 97.9624 40.9777 99.7715 40.9777 99.7715C40.9777 99.7715 39.2114 100.406 39.1686 98.614C39.1343 96.8306 40.326 95.9647 41.2263 96.9678Z" fill="#FFBE9B"/>
<path d="M56.7369 117.631L62.147 124.961C62.147 124.961 62.5328 125.347 62.9186 124.961C63.3045 124.576 69.8635 116.465 70.2493 115.307C70.6351 114.15 70.2493 112.992 71.4068 111.055C72.5643 109.117 73.7217 108.345 73.7217 108.345C73.7217 108.345 74.8792 107.574 74.4934 108.731C74.1076 109.889 73.7217 111.046 74.4934 111.44C75.265 111.835 81.4382 112.984 81.4382 112.984C81.4382 112.984 75.2565 114.913 73.7046 117.236C72.1613 119.551 67.9086 127.276 65.9709 129.206C64.0418 131.135 62.1041 132.301 60.9466 131.135C59.7892 129.977 52.0641 122.252 52.0641 122.252L56.7369 117.631Z" fill="#FFBE9B"/>
<path d="M53.2565 103.337C53.2565 103.337 50.5471 105.267 50.1613 107.204C49.7755 109.133 48.2322 112.229 48.2322 112.229L49.7755 114.158C49.7755 114.158 52.8707 111.843 54.7998 110.677C56.7289 109.511 60.2099 107.967 60.2099 107.967L53.2651 106.424C53.2651 106.424 52.8792 105.267 53.2651 104.495C53.6509 103.723 53.2565 103.337 53.2565 103.337Z" fill="#FFBE9B"/>
<path d="M30.2872 221.572C30.2872 221.572 29.9442 222.541 31.9505 222.532C33.9568 222.515 44.8542 222.42 44.8542 222.42C44.8542 222.42 46.9462 221.983 44.9999 221.057C43.0537 220.131 37.2149 217.568 37.2149 217.568C37.2149 217.568 36.769 217.448 36.769 216.333L30.1671 216.393L30.2872 221.572Z" fill="#170856"/>
<path d="M51.5751 221.572C51.5751 221.572 51.2322 222.541 53.2384 222.532C55.2447 222.515 66.1421 222.42 66.1421 222.42C66.1421 222.42 68.2342 221.983 66.2879 221.057C64.3416 220.14 58.5028 217.568 58.5028 217.568C58.5028 217.568 58.057 217.448 58.057 216.333L51.4551 216.393L51.5751 221.572Z" fill="#170856"/>
<path d="M45.4879 109.725C45.4879 109.725 46.131 109.194 46.8683 109.785C47.6057 110.368 50.1864 112.28 51.4468 114.724C52.6986 117.176 53.1359 120.58 53.5646 128.519C54.0018 136.467 53.9332 145.058 53.9332 145.058L29.3176 145.598C29.3176 145.598 28.5374 131.143 30.8609 122.26C33.1844 113.378 36.6568 110.291 37.4285 109.905C38.2001 109.52 38.9718 110.291 38.9718 110.291C38.9718 110.291 42.3585 113.395 45.4879 109.725Z" fill="#0083F9"/>
<path d="M57.8944 118.017C57.8944 118.017 54.4134 112.992 50.5638 111.449C46.7141 109.906 44.7678 112.992 46.6969 116.087C48.6261 119.183 52.1071 123.418 52.1071 123.418L57.8944 118.017Z" fill="#0064B7"/>
<path d="M282.065 164.112L255.359 143.053C255.359 143.053 254.629 142.567 253.575 141.044C252.512 139.531 250.468 138 249.279 138.333L246.631 135.874C246.631 135.874 245.703 135.694 246.631 136.55C247.558 137.414 248.081 138.468 248.081 138.468C248.081 138.468 247.252 138.892 247.486 139.225C247.486 139.225 246.82 139.423 246.892 139.918C246.892 139.918 245.307 140.414 246.865 141.963C248.423 143.521 248.954 144.143 250.666 144.899C252.377 145.656 253.674 146.548 255.359 148.142C257.043 149.727 278.696 170.516 278.696 170.516L282.065 164.112Z" fill="#FFBE9B"/>
<path d="M294.55 158.824C294.55 158.824 300.612 158.68 301.566 151.88C302.512 145.08 297.909 142.738 295.288 141.36C292.658 139.973 291.055 140.189 289.875 138.288C288.695 136.388 288.263 135.883 288.263 135.883C288.263 135.883 283.327 141.017 286.777 145.575C290.235 150.124 294.55 158.824 294.55 158.824Z" fill="#180857"/>
<path d="M304.42 277.259C304.492 277.277 304.492 277.385 304.51 277.457C304.69 278.204 305.609 282.528 303.267 282.573C300.88 282.627 291.81 282.69 290.558 282.699C290.468 282.699 290.396 282.645 290.369 282.555C290.278 282.204 290.107 281.33 290.72 281.051C290.72 281.051 295.989 278.601 297.79 277.169C299.439 275.845 303.699 277.033 304.42 277.259Z" fill="#170856"/>
<path d="M281.651 276.61C281.723 276.637 281.732 276.737 281.741 276.809C281.921 277.619 282.839 282.393 280.498 282.51C278.102 282.627 267.032 282.519 265.6 282.51C265.492 282.51 265.411 282.447 265.384 282.357C265.276 282.033 265.167 281.276 266.122 280.862C266.122 280.862 272.238 278.412 275.03 276.701C277.525 275.16 280.993 276.349 281.651 276.61Z" fill="#170856"/>
<path d="M305.861 201.274L304.483 277.339L297.781 277.159L292.458 228.872L293.098 215.469L296.98 201.121L305.861 201.274Z" fill="#0064E1"/>
<path d="M298.794 201.148C298.794 201.148 292.462 233.466 290.525 237.222L281.707 276.691H275.006L279.167 201.022L298.794 201.148Z" fill="#003EB0"/>
<path d="M286.784 145.565C286.784 145.565 283.433 148.339 283.388 153.149C283.343 157.958 284.181 158.13 286.117 158.13C288.054 158.13 289.594 157.949 289.81 159.012C290.027 160.075 289.765 164.218 289.324 165.452C288.892 166.686 297.34 165.452 297.34 165.452C297.34 165.452 295.008 159.111 294.647 156.337C294.287 153.563 294.692 150.428 293.017 147.789C291.369 145.114 289.387 143.088 286.784 145.565Z" fill="#FFBE9B"/>
<path d="M288.504 166.93L281.713 163.147L278.011 170.632L285.55 177.072L288.504 166.93Z" fill="#F79F03"/>
<path d="M298.792 166.318C298.792 166.318 302.863 170.93 304.278 182.08C305.692 193.231 305.863 201.275 305.863 201.275H279.175C279.175 201.275 281.201 185.539 282.994 177.216C284.786 168.885 288.011 165.525 288.011 165.525C288.011 165.525 288.848 164.507 289.857 165.174C290.875 165.84 293.298 165.967 295.451 164.949C297.621 163.922 298.108 165.39 298.792 166.318Z" fill="#FCBE42"/>
<path d="M293.395 149.744C293.395 149.744 294.845 149.392 295.512 150.14C296.178 150.887 295.376 152.518 294.061 153.004C292.728 153.5 293.395 149.744 293.395 149.744Z" fill="#FFBE9B"/>
<path d="M289.605 180.108C289.605 180.108 286.561 201.257 284.975 207.013C283.39 212.768 281.012 218.182 281.012 218.182C281.012 218.182 279.949 220.83 281.012 221.82C282.075 222.811 284.57 223.937 285.075 222.154C285.57 220.37 285.57 216.533 286.236 215.678C286.903 214.813 292.641 201.464 294.568 193.466C296.487 185.468 296.811 181.901 296.811 181.901L289.605 180.108Z" fill="#FFBE9B"/>
<path d="M288.508 181.18C288.508 181.18 290.336 169.525 295.227 169.471C295.227 169.471 298.001 169.471 298.073 173.695C298.145 177.919 297.74 182.936 297.74 182.936L288.508 181.18Z" fill="#F79F03"/>
</g>
<defs>
<clipPath id="clip0_137_13482">
<rect width="314.454" height="285.673" fill="white"/>
</clipPath>
</defs>
</svg>
