<svg width="315" height="286" viewBox="0 0 315 286" fill="none" xmlns="http://www.w3.org/2000/svg">
<g clip-path="url(#clip0_137_13192)">
<path d="M114.759 25.337C114.759 25.337 107.571 29.4162 113.223 32.6972C118.875 35.9782 120.88 39.2816 116.745 44.3847C112.613 49.4816 112.665 54.099 115.44 56.7959C118.218 59.4868 124.085 63.5861 118.106 70.2196C112.124 76.8591 101.392 90.5652 93.3536 84.8672C85.3184 79.1632 83.2548 64.1327 87.7555 59.1108C92.2562 54.0889 98.1621 53.3976 96.4048 46.1184C94.6475 38.8392 87.9492 41.4804 89.0093 33.6281C90.0695 25.7758 90.4396 17.7197 101.425 16.9026C111.283 16.1631 118.114 22.0936 114.759 25.337Z" stroke="#DE051F" stroke-width="0.637173" stroke-miterlimit="10"/>
<path d="M105.759 28.8477C105.759 28.8477 98.7875 78.1133 99.9447 91.0307" stroke="#DE051F" stroke-width="0.637173" stroke-miterlimit="10"/>
<path d="M111.597 61.7532L100.942 69.1318L92.2354 62.5323" stroke="#DE051F" stroke-width="0.637173" stroke-miterlimit="10"/>
<path d="M112.401 38.4819L103.927 42.6763L95.97 38.0427" stroke="#DE051F" stroke-width="0.637173" stroke-miterlimit="10"/>
<path d="M128.108 36.6317C128.108 36.6317 142.42 43.0613 136.605 49.579C130.79 56.0968 132.86 59.1062 135.149 62.113C137.441 65.1137 143.755 68.7599 137.255 75.3029C130.756 81.8459 124.907 82.691 124.374 87.5528C123.842 92.4145 115.208 111.295 108.827 106.043C102.439 100.787 104.045 89.0583 106.032 84.2921C108.019 79.5259 104.814 73.4712 101.228 69.4912C97.6448 65.5208 96.5266 58.1415 103.517 56.5489C110.501 54.9528 114.854 48.4081 113.79 43.4582C112.732 38.4962 118.341 32.4333 128.108 36.6317Z" fill="#FCBE42"/>
<path d="M124.603 46.8477L104.24 111.703" stroke="white" stroke-width="0.637173" stroke-miterlimit="10" stroke-linecap="round" stroke-linejoin="round"/>
<path d="M131.498 68.1974L116.328 73.1931L106.212 61.4854" stroke="white" stroke-width="0.637173" stroke-miterlimit="10" stroke-linecap="round" stroke-linejoin="round"/>
<path d="M58.5509 35.1375C37.0984 35.1375 19.7078 52.5281 19.7077 73.9806C19.7077 95.4331 37.0984 112.824 58.5509 112.824C80.0033 112.824 97.394 95.4331 97.394 73.9806C97.394 52.5282 80.0033 35.1375 58.5509 35.1375Z" stroke="#DE051F" stroke-width="0.943046" stroke-miterlimit="10" stroke-dasharray="5.66 5.66"/>
<path d="M22.2302 79.4484C18.6056 79.4484 15.6673 82.3867 15.6673 86.0113C15.6673 89.6359 18.6056 92.5742 22.2302 92.5742C25.8548 92.5742 28.7932 89.6359 28.7932 86.0113C28.7932 82.3867 25.8548 79.4484 22.2302 79.4484Z" fill="#003EB0"/>
<path d="M20.7056 89.2407L20.8406 84.0451L25.1087 86.3625L20.7056 89.2407Z" fill="white"/>
<path d="M249.363 207.652C267.161 219.628 291.298 214.908 303.274 197.11C315.251 179.311 310.531 155.174 292.732 143.198C274.934 131.222 250.797 135.942 238.821 153.74C226.845 171.539 231.565 195.676 249.363 207.652Z" stroke="#DE051F" stroke-width="0.943046" stroke-miterlimit="10" stroke-dasharray="5.66 5.66"/>
<path d="M303.168 191.164C306.176 193.188 310.254 192.39 312.277 189.383C314.301 186.376 313.503 182.298 310.496 180.274C307.489 178.251 303.411 179.048 301.387 182.055C299.364 185.063 300.161 189.141 303.168 191.164Z" fill="#003EB0"/>
<path d="M310.423 184.825L306.24 187.909L305.447 183.118L310.423 184.825Z" fill="white"/>
<path d="M275.455 40.3677C277.378 40.3677 279.302 40.3677 281.226 40.3677C281.226 40.3677 281.354 40.3677 281.483 40.4959C282.893 40.7524 283.535 41.522 283.791 42.9328C283.919 44.2153 284.176 45.6261 284.304 46.9086C284.432 47.5499 285.458 47.9347 286.1 47.5499C287.126 46.7804 288.28 45.7544 289.434 44.9848C290.717 44.087 292.128 44.087 293.282 45.1131C294.436 46.2674 295.719 47.5499 296.873 48.8325C297.899 49.8585 297.899 51.3975 297.001 52.6801C296.36 53.5779 295.59 54.7321 294.821 55.6299C294.308 56.1429 294.18 56.656 294.693 57.4255C294.821 57.5537 294.949 57.8102 295.206 57.8102C296.488 57.9385 298.027 58.195 299.31 58.3233C300.336 58.4515 301.234 58.9645 301.49 59.9906C301.618 60.2471 301.618 60.5036 301.747 60.8883C301.747 62.8122 301.747 64.736 301.747 66.788C301.747 66.9163 301.618 67.0445 301.618 67.1728C301.234 68.3271 300.592 69.0966 299.31 69.2249C298.027 69.3531 296.617 69.6096 295.334 69.7379C294.693 69.7379 294.18 70.8922 294.693 71.5334C295.462 72.5595 296.488 73.842 297.258 74.8681C298.156 76.0223 298.027 77.5614 297.13 78.7157C295.975 79.9982 294.693 81.2808 293.41 82.4351C292.384 83.4611 290.845 83.4611 289.563 82.5633C288.408 81.7938 287.254 80.7677 286.1 79.9982C285.715 79.6135 284.432 79.9982 284.304 80.6395C284.176 82.0503 283.919 83.4611 283.663 84.8719C283.535 85.8979 282.893 86.7957 281.739 87.0522C281.611 87.0522 281.354 87.1805 281.098 87.3087C279.046 87.3087 277.122 87.3087 275.198 87.3087C275.198 87.3087 275.07 87.3087 275.07 87.1805C273.787 86.9239 273.018 86.1544 272.761 84.7436C272.633 83.4611 272.376 82.0503 272.248 80.896C272.12 80.2547 271.094 79.7417 270.324 80.2547C269.298 81.0243 268.144 82.0503 266.99 82.6916C265.707 83.5893 264.296 83.5893 263.142 82.5633C261.988 81.5373 260.834 80.2547 259.551 78.9722C258.525 77.9462 258.525 76.4071 259.423 75.1246C260.064 74.2268 260.834 73.0725 261.603 72.1747C262.116 71.6617 262.116 71.0204 261.731 70.3792C261.603 70.2509 261.475 69.9944 261.347 69.9944C260.064 69.8661 258.653 69.6096 257.499 69.4814C255.703 69.3531 254.806 68.3271 254.806 66.5315C254.806 64.736 254.806 63.0687 254.806 61.2731C254.806 59.6058 255.703 58.5798 257.242 58.4515C258.525 58.3233 259.936 58.0668 261.218 57.9385C261.86 57.9385 262.244 56.7842 261.86 56.1429C261.09 55.1169 260.064 53.8344 259.295 52.8083C258.397 51.654 258.397 50.115 259.423 48.9607C260.577 47.8064 261.86 46.5239 263.142 45.2413C264.168 44.2153 265.707 44.2153 266.99 45.1131C268.144 45.8826 269.298 46.9086 270.453 47.6782C270.837 48.0629 272.12 47.6782 272.248 47.0369C272.376 45.7544 272.633 44.2153 272.889 42.9328C273.018 41.7785 273.659 41.0089 274.813 40.7524C274.942 40.4959 275.198 40.4959 275.455 40.3677ZM294.693 51.141C293.538 49.9867 292.384 48.7042 291.102 47.5499C289.434 48.7042 287.895 49.9867 286.228 51.141C285.971 51.2693 285.715 51.2693 285.458 51.141C284.432 50.628 283.278 50.2432 282.252 49.7302C281.867 49.602 281.611 49.3455 281.611 48.9607C281.354 47.0369 281.098 45.1131 280.841 43.1893C280.841 42.9328 280.713 42.8045 280.457 42.8045C279.174 42.8045 277.763 42.8045 276.481 42.8045C276.096 42.8045 276.096 42.9328 275.968 43.1893C275.711 45.1131 275.455 47.0369 275.198 48.9607C275.198 49.3455 275.07 49.4737 274.557 49.602C273.531 49.9867 272.376 50.3715 271.35 50.8845C270.966 51.0128 270.709 51.0128 270.453 50.8845C268.785 49.7302 267.246 48.4477 265.707 47.4217C264.553 48.5759 263.27 49.8585 262.116 51.0128C262.116 51.141 262.244 51.2693 262.373 51.3975C263.399 52.8083 264.553 54.2191 265.579 55.6299C265.707 55.7582 265.707 56.0147 265.707 56.2712C265.194 57.4255 264.681 58.708 264.04 59.8623C264.04 59.9906 263.783 60.2471 263.655 60.2471C262.629 60.3753 261.475 60.5036 260.449 60.6318C259.423 60.7601 258.269 60.8883 257.242 61.0166C257.242 62.8122 257.242 64.3512 257.242 66.0185C257.371 66.0185 257.627 66.1468 257.884 66.1468C259.808 66.4033 261.603 66.6598 263.527 66.9163C263.912 66.9163 264.04 67.0445 264.168 67.4293C264.553 68.4553 264.938 69.6096 265.451 70.6357C265.579 71.0204 265.579 71.2769 265.451 71.6617C264.296 73.329 263.014 74.8681 261.988 76.4071C263.142 77.5614 264.296 78.7157 265.579 79.9982C265.707 79.9982 265.836 79.87 266.092 79.6135C267.503 78.5874 269.042 77.4331 270.324 76.4071C270.453 76.2788 270.709 76.2788 270.966 76.2788C272.12 76.6636 273.274 77.3049 274.557 77.6896C274.942 77.8179 275.07 77.9462 275.07 78.3309C275.326 80.2547 275.583 82.1785 275.839 84.1024C275.839 84.4871 275.968 84.6154 276.352 84.6154C277.635 84.6154 279.046 84.6154 280.2 84.6154C280.585 84.6154 280.713 84.4871 280.713 84.1024C280.97 82.1785 281.226 80.2547 281.483 78.2027C281.483 77.9462 281.611 77.6896 281.867 77.5614C283.022 77.1766 284.304 76.5354 285.458 76.1506C285.587 76.1506 285.843 76.1506 286.1 76.1506C287.51 77.1766 289.05 78.3309 290.46 79.3569C290.589 79.4852 290.845 79.6135 290.845 79.6135C291.999 78.4592 293.282 77.1766 294.436 76.0223C294.436 75.8941 294.308 75.7658 294.18 75.6376C293.154 74.2268 291.999 72.816 290.973 71.4052C290.845 71.2769 290.845 71.0204 290.845 70.8922C291.358 69.7379 291.871 68.3271 292.512 67.1728C292.512 67.0445 292.769 66.9163 292.897 66.9163C293.667 66.788 294.564 66.6598 295.334 66.6598C296.617 66.5315 298.027 66.275 299.31 66.1468C299.31 64.3512 299.31 62.8122 299.31 61.1449C297.13 60.8883 295.206 60.5036 293.025 60.2471C292.769 60.2471 292.641 60.1188 292.512 59.8623C292.128 58.708 291.615 57.5537 291.102 56.5277C290.973 56.1429 290.973 56.0147 291.102 55.6299C292.384 54.2191 293.667 52.5518 294.693 51.141Z" stroke="#003EAE" stroke-width="0.471523" stroke-miterlimit="10"/>
<path d="M294.693 51.141C293.538 52.8084 292.384 54.3474 291.102 55.8865C290.845 56.143 290.845 56.3995 291.102 56.7842C291.615 57.8103 291.999 59.0928 292.512 60.1188C292.641 60.3754 292.769 60.5036 293.025 60.5036C295.206 60.7601 297.13 61.0166 299.31 61.4014C299.31 63.0687 299.31 64.6077 299.31 66.4033C298.027 66.5316 296.617 66.7881 295.334 66.9163C294.565 67.0446 293.667 67.0446 292.897 67.1728C292.769 67.1728 292.512 67.3011 292.512 67.4293C291.999 68.5836 291.486 69.8662 290.845 71.1487C290.845 71.277 290.845 71.5335 290.973 71.6617C291.999 73.0725 293.154 74.6116 294.18 75.8941C294.308 76.0224 294.436 76.1506 294.436 76.2789C293.282 77.4332 292.128 78.5875 290.845 79.87C290.845 79.87 290.589 79.7417 290.46 79.6135C289.05 78.5875 287.511 77.4332 286.1 76.4071C285.971 76.2789 285.715 76.2789 285.458 76.4071C284.304 76.7919 283.022 77.4332 281.867 77.8179C281.611 77.9462 281.483 78.0744 281.483 78.4592C281.226 80.383 280.97 82.3068 280.713 84.3589C280.713 84.7437 280.585 84.8719 280.2 84.8719C278.918 84.8719 277.507 84.8719 276.352 84.8719C275.968 84.8719 275.839 84.7437 275.839 84.3589C275.583 82.4351 275.326 80.5113 275.07 78.5875C275.07 78.2027 274.942 78.0744 274.557 77.9462C273.403 77.5614 272.248 76.9201 270.966 76.5354C270.837 76.5354 270.581 76.5354 270.324 76.6636C268.914 77.6897 267.375 78.844 266.092 79.87C265.964 79.9982 265.707 80.1265 265.579 80.2548C264.425 79.1005 263.27 77.9462 261.988 76.6636C263.142 74.9963 264.297 73.5855 265.451 71.9182C265.707 71.5335 265.707 71.277 265.451 70.8922C264.938 69.8662 264.553 68.7119 264.168 67.6858C264.04 67.3011 263.912 67.1728 263.527 67.1728C261.603 66.9163 259.808 66.6598 257.884 66.4033C257.756 66.4033 257.499 66.4033 257.243 66.275C257.243 64.6077 257.243 63.0687 257.243 61.2731C258.269 61.1449 259.423 61.0166 260.449 60.8884C261.475 60.7601 262.629 60.6319 263.655 60.5036C263.784 60.5036 264.04 60.3754 264.04 60.1188C264.553 58.9646 265.066 57.682 265.707 56.5277C265.707 56.3995 265.707 56.143 265.579 55.8865C264.553 54.4757 263.399 52.9366 262.373 51.6541C262.244 51.5258 262.116 51.3976 262.116 51.2693C263.271 50.115 264.425 48.8325 265.707 47.6782C267.118 48.7042 268.785 49.9868 270.453 51.141C270.709 51.3976 270.966 51.3976 271.351 51.141C272.377 50.628 273.531 50.2433 274.557 49.8585C274.942 49.7303 275.07 49.602 275.198 49.2172C275.455 47.2934 275.711 45.3696 275.968 43.4458C275.968 43.061 276.096 43.061 276.481 43.061C277.763 43.061 279.174 43.061 280.457 43.061C280.713 43.061 280.841 43.061 280.841 43.4458C281.098 45.3696 281.354 47.2934 281.611 49.2172C281.611 49.602 281.867 49.8585 282.252 49.9868C283.278 50.3715 284.432 50.8845 285.458 51.3976C285.715 51.5258 285.972 51.5258 286.228 51.3976C287.895 50.2433 289.434 48.9607 291.102 47.8064C292.384 48.7042 293.667 49.7303 294.693 51.141ZM268.016 63.71C268.016 69.3531 272.505 73.9703 278.148 73.9703C283.919 73.9703 288.408 69.4814 288.408 63.8382C288.408 58.0668 283.919 53.5779 278.276 53.5779C272.89 53.4496 268.016 58.0668 268.016 63.71Z" stroke="#003EAE" stroke-width="0.471523" stroke-miterlimit="10"/>
<path d="M274.786 58.6099H52.2322V209.906H274.786V58.6099Z" fill="#0064B5"/>
<path d="M274.786 187.543H52.2321V209.845H274.786V187.543Z" fill="#FFC727"/>
<path d="M274.786 187.543H52.2321V209.845H274.786V187.543Z" fill="#033E9F"/>
<path d="M206.879 237.143H120.138V244.394H206.879V237.143Z" fill="#FFC727"/>
<path d="M206.879 237.143H120.138V244.394H206.879V237.143Z" fill="#033E9F"/>
<path d="M196.578 237.142H130.44L132.146 224.59L132.207 223.981L132.39 222.823L132.451 222.214L132.634 221.056V220.873L132.695 220.447L132.878 219.289L132.939 218.68L134.097 209.905H192.92L194.018 218.192L194.079 218.558L194.262 219.959L194.322 220.325L194.383 220.873L194.505 221.726V222.092L194.688 223.493L194.749 223.859L196.578 237.142Z" fill="#0064B5"/>
<path d="M167.136 197.232C167.136 199.243 165.49 200.888 163.479 200.888C161.467 200.888 159.821 199.243 159.821 197.232C159.821 195.221 161.467 193.576 163.479 193.576C165.49 193.515 167.136 195.16 167.136 197.232Z" fill="white"/>
<g opacity="0.16">
<path d="M194.384 220.873L132.94 218.68L134.098 209.905H192.921L194.384 220.873Z" fill="black"/>
</g>
<path d="M163.383 68.6592H62.4767V177.109H163.383V68.6592Z" fill="#CCE0F9"/>
<path d="M265.232 68.6592H136.977V177.109H265.232V68.6592Z" fill="white"/>
<path d="M83.1353 99.0514H71.956C70.8094 99.0514 70.0211 98.1915 70.0211 96.9732C70.0928 95.8266 71.096 94.895 72.171 94.895H83.3503C84.4969 94.895 85.2851 95.755 85.2851 96.9732C85.2851 98.0481 84.2819 99.0514 83.1353 99.0514Z" fill="white"/>
<path d="M87.5624 96.9051C87.4908 98.9833 85.6992 100.632 83.621 100.632C81.5428 100.632 79.9663 98.9117 80.1813 96.9051C80.3246 94.8269 82.0445 93.1787 84.1227 93.1787C86.0575 93.2504 87.6341 94.8986 87.5624 96.9051Z" fill="#0064B7"/>
<path d="M83.1353 112.166H71.956C70.8094 112.166 70.0211 111.306 70.0211 110.087C70.0928 108.941 71.096 108.009 72.171 108.009H83.3503C84.4969 108.009 85.2851 108.869 85.2851 110.087C85.2851 111.234 84.2819 112.166 83.1353 112.166Z" fill="white"/>
<path d="M80.585 112.567C82.0884 111.105 82.1885 108.769 80.8086 107.351C79.4287 105.933 77.0914 105.969 75.588 107.431C74.0846 108.894 73.9845 111.229 75.3644 112.648C76.7443 114.066 79.0816 114.03 80.585 112.567Z" fill="#0064B7"/>
<path opacity="0.3" d="M80.585 112.567C82.0884 111.105 82.1885 108.769 80.8086 107.351C79.4287 105.933 77.0914 105.969 75.588 107.431C74.0846 108.894 73.9845 111.229 75.3644 112.648C76.7443 114.066 79.0816 114.03 80.585 112.567Z" fill="#0064B7"/>
<path d="M71.9706 138.46H83.1499C84.2965 138.46 85.2997 137.6 85.2997 136.382C85.3714 135.235 84.5114 134.304 83.3649 134.304H72.1856C71.039 134.304 70.0357 135.164 70.0357 136.382C69.8924 137.529 70.824 138.46 71.9706 138.46Z" fill="white"/>
<path d="M77.7406 138.863C79.2442 137.4 79.3444 135.065 77.9646 133.646C76.5847 132.228 74.2472 132.263 72.7436 133.726C71.24 135.189 71.1397 137.524 72.5196 138.943C73.8995 140.361 76.237 140.326 77.7406 138.863Z" fill="#599FD2"/>
<path opacity="0.7" d="M77.7406 138.863C79.2442 137.4 79.3444 135.065 77.9646 133.646C76.5847 132.228 74.2472 132.263 72.7436 133.726C71.24 135.189 71.1397 137.524 72.5196 138.943C73.8995 140.361 76.237 140.326 77.7406 138.863Z" fill="#599FD2"/>
<path d="M83.1353 151.641H71.956C70.8094 151.641 70.0211 150.781 70.0211 149.563C70.0928 148.416 71.096 147.484 72.171 147.484H83.3503C84.4969 147.484 85.2851 148.344 85.2851 149.563C85.2851 150.637 84.2819 151.641 83.1353 151.641Z" fill="white"/>
<path d="M84.6237 149.487C84.5521 151.565 82.7605 153.214 80.6823 153.214C78.6041 153.214 77.0276 151.494 77.2425 149.487C77.3142 147.409 79.1057 145.761 81.1839 145.761C83.1905 145.832 84.7671 147.552 84.6237 149.487Z" fill="#0064B7"/>
<path d="M71.9705 125.346H83.1497C84.2963 125.346 85.2996 124.486 85.2996 123.268C85.3713 122.122 84.5113 121.19 83.3647 121.19H72.1855C71.0389 121.19 70.0356 122.05 70.0356 123.268C69.8923 124.343 70.8239 125.346 71.9705 125.346Z" fill="white"/>
<path d="M74.7388 123.192C74.6671 125.27 76.172 126.919 78.1786 126.919C80.1851 126.919 81.9766 125.199 82.12 123.192C82.1916 121.114 80.6867 119.466 78.6802 119.466C76.602 119.537 74.8821 121.186 74.7388 123.192Z" fill="#599FD2"/>
<path opacity="0.7" d="M74.7388 123.192C74.6671 125.27 76.172 126.919 78.1786 126.919C80.1851 126.919 81.9766 125.199 82.12 123.192C82.1916 121.114 80.6867 119.466 78.6802 119.466C76.602 119.537 74.8821 121.186 74.7388 123.192Z" fill="#599FD2"/>
<path d="M107.311 96.2504H90.6134C90.1834 96.2504 89.8251 95.8921 89.8251 95.4621C89.8251 95.0321 90.2551 94.6738 90.685 94.6738H107.382C107.812 94.6738 108.171 95.0321 108.171 95.4621C108.099 95.8921 107.741 96.2504 107.311 96.2504Z" fill="white"/>
<path d="M70.2702 83.2925V80.3879H70.8926V82.7572H72.0461V83.2925H70.2702ZM72.719 83.1846C72.5489 83.0933 72.4161 82.9647 72.3248 82.7987C72.2336 82.6327 72.1879 82.4419 72.1879 82.2261C72.1879 82.0103 72.2336 81.8194 72.3248 81.6535C72.4161 81.4875 72.5489 81.363 72.719 81.2717C72.8892 81.1804 73.0883 81.1348 73.3124 81.1348C73.5365 81.1348 73.7315 81.1804 73.9016 81.2717C74.0717 81.363 74.2045 81.4875 74.2958 81.6535C74.3871 81.8194 74.4369 82.0103 74.4369 82.2261C74.4369 82.446 74.3871 82.6369 74.2958 82.8029C74.2045 82.9688 74.0717 83.0933 73.9016 83.1846C73.7315 83.2759 73.5365 83.3174 73.3124 83.3174C73.0883 83.3174 72.8892 83.2759 72.719 83.1846ZM73.6983 82.6701C73.7937 82.558 73.8435 82.4087 73.8435 82.2261C73.8435 82.0435 73.7937 81.8983 73.6983 81.7821C73.6029 81.6701 73.4742 81.612 73.3124 81.612C73.1506 81.612 73.0219 81.6701 72.9265 81.7821C72.8311 81.8983 72.7854 82.0435 72.7854 82.2261C72.7854 82.4087 72.8311 82.558 72.9265 82.6701C73.0219 82.7863 73.1506 82.8402 73.3124 82.8402C73.4742 82.8402 73.6029 82.7863 73.6983 82.6701ZM76.8917 81.1597V83.2302C76.8917 83.5124 76.7963 83.7323 76.6137 83.8983C76.427 84.0643 76.1407 84.1473 75.7506 84.1473C75.4477 84.1473 75.2029 84.0809 75.0203 83.9481C74.8336 83.8153 74.734 83.6286 74.7216 83.3838H75.3108C75.3357 83.4875 75.3896 83.5663 75.4726 83.6203C75.5556 83.6784 75.6635 83.7033 75.7963 83.7033C75.9622 83.7033 76.0909 83.6618 76.1822 83.5788C76.2734 83.4958 76.3191 83.3755 76.3191 83.2095V82.9854C76.1614 83.1846 75.9415 83.28 75.6593 83.28C75.4685 83.28 75.3025 83.2385 75.1531 83.1473C75.0037 83.0601 74.8834 82.9356 74.8004 82.7738C74.7174 82.612 74.6759 82.4211 74.6759 82.2053C74.6759 81.9937 74.7174 81.807 74.8004 81.641C74.8834 81.4792 75.0037 81.3547 75.1531 81.2634C75.3025 81.1763 75.4726 81.1306 75.6635 81.1306C75.9415 81.1306 76.1614 81.2385 76.3274 81.4543L76.3772 81.1597H76.8917ZM76.1739 82.6452C76.2651 82.5373 76.3149 82.3921 76.3149 82.2136C76.3149 82.0352 76.2651 81.89 76.1739 81.7738C76.0784 81.6618 75.9539 81.6037 75.7963 81.6037C75.6386 81.6037 75.51 81.6618 75.4145 81.7738C75.3191 81.8858 75.2734 82.0311 75.2734 82.2095C75.2734 82.3921 75.3191 82.5373 75.4145 82.6452C75.51 82.7572 75.6386 82.8111 75.7963 82.8111C75.9539 82.8111 76.0784 82.7572 76.1739 82.6452ZM77.7768 82.5829C77.7851 82.6784 77.8307 82.7531 77.9137 82.8111C77.9967 82.8692 78.1004 82.8983 78.2332 82.8983C78.3577 82.8983 78.4531 82.8817 78.5278 82.8402C78.5984 82.7987 78.6357 82.7406 78.6357 82.6659C78.6357 82.612 78.6191 82.5705 78.5859 82.5414C78.5527 82.5165 78.5029 82.4958 78.4448 82.4833C78.3826 82.4709 78.283 82.4543 78.1461 82.4377C77.9552 82.4128 77.8017 82.3838 77.6772 82.3423C77.5527 82.3049 77.4531 82.2427 77.3785 82.1597C77.3038 82.0767 77.2664 81.9688 77.2664 81.8277C77.2664 81.6908 77.3038 81.5705 77.3785 81.4626C77.4531 81.3547 77.561 81.2717 77.7021 81.2136C77.839 81.1555 77.9967 81.1265 78.1793 81.1265C78.4697 81.1306 78.7021 81.1929 78.8805 81.3132C79.059 81.4377 79.1544 81.6037 79.171 81.8194H78.615C78.6067 81.7406 78.561 81.6742 78.4863 81.6244C78.4117 81.5746 78.3121 81.5456 78.1959 81.5456C78.0838 81.5456 77.9926 81.5663 77.9262 81.6078C77.8598 81.6493 77.8266 81.7074 77.8266 81.7738C77.8266 81.8236 77.8432 81.8609 77.8805 81.8858C77.9137 81.9107 77.9635 81.9315 78.0216 81.9398C78.0797 81.9522 78.1751 81.9647 78.3121 81.9771C78.5984 82.0103 78.8183 82.0726 78.9718 82.1638C79.1253 82.2551 79.2042 82.4087 79.2042 82.6244C79.2042 82.7655 79.1627 82.8858 79.0797 82.9896C78.9967 83.0975 78.8847 83.1763 78.7395 83.2344C78.5942 83.2925 78.4283 83.3174 78.2374 83.3174C77.9386 83.3174 77.698 83.2551 77.5154 83.1224C77.3287 82.9896 77.2291 82.8111 77.2208 82.5829H77.7768Z" fill="white"/>
<path d="M101.864 99.1903H90.6133C90.1834 99.1903 89.8251 98.832 89.8251 98.4021C89.8251 97.9721 90.255 97.6138 90.685 97.6138H101.936C102.366 97.6138 102.724 97.9721 102.724 98.4021C102.796 98.832 102.366 99.1903 101.864 99.1903Z" fill="white"/>
<path d="M105.161 148.995H90.6134C90.1834 148.995 89.8251 148.637 89.8251 148.207C89.8251 147.777 90.2551 147.418 90.685 147.418H105.232C105.662 147.418 106.021 147.777 106.021 148.207C105.949 148.493 105.519 148.995 105.161 148.995Z" fill="white"/>
<path d="M97.7796 151.788H90.6134C90.1834 151.788 89.8251 151.429 89.8251 150.999C89.8251 150.569 90.255 150.211 90.685 150.211H97.8512C98.2812 150.211 98.6395 150.569 98.6395 150.999C98.5678 151.429 98.2095 151.788 97.7796 151.788Z" fill="white"/>
<path d="M107.382 110.654H90.685C90.255 110.654 89.8251 111.013 89.8251 111.443C89.8251 111.873 90.1834 112.231 90.6133 112.231H107.311C107.741 112.231 108.171 111.873 108.171 111.443C108.242 111.084 107.884 110.654 107.382 110.654Z" fill="white"/>
<path d="M101.936 107.862H90.685C90.2551 107.862 89.8251 108.221 89.8251 108.651C89.8251 109.081 90.1834 109.439 90.6134 109.439H101.864C102.294 109.439 102.724 109.081 102.724 108.651C102.724 108.221 102.366 107.862 101.936 107.862Z" fill="white"/>
<path d="M99.1411 122.7H90.6134C90.1834 122.7 89.8251 122.342 89.8251 121.912C89.8251 121.482 90.2551 121.124 90.685 121.124H99.2128C99.6428 121.124 100.001 121.482 100.001 121.912C100.001 122.198 99.5711 122.7 99.1411 122.7Z" fill="white"/>
<path d="M107.018 122.7H101.93C101.5 122.7 101.142 122.342 101.142 121.912C101.142 121.482 101.572 121.124 102.002 121.124H107.09C107.52 121.124 107.878 121.482 107.878 121.912C107.806 122.198 107.376 122.7 107.018 122.7Z" fill="white"/>
<path d="M101.864 125.493H90.6134C90.1834 125.493 89.8251 125.134 89.8251 124.704C89.8251 124.274 90.255 123.916 90.685 123.916H101.936C102.366 123.916 102.724 124.274 102.724 124.704C102.653 125.134 102.294 125.493 101.864 125.493Z" fill="white"/>
<path d="M90.7374 163.401H71.532C70.8871 163.401 70.3854 162.899 70.4571 162.254C70.4571 161.609 70.9587 161.107 71.6753 161.107H90.8808C91.5257 161.107 92.0274 161.609 91.9557 162.254C91.9557 162.827 91.3824 163.401 90.7374 163.401Z" fill="white"/>
<path d="M105.908 163.401H94.1559C93.5109 163.401 93.0093 162.899 93.0809 162.254C93.0809 161.609 93.5826 161.107 94.2992 161.107H106.052C106.697 161.107 107.198 161.609 107.127 162.254C107.198 162.827 106.625 163.401 105.908 163.401Z" fill="white"/>
<path d="M85.9376 167.335H71.3902C70.7452 167.335 70.2436 166.833 70.3152 166.188C70.3152 165.543 70.8169 165.042 71.5335 165.042H86.0809C86.7258 165.042 87.2275 165.543 87.1558 166.188C87.1558 166.833 86.5825 167.335 85.9376 167.335Z" fill="white"/>
<path d="M101.774 171.357H71.1029C70.4579 171.357 69.9563 170.856 70.0279 170.211C70.0279 169.566 70.5296 169.064 71.2462 169.064H101.918C102.562 169.064 103.064 169.566 102.992 170.211C103.064 170.856 102.491 171.357 101.774 171.357Z" fill="white"/>
<path d="M95.6297 136.956H90.685C90.255 136.956 89.8251 137.314 89.8251 137.744C89.8251 138.174 90.1834 138.533 90.6133 138.533H95.558C95.988 138.533 96.418 138.174 96.418 137.744C96.4896 137.386 96.1313 136.956 95.6297 136.956Z" fill="white"/>
<path d="M103.891 136.956H98.2294C97.7994 136.956 97.3694 137.314 97.3694 137.744C97.3694 138.174 97.7278 138.533 98.1577 138.533H103.819C104.249 138.533 104.679 138.174 104.679 137.744C104.679 137.386 104.321 136.956 103.891 136.956Z" fill="white"/>
<path d="M101.936 134.165H90.685C90.2551 134.165 89.8251 134.523 89.8251 134.953C89.8251 135.383 90.1834 135.741 90.6134 135.741H101.864C102.294 135.741 102.724 135.383 102.724 134.953C102.796 134.523 102.438 134.165 101.936 134.165Z" fill="white"/>
<path d="M124.629 99.0514H113.45C112.303 99.0514 111.515 98.1915 111.515 96.9732C111.587 95.8266 112.59 94.895 113.665 94.895H124.844C125.991 94.895 126.779 95.755 126.779 96.9732C126.779 98.0481 125.776 99.0514 124.629 99.0514Z" fill="white"/>
<path d="M124.629 112.166H113.45C112.303 112.166 111.515 111.306 111.515 110.087C111.587 108.941 112.59 108.009 113.665 108.009H124.844C125.991 108.009 126.779 108.869 126.779 110.087C126.779 111.234 125.776 112.166 124.629 112.166Z" fill="white"/>
<path d="M113.465 138.46H124.644C125.79 138.46 126.794 137.6 126.794 136.382C126.865 135.235 126.005 134.304 124.859 134.304H113.68C112.533 134.304 111.53 135.164 111.53 136.382C111.386 137.529 112.318 138.46 113.465 138.46Z" fill="white"/>
<path d="M124.629 151.641H113.45C112.303 151.641 111.515 150.781 111.515 149.563C111.587 148.416 112.59 147.484 113.665 147.484H124.844C125.991 147.484 126.779 148.344 126.779 149.563C126.779 150.637 125.776 151.641 124.629 151.641Z" fill="white"/>
<path d="M113.464 125.346H124.644C125.79 125.346 126.794 124.486 126.794 123.268C126.865 122.122 126.005 121.19 124.859 121.19H113.679C112.533 121.19 111.53 122.05 111.53 123.268C111.386 124.343 112.318 125.346 113.464 125.346Z" fill="white"/>
<path d="M128.03 163.401H108.825C108.18 163.401 107.678 162.899 107.75 162.254C107.75 161.609 108.251 161.107 108.968 161.107H128.173C128.818 161.107 129.32 161.609 129.248 162.254C129.248 162.827 128.675 163.401 128.03 163.401Z" fill="white"/>
<path d="M118.691 167.143H106.939C106.294 167.143 105.792 166.642 105.864 165.997C105.864 165.352 106.365 164.85 107.082 164.85H118.835C119.479 164.85 119.981 165.352 119.909 165.997C119.981 166.57 119.408 167.143 118.691 167.143Z" fill="white"/>
<path d="M103.568 167.335H89.0207C88.3758 167.335 87.8741 166.833 87.9458 166.188C87.9458 165.543 88.4474 165.042 89.164 165.042H103.711C104.356 165.042 104.858 165.543 104.786 166.188C104.786 166.833 104.213 167.335 103.568 167.335Z" fill="white"/>
<path d="M135.724 171.357H105.053C104.408 171.357 103.906 170.856 103.978 170.211C103.978 169.566 104.479 169.064 105.196 169.064H135.867C136.512 169.064 137.014 169.566 136.942 170.211C137.014 170.856 136.44 171.357 135.724 171.357Z" fill="white"/>
<path d="M256.148 100.244H147.583C145.427 100.244 143.579 98.7492 143.579 96.7112C143.579 94.8091 145.273 93.1787 147.583 93.1787H256.148C258.304 93.1787 260.152 94.6732 260.152 96.7112C260.152 98.6134 258.612 100.244 256.148 100.244Z" fill="#EE384E"/>
<path d="M256.148 137.965H147.583C145.427 137.965 143.579 136.471 143.579 134.433C143.579 132.531 145.273 130.9 147.583 130.9H256.148C258.304 130.9 260.152 132.395 260.152 134.433C260.152 136.335 258.612 137.965 256.148 137.965Z" fill="#EE384E"/>
<path d="M218.555 107.313H145.975C144.777 107.313 143.579 106.556 143.579 105.547C143.579 104.663 144.606 103.78 145.975 103.78H218.898C220.096 103.78 221.294 104.537 221.294 105.547C221.123 106.556 219.925 107.313 218.555 107.313Z" fill="#DBE9F8"/>
<path d="M218.555 145.034H145.975C144.777 145.034 143.579 144.278 143.579 143.268C143.579 142.385 144.606 141.502 145.975 141.502H218.898C220.096 141.502 221.294 142.259 221.294 143.268C221.123 144.278 219.925 145.034 218.555 145.034Z" fill="#DBE9F8"/>
<path d="M218.555 152.35H145.975C144.777 152.35 143.579 151.593 143.579 150.584C143.579 149.701 144.606 148.818 145.975 148.818H218.898C220.096 148.818 221.294 149.575 221.294 150.584C221.123 151.593 219.925 152.35 218.555 152.35Z" fill="#DBE9F8"/>
<path d="M218.555 159.895H145.975C144.777 159.895 143.579 159.138 143.579 158.129C143.579 157.245 144.606 156.362 145.975 156.362H218.898C220.096 156.362 221.294 157.119 221.294 158.129C221.123 159.138 219.925 159.895 218.555 159.895Z" fill="#DBE9F8"/>
<path d="M218.555 167.439H145.975C144.777 167.439 143.579 166.682 143.579 165.673C143.579 164.79 144.606 163.907 145.975 163.907H218.898C220.096 163.907 221.294 164.664 221.294 165.673C221.123 166.682 219.925 167.439 218.555 167.439Z" fill="#DBE9F8"/>
<path d="M149.715 123.86C152.239 123.86 154.285 121.814 154.285 119.29C154.285 116.767 152.239 114.721 149.715 114.721C147.192 114.721 145.146 116.767 145.146 119.29C145.146 121.814 147.192 123.86 149.715 123.86Z" fill="#395196"/>
<path d="M161.987 123.86C164.511 123.86 166.556 121.814 166.556 119.29C166.556 116.767 164.511 114.721 161.987 114.721C159.464 114.721 157.418 116.767 157.418 119.29C157.418 121.814 159.464 123.86 161.987 123.86Z" fill="#3D83D9"/>
<path d="M173.736 123.86C176.26 123.86 178.306 121.814 178.306 119.29C178.306 116.767 176.26 114.721 173.736 114.721C171.213 114.721 169.167 116.767 169.167 119.29C169.167 121.814 171.213 123.86 173.736 123.86Z" fill="#00A9FF"/>
<path d="M186.269 123.86C188.793 123.86 190.838 121.814 190.838 119.29C190.838 116.767 188.793 114.721 186.269 114.721C183.746 114.721 181.7 116.767 181.7 119.29C181.7 121.814 183.746 123.86 186.269 123.86Z" fill="#DD4B39"/>
<path d="M269.229 246.753C269.229 246.753 273.167 247.054 276.159 247.054C279.152 247.054 283.719 247.655 283.719 247.655C283.719 247.655 284.979 247.655 284.979 249.158C284.979 250.66 284.979 251.111 284.979 251.111C284.979 251.111 284.979 253.065 283.719 253.065C282.459 253.065 273.482 253.966 271.592 253.966C269.702 253.966 267.969 254.267 267.969 253.065C267.812 251.412 267.812 246.753 269.229 246.753Z" fill="#160956"/>
<path d="M272.538 206.927C272.538 206.927 275.216 220.451 275.216 224.208C275.531 227.965 275.846 230.519 273.168 232.022C270.806 233.525 266.553 234.877 266.553 234.877L261.671 210.533V207.678L272.538 206.927Z" fill="#FDBD97"/>
<path d="M228.909 206.332C228.909 206.332 227.649 212.643 226.861 215.648C226.546 218.804 225.601 224.664 225.601 226.317C225.601 227.82 225.286 230.074 227.964 231.877C230.641 233.681 233.476 234.733 233.476 234.733L238.989 206.482H228.751V206.332H228.909Z" fill="#FDBD97"/>
<path d="M248.126 186.644C248.126 186.644 248.126 189.499 246.866 190.701C245.606 191.903 243.873 193.857 243.873 193.857C243.873 193.857 246.866 198.215 252.693 197.614C258.521 197.013 259.624 192.955 259.624 192.955C259.624 192.955 254.111 192.354 253.323 187.245C252.693 182.286 251.748 182.286 251.748 182.286L248.126 186.644Z" fill="#FDAE7F"/>
<path d="M243.873 175.378C243.873 175.378 244.188 181.99 247.181 186.949C250.488 191.908 254.111 189.203 255.686 186.649C257.261 184.094 261.199 175.378 260.254 173.575C259.309 171.321 247.811 170.419 247.811 170.419L243.873 175.378Z" fill="#FDBD97"/>
<path d="M258.992 179.13C258.992 179.13 260.567 177.928 260.567 179.13C260.567 180.332 259.622 182.286 258.52 182.286C257.575 182.586 257.575 181.985 257.89 181.084C258.362 180.332 258.992 179.13 258.992 179.13Z" fill="#FDBD97"/>
<path d="M244.503 181.535C244.818 181.836 245.448 181.836 245.448 181.235C245.448 180.033 244.503 178.079 243.4 178.079C242.455 177.779 242.455 178.38 242.77 179.281C242.77 179.582 242.77 179.882 243.085 180.183C243.558 180.634 244.188 181.535 244.503 181.535Z" fill="#FDBD97"/>
<path d="M244.188 178.381L243.873 176.427C243.873 176.427 245.921 176.728 247.811 174.474C247.811 174.474 252.063 175.375 255.371 175.075C258.993 174.774 260.253 173.873 260.253 173.873C260.253 173.873 259.623 177.629 258.993 178.832C258.993 178.832 260.568 178.23 261.356 176.277C261.986 174.323 261.986 172.52 261.986 172.52C261.986 172.52 264.348 170.567 264.978 168.763C264.978 168.763 258.678 167.261 256.788 166.209C254.741 165.007 253.796 164.255 253.796 164.255C253.796 164.255 250.803 162.753 247.968 164.856C245.133 166.96 243.085 168.313 243.085 172.069C243.243 171.919 240.25 175.676 244.188 178.381Z" fill="#150C56"/>
<path d="M244.503 191.903C244.503 191.903 240.566 191.602 238.203 191.903C235.841 192.504 235.211 192.203 235.841 193.856C236.471 195.509 239.463 202.872 238.203 207.38C236.943 212.039 234.896 235.631 234.896 235.631C234.896 235.631 250.016 236.232 255.843 236.533C261.671 236.833 266.081 235.932 266.081 235.932C266.081 235.932 267.341 225.563 266.081 221.205C264.821 216.847 263.088 209.334 263.088 209.334C263.088 209.334 262.143 198.965 263.403 196.561C264.663 194.006 266.081 194.006 264.033 193.105C262.143 192.203 260.096 191.903 258.521 191.903C256.946 191.903 256.158 191.903 255.213 192.804C254.268 193.706 252.536 195.359 250.016 195.058C247.653 194.758 245.763 193.105 245.763 193.105C245.763 193.105 245.606 191.903 244.503 191.903Z" fill="#0181F7"/>
<path d="M237.731 192.503C237.731 192.503 236.471 191.901 234.108 193.404C231.746 195.358 230.171 198.964 229.541 201.519C228.911 204.073 228.281 206.478 228.281 206.478C228.281 206.478 231.273 207.98 234.108 207.98C236.943 207.98 238.991 208.281 238.991 208.281C238.991 208.281 240.251 200.767 239.936 197.612C239.621 194.757 238.991 193.404 237.731 192.503Z" fill="#0064B5"/>
<path d="M262.616 195.36C262.616 195.36 263.876 192.205 266.553 193.407C269.231 194.91 271.121 200.319 271.751 201.822C272.381 203.776 273.011 206.781 273.011 206.781C273.011 206.781 269.703 207.983 267.183 208.284C264.506 208.584 262.616 208.584 262.616 208.584C262.616 208.584 261.671 201.972 261.671 199.267C261.671 196.563 262.616 195.36 262.616 195.36Z" fill="#0064B5"/>
<path d="M240.722 237.585H261.039L250.487 240.741L240.722 237.585Z" fill="#8F051C"/>
<path d="M222.61 232.328C222.61 232.328 259.623 243.298 267.813 246.153C267.813 246.153 270.49 246.754 270.49 247.956C270.49 249.158 270.175 251.112 270.175 252.013C269.86 252.915 268.915 253.967 267.498 253.516C266.238 253.216 232.69 246.904 219.617 243.448L215.68 242.246C215.68 242.246 213.002 241.044 213.317 237.888C213.632 234.732 216.31 231.877 217.885 231.577C219.932 231.727 222.61 232.328 222.61 232.328Z" fill="#DC051F"/>
<path d="M219.303 247.96C219.303 247.96 223.871 247.358 226.863 247.058C229.541 247.058 233.478 246.757 233.793 247.058C234.108 247.358 234.738 252.618 234.738 252.618C234.738 252.618 235.053 254.121 231.431 253.82C227.808 253.52 219.303 253.219 219.303 253.219C219.303 253.219 217.256 253.219 217.256 251.265C217.256 249.763 217.571 249.011 217.571 249.011C217.571 249.011 218.043 248.26 219.303 247.96Z" fill="#160956"/>
<path d="M241.353 243.295C241.353 243.295 263.718 236.683 271.909 234.579C280.099 232.325 284.351 230.221 287.029 233.978C289.706 237.735 289.391 241.492 286.399 242.694C283.406 243.896 260.096 249.005 250.331 250.808C240.566 252.612 234.266 253.964 233.321 253.663C232.376 253.363 231.273 250.508 231.746 249.005C232.061 247.502 232.061 246.751 234.108 246.15C235.683 245.098 241.353 243.295 241.353 243.295Z" fill="#EC384E"/>
<path d="M238.675 212.194H265.608C265.608 212.194 267.183 211.894 267.183 214.148C267.183 216.101 267.183 236.388 267.183 236.388C267.183 236.388 267.183 237.891 266.238 237.891C264.978 237.891 234.422 237.891 234.422 237.891C234.422 237.891 233.162 238.191 233.162 235.937C233.162 233.683 233.162 213.397 233.162 213.397C233.162 213.397 233.162 212.194 234.737 212.194C236.312 212.194 238.675 212.194 238.675 212.194Z" fill="#160956"/>
<path d="M38.2931 145.739H42.8787L47.8811 145.459C47.8811 145.459 48.437 148.529 45.5188 148.948C42.6007 149.227 38.1541 149.925 37.5983 149.785C36.4866 149.506 38.2931 145.739 38.2931 145.739Z" fill="#FBBE9B"/>
<path d="M34.8191 123.413C34.8191 123.413 39.5437 128.157 39.9605 130.809C40.7943 133.46 39.1268 137.227 38.7099 138.483C38.432 139.6 38.571 153.972 38.571 153.972H19.8117V123.273L34.8191 123.413Z" fill="#FFC727"/>
<path d="M45.9357 109.038C45.9357 109.038 45.6578 112.666 44.6851 115.039V116.853C44.6851 116.992 44.5461 117.132 44.4072 117.132L43.2955 116.992V118.527C43.2955 118.667 43.1566 118.806 43.0176 118.806H42.0449C41.906 118.806 41.767 118.946 41.767 119.085L41.906 119.922C41.906 120.062 41.906 120.202 41.628 120.202C40.7943 120.341 39.5437 120.481 37.7372 119.225C35.9308 117.969 34.8191 118.667 34.8191 119.783C34.8191 120.899 35.7918 124.388 34.2633 125.364C33.0127 126.202 29.1219 125.644 28.2881 124.806C27.3154 123.83 28.2881 121.597 29.5387 120.341C30.5114 119.364 31.901 108.899 33.9854 107.922C35.7918 107.503 45.9357 109.038 45.9357 109.038Z" fill="#FBBC98"/>
<path d="M24.1193 138.342L23.9803 144.761C23.9803 145.319 24.2582 145.738 24.953 145.738C25.6478 145.738 26.0647 145.738 27.3153 145.18C30.2334 144.064 37.3202 140.156 38.154 139.459C38.154 139.459 38.2929 139.459 38.2929 139.319C38.4319 139.04 39.4046 137.645 41.4889 137.784C44.1291 137.924 44.685 138.621 44.407 139.319C44.2681 140.156 43.8512 140.156 43.8512 140.156L44.1291 140.715C44.1291 140.715 43.8512 141.552 42.6006 141.552C41.4889 141.552 39.9604 140.994 39.6825 141.412C39.4046 141.691 28.0101 149.227 25.3699 151.041C25.092 151.18 24.5361 151.32 24.1193 151.599C22.4518 151.878 18.422 152.575 18.0051 149.785C17.1714 146.296 17.1714 138.621 17.1714 138.621L24.1193 138.342Z" fill="#FBBE9B"/>
<path d="M24.1193 126.761C24.3972 126.622 24.953 126.761 24.953 127.04V138.762C24.953 139.041 24.814 139.32 24.3972 139.32C23.9803 139.32 23.2855 139.32 22.0349 139.32C20.0895 139.32 18.422 139.32 17.4493 139.32C17.1714 139.32 17.1714 139.18 17.1714 139.041L17.3103 130.947C17.3103 130.808 17.3103 130.668 17.4493 130.668L24.1193 126.761Z" fill="#026ED4"/>
<path d="M10.6405 131.923C9.66783 128.295 16.1988 123.132 16.1988 123.132C16.1988 123.132 19.2559 122.016 19.8117 118.388C20.3676 114.76 23.8415 113.644 25.37 112.388C26.8986 111.132 28.0102 107.923 28.0102 107.923L28.1492 107.085C28.1492 107.085 30.7894 95.643 39.5437 98.5733C39.5437 98.5733 43.5735 100.108 45.2409 103.178C45.2409 103.178 51.0772 104.155 49.8265 108.76C48.7149 113.365 45.9357 110.574 45.9357 110.574C45.9357 110.574 44.8241 108.202 43.5735 109.737C42.3228 111.411 39.4047 112.527 38.571 110.853C37.5983 109.178 35.7918 108.202 35.375 110.574V111.69C35.375 111.69 30.9283 117.272 30.6504 119.086C30.0946 121.039 28.9829 123.83 26.7596 124.946C24.6752 126.202 22.313 131.086 21.2013 133.877C19.8117 136.807 11.7522 137.505 10.6405 131.923Z" fill="#1F1952"/>
<path d="M54.9679 132.203L66.3624 132.343L52.1888 148.25L40.5164 147.692L54.9679 132.203Z" fill="#1C164F"/>
<path d="M55.6627 143.785C55.6627 143.785 56.7743 145.878 55.8016 146.576C54.69 147.134 53.7173 147.413 53.1614 146.715C52.7446 146.157 52.3277 144.343 53.0225 144.622C53.5783 144.622 53.8562 144.762 53.8562 144.762V144.203C53.8562 144.064 53.8562 143.924 53.9952 143.924C54.551 143.506 55.5237 143.087 55.6627 143.785Z" fill="#FBBE9B"/>
<path d="M35.5138 154.111L38.7098 153.971V243.975L31.623 244.254L27.8712 185.228L35.5138 154.111Z" fill="#DE051F"/>
<path d="M19.8117 154.25C19.8117 154.25 19.6727 157.32 19.5338 158.715C19.3948 159.553 15.0871 166.53 18.4221 175.181C18.4221 175.321 18.4221 175.46 18.5611 175.739C18.5611 177.693 19.1169 189.414 16.7546 195.414L4.1095 236.997L8.97301 240.486C8.97301 240.486 25.6479 204.485 26.0648 202.81C26.4816 201.136 37.4593 165.832 35.9308 156.064L35.6528 154.25H19.8117Z" fill="#EE384E"/>
<path d="M38.7099 243.975C38.7099 243.975 43.1566 246.347 45.102 246.905C46.6305 247.184 46.9084 248.44 47.0474 248.859C47.0474 248.998 47.0474 249.138 46.9084 249.138H31.6231V244.114L38.7099 243.975Z" fill="#221D56"/>
<path d="M8.83401 240.067C8.83401 240.067 10.0846 243.695 12.8638 245.928C15.6429 248.021 12.8638 249.556 12.8638 249.556L1.46927 242.439C1.33031 242.16 0.635522 240.904 1.46927 239.788C2.30301 238.532 4.10946 236.579 4.10946 236.579L8.83401 240.067Z" fill="#221D56"/>
</g>
<defs>
<clipPath id="clip0_137_13192">
<rect width="314.454" height="285.673" fill="white"/>
</clipPath>
</defs>
</svg>
