<svg width="315" height="286" viewBox="0 0 315 286" fill="none" xmlns="http://www.w3.org/2000/svg">
<path d="M220.975 150.827C254.235 150.827 281.196 123.886 281.196 90.606C281.196 57.3845 254.235 30.3848 220.975 30.3848C187.715 30.3848 160.754 57.3258 160.754 90.606C160.695 123.886 187.715 150.827 220.975 150.827Z" stroke="#0054A3" stroke-width="0.782094" stroke-miterlimit="10" stroke-dasharray="4.69 4.69"/>
<path d="M107.299 150.827C144.296 150.827 174.287 120.859 174.287 83.8392C174.287 46.885 144.296 16.8516 107.299 16.8516C70.3021 16.8516 40.3115 46.8197 40.3115 83.8392C40.246 120.859 70.3021 150.827 107.299 150.827Z" stroke="#0054A3" stroke-width="0.869969" stroke-miterlimit="10" stroke-dasharray="5.22 5.22"/>
<path d="M50.503 33.3916C50.503 33.3916 47.0276 29.4135 50.0667 26.3506C53.1058 23.2876 59.4133 24.749 60.2859 28.4393C61.151 32.1296 58.977 34.0706 61.6612 35.1925C64.338 36.3143 71.3332 40.5656 69.3663 44.1451C67.4067 47.7247 62.9774 46.8981 64.1088 52.3007C65.2402 57.7033 74.1801 60.6555 68.368 66.464C62.556 72.2726 50.1998 79.4391 46.4952 66.309C42.7906 53.179 54.4812 58.1756 49.1276 49.127C43.774 40.0784 49.2164 41.0527 51.272 38.2997C53.3129 35.5542 50.503 33.3916 50.503 33.3916Z" fill="#023EA1"/>
<path d="M57.1194 39.4355C57.1194 39.4355 55.7884 53.3553 58.6797 65.7695C61.5709 78.1836 64.048 80.4347 64.048 80.4347" stroke="white" stroke-width="0.704398" stroke-miterlimit="10" stroke-linecap="round" stroke-linejoin="round"/>
<path d="M20.8495 37.354C20.8495 37.354 29.9521 30.9329 31.8377 36.8226C33.7307 42.7197 36.3113 42.5425 38.9733 42.2251C41.6353 41.9078 46.146 39.3615 47.8023 45.6866C49.4661 52.0118 47.8689 55.894 50.6492 57.9606C53.4295 60.0345 61.8666 72.1018 56.3503 74.1167C50.8341 76.1242 44.2308 70.9209 42.0347 67.9908C39.8385 65.0607 34.9729 64.8393 31.2461 65.5995C27.5193 66.3597 22.6094 64.3817 24.1475 59.54C25.6929 54.6984 23.2601 49.6795 19.8439 48.5503C16.4424 47.4211 14.7565 41.8045 20.8495 37.354Z" fill="#FCBE42"/>
<path d="M25.8329 43.1694L58.1689 78.9653" stroke="white" stroke-width="0.704398" stroke-miterlimit="10" stroke-linecap="round" stroke-linejoin="round"/>
<path d="M65.7253 69.6441C65.7253 69.6441 47.5127 51.2222 40.7172 34.6011" stroke="#DE051F" stroke-width="0.704398" stroke-miterlimit="10"/>
<path d="M38.1079 23.6187C38.1079 23.6187 44.408 28.4972 41.465 36.3133C41.465 36.3133 35.3202 32.9846 38.1079 23.6187Z" stroke="#DE051F" stroke-width="0.704398" stroke-miterlimit="10"/>
<path d="M48.9316 49.2286C48.9316 49.2286 45.8555 42.5565 52.4514 36.689C52.4514 36.689 56.9768 41.7447 48.9316 49.2286Z" stroke="#DE051F" stroke-width="0.704398" stroke-miterlimit="10"/>
<path d="M59.5809 62.8452C59.5809 62.8452 55.2551 56.9039 60.5791 49.8628C60.5791 49.8554 66.0067 53.9295 59.5809 62.8452Z" stroke="#DE051F" stroke-width="0.704398" stroke-miterlimit="10"/>
<path d="M59.4035 63.0975C59.4035 63.0975 54.708 57.4365 46.5519 60.839C46.5593 60.839 49.1622 67.0977 59.4035 63.0975Z" stroke="#DE051F" stroke-width="0.704398" stroke-miterlimit="10"/>
<path d="M48.9623 49.125C48.9623 49.125 45.0285 42.9179 36.5027 45.2502C36.5027 45.2502 38.2921 51.7894 48.9623 49.125Z" stroke="#DE051F" stroke-width="0.704398" stroke-miterlimit="10"/>
<g clip-path="url(#clip0_137_12130)">
<path d="M286.209 48.2188H46.7177V211.029H286.209V48.2188Z" fill="#0064B5"/>
<path d="M286.209 186.965H46.7177V210.964H286.209V186.965Z" fill="#FFC727"/>
<path d="M286.209 186.965H46.7177V210.964H286.209V186.965Z" fill="#033E9F"/>
<path d="M213.135 240.338H119.792V248.141H213.135V240.338Z" fill="#FFC727"/>
<path d="M213.135 240.338H119.792V248.141H213.135V240.338Z" fill="#033E9F"/>
<path d="M202.05 240.338H130.878L132.714 226.83L132.78 226.175L132.977 224.929L133.042 224.273L133.239 223.027V222.83L133.305 222.371L133.502 221.126L133.567 220.47L134.814 211.028H198.114L199.295 219.945L199.36 220.339L199.557 221.847L199.622 222.24L199.688 222.83L199.819 223.748V224.142L200.016 225.65L200.082 226.043L202.05 240.338Z" fill="#0064B5"/>
<path d="M170.367 197.39C170.367 199.554 168.596 201.324 166.431 201.324C164.267 201.324 162.496 199.554 162.496 197.39C162.496 195.226 164.267 193.456 166.431 193.456C168.596 193.39 170.367 195.161 170.367 197.39Z" fill="white"/>
<g opacity="0.16">
<path d="M199.689 222.83L133.568 220.47L134.814 211.028H198.114L199.689 222.83Z" fill="black"/>
</g>
<path d="M275.124 58.7744H57.7385V175.686H275.124V58.7744Z" fill="white"/>
<path d="M74.7139 65.6782C73.873 66.1004 73.3999 66.9974 73.3999 66.9974L66.7246 78.6592C66.7246 78.6592 66.4093 79.3451 66.4618 79.9784H73.9781L78.3932 72.2215L74.7139 65.6782Z" fill="#319F4F"/>
<path d="M82.0723 65.6782C82.9133 66.1004 83.3864 66.9974 83.3864 66.9974L90.0616 78.6592C90.3244 79.1868 90.377 79.609 90.377 79.9784H82.8082L78.3931 72.2742L82.0723 65.6782Z" fill="#F5BC0F"/>
<path d="M86.6451 86.6272C85.9092 87.0494 85.0157 86.9966 85.0157 86.9966H71.6126C71.0344 86.9966 70.614 86.7855 70.2986 86.6272L74.0304 80.084H82.8607L86.6451 86.6272Z" fill="#3D80B9"/>
<path d="M86.5926 86.6277L82.8608 80.0317H90.4821C90.4821 80.4011 90.377 80.7177 90.377 80.9288C90.377 80.9816 90.3245 81.0343 90.3245 81.1399C90.3245 81.2454 90.2719 81.2454 90.2193 81.3509C90.2193 81.3509 88.5899 84.1476 87.8015 85.6252C87.6964 85.8362 87.5913 85.9418 87.5387 85.9945C87.4336 85.9418 87.1182 86.4694 86.5926 86.6277Z" fill="#E84335"/>
<path d="M66.5143 80.0317C66.5143 80.0317 66.5669 80.5594 66.7771 81.0343C66.9874 81.562 69.3526 85.4668 69.5629 85.9418C69.8783 86.2584 70.1936 86.5222 70.2462 86.575L73.978 80.0317H66.5143Z" fill="#1F64AB"/>
<path d="M74.6613 65.7844C74.6613 65.7844 74.9767 65.5205 75.8177 65.4678C75.8702 65.4678 75.9228 65.4678 75.9228 65.4678C75.9228 65.4678 79.2867 65.4678 80.8635 65.4678C80.9161 65.4678 80.9686 65.4678 80.9686 65.4678C81.2315 65.4678 81.8096 65.5205 82.125 65.7844L78.4457 72.3276L74.6613 65.7844Z" fill="#198038"/>
<circle cx="265.479" cy="69.2665" r="3.16979" fill="#EAF4FF"/>
<circle cx="256.322" cy="69.2665" r="3.16979" fill="#EAF4FF"/>
<circle cx="246.46" cy="69.2665" r="3.16979" fill="#EAF4FF"/>
<rect x="66.2414" y="110.824" width="26.0317" height="1.95238" rx="0.976188" fill="#DBE9F8"/>
<rect x="66.2414" y="119.285" width="26.0317" height="1.95238" rx="0.976188" fill="#DBE9F8"/>
<rect x="66.2414" y="127.744" width="26.0317" height="1.95238" rx="0.976188" fill="#DBE9F8"/>
<rect x="66.2414" y="136.205" width="26.0317" height="1.95238" rx="0.976188" fill="#DBE9F8"/>
<rect x="66.2414" y="144.666" width="26.0317" height="5.20634" rx="0.704398" fill="#DBE9F8"/>
<rect x="109.194" y="81.5376" width="159.444" height="11.0635" rx="1.4088" fill="#EAF4FF"/>
<rect x="109.546" y="66.2721" width="122.295" height="6.45431" rx="1.0566" stroke="#EAF4FF" stroke-width="0.704398"/>
<rect x="109.546" y="100.114" width="48.105" height="16.867" rx="1.0566" stroke="#DBE9F8" stroke-width="0.704398"/>
<circle cx="118.635" cy="108.057" r="4.22639" fill="#DBE9F8"/>
<rect x="124.813" y="105.618" width="9.76188" height="1.30158" rx="0.650792" fill="#DBE9F8"/>
<rect x="124.813" y="108.872" width="18.873" height="1.30158" rx="0.650792" fill="#DBE9F8"/>
<rect x="109.546" y="120.287" width="48.105" height="35.7399" rx="1.0566" stroke="#DBE9F8" stroke-width="0.704398"/>
<circle cx="118.635" cy="128.11" r="4.22639" fill="#DBE9F8"/>
<rect x="124.813" y="125.792" width="9.76188" height="1.30158" rx="0.650792" fill="#DBE9F8"/>
<rect x="124.813" y="129.046" width="18.873" height="1.30158" rx="0.650792" fill="#DBE9F8"/>
<rect x="116.352" y="136.856" width="35.7935" height="1.30158" rx="0.650792" fill="#DBE9F8"/>
<rect x="116.352" y="142.713" width="35.7935" height="1.30158" rx="0.650792" fill="#DBE9F8"/>
<rect x="116.352" y="148.57" width="35.7935" height="1.30158" rx="0.650792" fill="#DBE9F8"/>
<rect x="164.863" y="100.114" width="48.105" height="55.9145" rx="1.0566" stroke="#DBE9F8" stroke-width="0.704398"/>
<circle cx="174.602" cy="107.657" r="3.52199" fill="#DBE9F8"/>
<rect x="180.13" y="105.618" width="9.76188" height="1.30158" rx="0.650792" fill="#DBE9F8"/>
<rect x="180.13" y="136.205" width="9.76188" height="1.30158" rx="0.650792" fill="#DBE9F8"/>
<rect x="180.13" y="108.872" width="18.873" height="1.30158" rx="0.650792" fill="#DBE9F8"/>
<rect x="180.13" y="139.46" width="27.3333" height="1.30158" rx="0.650792" fill="#DBE9F8"/>
<rect x="180.13" y="144.015" width="27.3333" height="1.30158" rx="0.650792" fill="#DBE9F8"/>
<rect x="180.13" y="148.57" width="27.3333" height="1.30158" rx="0.650792" fill="#DBE9F8"/>
<rect x="171.67" y="116.682" width="35.7935" height="1.30158" rx="0.650792" fill="#DBE9F8"/>
<rect x="171.67" y="122.538" width="23.4285" height="1.30158" rx="0.650792" fill="#DBE9F8"/>
<rect x="171.67" y="128.396" width="35.7935" height="1.30158" rx="0.650792" fill="#DBE9F8"/>
<rect x="220.181" y="100.114" width="48.105" height="55.9145" rx="1.0566" stroke="#DBE9F8" stroke-width="0.704398"/>
<rect x="225.034" y="136.856" width="35.7935" height="1.30158" rx="0.650792" fill="#DBE9F8"/>
<rect x="225.034" y="141.412" width="29.9364" height="1.30158" rx="0.650792" fill="#DBE9F8"/>
<rect x="225.034" y="144.666" width="29.9364" height="1.30158" rx="0.650792" fill="#DBE9F8"/>
<rect x="225.034" y="147.919" width="29.9364" height="1.30158" rx="0.650792" fill="#DBE9F8"/>
<rect x="225.034" y="104.968" width="38.3967" height="26.0317" rx="1.4088" fill="#DBE9F8"/>
<path d="M167.05 135.325C177.026 135.325 185.113 127.22 185.113 117.209C185.113 107.215 177.026 99.0933 167.05 99.0933C157.074 99.0933 148.987 107.198 148.987 117.209C148.97 127.22 157.074 135.325 167.05 135.325Z" stroke="#0054A3" stroke-width="0.176663" stroke-miterlimit="10" stroke-dasharray="1.06 1.06"/>
<path d="M151.713 99.3872L150.106 100.645L148.462 99.3872V99.3875L148.464 99.3892V101.15L150.087 102.435L151.713 101.2V99.3872Z" fill="#EA4335"/>
<path d="M152.164 99.085L151.712 99.3926V101.215L153.134 100.187V99.5679C153.134 99.5679 152.962 98.6835 152.164 99.085Z" fill="#FBBC05"/>
<path d="M151.712 101.247V103.654H152.802C152.802 103.654 153.112 103.624 153.134 103.285V100.201L151.712 101.247Z" fill="#34A853"/>
<path d="M148.462 99.401L148.012 99.0876C147.213 98.6762 147.04 99.5821 147.04 99.5821V100.217L148.462 101.215V99.401Z" fill="#C5221F"/>
<path d="M147.04 100.201V103.285C147.062 103.624 147.372 103.654 147.372 103.654H148.462L148.459 101.193L147.04 100.201Z" fill="#4285F4"/>
<g clip-path="url(#clip1_137_12130)">
<path d="M146.724 112.065L144.088 114.701C144 114.79 143.95 114.91 143.95 115.036V117.837C143.95 118.011 144.091 118.152 144.265 118.152H149.629C149.803 118.152 149.945 118.011 149.945 117.837V115.036C149.945 114.91 149.895 114.79 149.806 114.701L147.17 112.065C147.047 111.942 146.847 111.942 146.724 112.065Z" fill="#FAFAFA"/>
<path d="M145.054 116.89H148.84V118.152H145.054V116.89Z" fill="#43A047"/>
<path d="M145.212 115.154V118.151H144.265C144.092 118.151 143.95 118.009 143.95 117.836V115.154H145.212Z" fill="#FBC02D"/>
<path d="M149.806 114.7L147.829 112.724L146.954 113.599L148.683 115.328V118.152H149.629C149.803 118.152 149.945 118.01 149.945 117.837V115.035C149.945 114.91 149.894 114.789 149.806 114.7Z" fill="#1E88E5"/>
<path d="M147.829 112.723L143.95 116.603V115.035C143.95 114.91 144 114.788 144.089 114.7L146.725 112.064C146.848 111.941 147.047 111.941 147.17 112.064L147.829 112.723Z" fill="#E64A19"/>
</g>
</g>
<g opacity="0.8">
<path d="M275.596 166.704V172.075C275.596 174.16 273.279 175.874 270.46 175.874H247.751C247.404 174.931 247.211 173.931 247.211 172.874C247.211 166.561 254.124 161.477 262.62 161.477C268.104 161.505 272.854 163.59 275.596 166.704Z" fill="#EAF4FF"/>
<path d="M273.245 156.682C273.577 155.172 272.191 153.748 270.149 153.503C268.107 153.257 266.182 154.283 265.85 155.793C265.518 157.303 266.905 158.727 268.947 158.973C270.989 159.218 272.913 158.193 273.245 156.682Z" fill="#EAF4FF"/>
</g>
<path d="M48.7919 171.579C48.7919 171.579 45.2884 220.085 44.7856 228.688C44.2747 237.29 42.4337 266.266 42.4337 266.266H33.8291L28.0223 171.048L48.7919 171.579Z" fill="#DE051F"/>
<path d="M16.4175 172.086C16.4175 172.086 17.4312 196.525 17.8854 202.721C18.3314 208.917 13.4249 230.104 10.627 239.519C7.82094 248.942 3.8714 259.371 3.8714 259.371L10.627 263.233C10.627 263.233 25.2168 237.306 30.4477 222.009C35.6705 206.712 39.5632 183.819 38.9226 170.919L16.4175 172.086Z" fill="#EE384E"/>
<path d="M53.0357 137.379L59.5967 146.038C59.5967 146.038 60.1076 146.73 61.3241 146.416C62.5325 146.102 75.1597 141.548 75.1597 141.548C75.1597 141.548 76.9195 140.767 77.3899 139.375C77.8522 137.983 78.0711 137.645 78.3469 137.267C78.6226 136.889 79.0281 136.937 78.7929 136.003C78.5577 135.078 78.428 134.692 78.428 134.692C78.428 134.692 78.1522 134.04 78.7037 134.04C79.2552 134.04 79.8472 134.169 80.1554 134.804C80.4473 135.44 80.3743 136.977 80.3743 136.977L83.075 137.082C83.075 137.082 84.7294 137.138 84.7294 138.852C84.7294 140.566 84.7294 143.431 84.7294 143.431C84.7294 143.431 84.9646 144.324 83.7562 144.324C82.5478 144.324 81.2745 144.284 81.2745 144.284C81.2745 144.284 80.2608 144.179 78.5983 145.378C76.9357 146.577 64.2842 153.763 64.2842 153.763C64.2842 153.763 59.913 156.354 57.042 153.634C54.1711 150.914 47.8697 144.187 47.8697 144.187L47.5534 142.055L53.0357 137.379Z" fill="#FFBF99"/>
<path d="M31.9162 114.189C31.9162 114.189 31.1377 118.068 29.5725 121.955C28.0073 125.841 27.2287 127.386 27.2287 127.386C27.2287 127.386 31.9162 132.818 36.62 132.037C41.3076 131.265 41.3076 128.159 41.3076 128.159C41.3076 128.159 37.0012 124.666 37.0012 120.007C37.0012 115.348 37.0012 115.356 37.0012 115.356L31.9162 114.189Z" fill="#FFB48F"/>
<path d="M42.2655 127.266C42.2655 127.266 46.1583 129.415 47.7722 130.775C49.3941 132.134 54.0736 137.478 54.0736 137.478L47.6667 143.65L43.2063 138.628L42.2655 127.266Z" fill="#F79F03"/>
<path d="M29.2081 125.445C29.2081 125.445 31.5518 128.551 34.6823 129.323C37.8127 130.096 39.3698 127.77 39.3698 127.77L40.2295 126.66C40.2295 126.66 41.0972 125.984 42.0542 126.78C43.0112 127.561 44.8359 129.573 46.4173 132.824C48.0069 136.067 48.4692 140.508 48.8017 150.881C49.1342 161.253 48.8017 172.446 48.8017 172.446H16.4511L16.0699 156.329C16.0699 156.329 19.5086 134.892 22.8904 130.53C26.2723 126.169 27.2536 125.219 27.2536 125.219C27.2536 125.219 28.0321 124.157 29.2081 125.445Z" fill="#FCBE42"/>
<path d="M41.7057 103.703C41.7057 103.703 44.0494 106.809 44.0494 112.248C44.0494 117.68 43.2709 121.567 40.919 121.567C38.5671 121.567 33.8715 120.014 33.0929 118.461C32.3144 116.908 30.7491 116.908 30.7491 113.81C30.7491 110.711 34.6581 103.719 37.7967 103.719C40.9271 103.719 41.7057 103.703 41.7057 103.703Z" fill="#FFBF99"/>
<path d="M44.0498 103.704C44.0498 103.704 46.3935 97.4996 44.8283 96.711C43.2631 95.9385 40.1408 97.4835 39.3541 98.264C38.5755 99.0365 37.0103 99.0365 36.2237 99.0365C36.2237 99.0365 28.3976 99.0365 26.8324 100.59C25.2671 102.143 25.2671 102.915 25.2671 103.696C25.2671 104.468 25.259 107.518 24.4886 109.127C24.1561 109.827 23.71 113.006 25.2671 116.12C26.8242 119.226 28.3976 119.999 29.1761 119.999C29.9547 119.999 30.6602 119.999 30.7413 119.226C30.8306 118.389 31.1387 117.206 31.5199 116.12C31.893 115.082 32.2985 113.014 32.2985 113.014C32.2985 113.014 33.077 109.135 34.6422 107.582C36.2074 106.029 36.2074 106.029 39.3298 105.257C42.4845 104.492 43.2712 106.029 44.0498 103.704Z" fill="#170856"/>
<path d="M33.4984 109.376C34.6581 110.696 33.0929 113.022 33.0929 113.022C33.0929 113.022 30.7491 113.794 30.7491 111.469C30.7491 109.143 32.3306 108.049 33.4984 109.376Z" fill="#FFBF99"/>
<path d="M17.8277 142.048C17.8277 142.048 14.8919 153.257 15.4029 160.282C15.9138 167.299 18.0143 173.382 19.5389 177.615C21.0636 181.848 21.9638 182.862 22.0206 185.525C22.0773 188.189 23.3344 191.343 24.8915 192.928C26.4486 194.513 27.6975 195.302 27.6975 195.302C27.6975 195.302 29.5466 196.155 29.2546 194.449C29.2546 194.449 30.4955 194.546 30.0251 193.596C30.0251 193.596 31.6795 193.628 30.4711 192.333C29.2627 191.029 27.0325 189.774 27.0325 189.774C27.0325 189.774 25.7593 187.754 27.5759 188.768C29.3925 189.774 30.9821 189.814 29.3033 188.173C27.6164 186.531 25.67 183.658 24.2427 178.404C22.8153 173.157 21.1204 162.785 23.1397 154.818C25.1591 146.852 27.7137 144.196 27.7137 144.196L17.8277 142.048Z" fill="#FFBF99"/>
<path d="M10.9113 262.708C10.9113 262.708 12.4684 267.046 14.1958 269.041C15.9232 271.037 17.2857 272.493 17.2857 272.493C17.2857 272.493 19.297 275.688 17.0262 274.738C14.7635 273.789 2.24176 265.444 2.24176 265.444C2.24176 265.444 0.457568 264.527 1.28478 263.014C2.112 261.501 4.21247 258.572 4.21247 258.572L10.9113 262.708Z" fill="#170856"/>
<path d="M33.9118 272.391C33.9118 272.391 33.4496 273.654 36.0772 273.654C38.7048 273.654 53.0351 273.654 53.0351 273.654C53.0351 273.654 55.7924 273.107 53.254 271.884C50.6994 270.661 43.0598 267.249 43.0598 267.249C43.0598 267.249 42.4759 267.096 42.4921 265.64H33.8145L33.9118 272.391Z" fill="#170856"/>
<path d="M30.0833 134.579C30.0833 134.579 30.6348 129.373 26.815 128.874C22.9952 128.375 20.5703 133.428 19.2971 136.711C18.0238 139.994 17.3831 142.4 17.3831 142.4C17.3831 142.4 25.5985 145.684 27.7638 145.684C27.772 145.684 29.5967 140.228 30.0833 134.579Z" fill="#F79F03"/>
<path d="M288.038 223.679C288.038 223.679 303.161 224.569 296.575 225.449C289.988 226.34 280.922 226.34 277.717 225.977C274.522 225.625 285.548 223.855 288.038 223.679Z" fill="#0064B7"/>
<path d="M289.084 225.676L289.302 267.804C289.302 267.804 295.847 267.97 297.009 269.502C298.171 271.035 296.822 271.997 290.09 271.832C283.358 271.666 279.313 271.687 279.313 271.687C279.313 271.687 276.035 271.314 279.883 269.378C283.732 267.442 286.813 268.001 286.813 268.001L287.03 225.728L289.084 225.676Z" fill="#0064B7"/>
<path d="M284.999 159.932C284.999 159.932 286.835 154.828 282.322 153.472C282.322 153.472 281.016 145.779 274.875 149.258C274.408 149.517 273.879 149.558 273.402 149.32C271.773 148.512 268.164 144.609 265.664 150.594C265.467 151.059 264.989 151.246 264.554 151.266C262.707 151.339 258.257 152.064 261.909 157.561C261.909 157.561 263.599 159.601 266.421 159.767C266.421 159.767 279.522 168.774 283.329 167.252C287.115 165.71 286.97 161.63 284.999 159.932Z" fill="#2C2477"/>
<path d="M272.499 157.333C272.312 157.271 265.341 155.034 266.441 161.236V161.246C266.43 161.412 266.233 166.972 270.694 170.171C270.756 170.212 270.818 170.264 270.87 170.326C271.15 170.627 272.364 171.693 274.324 169.912C276.14 168.266 276.741 169.405 276.938 169.881C276.99 170.005 277.063 170.14 277.125 170.254C277.405 170.761 278.266 171.973 277.695 172.801C277.094 173.671 276.337 174.747 276.14 175.037C276.119 175.068 276.14 175.11 276.171 175.11C277.187 175.048 287.384 174.385 287.135 172.128C287.135 172.128 286.523 169.633 286.523 169.622L286.336 169.581C286.305 169.571 286.274 169.56 286.243 169.54L283.058 167.2C283.048 167.2 283.048 167.189 283.037 167.189C282.83 167.21 279.77 167.479 278.681 166.164C278.681 166.164 277.322 164.611 276.689 162.603C276.503 162.002 276.596 161.329 276.949 160.853C277.478 160.149 278.038 158.865 276.71 157.954C276.71 157.954 275.673 157.188 274.729 158.337L274.604 158.492C274.511 158.606 274.376 158.627 274.262 158.544L272.499 157.333C272.509 157.333 272.509 157.333 272.499 157.333Z" fill="#FFBF9C"/>
<path d="M286.543 169.623C286.543 169.623 281.896 173.93 276.616 174.416C276.616 174.416 273.732 177.615 273.307 184.594C272.882 191.572 272.602 207.205 273.027 208.22C273.452 209.235 298.243 209.069 298.243 209.069C298.243 209.069 296.407 183.734 293.451 178.464C293.451 178.464 289.084 170.813 286.543 169.623Z" fill="#DE051F"/>
<path d="M288.774 188.498C288.774 188.498 288.349 197.847 287.509 201.253C286.669 204.649 286.243 206.181 282.717 206.689C279.19 207.196 269.896 207.879 268.07 207.538C266.234 207.196 260.322 208.708 260.322 208.708C260.322 208.708 258.486 209.215 258.351 208.024C258.216 206.834 256.235 207.859 256.1 208.366C255.955 208.873 254.969 209.557 254.689 208.2C254.409 206.844 254.544 205.136 256.94 204.628C259.336 204.121 261.587 204.628 264.128 204.825C266.39 205.001 267.904 204.297 268.35 204.297L279.76 201.75C279.76 201.75 281.171 201.243 281.451 199.203C281.731 197.164 281.731 188.322 281.731 188.322L288.774 188.498Z" fill="#FFBF9C"/>
<path d="M289.905 189.512H280.912C280.808 182.886 281.441 176.591 284.978 176.58C284.978 176.591 289.905 175.473 289.905 189.512Z" fill="#EE384E"/>
<path d="M247.667 221.473C247.667 221.473 245.053 237.107 244.7 241.041C244.337 244.934 242.46 257.513 242.46 257.513L248.238 257.348L253.165 235.927L247.667 221.473Z" fill="#005498"/>
<path d="M298.119 207.424C298.223 208.128 298.845 218.647 297.819 221.308C296.885 223.741 294.437 224.538 290.07 224.88C286.377 225.17 267.239 224.186 261.43 223.855C260.642 223.813 260.072 224.735 260.321 225.625L268.93 256.157L263.858 258.88C263.858 258.88 252.167 237.459 250.331 232.355C248.495 227.251 245.964 218.419 246.11 216.369C246.11 216.369 245.684 212.456 250.051 211.948C254.335 211.451 267.986 208.822 268.494 208.718C268.505 208.718 268.515 208.718 268.526 208.718L273.007 208.211C273.017 208.211 273.027 208.211 273.038 208.211L298.119 207.424Z" fill="#0064E1"/>
<path d="M268.142 207.61C268.526 207.527 269.802 207.599 269.792 208.552C269.781 209.422 268.236 209.535 267.956 209.577C267.738 209.608 250.27 212.124 249.139 212.289C249.108 212.3 249.067 212.3 249.035 212.31C248.745 212.372 247.148 212.631 246.121 210.944C245.052 209.173 236.546 196.293 235.634 194.916C235.592 194.854 235.551 194.792 235.499 194.73C235.323 194.513 234.825 193.778 235.416 192.929C236.121 191.904 237.252 193.612 237.252 193.612L247.511 209.856C247.749 210.229 248.071 210.509 248.444 210.623H248.455C248.61 210.664 248.766 210.674 248.921 210.643" fill="#606060"/>
<path d="M242.501 257.316C242.49 257.316 242.47 257.316 242.459 257.327C242.148 257.617 237.439 261.965 234.991 262.949C234.752 263.042 234.524 263.145 234.296 263.249C234.109 263.332 233.933 263.425 233.756 263.528C233.622 263.611 233.487 263.694 233.352 263.787C233.259 263.86 233.165 263.932 233.072 264.015C233.01 264.077 232.947 264.139 232.885 264.212C232.844 264.264 232.813 264.315 232.781 264.377C232.761 264.419 232.74 264.46 232.73 264.502C232.719 264.553 232.719 264.595 232.73 264.647C232.73 264.698 232.73 264.74 232.73 264.792C232.73 264.843 232.73 264.895 232.73 264.947C232.73 264.968 232.75 264.988 232.771 264.988L248.32 262.969C248.362 262.959 248.403 262.949 248.434 262.928C248.6 262.814 249.046 262.4 248.932 261.437C248.808 260.35 248.32 257.824 248.237 257.41C248.227 257.379 248.206 257.358 248.175 257.347L242.501 257.316Z" fill="#2B2377"/>
<path d="M263.868 258.88C263.868 258.88 261.192 265.682 259.356 267.215C257.956 268.385 258.371 269.358 258.64 269.751C258.723 269.875 258.858 269.938 258.993 269.917C259.325 269.875 260.051 269.699 260.767 269.089C261.752 268.24 271.471 261.096 271.471 261.096C271.471 261.096 271.897 260.071 271.191 259.056C270.486 258.031 268.941 256.167 268.941 256.167L263.868 258.88Z" fill="#2B2377"/>
<path d="M7.66993 108.579L11.9408 112.842L16.2117 108.579L11.9408 104.317L7.66993 108.579Z" fill="#0064E1"/>
<path d="M303.78 110.532L308.051 114.795L312.322 110.532L308.051 106.269L303.78 110.532Z" fill="#DE051F"/>
<path d="M71.69 234.714C71.69 234.714 74.1787 233.699 73.9946 230.848C73.8105 227.996 72.3378 225.975 75.3787 226.799C78.4197 227.629 79.4424 227.996 81.6516 227.534C83.8607 227.071 85.6948 226.152 84.7334 229.004C83.7721 231.855 82.7221 234.244 84.9994 234.707C87.2699 235.169 89.7108 233.448 90.004 237.912C90.2972 242.376 86.6903 247.399 80.8538 247.583C75.0174 247.766 72.4401 245.35 72.4401 245.35C72.4401 245.35 70.8718 243.146 73.3128 242.608C75.7537 242.063 78.2424 241.036 76.9947 239.892C75.7537 238.756 71.6969 238.661 71.6969 238.661C71.6969 238.661 66.624 237.653 71.69 234.714Z" fill="#649EEA"/>
<path d="M98.3639 235.447C97.9548 232.603 98.2684 230.554 103.566 229.778C108.864 229.002 111.953 232.181 112.273 235.447C112.594 238.714 107.991 239.898 107.991 239.898C107.991 239.898 104.719 240.83 106.382 243.682C108.046 246.533 108.796 249.29 105.032 249.705C101.268 250.12 97.1502 249.126 94.8593 247.602C92.5683 246.077 90.216 242.212 92.8411 240.191C92.8411 240.191 93.5774 239.687 96.1139 239.544C98.6366 239.401 98.3639 235.447 98.3639 235.447Z" fill="#023EA1"/>
<path d="M79.7215 234.984C79.7215 234.984 84.1193 244.914 84.7193 251.671" stroke="#023EA1" stroke-width="0.704398" stroke-miterlimit="10"/>
<path d="M104.179 236.618C104.179 236.618 96.3923 248.16 94.5513 252.019" stroke="#649EEA" stroke-width="0.704398" stroke-miterlimit="10"/>
<path d="M82.0057 250.896H99.8765C99.8765 250.896 101.833 251.033 101.67 253.7C101.52 256.157 98.3969 255.626 96.7878 255.626C95.1787 255.626 81.6171 255.626 81.6171 255.626C81.6171 255.626 79.4216 256.001 79.4216 253.517C79.4216 251.033 80.2534 250.896 82.0057 250.896Z" fill="#0054A5"/>
<path d="M81.6248 255.626L84.3317 271.388H96.3319L98.3638 259.56L81.6453 255.626H81.6248Z" fill="#0054A5"/>
<path d="M81.6445 255.626L98.363 259.56L99.038 255.626H81.6445Z" fill="#006AD5"/>
<path d="M89.3293 251.495C89.3293 251.495 90.2361 234.005 95.4589 223.034" stroke="#FCBE42" stroke-width="0.704398" stroke-miterlimit="10"/>
<path d="M99.7549 216.718C99.7549 216.718 100.184 222.088 94.9344 224.184C94.9344 224.184 93.8025 219.597 99.7549 216.718Z" fill="#FCBE42"/>
<path d="M91.8802 233.807C91.8802 233.807 93.8167 229.227 99.7622 229.839C99.769 229.839 99.3054 234.399 91.8802 233.807Z" fill="#FCBE42"/>
<path d="M89.9225 245.329C89.9225 245.329 90.9248 240.456 96.8772 239.898C96.8772 239.898 97.3203 244.464 89.9225 245.329Z" fill="#FCBE42"/>
<path d="M89.7182 245.357C89.7182 245.357 90.4068 240.437 84.9863 237.919C84.9863 237.919 83.0431 242.077 89.7182 245.357Z" fill="#FCBE42"/>
<path d="M91.9473 233.774C91.9473 233.774 93.2632 228.976 88.204 225.791C88.1972 225.791 85.7426 229.67 91.9473 233.774Z" fill="#FCBE42"/>
<path d="M217.592 23.159L217.592 26.7748L217.592 29.2994C217.592 29.902 218.08 30.3906 218.667 30.3906L229.14 30.3906L229.14 26.7748L221.191 26.7748L221.191 23.159L217.592 23.159Z" fill="#FBC02D"/>
<path d="M232.758 23.1752L232.758 26.791L229.142 26.791L229.142 23.1752L232.758 23.1752Z" fill="#4CAF50"/>
<path d="M229.14 26.7753L232.756 26.7753L232.756 29.2998C232.756 29.9025 232.267 30.3911 231.665 30.3911L229.14 30.3911L229.14 26.7753Z" fill="#2E7D32"/>
<path d="M229.142 19.5748L229.142 23.1743L221.194 23.1743L221.194 19.5748L229.142 19.5748Z" fill="#1E88E5"/>
<path d="M229.142 23.1738L229.142 19.558L231.667 19.558C232.27 19.558 232.758 20.0466 232.758 20.6493L232.758 23.1738L229.142 23.1738Z" fill="#1565C0"/>
<path d="M221.194 19.5743L221.194 23.1738L217.594 23.1738L221.194 19.5743Z" fill="#E53935"/>
<path d="M155.928 23.2573L152.003 26.3285L147.988 23.2573V23.2582L147.993 23.2623V27.5628L151.957 30.7004L155.928 27.684V23.2573Z" fill="#EA4335"/>
<path d="M157.031 22.5201L155.927 23.2713V27.7229L159.4 25.2121V23.6995C159.4 23.6995 158.979 21.5392 157.031 22.5201Z" fill="#FBBC05"/>
<path d="M155.927 27.7978V33.6767H158.589C158.589 33.6767 159.346 33.6019 159.4 32.7741L159.4 25.2412L155.927 27.7978Z" fill="#34A853"/>
<path d="M147.988 23.2919L146.889 22.5264C144.938 21.5215 144.515 23.734 144.515 23.734V25.2837L147.988 27.7229V23.2919Z" fill="#C5221F"/>
<path d="M144.514 25.2412V32.774C144.568 33.6027 145.326 33.6767 145.326 33.6767H147.988L147.982 27.6643L144.514 25.2412Z" fill="#4285F4"/>
<path d="M78.2205 16.0161L78.2431 20.4063L81.3831 20.3902L81.3605 15.9999L78.2205 16.0161Z" fill="#1E88E5"/>
<path d="M88.9164 18.1545L88.9391 22.5592C88.9418 23.0826 88.5224 23.5063 87.9991 23.509L81.3992 23.543L81.383 20.3885L85.7877 20.3658L85.7764 18.1707L88.9164 18.1545Z" fill="#4CAF50"/>
<path d="M88.8931 13.7517L88.9158 18.1565L85.7758 18.1727L85.7645 15.9776L81.3597 16.0003L81.3434 12.8457L87.9433 12.8117C88.4667 12.809 88.8904 13.2284 88.8931 13.7517Z" fill="#FBC02D"/>
<path d="M81.3823 20.3901L81.3985 23.5301L79.2034 23.5414C78.6801 23.5441 78.2563 23.1247 78.2536 22.6014L78.2423 20.4062L81.3823 20.3901Z" fill="#1565C0"/>
<path d="M81.3438 12.8456L81.3601 16.0002L78.2201 16.0164L81.3438 12.8456Z" fill="#E53935"/>
<path d="M89.2358 18.1542L88.9297 20.8161L85.776 18.172L88.9023 15.4955L89.2358 18.1542Z" fill="#2E7D32"/>
<path d="M91.7294 13.7804L91.7744 22.5028C91.7757 22.7644 91.4712 22.9114 91.2668 22.7525L88.9309 20.8165L88.9034 15.4959L91.2193 13.5359C91.422 13.3604 91.728 13.5042 91.7294 13.7804Z" fill="#4CAF50"/>
<defs>
<clipPath id="clip0_137_12130">
<rect width="239.492" height="212.419" fill="white" transform="translate(46.7177 48.2188)"/>
</clipPath>
<clipPath id="clip1_137_12130">
<rect width="7.57241" height="7.57241" fill="white" transform="translate(143.161 111.369)"/>
</clipPath>
</defs>
</svg>
