<svg width="680" height="424" viewBox="0 0 680 424" fill="none" xmlns="http://www.w3.org/2000/svg">
<path d="M0 0H680V424H0V0Z" fill="#FDFDFD"/>
<path d="M323.05 314.426C397.758 314.426 458.32 255.858 458.32 183.61C458.32 111.362 397.758 52.793 323.05 52.793C248.342 52.793 187.78 111.362 187.78 183.61C187.78 255.858 248.342 314.426 323.05 314.426Z" stroke="#2526D9" stroke-width="1.11333" stroke-miterlimit="10" stroke-dasharray="6.68 6.68"/>
<path d="M407.218 95.1C415.057 95.1 421.413 88.7446 421.413 80.905C421.413 73.0653 415.057 66.71 407.218 66.71C399.378 66.71 393.023 73.0653 393.023 80.905C393.023 88.7446 399.378 95.1 407.218 95.1Z" fill="#FABC42"/>
<path d="M411.393 86.0816L410.057 75.3936L402.375 81.9066L411.393 86.0816Z" fill="white"/>
<path d="M365.468 120.316C365.134 119.982 364.8 119.982 364.466 119.982L357.786 120.65C357.118 120.65 356.116 120.316 356.116 119.314C355.448 116.141 354.112 113.469 352.609 110.63C352.275 109.962 352.275 108.96 352.943 108.459L357.786 104.618C358.12 104.284 358.12 103.95 358.12 103.616C358.12 103.282 358.12 102.948 357.786 102.614L350.438 95.266C350.104 94.932 349.77 94.932 349.436 94.932C349.102 94.932 348.768 94.932 348.434 95.266L344.593 100.109C344.259 100.777 343.257 100.777 342.422 100.443C339.583 98.773 336.911 97.604 333.738 96.936C333.07 96.936 332.402 95.934 332.402 95.266L333.07 88.586C333.07 88.252 333.07 87.918 332.736 87.584C332.402 87.25 332.068 87.25 331.734 87.25H321.38C321.046 87.25 320.712 87.25 320.378 87.584C320.044 87.918 320.044 88.252 320.044 88.586L320.712 95.266C320.712 95.934 320.378 96.936 319.376 96.936C316.203 97.604 313.531 99.107 310.692 100.443C310.024 100.777 309.022 100.777 308.521 100.109L304.68 95.266C304.346 94.932 304.012 94.932 303.678 94.932C303.344 94.932 303.01 94.932 302.676 95.266L295.328 102.614C294.994 102.948 294.994 103.282 294.994 103.616C294.994 103.95 294.994 104.284 295.328 104.618L300.171 108.459C300.839 108.793 300.839 109.795 300.505 110.63C298.835 113.469 297.666 116.141 296.998 119.314C296.998 119.982 295.996 120.65 295.328 120.65L288.648 119.982C288.314 119.982 287.98 119.982 287.646 120.316C287.312 120.65 287.312 120.984 287.312 121.318V131.839C287.312 132.173 287.312 132.507 287.646 132.841C287.98 133.175 288.314 133.175 288.648 133.175L295.328 132.507C295.996 132.507 296.998 132.841 296.998 133.843C297.666 137.016 299.169 139.688 300.505 142.527C300.839 143.195 300.839 144.197 300.171 144.698L295.161 148.539C294.827 148.873 294.827 149.207 294.827 149.541C294.827 149.875 294.827 150.209 295.161 150.543L302.509 157.891C302.843 158.225 303.177 158.225 303.511 158.225C303.845 158.225 304.179 158.225 304.513 157.891L308.354 153.048C308.688 152.38 309.69 152.38 310.525 152.714C313.364 154.384 316.036 155.553 319.209 156.221C319.877 156.221 320.545 157.223 320.545 157.891L319.877 164.571C319.877 164.905 319.877 165.239 320.211 165.573C320.545 165.907 320.879 165.907 321.213 165.907H331.567C331.901 165.907 332.235 165.907 332.569 165.573C332.903 165.239 332.903 164.905 332.903 164.571L332.235 157.891C332.235 157.223 332.569 156.221 333.571 156.221C336.744 155.553 339.416 154.05 342.255 152.714C342.923 152.38 343.925 152.38 344.426 153.048L348.267 157.891C348.601 158.225 348.935 158.225 349.269 158.225C349.603 158.225 349.937 158.225 350.271 157.891L357.619 150.543C357.953 150.209 357.953 149.875 357.953 149.541C357.953 149.207 357.953 148.873 357.619 148.539L352.776 144.698C352.108 144.364 352.108 143.362 352.442 142.527C354.112 139.688 355.281 137.016 355.949 133.843C355.949 133.175 356.951 132.507 357.619 132.507L364.299 133.175C364.633 133.175 364.967 133.175 365.301 132.841C365.635 132.507 365.635 132.173 365.635 131.839V121.485C365.802 120.65 365.802 120.316 365.468 120.316ZM363.13 130.002L357.953 129.334C355.782 129 353.778 130.336 353.11 132.841C352.442 135.68 351.44 138.352 349.937 140.857C348.935 143.028 349.269 145.032 350.939 146.368L354.78 149.207L349.603 154.384L346.764 150.543C345.428 148.873 342.923 148.372 341.253 149.541C338.748 150.877 336.076 152.046 333.237 152.714C331.066 153.048 329.73 155.219 329.73 157.557L330.398 162.734H322.716L323.384 157.557C323.718 155.386 322.382 153.382 319.877 152.714C317.038 152.046 314.366 151.044 311.861 149.541C309.69 148.539 307.686 148.873 306.35 150.543L303.511 154.384L298.334 149.207L302.175 146.368C303.845 145.032 304.346 142.527 303.177 140.857C301.841 138.352 300.672 135.68 300.004 132.841C299.67 130.67 297.499 129.334 295.161 129.334L289.984 130.002V122.32L295.161 122.988C297.332 123.322 299.336 121.986 300.004 119.481C300.672 116.642 301.674 113.97 303.177 111.465C304.179 109.294 303.845 107.29 302.175 105.954L298.334 103.115L303.511 97.938L306.35 101.779C307.686 103.449 310.191 103.95 311.861 102.781C314.366 101.445 317.038 100.276 319.877 99.608C322.048 99.274 323.384 97.103 323.384 94.765L322.716 89.588H330.398L329.73 94.765C329.396 96.936 330.732 98.94 333.237 99.608C336.076 100.276 338.748 101.278 341.253 102.781C343.424 103.783 345.428 103.449 346.764 101.779L349.603 97.938L354.78 103.115L350.939 105.954C349.269 107.29 348.935 109.795 349.937 111.465C351.273 113.97 352.442 116.642 353.11 119.481C353.444 121.652 355.615 122.988 357.953 122.988L363.13 122.32V130.002Z" fill="#033E9F"/>
<path d="M326.557 108.125C316.537 108.125 308.187 116.475 308.187 126.495C308.187 136.515 316.537 144.865 326.557 144.865C336.577 144.865 344.927 136.515 344.927 126.495C344.927 116.141 336.577 108.125 326.557 108.125ZM326.557 142.193C317.873 142.193 310.859 135.179 310.859 126.495C310.859 117.811 317.873 110.797 326.557 110.797C335.241 110.797 342.255 117.811 342.255 126.495C342.255 135.179 335.241 142.193 326.557 142.193Z" fill="#033E9F"/>
<path d="M272.616 131.84C272.282 131.506 272.115 131.506 271.781 131.506L266.27 132.007C265.769 132.007 264.934 131.673 264.934 130.838C264.433 128.333 263.264 125.995 262.095 123.824C261.761 123.323 261.761 122.488 262.429 121.987L266.437 118.814C266.771 118.48 266.771 118.313 266.771 117.979C266.771 117.645 266.771 117.478 266.437 117.144L260.425 111.132C260.091 110.798 259.924 110.798 259.59 110.798C259.256 110.798 259.089 110.798 258.755 111.132L255.582 115.14C255.248 115.641 254.413 115.641 253.745 115.474C251.407 114.138 249.236 113.136 246.731 112.635C246.23 112.635 245.562 111.8 245.562 111.299L246.063 105.788C246.063 105.454 246.063 105.287 245.729 104.953C245.395 104.619 245.228 104.619 244.894 104.619H236.377C236.043 104.619 235.876 104.619 235.542 104.953C235.208 105.287 235.208 105.454 235.208 105.788L235.709 111.299C235.709 111.8 235.375 112.635 234.54 112.635C232.035 113.136 229.697 114.472 227.526 115.474C227.025 115.808 226.19 115.808 225.689 115.14L222.516 111.132C222.182 110.798 222.015 110.798 221.681 110.798C221.347 110.798 221.18 110.798 220.846 111.132L214.834 117.144C214.5 117.478 214.5 117.645 214.5 117.979C214.5 118.313 214.5 118.48 214.834 118.814L218.842 121.987C219.343 122.321 219.343 123.156 219.176 123.824C217.84 126.162 216.838 128.333 216.337 130.838C216.337 131.339 215.502 132.007 215.001 132.007L209.49 131.506C209.156 131.506 208.989 131.506 208.655 131.84C208.321 132.174 208.321 132.341 208.321 132.675V141.192C208.321 141.526 208.321 141.693 208.655 142.027C208.989 142.361 209.156 142.361 209.49 142.361L215.001 141.86C215.502 141.86 216.337 142.194 216.337 143.029C216.838 145.534 218.174 147.872 219.176 150.043C219.51 150.544 219.51 151.379 218.842 151.88L214.834 155.053C214.5 155.387 214.5 155.554 214.5 155.888C214.5 156.222 214.5 156.389 214.834 156.723L220.846 162.735C221.18 163.069 221.347 163.069 221.681 163.069C222.015 163.069 222.182 163.069 222.516 162.735L225.689 158.727C226.023 158.226 226.858 158.226 227.526 158.393C229.864 159.729 232.035 160.731 234.54 161.232C235.041 161.232 235.709 162.067 235.709 162.568L235.208 168.079C235.208 168.413 235.208 168.58 235.542 168.914C235.876 169.248 236.043 169.248 236.377 169.248H244.894C245.228 169.248 245.395 169.248 245.729 168.914C246.063 168.58 246.063 168.413 246.063 168.079L245.562 162.568C245.562 162.067 245.896 161.232 246.731 161.232C249.236 160.731 251.574 159.395 253.745 158.393C254.246 158.059 255.081 158.059 255.582 158.727L258.755 162.735C259.089 163.069 259.256 163.069 259.59 163.069C259.924 163.069 260.091 163.069 260.425 162.735L266.437 156.723C266.771 156.389 266.771 156.222 266.771 155.888C266.771 155.554 266.771 155.387 266.437 155.053L262.429 151.88C261.928 151.546 261.928 150.711 262.095 150.043C263.431 147.705 264.433 145.534 264.934 143.029C264.934 142.528 265.769 141.86 266.27 141.86L271.781 142.361C272.115 142.361 272.282 142.361 272.616 142.027C272.95 141.693 272.95 141.526 272.95 141.192V132.675C272.95 132.007 272.95 131.84 272.616 131.84ZM270.779 139.689L266.604 139.188C264.767 138.854 263.264 140.023 262.596 142.027C262.095 144.365 261.26 146.536 260.091 148.54C259.256 150.377 259.59 151.88 260.926 153.049L264.099 155.387L259.924 159.562L257.586 156.389C256.417 155.053 254.413 154.552 253.077 155.554C251.073 156.723 248.902 157.558 246.564 158.059C244.727 158.393 243.725 160.063 243.725 162.067L244.226 166.242H237.88L238.381 162.067C238.715 160.23 237.546 158.727 235.542 158.059C233.204 157.558 231.033 156.723 229.029 155.554C227.192 154.719 225.689 155.053 224.52 156.389L222.182 159.562L218.007 155.387L221.18 153.049C222.516 151.88 223.017 149.876 222.015 148.54C220.846 146.536 220.011 144.365 219.51 142.027C219.176 140.19 217.506 139.188 215.502 139.188L211.16 139.689V133.51L215.335 134.011C217.172 134.345 218.675 133.176 219.343 131.172C219.844 128.834 220.679 126.663 221.848 124.659C222.683 122.822 222.349 121.319 221.013 120.15L217.84 117.812L222.015 113.637L224.353 116.81C225.522 118.146 227.526 118.647 228.862 117.645C230.866 116.476 233.037 115.641 235.375 115.14C237.212 114.806 238.214 113.136 238.214 111.132L237.88 106.79H244.059L243.558 110.965C243.224 112.802 244.393 114.305 246.397 114.973C248.735 115.474 250.906 116.309 252.91 117.478C254.747 118.313 256.25 117.979 257.419 116.643L259.757 113.47L263.932 117.645L260.759 119.983C259.423 121.152 259.089 123.156 259.924 124.492C261.093 126.496 261.928 128.667 262.429 131.005C262.763 132.842 264.433 133.844 266.437 133.844L270.612 133.343V139.689H270.779Z" fill="#EE384E"/>
<path d="M240.886 121.82C232.703 121.82 225.856 128.667 225.856 136.85C225.856 145.033 232.703 151.88 240.886 151.88C249.069 151.88 255.916 145.033 255.916 136.85C255.916 128.333 249.069 121.82 240.886 121.82ZM240.886 149.542C233.872 149.542 228.027 143.864 228.027 136.683C228.027 129.502 233.705 123.824 240.886 123.824C248.067 123.824 253.745 129.502 253.745 136.683C253.745 143.864 248.067 149.542 240.886 149.542Z" fill="#EE384E"/>
<path d="M221.639 177.405C221.333 177.099 221.026 177.099 220.72 177.099L213.366 178.018C212.446 178.018 211.374 177.405 211.374 176.486C210.761 173.269 209.382 170.051 207.544 167.293C207.237 166.374 207.237 165.302 207.85 164.689L212.906 160.552C213.212 160.246 213.519 159.939 213.519 159.633C213.519 159.326 213.519 159.02 213.212 158.714L205.399 150.593C205.092 150.287 204.786 150.287 204.479 150.287C204.173 150.287 203.867 150.593 203.56 150.9L199.423 155.956C198.811 156.569 197.891 156.875 196.819 156.262C193.908 154.27 190.69 153.045 187.626 152.432C186.707 152.125 186.094 151.513 186.094 150.44L187.013 143.086C187.013 142.78 187.013 142.167 186.707 142.167C186.401 141.86 186.094 141.86 185.788 141.86H174.144C173.837 141.86 173.531 141.86 173.224 142.167C172.918 142.473 172.918 142.78 172.918 143.086L173.837 150.44C173.837 151.359 173.224 152.432 172.305 152.432C169.088 153.045 165.87 154.424 163.113 156.262C161.887 156.722 160.968 156.722 160.355 156.109L156.218 151.053C155.912 150.747 155.605 150.44 155.299 150.44C154.992 150.44 154.686 150.44 154.38 150.747L146.413 158.714C146.106 159.02 146.106 159.326 146.106 159.633C146.106 159.939 146.413 160.246 146.719 160.552L151.775 164.689C152.388 165.302 152.694 166.221 152.081 167.293C150.09 170.204 148.864 173.422 148.251 176.486C147.945 177.405 147.332 178.018 146.259 178.018L138.905 177.099C138.599 177.099 137.986 177.099 137.986 177.405C137.68 177.712 137.68 178.018 137.68 178.324V189.509C137.68 189.815 137.68 190.122 137.986 190.428C138.292 190.735 138.599 190.735 138.905 190.735L146.259 189.815C147.179 189.815 148.251 190.428 148.251 191.347C148.864 194.565 150.243 197.782 152.081 200.54C152.388 201.459 152.388 202.532 151.775 203.145L146.719 207.281C146.413 207.588 146.106 207.894 146.106 208.201C146.106 208.507 146.106 208.813 146.413 209.12L154.38 217.087C154.686 217.393 154.992 217.393 155.299 217.393C155.605 217.393 155.912 217.087 156.218 216.78L160.355 211.878C160.968 211.265 161.887 210.958 162.959 211.571C165.87 213.563 169.088 214.789 172.152 215.401C173.071 215.708 173.684 216.321 173.684 217.393L172.765 224.747C172.765 225.054 172.765 225.36 173.071 225.667C173.378 225.973 173.684 225.973 173.99 225.973H185.175C185.481 225.973 185.788 225.973 186.094 225.667C186.401 225.36 186.401 225.054 186.401 224.747L185.481 217.393C185.481 216.474 186.094 215.401 187.013 215.401C190.231 214.789 193.448 213.41 196.206 211.571C197.125 211.265 198.198 211.265 198.811 211.878L202.947 216.934C203.254 217.24 203.56 217.546 203.867 217.546C204.173 217.546 204.479 217.546 204.786 217.24L212.753 209.273C213.059 208.967 213.059 208.66 213.059 208.354C213.059 208.047 212.753 207.741 212.446 207.435L207.39 203.298C206.778 202.685 206.471 201.766 207.084 200.693C209.076 197.782 210.301 194.565 210.914 191.501C211.221 190.581 211.834 189.969 212.906 189.969L220.26 190.888C220.567 190.888 221.179 190.888 221.179 190.581C221.486 190.275 221.486 189.969 221.486 189.662V178.478C221.945 178.324 221.945 177.712 221.639 177.405ZM219.341 188.283L213.519 187.67C211.221 187.364 209.076 188.896 208.463 191.194C207.85 194.105 206.471 197.016 204.939 199.468C203.713 201.459 204.326 204.217 205.858 205.596L209.689 208.813L203.867 214.635L200.649 210.805C199.117 208.813 196.512 208.507 194.521 209.886C191.916 211.418 189.158 212.797 186.247 213.41C183.949 214.023 182.417 216.321 182.724 218.466L183.336 224.134H175.676L176.289 218.312C176.595 216.014 175.063 213.869 172.765 213.257C169.854 212.644 166.943 211.265 164.491 209.733C162.5 208.507 159.742 209.12 158.363 210.652L155.146 214.482L149.324 208.66L153.154 205.443C155.146 203.911 155.452 201.306 154.073 199.314C152.541 196.71 151.162 193.952 150.549 191.041C149.936 188.743 147.638 187.211 145.493 187.517L139.671 188.13V180.163L145.493 180.776C147.791 181.082 149.936 179.55 150.549 177.252C151.162 174.341 152.541 171.43 154.073 168.979C155.299 166.987 154.686 164.229 153.154 162.85L149.324 159.633L155.146 153.811L158.363 157.641C159.895 159.633 162.5 159.939 164.491 158.56C167.096 157.028 169.854 155.649 172.765 155.036C175.063 154.424 176.595 152.125 176.289 149.981L175.676 144.618H183.643L183.03 150.44C182.724 152.738 184.256 154.883 186.554 155.496C189.465 156.109 192.376 157.488 194.827 159.02C196.819 160.246 199.577 159.633 200.956 158.101L204.173 154.27L209.995 160.092L206.165 163.31C204.173 164.842 203.867 167.447 205.245 169.438C206.778 172.043 208.156 174.801 208.769 177.712C209.382 180.01 211.68 181.542 213.825 181.235L219.647 180.623V188.283H219.341Z" fill="#033E9F"/>
<path d="M179.813 164.688C168.935 164.688 160.049 173.574 160.049 184.452C160.049 195.33 168.935 204.216 179.813 204.216C190.691 204.216 199.577 195.33 199.577 184.452C199.577 173.267 190.691 164.688 179.813 164.688ZM179.813 200.998C170.62 200.998 162.96 193.338 162.96 184.145C162.96 174.953 170.62 167.292 179.813 167.292C189.005 167.292 196.666 174.953 196.666 184.145C196.666 193.338 189.159 200.998 179.813 200.998Z" fill="#033E9F"/>
<path d="M465.666 309.193C465.666 312.032 463.161 314.37 460.489 314.37H192.621C189.782 314.37 187.444 311.865 187.444 309.193V148.539C187.444 145.7 189.949 143.362 192.621 143.362H460.489C463.328 143.362 465.666 145.867 465.666 148.539V309.193Z" fill="#0064B5"/>
<path d="M449.3 160.73H202.975V298.505H449.3V160.73Z" fill="white"/>
<path d="M173.417 322.386H484.872C488.045 322.386 490.383 319.881 490.383 316.875V306.855H167.572V316.875C167.906 319.714 170.578 322.386 173.417 322.386Z" fill="#033E9F"/>
<path d="M433.827 169.693H217.84V298.84H433.827V169.693Z" fill="#DAE2F2"/>
<path d="M424.92 177.765H222.85V188.62H424.92V177.765Z" fill="#EAF0FE"/>
<path d="M302.508 194.13H225.688V292.994H302.508V194.13Z" fill="#EAF0FE"/>
<path d="M292.322 258.425H232.202V287.316H292.322V258.425Z" fill="white"/>
<path d="M292.321 201.812H232.201V205.988H292.321V201.812Z" fill="white"/>
<path d="M292.322 210.83H232.202V215.005H292.322V210.83Z" fill="white"/>
<path d="M292.321 221.853H232.201V226.028H292.321V221.853Z" fill="white"/>
<path d="M292.322 231.037H232.202V235.212H292.322V231.037Z" fill="white"/>
<path d="M424.585 194.13H324.051V198.973H424.585V194.13Z" fill="white"/>
<path d="M424.585 203.482H324.051V208.325H424.585V203.482Z" fill="white"/>
<path d="M424.585 214.338H324.051V219.181H424.585V214.338Z" fill="white"/>
<path d="M424.585 225.693H324.051V289.988H424.585V225.693Z" fill="#EAF0FE"/>
<path d="M418.405 233.041H332.734V261.932H418.405V233.041Z" fill="white"/>
<path d="M335.24 180.437H225.688V185.614H335.24V180.437Z" fill="white"/>
<path d="M420.745 180.437H377.325V185.614H420.745V180.437Z" fill="white"/>
<path d="M423.715 218.307C423.715 218.307 426.541 217.558 426.164 213.254C425.787 208.949 422.962 205.393 427.106 202.96C431.062 200.527 432.192 199.779 434.265 198.094C436.148 196.223 437.279 194.726 443.307 195.287C443.307 195.287 448.205 191.357 452.726 194.913C457.058 198.469 455.928 207.826 456.682 209.323C457.623 210.633 463.652 216.622 464.217 221.488C464.782 226.354 461.391 229.536 456.682 229.349C451.972 229.161 445.19 229.349 445.19 229.349H427.483C427.483 229.349 421.266 229.723 420.89 223.734C420.89 220.178 423.715 218.307 423.715 218.307Z" fill="#180857"/>
<path d="M438.598 225.419C438.598 225.419 438.598 229.162 437.091 230.472C435.584 231.969 433.323 234.59 433.323 234.59C433.323 234.59 437.091 240.391 444.437 239.456C451.784 238.707 452.914 233.28 452.914 233.28C452.914 233.28 445.944 232.531 445.191 225.793C444.437 219.243 443.307 219.243 443.307 219.243L438.598 225.419Z" fill="#FFB07E"/>
<path d="M442.366 227.29C446.84 227.29 450.466 221.257 450.466 213.815C450.466 206.373 446.84 200.34 442.366 200.34C437.892 200.34 434.266 206.373 434.266 213.815C434.266 221.257 437.892 227.29 442.366 227.29Z" fill="#FFBE9B"/>
<path d="M442.365 199.404C442.365 199.404 441.047 203.709 437.844 207.826C434.642 212.13 431.063 214.563 430.686 215.312C430.309 216.061 427.483 214.002 428.425 210.633C429.367 207.265 435.207 197.907 440.858 197.72C446.51 197.533 448.205 194.164 451.031 201.089C453.856 208.013 453.48 215.686 453.48 215.686L442.365 199.404Z" fill="#180857"/>
<path d="M434.454 212.317C434.454 212.317 431.251 211.942 430.874 213.627C430.498 215.498 431.816 217.183 434.454 217.557C437.279 218.118 434.454 212.317 434.454 212.317Z" fill="#FFBE9B"/>
<path d="M464.781 301.589C464.781 301.589 469.491 301.776 473.07 301.776C476.649 301.776 482.112 302.337 482.112 302.337C482.112 302.337 483.431 302.337 483.619 304.209C483.807 306.08 483.807 306.829 483.807 306.829C483.807 306.829 483.996 309.075 482.3 309.075C480.605 309.075 470.056 310.198 467.419 310.198C464.781 310.198 463.274 310.572 463.274 309.075C463.086 307.39 463.086 301.214 464.781 301.589Z" fill="black"/>
<path d="M468.926 250.311C468.926 250.311 472.128 267.528 472.316 272.02C472.505 276.512 472.881 280.068 469.867 282.126C466.853 284.185 461.956 285.682 461.956 285.682L455.551 254.802V251.059L468.926 250.311Z" fill="#FFBF99"/>
<path d="M415.426 249.561C415.426 249.561 413.919 257.422 413.165 261.352C412.788 265.282 411.658 273.142 411.658 274.639C411.47 276.511 411.281 279.318 414.672 281.751C418.063 284.184 421.642 285.494 421.642 285.494L428.424 249.374L415.426 249.561Z" fill="#FFBF99"/>
<path d="M434.642 231.407C434.642 231.407 429.744 230.846 426.918 231.594C424.092 232.156 423.339 231.782 424.092 234.027C424.658 236.273 428.425 245.631 426.918 251.245C425.411 257.421 422.962 287.365 422.962 287.365C422.962 287.365 441.423 287.927 448.393 288.301C455.363 288.676 460.638 287.365 460.638 287.365C460.638 287.365 462.145 274.452 460.638 268.65C459.131 262.849 456.87 253.491 456.87 253.491C456.87 253.491 455.74 240.39 457.247 237.022C459.131 233.653 460.449 233.653 458.001 232.904C455.552 232.156 453.291 231.407 451.219 231.407C449.147 231.407 448.393 231.407 447.263 232.343C446.321 233.279 443.872 235.712 440.858 235.15C437.656 234.776 435.584 232.53 435.584 232.53C435.584 232.53 435.584 231.594 434.642 231.407Z" fill="#DE051F"/>
<path d="M426.165 232.53C426.165 232.53 424.658 231.781 422.021 233.653C419.195 236.086 417.311 241.139 416.181 244.32C415.239 247.502 414.674 250.683 414.674 250.683C414.674 250.683 418.253 252.555 421.832 252.555C425.6 252.742 428.049 252.929 428.049 252.929C428.049 252.929 429.556 243.385 429.179 239.454C428.802 234.963 428.049 233.653 426.165 232.53Z" fill="#EE384E"/>
<path d="M456.304 235.899C456.304 235.899 457.623 231.969 461.013 233.653C464.404 235.525 466.853 242.262 467.607 244.695C468.172 246.941 469.114 251.432 469.114 251.432C469.114 251.432 465.158 252.93 461.955 253.304C458.564 253.491 456.304 253.678 456.304 253.678C456.304 253.678 455.174 245.256 455.362 241.701C455.739 238.145 456.304 235.899 456.304 235.899Z" fill="#EE384E"/>
<path d="M430.12 289.8H454.798L441.799 293.73L430.12 289.8Z" fill="#004B89"/>
<path d="M407.703 282.874C407.703 282.874 452.726 296.724 462.898 300.28C462.898 300.28 466.289 301.028 466.289 302.9C466.289 304.397 466.101 307.017 465.724 308.14C465.347 309.263 464.405 310.386 462.333 310.011C460.449 309.637 419.948 301.59 403.747 297.659L399.226 296.349C399.226 296.349 395.835 294.852 396.4 290.548C396.966 286.43 400.168 282.874 402.24 282.687C404.689 282.126 407.703 282.874 407.703 282.874Z" fill="#FABC42"/>
<path d="M403.747 302.899C403.747 302.899 409.587 301.963 412.79 301.963C416.18 301.776 420.701 301.589 421.267 301.963C421.832 302.337 422.397 309.075 422.397 309.075C422.397 309.075 422.962 310.946 418.441 310.385C413.92 310.011 403.747 309.824 403.747 309.824C403.747 309.824 401.298 309.636 401.11 307.578C401.11 305.332 401.298 304.396 401.298 304.396C401.298 304.396 402.617 303.086 403.747 302.899Z" fill="black"/>
<path d="M430.497 296.911C430.497 296.911 458.189 288.676 467.607 285.682C477.403 282.687 482.678 280.067 486.069 284.746C489.271 289.238 489.083 294.478 485.503 295.975C481.736 297.285 453.291 304.023 441.423 306.643C429.555 309.263 421.831 310.573 420.701 310.199C419.759 309.824 418.252 306.269 418.441 304.023C418.629 301.777 418.817 301.215 421.266 300.28C423.715 299.531 430.497 296.911 430.497 296.911Z" fill="#F59D04"/>
<path d="M427.483 257.235H460.637C460.637 257.235 462.521 257.048 462.521 259.481C462.521 261.914 462.521 287.928 462.521 287.928C462.521 287.928 462.71 289.799 461.391 289.799C460.072 289.799 422.397 289.799 422.397 289.799C422.397 289.799 420.89 290.173 420.89 287.553C420.89 284.933 420.89 258.732 420.89 258.732C420.89 258.732 420.701 257.422 422.773 257.422C424.657 257.235 427.483 257.235 427.483 257.235Z" fill="#0064B7"/>
<path d="M490.383 272.788C490.383 272.788 493.89 271.452 493.556 267.611C493.222 263.77 491.385 260.931 495.226 262.1C499.067 263.102 500.737 263.77 503.576 263.102C506.415 262.434 509.087 261.432 507.751 265.273C506.415 269.114 504.912 272.287 508.085 272.955C511.258 273.623 514.264 271.285 514.765 277.13C515.099 282.975 510.256 289.989 502.24 289.989C494.224 290.323 490.717 286.816 490.717 286.816C490.717 286.816 488.546 283.643 491.719 282.975C494.892 282.307 498.399 280.804 496.562 279.134C494.892 277.798 489.548 277.464 489.548 277.464C489.548 277.464 483.369 276.963 490.383 272.788Z" fill="#649CE8"/>
<path d="M526.288 273.79C525.62 269.949 526.288 267.11 533.302 266.108C540.316 265.106 544.491 269.281 545.159 273.79C545.827 278.299 539.314 279.635 539.314 279.635C539.314 279.635 534.805 280.971 537.31 284.812C539.314 288.653 540.483 292.494 535.64 292.828C530.463 293.496 525.286 292.16 522.113 289.989C518.94 287.818 515.934 282.641 519.274 279.969C519.274 279.969 520.276 279.301 523.783 279.301C526.956 279.301 526.288 273.79 526.288 273.79Z" fill="#033E9F"/>
<path d="M501.238 273.456C501.238 273.456 507.083 286.649 507.918 296.001" stroke="#82D8FD" stroke-width="0.556667" stroke-miterlimit="10" stroke-linecap="round" stroke-linejoin="round"/>
<path d="M534.304 275.627C534.304 275.627 523.95 291.325 521.445 296.502" stroke="#579DD3" stroke-width="0.556667" stroke-miterlimit="10" stroke-linecap="round" stroke-linejoin="round"/>
<path d="M504.244 294.665H528.292C528.292 294.665 531.131 294.665 530.797 298.506C530.797 302.013 526.288 301.011 524.117 301.011C521.946 301.011 503.576 301.011 503.576 301.011C503.576 301.011 500.737 301.345 500.737 298.172C500.904 294.999 501.906 294.665 504.244 294.665Z" fill="#0054A3"/>
<path d="M503.576 301.011L507.417 322.554H523.449L526.288 306.522L503.576 301.011Z" fill="#0054A3"/>
<path d="M503.576 301.011L526.288 306.522L527.29 301.011H503.576Z" fill="#016AD3"/>
<path d="M514.097 295.333C514.097 295.333 515.433 271.619 522.447 257.09" stroke="#FABC42" stroke-width="0.556667" stroke-miterlimit="10"/>
<path d="M527.958 248.74C527.958 248.74 528.626 256.088 521.278 258.76C521.779 258.927 519.942 252.581 527.958 248.74Z" fill="#FABC42"/>
<path d="M517.604 271.786C517.604 271.786 520.109 265.607 527.958 266.609C528.292 266.442 527.624 272.454 517.604 271.786Z" fill="#FABC42"/>
<path d="M515.099 287.317C515.099 287.317 516.435 280.637 524.451 279.969C524.117 279.802 524.785 285.981 515.099 287.317Z" fill="#FABC42"/>
<path d="M514.765 287.318C514.765 287.318 515.767 280.638 508.586 277.298C508.085 277.298 505.747 282.809 514.765 287.318Z" fill="#FABC42"/>
<path d="M517.604 271.787C517.604 271.787 519.274 265.608 512.761 260.932C512.594 260.932 509.254 266.109 517.604 271.787Z" fill="#FABC42"/>
<path d="M262.931 249.241L292.991 252.748L304.848 214.171L301.675 213.169L287.814 241.392L261.094 239.722C261.094 239.722 249.237 239.054 251.742 244.565C252.911 247.07 256.752 248.573 262.931 249.241Z" fill="#F59D04"/>
<path d="M244.059 229.034C244.059 229.034 234.874 225.861 233.872 234.378C233.872 234.378 231.534 240.557 229.196 241.726C226.858 242.895 221.013 244.899 222.516 253.082C224.019 261.098 226.19 260.597 225.188 265.273C224.353 269.949 226.524 270.45 229.697 270.617C232.87 270.784 233.872 267.611 233.872 267.611L233.037 257.257L235.208 240.557L242.055 237.885C242.055 237.885 245.562 233.376 245.896 231.706C246.23 229.702 244.059 229.034 244.059 229.034Z" fill="#170856"/>
<path d="M242.723 226.696C242.723 226.696 241.22 228.199 241.554 228.533C241.888 228.867 245.896 230.871 245.896 230.871C245.896 230.871 247.065 228.7 246.898 228.032C246.898 227.197 242.723 226.696 242.723 226.696Z" fill="#F05051"/>
<path d="M266.938 215.508C267.105 215.508 267.272 215.675 267.272 215.842C267.272 217.846 266.771 227.365 262.93 230.872C262.93 230.872 260.926 233.544 257.085 232.375C257.085 232.375 253.578 230.371 254.246 234.546C254.914 238.721 253.077 242.896 251.574 243.397C250.238 244.065 244.56 242.562 243.224 240.057C242.389 238.554 241.889 237.719 241.722 237.385C241.555 237.218 241.722 237.051 241.722 236.884C242.557 236.049 245.396 232.375 246.732 227.532C248.235 221.854 247.399 216.343 252.743 215.174C257.586 214.339 265.268 215.341 266.938 215.508Z" fill="#FFBE97"/>
<path d="M271.948 215.006C271.948 214.839 271.948 214.839 271.948 214.672C271.948 214.171 271.948 213.503 271.948 213.002C271.781 211.332 271.28 209.495 269.777 208.159C268.775 207.324 267.439 206.99 266.103 206.99C265.769 206.99 265.602 206.823 265.268 206.656C264.433 205.654 261.427 202.815 257.419 202.815C252.576 202.815 244.226 205.487 242.055 213.837C241.888 214.338 238.715 227.364 245.061 227.865C251.574 228.199 254.246 225.026 254.079 222.187C254.079 222.187 250.906 216.509 256.25 217.845C256.25 217.845 261.928 218.847 265.769 216.676C266.27 216.342 266.938 216.509 267.105 217.01C267.94 218.346 269.443 220.35 270.946 218.68C271.447 218.012 271.948 217.344 272.115 216.509C272.115 216.008 271.948 215.507 271.948 215.006Z" fill="#170856"/>
<path d="M238.548 283.644L264.6 280.137L264.099 278.968C264.099 278.968 260.592 259.596 261.093 257.759C261.594 255.922 263.431 256.924 263.598 251.413C263.765 245.902 254.413 237.552 254.413 237.552C254.413 237.552 254.079 242.228 249.57 242.228C245.061 242.228 241.888 237.218 241.888 237.218C237.212 237.552 234.206 240.892 234.206 240.892L232.536 242.729C232.536 242.729 227.526 246.904 238.548 283.644Z" fill="#FABC42"/>
<path d="M264.601 280.136L301.341 294.164C301.341 294.164 305.85 294.999 307.019 307.357C308.188 319.715 309.023 360.63 309.023 360.63V361.966L299.838 362.133L295.329 318.546L273.619 292.327L256.084 281.305L264.601 280.136Z" fill="#EE384E"/>
<path d="M238.382 282.808L256.251 281.138L293.659 299.842C293.659 299.842 303.846 305.854 297.333 316.542C290.82 327.23 272.617 360.63 272.617 360.63L266.438 355.954L282.47 311.699C282.47 311.699 282.804 309.361 277.46 309.027C272.45 308.693 248.903 306.355 245.897 306.021C245.563 306.021 245.396 306.021 245.229 305.854C243.392 305.186 236.211 301.679 238.549 289.154L238.883 283.81L238.382 282.808Z" fill="#DE051F"/>
<path d="M309.189 361.966L317.205 366.308C317.539 366.475 318.04 366.642 318.541 366.809C319.376 366.976 320.879 367.31 320.879 368.646C320.879 368.646 321.046 370.149 317.205 369.815C313.364 369.481 301.173 369.648 301.173 369.648C301.173 369.648 299.67 369.314 299.837 365.807L300.171 362.3L309.189 361.966Z" fill="#130452"/>
<path d="M272.617 360.63C272.617 360.63 272.617 362.634 274.788 365.473C275.957 366.976 277.126 368.646 278.462 369.982C278.796 370.316 279.13 370.65 279.297 371.151C279.464 371.485 279.464 371.819 279.464 372.153C279.464 372.487 279.464 372.821 279.13 372.988C278.629 373.322 277.961 373.155 277.627 372.988C277.46 372.988 277.293 372.988 277.293 372.821C274.12 371.652 264.768 364.137 262.764 362.467C262.43 362.3 262.43 361.966 262.43 361.632C262.43 360.964 262.597 359.628 263.432 358.793C264.601 357.29 266.605 355.787 266.605 355.787L272.617 360.63Z" fill="#130452"/>
<path d="M331.369 263.632C335.533 262.469 339.391 258.488 342.086 252.578C338.779 251.69 335.196 251.139 331.369 250.955V263.632ZM315.354 252.455C318.048 258.457 321.907 262.438 326.102 263.632V250.924C322.305 251.077 318.691 251.598 315.354 252.455ZM347.077 254.323C346.189 256.344 345.179 258.182 344.015 259.866C346.098 258.672 348.027 257.232 349.742 255.579C348.884 255.119 348.027 254.691 347.077 254.323ZM307.545 255.395C309.321 257.11 311.281 258.58 313.425 259.835C312.23 258.09 311.189 256.191 310.27 254.14C309.382 254.507 308.464 254.936 307.545 255.395ZM348.884 249.363C350.476 250.006 351.946 250.741 353.294 251.506C356.601 247.005 358.561 241.738 359.05 236.195H351.058C350.844 240.819 350.109 245.259 348.884 249.363ZM298.42 236.165C298.879 241.646 300.839 246.852 304.054 251.322C305.494 250.526 306.994 249.822 308.525 249.179C307.331 245.137 306.596 240.758 306.412 236.165H298.42ZM331.369 245.688C335.809 245.872 340.035 246.545 343.923 247.648C344.965 244.096 345.608 240.237 345.791 236.165H331.369V245.688ZM311.679 236.165C311.863 240.207 312.506 244.004 313.516 247.525C317.405 246.454 321.662 245.841 326.102 245.688V236.195H311.679V236.165ZM345.791 230.929C345.608 226.856 344.965 222.967 343.893 219.415C339.912 220.548 335.717 221.191 331.338 221.405V230.929H345.791ZM359.05 230.898C358.561 225.355 356.601 220.058 353.263 215.557C351.854 216.353 350.385 217.057 348.854 217.7C350.078 221.803 350.813 226.243 351.028 230.898H359.05ZM326.102 230.898V221.375C321.754 221.191 317.528 220.579 313.516 219.476C312.475 222.998 311.863 226.825 311.679 230.898H326.102ZM306.412 230.898C306.627 226.274 307.331 221.895 308.525 217.853C306.963 217.241 305.494 216.506 304.054 215.74C300.839 220.211 298.879 225.417 298.42 230.898H306.412ZM315.384 214.546C318.814 215.434 322.397 215.955 326.102 216.138V203.431C321.907 204.625 318.079 208.606 315.384 214.546ZM331.369 216.108C335.074 215.924 338.657 215.373 342.056 214.454C339.361 208.544 335.533 204.594 331.369 203.431V216.108ZM307.576 211.668C308.525 212.158 309.413 212.556 310.301 212.923C311.189 210.872 312.261 208.942 313.425 207.228C311.281 208.452 309.352 209.953 307.576 211.668ZM344.015 207.228C345.179 208.912 346.189 210.749 347.077 212.77C347.965 212.403 348.854 211.974 349.742 211.515C348.027 209.861 346.098 208.422 344.015 207.228ZM365.267 233.133C365.267 253.098 349.098 269.267 329.133 269.267C309.168 269.267 293 253.098 293 233.133C293 213.168 309.168 197 329.133 197C349.098 197 365.267 213.168 365.267 233.133Z" fill="#0064B5"/>
<path d="M292.206 255.894C292.206 255.894 297.643 251.51 299.221 251.861C300.624 252.212 304.307 255.894 293.784 258.35L292.206 255.894Z" fill="#FFC190"/>
<path d="M236.961 255.018L257.13 279.571L293.959 258.701L292.556 255.369L261.865 266.768L243.275 245.197C243.275 245.197 236.26 236.253 232.226 242.566C230.648 245.898 232.928 249.932 236.961 255.018Z" fill="#F59D04"/>
</svg>
