<svg width="680" height="424" viewBox="0 0 680 424" fill="none" xmlns="http://www.w3.org/2000/svg">
<rect width="680" height="424" fill="#FDFDFD"/>
<path d="M538.5 316.992H131V317.155H538.5V316.992Z" fill="#ECECEC"/>
<path d="M497.75 330.031H470.692V330.194H497.75V330.031Z" fill="#ECECEC"/>
<path d="M400.928 332.312H393.756V332.476H400.928V332.312Z" fill="#ECECEC"/>
<path d="M469.877 322.531H454.229V322.694H469.877V322.531Z" fill="#ECECEC"/>
<path d="M208.915 323.836H173.707V323.999H208.915V323.836Z" fill="#ECECEC"/>
<path d="M221.465 323.836H216.249V323.999H221.465V323.836Z" fill="#ECECEC"/>
<path d="M314.538 327.258H238.254V327.421H314.538V327.258Z" fill="#ECECEC"/>
<path d="M324.155 280.482H166.86C164.415 280.482 162.133 278.363 162.133 275.755V54.727C162.133 52.282 164.252 50 166.86 50H324.318C326.926 50 328.882 52.119 328.882 54.727V275.918C328.719 278.526 326.763 280.482 324.155 280.482ZM166.86 50.326C164.415 50.326 162.296 52.282 162.296 54.89V276.081C162.296 278.526 164.252 280.645 166.86 280.645H324.318C326.763 280.645 328.882 278.689 328.882 276.081V54.727C328.882 52.282 326.926 50.163 324.318 50.163H166.86V50.326Z" fill="#ECECEC"/>
<path d="M500.358 280.482H343.063C340.455 280.482 338.499 278.363 338.499 275.755V54.727C338.499 52.282 340.618 50 343.063 50H500.521C503.129 50 505.248 52.119 505.248 54.727V275.918C505.085 278.526 502.966 280.482 500.358 280.482ZM343.063 50.326C340.618 50.326 338.499 52.282 338.499 54.89V276.081C338.499 278.526 340.455 280.645 343.063 280.645H500.521C502.966 280.645 505.085 278.689 505.085 276.081V54.727C505.085 52.282 503.129 50.163 500.521 50.163H343.063V50.326Z" fill="#ECECEC"/>
<path d="M265.638 234.68H250.479V313.898H265.638V234.68Z" fill="#F0F0F0"/>
<path d="M262.541 313.898H196.526V316.995H262.541V313.898Z" fill="#F0F0F0"/>
<path d="M250.479 234.68H193.755V313.898H250.479V234.68Z" fill="#F5F5F5"/>
<path d="M247.871 260.756V284.554H196.2V260.756H247.871ZM248.197 260.43H195.874V285.043H248.36L248.197 260.43Z" fill="#E1E1E1"/>
<path d="M224.236 272.657C224.236 273.961 223.258 274.939 222.117 274.939C220.976 274.939 219.998 273.961 219.998 272.657C219.998 271.353 220.976 270.375 222.117 270.375C223.258 270.538 224.236 271.353 224.236 272.657Z" fill="#E1E1E1"/>
<path d="M248.36 237.289H195.874V255.382H248.36V237.289Z" fill="#F0F0F0"/>
<path d="M248.36 289.773H195.874V307.866H248.36V289.773Z" fill="#F0F0F0"/>
<path d="M206.958 237.289H195.874V255.382H206.958V237.289Z" fill="#E1E1E1"/>
<path d="M206.958 289.773H195.874V307.866H206.958V289.773Z" fill="#E1E1E1"/>
<path d="M318.287 315.197C323.34 315.197 327.578 310.959 327.578 306.069V227.503C327.578 222.45 323.34 218.375 318.287 218.375H268.409V315.36H318.287V315.197Z" fill="#E7E7E7"/>
<path d="M268.409 218.211C263.356 218.211 259.118 222.449 259.118 227.339V303.949C259.118 310.143 264.171 315.196 270.365 315.196H277.374V227.339C277.537 222.449 273.462 218.211 268.409 218.211Z" fill="#E1E1E1"/>
<path d="M469.062 252.77L472.322 212.672C472.974 205.5 467.432 199.469 460.26 199.469H343.552C336.38 199.469 329.86 205.5 329.208 212.672L325.948 252.77C325.622 257.66 329.208 261.572 334.261 261.572H459.445C464.498 261.735 468.736 257.66 469.062 252.77Z" fill="#E1E1E1"/>
<path d="M452.762 252.77L456.022 212.672C456.674 205.5 451.132 199.469 443.96 199.469H327.252C320.08 199.469 313.56 205.5 312.908 212.672L309.648 252.77C309.322 257.66 312.908 261.572 317.961 261.572H443.145C448.198 261.735 452.436 257.66 452.762 252.77Z" fill="#F0F0F0"/>
<path d="M293.511 224.079C293.511 224.079 291.229 222.286 292.044 221.308C293.022 220.33 296.771 222.286 296.771 222.286C296.771 222.286 318.939 219.515 331.979 220.004C332.142 218.211 333.772 217.559 335.239 217.885C336.543 218.211 335.239 220.982 335.239 220.982C335.239 220.982 344.367 244.291 344.204 256.027C345.671 257.331 347.138 258.146 345.671 258.798C344.204 259.45 342.737 258.309 342.737 258.309C342.737 258.309 313.234 262.547 301.335 260.428C300.52 262.058 298.727 261.732 297.749 261.243C296.771 260.754 298.401 258.472 298.401 258.472C298.401 258.472 291.066 237.934 293.511 224.079Z" fill="white"/>
<path d="M475.093 315.197C480.146 315.197 484.221 310.959 484.221 306.069V227.503C484.221 222.45 479.983 218.375 475.093 218.375H431.735V315.36H475.093V315.197Z" fill="#E7E7E7"/>
<path d="M433.691 270.703V262.716C433.691 259.782 431.409 257.5 428.475 257.5H289.436C286.502 257.5 284.22 259.782 284.22 262.716V270.703C284.22 273.637 286.502 275.919 289.436 275.919H428.475C431.409 275.919 433.691 273.474 433.691 270.703Z" fill="#ECECEC"/>
<path d="M433.691 312.426V278.685C433.691 277.218 432.387 275.914 430.92 275.914H293.511C292.044 275.914 290.74 277.218 290.74 278.685V312.426C290.74 313.893 292.044 315.197 293.511 315.197H430.92C432.387 315.197 433.691 314.056 433.691 312.426Z" fill="#F0F0F0"/>
<path d="M431.571 218.211C426.518 218.211 422.443 222.449 422.443 227.339V315.196H440.699V227.339C440.862 222.449 436.624 218.211 431.571 218.211Z" fill="#E1E1E1"/>
<path d="M471.507 316.988H274.929C273.951 316.988 273.136 316.336 273.136 315.195H473.137C473.137 316.173 472.485 316.988 471.507 316.988Z" fill="#E1E1E1"/>
<path d="M435.485 74.2812H244.449V180.557H435.485V74.2812Z" fill="#E1E1E1"/>
<path d="M434.507 74.2812H234.017V180.557H434.507V74.2812Z" fill="#F5F5F5"/>
<path d="M431.246 77.7031H237.276V177.459H431.246V77.7031Z" fill="white"/>
<path d="M269.877 94.4922H332.306C368.981 94.4922 398.647 124.158 398.647 160.67H336.218C299.543 160.67 269.877 131.004 269.877 94.4922Z" fill="#F5F5F5"/>
<path d="M398.973 166.704H336.055C299.38 166.704 269.388 136.875 269.388 100.037V99.7109H332.306C368.981 99.7109 398.973 129.54 398.973 166.378V166.704ZM270.203 100.689C270.529 136.712 299.869 166.052 336.055 166.052H398.158C397.995 130.029 368.492 100.689 332.306 100.689H270.203Z" fill="white"/>
<path d="M398.973 155.289H336.055C299.38 155.289 269.388 125.46 269.388 88.6218V88.1328H332.306C368.981 88.1328 398.973 118.125 398.973 154.8V155.289ZM270.203 89.1108C270.529 125.297 299.869 154.474 336.055 154.474H398.158C397.995 118.451 368.492 89.1108 332.306 89.1108H270.203Z" fill="white"/>
<path d="M334.75 353.67C421.982 353.67 492.697 349.583 492.697 344.542C492.697 339.501 421.982 335.414 334.75 335.414C247.519 335.414 176.803 339.501 176.803 344.542C176.803 349.583 247.519 353.67 334.75 353.67Z" fill="#F5F5F5"/>
<path d="M483.406 290.588H226.355C223.584 290.588 221.302 288.306 221.302 285.535V118.623C221.302 115.852 223.584 113.57 226.355 113.57H483.406C486.177 113.57 488.459 115.852 488.459 118.623V285.535C488.459 288.469 486.177 290.588 483.406 290.588Z" fill="#1A2E35"/>
<path d="M390.822 338.994H330.838L320.406 233.859H380.553L390.822 338.994Z" fill="#1A2E35"/>
<path d="M389.192 338.994H329.208L318.776 233.859H378.923L389.192 338.994Z" fill="#0064B7"/>
<path d="M402.558 342.423H325.785L326.6 339H399.787C401.743 339 403.047 340.63 402.558 342.423Z" fill="#1A2E35"/>
<path d="M389.518 342.423H312.745C313.234 340.467 315.027 339 317.309 339H390.496L389.518 342.423Z" fill="#023EA1"/>
<path d="M396.038 339H388.377C386.584 339 385.117 340.793 385.606 342.423H396.853" fill="#1A2E35"/>
<path d="M378.923 233.859H318.776L324.97 295.636H384.954L378.923 233.859Z" fill="#023EA1"/>
<path d="M481.939 290.588H224.888C222.117 290.588 219.835 288.306 219.835 285.535V118.623C219.835 115.852 222.117 113.57 224.888 113.57H481.939C484.71 113.57 486.992 115.852 486.992 118.623V285.535C486.992 288.469 484.71 290.588 481.939 290.588Z" fill="#0064B7"/>
<path opacity="0.9" d="M353.332 283.251C355.942 283.251 358.059 281.135 358.059 278.524C358.059 275.913 355.942 273.797 353.332 273.797C350.721 273.797 348.605 275.913 348.605 278.524C348.605 281.135 350.721 283.251 353.332 283.251Z" fill="white"/>
<path d="M482.429 265.321H224.073C222.932 265.321 221.954 264.343 221.954 263.202V126.119C221.954 124.978 222.932 124 224.073 124H482.429C483.57 124 484.547 124.978 484.547 126.119V263.202C484.547 264.18 483.733 265.321 482.429 265.321Z" fill="white"/>
<path d="M460.986 129.914H245V259.061H460.986V129.914Z" fill="#DAE2F2"/>
<path d="M452.08 137.985H250.01V148.84H452.08V137.985Z" fill="#EAF0FE"/>
<path d="M329.668 154.351H252.848V253.215H329.668V154.351Z" fill="#EAF0FE"/>
<path d="M319.481 218.646H259.361V247.537H319.481V218.646Z" fill="white"/>
<path d="M319.481 162.033H259.361V166.208H319.481V162.033Z" fill="white"/>
<path d="M319.481 171.051H259.361V175.226H319.481V171.051Z" fill="white"/>
<path d="M319.481 182.073H259.361V186.248H319.481V182.073Z" fill="white"/>
<path d="M319.481 191.258H259.361V195.433H319.481V191.258Z" fill="white"/>
<path d="M451.745 154.351H351.211V159.194H451.745V154.351Z" fill="white"/>
<path d="M451.745 163.703H351.211V168.546H451.745V163.703Z" fill="white"/>
<path d="M451.745 174.559H351.211V179.402H451.745V174.559Z" fill="white"/>
<path d="M451.745 185.914H351.211V250.209H451.745V185.914Z" fill="#EAF0FE"/>
<path d="M445.565 193.262H359.894V222.153H445.565V193.262Z" fill="white"/>
<path d="M362.4 140.657H252.848V145.834H362.4V140.657Z" fill="white"/>
<path d="M447.904 140.657H404.484V145.834H447.904V140.657Z" fill="white"/>
<path d="M357.69 220.31C353.753 219.906 350.017 218.694 346.685 216.978C343.353 215.161 340.425 212.838 338.203 210.011C335.982 207.184 334.266 203.953 333.357 200.722C332.65 198.4 332.347 195.977 332.347 193.654H337.598L327.299 175.884L317 193.654H322.452C323.058 197.188 324.27 200.621 325.784 203.751C327.905 207.689 330.631 211.223 334.064 214.05C337.497 216.877 341.232 218.896 345.271 220.209C349.209 221.421 353.45 221.824 357.488 221.421C357.69 221.421 357.892 221.219 357.892 221.017C358.195 220.512 357.993 220.31 357.69 220.31Z" fill="#003EB0"/>
<path d="M384.245 195.875C383.639 192.341 382.427 188.908 380.812 185.778C378.692 181.84 375.864 178.306 372.633 175.479C369.302 172.652 365.465 170.633 361.426 169.32C357.488 168.108 353.248 167.604 349.209 168.108C349.007 168.108 348.805 168.31 348.805 168.512C348.805 168.714 348.906 169.017 349.209 169.017C353.147 169.421 356.882 170.633 360.214 172.349C363.546 174.167 366.373 176.59 368.696 179.316C370.917 182.143 372.633 185.374 373.643 188.605C374.249 190.927 374.653 193.351 374.653 195.673H369.402L379.701 213.443L390 195.673L384.245 195.875Z" fill="#003EB0"/>
<path d="M262.378 343.237H192.614C187.724 343.237 183.649 339.325 183.649 334.435V175.021C183.649 170.131 187.724 166.219 192.614 166.219H262.378C267.268 166.219 271.18 170.131 271.18 175.021V334.435C271.18 339.162 267.268 343.237 262.378 343.237Z" fill="#1A2E35"/>
<path d="M270.691 222.128H269.387C268.409 222.128 267.757 221.476 267.757 220.498V198.982C267.757 198.004 268.409 197.352 269.387 197.352H270.691C271.669 197.352 272.321 198.004 272.321 198.982V220.498C272.321 221.313 271.506 222.128 270.691 222.128Z" fill="#1A2E35"/>
<path d="M183.975 209.415H182.508C181.693 209.415 180.878 208.763 180.878 207.948V198.983C180.878 198.005 181.693 197.516 182.508 197.516H183.975C184.79 197.516 185.605 198.168 185.605 198.983V207.948C185.605 208.6 184.79 209.415 183.975 209.415Z" fill="#1A2E35"/>
<path d="M183.975 225.391H182.508C181.693 225.391 180.878 224.739 180.878 223.924V214.959C180.878 213.981 181.693 213.492 182.508 213.492H183.975C184.79 213.492 185.605 214.144 185.605 214.959V223.924C185.605 224.739 184.79 225.391 183.975 225.391Z" fill="#1A2E35"/>
<path d="M260.911 343.237H191.31C186.42 343.237 182.345 339.325 182.345 334.435V175.021C182.345 170.131 186.42 166.219 191.31 166.219H260.911C265.801 166.219 269.713 170.131 269.713 175.021V334.435C269.713 339.162 265.801 343.237 260.911 343.237Z" fill="#0064B7"/>
<path d="M266.453 333.128H185.768C184.627 333.128 183.649 332.15 183.649 331.009V178.767C183.649 177.626 184.627 176.648 185.768 176.648H266.453C267.594 176.648 268.572 177.626 268.572 178.767V331.009C268.409 332.15 267.594 333.128 266.453 333.128Z" fill="white"/>
<path d="M267.448 175.914H184.448C183.896 175.914 183.448 176.362 183.448 176.914V331.914C183.448 332.466 183.896 332.914 184.448 332.914H267.448C268 332.914 268.448 332.466 268.448 331.914V176.914C268.448 176.362 268 175.914 267.448 175.914Z" fill="#DAE2F2"/>
<path d="M264.448 195.861H188.458V206.716H264.448V195.861Z" fill="#EAF0FE"/>
<path d="M268.116 212.227H191.296V311.091H268.116V212.227Z" fill="#EAF0FE"/>
<path d="M257.929 276.521H197.809V305.412H257.929V276.521Z" fill="white"/>
<path d="M257.929 219.909H197.809V224.084H257.929V219.909Z" fill="white"/>
<path d="M257.929 228.927H197.809V233.102H257.929V228.927Z" fill="white"/>
<path d="M257.929 239.949H197.809V244.124H257.929V239.949Z" fill="white"/>
<path d="M257.929 249.134H197.809V253.309H257.929V249.134Z" fill="white"/>
<path d="M262.448 198.533H191.296V203.71H262.448V198.533Z" fill="white"/>
<path d="M227.573 261.167C225.645 260.974 223.909 260.396 222.27 259.528C220.631 258.66 219.281 257.503 218.22 256.153C217.16 254.804 216.292 253.261 215.81 251.622C215.521 250.561 215.328 249.308 215.328 248.151H217.931L213.014 239.569L208 248.151H210.7C210.989 249.886 211.567 251.525 212.339 253.068C213.303 254.996 214.749 256.732 216.388 257.985C218.028 259.335 219.86 260.299 221.788 260.974C223.716 261.649 225.741 261.746 227.669 261.553C227.766 261.553 227.862 261.456 227.862 261.36C227.862 261.264 227.669 261.264 227.573 261.167Z" fill="#003EB0"/>
<path d="M240.397 249.404C240.107 247.668 239.529 246.029 238.758 244.487C237.697 242.558 236.444 240.823 234.708 239.569C233.069 238.219 231.237 237.255 229.309 236.58C227.38 235.905 225.355 235.809 223.427 236.002C223.331 236.002 223.234 236.098 223.234 236.195C223.234 236.291 223.331 236.387 223.427 236.387C225.355 236.58 227.091 237.159 228.73 238.027C230.369 238.894 231.719 240.051 232.78 241.401C233.84 242.751 234.612 244.294 235.094 245.933C235.383 246.994 235.576 248.247 235.576 249.404H232.972L237.986 257.985L243 249.404H240.397Z" fill="#003EB0"/>
<path opacity="0.2" d="M217.716 170.289H234.505C234.994 170.289 235.483 170.778 235.483 171.43C235.483 171.919 234.994 172.571 234.342 172.571H217.553C217.064 172.571 216.412 172.082 216.412 171.43C216.575 170.778 217.064 170.289 217.716 170.289Z" fill="black"/>
<path d="M395.06 85.6891C394.897 85.6891 394.734 85.6891 394.408 85.5261C394.245 85.3631 394.245 85.2001 394.245 84.8741C394.245 84.7111 394.408 84.5481 394.408 84.3851C394.734 84.0591 395.223 84.0591 395.549 84.3851C395.712 84.5481 395.712 84.7111 395.712 84.8741C395.712 85.2001 395.549 85.3631 395.549 85.5261C395.386 85.6891 395.223 85.6891 395.06 85.6891Z" fill="#007CFF"/>
<path d="M199.298 158.227C199.298 157.738 199.624 157.412 200.113 157.412C200.602 157.412 200.928 157.738 200.928 158.227C200.928 158.716 200.602 159.042 200.113 159.042C199.624 159.205 199.298 158.879 199.298 158.227ZM199.298 154.967C199.298 154.478 199.624 154.152 200.113 154.152C200.602 154.152 200.928 154.478 200.928 154.967C200.928 155.456 200.602 155.782 200.113 155.782C199.624 155.945 199.298 155.619 199.298 154.967ZM199.298 151.707C199.298 151.218 199.624 150.892 200.113 150.892C200.602 150.892 200.928 151.218 200.928 151.707C200.928 152.196 200.602 152.522 200.113 152.522C199.624 152.685 199.298 152.359 199.298 151.707ZM199.298 148.447C199.298 147.958 199.624 147.632 200.113 147.632C200.602 147.632 200.928 147.958 200.928 148.447C200.928 148.936 200.602 149.262 200.113 149.262C199.624 149.425 199.298 148.936 199.298 148.447ZM199.298 145.187C199.298 144.698 199.624 144.372 200.113 144.372C200.602 144.372 200.928 144.698 200.928 145.187C200.928 145.676 200.602 146.002 200.113 146.002C199.624 146.165 199.298 145.676 199.298 145.187ZM199.298 141.927C199.298 141.438 199.624 141.112 200.113 141.112C200.602 141.112 200.928 141.438 200.928 141.927C200.928 142.416 200.602 142.742 200.113 142.742C199.624 142.742 199.298 142.416 199.298 141.927ZM199.298 138.667C199.298 138.178 199.624 137.852 200.113 137.852C200.602 137.852 200.928 138.178 200.928 138.667C200.928 139.156 200.602 139.482 200.113 139.482C199.624 139.482 199.298 139.156 199.298 138.667ZM199.298 135.407C199.298 134.918 199.624 134.592 200.113 134.592C200.602 134.592 200.928 134.918 200.928 135.407C200.928 135.896 200.602 136.222 200.113 136.222C199.624 136.222 199.298 135.896 199.298 135.407ZM199.298 132.147C199.298 131.658 199.624 131.332 200.113 131.332C200.602 131.332 200.928 131.658 200.928 132.147C200.928 132.636 200.602 132.962 200.113 132.962C199.624 132.962 199.298 132.636 199.298 132.147ZM199.298 128.887C199.298 128.398 199.624 128.072 200.113 128.072C200.602 128.072 200.928 128.398 200.928 128.887C200.928 129.376 200.602 129.702 200.113 129.702C199.624 129.702 199.298 129.376 199.298 128.887ZM199.298 125.627C199.298 125.138 199.624 124.812 200.113 124.812C200.602 124.812 200.928 125.138 200.928 125.627C200.928 126.116 200.602 126.442 200.113 126.442C199.624 126.442 199.298 126.116 199.298 125.627ZM199.298 122.367C199.298 121.878 199.624 121.552 200.113 121.552C200.602 121.552 200.928 121.878 200.928 122.367C200.928 122.856 200.602 123.182 200.113 123.182C199.624 123.182 199.298 122.856 199.298 122.367ZM199.298 119.107C199.298 118.618 199.624 118.292 200.113 118.292C200.602 118.292 200.928 118.618 200.928 119.107C200.928 119.596 200.602 119.922 200.113 119.922C199.624 119.922 199.298 119.596 199.298 119.107ZM199.298 115.847C199.298 115.358 199.624 115.032 200.113 115.032C200.602 115.032 200.928 115.358 200.928 115.847C200.928 116.336 200.602 116.662 200.113 116.662C199.624 116.662 199.298 116.173 199.298 115.847ZM199.298 112.587C199.298 112.098 199.624 111.772 200.113 111.772C200.602 111.772 200.928 112.098 200.928 112.587C200.928 113.076 200.602 113.402 200.113 113.402C199.624 113.402 199.298 112.913 199.298 112.587ZM199.298 109.164C199.298 108.675 199.624 108.349 200.113 108.349C200.602 108.349 200.928 108.675 200.928 109.164C200.928 109.653 200.602 109.979 200.113 109.979C199.624 109.979 199.298 109.653 199.298 109.164ZM199.298 105.904C199.298 105.415 199.624 105.089 200.113 105.089C200.602 105.089 200.928 105.415 200.928 105.904C200.928 106.393 200.602 106.719 200.113 106.719C199.624 106.719 199.298 106.393 199.298 105.904ZM199.298 102.644C199.298 102.155 199.624 101.829 200.113 101.829C200.602 101.829 200.928 102.155 200.928 102.644C200.928 103.133 200.602 103.459 200.113 103.459C199.624 103.459 199.298 103.133 199.298 102.644ZM200.113 100.199C199.624 100.199 199.298 99.8735 199.298 99.3845C199.298 98.8955 199.624 98.5695 200.113 98.5695C200.602 98.5695 200.928 98.8955 200.928 99.3845C200.928 99.8735 200.602 100.199 200.113 100.199ZM200.276 96.9395C199.95 96.9395 199.461 96.4505 199.787 95.9615C199.787 95.6355 200.276 95.1465 200.765 95.4725C201.091 95.4725 201.58 95.9615 201.254 96.4505C201.254 96.7765 200.928 97.1025 200.276 96.9395ZM201.254 93.8425C200.928 93.6795 200.765 93.1905 200.928 92.7015C201.091 92.3755 201.58 92.2125 202.069 92.3755C202.395 92.5385 202.558 93.0275 202.395 93.5165C202.232 93.8425 202.069 94.0055 201.58 94.0055C201.417 93.8425 201.417 93.8425 201.254 93.8425ZM202.884 90.9085C202.558 90.7455 202.558 90.0935 202.884 89.7675C203.21 89.4415 203.699 89.2785 204.025 89.7675C204.351 89.9305 204.351 90.5825 204.025 90.9085C203.862 91.0715 203.699 91.2345 203.373 91.2345C203.21 91.2345 203.047 91.0715 202.884 90.9085ZM205.166 88.6265C204.84 88.3005 204.84 87.8115 205.329 87.4855C205.655 87.3225 206.144 87.3225 206.47 87.6485C206.796 87.9745 206.796 88.4635 206.307 88.7895C206.144 88.7895 205.981 88.9525 205.818 88.9525C205.492 88.7895 205.166 88.7895 205.166 88.6265ZM207.774 86.6705C207.611 86.3445 207.774 85.8555 208.1 85.6925C208.426 85.5295 208.915 85.6925 209.241 86.0185C209.404 86.3445 209.241 86.8335 208.915 87.1595H208.589C208.1 87.1595 207.937 86.9965 207.774 86.6705ZM210.871 85.3665C210.871 84.8775 211.034 84.5515 211.523 84.3885C211.849 84.2255 212.338 84.5515 212.501 85.0405C212.501 85.5295 212.338 85.8555 211.849 86.0185C211.849 86.0185 211.849 86.0185 211.686 86.0185C211.197 86.0185 210.871 85.8555 210.871 85.3665ZM390.986 84.8775C390.986 84.3885 391.312 84.0625 391.801 84.0625C392.29 84.0625 392.616 84.3885 392.616 84.8775C392.616 85.3665 392.29 85.6925 391.801 85.6925C391.312 85.6925 390.986 85.3665 390.986 84.8775ZM387.726 84.8775C387.726 84.3885 388.052 84.0625 388.541 84.0625C389.03 84.0625 389.356 84.3885 389.356 84.8775C389.356 85.3665 389.03 85.6925 388.541 85.6925C388.052 85.6925 387.726 85.3665 387.726 84.8775ZM384.303 84.8775C384.303 84.3885 384.629 84.0625 385.118 84.0625C385.607 84.0625 385.933 84.3885 385.933 84.8775C385.933 85.3665 385.607 85.6925 385.118 85.6925C384.792 85.6925 384.303 85.3665 384.303 84.8775ZM381.043 84.8775C381.043 84.3885 381.369 84.0625 381.858 84.0625C382.347 84.0625 382.673 84.3885 382.673 84.8775C382.673 85.3665 382.347 85.6925 381.858 85.6925C381.532 85.6925 381.043 85.3665 381.043 84.8775ZM377.783 84.8775C377.783 84.3885 378.109 84.0625 378.598 84.0625C379.087 84.0625 379.413 84.3885 379.413 84.8775C379.413 85.3665 379.087 85.6925 378.598 85.6925C378.109 85.6925 377.783 85.3665 377.783 84.8775ZM374.523 84.8775C374.523 84.3885 374.849 84.0625 375.338 84.0625C375.827 84.0625 376.153 84.3885 376.153 84.8775C376.153 85.3665 375.827 85.6925 375.338 85.6925C374.849 85.6925 374.523 85.3665 374.523 84.8775ZM371.263 84.8775C371.263 84.3885 371.589 84.0625 372.078 84.0625C372.567 84.0625 372.893 84.3885 372.893 84.8775C372.893 85.3665 372.567 85.6925 372.078 85.6925C371.589 85.6925 371.263 85.3665 371.263 84.8775ZM368.003 84.8775C368.003 84.3885 368.329 84.0625 368.818 84.0625C369.307 84.0625 369.633 84.3885 369.633 84.8775C369.633 85.3665 369.307 85.6925 368.818 85.6925C368.329 85.6925 368.003 85.3665 368.003 84.8775ZM364.743 84.8775C364.743 84.3885 365.069 84.0625 365.558 84.0625C366.047 84.0625 366.373 84.3885 366.373 84.8775C366.373 85.3665 366.047 85.6925 365.558 85.6925C365.069 85.6925 364.743 85.3665 364.743 84.8775ZM361.483 84.8775C361.483 84.3885 361.809 84.0625 362.298 84.0625C362.787 84.0625 363.113 84.3885 363.113 84.8775C363.113 85.3665 362.787 85.6925 362.298 85.6925C361.809 85.6925 361.483 85.3665 361.483 84.8775ZM358.223 84.8775C358.223 84.3885 358.549 84.0625 359.038 84.0625C359.527 84.0625 359.853 84.3885 359.853 84.8775C359.853 85.3665 359.527 85.6925 359.038 85.6925C358.549 85.6925 358.223 85.3665 358.223 84.8775ZM354.963 84.8775C354.963 84.3885 355.289 84.0625 355.778 84.0625C356.267 84.0625 356.593 84.3885 356.593 84.8775C356.593 85.3665 356.267 85.6925 355.778 85.6925C355.289 85.6925 354.963 85.3665 354.963 84.8775ZM351.703 84.8775C351.703 84.3885 352.029 84.0625 352.518 84.0625C353.007 84.0625 353.333 84.3885 353.333 84.8775C353.333 85.3665 353.007 85.6925 352.518 85.6925C352.029 85.6925 351.703 85.3665 351.703 84.8775ZM348.443 84.8775C348.443 84.3885 348.769 84.0625 349.258 84.0625C349.747 84.0625 350.073 84.3885 350.073 84.8775C350.073 85.3665 349.747 85.6925 349.258 85.6925C348.769 85.6925 348.443 85.3665 348.443 84.8775ZM345.183 84.8775C345.183 84.3885 345.509 84.0625 345.998 84.0625C346.487 84.0625 346.813 84.3885 346.813 84.8775C346.813 85.3665 346.487 85.6925 345.998 85.6925C345.509 85.6925 345.183 85.3665 345.183 84.8775ZM341.923 84.8775C341.923 84.3885 342.249 84.0625 342.738 84.0625C343.227 84.0625 343.553 84.3885 343.553 84.8775C343.553 85.3665 343.227 85.6925 342.738 85.6925C342.249 85.6925 341.923 85.3665 341.923 84.8775ZM338.5 84.8775C338.5 84.3885 338.826 84.0625 339.315 84.0625C339.804 84.0625 340.13 84.3885 340.13 84.8775C340.13 85.3665 339.804 85.6925 339.315 85.6925C338.989 85.6925 338.5 85.3665 338.5 84.8775ZM335.24 84.8775C335.24 84.3885 335.566 84.0625 336.055 84.0625C336.544 84.0625 336.87 84.3885 336.87 84.8775C336.87 85.3665 336.544 85.6925 336.055 85.6925C335.729 85.6925 335.24 85.3665 335.24 84.8775ZM331.98 84.8775C331.98 84.3885 332.306 84.0625 332.795 84.0625C333.284 84.0625 333.61 84.3885 333.61 84.8775C333.61 85.3665 333.284 85.6925 332.795 85.6925C332.469 85.6925 331.98 85.3665 331.98 84.8775ZM328.72 84.8775C328.72 84.3885 329.046 84.0625 329.535 84.0625C330.024 84.0625 330.35 84.3885 330.35 84.8775C330.35 85.3665 330.024 85.6925 329.535 85.6925C329.046 85.6925 328.72 85.3665 328.72 84.8775ZM325.46 84.8775C325.46 84.3885 325.786 84.0625 326.275 84.0625C326.764 84.0625 327.09 84.3885 327.09 84.8775C327.09 85.3665 326.764 85.6925 326.275 85.6925C325.786 85.6925 325.46 85.3665 325.46 84.8775ZM322.037 84.8775C322.037 84.3885 322.363 84.0625 322.852 84.0625C323.341 84.0625 323.667 84.3885 323.667 84.8775C323.667 85.3665 323.341 85.6925 322.852 85.6925C322.526 85.6925 322.037 85.3665 322.037 84.8775ZM318.777 84.8775C318.777 84.3885 319.103 84.0625 319.592 84.0625C320.081 84.0625 320.407 84.3885 320.407 84.8775C320.407 85.3665 320.081 85.6925 319.592 85.6925C319.266 85.6925 318.777 85.3665 318.777 84.8775ZM315.517 84.8775C315.517 84.3885 315.843 84.0625 316.332 84.0625C316.821 84.0625 317.147 84.3885 317.147 84.8775C317.147 85.3665 316.821 85.6925 316.332 85.6925C316.006 85.6925 315.517 85.3665 315.517 84.8775ZM312.257 84.8775C312.257 84.3885 312.583 84.0625 313.072 84.0625C313.561 84.0625 313.887 84.3885 313.887 84.8775C313.887 85.3665 313.561 85.6925 313.072 85.6925C312.583 85.6925 312.257 85.3665 312.257 84.8775ZM308.997 84.8775C308.997 84.3885 309.323 84.0625 309.812 84.0625C310.301 84.0625 310.627 84.3885 310.627 84.8775C310.627 85.3665 310.301 85.6925 309.812 85.6925C309.323 85.6925 308.997 85.3665 308.997 84.8775ZM305.737 84.8775C305.737 84.3885 306.063 84.0625 306.552 84.0625C307.041 84.0625 307.367 84.3885 307.367 84.8775C307.367 85.3665 307.041 85.6925 306.552 85.6925C306.063 85.6925 305.737 85.3665 305.737 84.8775ZM302.477 84.8775C302.477 84.3885 302.803 84.0625 303.292 84.0625C303.781 84.0625 304.107 84.3885 304.107 84.8775C304.107 85.3665 303.781 85.6925 303.292 85.6925C302.803 85.6925 302.477 85.3665 302.477 84.8775ZM299.217 84.8775C299.217 84.3885 299.543 84.0625 300.032 84.0625C300.521 84.0625 300.847 84.3885 300.847 84.8775C300.847 85.3665 300.521 85.6925 300.032 85.6925C299.543 85.6925 299.217 85.3665 299.217 84.8775ZM295.957 84.8775C295.957 84.3885 296.283 84.0625 296.772 84.0625C297.261 84.0625 297.587 84.3885 297.587 84.8775C297.587 85.3665 297.261 85.6925 296.772 85.6925C296.283 85.6925 295.957 85.3665 295.957 84.8775ZM292.697 84.8775C292.697 84.3885 293.023 84.0625 293.512 84.0625C294.001 84.0625 294.327 84.3885 294.327 84.8775C294.327 85.3665 294.001 85.6925 293.512 85.6925C293.023 85.6925 292.697 85.3665 292.697 84.8775ZM289.437 84.8775C289.437 84.3885 289.763 84.0625 290.252 84.0625C290.741 84.0625 291.067 84.3885 291.067 84.8775C291.067 85.3665 290.741 85.6925 290.252 85.6925C289.763 85.6925 289.437 85.3665 289.437 84.8775ZM286.177 84.8775C286.177 84.3885 286.503 84.0625 286.992 84.0625C287.481 84.0625 287.807 84.3885 287.807 84.8775C287.807 85.3665 287.481 85.6925 286.992 85.6925C286.503 85.6925 286.177 85.3665 286.177 84.8775ZM282.917 84.8775C282.917 84.3885 283.243 84.0625 283.732 84.0625C284.221 84.0625 284.547 84.3885 284.547 84.8775C284.547 85.3665 284.221 85.6925 283.732 85.6925C283.08 85.6925 282.917 85.3665 282.917 84.8775ZM279.657 84.8775C279.657 84.3885 279.983 84.0625 280.472 84.0625C280.961 84.0625 281.287 84.3885 281.287 84.8775C281.287 85.3665 280.961 85.6925 280.472 85.6925C279.82 85.6925 279.657 85.3665 279.657 84.8775ZM276.397 84.8775C276.397 84.3885 276.723 84.0625 277.212 84.0625C277.701 84.0625 278.027 84.3885 278.027 84.8775C278.027 85.3665 277.701 85.6925 277.212 85.6925C276.56 85.6925 276.397 85.3665 276.397 84.8775ZM272.974 84.8775C272.974 84.3885 273.3 84.0625 273.789 84.0625C274.278 84.0625 274.604 84.3885 274.604 84.8775C274.604 85.3665 274.278 85.6925 273.789 85.6925C273.3 85.6925 272.974 85.3665 272.974 84.8775ZM269.714 84.8775C269.714 84.3885 270.04 84.0625 270.529 84.0625C271.018 84.0625 271.344 84.3885 271.344 84.8775C271.344 85.3665 271.018 85.6925 270.529 85.6925C270.04 85.6925 269.714 85.3665 269.714 84.8775ZM266.454 84.8775C266.454 84.3885 266.78 84.0625 267.269 84.0625C267.758 84.0625 268.084 84.3885 268.084 84.8775C268.084 85.3665 267.758 85.6925 267.269 85.6925C266.78 85.6925 266.454 85.3665 266.454 84.8775ZM263.194 84.8775C263.194 84.3885 263.52 84.0625 264.009 84.0625C264.498 84.0625 264.824 84.3885 264.824 84.8775C264.824 85.3665 264.498 85.6925 264.009 85.6925C263.52 85.6925 263.194 85.3665 263.194 84.8775ZM259.934 84.8775C259.934 84.3885 260.26 84.0625 260.749 84.0625C261.238 84.0625 261.564 84.3885 261.564 84.8775C261.564 85.3665 261.238 85.6925 260.749 85.6925C260.26 85.6925 259.934 85.3665 259.934 84.8775ZM256.674 84.8775C256.674 84.3885 257 84.0625 257.489 84.0625C257.978 84.0625 258.304 84.3885 258.304 84.8775C258.304 85.3665 257.978 85.6925 257.489 85.6925C257 85.6925 256.674 85.3665 256.674 84.8775ZM253.414 84.8775C253.414 84.3885 253.74 84.0625 254.229 84.0625C254.718 84.0625 255.044 84.3885 255.044 84.8775C255.044 85.3665 254.718 85.6925 254.229 85.6925C253.74 85.6925 253.414 85.3665 253.414 84.8775ZM250.154 84.8775C250.154 84.3885 250.48 84.0625 250.969 84.0625C251.458 84.0625 251.784 84.3885 251.784 84.8775C251.784 85.3665 251.458 85.6925 250.969 85.6925C250.317 85.6925 250.154 85.3665 250.154 84.8775ZM246.894 84.8775C246.894 84.3885 247.22 84.0625 247.709 84.0625C248.198 84.0625 248.524 84.3885 248.524 84.8775C248.524 85.3665 248.198 85.6925 247.709 85.6925C247.057 85.6925 246.894 85.3665 246.894 84.8775ZM243.634 84.8775C243.634 84.3885 243.96 84.0625 244.449 84.0625C244.938 84.0625 245.264 84.3885 245.264 84.8775C245.264 85.3665 244.938 85.6925 244.449 85.6925C243.797 85.6925 243.634 85.3665 243.634 84.8775ZM240.211 84.8775C240.211 84.3885 240.537 84.0625 241.026 84.0625C241.515 84.0625 241.841 84.3885 241.841 84.8775C241.841 85.3665 241.515 85.6925 241.026 85.6925C240.537 85.6925 240.211 85.3665 240.211 84.8775ZM236.951 84.8775C236.951 84.3885 237.277 84.0625 237.766 84.0625C238.255 84.0625 238.581 84.3885 238.581 84.8775C238.581 85.3665 238.255 85.6925 237.766 85.6925C237.277 85.6925 236.951 85.3665 236.951 84.8775ZM233.691 84.8775C233.691 84.3885 234.017 84.0625 234.506 84.0625C234.995 84.0625 235.321 84.3885 235.321 84.8775C235.321 85.3665 234.995 85.6925 234.506 85.6925C234.017 85.6925 233.691 85.3665 233.691 84.8775ZM230.431 84.8775C230.431 84.3885 230.757 84.0625 231.246 84.0625C231.735 84.0625 232.061 84.3885 232.061 84.8775C232.061 85.3665 231.735 85.6925 231.246 85.6925C230.757 85.6925 230.431 85.3665 230.431 84.8775ZM227.171 84.8775C227.171 84.3885 227.497 84.0625 227.986 84.0625C228.475 84.0625 228.801 84.3885 228.801 84.8775C228.801 85.3665 228.475 85.6925 227.986 85.6925C227.497 85.6925 227.171 85.3665 227.171 84.8775ZM223.911 84.8775C223.911 84.3885 224.237 84.0625 224.726 84.0625C225.215 84.0625 225.541 84.3885 225.541 84.8775C225.541 85.3665 225.215 85.6925 224.726 85.6925C224.237 85.6925 223.911 85.3665 223.911 84.8775ZM220.651 84.8775C220.651 84.3885 220.977 84.0625 221.466 84.0625C221.955 84.0625 222.281 84.3885 222.281 84.8775C222.281 85.3665 221.955 85.6925 221.466 85.6925C220.977 85.6925 220.651 85.3665 220.651 84.8775ZM217.391 84.8775C217.391 84.3885 217.717 84.0625 218.206 84.0625C218.695 84.0625 219.021 84.3885 219.021 84.8775C219.021 85.3665 218.695 85.6925 218.206 85.6925C217.717 85.6925 217.391 85.3665 217.391 84.8775ZM214.131 84.8775C214.131 84.3885 214.457 84.0625 214.946 84.0625C215.435 84.0625 215.761 84.3885 215.761 84.8775C215.761 85.3665 215.435 85.6925 214.946 85.6925C214.457 85.6925 214.131 85.3665 214.131 84.8775Z" fill="#007CFF"/>
<path d="M200.113 162.463C199.787 162.463 199.787 162.3 199.624 162.137C199.461 161.974 199.298 161.811 199.298 161.648C199.298 161.485 199.298 161.322 199.624 161.159C199.95 160.833 200.439 160.833 200.765 161.159C200.928 161.322 201.091 161.485 201.091 161.648C201.091 161.811 201.091 161.974 200.765 162.137C200.439 162.3 200.276 162.463 200.113 162.463Z" fill="#007CFF"/>
<path d="M428.963 110.306C428.8 110.306 428.637 110.143 428.311 109.98C427.985 109.817 428.148 109.654 428.148 109.491C428.148 109.328 428.311 109.165 428.311 109.002C428.637 108.676 429.126 108.676 429.452 109.002C429.615 109.165 429.615 109.328 429.615 109.491C429.615 109.654 429.452 109.817 429.452 109.98C429.452 110.143 429.126 110.306 428.963 110.306Z" fill="#007CFF"/>
<path d="M428.148 106.396C428.148 105.907 428.474 105.581 428.963 105.581C429.452 105.581 429.778 105.907 429.778 106.396C429.778 106.885 429.452 107.211 428.963 107.211C428.474 107.211 428.148 106.885 428.148 106.396ZM428.148 103.299C428.148 102.81 428.474 102.484 428.963 102.484C429.452 102.484 429.778 102.81 429.778 103.299C429.778 103.788 429.452 104.114 428.963 104.114C428.474 104.114 428.148 103.788 428.148 103.299Z" fill="#007CFF"/>
<path d="M428.963 101.017C428.8 101.017 428.637 101.017 428.311 100.691C428.148 100.528 428.148 100.365 428.148 100.202C428.148 99.8762 428.311 99.8763 428.311 99.7133C428.637 99.3873 429.126 99.3873 429.452 99.7133C429.615 99.8763 429.615 100.039 429.615 100.202C429.615 100.528 429.452 100.528 429.452 100.691C429.452 100.854 429.126 101.017 428.963 101.017Z" fill="#007CFF"/>
<path d="M472.567 181.295C474.478 184.351 476.006 187.599 477.725 190.655C479.444 193.903 480.782 196.959 482.119 200.398C482.501 201.162 482.883 202.117 483.074 203.072L483.265 203.836L483.456 204.219L483.647 204.601L483.838 204.983C484.029 205.556 484.029 206.129 483.838 207.084C483.647 207.848 483.074 208.994 482.31 209.376C481.546 209.949 480.973 210.14 480.399 210.332C479.826 210.523 479.444 210.523 479.062 210.714C478.298 210.905 477.725 210.714 477.152 210.523C476.197 210.331 475.051 210.14 474.095 209.949C470.657 208.803 467.218 207.466 464.162 205.747L465.499 202.308C468.747 203.072 472.185 203.645 475.433 204.219C476.197 204.41 476.961 204.41 477.534 204.41C477.916 204.41 478.298 204.41 478.298 204.219C478.489 204.219 478.489 204.028 478.298 204.219C478.107 204.219 477.916 204.41 477.534 204.601C477.152 204.983 476.77 205.365 476.77 205.938C476.579 206.32 476.77 206.702 476.77 206.702C476.77 206.702 476.77 206.702 476.77 206.893V206.702L476.579 206.32L476.388 205.747C476.197 204.983 475.624 204.219 475.433 203.645C474.095 200.589 472.376 197.532 470.848 194.667C469.32 191.802 467.6 188.554 465.881 185.689L472.567 181.295Z" fill="#FFBE9B"/>
<path d="M470.658 177.669C475.433 178.815 483.457 202.12 483.457 202.12L475.815 204.795C475.815 204.795 467.983 193.142 465.309 187.411C462.252 181.298 465.882 176.331 470.658 177.669Z" fill="#0054A3"/>
<path opacity="0.3" d="M470.658 177.669C475.433 178.815 483.457 202.12 483.457 202.12L475.815 204.795C475.815 204.795 467.983 193.142 465.309 187.411C462.252 181.298 465.882 176.331 470.658 177.669Z" fill="#0054A3"/>
<path d="M475.051 203.078C476.579 202.505 480.017 201.168 482.692 200.977C483.074 200.786 483.456 201.168 483.647 201.55C484.22 202.887 484.602 204.988 484.22 205.943C483.647 206.899 476.579 208.045 475.624 207.854C474.86 207.472 474.478 205.752 474.095 204.415C474.286 203.842 474.478 203.269 475.051 203.078Z" fill="#0054A3"/>
<path d="M449.834 168.116C451.363 171.936 452.127 177.476 445.823 179.196C445.823 179.196 439.901 183.589 451.554 182.443C462.06 181.297 463.207 176.139 463.207 176.139C459.004 173.083 460.341 166.206 459.959 160.475L449.834 168.116Z" fill="#FFBE9B"/>
<path d="M440.474 146.911C434.552 151.686 437.035 161.62 440.856 166.969C445.25 172.891 455.183 172.891 458.622 166.205C461.105 161.811 459.577 157.799 457.475 151.304C455.565 144.809 446.587 142.135 440.474 146.911Z" fill="#FFBE9B"/>
<path d="M463.207 149.201C465.881 153.977 463.207 160.281 462.634 162.191C462.252 164.101 464.162 163.528 463.589 166.012C463.016 168.495 457.476 168.877 454.419 168.304C448.688 167.54 446.587 161.427 445.632 157.988C438.755 161.427 441.238 151.684 441.238 151.684C441.238 151.684 436.654 153.404 433.788 151.493C430.732 149.774 432.26 145.38 437.036 143.661C437.609 141.369 441.811 139.458 446.969 138.503C459.577 134.874 463.016 149.201 463.207 149.201Z" fill="#180857"/>
<path d="M444.676 155.506C442.766 156.27 444.103 159.9 444.485 161.619C444.867 163.529 445.44 163.529 446.778 161.81C447.733 160.855 448.306 159.326 448.306 157.607C448.497 155.888 446.587 154.742 444.676 155.506Z" fill="#FFBE9B"/>
<path d="M447.543 183.207C447.543 183.207 447.734 180.151 446.206 177.094C451.173 173.464 460.724 173.082 462.252 173.655C463.781 174.229 463.781 177.476 463.59 179.386L447.543 183.207Z" fill="#0054A3"/>
<path opacity="0.2" d="M465.5 191.993C468.556 195.814 471.23 198.68 471.23 198.68L471.803 198.297L465.117 185.689L465.5 191.993Z" fill="black"/>
<path d="M436.081 196.19C435.317 183.2 437.8 180.335 437.8 180.335C437.8 180.335 442.194 178.616 447.352 177.851C450.981 177.087 457.285 176.705 461.488 176.514C463.207 176.323 465.118 176.323 466.646 176.323C469.893 176.323 472.377 178.807 472.186 181.481C470.466 201.539 474.669 220.451 474.86 224.654L441.239 227.71C439.328 218.35 437.609 210.709 436.654 204.596C436.654 201.348 436.463 198.483 436.081 196.19Z" fill="#0083F9"/>
<path opacity="0.6" d="M436.081 196.19C435.317 183.2 437.8 180.335 437.8 180.335C437.8 180.335 442.194 178.616 447.352 177.851C450.981 177.087 457.285 176.705 461.488 176.514C463.207 176.323 465.118 176.323 466.646 176.323C469.893 176.323 472.377 178.807 472.186 181.481C470.466 201.539 474.669 220.451 474.86 224.654L441.239 227.71C439.328 218.35 437.609 210.709 436.654 204.596C436.654 201.348 436.463 198.483 436.081 196.19Z" fill="#0083F9"/>
<path d="M475.052 224.85C480.209 241.278 475.243 267.449 478.299 288.463C483.075 302.408 489.952 338.704 494.919 358.189L483.648 360.29C483.648 360.29 462.252 303.745 459.387 286.17C456.713 270.315 453.274 226.76 453.274 226.76L475.052 224.85Z" fill="#FFC727"/>
<path opacity="0.2" d="M459.386 284.257C457.857 274.323 456.138 256.939 454.992 243.949C455.374 243.949 455.756 243.949 456.138 243.949C463.97 245.477 461.487 269.738 459.386 284.257Z" fill="black"/>
<path d="M463.971 225.994C463.971 225.994 456.712 271.65 453.464 289.416C454.801 312.913 448.879 361.052 448.879 361.052L438.182 360.67C438.182 360.67 435.507 308.519 436.462 290.944C437.418 274.134 441.811 227.904 441.811 227.904L463.971 225.994Z" fill="#FFC727"/>
<path d="M482.693 360.859C480.974 363.151 476.198 366.016 469.894 368.882C468.366 369.455 469.512 372.893 473.141 372.129C476.58 371.365 484.603 369.455 487.278 369.073C491.671 368.309 494.155 367.927 497.593 367.354H497.784C498.548 366.972 498.93 366.207 498.548 365.634L495.492 358.375C495.301 357.802 495.11 357.611 494.728 357.802L484.412 359.903C483.648 360.286 483.075 360.668 482.693 360.859Z" fill="#170856"/>
<path d="M436.654 361.243C434.362 363.153 429.204 364.873 422.327 366.019C420.607 366.21 421.18 369.839 424.619 370.03C428.058 370.221 436.463 370.221 439.137 370.412C443.531 370.604 446.014 370.795 449.453 370.986H449.644C450.408 370.795 450.79 370.221 450.79 369.457L449.453 361.816C449.453 361.243 449.262 361.052 448.88 361.052L438.373 360.67C437.8 360.67 437.227 360.861 436.654 361.243Z" fill="#170856"/>
<path d="M424.237 186.642L420.99 187.979L422.709 192.755L425.574 191.226L424.237 186.642Z" fill="#FFC3BD"/>
<path d="M425.956 202.307L438.755 200.97C439.519 200.779 439.71 200.206 439.71 199.633L434.934 179.193C434.743 178.62 434.17 178.047 433.406 178.238L420.607 179.575C419.843 179.766 419.652 180.339 419.652 180.912L424.427 201.352C424.618 202.116 425.191 202.307 425.956 202.307Z" fill="#1A2E35"/>
<path d="M426.147 202.307L438.946 200.97C439.71 200.779 439.901 200.206 439.901 199.633L435.125 179.193C434.934 178.62 434.361 178.047 433.597 178.238L420.798 179.575C420.034 179.766 419.843 180.339 419.843 180.912L424.619 201.352C424.81 202.116 425.383 202.307 426.147 202.307Z" fill="#007CFF"/>
<path opacity="0.9" d="M425.001 201.167L439.137 199.638C439.328 199.638 439.328 199.447 439.328 199.256L434.935 179.58C434.935 179.389 434.744 179.198 434.553 179.198L420.416 180.726C420.225 180.726 420.225 180.918 420.225 181.109L424.619 200.785C424.81 201.167 424.81 201.167 425.001 201.167Z" fill="white"/>
<path d="M430.922 192.562C430.54 192.562 430.158 192.37 429.585 192.179C429.012 191.988 428.821 191.797 428.63 191.415C428.247 191.033 427.865 190.842 427.865 190.46C427.674 190.078 427.674 189.887 427.674 189.696L428.438 189.505L426.91 187.595L426.146 189.696L426.91 189.505C427.101 189.887 427.292 190.269 427.674 190.46C428.056 190.651 428.438 191.224 428.63 191.415C429.012 191.797 429.394 191.797 429.967 191.988C429.967 192.562 430.349 192.562 430.922 192.562C430.922 192.753 430.922 192.753 430.922 192.562Z" fill="#007CFF"/>
<path d="M433.024 189.699C432.833 189.317 432.642 188.935 432.26 188.744C431.878 188.553 431.496 187.98 431.305 187.789C431.114 187.598 430.54 187.407 429.967 187.216C429.585 187.025 429.012 187.025 428.63 187.216C428.63 187.216 428.63 187.216 428.63 187.407C428.63 187.407 428.63 187.598 428.821 187.598C429.203 187.598 429.585 187.789 430.158 187.98C430.731 188.171 430.922 188.362 431.114 188.744C431.305 189.126 431.878 189.317 431.878 189.699C432.069 190.081 432.069 190.272 432.069 190.463L431.305 190.654L432.833 192.564L433.597 190.463L433.024 189.699Z" fill="#007CFF"/>
<g opacity="0.3">
<path d="M423.663 180.532L422.326 191.23L424.427 200.782C424.427 200.973 424.618 201.164 424.809 201.164L426.338 200.973L428.63 180.15L423.663 180.532Z" fill="white"/>
<path d="M430.349 179.957L427.866 200.97L430.922 200.588L433.405 179.766L430.349 179.957Z" fill="white"/>
</g>
<path opacity="0.2" d="M428.438 179.382L426.337 179.764C426.146 179.764 426.146 179.955 426.146 179.955C426.146 180.146 426.337 180.146 426.337 180.146L428.438 179.764C428.63 179.764 428.63 179.573 428.438 179.382C428.821 179.382 428.63 179.382 428.438 179.382Z" fill="black"/>
<path d="M444.868 187.789C443.913 190.082 442.767 192.565 441.621 194.666C440.475 196.768 439.329 199.251 437.8 201.161C436.272 203.263 434.744 205.555 432.834 207.465C431.878 208.421 430.923 209.567 429.586 210.522C428.249 211.477 426.912 212.432 424.619 212.623L423.664 212.814L422.709 212.432C421.945 212.05 421.372 211.668 420.799 211.095C420.226 210.522 420.035 209.949 419.843 209.376C419.27 208.23 419.079 207.274 419.079 206.319C418.888 204.409 419.079 203.072 419.27 201.544C419.461 200.206 420.035 198.678 420.226 197.341C420.417 196.004 420.99 194.666 421.754 193.329L425.192 194.284C425.001 195.622 425.001 196.959 425.001 198.105C424.81 199.442 424.81 200.588 424.81 201.735C424.81 202.881 425.001 204.027 425.192 204.982C425.383 205.364 425.383 205.746 425.574 205.937C425.765 206.128 425.765 205.746 425.383 205.555L423.282 205.173C423.664 204.982 424.237 204.791 425.001 204.218C425.765 203.454 426.53 202.881 427.103 202.117C428.44 200.397 429.777 198.678 430.923 196.577C432.069 194.475 433.216 192.565 434.362 190.273C435.317 188.171 436.463 185.879 437.609 183.969L444.868 187.789Z" fill="#FFBE9B"/>
<path d="M444.677 185.684C447.925 191.988 433.024 208.99 433.024 208.99L427.867 200.394C427.867 200.394 432.642 192.752 434.362 187.021C437.227 179.953 442.385 181.291 444.677 185.684Z" fill="#0054A3"/>
<path opacity="0.3" d="M444.677 185.684C447.925 191.988 433.024 208.99 433.024 208.99L427.867 200.394C427.867 200.394 432.642 192.752 434.362 187.021C437.227 179.953 442.385 181.291 444.677 185.684Z" fill="#0054A3"/>
<path d="M428.631 199.824C429.968 201.352 433.597 205.746 434.744 207.847C434.935 208.038 434.935 208.229 434.553 208.611C433.788 209.566 431.496 211.477 430.541 211.477C429.395 211.477 424.046 205.364 424.237 204.408C424.428 203.644 426.529 201.161 427.484 200.015C427.866 199.633 428.44 199.633 428.631 199.824Z" fill="#0054A3"/>
<path d="M425.193 195.427L425.384 194.472C425.766 193.135 425.384 191.607 424.429 190.843L420.99 187.786C420.99 187.786 419.462 194.09 422.327 196.574L425.193 195.427Z" fill="#FFBE9B"/>
<path d="M422.9 190.656L423.664 190.083L423.473 188.173L424.237 187.026L425.001 188.364L425.765 190.274C425.957 190.656 425.956 191.038 425.956 191.42L425.765 193.521L422.9 190.656Z" fill="#FFBE9B"/>
</svg>
