<svg width="159" height="113" viewBox="0 0 159 113" fill="none" xmlns="http://www.w3.org/2000/svg">
<path d="M97.5504 29.5668C64.7128 30.6948 58.0041 55.9493 58.7569 68.4468C69.6085 49.8941 95.8744 50.3128 97.5553 50.359C97.6038 50.3604 97.6399 50.4001 97.6399 50.4487V63.4889C97.6399 63.65 97.8347 63.7307 97.9486 63.6167L121.475 40.0906C121.545 40.02 121.545 39.9055 121.475 39.8349L97.9486 16.3087C97.8347 16.1948 97.6399 16.2755 97.6399 16.4366V29.4763C97.6399 29.5251 97.5992 29.5652 97.5504 29.5668Z" stroke="black" stroke-width="3.61702" stroke-linecap="round"/>
<path d="M66.3883 26.8511H41.5213C39.0242 26.8511 37 28.8753 37 31.3724V91.9575C37 94.4545 39.0242 96.4787 41.5213 96.4787H117.479C119.976 96.4787 122 94.4545 122 91.9575V56.2394" stroke="black" stroke-width="2.71277" stroke-linecap="round"/>
</svg>
