<svg width="315" height="286" viewBox="0 0 315 286" fill="none" xmlns="http://www.w3.org/2000/svg">
<g clip-path="url(#clip0_137_11345)">
<path d="M120.98 5.21351C120.98 5.21351 115.847 9.24642 120.687 11.0543C125.673 12.8621 127.58 15.0872 125.086 19.5373C122.3 23.9874 123.18 27.4641 125.673 29.1329C128.46 30.8017 133.593 33.3049 129.486 39.0066C125.38 44.8473 118.633 56.5289 111.447 53.3304C104.114 50.1319 100.594 38.7284 103.527 34.2783C106.461 29.8282 111.3 28.5766 108.807 23.4312C106.607 18.2857 101.474 20.7889 101.327 14.8091C101.181 8.69016 100.301 2.43218 109.247 0.485258C116.873 -1.3226 123.033 2.29312 120.98 5.21351Z" stroke="#1C4599" stroke-width="1.48022" stroke-miterlimit="10"/>
<path d="M113.939 9.10449C113.939 9.10449 114.819 47.6258 117.165 57.2214" stroke="#1C4599" stroke-width="1.48022" stroke-miterlimit="10"/>
<path d="M123.032 33.4419L115.259 40.3952L107.486 36.3623" stroke="#1C4599" stroke-width="1.48022" stroke-miterlimit="10"/>
<path d="M120.833 15.5005L114.526 19.8115L107.34 17.1693" stroke="#1C4599" stroke-width="1.48022" stroke-miterlimit="10"/>
<path d="M138.14 5.62721C138.14 5.62721 150.459 9.24293 147.086 14.5274C143.42 19.6729 145.473 21.8979 147.966 23.8449C150.166 25.7918 155.886 28.0169 151.632 33.3014C147.379 38.5859 143.126 39.6984 143.42 43.3141C143.713 46.9298 139.753 61.5318 134.033 58.1942C128.167 54.9957 127.727 46.2345 128.607 42.3407C129.487 38.7249 125.82 34.553 122.447 31.7716C119.074 29.1294 117.167 23.8449 122.3 22.1761C127.58 20.3682 130.073 15.2228 128.46 11.6071C126.114 8.26947 129.78 3.40215 138.14 5.62721Z" fill="#FABD41"/>
<path d="M136.965 13.5566L130.806 62.9251" stroke="white" stroke-width="1.48022" stroke-miterlimit="10" stroke-linecap="round" stroke-linejoin="round"/>
<path d="M145.618 28.7168L134.325 33.5841L124.646 25.7964" stroke="white" stroke-width="1.48022" stroke-miterlimit="10" stroke-linecap="round" stroke-linejoin="round"/>
<path d="M80.3546 12.4444C80.3546 12.4444 75.3682 8.96779 78.5947 4.93488C81.6746 0.90196 89.5943 0.901962 91.2075 4.79581C92.9674 8.41153 90.6209 11.1929 94.1407 11.7491C97.5139 12.3054 106.754 15.2258 104.994 19.3978C103.087 23.5697 97.6606 23.8479 100.007 29.4105C102.207 34.9732 113.647 35.9466 107.78 43.7343C101.914 51.383 88.2743 61.952 81.2346 48.7407C74.4882 35.5294 89.4476 38.1717 81.3813 29.6886C73.3149 21.2056 80.0613 20.9275 82.2612 17.729C84.3145 14.1132 80.3546 12.4444 80.3546 12.4444Z" fill="#ED3B4E"/>
<path d="M89.5938 17.3184C89.5938 17.3184 90.4737 32.6156 96.0468 45.2706C101.62 57.9256 105.14 59.5944 105.14 59.5944" stroke="white" stroke-width="1.48022" stroke-miterlimit="10" stroke-linecap="round" stroke-linejoin="round"/>
<path d="M25.6458 66.0215C28.0352 66.0215 30.4246 66.0215 32.8139 66.0215C32.8139 66.0215 32.9732 66.0215 33.1325 66.1733C34.8847 66.4768 35.6812 67.3875 35.9998 69.057C36.1591 70.5748 36.4777 72.2443 36.6369 73.7621C36.7962 74.5209 38.0706 74.9763 38.867 74.5209C40.1413 73.6103 41.575 72.3961 43.0086 71.4854C44.6015 70.423 46.3537 70.423 47.7873 71.6372C49.2209 73.0032 50.8138 74.5209 52.2474 76.0387C53.5218 77.2529 53.5218 79.0742 52.4067 80.592C51.6103 81.6544 50.6545 83.0204 49.6988 84.0828C49.0616 84.6899 48.9023 85.297 49.5395 86.2077C49.6988 86.3595 49.8581 86.663 50.1767 86.663C51.7696 86.8148 53.6811 87.1183 55.274 87.2701C56.5483 87.4219 57.6634 88.029 57.9819 89.2432C58.1412 89.5468 58.1412 89.8503 58.3005 90.3056C58.3005 92.5823 58.3005 94.8589 58.3005 97.2873C58.3005 97.4391 58.1412 97.5909 58.1412 97.7426C57.6634 99.1086 56.8669 100.019 55.274 100.171C53.6811 100.323 51.9289 100.626 50.336 100.778C49.5395 100.778 48.9023 102.144 49.5395 102.903C50.4952 104.117 51.7696 105.635 52.7253 106.849C53.8404 108.215 53.6811 110.036 52.566 111.402C51.1324 112.92 49.5395 114.438 47.9466 115.804C46.6723 117.018 44.7608 117.018 43.1679 115.956C41.7342 115.045 40.3006 113.831 38.867 112.92C38.3891 112.465 36.7962 112.92 36.6369 113.679C36.4777 115.349 36.1591 117.018 35.8405 118.688C35.6812 119.902 34.8847 120.964 33.4511 121.268C33.2918 121.268 32.9732 121.42 32.6547 121.571C30.106 121.571 27.7166 121.571 25.3273 121.571C25.3273 121.571 25.168 121.571 25.168 121.42C23.5751 121.116 22.6193 120.205 22.3007 118.536C22.1415 117.018 21.8229 115.349 21.6636 113.983C21.5043 113.224 20.2299 112.617 19.2742 113.224C17.9999 114.134 16.5663 115.349 15.1327 116.108C13.5397 117.17 11.7875 117.17 10.3539 115.956C8.9203 114.59 7.32738 113.072 5.89376 111.554C4.61944 110.34 4.61943 108.519 5.73446 107.001C6.53092 105.939 7.48666 104.573 8.44241 103.51C9.07957 102.903 9.07958 102.144 8.60171 101.385C8.44242 101.233 8.28312 100.93 8.12383 100.93C6.53092 100.778 4.77872 100.475 3.3451 100.323C1.11502 100.171 0 98.9569 0 96.832C0 94.7071 0 92.734 0 90.6092C0 88.6361 1.11503 87.4219 3.02652 87.2701C4.61943 87.1183 6.37164 86.8148 7.96455 86.663C8.76101 86.663 9.23888 85.297 8.76101 84.5382C7.80526 83.3239 6.53093 81.8062 5.57519 80.592C4.46015 79.226 4.46013 77.4047 5.73446 76.0387C7.16808 74.6727 8.76101 73.155 10.3539 71.6372C11.6282 70.423 13.5397 70.423 15.1327 71.4854C16.5663 72.3961 17.9999 73.6103 19.4335 74.5209C19.9114 74.9763 21.5043 74.5209 21.6636 73.7621C21.8229 72.2443 22.1414 70.423 22.46 68.9052C22.6193 67.5392 23.4158 66.6286 24.8494 66.325C24.8494 66.1733 25.168 66.1733 25.6458 66.0215ZM49.5395 78.6189C48.1059 77.2529 46.6723 75.7351 45.0793 74.3692C43.0086 75.7351 41.0971 77.2529 39.0263 78.6189C38.7077 78.7707 38.3891 78.7707 38.0706 78.6189C36.7962 78.0118 35.3626 77.5565 34.0883 76.9494C33.6104 76.7976 33.2918 76.494 33.2918 76.0387C32.9732 73.7621 32.6546 71.4854 32.3361 69.2088C32.3361 68.9052 32.1768 68.7535 31.8582 68.7535C30.2653 68.7535 28.5131 68.7535 26.9202 68.7535C26.4423 68.7535 26.4423 68.9052 26.283 69.2088C25.9644 71.4854 25.6458 73.7621 25.3273 76.0387C25.3273 76.494 25.168 76.6458 24.5308 76.7976C23.2565 77.2529 21.8229 77.7082 20.5485 78.3153C20.0707 78.4671 19.7521 78.4671 19.4335 78.3153C17.3627 76.9493 15.4512 75.4316 13.5397 74.2174C12.1061 75.5834 10.5132 77.1011 9.07959 78.4671C9.07959 78.6189 9.23887 78.7707 9.39816 78.9224C10.6725 80.592 12.1061 82.2615 13.3804 83.931C13.5397 84.0828 13.5397 84.3864 13.5397 84.6899C12.9026 86.0559 12.2654 87.5737 11.469 88.9396C11.469 89.0914 11.1504 89.395 10.9911 89.395C9.71674 89.5468 8.28313 89.6985 7.0088 89.8503C5.73447 90.0021 4.30085 90.1539 3.02652 90.3056C3.02652 92.4305 3.02652 94.2518 3.02652 96.2249C3.18581 96.2249 3.50439 96.3767 3.82298 96.3767C6.21234 96.6802 8.44241 96.9838 10.8318 97.2873C11.3096 97.2873 11.4689 97.4391 11.6282 97.8944C12.1061 99.1086 12.584 100.475 13.2211 101.689C13.3804 102.144 13.3804 102.448 13.2211 102.903C11.7875 104.876 10.1946 106.697 8.92028 108.519C10.3539 109.885 11.7875 111.251 13.3804 112.768C13.5397 112.768 13.699 112.617 14.0176 112.313C15.7698 111.099 17.6813 109.733 19.2742 108.519C19.4335 108.367 19.7521 108.367 20.0707 108.367C21.5043 108.822 22.9379 109.581 24.5308 110.036C25.0087 110.188 25.168 110.34 25.168 110.795C25.4865 113.072 25.8051 115.349 26.1237 117.625C26.1237 118.081 26.283 118.232 26.7609 118.232C28.3538 118.232 30.106 118.232 31.5396 118.232C32.0175 118.232 32.1768 118.081 32.1768 117.625C32.4954 115.349 32.8139 113.072 33.1325 110.644C33.1325 110.34 33.2918 110.036 33.6104 109.885C35.044 109.429 36.6369 108.671 38.0706 108.215C38.2298 108.215 38.5484 108.215 38.867 108.215C40.6192 109.429 42.5307 110.795 44.2829 112.01C44.4422 112.161 44.7608 112.313 44.7608 112.313C46.1944 110.947 47.7873 109.429 49.2209 108.063C49.2209 107.912 49.0616 107.76 48.9023 107.608C47.628 105.939 46.1944 104.269 44.9201 102.599C44.7608 102.448 44.7608 102.144 44.7608 101.992C45.3979 100.626 46.0351 98.9569 46.8316 97.5909C46.8316 97.4391 47.1501 97.2873 47.3094 97.2873C48.2652 97.1355 49.3802 96.9838 50.336 96.9838C51.9289 96.832 53.6811 96.5284 55.274 96.3767C55.274 94.2518 55.274 92.4305 55.274 90.4574C52.566 90.1538 50.1767 89.6985 47.4687 89.395C47.1501 89.395 46.9909 89.2432 46.8316 88.9396C46.3537 87.5737 45.7165 86.2077 45.0793 84.9935C44.9201 84.5381 44.9201 84.3864 45.0793 83.931C46.513 82.2615 47.9466 80.4402 49.5395 78.6189Z" stroke="#DE051F" stroke-width="1.05042" stroke-miterlimit="10"/>
<path d="M49.5403 78.619C48.1067 80.5921 46.6731 82.4134 45.0802 84.2347C44.7616 84.5383 44.7616 84.8418 45.0802 85.2972C45.7173 86.5114 46.1952 88.0291 46.8324 89.2433C46.9917 89.5469 47.151 89.6986 47.4695 89.6986C50.1775 90.0022 52.5669 90.3058 55.2748 90.7611C55.2748 92.7342 55.2748 94.5555 55.2748 96.6803C53.6819 96.8321 51.9297 97.1357 50.3368 97.2874C49.381 97.4392 48.266 97.4392 47.3103 97.591C47.151 97.591 46.8324 97.7428 46.8324 97.8945C46.1952 99.2605 45.558 100.778 44.7616 102.296C44.7616 102.448 44.7616 102.751 44.9209 102.903C46.1952 104.573 47.6288 106.394 48.9032 107.912C49.0625 108.064 49.2217 108.215 49.2217 108.367C47.7881 109.733 46.3545 111.099 44.7616 112.617C44.7616 112.617 44.443 112.465 44.2837 112.313C42.5315 111.099 40.62 109.733 38.8678 108.519C38.7085 108.367 38.39 108.367 38.0714 108.519C36.6378 108.974 35.0448 109.733 33.6112 110.188C33.2926 110.34 33.1333 110.492 33.1333 110.947C32.8148 113.224 32.4962 115.501 32.1776 117.929C32.1776 118.384 32.0183 118.536 31.5404 118.536C29.9475 118.536 28.1953 118.536 26.7617 118.536C26.2838 118.536 26.1245 118.384 26.1245 117.929C25.806 115.652 25.4874 113.376 25.1688 111.099C25.1688 110.644 25.0095 110.492 24.5316 110.34C23.098 109.885 21.6644 109.126 20.0715 108.671C19.9122 108.671 19.5936 108.671 19.275 108.822C17.5228 110.037 15.6113 111.403 14.0184 112.617C13.8591 112.769 13.5406 112.92 13.3813 113.072C11.9476 111.706 10.514 110.34 8.92111 108.822C10.3547 106.849 11.7883 105.18 13.222 103.207C13.5405 102.751 13.5405 102.448 13.222 101.993C12.5848 100.778 12.1069 99.4123 11.6291 98.1981C11.4698 97.7428 11.3105 97.591 10.8326 97.591C8.44323 97.2875 6.21316 96.9839 3.8238 96.6803C3.66451 96.6803 3.34593 96.6803 3.02734 96.5286C3.02734 94.5555 3.02734 92.7342 3.02734 90.6093C4.30167 90.4575 5.73529 90.3058 7.00962 90.154C8.28395 90.0022 9.71757 89.8504 10.9919 89.6986C11.1512 89.6986 11.4698 89.5469 11.4698 89.2433C12.1069 87.8773 12.7441 86.3596 13.5406 84.9936C13.5406 84.8418 13.5406 84.5383 13.3813 84.2347C12.1069 82.5652 10.6733 80.7439 9.39899 79.2261C9.23969 79.0743 9.08041 78.9226 9.08041 78.7708C10.514 77.4048 11.9477 75.887 13.5406 74.5211C15.2928 75.7353 17.3635 77.253 19.4343 78.619C19.7529 78.9226 20.0715 78.9226 20.5494 78.619C21.8237 78.0119 23.2573 77.5566 24.5316 77.1013C25.0095 76.9495 25.1688 76.7977 25.3281 76.3424C25.6467 74.0657 25.9653 71.7891 26.2838 69.5125C26.2838 69.0571 26.4431 69.0571 26.921 69.0571C28.5139 69.0571 30.2661 69.0571 31.859 69.0571C32.1776 69.0571 32.3369 69.0571 32.3369 69.5125C32.6555 71.7891 32.9741 74.0657 33.2926 76.3424C33.2926 76.7977 33.6112 77.1013 34.0891 77.253C35.3634 77.7084 36.797 78.3155 38.0714 78.9226C38.39 79.0743 38.7085 79.0743 39.0271 78.9226C41.0979 77.5566 43.0094 76.0388 45.0802 74.6728C46.5138 75.7353 47.9474 77.1013 49.5403 78.619ZM16.4078 93.493C16.4078 100.171 21.983 105.635 28.9918 105.635C36.1599 105.635 41.7351 100.323 41.7351 93.6448C41.7351 86.8149 36.1599 81.5028 29.1511 81.5028C22.1423 81.5028 16.4078 86.8149 16.4078 93.493Z" stroke="#DE051F" stroke-width="1.05042" stroke-miterlimit="10"/>
<path d="M283.428 10.0259C285.699 10.0259 287.969 10.0259 290.239 10.0259C290.239 10.0259 290.39 10.0259 290.542 10.1703C292.206 10.4591 292.963 11.3254 293.266 12.9138C293.417 14.3578 293.72 15.9461 293.871 17.3901C294.023 18.112 295.233 18.5452 295.99 18.112C297.201 17.2457 298.563 16.0905 299.925 15.2241C301.438 14.2134 303.103 14.2134 304.465 15.3685C305.827 16.6681 307.341 18.112 308.703 19.556C309.914 20.7112 309.914 22.4439 308.854 23.8879C308.098 24.8986 307.19 26.1982 306.282 27.209C305.676 27.7866 305.525 28.3641 306.13 29.2305C306.282 29.3749 306.433 29.6637 306.736 29.6637C308.249 29.8081 310.065 30.0969 311.579 30.2413C312.789 30.3857 313.849 30.9633 314.151 32.1184C314.303 32.4072 314.303 32.696 314.454 33.1292C314.454 35.2951 314.454 37.4611 314.454 39.7714C314.454 39.9158 314.303 40.0602 314.303 40.2046C313.849 41.5041 313.092 42.3705 311.579 42.5149C310.065 42.6593 308.4 42.9481 306.887 43.0925C306.13 43.0925 305.525 44.3921 306.13 45.114C307.038 46.2692 308.249 47.7132 309.157 48.8683C310.216 50.1679 310.065 51.9006 309.006 53.2002C307.644 54.6442 306.13 56.0881 304.617 57.3877C303.406 58.5428 301.59 58.5428 300.076 57.5321C298.714 56.6657 297.352 55.5105 295.99 54.6442C295.536 54.211 294.023 54.6442 293.871 55.3661C293.72 56.9545 293.417 58.5428 293.115 60.1312C292.963 61.2864 292.206 62.2971 290.844 62.5859C290.693 62.5859 290.39 62.7303 290.088 62.8747C287.666 62.8747 285.396 62.8747 283.126 62.8747C283.126 62.8747 282.974 62.8747 282.974 62.7303C281.461 62.4415 280.553 61.5751 280.25 59.9868C280.099 58.5428 279.796 56.9545 279.645 55.6549C279.493 54.9329 278.283 54.3554 277.375 54.9329C276.164 55.7993 274.802 56.9545 273.44 57.6765C271.926 58.6872 270.261 58.6872 268.899 57.5321C267.537 56.3769 266.175 54.9329 264.662 53.489C263.451 52.3338 263.451 50.6011 264.51 49.1571C265.267 48.1463 266.175 46.8468 267.083 45.836C267.689 45.2584 267.689 44.5365 267.235 43.8145C267.083 43.6701 266.932 43.3813 266.78 43.3813C265.267 43.2369 263.602 42.9481 262.24 42.8037C260.121 42.6593 259.062 41.5041 259.062 39.4826C259.062 37.4611 259.062 35.5839 259.062 33.5624C259.062 31.6852 260.121 30.5301 261.937 30.3857C263.451 30.2413 265.116 29.9525 266.629 29.8081C267.386 29.8081 267.84 28.5085 267.386 27.7866C266.478 26.6314 265.267 25.1874 264.359 24.0323C263.3 22.7327 263.3 21 264.51 19.7004C265.872 18.4008 267.386 16.9569 268.899 15.5129C270.11 14.3577 271.926 14.3577 273.44 15.3685C274.802 16.2349 276.164 17.3901 277.526 18.2564C277.98 18.6896 279.493 18.2564 279.645 17.5345C279.796 16.0905 280.099 14.3578 280.402 12.9138C280.553 11.6142 281.31 10.7479 282.672 10.4591C282.823 10.1703 283.126 10.1703 283.428 10.0259ZM306.13 22.1551C304.768 20.8556 303.406 19.4116 301.893 18.112C299.925 19.4116 298.109 20.8556 296.141 22.1551C295.839 22.2995 295.536 22.2995 295.233 22.1551C294.023 21.5775 292.66 21.1443 291.45 20.5668C290.996 20.4224 290.693 20.1336 290.693 19.7004C290.39 17.5345 290.088 15.3685 289.785 13.2026C289.785 12.9138 289.634 12.7694 289.331 12.7694C287.817 12.7694 286.153 12.7694 284.639 12.7694C284.185 12.7694 284.185 12.9138 284.034 13.2026C283.731 15.3685 283.428 17.5345 283.126 19.7004C283.126 20.1336 282.974 20.278 282.369 20.4224C281.158 20.8556 279.796 21.2887 278.585 21.8663C278.131 22.0107 277.829 22.0107 277.526 21.8663C275.558 20.5668 273.742 19.1228 271.926 17.9676C270.564 19.2672 269.051 20.7112 267.689 22.0107C267.689 22.1551 267.84 22.2995 267.991 22.4439C269.202 24.0323 270.564 25.6206 271.775 27.209C271.926 27.3534 271.926 27.6422 271.926 27.9309C271.321 29.2305 270.715 30.6745 269.959 31.974C269.959 32.1184 269.656 32.4072 269.505 32.4072C268.294 32.5516 266.932 32.696 265.721 32.8404C264.51 32.9848 263.148 33.1292 261.937 33.2736C261.937 35.2951 261.937 37.0279 261.937 38.905C262.089 38.905 262.391 39.0494 262.694 39.0494C264.964 39.3382 267.083 39.627 269.353 39.9158C269.807 39.9158 269.959 40.0602 270.11 40.4934C270.564 41.6485 271.018 42.9481 271.624 44.1033C271.775 44.5365 271.775 44.8252 271.624 45.2584C270.261 47.1356 268.748 48.8683 267.537 50.6011C268.899 51.9006 270.261 53.2002 271.775 54.6442C271.926 54.6442 272.078 54.4998 272.38 54.211C274.045 53.0558 275.861 51.7562 277.375 50.6011C277.526 50.4567 277.829 50.4567 278.131 50.4567C279.493 50.8899 280.856 51.6118 282.369 52.045C282.823 52.1894 282.974 52.3338 282.974 52.767C283.277 54.9329 283.58 57.0989 283.882 59.2648C283.882 59.698 284.034 59.8424 284.488 59.8424C286.001 59.8424 287.666 59.8424 289.028 59.8424C289.482 59.8424 289.634 59.698 289.634 59.2648C289.936 57.0989 290.239 54.9329 290.542 52.6226C290.542 52.3338 290.693 52.045 290.996 51.9006C292.358 51.4674 293.871 50.7455 295.233 50.3123C295.385 50.3123 295.687 50.3123 295.99 50.3123C297.655 51.4675 299.471 52.767 301.136 53.9222C301.287 54.0666 301.59 54.211 301.59 54.211C302.952 52.9114 304.465 51.4675 305.827 50.1679C305.827 50.0235 305.676 49.8791 305.525 49.7347C304.314 48.1463 302.952 46.558 301.741 44.9696C301.59 44.8252 301.59 44.5365 301.59 44.3921C302.195 43.0925 302.801 41.5041 303.557 40.2046C303.557 40.0602 303.86 39.9158 304.011 39.9158C304.919 39.7714 305.979 39.627 306.887 39.627C308.4 39.4826 310.065 39.1938 311.579 39.0494C311.579 37.0279 311.579 35.2951 311.579 33.418C309.006 33.1292 306.736 32.696 304.163 32.4072C303.86 32.4072 303.709 32.2628 303.557 31.974C303.103 30.6745 302.498 29.3749 301.893 28.2197C301.741 27.7866 301.741 27.6422 301.893 27.209C303.406 25.6206 304.919 23.7435 306.13 22.1551Z" stroke="#003EAE" stroke-width="1.03615" stroke-miterlimit="10"/>
<path d="M306.401 22.1604C305.039 24.0376 303.676 25.7703 302.163 27.5031C301.86 27.7918 301.86 28.0806 302.163 28.5138C302.768 29.669 303.222 31.1129 303.828 32.2681C303.979 32.5569 304.13 32.7013 304.433 32.7013C307.006 32.9901 309.276 33.2789 311.849 33.7121C311.849 35.5892 311.849 37.322 311.849 39.3435C310.336 39.4879 308.671 39.7767 307.157 39.9211C306.249 40.0655 305.19 40.0655 304.282 40.2099C304.13 40.2099 303.828 40.3543 303.828 40.4987C303.222 41.7982 302.617 43.2422 301.86 44.6861C301.86 44.8305 301.86 45.1193 302.012 45.2637C303.222 46.8521 304.584 48.5848 305.795 50.0288C305.947 50.1732 306.098 50.3176 306.098 50.462C304.736 51.7615 303.374 53.0611 301.86 54.5051C301.86 54.5051 301.558 54.3607 301.406 54.2163C299.741 53.0611 297.925 51.7615 296.261 50.6064C296.109 50.462 295.806 50.462 295.504 50.6064C294.142 51.0396 292.628 51.7615 291.266 52.1947C290.963 52.3391 290.812 52.4835 290.812 52.9167C290.509 55.0826 290.207 57.2486 289.904 59.5589C289.904 59.9921 289.753 60.1365 289.299 60.1365C287.785 60.1365 286.12 60.1365 284.758 60.1365C284.304 60.1365 284.153 59.9921 284.153 59.5589C283.85 57.393 283.548 55.227 283.245 53.0611C283.245 52.6279 283.093 52.4835 282.639 52.3391C281.277 51.9059 279.915 51.184 278.402 50.7508C278.25 50.7508 277.948 50.7508 277.645 50.8952C275.98 52.0503 274.164 53.3499 272.651 54.5051C272.499 54.6495 272.197 54.7939 272.045 54.9382C270.683 53.6387 269.321 52.3391 267.808 50.8952C269.17 49.018 270.532 47.4297 271.894 45.5525C272.197 45.1193 272.197 44.8305 271.894 44.3974C271.289 43.2422 270.835 41.9426 270.381 40.7875C270.229 40.3543 270.078 40.2099 269.624 40.2099C267.354 39.9211 265.235 39.6323 262.965 39.3435C262.813 39.3435 262.511 39.3435 262.208 39.1991C262.208 37.322 262.208 35.5892 262.208 33.5677C263.419 33.4233 264.781 33.2789 265.992 33.1345C267.202 32.9901 268.564 32.8457 269.775 32.7013C269.926 32.7013 270.229 32.5569 270.229 32.2681C270.835 30.9685 271.44 29.5246 272.197 28.225C272.197 28.0806 272.197 27.7918 272.045 27.5031C270.835 25.9147 269.472 24.1819 268.262 22.738C268.11 22.5936 267.959 22.4492 267.959 22.3048C269.321 21.0052 270.683 19.5613 272.197 18.2617C273.861 19.4169 275.829 20.8608 277.796 22.1604C278.099 22.4492 278.402 22.4492 278.856 22.1604C280.067 21.5828 281.429 21.1496 282.639 20.7165C283.093 20.5721 283.245 20.4277 283.396 19.9945C283.699 17.8285 284.002 15.6626 284.304 13.4967C284.304 13.0635 284.456 13.0635 284.91 13.0635C286.423 13.0635 288.088 13.0635 289.601 13.0635C289.904 13.0635 290.055 13.0635 290.055 13.4967C290.358 15.6626 290.661 17.8285 290.963 19.9945C290.963 20.4277 291.266 20.7165 291.72 20.8608C292.931 21.294 294.293 21.8716 295.504 22.4492C295.806 22.5936 296.109 22.5936 296.412 22.4492C298.379 21.1496 300.195 19.7057 302.163 18.4061C303.676 19.4169 305.19 20.5721 306.401 22.1604ZM274.921 36.3112C274.921 42.6646 280.218 47.8629 286.877 47.8629C293.688 47.8629 298.985 42.809 298.985 36.4556C298.985 29.9578 293.688 24.9039 287.028 24.9039C280.672 24.7595 274.921 29.9578 274.921 36.3112Z" stroke="#003EAE" stroke-width="1.03615" stroke-miterlimit="10"/>
<g clip-path="url(#clip1_137_11345)">
<path d="M290.69 36.3262H28.0681V206.664H290.69V36.3262Z" fill="#0064B5"/>
<path d="M290.69 181.485H28.0684V206.593H290.69V181.485Z" fill="#FFC727"/>
<path d="M290.69 181.485H28.0684V206.593H290.69V181.485Z" fill="#033E9F"/>
<path d="M210.557 237.333H108.199V245.496H210.557V237.333Z" fill="#FFC727"/>
<path d="M210.557 237.333H108.199V245.496H210.557V237.333Z" fill="#033E9F"/>
<path d="M198.401 237.327H120.355L122.369 223.196L122.441 222.51L122.657 221.206L122.729 220.52L122.945 219.217V219.011L123.017 218.531L123.232 217.227L123.304 216.541L124.671 206.663H194.085L195.38 215.992L195.452 216.404L195.667 217.982L195.739 218.393L195.811 219.011L195.955 219.971V220.383L196.171 221.961L196.243 222.372L198.401 237.327Z" fill="#0064B5"/>
<path d="M163.658 192.389C163.658 194.653 161.716 196.506 159.342 196.506C156.969 196.506 155.026 194.653 155.026 192.389C155.026 190.126 156.969 188.273 159.342 188.273C161.716 188.205 163.658 190.057 163.658 192.389Z" fill="white"/>
<g opacity="0.16">
<path d="M195.811 219.011L123.304 216.541L124.671 206.663H194.085L195.811 219.011Z" fill="black"/>
</g>
<path d="M278.324 47.3242H39.9432V169.641H278.324V47.3242Z" fill="white"/>
<path d="M89.8405 71.3488L86.9905 69.7788L83.6995 75.0925L86.5495 76.6624L89.8405 71.3488Z" fill="#FFC107"/>
<path d="M90.2815 76.6622C90.7359 77.4131 91.7617 77.6631 92.5292 77.2368C93.3148 76.8006 93.5859 75.8432 93.1315 75.0922L89.8405 69.7786C89.3861 69.0277 88.3633 68.7777 87.5927 69.204C86.8064 69.639 86.5361 70.5976 86.9905 71.3485L90.2815 76.6622Z" fill="#1E88E5"/>
<path d="M85.1244 77.447C86.0332 77.447 86.7699 76.7441 86.7699 75.8771C86.7699 75.01 86.0332 74.3071 85.1244 74.3071C84.2156 74.3071 83.4789 75.01 83.4789 75.8771C83.4789 76.7441 84.2156 77.447 85.1244 77.447Z" fill="#43A047"/>
<path d="M98.199 83.8424L96.7651 81.4778C96.8182 81.4271 96.8713 81.4102 96.9244 81.3765C96.4996 81.5116 96.3048 81.9507 96.3048 81.9507L93.6848 86.2577C93.6494 86.3928 93.6317 86.511 93.6494 86.6293H96.5173L98.199 83.8424Z" fill="#34A853"/>
<path d="M98.1989 83.8431L99.8983 86.6468H102.766C102.766 86.5455 102.766 86.4104 102.731 86.2753L100.093 81.9683C100.093 81.9683 99.8983 81.5292 99.4735 81.394C99.5266 81.4109 99.5797 81.4447 99.6328 81.4954L98.1989 83.8431Z" fill="#FBBC05"/>
<path d="M98.1985 83.8425L99.6324 81.4779C99.5793 81.4272 99.5262 81.4103 99.4731 81.3766C99.4023 81.3597 99.3491 81.3428 99.2783 81.3428H99.2075H97.2071H97.1363C97.0655 81.3428 96.9947 81.3597 96.9416 81.3766C96.8884 81.3934 96.8353 81.4272 96.7822 81.4779L98.1985 83.8425Z" fill="#188038"/>
<path d="M96.4993 86.6465L95.083 88.9773C95.083 88.9773 95.0299 88.9604 94.9768 88.9097C95.1715 89.0618 95.3663 89.0786 95.3663 89.0786H100.943C101.244 89.0786 101.314 88.9773 101.314 88.9773L99.8982 86.6465H96.4993Z" fill="#4285F4"/>
<path d="M96.4993 86.6465H93.6315C93.6492 86.9674 93.7908 87.1532 93.7908 87.1532L93.897 87.3221C93.897 87.339 93.9147 87.339 93.9147 87.339L94.1449 87.7274L94.6759 88.5888C94.6936 88.6226 94.7113 88.6564 94.729 88.6902C94.729 88.7071 94.7468 88.7071 94.7468 88.724C94.7468 88.724 94.7468 88.724 94.7468 88.7408C94.8176 88.8253 94.8884 88.8929 94.9592 88.9435C95.03 88.9942 95.0654 89.0111 95.0654 89.0111L96.4993 86.6465Z" fill="#1967D2"/>
<path d="M99.8984 86.6465H102.766C102.749 86.9674 102.607 87.1532 102.607 87.1532L102.501 87.3221C102.501 87.339 102.483 87.339 102.483 87.339L102.253 87.7274L101.722 88.5888C101.704 88.6226 101.686 88.6564 101.669 88.6902C101.669 88.7071 101.651 88.7071 101.651 88.724C101.651 88.724 101.651 88.724 101.651 88.7408C101.58 88.8253 101.509 88.8929 101.439 88.9435C101.368 88.9942 101.332 89.0111 101.332 89.0111L99.8984 86.6465Z" fill="#EA4335"/>
<path d="M77.6545 94.4813L77.664 96.6908L77.6706 98.2335C77.6722 98.6018 77.9863 98.8993 78.3617 98.8979L85.0668 98.8741L85.0573 96.6646L79.9685 96.6826L79.9591 94.4731L77.6545 94.4813Z" fill="#FBC02D"/>
<path d="M87.3636 94.4475L87.373 96.6568L85.0582 96.665L85.0488 94.4557L87.3636 94.4475Z" fill="#4CAF50"/>
<path d="M85.0579 96.6642L87.3727 96.656L87.3793 98.1985C87.3809 98.5668 87.0694 98.8664 86.6836 98.8678L85.0674 98.8735L85.0579 96.6642Z" fill="#2E7D32"/>
<path d="M85.0392 92.2557L85.0487 94.4555L79.9597 94.4736L79.9503 92.2738L85.0392 92.2557Z" fill="#1E88E5"/>
<path d="M85.0496 94.4541L85.0401 92.2448L86.6563 92.239C87.0421 92.2377 87.3562 92.5351 87.3578 92.9033L87.3644 94.4459L85.0496 94.4541Z" fill="#1565C0"/>
<path d="M79.9502 92.2739L79.9597 94.4733L77.6553 94.4814L79.9502 92.2739Z" fill="#E53935"/>
<path d="M102.017 74.0537L102.034 76.9852L104.23 76.9749L104.214 74.0434L102.017 74.0537Z" fill="#1E88E5"/>
<path d="M109.501 75.4821L109.517 78.4237C109.519 78.7732 109.226 79.0561 108.86 79.0579L104.242 79.0795L104.23 76.9728L107.312 76.9583L107.304 75.4924L109.501 75.4821Z" fill="#4CAF50"/>
<path d="M109.485 72.5433L109.501 75.4849L107.304 75.4952L107.296 74.0293L104.214 74.0437L104.203 71.937L108.82 71.9153C109.186 71.9136 109.483 72.1938 109.485 72.5433Z" fill="#FBC02D"/>
<path d="M104.229 76.975L104.241 79.0719L102.705 79.0791C102.339 79.0808 102.043 78.8006 102.041 78.4512L102.032 76.9854L104.229 76.975Z" fill="#1565C0"/>
<path d="M104.202 71.9374L104.214 74.044L102.017 74.0543L104.202 71.9374Z" fill="#E53935"/>
<path d="M109.725 75.4822L109.511 77.2596L107.304 75.4936L109.491 73.707L109.725 75.4822Z" fill="#2E7D32"/>
<path d="M111.469 72.5617L111.501 78.3853C111.502 78.56 111.29 78.658 111.147 78.5519L109.513 77.259L109.493 73.7066L111.112 72.3984C111.254 72.2813 111.468 72.3773 111.469 72.5617Z" fill="#4CAF50"/>
<path d="M94.4147 97.7259L94.6552 98.0525L95.0253 97.7965V99.6503H95.4232V97.2139H95.0901L94.4147 97.7259Z" fill="#1E88E5"/>
<path d="M93.775 98.3622C93.923 98.2386 94.0156 98.0533 94.0156 97.8591C94.0156 97.4706 93.6547 97.1528 93.2198 97.1528C92.8497 97.1528 92.5259 97.3735 92.4426 97.7002L92.8312 97.7973C92.8682 97.6472 93.0348 97.5413 93.2198 97.5413C93.4419 97.5413 93.6177 97.6825 93.6177 97.8591C93.6177 98.0356 93.4419 98.1769 93.2198 98.1769H92.9885V98.5653H93.2198C93.4697 98.5653 93.6825 98.733 93.6825 98.9272C93.6825 99.1303 93.4789 99.2892 93.2291 99.2892C93.007 99.2892 92.8127 99.1567 92.785 98.9714L92.3964 99.0331C92.4611 99.3951 92.822 99.6687 93.2384 99.6687C93.7102 99.6687 94.0896 99.3333 94.0896 98.9184C94.0803 98.6977 93.9601 98.4947 93.775 98.3622Z" fill="#1E88E5"/>
<path d="M96.3585 102.413H91.6952V100.639H96.3585V102.413Z" fill="#FBC02D"/>
<path d="M98.2172 100.639V96.1899H96.3574V100.639H98.2172Z" fill="#4CAF50"/>
<path d="M96.3573 96.1899V94.4155H90.5282C90.1395 94.4155 89.825 94.7157 89.825 95.0864V100.648H91.6847V96.1899H96.3573Z" fill="#1E88E5"/>
<path d="M96.3572 100.64V102.414L98.217 100.64H96.3572Z" fill="#E53935"/>
<path d="M97.523 94.4155H96.3572V96.1899H98.217V95.0776C98.217 94.7068 97.9116 94.4155 97.523 94.4155Z" fill="#1565C0"/>
<path d="M90.5284 102.413H91.6942V100.639H89.8345V101.751C89.8345 102.122 90.1398 102.413 90.5284 102.413Z" fill="#1565C0"/>
<path d="M73.4827 85.918H78.8585V87.6276H73.4827V85.918Z" fill="#43A047"/>
<path d="M73.7059 83.5679V87.6284H72.3619C72.1155 87.6284 71.9139 87.436 71.9139 87.2009V83.5679H73.7059Z" fill="#FBC02D"/>
<path d="M80.229 82.9522L77.4224 80.2744L76.1792 81.4605L78.6342 83.8028V87.6282H79.9782C80.2246 87.6282 80.4261 87.4358 80.4261 87.2008V83.4053C80.4261 83.2364 80.3545 83.0719 80.229 82.9522Z" fill="#1E88E5"/>
<path d="M77.422 80.2742L71.9139 85.5293V83.405C71.9139 83.2362 71.9856 83.0717 72.1111 82.952L75.854 79.3809C76.0287 79.2142 76.311 79.2142 76.4857 79.3809L77.422 80.2742Z" fill="#E64A19"/>
<path d="M57.2928 128.054L63.2917 127.304L63.6666 128.429C63.6666 128.429 60.4663 130.554 59.241 131.428L57.2928 128.054Z" fill="#FFBE9B" stroke="#FFBE9B" stroke-width="0.749858"/>
<path d="M90.4738 150.486L74.9989 141.534C74.8457 141.446 74.7515 141.282 74.7515 141.106V130.369C74.7515 130.095 74.9733 129.874 75.247 129.874H106.197C106.47 129.874 106.692 130.095 106.692 130.369V141.106C106.692 141.282 106.598 141.446 106.445 141.534L90.97 150.486C90.8165 150.575 90.6273 150.575 90.4738 150.486Z" fill="#0064B7" stroke="white" stroke-width="0.247746"/>
<path d="M89.9881 111.161L74.7934 120.221C74.6167 120.327 74.3934 120.312 74.2321 120.184L63.9856 112.074C63.7168 111.862 63.74 111.447 64.0309 111.266L79.1037 101.867C79.2835 101.755 79.5146 101.77 79.6789 101.903L90.0473 110.351C90.314 110.568 90.2836 110.984 89.9881 111.161Z" fill="#1069DF" stroke="white" stroke-width="0.247746"/>
<path d="M117.151 129.637L101.956 138.697C101.779 138.803 101.556 138.788 101.395 138.66L91.1481 130.551C90.8793 130.338 90.9025 129.923 91.1934 129.742L106.266 120.343C106.446 120.231 106.677 120.246 106.841 120.379L117.21 128.827C117.476 129.044 117.446 129.46 117.151 129.637Z" fill="#1069DF" stroke="white" stroke-width="0.247746"/>
<path d="M101.889 101.899L91.4122 110.229C91.1401 110.446 91.1696 110.868 91.4691 111.044L106.658 119.988C106.831 120.09 107.048 120.077 107.209 119.955L117.443 112.188C117.718 111.98 117.7 111.561 117.409 111.376L102.463 101.869C102.285 101.756 102.054 101.768 101.889 101.899Z" fill="#1069DF" stroke="white" stroke-width="0.247746"/>
<path d="M63.8389 135.07L69.8726 141.668C69.8726 141.668 70.292 142.007 70.6502 141.604C71.0083 141.201 76.974 132.857 77.2709 131.712C77.5678 130.567 77.0871 129.487 78.0997 127.527C79.1123 125.568 80.2174 124.73 80.2174 124.73C80.2174 124.73 81.3225 123.892 81.0256 125.037C80.7287 126.182 80.4318 127.326 81.2407 127.641C82.0496 127.956 88.3615 128.547 88.3615 128.547C88.3615 128.547 82.2853 130.916 80.9059 133.279C79.5345 135.634 75.8623 143.414 74.0629 145.43C72.272 147.446 70.412 148.728 69.153 147.703C67.8948 146.687 59.497 139.902 59.497 139.902L63.8389 135.07Z" fill="#FFBE9B"/>
<path d="M74.2251 120.66L64.0528 129.326C63.7885 129.551 63.8331 129.972 64.1388 130.139L79.6386 138.582C79.8154 138.679 80.0325 138.659 80.1882 138.532L90.1383 130.436C90.4056 130.218 90.3733 129.8 90.0756 129.625L74.7981 120.611C74.6158 120.504 74.3858 120.523 74.2251 120.66Z" fill="#1069DF" stroke="white" stroke-width="0.247746"/>
<path d="M69.7238 123.184C69.7238 123.184 66.279 123.545 64.9667 125.046C63.6586 126.54 60.71 128.487 60.71 128.487L61.176 130.922C61.176 130.922 65.1663 130.413 67.5166 130.337C69.8668 130.261 73.8306 130.613 73.8306 130.613L68.2065 125.88C68.2065 125.88 68.4236 124.682 69.1597 124.197C69.8958 123.713 69.7238 123.184 69.7238 123.184Z" fill="#FFBE9B"/>
<path d="M51.9679 162.024L42.9318 233.73L36.4775 233.115L35.5452 160.16L51.9679 162.024Z" fill="#FCBE42"/>
<path d="M42.1246 162.024L59.0852 233.73L65.5575 233.115L61.1112 160.16L42.1246 162.024Z" fill="#E9AA2B"/>
<path d="M54.352 109.021C54.352 109.021 56.2704 111.356 56.369 115.522C56.4586 119.687 55.9118 122.663 54.0472 122.697C52.1826 122.732 48.4176 121.62 47.7632 120.448C47.1088 119.276 45.8717 119.293 45.8089 116.924C45.7552 114.547 48.7403 109.133 51.2324 109.081C53.7334 109.047 54.352 109.021 54.352 109.021Z" fill="#FFBE9B"/>
<path d="M46.7577 117.207C46.7577 117.207 46.202 120.183 45.0187 123.185C43.8443 126.178 43.2527 127.384 43.2527 127.384C43.2527 127.384 47.0894 131.464 50.8096 130.797C54.5299 130.13 54.4761 127.752 54.4761 127.752C54.4761 127.752 50.9889 125.152 50.9083 121.586C50.8276 118.028 50.8276 118.028 50.8276 118.028L46.7577 117.207Z" fill="#FEBE9A"/>
<path d="M56.2243 108.988C56.2243 108.988 57.9814 104.199 56.7174 103.634C55.4534 103.061 52.9972 104.301 52.3876 104.917C51.778 105.524 50.5409 105.55 49.9045 105.559C49.9045 105.559 43.6832 105.687 42.464 106.901C41.2449 108.116 41.2538 108.706 41.2718 109.305C41.2807 109.895 41.3345 112.221 40.7429 113.478C40.4829 114.017 40.1871 116.455 41.4869 118.815C42.7868 121.159 44.0507 121.732 44.6693 121.723C45.2878 121.715 45.8615 121.698 45.8974 121.099C45.9512 120.457 46.1753 119.551 46.4621 118.713C46.74 117.917 47.0269 116.327 47.0269 116.327C47.0269 116.327 47.5827 113.35 48.7929 112.127C50.0031 110.904 50.012 110.913 52.4862 110.263C54.9693 109.604 55.6417 110.784 56.2243 108.988Z" fill="#160C56"/>
<path d="M47.9226 113.503C48.8728 114.495 47.6626 116.3 47.6626 116.3C47.6626 116.3 45.816 116.933 45.7711 115.145C45.7353 113.366 46.9813 112.502 47.9226 113.503Z" fill="#FFBE9B"/>
<path d="M36.4856 237.801C36.4856 237.801 36.127 238.767 38.2247 238.759C40.3224 238.742 51.7161 238.648 51.7161 238.648C51.7161 238.648 53.9034 238.211 51.8685 237.288C49.8336 236.364 43.7288 233.807 43.7288 233.807C43.7288 233.807 43.2627 233.687 43.2627 232.575L36.3601 232.635L36.4856 237.801Z" fill="#170856"/>
<path d="M58.7433 237.801C58.7433 237.801 58.3847 238.767 60.4824 238.759C62.58 238.742 73.9738 238.648 73.9738 238.648C73.9738 238.648 76.1611 238.211 74.1262 237.288C72.0912 236.373 65.9865 233.807 65.9865 233.807C65.9865 233.807 65.5204 233.687 65.5204 232.575L58.6178 232.635L58.7433 237.801Z" fill="#170856"/>
<path d="M52.3784 126.23C52.3784 126.23 53.0508 125.699 53.8217 126.289C54.5926 126.871 57.2909 128.778 58.6087 131.216C59.9175 133.662 60.3746 137.057 60.8229 144.977C61.2801 152.906 61.2083 161.476 61.2083 161.476L35.4716 162.014C35.4716 162.014 34.6559 147.594 37.0852 138.734C39.5146 129.873 43.1451 126.794 43.9519 126.409C44.7587 126.024 45.5655 126.794 45.5655 126.794C45.5655 126.794 49.1064 129.89 52.3784 126.23Z" fill="#EE384E"/>
<path d="M89.355 302.244L78.5261 254.203L75.1465 239.236H32.512L47.7783 302.244" stroke="#96AABE" stroke-width="2.41237" stroke-miterlimit="10"/>
<path d="M36.2261 254.547L78.5289 254.205" stroke="#96AABE" stroke-width="2.41237" stroke-miterlimit="10"/>
<path d="M39.7906 269.318L81.8515 268.976" stroke="#96AABE" stroke-width="2.41237" stroke-miterlimit="10"/>
<path d="M17.9202 302.244L28.7581 254.204L32.1377 239.236H74.7543L59.4969 302.244" stroke="#2626DB" stroke-width="2.41237" stroke-miterlimit="10"/>
<path d="M71.051 254.547L28.7571 254.205" stroke="#2626DB" stroke-width="2.41237" stroke-miterlimit="10"/>
<path d="M67.4954 269.318L25.4257 268.976" stroke="#2626DB" stroke-width="2.41237" stroke-miterlimit="10"/>
<path d="M65.3505 134.501C65.3505 134.501 61.7109 129.489 57.6859 127.949C53.6609 126.41 51.626 129.489 53.643 132.577C55.66 135.664 59.2995 139.889 59.2995 139.889L65.3505 134.501Z" fill="#FC3E55"/>
<path d="M184.245 121.876H143.81C143.004 121.876 142.35 122.53 142.35 123.336C142.35 124.142 143.004 124.796 143.81 124.796H184.245C185.051 124.796 185.704 124.142 185.704 123.336C185.704 122.53 185.051 121.876 184.245 121.876Z" fill="#DBE9F8"/>
<path d="M266.39 128.553H143.81C143.004 128.553 142.35 129.206 142.35 130.012C142.35 130.819 143.004 131.472 143.81 131.472H266.39C267.196 131.472 267.849 130.819 267.849 130.012C267.849 129.206 267.196 128.553 266.39 128.553Z" fill="#DBE9F8"/>
<path d="M266.39 134.949H143.81C143.004 134.949 142.35 135.603 142.35 136.409C142.35 137.215 143.004 137.869 143.81 137.869H266.39C267.196 137.869 267.849 137.215 267.849 136.409C267.849 135.603 267.196 134.949 266.39 134.949Z" fill="#DBE9F8"/>
<path d="M266.39 141.264H143.81C143.004 141.264 142.35 141.918 142.35 142.724C142.35 143.53 143.004 144.184 143.81 144.184H266.39C267.196 144.184 267.849 143.53 267.849 142.724C267.849 141.918 267.196 141.264 266.39 141.264Z" fill="#DBE9F8"/>
<path d="M266.39 147.661H143.81C143.004 147.661 142.35 148.315 142.35 149.121C142.35 149.927 143.004 150.581 143.81 150.581H266.39C267.196 150.581 267.849 149.927 267.849 149.121C267.849 148.315 267.196 147.661 266.39 147.661Z" fill="#DBE9F8"/>
<path d="M266.39 153.987H143.81C143.004 153.987 142.35 154.64 142.35 155.447C142.35 156.253 143.004 156.906 143.81 156.906H266.39C267.196 156.906 267.849 156.253 267.849 155.447C267.849 154.64 267.196 153.987 266.39 153.987Z" fill="#EBEBEB"/>
<path d="M199.623 58.7979H146.208C144.077 58.7979 142.35 60.5251 142.35 62.6557C142.35 64.7864 144.077 66.5136 146.208 66.5136H199.623C201.754 66.5136 203.481 64.7864 203.481 62.6557C203.481 60.5251 201.754 58.7979 199.623 58.7979Z" fill="#EE384E"/>
<path d="M266.493 71.8701H143.81C143.004 71.8701 142.35 72.5237 142.35 73.3299C142.35 74.136 143.004 74.7896 143.81 74.7896H266.493C267.299 74.7896 267.953 74.136 267.953 73.3299C267.953 72.5237 267.299 71.8701 266.493 71.8701Z" fill="#DBE9F8"/>
<path d="M266.493 78.1855H143.81C143.004 78.1855 142.35 78.8391 142.35 79.6453C142.35 80.4515 143.004 81.105 143.81 81.105H266.493C267.299 81.105 267.953 80.4515 267.953 79.6453C267.953 78.8391 267.299 78.1855 266.493 78.1855Z" fill="#DBE9F8"/>
<path d="M266.493 84.582H143.81C143.004 84.582 142.35 85.2356 142.35 86.0418C142.35 86.848 143.004 87.5015 143.81 87.5015H266.493C267.299 87.5015 267.953 86.848 267.953 86.0418C267.953 85.2356 267.299 84.582 266.493 84.582Z" fill="#DBE9F8"/>
<path d="M266.493 90.9111H143.81C143.004 90.9111 142.35 91.5647 142.35 92.3709C142.35 93.1771 143.004 93.8306 143.81 93.8306H266.493C267.299 93.8306 267.953 93.1771 267.953 92.3709C267.953 91.5647 267.299 90.9111 266.493 90.9111Z" fill="#DBE9F8"/>
<path d="M266.493 99.3887H143.81C143.004 99.3887 142.35 100.042 142.35 100.848C142.35 101.655 143.004 102.308 143.81 102.308H266.493C267.299 102.308 267.953 101.655 267.953 100.848C267.953 100.042 267.299 99.3887 266.493 99.3887Z" fill="#DBE9F8"/>
<path d="M266.493 105.717H143.81C143.004 105.717 142.35 106.37 142.35 107.177C142.35 107.983 143.004 108.636 143.81 108.636H266.493C267.299 108.636 267.953 107.983 267.953 107.177C267.953 106.37 267.299 105.717 266.493 105.717Z" fill="#DBE9F8"/>
<path d="M92.0729 113.952L90.2235 116.774L86.8387 115.677L86.8389 115.677L86.8431 115.679L87.8768 118.436L91.2445 119.586L93.1368 116.79L92.0729 113.952Z" fill="#EA4335"/>
<path d="M92.6748 113.223L92.1298 113.942L93.1955 116.787L94.8752 114.43L94.5131 113.464C94.5131 113.464 93.7191 112.175 92.6748 113.223Z" fill="#FBBC05"/>
<path d="M93.1948 116.818L94.5967 120.567L96.3377 119.992C96.3377 119.992 96.8153 119.781 96.6535 119.241L94.8571 114.437L93.1948 116.818Z" fill="#34A853"/>
<path d="M86.8224 115.75L85.9172 115.499C84.3956 115.279 84.6474 116.784 84.6474 116.784L85.0184 117.774L87.8831 118.581L86.8224 115.75Z" fill="#C5221F"/>
<path d="M84.9913 117.733L86.7877 122.537C87.0204 123.054 87.534 122.937 87.534 122.937L89.275 122.362L87.8373 118.53L84.9913 117.733Z" fill="#4285F4"/>
<path d="M249.24 214.457H290.827V256.85H249.24V214.457Z" fill="#236EB0"/>
<path d="M274.128 164.881C274.128 164.881 280.019 162.718 280.712 168.342C280.712 168.342 282.185 172.409 283.745 173.1C285.218 173.793 289.03 175.263 288.077 180.455C287.124 185.732 285.737 185.386 286.257 188.414C286.864 191.442 285.391 191.789 283.311 191.875C281.232 191.961 280.626 189.971 280.626 189.971L281.232 183.223L279.846 172.322L275.34 170.505C275.34 170.505 273.001 167.563 272.828 166.439C272.655 165.314 274.128 164.881 274.128 164.881Z" fill="#170856"/>
<path d="M274.907 163.411C274.907 163.411 275.86 164.362 275.6 164.535C275.34 164.709 272.828 166.092 272.828 166.092C272.828 166.092 272.048 164.622 272.134 164.189C272.221 163.756 274.907 163.411 274.907 163.411Z" fill="#F05051"/>
<path d="M259.225 156.056C259.052 156.056 258.965 156.143 258.965 156.316C258.965 157.614 259.312 163.843 261.738 166.179C261.738 166.179 263.037 167.91 265.463 167.13C265.463 167.13 267.716 165.747 267.369 168.515C267.023 171.284 268.149 173.965 269.015 174.312C269.882 174.744 273.521 173.706 274.387 172.149C274.907 171.111 275.254 170.591 275.34 170.332C275.427 170.246 275.427 170.159 275.34 169.986C274.82 169.38 272.914 167.045 272.048 163.843C271.008 160.123 271.615 156.489 268.149 155.797C265.29 155.364 260.351 155.97 259.225 156.056Z" fill="#FFBE97"/>
<path d="M256.019 155.797C256.019 155.71 256.019 155.711 256.019 155.625C256.019 155.278 256.019 154.845 256.019 154.5C256.106 153.375 256.539 152.164 257.405 151.385C258.099 150.779 258.965 150.606 259.745 150.606C259.918 150.606 260.091 150.52 260.265 150.433C260.871 149.741 262.777 147.837 265.377 147.837C268.496 147.837 273.954 149.568 275.427 155.019C275.514 155.365 277.593 163.93 273.434 164.19C269.189 164.449 267.543 162.373 267.629 160.469C267.629 160.469 269.709 156.749 266.156 157.701C266.156 157.701 262.517 158.393 260.005 156.922C259.658 156.749 259.312 156.836 259.138 157.181C258.618 158.046 257.665 159.431 256.713 158.306C256.366 157.874 256.019 157.441 255.932 156.836C255.846 156.403 255.932 156.143 256.019 155.797Z" fill="#170856"/>
<path d="M275.427 170.245C275.427 170.245 273.348 173.619 270.402 173.533C267.456 173.533 267.283 170.418 267.283 170.418C267.283 170.418 261.304 175.869 261.391 179.416C261.478 182.963 262.604 182.444 262.951 183.569C263.297 184.78 260.958 197.412 260.958 197.412L260.611 198.19L277.506 200.526C277.506 200.526 278.199 197.844 278.633 196.979C279.066 196.114 281.492 173.879 281.492 173.879L280.365 172.668C280.452 172.754 278.459 170.418 275.427 170.245Z" fill="#E9AA2B"/>
<path d="M282.965 183.743C282.965 183.743 284.611 172.755 280.366 172.149C276.207 171.63 276.12 175.091 276.034 180.195C275.861 185.299 275.947 186.424 275.947 186.424L282.532 187.635L282.965 183.743Z" fill="#FCBE42"/>
<path d="M276.12 186.511C276.033 186.511 275.947 186.598 275.947 186.684L275.6 190.923C275.6 191.529 275.514 192.135 274.907 191.875C274.561 191.703 274.127 191.529 273.608 191.27C271.701 190.232 266.07 187.376 264.25 186.598C263.904 186.424 263.73 186.166 263.557 185.819C263.384 185.3 262.864 184.521 261.824 184.175C260.178 183.743 257.319 183.743 257.319 184.002C257.232 184.175 256.886 185.559 257.059 186.079C257.232 186.511 258.532 186.166 258.532 186.166C258.532 186.166 261.131 185.733 260.351 186.598C259.918 187.117 259.312 187.204 258.879 187.204C258.705 187.204 258.619 187.376 258.792 187.549C259.138 187.809 259.745 188.155 260.785 188.328C262.691 188.587 276.207 197.499 276.207 197.499C276.207 197.499 278.806 199.576 280.366 194.124C281.492 189.972 282.098 188.501 282.272 187.982C282.358 187.896 282.272 187.722 282.098 187.722L276.12 186.511Z" fill="#FEBD96"/>
<path d="M253.68 192.394L261.391 195.595L262.171 190.75L259.052 190.577L253.68 192.394Z" fill="#FEBD96"/>
<path d="M248.395 176.907L236.179 176.215L248.828 192.221L260.525 192.654L248.395 176.907Z" fill="#1E88E1"/>
<path d="M248.308 191.096C248.308 191.096 248.741 188.154 247.788 187.721C246.835 187.289 246.142 188.327 246.229 188.846C246.315 189.452 248.221 191.442 248.221 191.442L248.308 191.096Z" fill="#FEBD96"/>
<path d="M260.698 198.277L236.871 207.362C236.871 207.362 233.926 207.967 233.146 216.013C232.453 224.059 231.847 250.794 231.847 250.794V251.659L237.738 251.745L240.684 223.281L254.719 206.15L266.156 198.969L260.698 198.277Z" fill="#DE051F"/>
<path d="M277.766 200.093L266.243 199.055L241.897 211.254C241.897 211.254 235.312 215.148 239.558 222.242C243.803 229.336 255.5 250.879 255.5 250.879L259.571 247.851L249.174 218.868C249.174 218.868 248.914 217.397 252.38 217.137C255.586 216.878 270.921 215.407 272.914 215.234C273.087 215.234 273.261 215.148 273.434 215.148C274.647 214.715 279.326 212.379 277.853 204.16L277.679 200.699L277.766 200.093Z" fill="#EE384E"/>
<path d="M231.847 251.745L226.648 254.6C226.388 254.773 226.128 254.86 225.782 254.946C225.261 255.033 224.222 255.292 224.222 256.071C224.222 256.071 224.048 257.022 226.561 256.763C229.074 256.503 236.958 256.59 236.958 256.59C236.958 256.59 237.998 256.331 237.824 254.08L237.651 251.831L231.847 251.745Z" fill="#130452"/>
<path d="M255.499 250.88C255.499 250.88 255.413 252.264 254.114 254.081C253.333 255.119 252.554 256.071 251.774 257.109C251.601 257.368 251.341 257.542 251.167 257.888C251.081 258.061 250.994 258.321 250.994 258.493C250.994 258.666 250.994 258.926 251.254 259.099C251.514 259.272 251.948 259.186 252.294 259.099C252.38 259.099 252.467 259.013 252.554 259.013C254.546 258.321 260.612 253.302 261.911 252.264C262.085 252.091 262.171 251.918 262.171 251.745C262.171 251.313 262.085 250.448 261.565 249.842C260.785 248.89 259.572 247.938 259.572 247.938L255.499 250.88Z" fill="#130452"/>
</g>
</g>
<defs>
<clipPath id="clip0_137_11345">
<rect width="314.454" height="285.673" fill="white"/>
</clipPath>
<clipPath id="clip1_137_11345">
<rect width="270.213" height="241.467" fill="white" transform="translate(20.5327 36.1377)"/>
</clipPath>
</defs>
</svg>
