<svg width="464" height="407" viewBox="0 0 464 407" fill="none" xmlns="http://www.w3.org/2000/svg">
<path d="M406.722 40.2534C406.722 40.2534 411.967 34.2674 407.38 29.6586C402.794 25.0497 393.275 27.2486 391.958 32.8015C390.652 38.3543 393.933 41.2751 389.882 42.9632C385.843 44.6513 375.286 51.0482 378.254 56.4344C381.211 61.8207 387.896 60.5769 386.189 68.7063C384.481 76.8357 370.989 81.2779 379.761 90.0181C388.532 98.7583 407.179 109.542 412.77 89.7849C418.361 70.0278 400.718 77.5464 408.798 63.9308C416.877 50.3152 408.664 51.7811 405.561 47.6387C402.481 43.5074 406.722 40.2534 406.722 40.2534Z" fill="#023EA1"/>
<path d="M396.739 49.3511C396.739 49.3511 398.747 70.2965 394.384 88.9763C390.021 107.656 386.282 111.043 386.282 111.043" stroke="white" stroke-width="0.989213" stroke-miterlimit="10" stroke-linecap="round" stroke-linejoin="round"/>
<path d="M451.474 46.218C451.474 46.218 437.737 36.556 434.891 45.4184C432.034 54.2919 428.14 54.0253 424.122 53.5478C420.105 53.0702 413.297 49.2388 410.798 58.7564C408.287 68.274 410.697 74.1156 406.501 77.2252C402.305 80.3459 389.573 98.5037 397.897 101.536C406.222 104.556 416.188 96.7268 419.502 92.3178C422.816 87.9089 430.159 87.5757 435.784 88.7196C441.408 89.8635 448.818 86.8872 446.497 79.6018C444.164 72.3165 447.836 64.7646 452.992 63.0654C458.125 61.3662 460.669 52.9148 451.474 46.218Z" fill="#FCBE42"/>
<path d="M443.954 54.9689L395.153 108.832" stroke="white" stroke-width="0.989213" stroke-miterlimit="10" stroke-linecap="round" stroke-linejoin="round"/>
<path d="M383.75 94.8052C383.75 94.8052 411.235 67.0853 421.491 42.0752" stroke="#DE051F" stroke-width="0.989213" stroke-miterlimit="10"/>
<path d="M425.434 25.5504C425.434 25.5504 415.926 32.8913 420.368 44.6523C420.368 44.6523 429.641 39.6436 425.434 25.5504Z" stroke="#DE051F" stroke-width="0.989213" stroke-miterlimit="10"/>
<path d="M409.092 64.0868C409.092 64.0868 413.734 54.0472 403.78 45.2182C403.78 45.2182 396.95 52.8256 409.092 64.0868Z" stroke="#DE051F" stroke-width="0.989213" stroke-miterlimit="10"/>
<path d="M393.027 84.5776C393.027 84.5776 399.555 75.6375 391.52 65.0426C391.52 65.0315 383.329 71.1619 393.027 84.5776Z" stroke="#DE051F" stroke-width="0.989213" stroke-miterlimit="10"/>
<path d="M393.294 84.9551C393.294 84.9551 400.381 76.437 412.689 81.5568C412.678 81.5568 408.75 90.9744 393.294 84.9551Z" stroke="#DE051F" stroke-width="0.989213" stroke-miterlimit="10"/>
<path d="M409.05 63.9311C409.05 63.9311 414.987 54.5912 427.854 58.1006C427.854 58.1006 425.153 67.9402 409.05 63.9311Z" stroke="#DE051F" stroke-width="0.989213" stroke-miterlimit="10"/>
<path d="M101.168 200.673C76.4231 214.917 44.7818 206.464 30.4952 181.792C16.2087 157.119 24.6869 125.571 49.432 111.327C74.177 97.0821 105.818 105.535 120.105 130.208C134.391 154.88 125.913 186.428 101.168 200.673Z" stroke="#DE051F" stroke-width="0.989213" stroke-miterlimit="10" stroke-dasharray="5.94 5.94"/>
<path d="M29.7629 173.827C25.582 176.234 20.2359 174.805 17.822 170.637C15.4082 166.468 16.8407 161.138 21.0216 158.731C25.2025 156.324 30.5486 157.753 32.9625 161.921C35.3763 166.09 33.9438 171.42 29.7629 173.827Z" fill="#003EB0"/>
<path d="M20.7012 164.768L25.9777 169.236L27.4688 162.96L20.7012 164.768Z" fill="white"/>
<path d="M361.903 243.251C386.648 257.496 418.29 249.043 432.576 224.37C446.863 199.698 438.384 168.15 413.639 153.905C388.894 139.661 357.253 148.114 342.966 172.786C328.68 197.459 337.158 229.007 361.903 243.251Z" stroke="#003EB0" stroke-width="0.989213" stroke-miterlimit="10" stroke-dasharray="5.94 5.94"/>
<path d="M433.308 216.406C437.489 218.812 442.835 217.384 445.249 213.216C447.663 209.047 446.231 203.717 442.05 201.31C437.869 198.903 432.523 200.331 430.109 204.5C427.695 208.669 429.127 213.999 433.308 216.406Z" fill="#EE384E"/>
<path d="M441.943 207.951L436.667 212.419L435.176 206.143L441.943 207.951Z" fill="white"/>
<path d="M405.54 299.732H68.8807C66.1739 299.732 63.9897 297.552 63.9897 294.85V65.1235C63.9897 62.422 66.1739 60.242 68.8807 60.242H405.526C408.233 60.242 410.417 62.422 410.417 65.1235V294.85C410.431 297.539 408.233 299.732 405.54 299.732Z" fill="#0064B7"/>
<path d="M393.919 289.701H77.2796C74.5729 289.701 72.3887 287.521 72.3887 284.82V106.476C72.3887 103.774 74.5729 101.594 77.2796 101.594H393.933C396.639 101.594 398.824 103.774 398.824 106.476V284.82C398.81 287.521 396.626 289.701 393.919 289.701Z" fill="#CCE5FF"/>
<path d="M410.428 90.8685V76.4378C410.428 67.4905 403.004 60.2418 394.039 60.2418H81.2724C72.3078 60.2418 64.8843 67.4905 64.8843 76.4378V90.8685H410.428Z" fill="#0064B7"/>
<path d="M86.0424 84.6067C87.696 82.9563 87.696 80.2805 86.0424 78.63C84.3888 76.9796 81.7078 76.9796 80.0542 78.63C78.4006 80.2805 78.4006 82.9563 80.0542 84.6067C81.7078 86.2572 84.3888 86.2572 86.0424 84.6067Z" fill="white"/>
<path d="M96.395 86.0268C98.7336 86.0268 100.629 84.1346 100.629 81.8006C100.629 79.4665 98.7336 77.5744 96.395 77.5744C94.0564 77.5744 92.1606 79.4665 92.1606 81.8006C92.1606 84.1346 94.0564 86.0268 96.395 86.0268Z" fill="white"/>
<path d="M109.19 86.616C111.529 86.616 113.424 84.7239 113.424 82.3898C113.424 80.0558 111.529 78.1636 109.19 78.1636C106.851 78.1636 104.956 80.0558 104.956 82.3898C104.956 84.7239 106.851 86.616 109.19 86.616Z" fill="white"/>
<path d="M385.14 278.601H279.147C278.262 278.601 277.539 277.878 277.539 276.996V114.407C277.539 113.524 278.262 112.802 279.147 112.802H385.14C386.024 112.802 386.748 113.524 386.748 114.407V276.982C386.748 277.878 386.024 278.601 385.14 278.601Z" fill="white"/>
<path d="M375.049 135.24H289.039C288.322 135.24 287.734 135.205 287.734 135.162V127.285C287.734 127.242 288.322 127.207 289.039 127.207H375.049C375.767 127.207 376.354 127.242 376.354 127.285V135.161C376.354 135.205 375.767 135.24 375.049 135.24Z" fill="#EAF4FF"/>
<path d="M375.049 152.108H289.039C288.322 152.108 287.734 152.073 287.734 152.03V144.153C287.734 144.11 288.322 144.075 289.039 144.075H375.049C375.767 144.075 376.354 144.11 376.354 144.153V152.03C376.354 152.073 375.767 152.108 375.049 152.108Z" fill="#EAF4FF"/>
<path d="M375.049 168.976H289.039C288.322 168.976 287.734 168.941 287.734 168.898V161.021C287.734 160.978 288.322 160.943 289.039 160.943H375.049C375.767 160.943 376.354 160.978 376.354 161.021V168.897C376.354 168.941 375.767 168.976 375.049 168.976Z" fill="#EAF4FF"/>
<path d="M375.049 185.846H289.039C288.322 185.846 287.734 185.811 287.734 185.768V177.891C287.734 177.848 288.322 177.813 289.039 177.813H375.049C375.767 177.813 376.354 177.848 376.354 177.891V185.767C376.354 185.811 375.767 185.846 375.049 185.846Z" fill="#EAF4FF"/>
<path d="M375.049 202.713H289.039C288.322 202.713 287.734 202.678 287.734 202.636V194.759C287.734 194.716 288.322 194.681 289.039 194.681H375.049C375.767 194.681 376.354 194.716 376.354 194.759V202.635C376.354 202.678 375.767 202.713 375.049 202.713Z" fill="#EAF4FF"/>
<path d="M268.179 276.412H85.1363C84.2519 276.412 83.5283 275.689 83.5283 274.807V198.895C83.5283 198.013 84.2519 197.29 85.1363 197.29H268.179C269.063 197.29 269.787 198.013 269.787 198.895V274.807C269.787 275.689 269.063 276.412 268.179 276.412Z" fill="white"/>
<path d="M236.993 228.895H120.61C116.616 228.895 113.39 226.318 113.39 223.128V221.864C113.39 218.674 116.616 216.097 120.61 216.097H236.993C240.987 216.097 244.213 218.674 244.213 221.864V223.128C244.229 226.318 240.987 228.895 236.993 228.895Z" fill="#EE384E"/>
<path d="M247.37 243.115H114.493C113.886 243.115 113.39 241.836 113.39 240.271C113.39 238.707 113.886 237.427 114.493 237.427H247.376C247.983 237.427 248.479 238.707 248.479 240.271C248.473 241.836 247.977 243.115 247.37 243.115Z" fill="#DBE9F8"/>
<path d="M246.68 257.335H115.189C114.199 257.335 113.39 256.055 113.39 254.491C113.39 252.927 114.199 251.647 115.189 251.647H246.68C247.67 251.647 248.479 252.927 248.479 254.491C248.479 256.055 247.68 257.335 246.68 257.335Z" fill="#DBE9F8"/>
<path d="M268.179 187.337H85.1363C84.2519 187.337 83.5283 186.614 83.5283 185.732V114.354C83.5283 113.471 84.2519 112.749 85.1363 112.749H268.179C269.063 112.749 269.787 113.471 269.787 114.354V185.732C269.787 186.614 269.063 187.337 268.179 187.337Z" fill="white"/>
<path d="M247.102 136.586H129.792C128.813 136.586 128.012 136.568 128.012 136.545V132.361C128.012 132.339 128.813 132.32 129.792 132.32H247.102C248.081 132.32 248.882 132.339 248.882 132.361V136.544C248.882 136.568 248.081 136.586 247.102 136.586Z" fill="#EAF4FF"/>
<path d="M247.102 147.962H129.792C128.813 147.962 128.012 147.943 128.012 147.921V143.737C128.012 143.715 128.813 143.696 129.792 143.696H247.102C248.081 143.696 248.882 143.715 248.882 143.737V147.92C248.882 147.943 248.081 147.962 247.102 147.962Z" fill="#EAF4FF"/>
<path d="M247.102 159.338H129.792C128.813 159.338 128.012 159.319 128.012 159.297V155.113C128.012 155.091 128.813 155.072 129.792 155.072H247.102C248.081 155.072 248.882 155.091 248.882 155.113V159.296C248.882 159.319 248.081 159.338 247.102 159.338Z" fill="#EAF4FF"/>
<path d="M247.102 170.714H129.792C128.813 170.714 128.012 170.695 128.012 170.673V166.489C128.012 166.466 128.813 166.448 129.792 166.448H247.102C248.081 166.448 248.882 166.466 248.882 166.489V170.672C248.882 170.695 248.081 170.714 247.102 170.714Z" fill="#EAF4FF"/>
<circle cx="101.659" cy="141.437" r="9.23753" fill="#395196"/>
<path d="M337.252 296.105C337.252 296.105 340.996 347.798 341.534 356.965C342.08 366.132 344.047 397.012 344.047 397.012H353.244L359.451 295.539L337.252 296.105Z" fill="#003EB0"/>
<path d="M371.856 296.647C371.856 296.647 370.772 322.691 370.287 329.294C369.81 335.897 375.054 358.476 378.045 368.509C381.044 378.551 385.265 389.665 385.265 389.665L378.045 393.781C378.045 393.781 362.451 366.151 356.86 349.849C351.277 333.547 347.117 309.15 347.802 295.404L371.856 296.647Z" fill="#0064E1"/>
<path d="M332.713 259.662L325.7 268.889C325.7 268.889 325.154 269.627 323.854 269.292C322.562 268.958 309.066 264.104 309.066 264.104C309.066 264.104 307.185 263.272 306.682 261.789C306.188 260.305 305.954 259.945 305.659 259.542C305.365 259.139 304.931 259.19 305.183 258.195C305.434 257.209 305.573 256.798 305.573 256.798C305.573 256.798 305.867 256.103 305.278 256.103C304.689 256.103 304.056 256.24 303.726 256.918C303.414 257.595 303.492 259.233 303.492 259.233L300.606 259.345C300.606 259.345 298.838 259.405 298.838 261.231C298.838 263.058 298.838 266.111 298.838 266.111C298.838 266.111 298.586 267.062 299.878 267.062C301.169 267.062 302.53 267.02 302.53 267.02C302.53 267.02 303.614 266.908 305.391 268.186C307.168 269.464 320.69 277.121 320.69 277.121C320.69 277.121 325.362 279.883 328.431 276.984C331.499 274.086 338.234 266.917 338.234 266.917L338.572 264.644L332.713 259.662Z" fill="#FFBF99"/>
<path d="M355.289 234.947C355.289 234.947 356.121 239.08 357.794 243.222C359.467 247.364 360.299 249.011 360.299 249.011C360.299 249.011 355.289 254.799 350.261 253.967C345.251 253.144 345.251 249.834 345.251 249.834C345.251 249.834 349.854 246.112 349.854 241.147C349.854 236.182 349.854 236.19 349.854 236.19L355.289 234.947Z" fill="#FFB48F"/>
<path d="M344.234 248.882C344.234 248.882 340.073 251.172 338.348 252.621C336.615 254.07 331.613 259.764 331.613 259.764L338.461 266.342L343.228 260.991L344.234 248.882Z" fill="#F79F03"/>
<path d="M358.179 246.943C358.179 246.943 355.674 250.253 352.328 251.076C348.982 251.9 347.318 249.421 347.318 249.421L346.399 248.238C346.399 248.238 345.471 247.518 344.449 248.367C343.426 249.198 341.475 251.342 339.785 254.807C338.086 258.263 337.592 262.996 337.237 274.05C336.881 285.104 337.237 297.032 337.237 297.032H371.814L372.221 279.855C372.221 279.855 368.546 257.011 364.931 252.363C361.317 247.715 360.268 246.703 360.268 246.703C360.268 246.703 359.436 245.571 358.179 246.943Z" fill="#FCBE42"/>
<path d="M344.825 223.773C344.825 223.773 342.32 227.083 342.32 232.88C342.32 238.669 343.152 242.811 345.666 242.811C348.18 242.811 353.198 241.156 354.031 239.501C354.863 237.846 356.536 237.846 356.536 234.544C356.536 231.243 352.358 223.791 349.003 223.791C345.657 223.791 344.825 223.773 344.825 223.773Z" fill="#FFBF99"/>
<path d="M342.324 223.774C342.324 223.774 339.819 217.162 341.492 216.322C343.165 215.498 346.502 217.145 347.343 217.977C348.175 218.8 349.848 218.8 350.689 218.8C350.689 218.8 359.054 218.8 360.727 220.455C362.4 222.11 362.4 222.933 362.4 223.765C362.4 224.588 362.408 227.838 363.232 229.554C363.587 230.3 364.064 233.687 362.4 237.006C360.735 240.316 359.054 241.139 358.222 241.139C357.389 241.139 356.635 241.139 356.549 240.316C356.453 239.424 356.124 238.163 355.716 237.006C355.318 235.899 354.884 233.695 354.884 233.695C354.884 233.695 354.052 229.562 352.379 227.907C350.706 226.252 350.706 226.252 347.369 225.429C343.997 224.614 343.156 226.252 342.324 223.774Z" fill="#170856"/>
<path d="M353.597 229.819C352.358 231.226 354.031 233.704 354.031 233.704C354.031 233.704 356.536 234.527 356.536 232.049C356.536 229.571 354.845 228.404 353.597 229.819Z" fill="#FFBF99"/>
<path d="M370.345 264.636C370.345 264.636 373.483 276.581 372.937 284.067C372.391 291.545 370.146 298.028 368.516 302.539C366.886 307.05 365.924 308.13 365.863 310.968C365.803 313.807 364.459 317.169 362.795 318.858C361.131 320.547 359.796 321.388 359.796 321.388C359.796 321.388 357.819 322.297 358.132 320.479C358.132 320.479 356.805 320.582 357.308 319.57C357.308 319.57 355.54 319.604 356.831 318.223C358.123 316.834 360.507 315.496 360.507 315.496C360.507 315.496 361.867 313.344 359.926 314.424C357.984 315.496 356.285 315.539 358.08 313.79C359.882 312.04 361.963 308.979 363.488 303.379C365.014 297.788 366.826 286.734 364.667 278.245C362.509 269.755 359.778 266.925 359.778 266.925L370.345 264.636Z" fill="#FFBF99"/>
<path d="M377.74 393.223C377.74 393.223 376.076 397.845 374.23 399.972C372.383 402.099 370.927 403.651 370.927 403.651C370.927 403.651 368.777 407.055 371.204 406.043C373.623 405.031 387.006 396.139 387.006 396.139C387.006 396.139 388.913 395.161 388.029 393.549C387.145 391.937 384.9 388.815 384.9 388.815L377.74 393.223Z" fill="#170856"/>
<path d="M353.157 403.541C353.157 403.541 353.651 404.887 350.843 404.887C348.034 404.887 332.718 404.887 332.718 404.887C332.718 404.887 329.771 404.304 332.484 403C335.214 401.697 343.38 398.061 343.38 398.061C343.38 398.061 344.004 397.898 343.986 396.346H353.261L353.157 403.541Z" fill="#170856"/>
<path d="M357.25 256.677C357.25 256.677 356.661 251.128 360.744 250.597C364.826 250.065 367.418 255.45 368.779 258.949C370.14 262.448 370.825 265.012 370.825 265.012C370.825 265.012 362.044 268.511 359.73 268.511C359.721 268.511 357.771 262.696 357.25 256.677Z" fill="#F79F03"/>
<path d="M66.7428 360.292C66.7428 360.292 69.7811 359.058 69.5564 355.587C69.3316 352.116 67.5336 349.655 71.2462 350.658C74.9588 351.668 76.2075 352.116 78.9045 351.552C81.6016 350.989 83.8408 349.871 82.6671 353.342C81.4934 356.813 80.2114 359.721 82.9917 360.284C85.7637 360.847 88.7438 358.751 89.1017 364.186C89.4597 369.62 85.0561 375.734 77.9306 375.958C70.805 376.181 67.6585 373.24 67.6585 373.24C67.6585 373.24 65.7439 370.556 68.724 369.902C71.704 369.239 74.7424 367.988 73.2191 366.596C71.704 365.213 66.7511 365.097 66.7511 365.097C66.7511 365.097 60.5579 363.871 66.7428 360.292Z" fill="#023EA1"/>
<path d="M99.3036 361.188C98.8041 357.725 99.187 355.231 105.655 354.287C112.123 353.343 115.894 357.211 116.285 361.188C116.676 365.164 111.057 366.606 111.057 366.606C111.057 366.606 107.062 367.741 109.093 371.212C111.124 374.683 112.04 378.038 107.445 378.543C102.85 379.048 97.8219 377.839 95.0249 375.983C92.228 374.128 89.3561 369.422 92.5609 366.962C92.5609 366.962 93.4599 366.349 96.5566 366.175C99.6365 366.001 99.3036 361.188 99.3036 361.188Z" fill="#EE384E"/>
<path d="M76.5479 360.624C76.5479 360.624 81.917 372.71 82.6495 380.937" stroke="#023EA1" stroke-width="1.08167" stroke-miterlimit="10"/>
<path d="M106.411 362.612C106.411 362.612 96.9043 376.662 94.6567 381.359" stroke="#649EEA" stroke-width="1.08167" stroke-miterlimit="10"/>
<path d="M79.338 379.992H101.156C101.156 379.992 103.545 380.158 103.345 383.405C103.162 386.396 99.3495 385.75 97.385 385.75C95.4204 385.75 78.8635 385.75 78.8635 385.75C78.8635 385.75 76.1831 386.205 76.1831 383.181C76.1831 380.158 77.1987 379.992 79.338 379.992Z" fill="#0054A5"/>
<path d="M78.8677 385.751L82.1724 404.937H96.8231L99.3037 390.539L78.8927 385.751H78.8677Z" fill="#0054A5"/>
<path d="M78.895 385.751L99.3061 390.539L100.13 385.751H78.895Z" fill="#006AD5"/>
<path d="M88.2764 380.721C88.2764 380.721 89.3835 359.431 95.7599 346.077" stroke="#FCBE42" stroke-width="1.08167" stroke-miterlimit="10"/>
<path d="M100.999 338.389C100.999 338.389 101.524 344.925 95.1142 347.477C95.1142 347.477 93.7324 341.893 100.999 338.389Z" fill="#FCBE42"/>
<path d="M91.3799 359.191C91.3799 359.191 93.744 353.616 101.003 354.362C101.011 354.362 100.445 359.912 91.3799 359.191Z" fill="#FCBE42"/>
<path d="M88.9961 373.215C88.9961 373.215 90.2198 367.284 97.4868 366.604C97.4868 366.604 98.0279 372.163 88.9961 373.215Z" fill="#FCBE42"/>
<path d="M88.7506 373.249C88.7506 373.249 89.5914 367.26 82.9736 364.195C82.9736 364.195 80.6012 369.256 88.7506 373.249Z" fill="#FCBE42"/>
<path d="M91.4731 359.15C91.4731 359.15 93.0797 353.309 86.9031 349.432C86.8948 349.432 83.898 354.154 91.4731 359.15Z" fill="#FCBE42"/>
<path d="M384.743 360.292C384.743 360.292 387.781 359.058 387.556 355.587C387.332 352.116 385.534 349.655 389.246 350.658C392.959 351.668 394.207 352.116 396.905 351.552C399.602 350.989 401.841 349.871 400.667 353.342C399.493 356.813 398.211 359.721 400.992 360.284C403.764 360.847 406.744 358.751 407.102 364.186C407.46 369.62 403.056 375.734 395.931 375.958C388.805 376.181 385.658 373.24 385.658 373.24C385.658 373.24 383.744 370.556 386.724 369.902C389.704 369.239 392.742 367.988 391.219 366.596C389.704 365.213 384.751 365.097 384.751 365.097C384.751 365.097 378.558 363.871 384.743 360.292Z" fill="#649EEA"/>
<path d="M417.304 361.188C416.804 357.725 417.187 355.231 423.655 354.287C430.123 353.343 433.894 357.211 434.285 361.188C434.676 365.164 429.057 366.606 429.057 366.606C429.057 366.606 425.062 367.741 427.093 371.212C429.124 374.683 430.04 378.038 425.445 378.543C420.85 379.048 415.822 377.839 413.025 375.983C410.228 374.128 407.356 369.422 410.561 366.962C410.561 366.962 411.46 366.349 414.557 366.175C417.637 366.001 417.304 361.188 417.304 361.188Z" fill="#023EA1"/>
<path d="M394.548 360.624C394.548 360.624 399.917 372.71 400.65 380.937" stroke="#023EA1" stroke-width="1.08167" stroke-miterlimit="10"/>
<path d="M424.411 362.612C424.411 362.612 414.904 376.662 412.657 381.359" stroke="#649EEA" stroke-width="1.08167" stroke-miterlimit="10"/>
<path d="M397.338 379.992H419.156C419.156 379.992 421.545 380.158 421.345 383.405C421.162 386.396 417.349 385.75 415.385 385.75C413.42 385.75 396.864 385.75 396.864 385.75C396.864 385.75 394.183 386.205 394.183 383.181C394.183 380.158 395.199 379.992 397.338 379.992Z" fill="#0054A5"/>
<path d="M396.868 385.751L400.172 404.937H414.823L417.304 390.539L396.893 385.751H396.868Z" fill="#0054A5"/>
<path d="M396.895 385.751L417.306 390.539L418.13 385.751H396.895Z" fill="#006AD5"/>
<path d="M406.276 380.721C406.276 380.721 407.383 359.431 413.76 346.077" stroke="#FCBE42" stroke-width="1.08167" stroke-miterlimit="10"/>
<path d="M418.999 338.389C418.999 338.389 419.524 344.925 413.114 347.477C413.114 347.477 411.732 341.893 418.999 338.389Z" fill="#FCBE42"/>
<path d="M409.38 359.191C409.38 359.191 411.744 353.616 419.003 354.362C419.011 354.362 418.445 359.912 409.38 359.191Z" fill="#FCBE42"/>
<path d="M406.996 373.215C406.996 373.215 408.22 367.284 415.487 366.604C415.487 366.604 416.028 372.163 406.996 373.215Z" fill="#FCBE42"/>
<path d="M406.751 373.249C406.751 373.249 407.591 367.26 400.974 364.195C400.974 364.195 398.601 369.256 406.751 373.249Z" fill="#FCBE42"/>
<path d="M409.473 359.15C409.473 359.15 411.08 353.309 404.903 349.432C404.895 349.432 401.898 354.154 409.473 359.15Z" fill="#FCBE42"/>
<rect x="44.0737" y="82.4297" width="8.03263" height="8.03263" transform="rotate(45 44.0737 82.4297)" fill="#EE384E"/>
<rect x="433.694" y="122.245" width="8.03263" height="8.03263" transform="rotate(45 433.694 122.245)" fill="#003EB0"/>
<path d="M88.8485 243.753C92.2653 244.573 95.6821 245.393 99.2355 246.35C100.876 246.623 102.652 247.033 104.429 247.307C106.069 247.58 107.846 247.99 109.623 248.127H110.306H110.853C111.126 248.127 111.536 248.127 111.809 248.127C112.493 248.127 113.313 247.99 114.133 247.853C115.773 247.58 117.55 247.17 119.053 246.487C122.47 245.53 125.887 244.163 129.03 242.933L130.533 245.803C127.527 247.853 124.11 249.493 120.693 251.27C119.053 251.954 117.14 252.774 115.226 253.32C114.269 253.594 113.176 253.867 112.219 254.004C111.673 254.004 111.263 254.14 110.579 254.14C110.306 254.14 109.896 254.14 109.623 254.14H108.939C105.249 253.867 101.422 253.457 97.7321 252.637C94.042 251.954 90.4885 251.133 86.9351 249.903L88.8485 243.753Z" fill="#FFBF99"/>
<path d="M128.346 244.3L129.303 240.883L132.856 242.249C132.856 242.249 132.036 247.306 128.893 245.803L128.346 244.3Z" fill="#FFBF99"/>
<path d="M131.358 238.833L135.048 239.106L132.725 242.386L129.171 241.02L131.358 238.833Z" fill="#FFBF99"/>
<path d="M72.4447 278.059L76.8182 278.469L58.5042 398.467L49.2104 397.374L55.7707 318.104L72.4447 278.059Z" fill="#DE051F"/>
<path d="M51.3957 274.779C51.3957 274.779 50.5757 278.879 50.1657 280.655C49.7556 281.885 42.3754 290.222 45.2455 302.386C45.2455 302.523 45.1088 302.933 45.2455 303.343C44.9721 305.94 43.3321 321.794 38.9585 329.311L13.4009 381.793L19.2778 387.533C19.2778 387.533 49.0723 343.115 50.1657 340.791C51.1224 338.741 72.8532 293.913 72.7165 280.655V278.195L51.3957 274.779Z" fill="#EE384E"/>
<path d="M58.3667 398.466C58.3667 398.466 63.9702 402.43 66.4303 403.66C68.6171 404.48 68.4804 406.256 68.6171 406.666C68.6171 406.803 68.6171 406.94 68.4804 406.94L48.2529 403.933L49.2096 397.236L58.3667 398.466Z" fill="#221D56"/>
<path d="M19.2797 386.987C19.2797 386.987 20.2364 392.317 23.5165 395.734C26.7967 398.877 22.8332 400.654 22.8332 400.654L8.89262 388.9C8.61928 388.49 8.07259 386.713 9.30264 385.483C10.5327 383.843 13.4028 381.656 13.4028 381.656L19.2797 386.987Z" fill="#221D56"/>
<path d="M54.1282 245.12C51.5315 247.17 49.2081 249.494 46.6113 251.544C45.3812 252.774 44.2879 253.867 43.1945 254.96C42.1011 255.917 41.0077 257.284 40.3244 258.514L40.1877 258.651V258.787C40.1877 258.787 40.1877 258.924 40.051 259.061C40.051 259.197 39.9144 259.607 39.7777 259.744C39.641 260.154 39.5043 260.974 39.5043 261.794C39.3677 263.434 39.231 264.801 39.231 266.578C39.0943 269.858 39.0943 273.138 39.231 276.555L35.6775 277.238C34.8575 273.821 34.0375 270.541 33.7641 266.988C33.6274 265.074 33.6274 263.434 33.6274 261.521C33.6274 260.564 33.7641 259.607 33.9008 258.514C33.9008 257.967 34.0374 257.284 34.1741 256.874C34.1741 256.464 34.3108 256.19 34.4475 255.917L34.5841 255.644C34.5841 255.507 34.7208 255.507 34.7208 255.37C35.6775 253.457 36.7709 252.227 37.8643 250.587C38.821 248.947 40.1877 247.58 41.4177 246.35C43.8778 243.753 46.4746 241.293 49.3447 239.243L54.1282 245.12Z" fill="#FFBF99"/>
<path d="M52.63 236.101C48.9398 238.424 42.9263 244.301 42.9263 244.301L50.0332 252.911C50.0332 252.911 60.1469 246.898 61.377 243.481C63.7004 237.467 56.1835 233.64 52.63 236.101Z" fill="#003EB0"/>
<path d="M38.2783 275.734L39.235 280.791L34.4515 280.244C34.4515 280.244 33.4948 276.827 36.0915 275.461L38.2783 275.734Z" fill="#FFBF99"/>
<path d="M37.7304 283.799L33.2202 282.432L34.7236 280.108L39.3705 280.518L37.7304 283.799Z" fill="#FFBF99"/>
<path d="M88.0205 215.189C88.1572 215.189 88.2938 215.326 88.2938 215.462C88.2938 217.376 87.7471 226.396 84.057 229.813C84.057 229.813 82.1436 232.41 78.5901 231.453C78.5901 231.453 75.31 229.54 75.8567 233.503C76.2667 237.33 74.6266 241.43 73.2599 241.977C72.0299 242.523 66.6997 241.157 65.3329 238.97C64.5129 237.33 63.9662 236.51 63.6929 236.236C63.6929 236.1 63.6929 235.963 63.6929 235.963C64.5129 235.143 67.1097 231.726 68.4764 226.943C69.8431 221.613 69.2964 216.419 74.2166 215.326C78.7268 214.232 86.1071 214.779 88.0205 215.189Z" fill="#FFBE97"/>
<path d="M50.9904 274.915C56.0473 275.599 66.8443 276.965 77.2314 278.469C87.3451 241.704 84.3384 240.611 84.3384 240.611C84.3384 240.611 81.7416 239.244 78.3248 238.014C78.1881 238.014 78.1881 238.014 78.0515 238.014C76.2747 237.467 75.728 237.467 73.6779 236.921C69.9878 236.101 66.161 235.69 61.7875 235.28C61.3775 235.28 61.2408 235.28 61.1041 235.28C60.5574 235.28 59.7374 235.28 58.9174 235.144C58.3707 235.144 57.6873 235.144 57.2773 235.144C56.7306 235.144 56.0473 235.144 55.5006 235.144C55.0906 235.144 54.8172 235.144 54.5439 235.144C52.4938 235.144 50.8537 237.331 50.9904 239.381C53.4505 258.651 52.6305 265.075 50.9904 274.915Z" fill="#0064E1"/>
<path d="M65.8842 228.036C65.8842 228.036 57.2738 225.029 56.3171 232.956C56.3171 232.956 53.857 238.696 51.6703 239.79C49.4835 241.02 43.88 242.933 45.2467 250.724C46.6134 258.377 48.5268 257.831 47.9801 262.204C47.4335 266.441 49.6202 267.124 52.3536 267.124C55.2238 267.124 56.1805 264.254 56.1805 264.254L55.4971 254.55L57.5472 238.696L64.1074 235.963C64.1074 235.963 67.5242 231.863 67.7976 230.086C67.9343 228.446 65.8842 228.036 65.8842 228.036Z" fill="#180857"/>
<path d="M64.5219 225.85C64.5219 225.85 63.2919 227.49 63.4286 227.627C63.9753 227.763 67.6654 229.814 67.6654 229.814C67.6654 229.814 68.7588 227.627 68.6221 227.08C68.4854 226.123 64.5219 225.85 64.5219 225.85Z" fill="#EA4E59"/>
<path d="M92.2636 214.779C92.2636 214.096 92.2636 213.413 92.2636 213.003C92.127 211.226 91.5803 209.586 90.2136 208.356C89.3935 207.536 87.8901 207.262 86.7968 207.262C86.3868 207.262 86.2501 207.262 86.1134 206.989C85.2934 206.169 82.4233 203.299 78.4598 203.299C73.8129 203.299 65.886 205.759 63.6992 213.549C63.5625 213.959 60.5557 226.396 66.5693 226.67C72.8562 227.08 75.1796 224.073 75.043 221.203C75.043 221.203 72.0362 215.599 77.0931 216.966C77.0931 216.966 82.5599 217.786 86.2501 215.873C86.5234 215.463 87.3435 215.873 87.4801 216.146C88.1635 217.513 89.8036 219.426 91.0336 217.786C91.5803 217.376 91.9903 216.556 92.127 215.736C92.4003 215.326 92.2636 214.916 92.2636 214.779Z" fill="#180857"/>
<path opacity="0.2" d="M78.0537 248.81C78.1904 250.587 82.1539 253.73 83.5206 252.637C83.9306 250.587 84.3406 248.947 84.4773 247.58C82.5639 247.58 78.7371 245.393 78.0537 248.81Z" fill="black"/>
<path d="M73.8076 240.473C73.6709 234.323 88.1582 240.883 91.575 242.523L87.8848 252.637C87.8848 252.637 82.9646 252.5 79.9578 250.724C76.6777 248.947 73.9443 244.71 73.8076 240.473Z" fill="#0054A3"/>
<path d="M50.8536 273.413L49.7603 275.736C49.7603 275.873 49.7603 276.009 50.0336 276.009L77.5047 279.7C77.6414 279.7 77.778 279.7 77.778 279.563L78.0514 277.376C78.0514 277.239 77.9147 277.103 77.778 277.103L50.8536 273.413C51.127 273.139 50.8536 273.139 50.8536 273.413Z" fill="#007CFF"/>
<path opacity="0.3" d="M50.8536 273.413L49.7603 275.736C49.7603 275.873 49.7603 276.009 50.0336 276.009L77.5047 279.7C77.6414 279.7 77.778 279.7 77.778 279.563L78.0514 277.376C78.0514 277.239 77.9147 277.103 77.778 277.103L50.8536 273.413C51.127 273.139 50.8536 273.139 50.8536 273.413Z" fill="black"/>
<path d="M54.135 276.691H53.4516C53.3149 276.691 53.3149 276.691 53.3149 276.555L53.9983 273.548C53.9983 273.548 54.135 273.411 54.2717 273.411H54.955C55.0917 273.411 55.0917 273.411 55.0917 273.548L54.4083 276.555C54.4083 276.828 54.2717 276.828 54.135 276.691Z" fill="#1A2E35"/>
<path d="M72.0398 279.288H71.3564C71.2197 279.288 71.2197 279.288 71.2197 279.152L71.9031 276.145C71.9031 276.145 72.0398 276.008 72.1764 276.008H72.8598C72.9965 276.008 72.9965 276.008 72.9965 276.145L72.3131 279.152C72.4498 279.152 72.1764 279.288 72.0398 279.288Z" fill="#1A2E35"/>
<path d="M243.516 36.5622H230.834C230.629 36.5622 230.461 36.7208 230.461 36.9352V42.1571C230.461 42.2504 230.508 42.3529 230.573 42.4182L232.065 43.9102C232.131 43.9754 232.224 44.0221 232.336 44.0221H242.033C242.127 44.0221 242.229 43.9754 242.295 43.9102L243.787 42.4182C243.852 42.3529 243.898 42.2597 243.898 42.1571V36.9259C243.898 36.7208 243.721 36.5622 243.516 36.5622ZM243.143 41.9986L241.875 43.2668H232.494L231.226 41.9986V37.2989H243.162V41.9986H243.143Z" fill="#003EB0"/>
<path d="M244.25 38.0458L230.067 38.7918C229.862 38.8011 229.703 38.9783 229.712 39.1834C229.722 39.3886 229.88 39.5378 230.085 39.5378C230.095 39.5378 230.095 39.5378 230.104 39.5378L244.287 38.7918C244.492 38.7825 244.651 38.6053 244.641 38.4001C244.623 38.195 244.445 38.0365 244.25 38.0458Z" fill="#003EB0"/>
<path d="M244.25 40.2919L230.067 41.0379C229.862 41.0472 229.703 41.2244 229.712 41.4295C229.722 41.6347 229.88 41.7839 230.085 41.7839C230.095 41.7839 230.095 41.7839 230.104 41.7839L244.287 41.0379C244.492 41.0286 244.651 40.8514 244.641 40.6463C244.623 40.4318 244.445 40.2639 244.25 40.2919Z" fill="#003EB0"/>
<path d="M237.173 11.1885C230.17 11.1885 224.491 16.8766 224.491 23.8702C224.491 28.2808 226.72 32.2812 230.459 34.6124V36.9249C230.459 37.1301 230.627 37.2979 230.832 37.2979H243.514C243.719 37.2979 243.887 37.1301 243.887 36.9249V34.6124C247.626 32.2718 249.855 28.2715 249.855 23.8702C249.855 16.8766 244.166 11.1885 237.173 11.1885ZM243.318 34.0809C243.206 34.1461 243.131 34.2767 243.131 34.4072V36.5612H231.196V34.4072C231.196 34.2767 231.13 34.1554 231.009 34.0809C227.382 31.8989 225.228 28.0757 225.228 23.8702C225.228 17.2869 230.58 11.9345 237.164 11.9345C243.747 11.9345 249.099 17.2869 249.099 23.8702C249.109 28.085 246.945 31.8989 243.318 34.0809Z" fill="#003EB0"/>
<path d="M240.695 43.3122C240.508 43.219 240.285 43.2936 240.191 43.4707C240.163 43.5267 239.492 44.7576 237.17 44.7576C234.848 44.7576 234.168 43.5174 234.149 43.4707C234.056 43.2842 233.841 43.2096 233.655 43.3122C233.468 43.4055 233.394 43.6199 233.487 43.8064C233.515 43.881 234.373 45.5035 237.17 45.5035C239.968 45.5035 240.826 43.8717 240.853 43.8064C240.956 43.6199 240.881 43.4055 240.695 43.3122Z" fill="#003EB0"/>
<path d="M221.132 23.4983H213.672C213.467 23.4983 213.299 23.6568 213.299 23.8713C213.299 24.0764 213.467 24.2443 213.672 24.2443H221.132C221.337 24.2443 221.505 24.0764 221.505 23.8713C221.505 23.6661 221.337 23.4983 221.132 23.4983Z" fill="#DE051F"/>
<path d="M260.67 23.4983H253.21C253.005 23.4983 252.837 23.6661 252.837 23.8713C252.837 24.0764 253.005 24.2443 253.21 24.2443H260.67C260.875 24.2443 261.043 24.0764 261.043 23.8713C261.053 23.6661 260.875 23.4983 260.67 23.4983Z" fill="#DE051F"/>
<path d="M223.603 31.7038C223.491 31.5173 223.267 31.4706 223.099 31.5639L216.637 35.2938C216.451 35.4057 216.404 35.6295 216.497 35.7973C216.563 35.9186 216.693 35.9838 216.824 35.9838C216.889 35.9838 216.954 35.9745 217.01 35.9279L223.472 32.198C223.649 32.1047 223.715 31.8809 223.603 31.7038Z" fill="#DE051F"/>
<path d="M257.841 11.9269C257.729 11.7404 257.505 11.6938 257.337 11.7871L250.875 15.5263C250.688 15.6382 250.642 15.862 250.735 16.0298C250.8 16.1511 250.931 16.2163 251.061 16.2163C251.127 16.2163 251.192 16.1977 251.248 16.1604L257.71 12.4305C257.887 12.3372 257.943 12.1134 257.841 11.9269Z" fill="#DE051F"/>
<path d="M249.106 3.1983C248.919 3.10505 248.695 3.15167 248.602 3.33817L244.872 9.80024C244.76 9.98673 244.826 10.2105 245.012 10.3038C245.077 10.3317 245.143 10.3597 245.199 10.3597C245.329 10.3597 245.46 10.2945 245.525 10.1732L249.255 3.71116C249.348 3.52466 249.283 3.30087 249.106 3.1983Z" fill="#DE051F"/>
<path d="M237.17 0C236.965 0 236.797 0.167846 236.797 0.372991V7.83281C236.797 8.03795 236.965 8.2058 237.17 8.2058C237.375 8.2058 237.543 8.03795 237.543 7.83281V0.372991C237.543 0.167846 237.375 0 237.17 0Z" fill="#DE051F"/>
<path d="M229.475 9.79154L225.745 3.32947C225.633 3.14298 225.409 3.09635 225.241 3.1896C225.055 3.3015 225.008 3.52529 225.101 3.69314L228.831 10.1552C228.896 10.2764 229.027 10.3417 229.158 10.3417C229.223 10.3417 229.288 10.3324 229.344 10.2858C229.512 10.2018 229.577 9.97803 229.475 9.79154Z" fill="#DE051F"/>
<path d="M257.715 35.3045L251.253 31.5746C251.067 31.4814 250.843 31.528 250.75 31.7145C250.638 31.901 250.703 32.1248 250.89 32.218L257.352 35.9479C257.417 35.9759 257.482 36.0039 257.538 36.0039C257.669 36.0039 257.799 35.9386 257.865 35.8174C257.948 35.6216 257.893 35.3978 257.715 35.3045Z" fill="#DE051F"/>
<path d="M223.464 15.517L217.002 11.7871C216.816 11.6938 216.592 11.7404 216.499 11.9269C216.387 12.1134 216.452 12.3372 216.639 12.4305L223.101 16.1604C223.166 16.1884 223.222 16.2163 223.287 16.2163C223.418 16.2163 223.548 16.1511 223.614 16.0298C223.716 15.8527 223.651 15.6289 223.464 15.517Z" fill="#DE051F"/>
<path d="M238.254 36.5615V24.5139C238.254 24.5139 238.086 18.8351 241.182 18.8351C244.277 18.8351 242.851 24.7377 236.883 24.7377" stroke="#003EB0" stroke-width="0.849139" stroke-miterlimit="10"/>
<path d="M235.502 36.5617V24.5141C235.502 24.5141 235.67 18.8353 232.574 18.8353C229.478 18.8353 230.905 24.7379 236.873 24.7379" stroke="#003EB0" stroke-width="0.849139" stroke-miterlimit="10"/>
</svg>
