<svg width="371" height="233" viewBox="0 0 371 233" fill="none" xmlns="http://www.w3.org/2000/svg">
<path d="M220.711 54.5184C220.711 54.5184 220.161 32.1967 227.468 32.0966C234.825 31.9965 233.424 44.6088 233.424 44.6088C233.424 44.6088 235.976 20.7856 243.083 21.5864C249.89 22.3371 246.937 31.7463 246.937 31.7463C246.937 31.7463 256.596 7.42255 265.605 18.3332C274.664 29.2438 253.694 38.0524 253.694 38.0524C253.694 38.0524 263.453 34.4989 264.904 41.8561C266.356 49.2633 243.684 53.3673 243.684 53.3673C243.684 53.3673 256.496 50.4144 256.146 58.122C255.796 65.8295 220.211 68.8824 220.211 68.8824L220.711 54.5184Z" fill="#023EA1"/>
<path d="M212.955 76.5399L212.555 76.0394C224.867 65.5292 259.25 24.7895 259.601 24.3391L260.101 24.7394C259.701 25.1899 225.317 65.9796 212.955 76.5399Z" fill="white"/>
<path d="M226.918 61.5754C228.82 53.6177 227.969 40.655 227.969 40.5049L228.62 40.4548C228.62 40.605 229.42 53.6677 227.519 61.7256L226.918 61.5754Z" fill="white"/>
<path d="M241.131 45.8102C242.432 41.4059 242.732 30.195 242.732 30.0449H243.383C243.383 30.4953 243.083 41.456 241.731 45.9604L241.131 45.8102Z" fill="white"/>
<path d="M227.467 62.1761L227.217 61.5756C234.874 58.4225 247.887 57.1713 248.037 57.1212L248.087 57.7719C247.937 57.8219 235.024 59.0731 227.467 62.1761Z" fill="white"/>
<path d="M241.431 46.2607L241.131 45.6601C245.335 43.6581 256.095 41.6061 256.596 41.506L256.696 42.1567C256.596 42.2067 245.585 44.3088 241.431 46.2607Z" fill="white"/>
<path d="M126.293 79.8413C122.58 74.7827 119.728 69.0784 117.683 63.1051C115.53 56.9703 114.239 50.5664 113.432 44.1087C113.001 40.3417 112.678 36.6286 112.517 32.8078C112.517 32.3773 111.763 32.3234 111.817 32.754C112.086 39.4807 112.786 46.2613 114.131 52.8804C115.423 59.1767 117.414 65.3653 120.212 71.1234C121.773 74.2984 123.602 77.3658 125.701 80.2718C126.024 80.6485 126.562 80.1641 126.293 79.8413Z" fill="#FABC43"/>
<path d="M119.836 69.2938C119.836 69.2938 106.598 54.1183 102.938 58.1005C99.225 62.0827 113.647 70.2087 119.836 69.2938Z" fill="#FABC43"/>
<path d="M116.283 60.0915C116.283 60.0915 106.758 44.7006 102.937 47.7142C99.0627 50.7278 110.687 60.0915 116.283 60.0915Z" fill="#FABC43"/>
<path d="M114.291 50.4587C114.291 50.4587 105.95 37.0052 102.559 39.5883C99.223 42.2252 109.394 50.4049 114.291 50.4587Z" fill="#FABC43"/>
<path d="M112.569 41.3642C112.569 41.3642 107.833 28.7179 104.605 30.3323C101.376 32.0005 108.479 40.5031 112.569 41.3642Z" fill="#FABC43"/>
<path d="M120.371 70.908C120.371 70.908 123.116 50.943 128.389 52.2883C133.663 53.5799 126.075 68.3249 120.371 70.908Z" fill="#FABC43"/>
<path d="M116.93 61.5982C116.93 61.5982 119.244 43.6781 123.979 44.8082C128.715 45.9921 121.988 59.2842 116.93 61.5982Z" fill="#FABC43"/>
<path d="M113.643 49.8668C113.643 49.8668 118.055 34.6374 122.038 36.2519C125.966 37.9201 118.378 48.5215 113.643 49.8668Z" fill="#FABC43"/>
<path d="M112.514 41.149C112.514 41.149 114.828 27.8569 118.326 28.8793C121.824 29.9018 116.388 39.5883 112.514 41.149Z" fill="#FABC43"/>
<path d="M112.517 34.9068C112.517 34.9068 116.337 21.9376 112.786 21.2918C109.234 20.6999 109.772 31.7856 112.517 34.9068Z" fill="#FABC43"/>
<path d="M224.987 76.1282C230.745 74.1371 236.88 73.1684 242.961 72.9532C249.257 72.7379 255.607 73.3837 261.796 74.5138C265.402 75.1595 268.953 76.0206 272.505 76.9354C272.935 77.043 273.205 76.3973 272.774 76.2896C266.424 74.6214 259.966 73.276 253.455 72.6303C247.266 72.0383 240.916 72.0383 234.781 73.007C231.391 73.5451 228.001 74.3523 224.718 75.4824C224.288 75.6439 224.557 76.2358 224.987 76.1282Z" fill="#FABC43"/>
<path d="M236.613 73.1684C236.613 73.1684 254.533 65.3116 251.896 60.7374C249.26 56.1632 237.528 67.1413 236.613 73.1684Z" fill="#FABC43"/>
<path d="M246.137 72.5224C246.137 72.5224 263.142 68.1096 261.474 63.6969C259.805 59.2841 247.805 67.3562 246.137 72.5224Z" fill="#FABC43"/>
<path d="M255.662 73.4912C255.662 73.4912 270.569 69.6165 269.116 65.7419C267.663 61.8673 257.169 68.917 255.662 73.4912Z" fill="#FABC43"/>
<path d="M264.596 74.5137C264.596 74.5137 277.673 73.8141 277.134 70.3162C276.542 66.8183 266.587 70.962 264.596 74.5137Z" fill="#FABC43"/>
<path d="M234.943 73.222C234.943 73.222 252.648 81.5094 249.904 86.0298C247.159 90.4964 235.697 79.2492 234.943 73.222Z" fill="#FABC43"/>
<path d="M244.576 72.684C244.576 72.684 260.559 80.0565 258.137 84.0926C255.662 88.1287 245.276 78.0654 244.576 72.684Z" fill="#FABC43"/>
<path d="M256.415 73.0607C256.415 73.0607 269.277 81.5633 266.586 84.7383C263.949 87.9133 256.308 77.7963 256.415 73.0607Z" fill="#FABC43"/>
<path d="M264.811 74.5137C264.811 74.5137 276.488 80.5409 274.551 83.4469C272.56 86.4066 265.187 78.5498 264.811 74.5137Z" fill="#FABC43"/>
<path d="M270.568 76.3432C270.568 76.3432 281.439 83.6619 283.107 80.5407C284.775 77.3657 274.335 74.675 270.568 76.3432Z" fill="#FABC43"/>
<path d="M226.014 151.337C251.422 125.929 251.422 84.7354 226.014 59.3277C200.607 33.9199 159.413 33.92 134.005 59.3277C108.597 84.7354 108.597 125.929 134.005 151.337C159.413 176.745 200.607 176.745 226.014 151.337Z" fill="#92DEFF"/>
<path d="M226.014 151.337C251.422 125.929 251.422 84.7354 226.014 59.3277C200.607 33.9199 159.413 33.92 134.005 59.3277C108.597 84.7354 108.597 125.929 134.005 151.337C159.413 176.745 200.607 176.745 226.014 151.337Z" fill="#023E9F"/>
<path d="M183.875 40.3955C194.1 49.3286 200.557 62.4593 200.557 77.0967C200.557 104.058 178.709 125.906 151.748 125.906C137.111 125.906 123.98 119.448 115.047 109.224C117.092 143.342 145.344 170.41 180 170.41C215.948 170.41 245.062 141.297 245.062 105.349C245.062 70.6928 217.993 42.3866 183.875 40.3955Z" fill="#023EA1"/>
<path d="M212.933 49.2209C218.638 58.9075 221.866 70.1546 221.866 82.1552C221.866 118.103 192.753 147.216 156.805 147.216C144.805 147.216 133.504 143.934 123.871 138.283C135.172 157.495 156.052 170.41 179.999 170.41C215.947 170.41 245.06 141.297 245.06 105.349C245.06 81.4018 232.145 60.5219 212.933 49.2209Z" fill="#034B8B"/>
<path d="M243.714 118.533C237.417 115.52 231.552 112.883 234.458 109.816C238.763 105.188 240.054 113.044 244.575 113.206C244.898 110.623 245.059 107.986 245.059 105.349C245.059 80.7559 231.39 59.3379 211.264 48.3061C210.457 47.9832 209.649 47.6603 208.842 47.3374C200.662 50.7277 204.752 56.0553 206.959 57.0777C213.685 60.199 236.18 55.4633 220.305 66.3876C213.093 71.3385 203.568 70.908 206.636 77.7962C210.295 86.0297 215.461 84.5229 220.574 88.2361C225.74 92.0031 220.681 96.6311 212.932 93.4561C205.183 90.281 198.779 88.6666 191.675 98.1917C184.626 107.717 172.249 125.368 186.402 125.368C200.501 125.368 202.869 124.883 200.77 137.261C198.671 149.638 198.779 142.696 207.228 151.844C209.972 154.804 209.757 159.217 208.681 163.737C226.439 155.019 239.624 138.445 243.714 118.533Z" fill="#0181F7"/>
<path d="M169.345 137.422C169.345 137.422 172.466 134.301 160.035 127.736C147.604 121.116 151.909 121.547 144.482 123.861C137.11 126.175 135.173 126.982 126.993 118.426C118.867 109.869 130.114 111.053 139.047 111.43C147.98 111.807 135.926 100.936 146.42 95.8777C156.914 90.8192 154.976 86.5678 154.976 86.5678C164.286 86.9445 166.6 81.1326 161.165 76.8813C155.73 72.63 156.483 71.4461 149.918 61.7596C143.299 52.073 137.863 66.0109 132.051 70.316C129.899 71.8766 128.338 70.1546 127.208 67.3024C119.459 78.0114 114.885 91.1959 114.885 105.403C114.885 113.152 116.23 120.632 118.759 127.52C119.459 127.951 120.212 128.328 120.858 128.704C128.231 132.902 133.612 139.844 135.711 148.077C136.518 151.199 137.379 153.835 138.24 154.535C140.554 156.472 142.922 157.226 146.797 159.217C147.55 159.594 147.819 160.562 147.765 161.961C153.254 165.083 159.228 167.45 165.578 168.85C165.954 167.935 166.223 167.343 166.223 167.343C166.223 167.343 174.349 164.222 174.78 163.091C175.157 161.908 183.229 148.293 183.229 143.557C183.229 136.992 169.345 137.422 169.345 137.422Z" fill="#0181F7"/>
<path d="M190.278 41.0952C186.942 40.5571 183.444 40.288 179.946 40.288C173.058 40.288 166.439 41.3643 160.25 43.3554C161.326 44.8084 162.133 46.4766 162.295 48.3063C162.995 56.0555 166.654 59.8225 175.479 57.3471C181.184 55.7327 186.996 49.0597 190.278 41.0952Z" fill="#0181F7"/>
<path d="M201.044 136.029C201.044 136.029 199.053 118.001 183.285 116.548C183.285 116.548 185.276 125.266 191.142 129.141C197.008 133.015 199.537 133.446 201.044 136.029Z" fill="#FABC43"/>
<path d="M202.981 133.769C202.981 133.769 202.12 115.257 214.713 110.144C214.713 110.144 215.197 119.024 210.623 124.405C205.995 129.786 203.735 130.917 202.981 133.769Z" fill="#FABC43"/>
<path d="M202.983 144.801C202.875 144.801 202.822 144.693 202.822 144.639C202.23 131.563 190.014 122.037 189.906 121.93C189.852 121.876 189.799 121.768 189.852 121.661C189.906 121.607 190.014 121.553 190.121 121.607C190.229 121.715 202.606 131.293 203.198 144.586C203.198 144.693 203.144 144.801 202.983 144.801Z" fill="white"/>
<path d="M202.554 141.303C202.446 141.303 202.393 141.249 202.393 141.141C202.393 141.034 200.993 128.334 210.68 117.356C210.734 117.302 210.841 117.248 210.949 117.356C211.003 117.409 211.057 117.517 210.949 117.625C201.37 128.495 202.715 141.034 202.769 141.141C202.715 141.195 202.662 141.303 202.554 141.303Z" fill="white"/>
<path d="M231.5 141.835C231.554 141.835 231.608 141.781 231.661 141.781C231.554 141.943 231.5 141.996 231.5 141.996V141.835Z" fill="#5CADE5"/>
<path d="M143.114 98.0122C143.114 97.3664 141.661 96.8283 139.885 96.8283C138.109 96.8283 136.656 97.3664 136.656 98.0122C136.656 98.658 138.109 99.1961 139.885 99.1961C141.661 99.1961 143.114 98.658 143.114 98.0122Z" fill="#1AAA8E"/>
<path d="M139.133 91.1779C139.133 91.1779 139.294 77.2938 127.455 74.7646C127.455 74.7646 128.155 81.5452 132.245 85.0431C136.334 88.541 138.218 89.0791 139.133 91.1779Z" fill="#EC384E"/>
<path d="M140.803 89.671C140.803 89.671 141.879 75.5717 151.888 72.8272C151.888 72.8272 151.458 79.6078 147.476 83.2671C143.493 86.9265 141.61 87.5723 140.803 89.671Z" fill="#EC384E"/>
<path d="M139.781 98.0121C139.727 98.0121 139.673 97.9583 139.673 97.8506C140.427 87.8412 132.032 79.5539 131.978 79.4462C131.924 79.3924 131.924 79.2848 131.978 79.231C132.032 79.1772 132.139 79.1772 132.193 79.231C132.301 79.3386 140.75 87.7336 139.996 97.8506C139.942 97.9583 139.889 98.0121 139.781 98.0121Z" fill="white"/>
<path d="M139.725 95.3215C139.671 95.3215 139.617 95.2677 139.617 95.1601C139.617 95.0524 139.725 85.3121 148.12 77.8858C148.174 77.8319 148.281 77.8319 148.335 77.8858C148.389 77.9396 148.389 78.0472 148.335 78.101C140.048 85.4735 139.94 95.1063 139.94 95.2139C139.94 95.2677 139.832 95.3215 139.725 95.3215C139.779 95.3215 139.779 95.3215 139.725 95.3215Z" fill="white"/>
<path d="M177.741 49.6517C177.741 49.006 176.288 48.4678 174.512 48.4678C172.736 48.4678 171.283 49.006 171.283 49.6517C171.283 50.2975 172.736 50.8357 174.512 50.8357C176.288 50.8357 177.741 50.2975 177.741 49.6517Z" fill="#023E9F"/>
<path d="M173.864 43.8395C173.864 43.8395 173.972 32.2695 164.07 30.1169C164.07 30.1169 164.662 35.7674 168.106 38.7272C171.55 41.687 173.111 42.1175 173.864 43.8395Z" fill="#EC384E"/>
<path d="M175.264 42.6019C175.264 42.6019 176.125 30.8166 184.52 28.5026C184.52 28.5026 184.143 34.2069 180.807 37.2205C177.47 40.2879 175.963 40.826 175.264 42.6019Z" fill="#EC384E"/>
<path d="M174.405 49.5975C174.351 49.5975 174.297 49.5437 174.297 49.4899C174.943 41.1487 167.947 34.2067 167.839 34.0991C167.785 34.0453 167.785 33.9915 167.839 33.9376C167.893 33.8838 167.947 33.8838 168.001 33.9376C168.054 33.9915 175.158 41.0411 174.512 49.4899C174.566 49.5437 174.512 49.5975 174.405 49.5975Z" fill="white"/>
<path d="M174.403 47.3374C174.349 47.3374 174.295 47.2836 174.295 47.2298C174.295 47.1222 174.403 38.9962 181.398 32.7538C181.452 32.7 181.506 32.7 181.56 32.7538C181.614 32.8076 181.614 32.8614 181.56 32.9152C174.672 39.1039 174.564 47.1222 174.564 47.176C174.51 47.2836 174.456 47.3374 174.403 47.3374Z" fill="white"/>
<path d="M231.846 142.994C231.989 143.351 232.275 143.709 232.562 144.066C232.705 144.424 232.992 144.853 233.278 145.21C233.708 145.997 234.138 146.854 234.568 147.641C235.356 149.213 236.072 150.858 236.574 152.502L236.717 153.145C236.717 153.145 236.717 153.145 236.717 153.074V153.002C236.717 153.002 236.717 152.931 236.788 152.859C236.788 152.788 236.86 152.716 236.86 152.716C236.932 152.573 237.003 152.43 237.218 152.359C237.505 152.216 237.576 152.216 237.505 152.287C237.433 152.359 237.147 152.359 236.788 152.359C236.43 152.359 236 152.359 235.499 152.287C233.78 152.001 231.917 151.572 230.126 151.144L229.052 153.431C229.911 154.003 230.843 154.503 231.774 154.861C232.634 155.29 233.637 155.719 234.639 156.005C235.212 156.148 235.714 156.362 236.215 156.434C236.502 156.505 236.86 156.505 237.218 156.505C237.576 156.505 237.935 156.505 238.364 156.434C238.794 156.362 239.367 156.291 239.94 155.719C240.227 155.576 240.442 155.147 240.728 154.861C240.8 154.718 240.872 154.503 241.015 154.289C241.087 154.146 241.087 153.932 241.158 153.717V153.431V153.288C241.158 153.145 241.158 153.002 241.158 152.859C241.158 152.716 241.158 152.573 241.158 152.502V152.359V152.287L241.015 151.501C240.872 150.429 240.442 149.356 240.155 148.356C239.797 147.355 239.439 146.425 239.009 145.496C238.579 144.567 238.15 143.637 237.576 142.78C237.29 142.351 237.003 141.922 236.788 141.421C236.574 140.921 236.215 140.564 235.929 140.063L231.846 142.994Z" fill="#FFBE9D"/>
<path d="M230.845 143.495C231.203 144.281 231.49 145.067 231.848 145.782C232.421 147.069 232.994 148.07 233.424 148.928C233.782 149.643 234.068 150 234.068 150L240.516 146.783C240.516 146.783 237.937 139.277 235.215 138.491C232.349 137.704 229.412 139.92 230.845 143.495Z" fill="#F79F03"/>
<path d="M228.263 161.938C228.263 161.938 230.556 182.455 232.06 189.889C233.708 198.11 244.668 224.489 244.668 224.489L249.969 223.345C247.318 214.195 243.522 197.181 241.086 190.676C239.295 180.811 241.301 168.372 238.65 160.723L228.263 161.938Z" fill="#0054A3"/>
<path d="M222.817 162.582C222.817 162.582 221.385 184.456 221.17 192.392C220.955 200.684 223.032 225.275 223.032 225.275H228.118C228.118 225.275 230.267 202.471 229.264 191.391C230.554 182.955 233.348 161.295 233.348 161.295L222.817 162.582Z" fill="#0181F7"/>
<path d="M244.955 224.275L249.826 223.131C249.969 223.059 250.112 223.131 250.184 223.417L251.76 226.777C251.975 227.063 251.76 227.42 251.402 227.634H251.33C249.683 227.92 248.536 228.206 246.459 228.564C245.17 228.778 241.445 229.779 239.797 230.208C238.078 230.637 237.505 228.993 238.221 228.707C241.158 227.277 243.379 225.847 244.167 224.704C244.382 224.632 244.596 224.489 244.955 224.275Z" fill="#170856"/>
<path d="M223.106 225.347H228.12C228.335 225.347 228.407 225.418 228.407 225.704L229.123 229.279C229.123 229.636 228.98 229.922 228.622 229.993H228.55C226.902 229.922 225.756 229.922 223.607 229.85C222.318 229.779 218.378 229.922 216.73 229.85C215.083 229.779 214.796 228.135 215.584 227.992C218.808 227.348 221.243 226.491 222.318 225.561C222.604 225.418 222.891 225.347 223.106 225.347Z" fill="#170856"/>
<path d="M218.016 125.766C218.016 125.766 218.947 134.201 220.881 136.274C221.956 137.99 225.394 136.274 225.394 136.274L226.254 139.634L230.695 138.062L226.97 124.836L218.016 125.766Z" fill="#FFBE9D"/>
<path d="M230.266 134.702C229.908 135.345 229.12 135.631 228.404 135.631C227.329 135.559 226.255 134.916 225.395 134.559C225.18 134.487 225.037 134.344 224.894 134.273C224.392 133.987 223.389 133.629 223.246 132.771C223.246 132.271 223.533 131.914 223.604 131.413C223.676 130.984 223.461 130.484 223.031 130.412C222.315 130.126 221.742 130.841 221.885 131.413C221.957 131.628 222.028 131.914 221.885 131.985C221.67 132.057 221.527 131.914 221.384 131.771C221.169 131.342 221.026 130.841 220.882 130.341C220.811 129.84 220.524 129.34 220.023 129.054C219.736 128.84 219.378 128.911 219.02 128.911C218.805 128.911 218.733 128.911 218.59 128.911C217.587 128.911 216.656 128.268 216.369 127.267C216.083 126.266 216.727 125.337 216.727 125.337C216.727 125.337 216.584 123.836 218.303 123.55C220.238 123.335 220.452 123.979 222.888 122.978C224.607 122.263 226.541 123.836 226.541 123.836C228.046 123.407 228.762 124.336 228.762 124.336C229.55 124.836 229.837 125.909 229.98 126.838C230.123 127.839 229.98 128.768 230.123 129.697C230.195 130.627 230.41 131.485 230.553 132.342C230.696 133.272 230.696 134.201 230.266 134.987" fill="#170856"/>
<path d="M232.634 139.706C232.706 138.777 232.634 137.275 231.918 137.061C231.202 136.846 226.689 137.132 224.396 138.92C225.184 140.349 225.113 141.779 225.113 141.779L232.634 139.706Z" fill="#F79F03"/>
<path opacity="0.2" d="M233.418 142.637L236.785 148.427L236.499 148.642C236.499 148.642 235.209 147.355 233.705 145.568L233.418 142.637Z" fill="black"/>
<path d="M220.313 151.93C220.886 154.789 221.746 158.364 222.82 162.724L238.58 160.794C238.437 158.793 236.144 150 236.718 140.563C236.789 139.277 235.571 138.204 234.067 138.204C233.351 138.204 232.419 138.276 231.631 138.347C229.626 138.49 226.689 138.776 224.969 139.205C222.534 139.634 220.528 140.492 220.528 140.492C220.528 140.492 219.382 141.85 219.955 147.998C220.17 149.07 220.241 150.357 220.313 151.93Z" fill="#0083F9"/>
<path d="M220.313 151.93C220.886 154.789 221.746 158.364 222.82 162.724L238.58 160.794C238.437 158.793 236.144 150 236.718 140.563C236.789 139.277 235.571 138.204 234.067 138.204C233.351 138.204 232.419 138.276 231.631 138.347C229.626 138.49 226.689 138.776 224.969 139.205C222.534 139.634 220.528 140.492 220.528 140.492C220.528 140.492 219.382 141.85 219.955 147.998C220.17 149.07 220.241 150.357 220.313 151.93Z" fill="#FCBE42"/>
<path d="M219.094 142.994C218.951 143.28 218.736 143.638 218.449 144.067C218.163 144.424 217.876 144.781 217.661 145.21C217.088 145.925 216.587 146.712 215.942 147.498C214.796 148.928 213.506 150.357 212.217 151.644C211.859 151.93 211.572 152.216 211.214 152.43L211.142 152.573H211.071C211.142 152.573 211.214 152.573 211.214 152.502C211.357 152.502 211.572 152.502 211.572 152.502C211.644 152.573 211.429 152.502 211.142 152.359C210.856 152.216 210.498 151.93 210.283 151.644C208.993 150.5 207.847 148.856 206.701 147.355L204.48 148.427C204.838 149.499 205.197 150.429 205.626 151.358C205.77 151.859 206.056 152.359 206.343 152.788C206.629 153.217 206.916 153.789 207.202 154.218C207.489 154.647 207.919 155.075 208.492 155.647C208.778 155.79 209.065 156.076 209.351 156.362C209.71 156.505 210.068 156.791 210.641 156.934C211.214 157.077 211.787 157.077 212.432 156.934C212.79 156.863 213.076 156.791 213.291 156.577L213.363 156.505L213.65 156.219L213.793 156.148C214.294 155.79 214.796 155.504 215.225 155.147C217.016 153.717 218.521 152.216 219.882 150.572C220.598 149.785 221.243 148.928 221.816 148.07C222.174 147.641 222.461 147.212 222.676 146.712C222.962 146.283 223.249 145.854 223.535 145.139L219.094 142.994Z" fill="#FFBE9D"/>
<path d="M206.773 147.14L205.054 144.638L202.977 147.641C202.977 147.641 204.553 149.071 205.985 148.928L206.773 147.14Z" fill="#FFBE9D"/>
<path d="M201.758 143.423L201.256 146.283L202.975 147.641L205.053 144.638L201.758 143.423Z" fill="#FFBE9D"/>
<path d="M225.613 143.28C225.541 146.14 219.739 152.573 219.739 152.573L213.578 148.57C213.578 148.57 215.584 144.924 218.019 142.279C221.888 138.276 225.828 139.849 225.613 143.28Z" fill="#F79F03"/>
<path d="M116.624 122.728L109.967 178.096L105.212 177.621L104.525 121.289L116.624 122.728Z" fill="#EE384E"/>
<path d="M109.373 122.728L121.868 178.096L126.636 177.621L123.36 121.289L109.373 122.728Z" fill="#DE051F"/>
<path d="M118.38 81.803C118.38 81.803 119.793 83.6059 119.866 86.822C119.932 90.0382 119.529 92.3364 118.156 92.3628C116.782 92.3892 114.008 91.5307 113.526 90.6259C113.044 89.7212 112.133 89.7344 112.086 87.9051C112.047 86.0692 114.246 81.8888 116.082 81.8492C117.924 81.8228 118.38 81.803 118.38 81.803Z" fill="#FFBE9B"/>
<path d="M112.787 88.1229C112.787 88.1229 112.378 90.4211 111.506 92.7391C110.641 95.0505 110.205 95.9817 110.205 95.9817C110.205 95.9817 113.032 99.1318 115.772 98.6167C118.513 98.1016 118.473 96.2657 118.473 96.2657C118.473 96.2657 115.904 94.258 115.845 91.5042C115.785 88.7569 115.785 88.7569 115.785 88.7569L112.787 88.1229Z" fill="#FEBE9A"/>
<path d="M119.761 81.7767C119.761 81.7767 121.055 78.0784 120.124 77.6426C119.193 77.2001 117.383 78.1577 116.934 78.6332C116.485 79.1021 115.574 79.1219 115.105 79.1285C115.105 79.1285 110.522 79.2275 109.624 80.1653C108.726 81.1031 108.732 81.5587 108.745 82.021C108.752 82.4767 108.792 84.273 108.356 85.2438C108.164 85.6598 107.946 87.542 108.904 89.3647C109.861 91.1742 110.793 91.6166 111.248 91.61C111.704 91.6034 112.127 91.5902 112.153 91.1279C112.193 90.6326 112.358 89.9326 112.569 89.2854C112.774 88.6712 112.985 87.4429 112.985 87.4429C112.985 87.4429 113.395 85.1447 114.286 84.2003C115.178 83.256 115.184 83.2626 117.007 82.7607C118.836 82.2522 119.332 83.1635 119.761 81.7767Z" fill="#160C56"/>
<path d="M113.646 85.2642C114.346 86.0303 113.455 87.4237 113.455 87.4237C113.455 87.4237 112.094 87.9124 112.061 86.5322C112.035 85.1585 112.953 84.4915 113.646 85.2642Z" fill="#FFBE9B"/>
<path d="M125.591 101.179L129.758 106.826C129.758 106.826 130.056 107.123 130.353 106.826C130.65 106.529 135.702 100.281 135.999 99.3897C136.296 98.4981 135.999 97.6066 136.891 96.1141C137.782 94.6216 138.674 94.0272 138.674 94.0272C138.674 94.0272 139.565 93.4328 139.268 94.3244C138.971 95.2159 138.674 96.1075 139.268 96.4113C139.863 96.715 144.617 97.6 144.617 97.6C144.617 97.6 139.856 99.0859 138.661 100.876C137.472 102.659 134.196 108.609 132.704 110.095C131.218 111.581 129.725 112.479 128.834 111.581C127.942 110.689 121.992 104.739 121.992 104.739L125.591 101.179Z" fill="#FFBE9B"/>
<path d="M105.219 181.24C105.219 181.24 104.955 181.986 106.501 181.98C108.046 181.966 116.44 181.894 116.44 181.894C116.44 181.894 118.051 181.557 116.552 180.844C115.053 180.13 110.555 178.156 110.555 178.156C110.555 178.156 110.212 178.063 110.212 177.205L105.127 177.251L105.219 181.24Z" fill="#170856"/>
<path d="M121.614 181.24C121.614 181.24 121.35 181.986 122.895 181.98C124.44 181.966 132.834 181.894 132.834 181.894C132.834 181.894 134.446 181.557 132.946 180.844C131.447 180.137 126.95 178.156 126.95 178.156C126.95 178.156 126.607 178.063 126.607 177.205L121.521 177.251L121.614 181.24Z" fill="#170856"/>
<path d="M116.925 95.0904C116.925 95.0904 117.42 94.681 117.988 95.1366C118.556 95.5857 120.544 97.0584 121.515 98.9405C122.479 100.829 122.816 103.451 123.146 109.566C123.483 115.688 123.43 122.305 123.43 122.305L104.47 122.722C104.47 122.722 103.869 111.587 105.659 104.745C107.448 97.9037 110.123 95.5263 110.717 95.2291C111.312 94.9319 111.906 95.5263 111.906 95.5263C111.906 95.5263 114.515 97.9169 116.925 95.0904Z" fill="#FCBE42"/>
<path d="M144.169 231L136.191 193.905L133.702 182.348H102.293L113.54 231" stroke="#96AABE" stroke-width="1.77967" stroke-miterlimit="10"/>
<path d="M105.027 194.17L136.192 193.906" stroke="#96AABE" stroke-width="1.77967" stroke-miterlimit="10"/>
<path d="M107.652 205.575L138.638 205.311" stroke="#96AABE" stroke-width="1.77967" stroke-miterlimit="10"/>
<path d="M110.357 217.659L141.238 217.395" stroke="#96AABE" stroke-width="1.77967" stroke-miterlimit="10"/>
<path d="M91.541 231L99.5253 193.905L102.015 182.348H133.41L122.17 231" stroke="#023E9F" stroke-width="1.77967" stroke-miterlimit="10"/>
<path d="M130.683 194.169L99.5254 193.905" stroke="#023E9F" stroke-width="1.77967" stroke-miterlimit="10"/>
<path d="M128.063 205.575L97.0703 205.311" stroke="#023E9F" stroke-width="1.77967" stroke-miterlimit="10"/>
<path d="M125.354 217.66L94.4668 217.396" stroke="#023E9F" stroke-width="1.77967" stroke-miterlimit="10"/>
<path d="M126.483 101.476C126.483 101.476 123.802 97.6061 120.836 96.4174C117.871 95.2287 116.372 97.6061 117.858 99.9902C119.344 102.374 122.025 105.637 122.025 105.637L126.483 101.476Z" fill="#F79F03"/>
<path d="M252.785 202.085C252.785 202.085 254.555 201.336 254.419 199.362C254.283 197.319 253.262 195.89 255.372 196.502C257.551 197.115 258.232 197.319 259.798 197.047C261.363 196.707 262.657 196.094 261.976 198.068C261.295 200.111 260.546 201.745 262.18 202.085C263.814 202.425 265.516 201.2 265.72 204.332C265.925 207.463 263.406 211.071 259.253 211.14C255.168 211.276 253.33 209.574 253.33 209.574C253.33 209.574 252.241 208.008 253.943 207.599C255.645 207.191 257.415 206.51 256.53 205.693C255.645 204.876 252.785 204.808 252.785 204.808C252.785 204.808 249.177 204.195 252.785 202.085Z" fill="#649CE8"/>
<path d="M271.575 202.63C271.303 200.587 271.507 199.158 275.251 198.613C278.996 198.068 281.174 200.315 281.379 202.63C281.583 204.944 278.383 205.761 278.383 205.761C278.383 205.761 276.068 206.442 277.226 208.416C278.383 210.459 278.928 212.365 276.273 212.705C273.618 212.978 270.69 212.297 269.056 211.208C267.422 210.118 265.788 207.395 267.626 205.966C267.626 205.966 268.171 205.625 269.941 205.489C271.779 205.421 271.575 202.63 271.575 202.63Z" fill="#023E9F"/>
<path d="M258.438 202.29C258.438 202.29 261.569 209.302 261.978 214.067" stroke="#023E9F" stroke-width="0.510779" stroke-miterlimit="10"/>
<path d="M275.661 203.447C275.661 203.447 270.147 211.617 268.854 214.34" stroke="#649CE8" stroke-width="0.510779" stroke-miterlimit="10"/>
<path d="M260 213.523H272.595C272.595 213.523 273.957 213.591 273.889 215.497C273.82 217.267 271.574 216.859 270.416 216.859C269.259 216.859 259.728 216.859 259.728 216.859C259.728 216.859 258.162 217.131 258.162 215.361C258.23 213.659 258.775 213.523 260 213.523Z" fill="#0055A2"/>
<path d="M259.799 216.859L261.705 228.024H270.147L271.577 219.65L259.799 216.859Z" fill="#0055A2"/>
<path d="M259.799 216.859L271.577 219.65L272.053 216.859H259.799Z" fill="#016AD3"/>
<path d="M265.178 213.931C265.178 213.931 265.79 201.54 269.535 193.779" stroke="#FABC43" stroke-width="0.510779" stroke-miterlimit="10"/>
<path d="M272.597 189.354C272.597 189.354 272.869 193.167 269.193 194.665C269.193 194.665 268.376 191.397 272.597 189.354Z" fill="#FABC43"/>
<path d="M267.012 201.473C267.012 201.473 268.373 198.205 272.594 198.681C272.594 198.613 272.254 201.881 267.012 201.473Z" fill="#FABC43"/>
<path d="M265.65 209.574C265.65 209.574 266.331 206.102 270.552 205.762C270.552 205.762 270.824 208.961 265.65 209.574Z" fill="#FABC43"/>
<path d="M265.449 209.642C265.449 209.642 265.926 206.17 262.113 204.4C262.113 204.332 260.751 207.328 265.449 209.642Z" fill="#FABC43"/>
<path d="M267.083 201.405C267.083 201.405 268.036 198.001 264.428 195.754C264.428 195.754 262.658 198.545 267.083 201.405Z" fill="#FABC43"/>
<path d="M206.141 1L201.854 2.22501L203.079 6.5126L207.366 5.28757L206.141 1Z" fill="#FABC43"/>
<path d="M144.249 22.3953L139.961 23.6203L141.186 27.9079L145.474 26.6829L144.249 22.3953Z" fill="#023EA1"/>
<path d="M268.754 131.173C268.448 131.617 268.141 131.987 267.758 132.357L268.141 133.688L265.88 134.797L264.884 133.688C264.347 133.836 263.811 133.836 263.274 133.836L262.508 135.093L260.093 134.427L260.246 133.022C259.787 132.726 259.403 132.43 259.02 132.061L257.564 132.43L256.414 130.323L257.564 129.361C257.41 128.843 257.41 128.326 257.41 127.808L256.107 127.068L256.797 124.739L258.254 124.887C258.56 124.443 258.867 124.073 259.25 123.703L258.867 122.372L261.051 121.263L262.048 122.372C262.584 122.224 263.121 122.224 263.657 122.224L264.424 120.967L266.838 121.632L266.685 123.112C267.145 123.407 267.528 123.703 267.911 124.073L269.291 123.703L270.441 125.811L269.444 126.773C269.674 127.29 269.674 127.808 269.674 128.326L270.977 129.065L270.287 131.321L268.754 131.173ZM266.187 128.88C266.647 127.549 265.803 126.107 264.5 125.737C263.121 125.293 261.626 126.107 261.243 127.364C260.783 128.696 261.626 130.138 262.929 130.508C264.232 130.951 265.727 130.212 266.187 128.88Z" fill="#EE384E"/>
</svg>
