<svg width="230" height="230" viewBox="0 0 230 230" fill="none" xmlns="http://www.w3.org/2000/svg">
<path d="M83.9295 28.6365C83.9295 28.6365 80.5134 31.4495 83.7343 32.7105C87.0527 33.9715 88.3215 35.5235 86.6623 38.6275C84.8079 41.7315 85.3935 44.1565 87.0527 45.3205C88.9071 46.4845 92.3231 48.2305 89.5903 52.2075C86.8575 56.2815 82.3679 64.4295 77.5855 62.1985C72.7055 59.9675 70.3631 52.0135 72.3151 48.9095C74.2671 45.8055 77.4879 44.9325 75.8287 41.3435C74.3647 37.7545 70.9487 39.5005 70.8511 35.3295C70.7535 31.0615 70.1679 26.6965 76.1215 25.3385C81.1967 24.0775 85.2959 26.5995 83.9295 28.6365Z" stroke="#1C4599" stroke-miterlimit="10"/>
<path d="M79.2441 31.3525C79.2441 31.3525 79.8297 58.2215 81.3913 64.9145" stroke="#1C4599" stroke-miterlimit="10"/>
<path d="M85.2958 48.3276L80.123 53.1776L74.9502 50.3646" stroke="#1C4599" stroke-miterlimit="10"/>
<path d="M83.8317 35.8145L79.6349 38.8215L74.8525 36.9785" stroke="#1C4599" stroke-miterlimit="10"/>
<path d="M95.3491 28.9277C95.3491 28.9277 103.547 31.4497 101.303 35.1357C98.8627 38.7247 100.229 40.2767 101.888 41.6347C103.352 42.9927 107.159 44.5447 104.328 48.2307C101.498 51.9167 98.6675 52.6927 98.8627 55.2147C99.0579 57.7367 96.4227 67.9217 92.6163 65.5937C88.7123 63.3627 88.4195 57.2517 89.0051 54.5357C89.5907 52.0137 87.1507 49.1037 84.9059 47.1637C82.6611 45.3207 81.3922 41.6347 84.8082 40.4707C88.3219 39.2097 89.981 35.6207 88.9074 33.0987C87.3458 30.7707 89.7859 27.3757 95.3491 28.9277Z" fill="#FABD41"/>
<path d="M94.5679 34.4565L90.4688 68.8915" stroke="white" stroke-miterlimit="10" stroke-linecap="round" stroke-linejoin="round"/>
<path d="M100.326 45.0297L92.8107 48.4247L86.3691 42.9927" stroke="white" stroke-miterlimit="10" stroke-linecap="round" stroke-linejoin="round"/>
<path d="M56.8944 33.6803C56.8944 33.6803 53.576 31.2553 55.7232 28.4423C57.7728 25.6293 63.0432 25.6293 64.1168 28.3453C65.288 30.8673 63.7264 32.8073 66.0688 33.1953C68.3136 33.5833 74.4624 35.6203 73.2912 38.5303C72.0224 41.4403 68.4112 41.6343 69.9728 45.5143C71.4368 49.3943 79.0496 50.0733 75.1456 55.5053C71.2416 60.8403 62.1648 68.2123 57.48 58.9973C52.9904 49.7823 62.9456 51.6253 57.5776 45.7083C52.2096 39.7913 56.6992 39.5973 58.1632 37.3663C59.5296 34.8443 56.8944 33.6803 56.8944 33.6803Z" fill="#ED3B4E"/>
<path d="M63.043 37.0752C63.043 37.0752 63.6286 47.7452 67.3374 56.5722C71.0462 65.3992 73.3886 66.5632 73.3886 66.5632" stroke="white" stroke-miterlimit="10" stroke-linecap="round" stroke-linejoin="round"/>
<path d="M47.3229 55.1364C47.5243 54.4314 47.625 53.6256 47.625 52.8199C47.625 47.1797 42.992 42.446 37.2511 42.446C36.3447 42.446 35.4382 42.5467 34.5318 42.8489C32.8196 39.8273 29.5966 37.813 25.87 37.813C20.6327 37.813 16.3019 41.9424 15.9997 47.079C15.4961 46.9783 14.9926 46.9783 14.489 46.9783C10.2588 46.9783 6.93516 50.1005 6.43157 54.1292C4.01435 54.1292 2 56.1436 2 58.6615C2 61.1794 4.01435 63.1938 6.53229 63.1938H44.4021C46.92 63.1938 48.9343 61.1794 48.9343 58.6615C49.0351 57.1507 48.33 55.9421 47.3229 55.1364Z" stroke="#003EAE" stroke-width="0.370285" stroke-miterlimit="10"/>
<path d="M19.7256 70.7476V81.2222" stroke="#003EAE" stroke-width="0.370285" stroke-miterlimit="10"/>
<path d="M19.7256 64.5029V68.6323" stroke="#003EAE" stroke-width="0.370285" stroke-miterlimit="10"/>
<path d="M19.7256 60.5752V62.791" stroke="#003EAE" stroke-width="0.370285" stroke-miterlimit="10"/>
<path d="M17.8115 80.0137L19.7252 82.4309L21.7395 80.0137" stroke="#003EAE" stroke-width="0.370285" stroke-miterlimit="10"/>
<path d="M26.4727 75.1792V85.6538" stroke="#003EAE" stroke-width="0.370285" stroke-miterlimit="10"/>
<path d="M26.4727 68.9346V73.1647" stroke="#003EAE" stroke-width="0.370285" stroke-miterlimit="10"/>
<path d="M26.4727 65.1074V67.3232" stroke="#003EAE" stroke-width="0.370285" stroke-miterlimit="10"/>
<path d="M24.459 84.4453L26.4733 86.9632L28.4877 84.4453" stroke="#003EAE" stroke-width="0.370285" stroke-miterlimit="10"/>
<path d="M32.8184 66.4165V76.8911" stroke="#003EAE" stroke-width="0.370285" stroke-miterlimit="10"/>
<path d="M32.8184 60.1719V64.402" stroke="#003EAE" stroke-width="0.370285" stroke-miterlimit="10"/>
<path d="M32.8184 56.2441V58.5606" stroke="#003EAE" stroke-width="0.370285" stroke-miterlimit="10"/>
<path d="M30.8047 75.6826L32.819 78.0998L34.7327 75.6826" stroke="#003EAE" stroke-width="0.370285" stroke-miterlimit="10"/>
<path d="M183.494 148.602C183.293 147.897 183.192 147.091 183.192 146.286C183.192 140.646 187.825 135.912 193.566 135.912C194.472 135.912 195.379 136.013 196.285 136.315C197.997 133.293 201.22 131.279 204.947 131.279C210.184 131.279 214.515 135.408 214.817 140.545C215.321 140.444 215.824 140.444 216.328 140.444C220.558 140.444 223.882 143.566 224.385 147.595C226.803 147.595 228.817 149.609 228.817 152.127C228.817 154.645 226.803 156.66 224.285 156.66H186.415C183.897 156.66 181.883 154.645 181.883 152.127C181.681 150.717 182.487 149.408 183.494 148.602Z" stroke="#EE384E" stroke-width="0.370285" stroke-miterlimit="10"/>
<path d="M209.379 160.487V150.012" stroke="#EE384E" stroke-width="0.370285" stroke-miterlimit="10"/>
<path d="M209.379 166.731V162.602" stroke="#EE384E" stroke-width="0.370285" stroke-miterlimit="10"/>
<path d="M209.379 170.66V168.444" stroke="#EE384E" stroke-width="0.370285" stroke-miterlimit="10"/>
<path d="M211.293 151.322L209.38 148.804L207.365 151.322" stroke="#EE384E" stroke-width="0.370285" stroke-miterlimit="10"/>
<path d="M202.631 156.055V145.581" stroke="#EE384E" stroke-width="0.370285" stroke-miterlimit="10"/>
<path d="M202.631 162.299V158.069" stroke="#EE384E" stroke-width="0.370285" stroke-miterlimit="10"/>
<path d="M202.631 166.228V163.911" stroke="#EE384E" stroke-width="0.370285" stroke-miterlimit="10"/>
<path d="M204.646 146.789L202.632 144.372L200.617 146.789" stroke="#EE384E" stroke-width="0.370285" stroke-miterlimit="10"/>
<path d="M196.285 164.817V154.343" stroke="#EE384E" stroke-width="0.370285" stroke-miterlimit="10"/>
<path d="M196.285 171.062V166.933" stroke="#EE384E" stroke-width="0.370285" stroke-miterlimit="10"/>
<path d="M196.285 174.99V172.674" stroke="#EE384E" stroke-width="0.370285" stroke-miterlimit="10"/>
<path d="M198.3 155.552L196.286 153.134L194.372 155.552" stroke="#EE384E" stroke-width="0.370285" stroke-miterlimit="10"/>
<path d="M192.036 32C193.547 32 195.057 32 196.568 32C196.568 32 196.669 32 196.77 32.1007C197.877 32.3022 198.381 32.9065 198.582 34.0143C198.683 35.0215 198.885 36.1294 198.985 37.1366C199.086 37.6402 199.892 37.9423 200.395 37.6402C201.201 37.0359 202.108 36.2301 203.014 35.6258C204.021 34.9208 205.129 34.9208 206.036 35.7265C206.942 36.633 207.949 37.6402 208.856 38.6474C209.661 39.4531 209.661 40.6617 208.956 41.6689C208.453 42.3739 207.848 43.2804 207.244 43.9854C206.841 44.3882 206.741 44.7911 207.143 45.3954C207.244 45.4961 207.345 45.6976 207.546 45.6976C208.553 45.7983 209.762 45.9997 210.769 46.1004C211.575 46.2012 212.28 46.604 212.481 47.4098C212.582 47.6112 212.582 47.8126 212.683 48.1148C212.683 49.6256 212.683 51.1363 212.683 52.7478C212.683 52.8485 212.582 52.9492 212.582 53.0499C212.28 53.9564 211.776 54.5607 210.769 54.6614C209.762 54.7621 208.654 54.9636 207.647 55.0643C207.143 55.0643 206.741 55.9708 207.143 56.4743C207.748 57.2801 208.553 58.2873 209.158 59.093C209.863 59.9995 209.762 61.2081 209.057 62.1145C208.151 63.1217 207.143 64.1289 206.136 65.0353C205.331 65.8411 204.122 65.8411 203.115 65.136C202.208 64.5317 201.302 63.726 200.395 63.1217C200.093 62.8195 199.086 63.1217 198.985 63.6253C198.885 64.7332 198.683 65.8411 198.482 66.949C198.381 67.7547 197.877 68.4597 196.971 68.6612C196.87 68.6612 196.669 68.7619 196.467 68.8626C194.856 68.8626 193.345 68.8626 191.834 68.8626C191.834 68.8626 191.734 68.8626 191.734 68.7619C190.726 68.5604 190.122 67.9561 189.921 66.8482C189.82 65.8411 189.619 64.7332 189.518 63.8267C189.417 63.3231 188.611 62.9203 188.007 63.3231C187.201 63.9274 186.295 64.7332 185.388 65.2368C184.381 65.9418 183.273 65.9418 182.367 65.136C181.46 64.3303 180.554 63.3231 179.547 62.316C178.741 61.5102 178.741 60.3016 179.446 59.2944C179.95 58.5894 180.554 57.683 181.158 56.9779C181.561 56.5751 181.561 56.0715 181.259 55.5679C181.158 55.4672 181.058 55.2657 180.957 55.2657C179.95 55.165 178.842 54.9636 177.935 54.8629C176.525 54.7621 175.82 53.9564 175.82 52.5464C175.82 51.1363 175.82 49.827 175.82 48.4169C175.82 47.1076 176.525 46.3019 177.734 46.2012C178.741 46.1004 179.849 45.899 180.856 45.7983C181.36 45.7983 181.662 44.8918 181.36 44.3882C180.755 43.5825 179.95 42.5753 179.345 41.7696C178.64 40.8631 178.64 39.6545 179.446 38.7481C180.353 37.8416 181.36 36.8344 182.367 35.8273C183.173 35.0215 184.381 35.0215 185.388 35.7265C186.295 36.3308 187.201 37.1366 188.108 37.7409C188.41 38.043 189.417 37.7409 189.518 37.2373C189.619 36.2301 189.82 35.0215 190.021 34.0143C190.122 33.1079 190.626 32.5036 191.532 32.3022C191.633 32.1007 191.834 32.1007 192.036 32ZM207.143 40.4603C206.237 39.5538 205.331 38.5466 204.323 37.6402C203.014 38.5466 201.805 39.5538 200.496 40.4603C200.295 40.561 200.093 40.561 199.892 40.4603C199.086 40.0574 198.18 39.7552 197.374 39.3524C197.072 39.2517 196.87 39.0502 196.87 38.7481C196.669 37.2373 196.467 35.7265 196.266 34.2158C196.266 34.0143 196.165 33.9136 195.964 33.9136C194.957 33.9136 193.849 33.9136 192.842 33.9136C192.539 33.9136 192.539 34.0143 192.439 34.2158C192.237 35.7265 192.036 37.2373 191.834 38.7481C191.834 39.0502 191.734 39.1509 191.331 39.2517C190.525 39.5538 189.619 39.856 188.813 40.2588C188.511 40.3595 188.309 40.3595 188.108 40.2588C186.799 39.3524 185.59 38.3452 184.381 37.5395C183.475 38.4459 182.468 39.4531 181.561 40.3595C181.561 40.4603 181.662 40.561 181.763 40.6617C182.568 41.7696 183.475 42.8775 184.281 43.9854C184.381 44.0861 184.381 44.2875 184.381 44.489C183.978 45.3954 183.576 46.4026 183.072 47.3091C183.072 47.4098 182.871 47.6112 182.77 47.6112C181.964 47.7119 181.058 47.8126 180.252 47.9134C179.446 48.0141 178.54 48.1148 177.734 48.2155C177.734 49.6256 177.734 50.8342 177.734 52.1435C177.835 52.1435 178.036 52.2442 178.238 52.2442C179.748 52.4456 181.158 52.6471 182.669 52.8485C182.971 52.8485 183.072 52.9492 183.173 53.2514C183.475 54.0571 183.777 54.9636 184.18 55.7693C184.281 56.0715 184.281 56.2729 184.18 56.5751C183.273 57.8844 182.266 59.093 181.46 60.3016C182.367 61.2081 183.273 62.1145 184.281 63.1217C184.381 63.1217 184.482 63.021 184.683 62.8195C185.791 62.0138 187 61.1073 188.007 60.3016C188.108 60.2009 188.309 60.2009 188.511 60.2009C189.417 60.503 190.324 61.0066 191.331 61.3088C191.633 61.4095 191.734 61.5102 191.734 61.8124C191.935 63.3231 192.137 64.8339 192.338 66.3447C192.338 66.6468 192.439 66.7475 192.741 66.7475C193.748 66.7475 194.856 66.7475 195.762 66.7475C196.065 66.7475 196.165 66.6468 196.165 66.3447C196.367 64.8339 196.568 63.3231 196.77 61.7116C196.77 61.5102 196.87 61.3088 197.072 61.2081C197.978 60.9059 198.985 60.4023 199.892 60.1002C199.992 60.1002 200.194 60.1002 200.395 60.1002C201.503 60.9059 202.712 61.8124 203.82 62.6181C203.92 62.7188 204.122 62.8195 204.122 62.8195C205.028 61.9131 206.036 60.9059 206.942 59.9995C206.942 59.8987 206.841 59.798 206.741 59.6973C205.935 58.5894 205.028 57.4815 204.223 56.3736C204.122 56.2729 204.122 56.0715 204.122 55.9708C204.525 55.0643 204.928 53.9564 205.431 53.0499C205.431 52.9492 205.633 52.8485 205.733 52.8485C206.338 52.7478 207.043 52.6471 207.647 52.6471C208.654 52.5464 209.762 52.3449 210.769 52.2442C210.769 50.8342 210.769 49.6256 210.769 48.3162C209.057 48.1148 207.546 47.8126 205.834 47.6112C205.633 47.6112 205.532 47.5105 205.431 47.3091C205.129 46.4026 204.726 45.4961 204.323 44.6904C204.223 44.3882 204.223 44.2875 204.323 43.9854C205.331 42.8775 206.338 41.5682 207.143 40.4603Z" stroke="#003EAE" stroke-width="0.7" stroke-miterlimit="10"/>
<path d="M207.324 40.4604C206.417 41.7698 205.511 42.9784 204.503 44.187C204.302 44.3884 204.302 44.5899 204.503 44.892C204.906 45.6977 205.208 46.7049 205.611 47.5107C205.712 47.7121 205.813 47.8128 206.014 47.8128C207.726 48.0142 209.237 48.2157 210.949 48.5178C210.949 49.8272 210.949 51.0358 210.949 52.4458C209.942 52.5465 208.834 52.748 207.827 52.8487C207.223 52.9494 206.518 52.9494 205.914 53.0501C205.813 53.0501 205.611 53.1508 205.611 53.2516C205.208 54.158 204.806 55.1652 204.302 56.1724C204.302 56.2731 204.302 56.4745 204.403 56.5752C205.209 57.6831 206.115 58.8917 206.921 59.8989C207.021 59.9996 207.122 60.1003 207.122 60.2011C206.216 61.1075 205.309 62.014 204.302 63.0212C204.302 63.0212 204.101 62.9204 204 62.8197C202.892 62.014 201.683 61.1075 200.575 60.3018C200.475 60.2011 200.273 60.2011 200.072 60.3018C199.165 60.6039 198.158 61.1075 197.252 61.4097C197.05 61.5104 196.95 61.6111 196.95 61.9133C196.748 63.424 196.547 64.9348 196.345 66.5463C196.345 66.8484 196.245 66.9491 195.942 66.9491C194.935 66.9491 193.827 66.9491 192.921 66.9491C192.619 66.9491 192.518 66.8484 192.518 66.5463C192.317 65.0355 192.115 63.5247 191.914 62.014C191.914 61.7118 191.813 61.6111 191.511 61.5104C190.604 61.2082 189.698 60.7046 188.691 60.4025C188.59 60.4025 188.389 60.4025 188.187 60.5032C187.079 61.309 185.871 62.2154 184.864 63.0212C184.763 63.1219 184.561 63.2226 184.461 63.3233C183.554 62.4168 182.648 61.5104 181.641 60.5032C182.547 59.1939 183.454 58.086 184.36 56.7767C184.561 56.4745 184.561 56.2731 184.36 55.9709C183.957 55.1652 183.655 54.2587 183.353 53.453C183.252 53.1508 183.151 53.0501 182.849 53.0501C181.338 52.8487 179.928 52.6473 178.418 52.4458C178.317 52.4458 178.115 52.4458 177.914 52.3451C177.914 51.0358 177.914 49.8272 177.914 48.4171C178.72 48.3164 179.626 48.2157 180.432 48.115C181.238 48.0142 182.144 47.9135 182.95 47.8128C183.051 47.8128 183.252 47.7121 183.252 47.5107C183.655 46.6042 184.058 45.597 184.561 44.6906C184.561 44.5899 184.561 44.3884 184.461 44.187C183.655 43.0791 182.749 41.8705 181.943 40.8633C181.842 40.7626 181.741 40.6619 181.741 40.5612C182.648 39.6547 183.554 38.6475 184.561 37.7411C185.669 38.5468 186.979 39.554 188.288 40.4604C188.489 40.6619 188.691 40.6619 188.993 40.4604C189.799 40.0576 190.705 39.7554 191.511 39.4533C191.813 39.3525 191.914 39.2518 192.015 38.9497C192.216 37.4389 192.417 35.9281 192.619 34.4174C192.619 34.1152 192.72 34.1152 193.022 34.1152C194.029 34.1152 195.137 34.1152 196.144 34.1152C196.345 34.1152 196.446 34.1152 196.446 34.4174C196.648 35.9281 196.849 37.4389 197.05 38.9497C197.05 39.2518 197.252 39.4533 197.554 39.554C198.36 39.8561 199.266 40.259 200.072 40.6619C200.273 40.7626 200.475 40.7626 200.676 40.6619C201.986 39.7554 203.194 38.7482 204.503 37.8418C205.511 38.5468 206.518 39.3525 207.324 40.4604ZM186.374 50.3307C186.374 54.7623 189.899 58.3881 194.331 58.3881C198.863 58.3881 202.388 54.863 202.388 50.4315C202.388 45.8992 198.863 42.3741 194.432 42.3741C190.202 42.2733 186.374 45.8992 186.374 50.3307Z" stroke="#003EAE" stroke-width="0.7" stroke-miterlimit="10"/>
<g clip-path="url(#clip0_3809_4358)">
<path d="M196.869 50.3257H22.0986V169.138H196.869V50.3257Z" fill="#0064B5"/>
<path d="M196.869 151.577H22.0986V169.09H196.869V151.577Z" fill="#FFC727"/>
<path d="M196.869 151.577H22.0986V169.09H196.869V151.577Z" fill="#033E9F"/>
<path d="M143.542 190.527H75.4238V196.221H143.542V190.527Z" fill="#FFC727"/>
<path d="M143.542 190.527H75.4238V196.221H143.542V190.527Z" fill="#033E9F"/>
<path d="M135.452 190.527H83.5137L84.854 180.67L84.9019 180.191L85.0455 179.282L85.0934 178.803L85.237 177.894V177.751L85.2848 177.416L85.4284 176.507L85.4763 176.028L86.3858 169.138H132.58L133.441 175.645L133.489 175.932L133.633 177.033L133.681 177.32L133.728 177.751L133.824 178.421V178.708L133.968 179.808L134.016 180.095L135.452 190.527Z" fill="#0064B5"/>
<path d="M112.331 159.185C112.331 160.764 111.039 162.056 109.459 162.056C107.879 162.056 106.587 160.764 106.587 159.185C106.587 157.606 107.879 156.314 109.459 156.314C111.039 156.266 112.331 157.558 112.331 159.185Z" fill="white"/>
<g opacity="0.16">
<path d="M133.729 177.751L85.4766 176.028L86.3861 169.138H132.58L133.729 177.751Z" fill="black"/>
</g>
<path d="M188.639 58H30.001V143.317H188.639V58Z" fill="white"/>
<g clip-path="url(#clip1_3809_4358)">
<path d="M61.9525 110H38.001V112.036H61.9525V110Z" fill="#DBE9F8"/>
<path d="M107.334 114.655H38.001V116.691H107.334V114.655Z" fill="#DBE9F8"/>
<path d="M107.334 119.115H38.001V121.152H107.334V119.115Z" fill="#DBE9F8"/>
<path d="M107.334 123.527H38.001V125.564H107.334V123.527Z" fill="#DBE9F8"/>
<path d="M107.334 127.988H38.001V130.024H107.334V127.988Z" fill="#DBE9F8"/>
<path d="M61.9525 66H38.001V71.3818H61.9525V66Z" fill="#DBE9F8"/>
<path d="M87.2131 75.1152H38.001V77.1516H87.2131V75.1152Z" fill="#DBE9F8"/>
<path d="M87.2131 79.5273H38.001V81.5637H87.2131V79.5273Z" fill="#DBE9F8"/>
<path d="M87.2131 83.9878H38.001V86.0242H87.2131V83.9878Z" fill="#DBE9F8"/>
<path d="M87.2131 88.3999H38.001V90.4363H87.2131V88.3999Z" fill="#DBE9F8"/>
<path d="M87.2131 94.3149H38.001V96.3513H87.2131V94.3149Z" fill="#DBE9F8"/>
<path d="M87.2131 98.7271H38.001V100.763H87.2131V98.7271Z" fill="#DBE9F8"/>
</g>
<g clip-path="url(#clip2_3809_4358)">
<path d="M150.105 69.1919H69.1924V133.212H150.105V69.1919Z" fill="#E5F0F9"/>
<path d="M150.057 133.164L69.1929 133.308H69.049V133.164L69.001 69.192V69H69.1929L150.105 69.048H150.201V69.144L150.057 133.164ZM150.057 133.164L149.961 69.192L150.057 69.2879L69.1929 69.3359L69.3849 69.144L69.2889 133.164L69.1449 133.02L150.057 133.164Z" fill="#263238"/>
<path d="M150.106 69.1919H69.1934V73.5111H150.106V69.1919Z" fill="#0064B5"/>
<path d="M72.4096 72.1673C72.8602 72.1673 73.2254 71.8021 73.2254 71.3515C73.2254 70.9009 72.8602 70.5356 72.4096 70.5356C71.959 70.5356 71.5938 70.9009 71.5938 71.3515C71.5938 71.8021 71.959 72.1673 72.4096 72.1673Z" fill="#C7C7C7"/>
<path d="M76.5848 71.3515C76.5848 71.7834 76.2009 72.1673 75.769 72.1673C75.3371 72.1673 74.9531 71.7834 74.9531 71.3515C74.9531 70.9196 75.3371 70.5356 75.769 70.5356C76.2009 70.5356 76.5848 70.8716 76.5848 71.3515Z" fill="white"/>
<path d="M79.0795 72.1673C79.5301 72.1673 79.8954 71.8021 79.8954 71.3515C79.8954 70.9009 79.5301 70.5356 79.0795 70.5356C78.6289 70.5356 78.2637 70.9009 78.2637 71.3515C78.2637 71.8021 78.6289 72.1673 79.0795 72.1673Z" fill="#EC384E"/>
<path d="M99.1876 93.5713L96.1162 90.5479C101.587 84.9809 109.986 83.3973 117.088 86.6126C123.039 89.3001 127.166 95.059 127.886 101.538L123.615 102.018C123.039 97.0746 119.872 92.6595 115.313 90.5959C109.842 88.1003 103.363 89.3001 99.1876 93.5713Z" fill="#0064B5"/>
<path d="M119.584 99.3301L124.335 110.368L131.582 100.722L119.584 99.3301Z" fill="#0064B5"/>
<path d="M102.161 119.583C96.2104 116.895 92.0831 111.136 91.3633 104.658L95.6345 104.178C96.1624 109.169 99.3777 113.584 103.937 115.648C109.648 118.239 116.558 116.751 120.638 112L123.901 114.832C118.574 120.975 109.648 122.942 102.161 119.583Z" fill="#0064B5"/>
<path d="M99.6665 106.913L94.9154 95.8271L87.7168 105.473L99.6665 106.913Z" fill="#0064B5"/>
</g>
</g>
<path d="M191.021 189.898C191.021 189.898 193.796 190.12 195.905 190.12C198.014 190.12 201.233 190.564 201.233 190.564C201.233 190.564 202.121 190.564 202.121 191.675C202.121 192.785 202.121 193.118 202.121 193.118C202.121 193.118 202.121 194.561 201.233 194.561C200.345 194.561 194.018 195.227 192.686 195.227C191.354 195.227 190.133 195.449 190.133 194.561C190.022 193.34 190.022 189.898 191.021 189.898Z" fill="#160956"/>
<path d="M193.353 160.481C193.353 160.481 195.24 170.472 195.24 173.247C195.462 176.022 195.684 177.91 193.797 179.02C192.132 180.13 189.135 181.129 189.135 181.129L185.693 163.146V161.036L193.353 160.481Z" fill="#FDBD97"/>
<path d="M162.603 160.038C162.603 160.038 161.715 164.7 161.16 166.92C160.938 169.251 160.272 173.58 160.272 174.802C160.272 175.912 160.05 177.577 161.937 178.909C163.824 180.241 165.822 181.018 165.822 181.018L169.707 160.149H162.492V160.038H162.603Z" fill="#FDBD97"/>
<path d="M176.147 145.496C176.147 145.496 176.147 147.605 175.259 148.493C174.37 149.381 173.149 150.824 173.149 150.824C173.149 150.824 175.259 154.043 179.366 153.599C183.473 153.155 184.25 150.158 184.25 150.158C184.25 150.158 180.365 149.714 179.81 145.94C179.366 142.276 178.7 142.276 178.7 142.276L176.147 145.496Z" fill="#FDAE7F"/>
<path d="M173.149 137.17C173.149 137.17 173.371 142.054 175.481 145.718C177.812 149.381 180.365 147.383 181.475 145.496C182.585 143.609 185.36 137.17 184.694 135.838C184.028 134.173 175.925 133.507 175.925 133.507L173.149 137.17Z" fill="#FDBD97"/>
<path d="M183.805 139.945C183.805 139.945 184.915 139.057 184.915 139.945C184.915 140.833 184.249 142.276 183.472 142.276C182.806 142.498 182.806 142.054 183.028 141.388C183.361 140.833 183.805 139.945 183.805 139.945Z" fill="#FDBD97"/>
<path d="M173.593 141.721C173.815 141.943 174.259 141.943 174.259 141.499C174.259 140.611 173.593 139.168 172.816 139.168C172.15 138.946 172.15 139.39 172.372 140.056C172.372 140.278 172.372 140.5 172.594 140.722C172.927 141.055 173.371 141.721 173.593 141.721Z" fill="#FDBD97"/>
<path d="M173.371 139.39L173.149 137.947C173.149 137.947 174.592 138.169 175.924 136.504C175.924 136.504 178.921 137.17 181.253 136.948C183.806 136.726 184.694 136.06 184.694 136.06C184.694 136.06 184.25 138.835 183.806 139.723C183.806 139.723 184.916 139.279 185.471 137.836C185.915 136.393 185.915 135.061 185.915 135.061C185.915 135.061 187.58 133.618 188.024 132.286C188.024 132.286 183.584 131.176 182.252 130.398C180.809 129.51 180.143 128.955 180.143 128.955C180.143 128.955 178.033 127.845 176.035 129.399C174.037 130.954 172.594 131.953 172.594 134.728C172.705 134.617 170.596 137.392 173.371 139.39Z" fill="#150C56"/>
<path d="M173.594 149.381C173.594 149.381 170.819 149.159 169.153 149.381C167.488 149.825 167.044 149.603 167.488 150.824C167.932 152.045 170.041 157.484 169.153 160.815C168.265 164.256 166.822 181.684 166.822 181.684C166.822 181.684 177.479 182.128 181.586 182.35C185.694 182.572 188.802 181.906 188.802 181.906C188.802 181.906 189.69 174.247 188.802 171.027C187.914 167.808 186.693 162.258 186.693 162.258C186.693 162.258 186.027 154.598 186.915 152.822C187.803 150.935 188.802 150.935 187.359 150.269C186.027 149.603 184.583 149.381 183.473 149.381C182.363 149.381 181.808 149.381 181.142 150.047C180.476 150.713 179.255 151.934 177.479 151.712C175.814 151.49 174.482 150.269 174.482 150.269C174.482 150.269 174.371 149.381 173.594 149.381Z" fill="#0181F7"/>
<path d="M168.821 149.825C168.821 149.825 167.933 149.381 166.267 150.491C164.602 151.934 163.492 154.598 163.048 156.485C162.604 158.372 162.16 160.148 162.16 160.148C162.16 160.148 164.269 161.258 166.267 161.258C168.266 161.258 169.709 161.48 169.709 161.48C169.709 161.48 170.597 155.93 170.375 153.599C170.153 151.49 169.709 150.491 168.821 149.825Z" fill="#0064B5"/>
<path d="M186.359 151.934C186.359 151.934 187.247 149.603 189.135 150.491C191.022 151.601 192.354 155.597 192.798 156.707C193.242 158.15 193.686 160.37 193.686 160.37C193.686 160.37 191.355 161.259 189.579 161.481C187.691 161.703 186.359 161.703 186.359 161.703C186.359 161.703 185.693 156.818 185.693 154.82C185.693 152.822 186.359 151.934 186.359 151.934Z" fill="#0064B5"/>
<path d="M170.929 183.127H185.249L177.811 185.458L170.929 183.127Z" fill="#8F051C"/>
<path d="M158.163 179.242C158.163 179.242 184.25 187.345 190.022 189.454C190.022 189.454 191.91 189.898 191.91 190.786C191.91 191.674 191.688 193.117 191.688 193.784C191.466 194.45 190.799 195.227 189.8 194.894C188.912 194.672 165.268 190.009 156.054 187.456L153.279 186.568C153.279 186.568 151.392 185.68 151.614 183.349C151.836 181.018 153.723 178.909 154.833 178.687C156.276 178.798 158.163 179.242 158.163 179.242Z" fill="#DC051F"/>
<path d="M155.833 190.787C155.833 190.787 159.052 190.343 161.161 190.121C163.048 190.121 165.823 189.899 166.045 190.121C166.267 190.343 166.711 194.228 166.711 194.228C166.711 194.228 166.933 195.338 164.38 195.116C161.827 194.894 155.833 194.672 155.833 194.672C155.833 194.672 154.39 194.672 154.39 193.229C154.39 192.119 154.612 191.564 154.612 191.564C154.612 191.564 154.945 191.009 155.833 190.787Z" fill="#160956"/>
<path d="M171.374 187.346C171.374 187.346 187.137 182.461 192.909 180.907C198.681 179.242 201.679 177.688 203.566 180.463C205.453 183.238 205.231 186.013 203.122 186.902C201.013 187.79 184.583 191.564 177.701 192.896C170.819 194.228 166.378 195.227 165.712 195.005C165.046 194.783 164.269 192.674 164.602 191.564C164.824 190.454 164.824 189.899 166.267 189.455C167.377 188.678 171.374 187.346 171.374 187.346Z" fill="#EC384E"/>
<path d="M169.486 164.367H188.468C188.468 164.367 189.578 164.145 189.578 165.81C189.578 167.253 189.578 182.239 189.578 182.239C189.578 182.239 189.578 183.349 188.912 183.349C188.024 183.349 166.489 183.349 166.489 183.349C166.489 183.349 165.601 183.571 165.601 181.906C165.601 180.241 165.601 165.255 165.601 165.255C165.601 165.255 165.601 164.367 166.711 164.367C167.821 164.367 169.486 164.367 169.486 164.367Z" fill="#160956"/>
<defs>
<clipPath id="clip0_3809_4358">
<rect width="174.77" height="155.014" fill="white" transform="translate(22.0977 50.3257)"/>
</clipPath>
<clipPath id="clip1_3809_4358">
<rect width="69.3333" height="64" fill="white" transform="translate(38.001 66)"/>
</clipPath>
<clipPath id="clip2_3809_4358">
<rect width="81.2004" height="64.3076" fill="white" transform="translate(69.001 69)"/>
</clipPath>
</defs>
</svg>
